<?xml version="1.0" standalone="no"?>
<!DOCTYPE svg PUBLIC "-//W3C//DTD SVG 1.1//EN" "http://www.w3.org/Graphics/SVG/1.1/DTD/svg11.dtd" >
<svg>
<metadata>
Created by FontForge 20090622 at Tue Dec 18 20:01:14 2018
 By deploy user
&#194;&#169; 1999-2018 Typodermic Fonts Inc.
</metadata>
<defs>
<font id="KenyanCoffeeRg-Italic" horiz-adv-x="399" >
  <font-face 
    font-family="Kenyan Coffee Rg"
    font-weight="400"
    font-style="italic"
    font-stretch="normal"
    units-per-em="1000"
    panose-1="2 0 6 8 2 2 0 1 1 4"
    ascent="796"
    descent="-204"
    x-height="599"
    cap-height="790"
    bbox="-372 -203 874 1070.05"
    underline-thickness="20"
    underline-position="-123"
    slope="-12"
    unicode-range="U+0020-U+FB02"
  />
<missing-glyph horiz-adv-x="636" 
d="M121 -185q-96 0 -96 83v879q0 85 96 85h390q97 0 97 -85v-879q0 -83 -97 -83h-390zM302 490l25 96q4 18 15 18q13 0 19 -5t6 -10q0 -3 -2 -13l-27 -98q-5 -16 -10 -25.5t-16 -18.5l-68 -60q-15 -13 -24.5 -25.5t-16.5 -26t-12.5 -30.5t-11.5 -39l-22 -80l132 -36l16 62
q5 17 10 25.5t15 18.5l102 98q15 14 25.5 26t18 24.5t13.5 28.5t12 38l21 77q8 28 12 50.5t4 40.5q0 24 -8.5 41t-26.5 30.5t-46 24t-68 21.5q-32 8 -57.5 13t-45.5 5q-23 0 -39.5 -7t-29 -23t-22.5 -41t-20 -62l-26 -97zM284 88l-141 38l-37 -136l141 -38z" />
    <glyph glyph-name=".notdef" horiz-adv-x="636" 
d="M121 -185q-96 0 -96 83v879q0 85 96 85h390q97 0 97 -85v-879q0 -83 -97 -83h-390zM302 490l25 96q4 18 15 18q13 0 19 -5t6 -10q0 -3 -2 -13l-27 -98q-5 -16 -10 -25.5t-16 -18.5l-68 -60q-15 -13 -24.5 -25.5t-16.5 -26t-12.5 -30.5t-11.5 -39l-22 -80l132 -36l16 62
q5 17 10 25.5t15 18.5l102 98q15 14 25.5 26t18 24.5t13.5 28.5t12 38l21 77q8 28 12 50.5t4 40.5q0 24 -8.5 41t-26.5 30.5t-46 24t-68 21.5q-32 8 -57.5 13t-45.5 5q-23 0 -39.5 -7t-29 -23t-22.5 -41t-20 -62l-26 -97zM284 88l-141 38l-37 -136l141 -38z" />
    <glyph glyph-name="space" unicode=" " horiz-adv-x="169" 
 />
    <glyph glyph-name="exclam" unicode="!" horiz-adv-x="178" 
d="M316 790l-146 -601h-79l107 601h118zM143 0h-105l28 132h105z" />
    <glyph glyph-name="quotedbl" unicode="&#x22;" horiz-adv-x="290" 
d="M152 506zM286 790l-75 -284h-59l45 284h89zM448 790l-75 -284h-59l45 284h89z" />
    <glyph glyph-name="numbersign" unicode="#" horiz-adv-x="433" 
d="M162 324l45 140h-69l33 98h69l75 228h70l-75 -228h91l74 228h71l-75 -228h60l-34 -98h-58l-46 -140h68l-32 -99h-69l-73 -225h-71l73 225h-90l-73 -225h-70l73 225h-60l34 99h59zM232 324h90l46 140h-90z" />
    <glyph glyph-name="dollar" unicode="$" 
d="M428 862l-14 -64q51 -3 72 -19t21 -58q0 -32 -12 -89l-21 -98h-112l21 98q6 27 6 41q0 16 -9 20t-32 4q-16 0 -26 -2.5t-17 -9.5t-11.5 -20t-8.5 -33l-11 -51.5l-6 -30t-2.5 -15t-0.5 -7.5q0 -17 11 -26.5t40 -23.5q34 -17 56.5 -30.5t36.5 -27t20 -28.5t6 -35
q0 -8 -1 -18t-5 -31t-11.5 -57l-19.5 -94q-11 -49 -22 -80t-28.5 -49t-42.5 -26t-62 -10l-14 -64h-89l14 64q-50 3 -71.5 18.5t-21.5 58.5q0 32 12 88l33 157h112l-33 -157q-6 -27 -6 -41q0 -16 9 -20t31 -4q16 0 26 2.5t17 9.5t11 19.5t9 33.5l16.5 79t9.5 46.5t4 23.5
t1 12q0 18 -9.5 27t-32.5 21q-36 18 -60.5 32t-39 28t-21 28.5t-6.5 34.5q0 6 1 15t4 25t8 40.5l13 62.5q10 49 21.5 80t29 49.5t42.5 26.5t62 10l14 64h89z" />
    <glyph glyph-name="percent" unicode="%" horiz-adv-x="604" 
d="M100 0zM675 790l-497 -790h-78l497 790h78zM328 445q-7 -32 -15 -50.5t-22.5 -28.5t-36.5 -13t-56 -3q-53 0 -74 8t-21 40q0 18 6 47l55 259q7 31 15 49.5t22 28.5t36 13t56 3q53 0 74.5 -8.5t21.5 -39.5q0 -18 -6 -46zM303 704q2 5 2 9v8q0 8 -5.5 10.5t-19.5 2.5
q-20 0 -26.5 -5.5t-10.5 -24.5l-55 -259q-1 -5 -1.5 -9t-0.5 -7q0 -10 5.5 -12.5t20.5 -2.5q10 0 16 1t10 4.5t6 9.5t4 16zM609 89q-7 -32 -15 -50.5t-22.5 -28.5t-36.5 -13t-56 -3q-53 0 -74 8t-21 40q0 18 6 47l55 259q7 31 15 49.5t22 28.5t36 13t56 3q53 0 74.5 -8.5
t21.5 -39.5q0 -18 -6 -46zM584 348q2 5 2 9v8q0 8 -5.5 10.5t-19.5 2.5q-20 0 -26.5 -5.5t-10.5 -24.5l-55 -259q-1 -5 -1.5 -9t-0.5 -7q0 -10 5.5 -12.5t20.5 -2.5q10 0 16 1t10 4.5t6 9.5t4 16z" />
    <glyph glyph-name="ampersand" unicode="&#x26;" horiz-adv-x="395" 
d="M436 413l-87 -413h-149q-39 0 -66 3t-44 11.5t-24.5 23.5t-7.5 40q0 17 3.5 37.5t8.5 46.5l37 174q7 34 17 55.5t22.5 34.5t27 20t30.5 13l1 4q-9 2 -18.5 5.5t-17 11t-12.5 19.5t-5 30q0 9 1.5 19t3.5 22l12 59q11 53 24 84.5t35 48.5t55 22.5t84 5.5h17l-21 -100h-17
q-16 0 -26 -2.5t-17 -9t-11 -18.5t-8 -31l-14 -69q-2 -11 -3.5 -18.5t-1.5 -13.5q0 -15 9 -19.5t31 -4.5h44l23 112h107l-23 -112h37l-20 -91h-37zM329 413h-44q-30 0 -41 -12.5t-18 -44.5l-41 -194q-6 -24 -6 -37q0 -17 9.5 -21.5t32.5 -4.5h42z" />
    <glyph glyph-name="quotesingle" unicode="'" horiz-adv-x="150" 
d="M287 790l-75 -284h-59l45 284h89z" />
    <glyph glyph-name="parenleft" unicode="(" horiz-adv-x="256" 
d="M411 845h-18q-22 0 -36 -4t-23.5 -16t-16.5 -32.5t-14 -53.5l-159 -744q-9 -42 -9 -64q0 -26 13 -34t42 -8h18l-16 -74h-18q-68 0 -95.5 21.5t-27.5 71.5q0 34 11 87l159 744q10 49 24.5 83t36 55.5t52.5 31.5t75 10h18z" />
    <glyph glyph-name="parenright" unicode=")" horiz-adv-x="256" 
d="M220 919h18q66 0 94 -23t28 -76q0 -35 -10 -81l-159 -744q-11 -49 -24 -83t-34 -55.5t-52.5 -31.5t-77.5 -10h-17l15 74h18q21 0 35 4t23.5 15t16.5 32t15 55l159 744q5 20 6.5 36l2.5 27q0 26 -13 34.5t-42 8.5h-18z" />
    <glyph glyph-name="asterisk" unicode="*" horiz-adv-x="437" 
d="M218 708l107 -78l-12 134l34 36l33 -36l-11 -134l107 78l46 -13l-13 -48l-118 -57l118 -56l13 -48l-46 -13l-107 78l11 -134l-33 -36l-34 36l12 134l-107 -78l-46 13l14 48l117 56l-117 57l-14 48z" />
    <glyph glyph-name="plus" unicode="+" horiz-adv-x="493" 
d="M277 354h-158l19 91h158l33 157h90l-33 -157h159l-19 -91h-159l-34 -158h-90z" />
    <glyph glyph-name="comma" unicode="," horiz-adv-x="191" 
d="M144 -19q-9 -42 -34 -64.5t-78 -22.5h-11l10 47h13q16 0 25.5 8t14.5 29l5 22h-45l28 132h105z" />
    <glyph glyph-name="hyphen" unicode="-" horiz-adv-x="205" 
d="M245 288h-163l19 90h163z" />
    <glyph glyph-name="hyphen" unicode="&#xad;" horiz-adv-x="205" 
d="M245 288h-163l19 90h163z" />
    <glyph glyph-name="period" unicode="." horiz-adv-x="191" 
d="M149 0h-105l28 132h105z" />
    <glyph glyph-name="slash" unicode="/" horiz-adv-x="272" 
d="M452 864l-380 -936h-83l378 936h85z" />
    <glyph glyph-name="zero" unicode="0" 
d="M398 157q-12 -55 -25.5 -88t-35.5 -50.5t-55.5 -23t-84.5 -5.5q-38 0 -65 3t-43.5 11t-24 23.5t-7.5 40.5q0 33 12 89l101 477q12 55 25.5 87.5t35 50t55 23t84.5 5.5q38 0 65 -3t44 -11t24.5 -24t7.5 -41q0 -33 -12 -87zM383 634q2 12 4 21t2 16q0 17 -9.5 21.5
t-31.5 4.5q-16 0 -26 -2.5t-17 -9.5t-11.5 -19.5t-8.5 -31.5l-101 -477q-6 -26 -6 -38q0 -17 9 -22t32 -5q16 0 26.5 2.5t17 10t11 20t8.5 32.5z" />
    <glyph glyph-name="one" unicode="1" horiz-adv-x="245" 
d="M185 790h185l-167 -790h-116l146 691h-69z" />
    <glyph glyph-name="two" unicode="2" horiz-adv-x="413" 
d="M42 0l50 238q10 50 20 81t23.5 51.5t32.5 34.5t49 30l100 54q15 8 24.5 14.5t15.5 14.5t10 17.5t7 23.5l17 78q5 23 5 34q0 16 -9 21t-31 5q-16 0 -26.5 -3t-17.5 -10t-11.5 -19t-8.5 -31l-21 -98h-112l21 98q12 55 25.5 87.5t35 50t54.5 23t84 5.5q38 0 65 -2.5
t43.5 -11t24 -23.5t7.5 -39q0 -33 -12 -87l-18 -83q-7 -31 -14.5 -52.5t-19.5 -38t-30 -29.5t-46 -27l-108 -57q-14 -8 -23 -14.5t-15 -15t-10 -19.5t-7 -27l-37 -172h97l41 191h117l-62 -293h-330z" />
    <glyph glyph-name="three" unicode="3" horiz-adv-x="391" 
d="M208 308l-33 -153q-4 -19 -4 -33q0 -17 9 -23t31 -6q15 0 25 3t17 10.5t11 19.5t8 29l29 135q4 19 6.5 32.5t2.5 24.5q0 16 -8.5 22.5t-29.5 6.5h-66l23 104h66q31 0 41.5 11.5t16.5 40.5l21 103q5 25 5 35q0 17 -9.5 22t-30.5 5q-18 0 -28.5 -3t-17 -10.5t-10 -19.5
t-6.5 -29l-19 -93h-110l19 93q11 54 25 87t35.5 50t53.5 22.5t80 5.5q38 0 65 -3t44 -11.5t24.5 -24t7.5 -40.5q0 -17 -3 -37.5t-8 -46.5l-21 -99q-7 -31 -18 -50.5t-23.5 -31.5t-26.5 -17.5t-26 -8.5l-1 -4q22 -5 36 -19t14 -51q0 -13 -1.5 -29t-6.5 -36l-29 -138
q-11 -53 -24.5 -85.5t-35.5 -49.5t-55.5 -22.5t-84.5 -5.5q-36 0 -62 3t-42 11t-23.5 23.5t-7.5 40.5q0 33 12 87l33 153h110z" />
    <glyph glyph-name="four" unicode="4" horiz-adv-x="418" 
d="M465 324l-20 -98h-47l-48 -226h-117l48 226h-194l123 569h106l-103 -471h88l74 346h117l-74 -346h47z" />
    <glyph glyph-name="five" unicode="5" horiz-adv-x="403" 
d="M363 537l35 167h-96l-50 -229h88q53 0 77 -18.5t24 -66.5q0 -30 -9 -73l-34 -160q-12 -55 -25.5 -88t-36 -50.5t-55.5 -23t-84 -5.5q-36 0 -61.5 3t-41.5 11t-23.5 23.5t-7.5 40.5q0 32 12 88l30 142h110l-30 -142q-2 -11 -4 -19t-2 -14q0 -20 7.5 -25.5t32.5 -5.5
q16 0 26 2.5t17 9t11 19t9 33.5l30 143q4 17 6.5 31t2.5 25q0 20 -10.5 28t-36.5 8h-149l87 399h320l-53 -253h-116z" />
    <glyph glyph-name="six" unicode="6" 
d="M398 157q-12 -55 -25.5 -88t-35.5 -50.5t-55.5 -23t-84.5 -5.5q-38 0 -65 3t-43.5 11t-24 23.5t-7.5 40.5q0 33 12 89l101 477q12 55 25.5 87.5t35 50t55 23t84.5 5.5q36 0 62 -3t42 -11t23.5 -24t7.5 -41q0 -33 -12 -87l-17 -79h-111l17 79q2 12 4 21t2 16q0 16 -9.5 21
t-30.5 5q-15 0 -25.5 -3t-17.5 -10t-11.5 -19t-8.5 -31l-44 -210q31 44 109 44q51 0 71 -16.5t20 -56.5q0 -18 -3.5 -41.5t-9.5 -52.5zM312 299q7 31 7 50t-8.5 24t-25.5 5q-26 0 -40 -11t-24 -35l-35 -166q-3 -15 -5 -26t-2 -19q0 -19 9.5 -24t30.5 -5q15 0 25 2.5t17 9
t11.5 19.5t9.5 34z" />
    <glyph glyph-name="seven" unicode="7" horiz-adv-x="329" 
d="M450 702l-297 -702h-119l300 694h-161l20 96h275z" />
    <glyph glyph-name="eight" unicode="8" horiz-adv-x="401" 
d="M371 800q38 0 65 -3t44 -11.5t24.5 -23.5t7.5 -40q0 -17 -3 -37t-8 -46l-21 -101q-6 -31 -17 -50.5t-24.5 -31.5t-28 -17.5t-27.5 -8.5l-1 -4q24 -5 38.5 -19t14.5 -50q0 -14 -1.5 -30t-6.5 -36l-29 -139q-11 -53 -25 -85t-36 -49t-55 -22.5t-84 -5.5q-39 0 -66 3
t-44 11.5t-24.5 23.5t-7.5 40q0 17 3.5 37.5t8.5 46.5l29 139q8 39 18.5 63.5t23.5 39.5t28 22t33 10l1 4q-10 2 -20 6t-18 11.5t-13 20t-5 30.5q0 9 1.5 19t3.5 21l21 101q11 52 24.5 84t35.5 49t55.5 22.5t84.5 5.5zM316 313q2 13 4 23t2 18q0 17 -9.5 22.5t-30.5 5.5
q-16 0 -26 -2.5t-17 -11t-12.5 -25.5t-11.5 -45l-31 -145q-5 -23 -5 -34q0 -17 9 -22t32 -5q31 0 42.5 11.5t19.5 49.5zM349 697q-17 0 -27 -3t-17 -10.5t-11.5 -21t-8.5 -35.5l-21 -98q-4 -15 -4 -28q0 -15 9 -21t32 -6q16 0 26.5 2.5t17 9t10.5 17t7 26.5l21 98q6 28 6 43
q0 17 -8.5 22t-31.5 5z" />
    <glyph glyph-name="nine" unicode="9" 
d="M170 633q12 55 25.5 88t35 50.5t55 23t84.5 5.5q38 0 65 -3t44 -11t24.5 -24t7.5 -41q0 -33 -12 -88l-101 -477q-12 -55 -25.5 -87.5t-35.5 -50t-55.5 -23t-84.5 -5.5q-36 0 -61.5 3t-41.5 11t-23.5 23.5t-7.5 40.5q0 32 12 88l13 61h110l-13 -61q-2 -12 -4 -21t-1 -16
q0 -17 9 -22t30 -5q32 0 43.5 13t19.5 51l39 186q-31 -43 -108 -43q-51 0 -71 16.5t-20 57.5q0 18 3.5 41t9.5 52zM254 489l-8.5 -43.5t-3.5 -29.5q0 -17 8 -22.5t28 -5.5q26 0 40 10t23 36l42 199q6 25 6 39q0 16 -9 20.5t-32 4.5q-16 0 -26 -2t-17 -9t-11.5 -19.5
t-8.5 -33.5z" />
    <glyph glyph-name="colon" unicode=":" horiz-adv-x="191" 
d="M149 0h-105l28 132h105zM233 397h-105l28 132h105z" />
    <glyph glyph-name="semicolon" unicode=";" horiz-adv-x="191" 
d="M144 -19q-9 -42 -34.5 -64.5t-77.5 -22.5h-11l10 47h13q16 0 25.5 8t14.5 29l5 22h-45l28 132h105zM233 397h-105l28 132h105z" />
    <glyph glyph-name="less" unicode="&#x3c;" horiz-adv-x="493" 
d="M581 613l-21 -93l-333 -122l281 -123l-18 -89l-372 165l21 97z" />
    <glyph glyph-name="equal" unicode="=" horiz-adv-x="493" 
d="M96 247l19 90h408l-19 -90h-408zM142 465l19 90h408l-19 -90h-408z" />
    <glyph glyph-name="greater" unicode="&#x3e;" horiz-adv-x="493" 
d="M84 186l21 93l333 122l-281 123l18 89l372 -165l-21 -97z" />
    <glyph glyph-name="question" unicode="?" horiz-adv-x="385" 
d="M236 0h-105l27 131h105zM186 253q5 24 10 41.5t11.5 32t15.5 28t23 29.5l74 87q16 19 22.5 35.5t13.5 47.5l17 80q2 12 4 21t2 16q0 16 -9.5 21t-31.5 5q-17 0 -27 -2.5t-17 -9.5t-11 -19.5t-8 -31.5l-21 -100h-112l21 100q12 55 25.5 87.5t35.5 50t54.5 23t81.5 5.5
q38 0 64.5 -3t43.5 -11.5t25 -24t8 -40.5q0 -33 -12 -87l-15 -71q-5 -26 -10.5 -44t-12.5 -33t-17.5 -29.5t-25.5 -32.5l-93 -110q-8 -9 -12.5 -16t-8 -14t-6 -15.5t-5.5 -20.5l-12 -59h-98z" />
    <glyph glyph-name="at" unicode="@" horiz-adv-x="421" 
d="M349 453q47 0 58 -24l21 100q6 28 6 45q0 26 -18.5 35t-71.5 9q-35 0 -56.5 -3t-34.5 -13t-20 -27.5t-13 -45.5l-105 -495q-6 -26 -6 -41q0 -26 20 -33.5t73 -7.5q35 0 56 3t33.5 12t19 25t12.5 42l6 28h71l-5 -21q-11 -53 -25 -85t-37 -49t-58.5 -22.5t-89.5 -5.5
q-42 0 -71 3t-47 11.5t-26 24t-8 41.5q0 17 3 36.5t8 45.5l103 482q12 55 25.5 87.5t36.5 50t58.5 23t89.5 5.5q41 0 70 -3t47 -12t26.5 -25t8.5 -42q0 -17 -3 -37.5t-8 -46.5l-83 -390h-66l5 24q-12 -14 -29.5 -21t-44.5 -7q-33 0 -47 9.5t-14 33.5q0 17 6 44l31 146
q6 27 12.5 44.5t17 28t26 14.5t37.5 4zM293 223q-3 -12 -3 -19q0 -19 28 -19q14 0 24.5 8t18.5 19l33 156q-5 23 -32 23q-20 0 -28 -9t-13 -29z" />
    <glyph glyph-name="A" unicode="A" 
d="M247 0l37 176h-97l-37 -176h-112l134 634q12 55 25.5 87.5t35.5 50t54.5 23t81.5 5.5q37 0 63.5 -3.5t43 -12.5t24 -25t7.5 -41q0 -31 -11 -84l-134 -634h-115zM346 697q-15 0 -25.5 -2.5t-17 -9t-11 -19t-8.5 -32.5l-77 -364h97l77 364q5 23 5 33q0 18 -8.5 24t-31.5 6z
" />
    <glyph glyph-name="A" unicode="&#x410;" 
d="M247 0l37 176h-97l-37 -176h-112l134 634q12 55 25.5 87.5t35.5 50t54.5 23t81.5 5.5q37 0 63.5 -3.5t43 -12.5t24 -25t7.5 -41q0 -31 -11 -84l-134 -634h-115zM346 697q-15 0 -25.5 -2.5t-17 -9t-11 -19t-8.5 -32.5l-77 -364h97l77 364q5 23 5 33q0 18 -8.5 24t-31.5 6z
" />
    <glyph glyph-name="A" unicode="&#x391;" 
d="M247 0l37 176h-97l-37 -176h-112l134 634q12 55 25.5 87.5t35.5 50t54.5 23t81.5 5.5q37 0 63.5 -3.5t43 -12.5t24 -25t7.5 -41q0 -31 -11 -84l-134 -634h-115zM346 697q-15 0 -25.5 -2.5t-17 -9t-11 -19t-8.5 -32.5l-77 -364h97l77 364q5 23 5 33q0 18 -8.5 24t-31.5 6z
" />
    <glyph glyph-name="B" unicode="B" horiz-adv-x="405" 
d="M399 458q23 -6 37 -20t14 -49q0 -22 -8 -60l-35 -167q-11 -53 -24.5 -85t-35.5 -49t-55 -22.5t-84 -5.5h-164l167 790h164q39 0 66 -3t44 -11.5t24.5 -23.5t7.5 -40q0 -17 -3 -37t-8 -46l-12 -59q-6 -31 -18 -51t-25.5 -32t-27 -18t-23.5 -7zM180 99h49q16 0 26 2.5
t16.5 9t11 19t8.5 32.5l41 193q4 17 4 31q0 15 -8.5 21t-29.5 6h-52zM266 504h52q28 0 39 11t17 40l16 74l3.5 19.5t1.5 15.5q0 15 -9 20.5t-32 5.5h-49z" />
    <glyph glyph-name="B" unicode="&#x412;" horiz-adv-x="405" 
d="M399 458q23 -6 37 -20t14 -49q0 -22 -8 -60l-35 -167q-11 -53 -24.5 -85t-35.5 -49t-55 -22.5t-84 -5.5h-164l167 790h164q39 0 66 -3t44 -11.5t24.5 -23.5t7.5 -40q0 -17 -3 -37t-8 -46l-12 -59q-6 -31 -18 -51t-25.5 -32t-27 -18t-23.5 -7zM180 99h49q16 0 26 2.5
t16.5 9t11 19t8.5 32.5l41 193q4 17 4 31q0 15 -8.5 21t-29.5 6h-52zM266 504h52q28 0 39 11t17 40l16 74l3.5 19.5t1.5 15.5q0 15 -9 20.5t-32 5.5h-49z" />
    <glyph glyph-name="B" unicode="&#x392;" horiz-adv-x="405" 
d="M399 458q23 -6 37 -20t14 -49q0 -22 -8 -60l-35 -167q-11 -53 -24.5 -85t-35.5 -49t-55 -22.5t-84 -5.5h-164l167 790h164q39 0 66 -3t44 -11.5t24.5 -23.5t7.5 -40q0 -17 -3 -37t-8 -46l-12 -59q-6 -31 -18 -51t-25.5 -32t-27 -18t-23.5 -7zM180 99h49q16 0 26 2.5
t16.5 9t11 19t8.5 32.5l41 193q4 17 4 31q0 15 -8.5 21t-29.5 6h-52zM266 504h52q28 0 39 11t17 40l16 74l3.5 19.5t1.5 15.5q0 15 -9 20.5t-32 5.5h-49z" />
    <glyph glyph-name="C" unicode="C" horiz-adv-x="394" 
d="M344 455l38 179q2 12 4 21t2 16q0 16 -9.5 21t-30.5 5q-16 0 -26 -2.5t-17 -9.5t-11.5 -19.5t-8.5 -31.5l-101 -477q-6 -26 -6 -38q0 -17 9 -22t32 -5q15 0 25 2.5t17 9.5t11 19.5t9 33.5l39 183h111l-39 -183q-12 -55 -25.5 -88t-35 -50.5t-54 -23t-80.5 -5.5
q-38 0 -65 3t-43.5 11t-24 23.5t-7.5 40.5q0 33 12 89l101 477q12 54 26 87t36.5 50.5t55.5 23t82 5.5q36 0 62 -3t42 -11t23.5 -24t7.5 -41q0 -33 -12 -87l-38 -179h-111z" />
    <glyph glyph-name="C" unicode="&#x421;" horiz-adv-x="394" 
d="M344 455l38 179q2 12 4 21t2 16q0 16 -9.5 21t-30.5 5q-16 0 -26 -2.5t-17 -9.5t-11.5 -19.5t-8.5 -31.5l-101 -477q-6 -26 -6 -38q0 -17 9 -22t32 -5q15 0 25 2.5t17 9.5t11 19.5t9 33.5l39 183h111l-39 -183q-12 -55 -25.5 -88t-35 -50.5t-54 -23t-80.5 -5.5
q-38 0 -65 3t-43.5 11t-24 23.5t-7.5 40.5q0 33 12 89l101 477q12 54 26 87t36.5 50.5t55.5 23t82 5.5q36 0 62 -3t42 -11t23.5 -24t7.5 -41q0 -33 -12 -87l-38 -179h-111z" />
    <glyph glyph-name="D" unicode="D" horiz-adv-x="407" 
d="M407 162q-11 -53 -24.5 -85t-35.5 -49t-55 -22.5t-84 -5.5h-164l167 790h164q39 0 66 -3t44 -11.5t24.5 -23.5t7.5 -40q0 -17 -3 -37t-8 -46zM390 629l3.5 19.5t1.5 15.5q0 16 -9 21t-32 5h-49l-125 -591h49q16 0 26 2.5t16.5 9t11 19t8.5 32.5z" />
    <glyph glyph-name="E" unicode="E" horiz-adv-x="293" 
d="M270 0h-226l167 790h225l-20 -95h-110l-24 -115h107l-20 -91h-107l-82 -390h111z" />
    <glyph glyph-name="E" unicode="&#x415;" horiz-adv-x="293" 
d="M270 0h-226l167 790h225l-20 -95h-110l-24 -115h107l-20 -91h-107l-82 -390h111z" />
    <glyph glyph-name="E" unicode="&#x395;" horiz-adv-x="293" 
d="M270 0h-226l167 790h225l-20 -95h-110l-24 -115h107l-20 -91h-107l-82 -390h111z" />
    <glyph glyph-name="F" unicode="F" horiz-adv-x="287" 
d="M44 0l167 790h230l-20 -95h-115l-25 -117h111l-20 -95h-111l-102 -483h-115z" />
    <glyph glyph-name="G" unicode="G" horiz-adv-x="398" 
d="M367 562l15 72q2 12 4 21t2 16q0 16 -9.5 21t-30.5 5q-16 0 -26 -2.5t-17 -9.5t-11.5 -19.5t-8.5 -31.5l-101 -477l-3.5 -21t-1.5 -16q0 -17 8.5 -22.5t31.5 -5.5q20 0 32.5 1t19.5 3l77 363h108l-97 -459q-15 -3 -55.5 -6.5t-106.5 -3.5q-38 0 -64.5 3.5t-43 13
t-24 25.5t-7.5 41q0 17 3 37.5t8 46.5l101 477q12 54 26 87t36.5 50.5t55.5 23t82 5.5q36 0 62 -3t42 -11t23.5 -24t7.5 -41q0 -33 -12 -87l-15 -72h-111z" />
    <glyph glyph-name="H" unicode="H" horiz-adv-x="417" 
d="M375 0h-116l91 432h-100l-91 -432h-115l167 790h115l-55 -261h100l55 261h116z" />
    <glyph glyph-name="H" unicode="&#x41d;" horiz-adv-x="417" 
d="M375 0h-116l91 432h-100l-91 -432h-115l167 790h115l-55 -261h100l55 261h116z" />
    <glyph glyph-name="H" unicode="&#x397;" horiz-adv-x="417" 
d="M375 0h-116l91 432h-100l-91 -432h-115l167 790h115l-55 -261h100l55 261h116z" />
    <glyph glyph-name="I" unicode="I" horiz-adv-x="205" 
d="M161 0h-115l167 790h115z" />
    <glyph glyph-name="I" unicode="&#x4cf;" horiz-adv-x="205" 
d="M161 0h-115l167 790h115z" />
    <glyph glyph-name="I" unicode="&#x4c0;" horiz-adv-x="205" 
d="M161 0h-115l167 790h115z" />
    <glyph glyph-name="I" unicode="&#x406;" horiz-adv-x="205" 
d="M161 0h-115l167 790h115z" />
    <glyph glyph-name="I" unicode="&#x399;" horiz-adv-x="205" 
d="M161 0h-115l167 790h115z" />
    <glyph glyph-name="J" unicode="J" horiz-adv-x="372" 
d="M86 340h105l-39 -183q-6 -24 -6 -38q0 -17 9 -22t30 -5q30 0 41.5 12.5t19.5 52.5l134 633h116l-134 -633q-12 -55 -25.5 -88t-35 -50.5t-54 -23t-82.5 -5.5q-35 0 -59.5 3t-40.5 11t-23 23.5t-7 40.5q0 32 12 89z" />
    <glyph glyph-name="J" unicode="&#x408;" horiz-adv-x="372" 
d="M86 340h105l-39 -183q-6 -24 -6 -38q0 -17 9 -22t30 -5q30 0 41.5 12.5t19.5 52.5l134 633h116l-134 -633q-12 -55 -25.5 -88t-35 -50.5t-54 -23t-82.5 -5.5q-35 0 -59.5 3t-40.5 11t-23 23.5t-7 40.5q0 32 12 89z" />
    <glyph glyph-name="K" unicode="K" horiz-adv-x="404" 
d="M550 790l-187 -337l36 -453h-120l-26 415h-5l-88 -415h-116l167 789h116l-63 -298h5l155 299h126z" />
    <glyph glyph-name="K" unicode="&#x41a;" horiz-adv-x="404" 
d="M550 790l-187 -337l36 -453h-120l-26 415h-5l-88 -415h-116l167 789h116l-63 -298h5l155 299h126z" />
    <glyph glyph-name="K" unicode="&#x39a;" horiz-adv-x="404" 
d="M550 790l-187 -337l36 -453h-120l-26 415h-5l-88 -415h-116l167 789h116l-63 -298h5l155 299h126z" />
    <glyph glyph-name="L" unicode="L" horiz-adv-x="289" 
d="M277 0h-233l167 790h115l-146 -690h118z" />
    <glyph glyph-name="M" unicode="M" horiz-adv-x="531" 
d="M657 790l-167 -790h-94l118 558h-4l-191 -558h-103l46 562h-4l-119 -562h-95l167 790h159l-48 -531h4l169 531h162z" />
    <glyph glyph-name="M" unicode="&#x41c;" horiz-adv-x="531" 
d="M657 790l-167 -790h-94l118 558h-4l-191 -558h-103l46 562h-4l-119 -562h-95l167 790h159l-48 -531h4l169 531h162z" />
    <glyph glyph-name="M" unicode="&#x39c;" horiz-adv-x="531" 
d="M657 790l-167 -790h-94l118 558h-4l-191 -558h-103l46 562h-4l-119 -562h-95l167 790h159l-48 -531h4l169 531h162z" />
    <glyph glyph-name="N" unicode="N" horiz-adv-x="432" 
d="M268 0l-17 493h-4l-104 -493h-99l167 790h125l9 -507h4l107 507h100l-167 -790h-121z" />
    <glyph glyph-name="N" unicode="&#x39d;" horiz-adv-x="432" 
d="M268 0l-17 493h-4l-104 -493h-99l167 790h125l9 -507h4l107 507h100l-167 -790h-121z" />
    <glyph glyph-name="O" unicode="O" 
d="M398 157q-12 -55 -25.5 -88t-35.5 -50.5t-55.5 -23t-84.5 -5.5q-38 0 -65 3t-43.5 11t-24 23.5t-7.5 40.5q0 33 12 89l101 477q12 55 25.5 87.5t35 50t55 23t84.5 5.5q38 0 65 -3t44 -11t24.5 -24t7.5 -41q0 -33 -12 -87zM383 634q2 12 4 21t2 16q0 17 -9.5 21.5
t-31.5 4.5q-16 0 -26 -2.5t-17 -9.5t-11.5 -19.5t-8.5 -31.5l-101 -477q-6 -26 -6 -38q0 -17 9 -22t32 -5q16 0 26.5 2.5t17 10t11 20t8.5 32.5z" />
    <glyph glyph-name="O" unicode="&#x41e;" 
d="M398 157q-12 -55 -25.5 -88t-35.5 -50.5t-55.5 -23t-84.5 -5.5q-38 0 -65 3t-43.5 11t-24 23.5t-7.5 40.5q0 33 12 89l101 477q12 55 25.5 87.5t35 50t55 23t84.5 5.5q38 0 65 -3t44 -11t24.5 -24t7.5 -41q0 -33 -12 -87zM383 634q2 12 4 21t2 16q0 17 -9.5 21.5
t-31.5 4.5q-16 0 -26 -2.5t-17 -9.5t-11.5 -19.5t-8.5 -31.5l-101 -477q-6 -26 -6 -38q0 -17 9 -22t32 -5q16 0 26.5 2.5t17 10t11 20t8.5 32.5z" />
    <glyph glyph-name="O" unicode="&#x39f;" 
d="M398 157q-12 -55 -25.5 -88t-35.5 -50.5t-55.5 -23t-84.5 -5.5q-38 0 -65 3t-43.5 11t-24 23.5t-7.5 40.5q0 33 12 89l101 477q12 55 25.5 87.5t35 50t55 23t84.5 5.5q38 0 65 -3t44 -11t24.5 -24t7.5 -41q0 -33 -12 -87zM383 634q2 12 4 21t2 16q0 17 -9.5 21.5
t-31.5 4.5q-16 0 -26 -2.5t-17 -9.5t-11.5 -19.5t-8.5 -31.5l-101 -477q-6 -26 -6 -38q0 -17 9 -22t32 -5q16 0 26.5 2.5t17 10t11 20t8.5 32.5z" />
    <glyph glyph-name="P" unicode="P" horiz-adv-x="395" 
d="M222 299l-63 -299h-115l167 790h164q39 0 66 -3t44 -11.5t24.5 -23.5t7.5 -40q0 -17 -3 -37t-8 -46l-36 -169q-11 -53 -25 -85t-35.5 -49t-55 -22t-83.5 -5h-49zM305 690l-63 -298h49q15 0 25 2.5t17 9.5t11 19.5t9 32.5l37 173l3.5 21t1.5 16q0 14 -9 19t-32 5h-49z" />
    <glyph glyph-name="P" unicode="&#x420;" horiz-adv-x="395" 
d="M222 299l-63 -299h-115l167 790h164q39 0 66 -3t44 -11.5t24.5 -23.5t7.5 -40q0 -17 -3 -37t-8 -46l-36 -169q-11 -53 -25 -85t-35.5 -49t-55 -22t-83.5 -5h-49zM305 690l-63 -298h49q15 0 25 2.5t17 9.5t11 19.5t9 32.5l37 173l3.5 21t1.5 16q0 14 -9 19t-32 5h-49z" />
    <glyph glyph-name="P" unicode="&#x3a1;" horiz-adv-x="395" 
d="M222 299l-63 -299h-115l167 790h164q39 0 66 -3t44 -11.5t24.5 -23.5t7.5 -40q0 -17 -3 -37t-8 -46l-36 -169q-11 -53 -25 -85t-35.5 -49t-55 -22t-83.5 -5h-49zM305 690l-63 -298h49q15 0 25 2.5t17 9.5t11 19.5t9 32.5l37 173l3.5 21t1.5 16q0 14 -9 19t-32 5h-49z" />
    <glyph glyph-name="Q" unicode="Q" 
d="M248 -76l-35 85q-43 0 -72.5 2.5t-48 10.5t-26.5 22t-8 38q0 16 3.5 35.5l8.5 45.5l100 471q12 55 25.5 87.5t35 50t55 23t84.5 5.5q38 0 65 -3t44 -11t24.5 -24t7.5 -41q0 -33 -12 -87l-100 -471q-14 -68 -33 -101t-57 -44l39 -94h-100zM383 634q2 12 4 21t2 16
q0 17 -9.5 21.5t-31.5 4.5q-16 0 -26 -2.5t-17 -9.5t-11.5 -19.5t-8.5 -31.5l-100 -471q-6 -24 -6 -37q0 -17 9.5 -21.5t32.5 -4.5q16 0 26 2.5t17 9t11 19t8 32.5z" />
    <glyph glyph-name="R" unicode="R" horiz-adv-x="409" 
d="M159 0h-115l167 790h164q39 0 66 -3t44 -11.5t24.5 -24t7.5 -40.5q0 -29 -11 -82l-17 -83q-6 -31 -17.5 -50.5t-24.5 -31.5t-26.5 -17.5t-25.5 -8.5l-1 -4q23 -6 37 -19.5t14 -47.5q0 -21 -6 -52l-66 -315h-116l70 333q2 9 3 16.5t1 13.5q0 15 -8.5 21t-29.5 6h-52z
M261 481h52q28 0 39.5 11t17.5 40l20 97q5 25 5 35q0 15 -9 20.5t-32 5.5h-49z" />
    <glyph glyph-name="S" unicode="S" horiz-adv-x="395" 
d="M360 534l21 98q6 25 6 40q0 16 -9 20.5t-32 4.5q-17 0 -27 -2.5t-16.5 -9t-11 -19.5t-8.5 -34l-17 -78q-3 -15 -3 -25q0 -16 11 -26t40 -27q34 -20 56.5 -35t36 -29t19.5 -28.5t6 -32.5q0 -27 -9 -67l-27 -127q-12 -55 -25.5 -88t-35.5 -50.5t-55.5 -23t-84.5 -5.5
q-36 0 -62 3t-42.5 11.5t-24 24t-7.5 41.5q0 33 12 87l33 157h112l-33 -157q-6 -26 -6 -39q0 -16 9 -21t31 -5q16 0 26 2.5t17 9.5t11 19.5t9 33.5l25 119l3.5 21t1.5 17q0 17 -10 28.5t-39 28.5q-34 19 -57 34.5t-36.5 30t-19 29t-5.5 31.5q0 13 2.5 27.5t6.5 32.5l16 76
q12 55 25 88t35 51t55.5 23.5t84.5 5.5q37 0 63 -3t42.5 -11.5t24 -24t7.5 -40.5q0 -34 -12 -89l-21 -98h-112z" />
    <glyph glyph-name="S" unicode="&#x405;" horiz-adv-x="395" 
d="M360 534l21 98q6 25 6 40q0 16 -9 20.5t-32 4.5q-17 0 -27 -2.5t-16.5 -9t-11 -19.5t-8.5 -34l-17 -78q-3 -15 -3 -25q0 -16 11 -26t40 -27q34 -20 56.5 -35t36 -29t19.5 -28.5t6 -32.5q0 -27 -9 -67l-27 -127q-12 -55 -25.5 -88t-35.5 -50.5t-55.5 -23t-84.5 -5.5
q-36 0 -62 3t-42.5 11.5t-24 24t-7.5 41.5q0 33 12 87l33 157h112l-33 -157q-6 -26 -6 -39q0 -16 9 -21t31 -5q16 0 26 2.5t17 9.5t11 19.5t9 33.5l25 119l3.5 21t1.5 17q0 17 -10 28.5t-39 28.5q-34 19 -57 34.5t-36.5 30t-19 29t-5.5 31.5q0 13 2.5 27.5t6.5 32.5l16 76
q12 55 25 88t35 51t55.5 23.5t84.5 5.5q37 0 63 -3t42.5 -11.5t24 -24t7.5 -40.5q0 -34 -12 -89l-21 -98h-112z" />
    <glyph glyph-name="T" unicode="T" horiz-adv-x="311" 
d="M447 694h-86l-147 -694h-115l147 694h-87l20 96h288z" />
    <glyph glyph-name="T" unicode="&#x422;" horiz-adv-x="311" 
d="M447 694h-86l-147 -694h-115l147 694h-87l20 96h288z" />
    <glyph glyph-name="T" unicode="&#x3a4;" horiz-adv-x="311" 
d="M447 694h-86l-147 -694h-115l147 694h-87l20 96h288z" />
    <glyph glyph-name="U" unicode="U" horiz-adv-x="403" 
d="M200 -10q-38 0 -64 3t-43 11.5t-24.5 24t-7.5 41.5q0 33 12 87l134 633h115l-134 -633q-6 -24 -6 -37q0 -17 9.5 -22t32.5 -5q15 0 25 2.5t16.5 9t11 19t9.5 33.5l134 633h112l-134 -633q-12 -55 -25.5 -88t-35.5 -50.5t-55 -23t-82 -5.5z" />
    <glyph glyph-name="V" unicode="V" horiz-adv-x="371" 
d="M97 0l78 790h116l-82 -647h4l198 647h121l-267 -790h-168z" />
    <glyph glyph-name="W" unicode="W" horiz-adv-x="574" 
d="M289 790l-99 -621h4l185 621h147l-87 -621h4l175 621h118l-259 -790h-146l90 627h-4l-187 -627h-148l94 790h113z" />
    <glyph glyph-name="X" unicode="X" horiz-adv-x="375" 
d="M523 790l-160 -376l7 -414h-116l8 353l-138 -353h-118l177 414l-4 376h115v-303l119 303h110z" />
    <glyph glyph-name="X" unicode="&#x425;" horiz-adv-x="375" 
d="M523 790l-160 -376l7 -414h-116l8 353l-138 -353h-118l177 414l-4 376h115v-303l119 303h110z" />
    <glyph glyph-name="X" unicode="&#x3a7;" horiz-adv-x="375" 
d="M523 790l-160 -376l7 -414h-116l8 353l-138 -353h-118l177 414l-4 376h115v-303l119 303h110z" />
    <glyph glyph-name="Y" unicode="Y" horiz-adv-x="352" 
d="M517 790l-226 -511l-59 -279h-115l59 279l-6 511h112l-17 -357h4l134 357h114z" />
    <glyph glyph-name="Y" unicode="&#x4ae;" horiz-adv-x="352" 
d="M517 790l-226 -511l-59 -279h-115l59 279l-6 511h112l-17 -357h4l134 357h114z" />
    <glyph glyph-name="Y" unicode="&#x3a5;" horiz-adv-x="352" 
d="M517 790l-226 -511l-59 -279h-115l59 279l-6 511h112l-17 -357h4l134 357h114z" />
    <glyph glyph-name="Z" unicode="Z" horiz-adv-x="313" 
d="M295 0h-277l21 100l282 594h-140l20 96h259l-16 -78l-282 -613h154z" />
    <glyph glyph-name="Z" unicode="&#x396;" horiz-adv-x="313" 
d="M295 0h-277l21 100l282 594h-140l20 96h259l-16 -78l-282 -613h154z" />
    <glyph glyph-name="bracketleft" unicode="[" horiz-adv-x="256" 
d="M421 845h-87l-203 -956h87l-16 -74h-169l235 1104h169z" />
    <glyph glyph-name="backslash" unicode="\" horiz-adv-x="272" 
d="M271 864l-18 -936h-85l19 936h84z" />
    <glyph glyph-name="bracketright" unicode="]" horiz-adv-x="256" 
d="M210 919h169l-235 -1104h-168l16 74h86l203 956h-87z" />
    <glyph glyph-name="asciicircum" unicode="^" horiz-adv-x="452" 
d="M500 341h-88l-39 342l-183 -342h-92l248 449h96z" />
    <glyph glyph-name="underscore" unicode="_" horiz-adv-x="402" 
d="M369 -136h-398l19 90h398z" />
    <glyph glyph-name="grave" unicode="`" horiz-adv-x="201" 
d="M322 639h-74l-63 166h107z" />
    <glyph glyph-name="a" unicode="a" horiz-adv-x="353" 
d="M159 -10q-30 0 -50.5 2t-33.5 8.5t-19 18t-6 30.5q0 20 8 57l31 145q11 54 37 79t76 25h19q34 0 47.5 -2.5t19.5 -6.5l26 124q4 16 4 29q0 14 -9 18.5t-29 4.5q-26 0 -36 -11t-16 -41l-12 -59h-93l15 71q9 42 20 67t28.5 38.5t44.5 17.5t68 4q68 0 97 -11.5t29 -52.5
q0 -12 -2.5 -27.5t-6.5 -35.5l-102 -482q-20 -5 -57.5 -7.5t-97.5 -2.5zM185 74q22 0 32 0.5t14 1.5l41 196q-10 6 -42 6q-15 0 -24 -2.5t-14.5 -8.5t-9 -16.5t-6.5 -25.5l-20 -94l-3.5 -19.5t-1.5 -15.5q0 -13 7 -17.5t27 -4.5z" />
    <glyph glyph-name="a" unicode="&#x430;" horiz-adv-x="353" 
d="M159 -10q-30 0 -50.5 2t-33.5 8.5t-19 18t-6 30.5q0 20 8 57l31 145q11 54 37 79t76 25h19q34 0 47.5 -2.5t19.5 -6.5l26 124q4 16 4 29q0 14 -9 18.5t-29 4.5q-26 0 -36 -11t-16 -41l-12 -59h-93l15 71q9 42 20 67t28.5 38.5t44.5 17.5t68 4q68 0 97 -11.5t29 -52.5
q0 -12 -2.5 -27.5t-6.5 -35.5l-102 -482q-20 -5 -57.5 -7.5t-97.5 -2.5zM185 74q22 0 32 0.5t14 1.5l41 196q-10 6 -42 6q-15 0 -24 -2.5t-14.5 -8.5t-9 -16.5t-6.5 -25.5l-20 -94l-3.5 -19.5t-1.5 -15.5q0 -13 7 -17.5t27 -4.5z" />
    <glyph glyph-name="b" unicode="b" horiz-adv-x="366" 
d="M354 117q-8 -36 -17 -59.5t-22.5 -37.5t-34 -19.5t-50.5 -5.5q-36 0 -55.5 11t-26.5 37l-9 -43h-95l167 790h102l-48 -228q15 20 38 31t58 11q43 0 61 -14t18 -48q0 -22 -8 -60zM167 117q7 -31 39 -31q26 0 36 10t17 40l70 326q3 15 3 24q0 15 -8 20.5t-28 5.5
q-17 0 -29.5 -8.5t-21.5 -22.5z" />
    <glyph glyph-name="c" unicode="c" horiz-adv-x="347" 
d="M301 377l20 94q3 12 3 21q0 13 -8 17t-28 4q-29 0 -38.5 -8t-14.5 -34l-74 -344q-3 -14 -3 -21q0 -14 8.5 -18t29.5 -4q26 0 36 9.5t15 33.5l33 155h93l-35 -165q-9 -42 -20.5 -67.5t-29.5 -38.5t-45 -17t-67 -4q-34 0 -57.5 2.5t-38.5 9.5t-21.5 19.5t-6.5 32.5
q0 13 1.5 28t6.5 35l78 365q9 42 20 67t30 38.5t47.5 17.5t72.5 4q64 0 90.5 -12.5t26.5 -51.5q0 -13 -2.5 -29.5t-6.5 -33.5l-22 -105h-93z" />
    <glyph glyph-name="c" unicode="&#x441;" horiz-adv-x="347" 
d="M301 377l20 94q3 12 3 21q0 13 -8 17t-28 4q-29 0 -38.5 -8t-14.5 -34l-74 -344q-3 -14 -3 -21q0 -14 8.5 -18t29.5 -4q26 0 36 9.5t15 33.5l33 155h93l-35 -165q-9 -42 -20.5 -67.5t-29.5 -38.5t-45 -17t-67 -4q-34 0 -57.5 2.5t-38.5 9.5t-21.5 19.5t-6.5 32.5
q0 13 1.5 28t6.5 35l78 365q9 42 20 67t30 38.5t47.5 17.5t72.5 4q64 0 90.5 -12.5t26.5 -51.5q0 -13 -2.5 -29.5t-6.5 -33.5l-22 -105h-93z" />
    <glyph glyph-name="d" unicode="d" horiz-adv-x="366" 
d="M138 482q7 35 16.5 58.5t23 37.5t33.5 20t50 6q34 0 51.5 -11t25.5 -31l48 228h103l-167 -790h-95l9 43q-20 -26 -44 -37t-60 -11q-44 0 -62.5 12.5t-18.5 46.5q0 24 9 63zM324 481q-7 31 -39 31q-26 0 -36 -10t-16 -40l-70 -326q-3 -15 -3 -25q0 -15 7.5 -20t27.5 -5
q17 0 29.5 8.5t21.5 22.5z" />
    <glyph glyph-name="e" unicode="e" horiz-adv-x="349" 
d="M192 264l-30 -141q-2 -8 -3 -14t-1 -11q0 -13 8.5 -17t28.5 -4q27 0 37 8.5t16 37.5l17 81h92l-19 -87q-9 -42 -20 -67t-28.5 -38.5t-44.5 -17.5t-69 -4q-68 0 -96 11.5t-28 52.5q0 13 1.5 28t6.5 35l78 365q9 42 20 67t29.5 38.5t47.5 17.5t73 4q63 0 90 -11t27 -51
q0 -25 -9 -65l-46 -218h-178zM209 346h86l27 128q3 15 3 24q0 13 -8 17t-28 4q-28 0 -37.5 -8t-15.5 -37z" />
    <glyph glyph-name="e" unicode="&#x435;" horiz-adv-x="349" 
d="M192 264l-30 -141q-2 -8 -3 -14t-1 -11q0 -13 8.5 -17t28.5 -4q27 0 37 8.5t16 37.5l17 81h92l-19 -87q-9 -42 -20 -67t-28.5 -38.5t-44.5 -17.5t-69 -4q-68 0 -96 11.5t-28 52.5q0 13 1.5 28t6.5 35l78 365q9 42 20 67t29.5 38.5t47.5 17.5t73 4q63 0 90 -11t27 -51
q0 -25 -9 -65l-46 -218h-178zM209 346h86l27 128q3 15 3 24q0 13 -8 17t-28 4q-28 0 -37.5 -8t-15.5 -37z" />
    <glyph glyph-name="f" unicode="f" horiz-adv-x="241" 
d="M337 516h-76l-109 -516h-102l109 516h-37l18 83h37l13 64q14 66 54 96.5t118 30.5h32l-16 -76h-25q-50 0 -62 -56l-12 -59h76z" />
    <glyph glyph-name="g" unicode="g" horiz-adv-x="366" 
d="M144 -67q35 0 49.5 11.5t22.5 45.5l17 77q-16 -20 -38.5 -30.5t-56.5 -10.5q-45 0 -62.5 13.5t-17.5 45.5q0 13 2.5 28.5t6.5 34.5l71 334q7 35 16.5 58.5t23 37.5t34 20t50.5 6q36 0 55 -11.5t27 -37.5l10 44h95l-130 -609q-16 -73 -54.5 -108t-114.5 -35h-131l18 86
h107zM324 481q-7 31 -39 31q-26 0 -36 -10t-16 -40l-63 -295q-4 -15 -4 -26q0 -14 8 -19t27 -5q17 0 30 8.5t22 22.5z" />
    <glyph glyph-name="h" unicode="h" horiz-adv-x="375" 
d="M146 0h-102l167 790h102l-48 -229q31 43 97 43q46 0 66 -14t20 -51q0 -26 -7 -57l-102 -482h-102l100 471q1 5 1.5 8.5t0.5 7.5q0 25 -38 25q-20 0 -32 -8.5t-21 -22.5z" />
    <glyph glyph-name="h" unicode="&#x4bb;" horiz-adv-x="375" 
d="M146 0h-102l167 790h102l-48 -229q31 43 97 43q46 0 66 -14t20 -51q0 -26 -7 -57l-102 -482h-102l100 471q1 5 1.5 8.5t0.5 7.5q0 25 -38 25q-20 0 -32 -8.5t-21 -22.5z" />
    <glyph glyph-name="i" unicode="i" horiz-adv-x="192" 
d="M292 686h-101l22 104h101zM147 0h-101l127 599h101z" />
    <glyph glyph-name="i" unicode="&#x456;" horiz-adv-x="192" 
d="M292 686h-101l22 104h101zM147 0h-101l127 599h101z" />
    <glyph glyph-name="j" unicode="j" horiz-adv-x="192" 
d="M175 599h102l-130 -609q-16 -72 -55.5 -107.5t-115.5 -35.5h-56l18 86h48q25 0 38.5 12.5t20.5 44.5zM295 686h-102l22 104h102z" />
    <glyph glyph-name="j" unicode="&#x458;" horiz-adv-x="192" 
d="M175 599h102l-130 -609q-16 -72 -55.5 -107.5t-115.5 -35.5h-56l18 86h48q25 0 38.5 12.5t20.5 44.5zM295 686h-102l22 104h102z" />
    <glyph glyph-name="k" unicode="k" horiz-adv-x="364" 
d="M246 0l-32 308h-4l-65 -308h-101l167 790h101l-87 -412h4l128 221h114l-160 -256l46 -343h-111z" />
    <glyph glyph-name="l" unicode="l" horiz-adv-x="188" 
d="M146 0h-102l167 790h102z" />
    <glyph glyph-name="m" unicode="m" horiz-adv-x="572" 
d="M146 0h-102l127 599h95l-9 -40q16 22 41 33.5t63 11.5q40 0 60 -11t25 -38q18 24 43.5 36.5t63.5 12.5q46 0 66.5 -14t20.5 -51q0 -26 -7 -57l-102 -482h-102l100 471q1 5 1.5 9t0.5 7q0 14 -8.5 19.5t-29.5 5.5q-19 0 -31 -8t-21 -22l-102 -482h-102l100 471
q1 5 1.5 8.5t0.5 7.5q0 25 -38 25q-20 0 -32 -8.5t-21 -22.5z" />
    <glyph glyph-name="n" unicode="n" horiz-adv-x="378" 
d="M146 0h-102l127 599h95l-9 -40q16 22 41 33.5t63 11.5q46 0 66.5 -14t20.5 -51q0 -26 -7 -57l-102 -482h-102l100 471q1 5 1.5 8.5t0.5 7.5q0 25 -38 25q-20 0 -32 -8.5t-21 -22.5z" />
    <glyph glyph-name="o" unicode="o" horiz-adv-x="358" 
d="M346 117q-9 -42 -20 -67t-30 -38.5t-47.5 -17.5t-72.5 -4q-68 0 -96 11.5t-28 52.5q0 13 1.5 28t6.5 35l78 365q9 42 20 67t29.5 38.5t47.5 17.5t73 4q67 0 95.5 -11.5t28.5 -52.5q0 -13 -2 -28t-6 -35zM323 471q3 12 3 21q0 13 -8.5 17t-29.5 4q-28 0 -38 -8.5
t-15 -33.5l-74 -344q-3 -14 -3 -21q0 -14 8.5 -18t29.5 -4q29 0 38.5 9.5t14.5 33.5z" />
    <glyph glyph-name="o" unicode="&#x43e;" horiz-adv-x="358" 
d="M346 117q-9 -42 -20 -67t-30 -38.5t-47.5 -17.5t-72.5 -4q-68 0 -96 11.5t-28 52.5q0 13 1.5 28t6.5 35l78 365q9 42 20 67t29.5 38.5t47.5 17.5t73 4q67 0 95.5 -11.5t28.5 -52.5q0 -13 -2 -28t-6 -35zM323 471q3 12 3 21q0 13 -8.5 17t-29.5 4q-28 0 -38 -8.5
t-15 -33.5l-74 -344q-3 -14 -3 -21q0 -14 8.5 -18t29.5 -4q29 0 38.5 9.5t14.5 33.5z" />
    <glyph glyph-name="o" unicode="&#x3bf;" horiz-adv-x="358" 
d="M346 117q-9 -42 -20 -67t-30 -38.5t-47.5 -17.5t-72.5 -4q-68 0 -96 11.5t-28 52.5q0 13 1.5 28t6.5 35l78 365q9 42 20 67t29.5 38.5t47.5 17.5t73 4q67 0 95.5 -11.5t28.5 -52.5q0 -13 -2 -28t-6 -35zM323 471q3 12 3 21q0 13 -8.5 17t-29.5 4q-28 0 -38 -8.5
t-15 -33.5l-74 -344q-3 -14 -3 -21q0 -14 8.5 -18t29.5 -4q29 0 38.5 9.5t14.5 33.5z" />
    <glyph glyph-name="p" unicode="p" horiz-adv-x="366" 
d="M354 117q-8 -36 -17 -59.5t-22.5 -37.5t-33.5 -19.5t-50 -5.5q-35 0 -52.5 10.5t-25.5 30.5l-40 -189h-102l160 752h95l-10 -44q19 26 43.5 37.5t60.5 11.5q44 0 62 -13t18 -46q0 -23 -8 -63zM167 117q7 -31 39 -31q26 0 36 10t17 40l70 326q3 15 3 24q0 15 -8 20.5
t-28 5.5q-17 0 -29.5 -8.5t-21.5 -22.5z" />
    <glyph glyph-name="p" unicode="&#x440;" horiz-adv-x="366" 
d="M354 117q-8 -36 -17 -59.5t-22.5 -37.5t-33.5 -19.5t-50 -5.5q-35 0 -52.5 10.5t-25.5 30.5l-40 -189h-102l160 752h95l-10 -44q19 26 43.5 37.5t60.5 11.5q44 0 62 -13t18 -46q0 -23 -8 -63zM167 117q7 -31 39 -31q26 0 36 10t17 40l70 326q3 15 3 24q0 15 -8 20.5
t-28 5.5q-17 0 -29.5 -8.5t-21.5 -22.5z" />
    <glyph glyph-name="q" unicode="q" horiz-adv-x="366" 
d="M138 482q7 35 16.5 58.5t23 37.5t34 20t50.5 6q36 0 55 -11.5t27 -37.5l10 44h95l-160 -752h-103l40 189q-15 -20 -38 -30.5t-57 -10.5q-44 0 -61.5 13.5t-17.5 46.5q0 13 2 28t6 34zM324 481q-7 31 -39 31q-26 0 -36 -10t-16 -40l-70 -326q-3 -15 -3 -25q0 -15 7.5 -20
t27.5 -5q17 0 29.5 8.5t21.5 22.5z" />
    <glyph glyph-name="r" unicode="r" horiz-adv-x="337" 
d="M146 0h-102l127 599h95l-9 -40q15 20 40.5 32.5t62.5 12.5q39 0 57 -13.5t18 -48.5q0 -22 -8 -60l-32 -149h-92l29 137q2 5 2 10v9q0 13 -7.5 18t-27.5 5q-33 0 -52 -33z" />
    <glyph glyph-name="s" unicode="s" horiz-adv-x="354" 
d="M311 426l10 45q3 13 3 22q0 12 -8.5 16.5t-28.5 4.5q-30 0 -38.5 -8.5t-14.5 -34.5l-11 -48q-3 -12 -3 -20q0 -13 8.5 -21.5t32.5 -19.5q33 -15 54.5 -27t34 -23t18 -22.5t5.5 -25.5q0 -13 -5 -35l-23 -111q-9 -42 -20 -67.5t-29.5 -39t-47.5 -17.5t-73 -4
q-68 0 -96.5 11.5t-28.5 52.5q0 25 9 64l19 92h100l-17 -81q-3 -14 -3 -22q0 -14 8.5 -18t29.5 -4q28 0 37.5 9t14.5 35l15 73q3 12 3 21q0 14 -11 23t-40 22q-28 12 -47 22t-31 20.5t-17.5 23t-5.5 29.5q0 18 6 45l16 73q9 42 20 67.5t29.5 39t47.5 17.5t74 4
q67 0 95.5 -11.5t28.5 -52.5q0 -25 -9 -64l-12 -55h-99z" />
    <glyph glyph-name="s" unicode="&#x455;" horiz-adv-x="354" 
d="M311 426l10 45q3 13 3 22q0 12 -8.5 16.5t-28.5 4.5q-30 0 -38.5 -8.5t-14.5 -34.5l-11 -48q-3 -12 -3 -20q0 -13 8.5 -21.5t32.5 -19.5q33 -15 54.5 -27t34 -23t18 -22.5t5.5 -25.5q0 -13 -5 -35l-23 -111q-9 -42 -20 -67.5t-29.5 -39t-47.5 -17.5t-73 -4
q-68 0 -96.5 11.5t-28.5 52.5q0 25 9 64l19 92h100l-17 -81q-3 -14 -3 -22q0 -14 8.5 -18t29.5 -4q28 0 37.5 9t14.5 35l15 73q3 12 3 21q0 14 -11 23t-40 22q-28 12 -47 22t-31 20.5t-17.5 23t-5.5 29.5q0 18 6 45l16 73q9 42 20 67.5t29.5 39t47.5 17.5t74 4
q67 0 95.5 -11.5t28.5 -52.5q0 -25 -9 -64l-12 -55h-99z" />
    <glyph glyph-name="t" unicode="t" horiz-adv-x="240" 
d="M327 516h-70l-80 -376q-3 -15 -3 -24q0 -17 9.5 -23t32.5 -6h19l-18 -87h-26q-68 0 -96 20t-28 63q0 10 1 21t4 23l83 389h-37l18 83h37l39 182h102l-39 -182h70z" />
    <glyph glyph-name="u" unicode="u" horiz-adv-x="376" 
d="M357 599h103l-127 -599h-96l8 39q-16 -22 -40.5 -33t-61.5 -11q-46 0 -66.5 13.5t-20.5 50.5q0 12 2 26.5t6 31.5l103 482h102l-101 -472q-1 -5 -1.5 -9t-0.5 -8q0 -13 8 -18.5t28 -5.5t31.5 8.5t20.5 22.5z" />
    <glyph glyph-name="v" unicode="v" horiz-adv-x="324" 
d="M78 0l55 599h105l-50 -455h4l146 455h108l-208 -599h-160z" />
    <glyph glyph-name="v" unicode="&#x3bd;" horiz-adv-x="324" 
d="M78 0l55 599h105l-50 -455h4l146 455h108l-208 -599h-160z" />
    <glyph glyph-name="w" unicode="w" horiz-adv-x="532" 
d="M239 599l-65 -448h4l147 448h133l-50 -448h4l133 448h111l-210 -599h-138l57 455h-4l-148 -455h-139l58 599h107z" />
    <glyph glyph-name="x" unicode="x" horiz-adv-x="337" 
d="M446 599l-132 -285l17 -314h-106v266l-113 -266h-106l150 316l-18 283h104l6 -229l100 229h98z" />
    <glyph glyph-name="x" unicode="&#x445;" horiz-adv-x="337" 
d="M446 599l-132 -285l17 -314h-106v266l-113 -266h-106l150 316l-18 283h104l6 -229l100 229h98z" />
    <glyph glyph-name="y" unicode="y" horiz-adv-x="378" 
d="M360 599h102l-130 -609q-16 -73 -55 -108t-115 -35h-134l18 86h109q35 0 50 11.5t23 45.5l17 77q-16 -20 -39.5 -30.5t-57.5 -10.5q-45 0 -65 13.5t-20 50.5q0 21 8 58l96 451h102l-92 -432q-3 -14 -3 -23q0 -16 9 -21.5t29 -5.5q17 0 29.5 8.5t22.5 22.5z" />
    <glyph glyph-name="y" unicode="&#x443;" horiz-adv-x="378" 
d="M360 599h102l-130 -609q-16 -73 -55 -108t-115 -35h-134l18 86h109q35 0 50 11.5t23 45.5l17 77q-16 -20 -39.5 -30.5t-57.5 -10.5q-45 0 -65 13.5t-20 50.5q0 21 8 58l96 451h102l-92 -432q-3 -14 -3 -23q0 -16 9 -21.5t29 -5.5q17 0 29.5 8.5t22.5 22.5z" />
    <glyph glyph-name="z" unicode="z" horiz-adv-x="299" 
d="M284 0h-269l18 87l253 429h-144l18 83h248l-17 -77l-249 -436h160z" />
    <glyph glyph-name="braceleft" unicode="{" horiz-adv-x="265" 
d="M270 452q-8 -37 -23.5 -60t-35.5 -34q23 -18 23 -59q0 -8 -1 -16.5t-3 -18.5l-65 -303q-3 -15 -5 -27t-2 -21q0 -25 13 -34.5t42 -9.5h11l-16 -72h-11q-68 0 -95.5 19.5t-27.5 67.5q0 34 10 77l66 308q1 5 1.5 9t0.5 9q0 37 -42 37h-15l15 68h15q51 0 63 55l65 307
q10 46 23 77.5t33.5 51t51 28t75.5 8.5h11l-16 -73h-11q-20 0 -34 -4.5t-23.5 -15t-16 -28t-12.5 -44.5l-64 -302v0z" />
    <glyph glyph-name="bar" unicode="|" horiz-adv-x="226" 
d="M114 -185h-82l235 1104h82z" />
    <glyph glyph-name="braceright" unicode="}" horiz-adv-x="265" 
d="M253 754q6 30 6 48q0 25 -12.5 34.5t-41.5 9.5h-11l16 73h11q67 0 95 -20.5t28 -68.5q0 -16 -2.5 -34.5t-7.5 -41.5l-65 -307q-3 -11 -3 -19q0 -36 42 -36h15l-15 -68h-15q-27 0 -41.5 -14t-20.5 -41l-66 -308q-10 -46 -23 -77t-33.5 -50.5t-51 -28t-74.5 -8.5h-11l16 72
h11q20 0 33.5 4.5t23 15t16 28t12.5 44.5l65 303q8 36 23.5 59.5t35.5 34.5q-11 8 -17.5 22t-6.5 35q0 14 5 37z" />
    <glyph glyph-name="asciitilde" unicode="~" horiz-adv-x="509" 
d="M129 403q14 27 46 44.5t72 17.5q25 0 49 -9t46.5 -20.5t45 -20.5t46.5 -9q43 0 70.5 19t47.5 51l-19 -86q-12 -26 -45.5 -43.5t-72.5 -17.5q-27 0 -51.5 9t-47 20t-44 20t-43.5 9q-44 0 -70 -19.5t-48 -49.5z" />
    <glyph glyph-name="nonbreakingspace" unicode="&#xa0;" horiz-adv-x="169" 
 />
    <glyph glyph-name="exclamdown" unicode="&#xa1;" horiz-adv-x="178" 
d="M28 0zM28.0195 0.0478516l145.991 600.964h78.9951l-106.994 -600.964h-117.992zM201.009 790h104.993l-27.998 -131.992h-104.993z" />
    <glyph glyph-name="cent" unicode="&#xa2;" horiz-adv-x="354" 
d="M393 810l-21 -97q41 -3 59 -15.5t18 -45.5q0 -13 -2.5 -28.5t-6.5 -35.5l-25 -121h-93l23 110q3 13 3 23q0 12 -8 16t-28 4q-29 0 -38.5 -8t-14.5 -35l-77 -365q-3 -14 -3 -21q0 -13 8.5 -17t29.5 -4q26 0 36 8t15 34l34 160h93l-37 -170q-8 -37 -17 -60.5t-22.5 -37.5
t-33 -20.5t-48.5 -7.5l-21 -96h-89l21 96q-42 3 -59.5 16.5t-17.5 45.5q0 25 9 64l82 386q7 35 16 58.5t22.5 37.5t33.5 20.5t49 8.5l21 97h89z" />
    <glyph glyph-name="sterling" unicode="&#xa3;" horiz-adv-x="398" 
d="M21 0l20 96h34l40 190h-34l18 83h34l56 265q12 55 25 87.5t34.5 50t54 23t82.5 5.5q35 0 60 -3t40.5 -11t23 -23t7.5 -40q0 -34 -12 -89l-41 -196h-105l41 196q2 12 4 21.5t2 16.5q0 16 -9 21t-30 5q-15 0 -25.5 -2.5t-17 -9.5t-11 -19.5t-8.5 -32.5l-56 -265h178
l-18 -83h-178l-40 -190h202l-20 -96h-351z" />
    <glyph glyph-name="currency" unicode="&#xa4;" horiz-adv-x="515" 
d="M401 255q-16 -7 -37.5 -9t-52.5 -2q-32 0 -52.5 2t-33.5 10l-115 -95l-40 51l103 85q-1 3 -1 10q0 19 8 53l15 69q4 19 8.5 35.5t10.5 28.5l-66 84l62 51l74 -95q17 7 38 9.5t53 2.5q31 0 51.5 -2.5t32.5 -9.5l115 95l40 -51l-100 -82q0 -11 -1 -28.5t-6 -37.5l-15 -69
q-5 -21 -9.5 -37t-11.5 -28l66 -83l-62 -51zM248 360q-3 -15 -3 -24q0 -18 16 -24.5t63 -6.5q29 0 47 2.5t28.5 8.5t15.5 16.5t9 27.5l15 70q3 13 3 23q0 18 -16 25t-63 7q-30 0 -48 -2.5t-28.5 -9t-15.5 -17t-8 -26.5z" />
    <glyph glyph-name="yen" unicode="&#xa5;" horiz-adv-x="394" 
d="M107 352h99l-15 438h110l-10 -327h4l128 327h115l-199 -438h88l-15 -70h-94l-17 -83h94l-15 -71h-94l-27 -128h-121l27 128h-105l15 71h105l17 83h-105z" />
    <glyph glyph-name="brokenbar" unicode="&#xa6;" horiz-adv-x="226" 
d="M32 -185l95 444h82l-95 -444h-82zM260 501h-82l89 418h82z" />
    <glyph glyph-name="section" unicode="&#xa7;" horiz-adv-x="354" 
d="M353 624l9 40q3 13 3 21q0 13 -8.5 17.5t-29.5 4.5q-29 0 -38.5 -9t-14.5 -34l-8 -38q-3 -14 -3 -22q0 -13 8.5 -23t33.5 -22q31 -15 51.5 -27.5t33 -25t17.5 -26t5 -29.5q0 -19 -6 -46l-16 -75q-9 -41 -21.5 -62t-32.5 -33q11 -9 15 -20.5t4 -27.5q0 -13 -2.5 -28.5
t-6.5 -33.5l-13 -62q-9 -43 -20 -68.5t-29.5 -39t-47.5 -17.5t-74 -4q-34 0 -57.5 2.5t-38.5 9t-21.5 19t-6.5 33.5q0 24 9 65l16 75h99l-14 -64q-3 -15 -3 -24q0 -14 8.5 -18t28.5 -4q29 0 38.5 9.5t15.5 36.5l11 52q3 15 3 25q0 16 -11.5 25.5t-40.5 22.5
q-27 12 -45.5 21.5t-30.5 20t-17.5 22.5t-5.5 29q0 8 1.5 17.5t3.5 20.5l16 75q5 25 10.5 42.5t13 30.5t17.5 21t25 13q-16 10 -22.5 21t-6.5 29q0 17 6 46l14 66q9 42 20 67.5t29.5 39t47.5 17.5t73 4q68 0 96.5 -11.5t28.5 -52.5q0 -25 -9 -64l-11 -50h-99zM304 392
q3 15 3 27q0 16 -7.5 24t-26.5 12q-16 -2 -26 -6t-16 -13t-10.5 -23.5t-8.5 -37.5l-6 -30q-3 -12 -3 -21q0 -14 11.5 -21.5t43.5 -15.5q17 3 23.5 19t12.5 42z" />
    <glyph glyph-name="dieresis" unicode="&#xa8;" horiz-adv-x="370" 
d="M473 686h-102l22 104h102zM292 686h-101l22 104h101z" />
    <glyph glyph-name="copyright" unicode="&#xa9;" horiz-adv-x="594" 
d="M467 800q64 0 108.5 -4t72.5 -15t40.5 -32.5t12.5 -55.5q0 -32 -11 -85l-91 -426q-14 -63 -32.5 -101t-52.5 -58.5t-86.5 -26.5t-133.5 -6q-64 0 -108.5 3.5t-72 15t-39.5 32t-12 54.5t12 87l91 426q13 63 32.5 101t52.5 58.5t85 26.5t132 6zM452 730q-59 0 -95 -5
t-57.5 -18.5t-32.5 -37.5t-19 -61l-91 -425q-8 -35 -8 -56q0 -20 7.5 -32.5t26 -20t49 -10.5t77.5 -3q60 0 96.5 5t58 18.5t32.5 37t19 61.5l91 425q3 16 5 29t2 24q0 20 -7.5 33.5t-26 21.5t-49.5 11t-78 3zM426 452l12 60q2 8 2 12q0 15 -25 15q-17 0 -25 -5.5t-11 -21.5
l-47 -222q-2 -10 -2 -13q0 -9 6 -12t20 -3q18 0 24.5 5.5t10.5 22.5l20 95h59l-21 -102q-6 -29 -14 -45.5t-20 -25t-29.5 -11t-42.5 -2.5q-45 0 -63 7.5t-18 34.5q0 16 6 42l50 237q6 27 13 43.5t19 25t30.5 11t47.5 2.5q42 0 59 -8t17 -34q0 -8 -1.5 -18t-3.5 -22l-14 -68
h-59z" />
    <glyph glyph-name="ordfeminine" unicode="&#xaa;" horiz-adv-x="269" 
d="M206 389q-41 0 -57.5 7t-16.5 30q0 14 4 30l17 79q7 32 24.5 46t50.5 14h11q21 0 30 -1t13 -3l13 62q2 10 2 13q0 8 -5.5 10t-17.5 2q-17 0 -23 -5.5t-9 -19.5l-7 -35h-64l9 42q5 24 12 38.5t18 22t29 10t46 2.5q47 0 66 -6.5t19 -32.5q0 -7 -1 -15.5t-3 -18.5l-57 -265
q-13 -2 -37 -4t-66 -2zM224 443q23 0 27 1l21 99q-9 3 -26 3t-23 -5.5t-9 -19.5l-11 -51q-1 -5 -1.5 -8t-0.5 -6q0 -13 23 -13z" />
    <glyph glyph-name="guillemotleft" unicode="&#xab;" horiz-adv-x="378" 
d="M86 0zM86 299l178 300h64l-162 -300l35 -299h-64zM237 299l178 300h64l-162 -300l35 -299h-64z" />
    <glyph glyph-name="logicalnot" unicode="&#xac;" horiz-adv-x="493" 
d="M366 22l72 339h-318l19 90h408l-91 -429h-90z" />
    <glyph glyph-name="registered" unicode="&#xae;" horiz-adv-x="594" 
d="M467 800q64 0 108.5 -4t72.5 -15t40.5 -32.5t12.5 -55.5q0 -32 -11 -85l-91 -426q-14 -63 -32.5 -101t-52.5 -58.5t-86.5 -26.5t-133.5 -6q-64 0 -108.5 3.5t-72 15t-39.5 32t-12 54.5t12 87l91 426q13 63 32.5 101t52.5 58.5t85 26.5t132 6zM452 730q-59 0 -95 -5
t-57.5 -18.5t-32.5 -37.5t-19 -61l-91 -425q-8 -35 -8 -56q0 -20 7.5 -32.5t26 -20t49 -10.5t77.5 -3q60 0 96.5 5t58 18.5t32.5 37t19 61.5l91 425q3 16 5 29t2 24q0 20 -7.5 33.5t-26 21.5t-49.5 11t-78 3zM371 191l32 148q3 16 3 25t-4 11.5t-12 2.5h-42l-40 -187h-69
l92 431h100q48 0 68 -8.5t20 -39.5q0 -10 -2 -22.5t-5 -28.5l-12 -56q-8 -33 -24.5 -44t-28.5 -14v-4q14 -3 21 -11.5t7 -27.5q0 -16 -4 -33l-30 -142h-70zM360 434h42q14 0 18.5 6.5t7.5 20.5l14 62q3 12 3 20q0 10 -5.5 13t-19.5 3h-34z" />
    <glyph glyph-name="macron" unicode="&#xaf;" horiz-adv-x="383" 
d="M488 708h-292l13 61h292z" />
    <glyph glyph-name="degree" unicode="&#xb0;" horiz-adv-x="336" 
d="M453 644q0 -32 -11.5 -60t-31 -49t-46.5 -33t-57 -12q-31 0 -58 12t-46.5 33t-31 49t-11.5 60t11.5 60.5t31 49.5t46.5 33.5t58 12.5q30 0 57 -12.5t46.5 -33.5t31 -49.5t11.5 -60.5zM398 644q0 41 -26.5 69.5t-64.5 28.5q-20 0 -36.5 -7.5t-29.5 -21t-20 -31.5t-7 -38
t7 -37.5t20 -31t29.5 -21t36.5 -7.5q19 0 35.5 7.5t29 21t19.5 31t7 37.5z" />
    <glyph glyph-name="plusminus" unicode="&#xb1;" horiz-adv-x="493" 
d="M44 0zM277 354h-158l19 91h158l33 157h90l-33 -157h159l-19 -91h-159l-34 -158h-90zM44 -2l19 91h407l-19 -91h-407z" />
    <glyph glyph-name="twosuperior" unicode="&#xb2;" horiz-adv-x="309" 
d="M119 354zM119 354l32 152q4 21 8.5 34.5t12.5 23t21 17.5t33 17l65 29q17 8 23.5 15t9.5 19l9 42q1 5 1.5 8.5t0.5 5.5q0 9 -6 12t-20 3q-19 0 -26.5 -6t-11.5 -24l-12 -57h-77l12 57q6 31 14.5 49.5t22.5 28.5t36 13t56 3q53 0 74.5 -8.5t21.5 -39.5q0 -18 -6 -45
l-10 -44q-4 -18 -9 -30.5t-13 -21.5t-20 -16.5t-30 -15.5l-68 -31q-17 -8 -23.5 -15t-9.5 -22l-19 -90h60l22 104h81l-35 -167h-220z" />
    <glyph glyph-name="threesuperior" unicode="&#xb3;" horiz-adv-x="294" 
d="M125 348zM226 529l-19 -87q-1 -5 -1.5 -8t-0.5 -6q0 -10 6 -13t20 -3q20 0 25.5 6.5t9.5 23.5l16 73q2 8 3 15t1 12q0 9 -5 12.5t-19 3.5h-44l13 64h44q20 0 26 5.5t9 19.5l11 55q1 5 1.5 9t0.5 7q0 9 -5.5 11.5t-19.5 2.5q-22 0 -27 -6.5t-9 -23.5l-11 -54h-76l11 54
q6 31 14.5 49.5t22.5 28.5t35 13t53 3q54 0 75.5 -9t21.5 -40q0 -17 -6 -44l-12 -53q-7 -30 -19 -43t-28 -18q11 -4 17 -12.5t6 -25.5q0 -16 -4 -35l-16 -75q-6 -30 -14.5 -48.5t-23 -28t-36.5 -13t-56 -3.5q-50 0 -70.5 8t-20.5 40q0 17 6 46l19 87h76z" />
    <glyph glyph-name="acute" unicode="&#xb4;" horiz-adv-x="201" 
d="M245 805h113l-128 -166h-81z" />
    <glyph glyph-name="paragraph" unicode="&#xb6;" horiz-adv-x="584" 
d="M199 -153l101 473h-35q-39 0 -66 2.5t-44 11t-24.5 23.5t-7.5 40q0 17 3.5 37.5t8.5 46.5l31 148q11 53 24 84.5t35 48.5t55 22.5t84 5.5h344l-200 -943h-115l180 847h-79l-180 -847h-115zM249 476q-6 -24 -6 -37q0 -16 9 -21t32 -5h35l59 277h-35q-16 0 -26 -2.5
t-16.5 -9.5t-11 -19t-8.5 -31z" />
    <glyph glyph-name="periodcentered" unicode="&#xb7;" horiz-adv-x="191" 
d="M114 330zM219 330h-105l28 132h105z" />
    <glyph glyph-name="cedilla" unicode="&#xb8;" horiz-adv-x="178" 
d="M58 -20h102l-117 -165h-70z" />
    <glyph glyph-name="onesuperior" unicode="&#xb9;" horiz-adv-x="197" 
d="M149 354zM195 791h125l-92 -437h-79l79 375h-46z" />
    <glyph glyph-name="ordmasculine" unicode="&#xba;" horiz-adv-x="272" 
d="M328 462q-5 -24 -12 -38t-19 -22t-31 -10.5t-49 -2.5q-46 0 -65 7t-19 32q0 11 5 34l42 198q5 24 12 38.5t19 22t31 10t48 2.5q47 0 66 -6.5t19 -32.5q0 -11 -5 -34zM303 661q0 8 -5.5 10t-19.5 2q-17 0 -23 -4t-8 -15l-41 -194q0 -7 5 -9.5t19 -2.5q17 0 23.5 4.5
t8.5 15.5z" />
    <glyph glyph-name="guillemotright" unicode="&#xbb;" horiz-adv-x="378" 
d="M18 0zM83 0h-65l162 299l-35 300h65l50 -300zM241 0h-65l162 299l-35 300h65l50 -300z" />
    <glyph glyph-name="onequarter" unicode="&#xbc;" horiz-adv-x="622" 
d="M51 0zM626 790l-497 -790h-78l497 790h78zM195 791h125l-92 -437h-79l79 375h-46zM628 184l-14 -62h-29l-25 -122h-81l25 122h-125l68 317h72l-54 -255h53l40 188h81l-40 -188h29z" />
    <glyph glyph-name="onehalf" unicode="&#xbd;" horiz-adv-x="619" 
d="M51 0zM626 790l-497 -790h-78l497 790h78zM195 791h125l-92 -437h-79l79 375h-46zM354 0l32 152q4 21 8.5 34.5t12.5 23t21 17.5t33 17l65 29q17 8 23.5 15t9.5 19l9 42q1 5 1.5 8.5t0.5 5.5q0 9 -6 12t-20 3q-19 0 -26.5 -6t-11.5 -24l-12 -57h-77l12 57q6 31 14.5 49.5
t22.5 28.5t36 13t56 3q53 0 74.5 -8.5t21.5 -39.5q0 -18 -6 -45l-10 -44q-4 -18 -9 -30.5t-13 -21.5t-20 -16.5t-30 -15.5l-68 -31q-17 -8 -23.5 -15t-9.5 -22l-19 -90h60l22 104h81l-35 -167h-220z" />
    <glyph glyph-name="threequarters" unicode="&#xbe;" horiz-adv-x="719" 
d="M125 0zM723 790l-497 -790h-78l497 790h78zM725 184l-14 -62h-29l-25 -122h-81l25 122h-125l68 317h72l-54 -255h53l40 188h81l-40 -188h29zM226 529l-19 -87q-1 -5 -1.5 -8t-0.5 -6q0 -10 6 -13t20 -3q20 0 25.5 6.5t9.5 23.5l16 73q2 8 3 15t1 12q0 9 -5 12.5t-19 3.5
h-44l13 64h44q20 0 26 5.5t9 19.5l11 55q1 5 1.5 9t0.5 7q0 9 -5.5 11.5t-19.5 2.5q-22 0 -27 -6.5t-9 -23.5l-11 -54h-76l11 54q6 31 14.5 49.5t22.5 28.5t35 13t53 3q54 0 75.5 -9t21.5 -40q0 -17 -6 -44l-12 -53q-7 -30 -19 -43t-28 -18q11 -4 17 -12.5t6 -25.5
q0 -16 -4 -35l-16 -75q-6 -30 -14.5 -48.5t-23 -28t-36.5 -13t-56 -3.5q-50 0 -70.5 8t-20.5 40q0 17 6 46l19 87h76z" />
    <glyph glyph-name="questiondown" unicode="&#xbf;" horiz-adv-x="385" 
d="M49 0zM314.015 790h104.993l-26.998 -130.992h-104.994zM364.012 537.016q-5 -23.999 -10 -41.498q-4.99902 -17.498 -11.499 -31.998q-6.5 -14.499 -15.499 -27.998q-9 -13.499 -22.999 -29.498l-73.9951 -86.9951q-15.999 -18.998 -22.499 -35.4971
q-6.49902 -16.499 -13.499 -47.4971l-16.999 -79.9951q-2 -12 -3.99902 -20.999q-2 -8.99902 -2 -15.999q0 -15.999 9.49902 -20.999q9.49902 -4.99902 31.498 -4.99902q16.999 0 26.998 2.49902q10 2.5 16.999 9.5q7 6.99902 11 19.499q3.99902 12.499 7.99902 31.498
l20.999 99.9932h111.993l-20.999 -99.9932q-11.999 -54.9971 -25.498 -87.4951t-35.498 -49.9971t-54.4971 -22.998q-32.498 -5.5 -81.4951 -5.5q-37.9971 0 -64.4951 3q-26.499 3 -43.498 11.499q-16.999 8.5 -24.998 23.999q-8 15.499 -8 40.4971q0 32.998 12 86.9951
l14.999 70.9951q4.99902 25.999 10.499 43.9971q5.5 17.999 12.499 32.998q7 14.999 17.499 29.499q10.499 14.499 25.499 32.4971l92.9941 109.994q7.99902 8.99902 12.499 15.999q4.5 6.99902 7.99902 13.999q3.5 6.99902 6 15.499q2.5 8.49902 5.5 20.499l11.999 58.9961
h97.9941z" />
    <glyph glyph-name="Agrave" unicode="&#xc0;" 
d="M38 0zM247 0l37 176h-97l-37 -176h-112l134 634q12 55 25.5 87.5t35.5 50t54.5 23t81.5 5.5q37 0 63.5 -3.5t43 -12.5t24 -25t7.5 -41q0 -31 -11 -84l-134 -634h-115zM346 697q-15 0 -25.5 -2.5t-17 -9t-11 -19t-8.5 -32.5l-77 -364h97l77 364q5 23 5 33q0 18 -8.5 24
t-31.5 6zM430 830h-74l-63 166h107z" />
    <glyph glyph-name="Aacute" unicode="&#xc1;" 
d="M38 0zM247 0l37 176h-97l-37 -176h-112l134 634q12 55 25.5 87.5t35.5 50t54.5 23t81.5 5.5q37 0 63.5 -3.5t43 -12.5t24 -25t7.5 -41q0 -31 -11 -84l-134 -634h-115zM346 697q-15 0 -25.5 -2.5t-17 -9t-11 -19t-8.5 -32.5l-77 -364h97l77 364q5 23 5 33q0 18 -8.5 24
t-31.5 6zM413 996h113l-128 -166h-81z" />
    <glyph glyph-name="Acircumflex" unicode="&#xc2;" 
d="M38 0zM247 0l37 176h-97l-37 -176h-112l134 634q12 55 25.5 87.5t35.5 50t54.5 23t81.5 5.5q37 0 63.5 -3.5t43 -12.5t24 -25t7.5 -41q0 -31 -11 -84l-134 -634h-115zM346 697q-15 0 -25.5 -2.5t-17 -9t-11 -19t-8.5 -32.5l-77 -364h97l77 364q5 23 5 33q0 18 -8.5 24
t-31.5 6zM520 830h-70l-50 109l-96 -109h-74l138 166h87z" />
    <glyph glyph-name="Atilde" unicode="&#xc3;" 
d="M38 0zM247 0l37 176h-97l-37 -176h-112l134 634q12 55 25.5 87.5t35.5 50t54.5 23t81.5 5.5q37 0 63.5 -3.5t43 -12.5t24 -25t7.5 -41q0 -31 -11 -84l-134 -634h-115zM346 697q-15 0 -25.5 -2.5t-17 -9t-11 -19t-8.5 -32.5l-77 -364h97l77 364q5 23 5 33q0 18 -8.5 24
t-31.5 6zM314 914q-25 0 -42.5 -10t-31.5 -26l15 73q14 11 33.5 18.5t40.5 7.5t39 -5t35 -10.5t35 -10.5t39 -5q46 0 77 36l-16 -72q-14 -13 -33.5 -21t-42.5 -8q-21 0 -39 5t-35 11.5t-35 11.5t-39 5z" />
    <glyph glyph-name="Adieresis" unicode="&#xc4;" 
d="M38 0zM247 0l37 176h-97l-37 -176h-112l134 634q12 55 25.5 87.5t35.5 50t54.5 23t81.5 5.5q37 0 63.5 -3.5t43 -12.5t24 -25t7.5 -41q0 -31 -11 -84l-134 -634h-115zM346 697q-15 0 -25.5 -2.5t-17 -9t-11 -19t-8.5 -32.5l-77 -364h97l77 364q5 23 5 33q0 18 -8.5 24
t-31.5 6zM527 877h-102l22 104h102zM346 877h-101l22 104h101z" />
    <glyph glyph-name="Aring" unicode="&#xc5;" 
d="M38 0zM247 0l37 176h-97l-37 -176h-112l134 634q12 55 25.5 87.5t35.5 50t54.5 23t81.5 5.5q37 0 63.5 -3.5t43 -12.5t24 -25t7.5 -41q0 -31 -11 -84l-134 -634h-115zM346 697q-15 0 -25.5 -2.5t-17 -9t-11 -19t-8.5 -32.5l-77 -364h97l77 364q5 23 5 33q0 18 -8.5 24
t-31.5 6zM468 888q-5 -23 -11.5 -36t-17 -20.5t-27 -9.5t-41.5 -2q-38 0 -54.5 6t-16.5 29q0 7 1.5 14.5t3.5 18.5l8 40q4 22 10.5 35.5t17.5 21t27.5 9.5t40.5 2q39 0 55 -6t16 -29q0 -14 -4 -33zM433 924q2 10 2 13q0 11 -8 13.5t-28 2.5q-23 0 -32 -4.5t-13 -24.5l-6 -32
q-1 -5 -1.5 -8t-0.5 -6q0 -10 7.5 -12.5t26.5 -2.5q24 0 33.5 4.5t13.5 24.5z" />
    <glyph glyph-name="AE" unicode="&#xc6;" horiz-adv-x="486" 
d="M222 0l37 176h-72l-37 -176h-112l133 629q12 55 25.5 87t34.5 48.5t53.5 21t81.5 4.5h242l-20 -96h-107l-24 -114h104l-20 -92h-104l-83 -390h108l-20 -98h-220zM207 270h72l90 424h-24q-15 0 -25 -2t-16.5 -8.5t-11 -18.5t-8.5 -32z" />
    <glyph glyph-name="Ccedilla" unicode="&#xc7;" horiz-adv-x="394" 
d="M53 0zM344 455l38 179q2 12 4 21t2 16q0 16 -9.5 21t-30.5 5q-16 0 -26 -2.5t-17 -9.5t-11.5 -19.5t-8.5 -31.5l-101 -477q-6 -26 -6 -38q0 -17 9 -22t32 -5q15 0 25 2.5t17 9.5t11 19.5t9 33.5l39 183h111l-39 -183q-12 -55 -25.5 -88t-35 -50.5t-54 -23t-80.5 -5.5
q-38 0 -65 3t-43.5 11t-24 23.5t-7.5 40.5q0 33 12 89l101 477q12 54 26 87t36.5 50.5t55.5 23t82 5.5q36 0 62 -3t42 -11t23.5 -24t7.5 -41q0 -33 -12 -87l-38 -179h-111zM138 -20h102l-117 -165h-70z" />
    <glyph glyph-name="Egrave" unicode="&#xc8;" horiz-adv-x="293" 
d="M44 0zM270 0h-226l167 790h225l-20 -95h-110l-24 -115h107l-20 -91h-107l-82 -390h111zM388 830h-74l-63 166h107z" />
    <glyph glyph-name="Egrave" unicode="&#x400;" horiz-adv-x="293" 
d="M44 0zM270 0h-226l167 790h225l-20 -95h-110l-24 -115h107l-20 -91h-107l-82 -390h111zM388 830h-74l-63 166h107z" />
    <glyph glyph-name="Eacute" unicode="&#xc9;" horiz-adv-x="293" 
d="M44 0zM270 0h-226l167 790h225l-20 -95h-110l-24 -115h107l-20 -91h-107l-82 -390h111zM371 996h113l-128 -166h-81z" />
    <glyph glyph-name="Ecircumflex" unicode="&#xca;" horiz-adv-x="293" 
d="M44 0zM270 0h-226l167 790h225l-20 -95h-110l-24 -115h107l-20 -91h-107l-82 -390h111zM477 830h-70l-50 109l-96 -109h-74l138 166h87z" />
    <glyph glyph-name="Edieresis" unicode="&#xcb;" horiz-adv-x="293" 
d="M44 0zM270 0h-226l167 790h225l-20 -95h-110l-24 -115h107l-20 -91h-107l-82 -390h111zM484 877h-102l22 104h102zM303 877h-101l22 104h101z" />
    <glyph glyph-name="Edieresis" unicode="&#x401;" horiz-adv-x="293" 
d="M44 0zM270 0h-226l167 790h225l-20 -95h-110l-24 -115h107l-20 -91h-107l-82 -390h111zM484 877h-102l22 104h102zM303 877h-101l22 104h101z" />
    <glyph glyph-name="Igrave" unicode="&#xcc;" horiz-adv-x="205" 
d="M46 0zM161 0h-115l167 790h115zM334 830h-74l-63 166h107z" />
    <glyph glyph-name="Iacute" unicode="&#xcd;" horiz-adv-x="205" 
d="M46 0zM161 0h-115l167 790h115zM317 996h113l-128 -166h-81z" />
    <glyph glyph-name="Icircumflex" unicode="&#xce;" horiz-adv-x="205" 
d="M46 0zM161 0h-115l167 790h115zM425 830h-70l-50 109l-96 -109h-74l138 166h87z" />
    <glyph glyph-name="Idieresis" unicode="&#xcf;" horiz-adv-x="205" 
d="M46 0zM161 0h-115l167 790h115zM432 877h-102l22 104h102zM251 877h-101l22 104h101z" />
    <glyph glyph-name="Idieresis" unicode="&#x407;" horiz-adv-x="205" 
d="M46 0zM161 0h-115l167 790h115zM432 877h-102l22 104h102zM251 877h-101l22 104h101z" />
    <glyph glyph-name="Idieresis" unicode="&#x3aa;" horiz-adv-x="205" 
d="M46 0zM161 0h-115l167 790h115zM432 877h-102l22 104h102zM251 877h-101l22 104h101z" />
    <glyph glyph-name="Eth" unicode="&#xd0;" horiz-adv-x="428" 
d="M161 580h27l44 210h165q38 0 65 -3t44 -11t24.5 -23.5t7.5 -40.5q0 -30 -11 -83l-99 -467q-11 -53 -24.5 -85t-35 -49t-54.5 -22.5t-84 -5.5h-165l103 489h-27zM300 580h54l-20 -91h-54l-82 -389h56q16 0 26.5 3t17 10t11 19t8.5 30l99 467l3.5 21t1.5 16q0 17 -9.5 21
t-32.5 4h-56z" />
    <glyph glyph-name="Eth" unicode="&#x110;" horiz-adv-x="428" 
d="M161 580h27l44 210h165q38 0 65 -3t44 -11t24.5 -23.5t7.5 -40.5q0 -30 -11 -83l-99 -467q-11 -53 -24.5 -85t-35 -49t-54.5 -22.5t-84 -5.5h-165l103 489h-27zM300 580h54l-20 -91h-54l-82 -389h56q16 0 26.5 3t17 10t11 19t8.5 30l99 467l3.5 21t1.5 16q0 17 -9.5 21
t-32.5 4h-56z" />
    <glyph glyph-name="Ntilde" unicode="&#xd1;" horiz-adv-x="432" 
d="M44 0zM268 0l-17 493h-4l-104 -493h-99l167 790h125l9 -507h4l107 507h100l-167 -790h-121zM330 914q-25 0 -42.5 -10t-31.5 -26l15 73q14 11 33.5 18.5t40.5 7.5t39 -5t35 -10.5t35 -10.5t39 -5q46 0 77 36l-16 -72q-14 -13 -33.5 -21t-42.5 -8q-21 0 -39 5t-35 11.5
t-35 11.5t-39 5z" />
    <glyph glyph-name="Ograve" unicode="&#xd2;" 
d="M57 0zM398 157q-12 -55 -25.5 -88t-35.5 -50.5t-55.5 -23t-84.5 -5.5q-38 0 -65 3t-43.5 11t-24 23.5t-7.5 40.5q0 33 12 89l101 477q12 55 25.5 87.5t35 50t55 23t84.5 5.5q38 0 65 -3t44 -11t24.5 -24t7.5 -41q0 -33 -12 -87zM383 634q2 12 4 21t2 16q0 17 -9.5 21.5
t-31.5 4.5q-16 0 -26 -2.5t-17 -9.5t-11.5 -19.5t-8.5 -31.5l-101 -477q-6 -26 -6 -38q0 -17 9 -22t32 -5q16 0 26.5 2.5t17 10t11 20t8.5 32.5zM431 830h-74l-63 166h107z" />
    <glyph glyph-name="Oacute" unicode="&#xd3;" 
d="M57 0zM398 157q-12 -55 -25.5 -88t-35.5 -50.5t-55.5 -23t-84.5 -5.5q-38 0 -65 3t-43.5 11t-24 23.5t-7.5 40.5q0 33 12 89l101 477q12 55 25.5 87.5t35 50t55 23t84.5 5.5q38 0 65 -3t44 -11t24.5 -24t7.5 -41q0 -33 -12 -87zM383 634q2 12 4 21t2 16q0 17 -9.5 21.5
t-31.5 4.5q-16 0 -26 -2.5t-17 -9.5t-11.5 -19.5t-8.5 -31.5l-101 -477q-6 -26 -6 -38q0 -17 9 -22t32 -5q16 0 26.5 2.5t17 10t11 20t8.5 32.5zM414 996h113l-128 -166h-81z" />
    <glyph glyph-name="Ocircumflex" unicode="&#xd4;" 
d="M57 0zM398 157q-12 -55 -25.5 -88t-35.5 -50.5t-55.5 -23t-84.5 -5.5q-38 0 -65 3t-43.5 11t-24 23.5t-7.5 40.5q0 33 12 89l101 477q12 55 25.5 87.5t35 50t55 23t84.5 5.5q38 0 65 -3t44 -11t24.5 -24t7.5 -41q0 -33 -12 -87zM383 634q2 12 4 21t2 16q0 17 -9.5 21.5
t-31.5 4.5q-16 0 -26 -2.5t-17 -9.5t-11.5 -19.5t-8.5 -31.5l-101 -477q-6 -26 -6 -38q0 -17 9 -22t32 -5q16 0 26.5 2.5t17 10t11 20t8.5 32.5zM520 830h-70l-50 109l-96 -109h-74l138 166h87z" />
    <glyph glyph-name="Otilde" unicode="&#xd5;" 
d="M57 0zM398 157q-12 -55 -25.5 -88t-35.5 -50.5t-55.5 -23t-84.5 -5.5q-38 0 -65 3t-43.5 11t-24 23.5t-7.5 40.5q0 33 12 89l101 477q12 55 25.5 87.5t35 50t55 23t84.5 5.5q38 0 65 -3t44 -11t24.5 -24t7.5 -41q0 -33 -12 -87zM383 634q2 12 4 21t2 16q0 17 -9.5 21.5
t-31.5 4.5q-16 0 -26 -2.5t-17 -9.5t-11.5 -19.5t-8.5 -31.5l-101 -477q-6 -26 -6 -38q0 -17 9 -22t32 -5q16 0 26.5 2.5t17 10t11 20t8.5 32.5zM314 914q-25 0 -42.5 -10t-31.5 -26l15 73q14 11 33.5 18.5t40.5 7.5t39 -5t35 -10.5t35 -10.5t39 -5q46 0 77 36l-16 -72
q-14 -13 -33.5 -21t-42.5 -8q-21 0 -39 5t-35 11.5t-35 11.5t-39 5z" />
    <glyph glyph-name="Odieresis" unicode="&#xd6;" 
d="M57 0zM398 157q-12 -55 -25.5 -88t-35.5 -50.5t-55.5 -23t-84.5 -5.5q-38 0 -65 3t-43.5 11t-24 23.5t-7.5 40.5q0 33 12 89l101 477q12 55 25.5 87.5t35 50t55 23t84.5 5.5q38 0 65 -3t44 -11t24.5 -24t7.5 -41q0 -33 -12 -87zM383 634q2 12 4 21t2 16q0 17 -9.5 21.5
t-31.5 4.5q-16 0 -26 -2.5t-17 -9.5t-11.5 -19.5t-8.5 -31.5l-101 -477q-6 -26 -6 -38q0 -17 9 -22t32 -5q16 0 26.5 2.5t17 10t11 20t8.5 32.5zM527 877h-102l22 104h102zM346 877h-101l22 104h101z" />
    <glyph glyph-name="multiply" unicode="&#xd7;" horiz-adv-x="479" 
d="M322 337l-142 -118l-54 68l143 118l-88 112l70 58l88 -112l136 112l54 -68l-136 -112l85 -108l-71 -58z" />
    <glyph glyph-name="Oslash" unicode="&#xd8;" 
d="M398 157q-12 -55 -25.5 -88t-35.5 -50.5t-55.5 -23t-84.5 -5.5q-23 0 -41.5 1.5t-34.5 3.5l-30 -64h-70l46 93q-10 16 -10 46q-1 17 2.5 38.5t9.5 48.5l101 477q12 55 25.5 87.5t35 50t55 23t84.5 5.5q23 0 41.5 -1t34.5 -3l31 64h70l-46 -94q10 -16 10 -46
q0 -17 -3.5 -38t-8.5 -48zM223 343l165 335q-2 11 -11 15t-29 4q-16 0 -26 -2.5t-17 -9.5t-11.5 -19.5t-8.5 -31.5zM343 444l-164 -334q2 -11 11.5 -14.5t28.5 -3.5q16 0 26.5 2.5t17 10t11 20t8.5 32.5z" />
    <glyph glyph-name="Ugrave" unicode="&#xd9;" horiz-adv-x="403" 
d="M61 0zM200 -10q-38 0 -64 3t-43 11.5t-24.5 24t-7.5 41.5q0 33 12 87l134 633h115l-134 -633q-6 -24 -6 -37q0 -17 9.5 -22t32.5 -5q15 0 25 2.5t16.5 9t11 19t9.5 33.5l134 633h112l-134 -633q-12 -55 -25.5 -88t-35.5 -50.5t-55 -23t-82 -5.5zM433 830h-74l-63 166h107
z" />
    <glyph glyph-name="Uacute" unicode="&#xda;" horiz-adv-x="403" 
d="M61 0zM200 -10q-38 0 -64 3t-43 11.5t-24.5 24t-7.5 41.5q0 33 12 87l134 633h115l-134 -633q-6 -24 -6 -37q0 -17 9.5 -22t32.5 -5q15 0 25 2.5t16.5 9t11 19t9.5 33.5l134 633h112l-134 -633q-12 -55 -25.5 -88t-35.5 -50.5t-55 -23t-82 -5.5zM416 996h113l-128 -166
h-81z" />
    <glyph glyph-name="Ucircumflex" unicode="&#xdb;" horiz-adv-x="403" 
d="M61 0zM200 -10q-38 0 -64 3t-43 11.5t-24.5 24t-7.5 41.5q0 33 12 87l134 633h115l-134 -633q-6 -24 -6 -37q0 -17 9.5 -22t32.5 -5q15 0 25 2.5t16.5 9t11 19t9.5 33.5l134 633h112l-134 -633q-12 -55 -25.5 -88t-35.5 -50.5t-55 -23t-82 -5.5zM522 830h-70l-50 109
l-96 -109h-74l138 166h87z" />
    <glyph glyph-name="Udieresis" unicode="&#xdc;" horiz-adv-x="403" 
d="M61 0zM200 -10q-38 0 -64 3t-43 11.5t-24.5 24t-7.5 41.5q0 33 12 87l134 633h115l-134 -633q-6 -24 -6 -37q0 -17 9.5 -22t32.5 -5q15 0 25 2.5t16.5 9t11 19t9.5 33.5l134 633h112l-134 -633q-12 -55 -25.5 -88t-35.5 -50.5t-55 -23t-82 -5.5zM529 877h-102l22 104h102
zM348 877h-101l22 104h101z" />
    <glyph glyph-name="Yacute" unicode="&#xdd;" horiz-adv-x="352" 
d="M117 0zM517 790l-226 -511l-59 -279h-115l59 279l-6 511h112l-17 -357h4l134 357h114zM390 996h113l-128 -166h-81z" />
    <glyph glyph-name="Thorn" unicode="&#xde;" horiz-adv-x="395" 
d="M211 790h115l-24 -115h49q39 0 66 -3t44 -11.5t24.5 -23.5t7.5 -40q0 -17 -3 -37t-8 -46l-36 -169q-11 -53 -24.5 -84.5t-35.5 -48.5t-55 -22.5t-84 -5.5h-49l-39 -184h-115zM281 575l-64 -298h49q16 0 26 2t16.5 9t11 19.5t9.5 33.5l37 173q6 25 6 39q0 15 -9.5 18.5
t-32.5 3.5h-49z" />
    <glyph glyph-name="germandbls" unicode="&#xdf;" horiz-adv-x="393" 
d="M464 538q-7 -31 -16.5 -50.5t-21.5 -31.5t-24.5 -17.5t-25.5 -8.5l-1 -4q24 -5 40 -20t16 -52q0 -21 -6 -51l-32 -148q-11 -48 -23 -78t-31.5 -47t-48.5 -23.5t-73 -6.5h-52l21 102h39q24 0 36.5 11t19.5 42l36 168q2 8 3 14.5t1 11.5q0 17 -10 22.5t-33 5.5h-37l21 102
h29q29 0 41 11.5t18 37.5l29 136q3 15 3 25q0 14 -9 19.5t-32 5.5q-32 0 -43 -10t-17 -40l-141 -664h-102l142 669q8 39 22.5 64.5t36 40.5t50.5 20.5t67 5.5q73 0 107.5 -16.5t34.5 -65.5q0 -21 -6 -49z" />
    <glyph glyph-name="agrave" unicode="&#xe0;" horiz-adv-x="353" 
d="M50 0zM159 -10q-30 0 -50.5 2t-33.5 8.5t-19 18t-6 30.5q0 20 8 57l31 145q11 54 37 79t76 25h19q34 0 47.5 -2.5t19.5 -6.5l26 124q4 16 4 29q0 14 -9 18.5t-29 4.5q-26 0 -36 -11t-16 -41l-12 -59h-93l15 71q9 42 20 67t28.5 38.5t44.5 17.5t68 4q68 0 97 -11.5
t29 -52.5q0 -12 -2.5 -27.5t-6.5 -35.5l-102 -482q-20 -5 -57.5 -7.5t-97.5 -2.5zM185 74q22 0 32 0.5t14 1.5l41 196q-10 6 -42 6q-15 0 -24 -2.5t-14.5 -8.5t-9 -16.5t-6.5 -25.5l-20 -94l-3.5 -19.5t-1.5 -15.5q0 -13 7 -17.5t27 -4.5zM368 639h-74l-63 166h107z" />
    <glyph glyph-name="aacute" unicode="&#xe1;" horiz-adv-x="353" 
d="M50 0zM159 -10q-30 0 -50.5 2t-33.5 8.5t-19 18t-6 30.5q0 20 8 57l31 145q11 54 37 79t76 25h19q34 0 47.5 -2.5t19.5 -6.5l26 124q4 16 4 29q0 14 -9 18.5t-29 4.5q-26 0 -36 -11t-16 -41l-12 -59h-93l15 71q9 42 20 67t28.5 38.5t44.5 17.5t68 4q68 0 97 -11.5
t29 -52.5q0 -12 -2.5 -27.5t-6.5 -35.5l-102 -482q-20 -5 -57.5 -7.5t-97.5 -2.5zM185 74q22 0 32 0.5t14 1.5l41 196q-10 6 -42 6q-15 0 -24 -2.5t-14.5 -8.5t-9 -16.5t-6.5 -25.5l-20 -94l-3.5 -19.5t-1.5 -15.5q0 -13 7 -17.5t27 -4.5zM351 805h113l-128 -166h-81z" />
    <glyph glyph-name="acircumflex" unicode="&#xe2;" horiz-adv-x="353" 
d="M50 0zM159 -10q-30 0 -50.5 2t-33.5 8.5t-19 18t-6 30.5q0 20 8 57l31 145q11 54 37 79t76 25h19q34 0 47.5 -2.5t19.5 -6.5l26 124q4 16 4 29q0 14 -9 18.5t-29 4.5q-26 0 -36 -11t-16 -41l-12 -59h-93l15 71q9 42 20 67t28.5 38.5t44.5 17.5t68 4q68 0 97 -11.5
t29 -52.5q0 -12 -2.5 -27.5t-6.5 -35.5l-102 -482q-20 -5 -57.5 -7.5t-97.5 -2.5zM185 74q22 0 32 0.5t14 1.5l41 196q-10 6 -42 6q-15 0 -24 -2.5t-14.5 -8.5t-9 -16.5t-6.5 -25.5l-20 -94l-3.5 -19.5t-1.5 -15.5q0 -13 7 -17.5t27 -4.5zM457 639h-70l-50 109l-96 -109h-74
l138 166h87z" />
    <glyph glyph-name="atilde" unicode="&#xe3;" horiz-adv-x="353" 
d="M50 0zM159 -10q-30 0 -50.5 2t-33.5 8.5t-19 18t-6 30.5q0 20 8 57l31 145q11 54 37 79t76 25h19q34 0 47.5 -2.5t19.5 -6.5l26 124q4 16 4 29q0 14 -9 18.5t-29 4.5q-26 0 -36 -11t-16 -41l-12 -59h-93l15 71q9 42 20 67t28.5 38.5t44.5 17.5t68 4q68 0 97 -11.5
t29 -52.5q0 -12 -2.5 -27.5t-6.5 -35.5l-102 -482q-20 -5 -57.5 -7.5t-97.5 -2.5zM185 74q22 0 32 0.5t14 1.5l41 196q-10 6 -42 6q-15 0 -24 -2.5t-14.5 -8.5t-9 -16.5t-6.5 -25.5l-20 -94l-3.5 -19.5t-1.5 -15.5q0 -13 7 -17.5t27 -4.5zM252 723q-25 0 -42.5 -10
t-31.5 -26l15 73q14 11 33.5 18.5t40.5 7.5t39 -5t35 -10.5t35 -10.5t39 -5q46 0 77 36l-16 -72q-14 -13 -33.5 -21t-42.5 -8q-21 0 -39 5t-35 11.5t-35 11.5t-39 5z" />
    <glyph glyph-name="adieresis" unicode="&#xe4;" horiz-adv-x="353" 
d="M50 0zM159 -10q-30 0 -50.5 2t-33.5 8.5t-19 18t-6 30.5q0 20 8 57l31 145q11 54 37 79t76 25h19q34 0 47.5 -2.5t19.5 -6.5l26 124q4 16 4 29q0 14 -9 18.5t-29 4.5q-26 0 -36 -11t-16 -41l-12 -59h-93l15 71q9 42 20 67t28.5 38.5t44.5 17.5t68 4q68 0 97 -11.5
t29 -52.5q0 -12 -2.5 -27.5t-6.5 -35.5l-102 -482q-20 -5 -57.5 -7.5t-97.5 -2.5zM185 74q22 0 32 0.5t14 1.5l41 196q-10 6 -42 6q-15 0 -24 -2.5t-14.5 -8.5t-9 -16.5t-6.5 -25.5l-20 -94l-3.5 -19.5t-1.5 -15.5q0 -13 7 -17.5t27 -4.5zM465 686h-102l22 104h102zM284 686
h-101l22 104h101z" />
    <glyph glyph-name="aring" unicode="&#xe5;" horiz-adv-x="353" 
d="M50 0zM159 -10q-30 0 -50.5 2t-33.5 8.5t-19 18t-6 30.5q0 20 8 57l31 145q11 54 37 79t76 25h19q34 0 47.5 -2.5t19.5 -6.5l26 124q4 16 4 29q0 14 -9 18.5t-29 4.5q-26 0 -36 -11t-16 -41l-12 -59h-93l15 71q9 42 20 67t28.5 38.5t44.5 17.5t68 4q68 0 97 -11.5
t29 -52.5q0 -12 -2.5 -27.5t-6.5 -35.5l-102 -482q-20 -5 -57.5 -7.5t-97.5 -2.5zM185 74q22 0 32 0.5t14 1.5l41 196q-10 6 -42 6q-15 0 -24 -2.5t-14.5 -8.5t-9 -16.5t-6.5 -25.5l-20 -94l-3.5 -19.5t-1.5 -15.5q0 -13 7 -17.5t27 -4.5zM405 697q-5 -23 -11.5 -36
t-17 -20.5t-27 -9.5t-41.5 -2q-38 0 -54.5 6t-16.5 29q0 7 1.5 14.5t3.5 18.5l8 40q4 22 10.5 35.5t17.5 21t27.5 9.5t40.5 2q39 0 55 -6t16 -29q0 -14 -4 -33zM370 733q2 10 2 13q0 11 -8 13.5t-28 2.5q-23 0 -32 -4.5t-13 -24.5l-6 -32q-1 -5 -1.5 -8t-0.5 -6
q0 -10 7.5 -12.5t26.5 -2.5q24 0 33.5 4.5t13.5 24.5z" />
    <glyph glyph-name="ae" unicode="&#xe6;" horiz-adv-x="530" 
d="M355 -10q-41 2 -61 9.5t-27 20.5q-15 -14 -39.5 -22t-66.5 -8q-30 0 -51 2t-34.5 8.5t-19.5 18t-6 30.5q0 20 8 57l31 145q11 54 37 79t76 25h19q34 0 47.5 -2.5t19.5 -6.5l26 124q4 16 4 29q0 14 -9 18.5t-29 4.5q-26 0 -36 -11t-16 -41l-12 -59h-93l15 71q9 42 20 67
t28.5 38.5t44.5 17.5t68 4t60 -8.5t27 -22.5q14 14 37.5 22.5t63.5 8.5q63 0 90 -11t27 -51q0 -25 -9 -65l-46 -218h-179l-31 -144q-3 -12 -3 -19q0 -13 8 -18.5t30 -5.5q28 0 37 9t15 37l17 81h93l-19 -87q-9 -42 -20 -67t-28.5 -38.5t-44.5 -17.5t-69 -4zM272 272
q-10 6 -42 6q-15 0 -24 -2.5t-14.5 -8.5t-9 -16.5t-6.5 -25.5l-20 -94l-3.5 -19.5t-1.5 -15.5q0 -13 7.5 -17.5t27.5 -4.5q29 0 38.5 9.5t14.5 33.5zM387 345h86l27 129q3 15 3 23q0 13 -7.5 17.5t-27.5 4.5q-14 0 -23 -2t-15 -7t-9.5 -13.5t-6.5 -22.5z" />
    <glyph glyph-name="ccedilla" unicode="&#xe7;" horiz-adv-x="347" 
d="M32 0zM301 377l20 94q3 12 3 21q0 13 -8 17t-28 4q-29 0 -38.5 -8t-14.5 -34l-74 -344q-3 -14 -3 -21q0 -14 8.5 -18t29.5 -4q26 0 36 9.5t15 33.5l33 155h93l-35 -165q-9 -42 -20.5 -67.5t-29.5 -38.5t-45 -17t-67 -4q-34 0 -57.5 2.5t-38.5 9.5t-21.5 19.5t-6.5 32.5
q0 13 1.5 28t6.5 35l78 365q9 42 20 67t30 38.5t47.5 17.5t72.5 4q64 0 90.5 -12.5t26.5 -51.5q0 -13 -2.5 -29.5t-6.5 -33.5l-22 -105h-93zM117 -20h102l-117 -165h-70z" />
    <glyph glyph-name="egrave" unicode="&#xe8;" horiz-adv-x="349" 
d="M52 0zM192 264l-30 -141q-2 -8 -3 -14t-1 -11q0 -13 8.5 -17t28.5 -4q27 0 37 8.5t16 37.5l17 81h92l-19 -87q-9 -42 -20 -67t-28.5 -38.5t-44.5 -17.5t-69 -4q-68 0 -96 11.5t-28 52.5q0 13 1.5 28t6.5 35l78 365q9 42 20 67t29.5 38.5t47.5 17.5t73 4q63 0 90 -11
t27 -51q0 -25 -9 -65l-46 -218h-178zM209 346h86l27 128q3 15 3 24q0 13 -8 17t-28 4q-28 0 -37.5 -8t-15.5 -37zM366 639h-74l-63 166h107z" />
    <glyph glyph-name="egrave" unicode="&#x450;" horiz-adv-x="349" 
d="M52 0zM192 264l-30 -141q-2 -8 -3 -14t-1 -11q0 -13 8.5 -17t28.5 -4q27 0 37 8.5t16 37.5l17 81h92l-19 -87q-9 -42 -20 -67t-28.5 -38.5t-44.5 -17.5t-69 -4q-68 0 -96 11.5t-28 52.5q0 13 1.5 28t6.5 35l78 365q9 42 20 67t29.5 38.5t47.5 17.5t73 4q63 0 90 -11
t27 -51q0 -25 -9 -65l-46 -218h-178zM209 346h86l27 128q3 15 3 24q0 13 -8 17t-28 4q-28 0 -37.5 -8t-15.5 -37zM366 639h-74l-63 166h107z" />
    <glyph glyph-name="eacute" unicode="&#xe9;" horiz-adv-x="349" 
d="M52 0zM192 264l-30 -141q-2 -8 -3 -14t-1 -11q0 -13 8.5 -17t28.5 -4q27 0 37 8.5t16 37.5l17 81h92l-19 -87q-9 -42 -20 -67t-28.5 -38.5t-44.5 -17.5t-69 -4q-68 0 -96 11.5t-28 52.5q0 13 1.5 28t6.5 35l78 365q9 42 20 67t29.5 38.5t47.5 17.5t73 4q63 0 90 -11
t27 -51q0 -25 -9 -65l-46 -218h-178zM209 346h86l27 128q3 15 3 24q0 13 -8 17t-28 4q-28 0 -37.5 -8t-15.5 -37zM349 805h113l-128 -166h-81z" />
    <glyph glyph-name="ecircumflex" unicode="&#xea;" horiz-adv-x="349" 
d="M52 0zM192 264l-30 -141q-2 -8 -3 -14t-1 -11q0 -13 8.5 -17t28.5 -4q27 0 37 8.5t16 37.5l17 81h92l-19 -87q-9 -42 -20 -67t-28.5 -38.5t-44.5 -17.5t-69 -4q-68 0 -96 11.5t-28 52.5q0 13 1.5 28t6.5 35l78 365q9 42 20 67t29.5 38.5t47.5 17.5t73 4q63 0 90 -11
t27 -51q0 -25 -9 -65l-46 -218h-178zM209 346h86l27 128q3 15 3 24q0 13 -8 17t-28 4q-28 0 -37.5 -8t-15.5 -37zM455 639h-70l-50 109l-96 -109h-74l138 166h87z" />
    <glyph glyph-name="edieresis" unicode="&#xeb;" horiz-adv-x="349" 
d="M52 0zM192 264l-30 -141q-2 -8 -3 -14t-1 -11q0 -13 8.5 -17t28.5 -4q27 0 37 8.5t16 37.5l17 81h92l-19 -87q-9 -42 -20 -67t-28.5 -38.5t-44.5 -17.5t-69 -4q-68 0 -96 11.5t-28 52.5q0 13 1.5 28t6.5 35l78 365q9 42 20 67t29.5 38.5t47.5 17.5t73 4q63 0 90 -11
t27 -51q0 -25 -9 -65l-46 -218h-178zM209 346h86l27 128q3 15 3 24q0 13 -8 17t-28 4q-28 0 -37.5 -8t-15.5 -37zM463 686h-102l22 104h102zM282 686h-101l22 104h101z" />
    <glyph glyph-name="edieresis" unicode="&#x451;" horiz-adv-x="349" 
d="M52 0zM192 264l-30 -141q-2 -8 -3 -14t-1 -11q0 -13 8.5 -17t28.5 -4q27 0 37 8.5t16 37.5l17 81h92l-19 -87q-9 -42 -20 -67t-28.5 -38.5t-44.5 -17.5t-69 -4q-68 0 -96 11.5t-28 52.5q0 13 1.5 28t6.5 35l78 365q9 42 20 67t29.5 38.5t47.5 17.5t73 4q63 0 90 -11
t27 -51q0 -25 -9 -65l-46 -218h-178zM209 346h86l27 128q3 15 3 24q0 13 -8 17t-28 4q-28 0 -37.5 -8t-15.5 -37zM463 686h-102l22 104h102zM282 686h-101l22 104h101z" />
    <glyph glyph-name="igrave" unicode="&#xec;" horiz-adv-x="205" 
d="M60 0zM301 639h-74l-63 166h107zM161 0h-101l127 599h101z" />
    <glyph glyph-name="iacute" unicode="&#xed;" horiz-adv-x="213" 
d="M46 0zM270 805h113l-128 -166h-81zM147 0h-101l127 599h101z" />
    <glyph glyph-name="icircumflex" unicode="&#xee;" horiz-adv-x="255" 
d="M77 0zM178 0h-101l127 599h101zM408 639h-70l-50 109l-96 -109h-74l138 166h87z" />
    <glyph glyph-name="idieresis" unicode="&#xef;" horiz-adv-x="271" 
d="M85 0zM423 686h-102l22 104h102zM242 686h-101l22 104h101zM186 0h-101l127 599h101z" />
    <glyph glyph-name="idieresis" unicode="&#x457;" horiz-adv-x="271" 
d="M85 0zM423 686h-102l22 104h102zM242 686h-101l22 104h101zM186 0h-101l127 599h101z" />
    <glyph glyph-name="eth" unicode="&#xf0;" horiz-adv-x="358" 
d="M174 623l79 39l-46 128h112l28 -81l76 38l15 -47l-75 -37l23 -63q16 -45 22 -75t7 -58q0 -19 -3 -39t-8 -45l-57 -266q-9 -42 -20 -67t-29.5 -38.5t-47 -17.5t-73.5 -4q-68 0 -96 11.5t-28 52.5q0 13 1.5 28t6.5 35l64 301q13 60 35.5 87.5t67.5 27.5q30 0 46 -8t35 -28
q-1 6 -2 11t-3.5 12t-5.5 17t-9 26l-19 53l-81 -41zM270 457q-27 0 -35.5 -17t-15.5 -51l-49 -233q-4 -19 -7 -31.5t-3 -20.5q0 -14 8.5 -17t28.5 -3q14 0 23.5 3t16 11t10.5 22t9 35l53 249q-1 26 -7 39.5t-32 13.5z" />
    <glyph glyph-name="ntilde" unicode="&#xf1;" horiz-adv-x="378" 
d="M44 0zM146 0h-102l127 599h95l-9 -40q16 22 41 33.5t63 11.5q46 0 66.5 -14t20.5 -51q0 -26 -7 -57l-102 -482h-102l100 471q1 5 1.5 8.5t0.5 7.5q0 25 -38 25q-20 0 -32 -8.5t-21 -22.5zM264 723q-25 0 -42.5 -10t-31.5 -26l15 73q14 11 33.5 18.5t40.5 7.5t39 -5
t35 -10.5t35 -10.5t39 -5q46 0 77 36l-16 -72q-14 -13 -33.5 -21t-42.5 -8q-21 0 -39 5t-35 11.5t-35 11.5t-39 5z" />
    <glyph glyph-name="ograve" unicode="&#xf2;" horiz-adv-x="358" 
d="M52 0zM346 117q-9 -42 -20 -67t-30 -38.5t-47.5 -17.5t-72.5 -4q-68 0 -96 11.5t-28 52.5q0 13 1.5 28t6.5 35l78 365q9 42 20 67t29.5 38.5t47.5 17.5t73 4q67 0 95.5 -11.5t28.5 -52.5q0 -13 -2 -28t-6 -35zM323 471q3 12 3 21q0 13 -8.5 17t-29.5 4q-28 0 -38 -8.5
t-15 -33.5l-74 -344q-3 -14 -3 -21q0 -14 8.5 -18t29.5 -4q29 0 38.5 9.5t14.5 33.5zM370 639h-74l-63 166h107z" />
    <glyph glyph-name="oacute" unicode="&#xf3;" horiz-adv-x="358" 
d="M52 0zM346 117q-9 -42 -20 -67t-30 -38.5t-47.5 -17.5t-72.5 -4q-68 0 -96 11.5t-28 52.5q0 13 1.5 28t6.5 35l78 365q9 42 20 67t29.5 38.5t47.5 17.5t73 4q67 0 95.5 -11.5t28.5 -52.5q0 -13 -2 -28t-6 -35zM323 471q3 12 3 21q0 13 -8.5 17t-29.5 4q-28 0 -38 -8.5
t-15 -33.5l-74 -344q-3 -14 -3 -21q0 -14 8.5 -18t29.5 -4q29 0 38.5 9.5t14.5 33.5zM353 805h113l-128 -166h-81z" />
    <glyph glyph-name="ocircumflex" unicode="&#xf4;" horiz-adv-x="358" 
d="M52 0zM346 117q-9 -42 -20 -67t-30 -38.5t-47.5 -17.5t-72.5 -4q-68 0 -96 11.5t-28 52.5q0 13 1.5 28t6.5 35l78 365q9 42 20 67t29.5 38.5t47.5 17.5t73 4q67 0 95.5 -11.5t28.5 -52.5q0 -13 -2 -28t-6 -35zM323 471q3 12 3 21q0 13 -8.5 17t-29.5 4q-28 0 -38 -8.5
t-15 -33.5l-74 -344q-3 -14 -3 -21q0 -14 8.5 -18t29.5 -4q29 0 38.5 9.5t14.5 33.5zM459 639h-70l-50 109l-96 -109h-74l138 166h87z" />
    <glyph glyph-name="otilde" unicode="&#xf5;" horiz-adv-x="358" 
d="M52 0zM346 117q-9 -42 -20 -67t-30 -38.5t-47.5 -17.5t-72.5 -4q-68 0 -96 11.5t-28 52.5q0 13 1.5 28t6.5 35l78 365q9 42 20 67t29.5 38.5t47.5 17.5t73 4q67 0 95.5 -11.5t28.5 -52.5q0 -13 -2 -28t-6 -35zM323 471q3 12 3 21q0 13 -8.5 17t-29.5 4q-28 0 -38 -8.5
t-15 -33.5l-74 -344q-3 -14 -3 -21q0 -14 8.5 -18t29.5 -4q29 0 38.5 9.5t14.5 33.5zM253 723q-25 0 -42.5 -10t-31.5 -26l15 73q14 11 33.5 18.5t40.5 7.5t39 -5t35 -10.5t35 -10.5t39 -5q46 0 77 36l-16 -72q-14 -13 -33.5 -21t-42.5 -8q-21 0 -39 5t-35 11.5t-35 11.5
t-39 5z" />
    <glyph glyph-name="odieresis" unicode="&#xf6;" horiz-adv-x="358" 
d="M52 0zM346 117q-9 -42 -20 -67t-30 -38.5t-47.5 -17.5t-72.5 -4q-68 0 -96 11.5t-28 52.5q0 13 1.5 28t6.5 35l78 365q9 42 20 67t29.5 38.5t47.5 17.5t73 4q67 0 95.5 -11.5t28.5 -52.5q0 -13 -2 -28t-6 -35zM323 471q3 12 3 21q0 13 -8.5 17t-29.5 4q-28 0 -38 -8.5
t-15 -33.5l-74 -344q-3 -14 -3 -21q0 -14 8.5 -18t29.5 -4q29 0 38.5 9.5t14.5 33.5zM466 686h-102l22 104h102zM285 686h-101l22 104h101z" />
    <glyph glyph-name="divide" unicode="&#xf7;" horiz-adv-x="493" 
d="M119 125zM119 354l19 91h407l-19 -91h-407zM415 544h-105l28 132h105zM326 125h-105l28 132h105z" />
    <glyph glyph-name="oslash" unicode="&#xf8;" horiz-adv-x="358" 
d="M346 117q-9 -42 -20 -67t-30 -38.5t-47.5 -17.5t-72.5 -4q-16 0 -29 0.5t-24 1.5l-31 -61h-71l41 83q-11 12 -11 38q0 24 9 65l78 365q9 42 20 67t29.5 38.5t47.5 17.5t73 4q15 0 28.5 -0.5t25.5 -1.5l30 61h71l-42 -84q11 -12 11 -40q0 -22 -8 -62zM292 328l-122 -242
q5 -2 11 -2h15q29 0 38.5 9.5t14.5 33.5zM192 270l121 240q-11 3 -25 3q-28 0 -38 -8.5t-15 -33.5z" />
    <glyph glyph-name="ugrave" unicode="&#xf9;" horiz-adv-x="376" 
d="M56 0zM357 599h103l-127 -599h-96l8 39q-16 -22 -40.5 -33t-61.5 -11q-46 0 -66.5 13.5t-20.5 50.5q0 12 2 26.5t6 31.5l103 482h102l-101 -472q-1 -5 -1.5 -9t-0.5 -8q0 -13 8 -18.5t28 -5.5t31.5 8.5t20.5 22.5zM379 639h-74l-63 166h107z" />
    <glyph glyph-name="uacute" unicode="&#xfa;" horiz-adv-x="376" 
d="M56 0zM357 599h103l-127 -599h-96l8 39q-16 -22 -40.5 -33t-61.5 -11q-46 0 -66.5 13.5t-20.5 50.5q0 12 2 26.5t6 31.5l103 482h102l-101 -472q-1 -5 -1.5 -9t-0.5 -8q0 -13 8 -18.5t28 -5.5t31.5 8.5t20.5 22.5zM362 805h113l-128 -166h-81z" />
    <glyph glyph-name="ucircumflex" unicode="&#xfb;" horiz-adv-x="376" 
d="M56 0zM357 599h103l-127 -599h-96l8 39q-16 -22 -40.5 -33t-61.5 -11q-46 0 -66.5 13.5t-20.5 50.5q0 12 2 26.5t6 31.5l103 482h102l-101 -472q-1 -5 -1.5 -9t-0.5 -8q0 -13 8 -18.5t28 -5.5t31.5 8.5t20.5 22.5zM468 639h-70l-50 109l-96 -109h-74l138 166h87z" />
    <glyph glyph-name="udieresis" unicode="&#xfc;" horiz-adv-x="376" 
d="M56 0zM357 599h103l-127 -599h-96l8 39q-16 -22 -40.5 -33t-61.5 -11q-46 0 -66.5 13.5t-20.5 50.5q0 12 2 26.5t6 31.5l103 482h102l-101 -472q-1 -5 -1.5 -9t-0.5 -8q0 -13 8 -18.5t28 -5.5t31.5 8.5t20.5 22.5zM475 686h-102l22 104h102zM294 686h-101l22 104h101z
" />
    <glyph glyph-name="yacute" unicode="&#xfd;" horiz-adv-x="378" 
d="M28 0zM360 599h102l-130 -609q-16 -73 -55 -108t-115 -35h-134l18 86h109q35 0 50 11.5t23 45.5l17 77q-16 -20 -39.5 -30.5t-57.5 -10.5q-45 0 -65 13.5t-20 50.5q0 21 8 58l96 451h102l-92 -432q-3 -14 -3 -23q0 -16 9 -21.5t29 -5.5q17 0 29.5 8.5t22.5 22.5zM363 805
h113l-128 -166h-81z" />
    <glyph glyph-name="thorn" unicode="&#xfe;" horiz-adv-x="366" 
d="M354 117q-8 -36 -17 -59.5t-22.5 -37.5t-33.5 -19.5t-50 -5.5q-35 0 -52.5 10.5t-25.5 30.5l-40 -189h-102l200 943h102l-48 -228q15 20 38 31t58 11q43 0 61 -13t18 -46q0 -23 -8 -63zM167 117q7 -31 39 -31q26 0 36 10t17 40l70 326q3 15 3 26q0 14 -8 19t-28 5
q-17 0 -29.5 -8.5t-21.5 -22.5z" />
    <glyph glyph-name="ydieresis" unicode="&#xff;" horiz-adv-x="378" 
d="M28 0zM360 599h102l-130 -609q-16 -73 -55 -108t-115 -35h-134l18 86h109q35 0 50 11.5t23 45.5l17 77q-16 -20 -39.5 -30.5t-57.5 -10.5q-45 0 -65 13.5t-20 50.5q0 21 8 58l96 451h102l-92 -432q-3 -14 -3 -23q0 -16 9 -21.5t29 -5.5q17 0 29.5 8.5t22.5 22.5zM476 686
h-102l22 104h102zM295 686h-101l22 104h101z" />
    <glyph glyph-name="Amacron" unicode="&#x100;" 
d="M38 0zM247 0l37 176h-97l-37 -176h-112l134 634q12 55 25.5 87.5t35.5 50t54.5 23t81.5 5.5q37 0 63.5 -3.5t43 -12.5t24 -25t7.5 -41q0 -31 -11 -84l-134 -634h-115zM346 697q-15 0 -25.5 -2.5t-17 -9t-11 -19t-8.5 -32.5l-77 -364h97l77 364q5 23 5 33q0 18 -8.5 24
t-31.5 6zM536 899h-292l13 61h292z" />
    <glyph glyph-name="amacron" unicode="&#x101;" horiz-adv-x="353" 
d="M50 0zM159 -10q-30 0 -50.5 2t-33.5 8.5t-19 18t-6 30.5q0 20 8 57l31 145q11 54 37 79t76 25h19q34 0 47.5 -2.5t19.5 -6.5l26 124q4 16 4 29q0 14 -9 18.5t-29 4.5q-26 0 -36 -11t-16 -41l-12 -59h-93l15 71q9 42 20 67t28.5 38.5t44.5 17.5t68 4q68 0 97 -11.5
t29 -52.5q0 -12 -2.5 -27.5t-6.5 -35.5l-102 -482q-20 -5 -57.5 -7.5t-97.5 -2.5zM185 74q22 0 32 0.5t14 1.5l41 196q-10 6 -42 6q-15 0 -24 -2.5t-14.5 -8.5t-9 -16.5t-6.5 -25.5l-20 -94l-3.5 -19.5t-1.5 -15.5q0 -13 7 -17.5t27 -4.5zM474 708h-292l13 61h292z" />
    <glyph glyph-name="Abreve" unicode="&#x102;" 
d="M38 0zM247 0l37 176h-97l-37 -176h-112l134 634q12 55 25.5 87.5t35.5 50t54.5 23t81.5 5.5q37 0 63.5 -3.5t43 -12.5t24 -25t7.5 -41q0 -31 -11 -84l-134 -634h-115zM346 697q-15 0 -25.5 -2.5t-17 -9t-11 -19t-8.5 -32.5l-77 -364h97l77 364q5 23 5 33q0 18 -8.5 24
t-31.5 6zM376 833q-54 0 -86.5 25.5t-32.5 82.5q0 13 2 26.5t5 28.5h64q-6 -29 -6 -49q0 -28 14.5 -41t52.5 -13q36 0 63.5 22t41.5 81h64q-19 -87 -68 -125t-114 -38z" />
    <glyph glyph-name="abreve" unicode="&#x103;" horiz-adv-x="353" 
d="M50 0zM159 -10q-30 0 -50.5 2t-33.5 8.5t-19 18t-6 30.5q0 20 8 57l31 145q11 54 37 79t76 25h19q34 0 47.5 -2.5t19.5 -6.5l26 124q4 16 4 29q0 14 -9 18.5t-29 4.5q-26 0 -36 -11t-16 -41l-12 -59h-93l15 71q9 42 20 67t28.5 38.5t44.5 17.5t68 4q68 0 97 -11.5
t29 -52.5q0 -12 -2.5 -27.5t-6.5 -35.5l-102 -482q-20 -5 -57.5 -7.5t-97.5 -2.5zM185 74q22 0 32 0.5t14 1.5l41 196q-10 6 -42 6q-15 0 -24 -2.5t-14.5 -8.5t-9 -16.5t-6.5 -25.5l-20 -94l-3.5 -19.5t-1.5 -15.5q0 -13 7 -17.5t27 -4.5zM313 642q-54 0 -86.5 25.5
t-32.5 82.5q0 13 2 26.5t5 28.5h64q-6 -29 -6 -49q0 -28 14.5 -41t52.5 -13q36 0 63.5 22t41.5 81h64q-19 -87 -68 -125t-114 -38z" />
    <glyph glyph-name="Aogonek" unicode="&#x104;" 
d="M362 0q-38 -17 -58 -34.5t-20 -48.5q0 -21 33 -21h36l-17 -81h-78q-41 0 -56 15.5t-15 39.5q0 35 15 60.5t38 40.5l44 205h-97l-37 -176h-112l134 634q12 55 25.5 87.5t35.5 50t54.5 23t81.5 5.5q37 0 63.5 -3.5t43 -12.5t24 -25t7.5 -41q0 -31 -11 -84zM346 697
q-15 0 -25.5 -2.5t-17 -9t-11 -19t-8.5 -32.5l-77 -364h97l77 364q5 23 5 33q0 18 -8.5 24t-31.5 6z" />
    <glyph glyph-name="aogonek" unicode="&#x105;" horiz-adv-x="353" 
d="M159 -10q-30 0 -50.5 2t-33.5 8.5t-19 18t-6 30.5q0 20 8 57l31 145q11 54 37 79t76 25h19q34 0 47.5 -2.5t19.5 -6.5l26 124q4 16 4 29q0 14 -9 18.5t-29 4.5q-26 0 -36 -11t-16 -41l-12 -59h-93l15 71q9 42 20 67t28.5 38.5t44.5 17.5t68 4q68 0 97 -11.5t29 -52.5
q0 -12 -2.5 -27.5t-6.5 -35.5l-102 -482q-38 -17 -58 -34.5t-20 -48.5q0 -21 33 -21h36l-17 -81h-78q-41 0 -56 15.5t-15 39.5q0 50 25.5 77.5t73.5 44.5q-17 -1 -36.5 -1.5t-42.5 -0.5zM185 74q22 0 32 0.5t14 1.5l41 196q-10 6 -42 6q-15 0 -24 -2.5t-14.5 -8.5t-9 -16.5
t-6.5 -25.5l-20 -94l-3.5 -19.5t-1.5 -15.5q0 -13 7 -17.5t27 -4.5z" />
    <glyph glyph-name="Cacute" unicode="&#x106;" horiz-adv-x="394" 
d="M57 0zM344 455l38 179q2 12 4 21t2 16q0 16 -9.5 21t-30.5 5q-16 0 -26 -2.5t-17 -9.5t-11.5 -19.5t-8.5 -31.5l-101 -477q-6 -26 -6 -38q0 -17 9 -22t32 -5q15 0 25 2.5t17 9.5t11 19.5t9 33.5l39 183h111l-39 -183q-12 -55 -25.5 -88t-35 -50.5t-54 -23t-80.5 -5.5
q-38 0 -65 3t-43.5 11t-24 23.5t-7.5 40.5q0 33 12 89l101 477q12 54 26 87t36.5 50.5t55.5 23t82 5.5q36 0 62 -3t42 -11t23.5 -24t7.5 -41q0 -33 -12 -87l-38 -179h-111zM411 996h113l-128 -166h-81z" />
    <glyph glyph-name="cacute" unicode="&#x107;" horiz-adv-x="347" 
d="M52 0zM301 377l20 94q3 12 3 21q0 13 -8 17t-28 4q-29 0 -38.5 -8t-14.5 -34l-74 -344q-3 -14 -3 -21q0 -14 8.5 -18t29.5 -4q26 0 36 9.5t15 33.5l33 155h93l-35 -165q-9 -42 -20.5 -67.5t-29.5 -38.5t-45 -17t-67 -4q-34 0 -57.5 2.5t-38.5 9.5t-21.5 19.5t-6.5 32.5
q0 13 1.5 28t6.5 35l78 365q9 42 20 67t30 38.5t47.5 17.5t72.5 4q64 0 90.5 -12.5t26.5 -51.5q0 -13 -2.5 -29.5t-6.5 -33.5l-22 -105h-93zM348 805h113l-128 -166h-81z" />
    <glyph glyph-name="Cdotaccent" unicode="&#x10a;" horiz-adv-x="394" 
d="M57 0zM344 455l38 179q2 12 4 21t2 16q0 16 -9.5 21t-30.5 5q-16 0 -26 -2.5t-17 -9.5t-11.5 -19.5t-8.5 -31.5l-101 -477q-6 -26 -6 -38q0 -17 9 -22t32 -5q15 0 25 2.5t17 9.5t11 19.5t9 33.5l39 183h111l-39 -183q-12 -55 -25.5 -88t-35 -50.5t-54 -23t-80.5 -5.5
q-38 0 -65 3t-43.5 11t-24 23.5t-7.5 40.5q0 33 12 89l101 477q12 54 26 87t36.5 50.5t55.5 23t82 5.5q36 0 62 -3t42 -11t23.5 -24t7.5 -41q0 -33 -12 -87l-38 -179h-111zM432 877h-101l22 104h101z" />
    <glyph glyph-name="cdotaccent" unicode="&#x10b;" horiz-adv-x="347" 
d="M52 0zM301 377l20 94q3 12 3 21q0 13 -8 17t-28 4q-29 0 -38.5 -8t-14.5 -34l-74 -344q-3 -14 -3 -21q0 -14 8.5 -18t29.5 -4q26 0 36 9.5t15 33.5l33 155h93l-35 -165q-9 -42 -20.5 -67.5t-29.5 -38.5t-45 -17t-67 -4q-34 0 -57.5 2.5t-38.5 9.5t-21.5 19.5t-6.5 32.5
q0 13 1.5 28t6.5 35l78 365q9 42 20 67t30 38.5t47.5 17.5t72.5 4q64 0 90.5 -12.5t26.5 -51.5q0 -13 -2.5 -29.5t-6.5 -33.5l-22 -105h-93zM370 686h-101l22 104h101z" />
    <glyph glyph-name="Ccaron" unicode="&#x10c;" horiz-adv-x="394" 
d="M57 0zM344 455l38 179q2 12 4 21t2 16q0 16 -9.5 21t-30.5 5q-16 0 -26 -2.5t-17 -9.5t-11.5 -19.5t-8.5 -31.5l-101 -477q-6 -26 -6 -38q0 -17 9 -22t32 -5q15 0 25 2.5t17 9.5t11 19.5t9 33.5l39 183h111l-39 -183q-12 -55 -25.5 -88t-35 -50.5t-54 -23t-80.5 -5.5
q-38 0 -65 3t-43.5 11t-24 23.5t-7.5 40.5q0 33 12 89l101 477q12 54 26 87t36.5 50.5t55.5 23t82 5.5q36 0 62 -3t42 -11t23.5 -24t7.5 -41q0 -33 -12 -87l-38 -179h-111zM263 996h69l49 -109l97 109h75l-138 -166h-86z" />
    <glyph glyph-name="ccaron" unicode="&#x10d;" horiz-adv-x="347" 
d="M52 0zM301 377l20 94q3 12 3 21q0 13 -8 17t-28 4q-29 0 -38.5 -8t-14.5 -34l-74 -344q-3 -14 -3 -21q0 -14 8.5 -18t29.5 -4q26 0 36 9.5t15 33.5l33 155h93l-35 -165q-9 -42 -20.5 -67.5t-29.5 -38.5t-45 -17t-67 -4q-34 0 -57.5 2.5t-38.5 9.5t-21.5 19.5t-6.5 32.5
q0 13 1.5 28t6.5 35l78 365q9 42 20 67t30 38.5t47.5 17.5t72.5 4q64 0 90.5 -12.5t26.5 -51.5q0 -13 -2.5 -29.5t-6.5 -33.5l-22 -105h-93zM200 805h69l49 -109l97 109h75l-138 -166h-86z" />
    <glyph glyph-name="Dcaron" unicode="&#x10e;" horiz-adv-x="407" 
d="M44 0zM407 162q-11 -53 -24.5 -85t-35.5 -49t-55 -22.5t-84 -5.5h-164l167 790h164q39 0 66 -3t44 -11.5t24.5 -23.5t7.5 -40q0 -17 -3 -37t-8 -46zM390 629l3.5 19.5t1.5 15.5q0 16 -9 21t-32 5h-49l-125 -591h49q16 0 26 2.5t16.5 9t11 19t8.5 32.5zM263 996h69
l49 -109l97 109h75l-138 -166h-86z" />
    <glyph glyph-name="dcaron" unicode="&#x10f;" horiz-adv-x="483" 
d="M51 0zM138 482q7 35 16.5 58.5t23 37.5t33.5 20t50 6q34 0 51.5 -11t25.5 -31l48 228h103l-167 -790h-95l9 43q-20 -26 -44 -37t-60 -11q-44 0 -62.5 12.5t-18.5 46.5q0 24 9 63zM324 481q-7 31 -39 31q-26 0 -36 -10t-16 -40l-70 -326q-3 -15 -3 -25q0 -15 7.5 -20
t27.5 -5q17 0 29.5 8.5t21.5 22.5zM574 790h102l-117 -165h-70z" />
    <glyph glyph-name="dmacron" unicode="&#x111;" horiz-adv-x="366" 
d="M513 688h-45l-146 -688h-95l9 43q-20 -26 -44 -37t-60 -11q-44 0 -62.5 12.5t-18.5 46.5q0 24 9 63l78 365q7 35 16.5 58.5t23 37.5t33.5 20t50 6q34 0 51.5 -11t25.5 -31l27 126h-144l13 61h144l8 41h103l-8 -41h45zM324 481q-7 31 -39 31q-26 0 -36 -10t-16 -40
l-70 -326q-3 -15 -3 -25q0 -15 7.5 -20t27.5 -5q17 0 29.5 8.5t21.5 22.5z" />
    <glyph glyph-name="Emacron" unicode="&#x112;" horiz-adv-x="293" 
d="M44 0zM270 0h-226l167 790h225l-20 -95h-110l-24 -115h107l-20 -91h-107l-82 -390h111zM493 899h-292l13 61h292z" />
    <glyph glyph-name="emacron" unicode="&#x113;" horiz-adv-x="349" 
d="M52 0zM192 264l-30 -141q-2 -8 -3 -14t-1 -11q0 -13 8.5 -17t28.5 -4q27 0 37 8.5t16 37.5l17 81h92l-19 -87q-9 -42 -20 -67t-28.5 -38.5t-44.5 -17.5t-69 -4q-68 0 -96 11.5t-28 52.5q0 13 1.5 28t6.5 35l78 365q9 42 20 67t29.5 38.5t47.5 17.5t73 4q63 0 90 -11
t27 -51q0 -25 -9 -65l-46 -218h-178zM209 346h86l27 128q3 15 3 24q0 13 -8 17t-28 4q-28 0 -37.5 -8t-15.5 -37zM472 708h-292l13 61h292z" />
    <glyph glyph-name="Ebreve" unicode="&#x114;" horiz-adv-x="293" 
d="M44 0zM270 0h-226l167 790h225l-20 -95h-110l-24 -115h107l-20 -91h-107l-82 -390h111zM333 833q-54 0 -86.5 25.5t-32.5 82.5q0 13 2 26.5t5 28.5h64q-6 -29 -6 -49q0 -28 14.5 -41t52.5 -13q36 0 63.5 22t41.5 81h64q-19 -87 -68 -125t-114 -38z" />
    <glyph glyph-name="ebreve" unicode="&#x115;" horiz-adv-x="349" 
d="M52 0zM192 264l-30 -141q-2 -8 -3 -14t-1 -11q0 -13 8.5 -17t28.5 -4q27 0 37 8.5t16 37.5l17 81h92l-19 -87q-9 -42 -20 -67t-28.5 -38.5t-44.5 -17.5t-69 -4q-68 0 -96 11.5t-28 52.5q0 13 1.5 28t6.5 35l78 365q9 42 20 67t29.5 38.5t47.5 17.5t73 4q63 0 90 -11
t27 -51q0 -25 -9 -65l-46 -218h-178zM209 346h86l27 128q3 15 3 24q0 13 -8 17t-28 4q-28 0 -37.5 -8t-15.5 -37zM311 642q-54 0 -86.5 25.5t-32.5 82.5q0 13 2 26.5t5 28.5h64q-6 -29 -6 -49q0 -28 14.5 -41t52.5 -13q36 0 63.5 22t41.5 81h64q-19 -87 -68 -125t-114 -38z
" />
    <glyph glyph-name="Edotaccent" unicode="&#x116;" horiz-adv-x="293" 
d="M44 0zM270 0h-226l167 790h225l-20 -95h-110l-24 -115h107l-20 -91h-107l-82 -390h111zM392 877h-101l22 104h101z" />
    <glyph glyph-name="edotaccent" unicode="&#x117;" horiz-adv-x="349" 
d="M52 0zM192 264l-30 -141q-2 -8 -3 -14t-1 -11q0 -13 8.5 -17t28.5 -4q27 0 37 8.5t16 37.5l17 81h92l-19 -87q-9 -42 -20 -67t-28.5 -38.5t-44.5 -17.5t-69 -4q-68 0 -96 11.5t-28 52.5q0 13 1.5 28t6.5 35l78 365q9 42 20 67t29.5 38.5t47.5 17.5t73 4q63 0 90 -11
t27 -51q0 -25 -9 -65l-46 -218h-178zM209 346h86l27 128q3 15 3 24q0 13 -8 17t-28 4q-28 0 -37.5 -8t-15.5 -37zM371 686h-101l22 104h101z" />
    <glyph glyph-name="Eogonek" unicode="&#x118;" horiz-adv-x="293" 
d="M44 0l167 790h225l-20 -95h-110l-24 -115h107l-20 -91h-107l-82 -390h111l-21 -99q-38 -17 -58 -34.5t-20 -48.5q0 -21 33 -21h36l-17 -81h-78q-41 0 -56 15.5t-15 39.5q0 28 8 48.5t24 35.5t39.5 26t54.5 20h-177z" />
    <glyph glyph-name="eogonek" unicode="&#x119;" horiz-adv-x="349" 
d="M192 264l-30 -141q-2 -8 -3 -14t-1 -11q0 -13 8.5 -17t28.5 -4q27 0 37 8.5t16 37.5l17 81h92l-19 -87q-12 -53 -26.5 -79.5t-42.5 -37.5q-39 -15 -58.5 -33.5t-19.5 -49.5q0 -21 33 -21h36l-17 -81h-78q-41 0 -56 15.5t-15 39.5q0 49 24.5 76t70.5 44h-13
q-68 0 -96 11.5t-28 52.5q0 13 1.5 28t6.5 35l78 365q9 42 20 67t29.5 38.5t47.5 17.5t73 4q63 0 90 -11t27 -51q0 -25 -9 -65l-46 -218h-178zM209 346h86l27 128q3 15 3 24q0 13 -8 17t-28 4q-28 0 -37.5 -8t-15.5 -37z" />
    <glyph glyph-name="Ecaron" unicode="&#x11a;" horiz-adv-x="293" 
d="M44 0zM270 0h-226l167 790h225l-20 -95h-110l-24 -115h107l-20 -91h-107l-82 -390h111zM223 996h69l49 -109l97 109h75l-138 -166h-86z" />
    <glyph glyph-name="ecaron" unicode="&#x11b;" horiz-adv-x="349" 
d="M52 0zM192 264l-30 -141q-2 -8 -3 -14t-1 -11q0 -13 8.5 -17t28.5 -4q27 0 37 8.5t16 37.5l17 81h92l-19 -87q-9 -42 -20 -67t-28.5 -38.5t-44.5 -17.5t-69 -4q-68 0 -96 11.5t-28 52.5q0 13 1.5 28t6.5 35l78 365q9 42 20 67t29.5 38.5t47.5 17.5t73 4q63 0 90 -11
t27 -51q0 -25 -9 -65l-46 -218h-178zM209 346h86l27 128q3 15 3 24q0 13 -8 17t-28 4q-28 0 -37.5 -8t-15.5 -37zM201 805h69l49 -109l97 109h75l-138 -166h-86z" />
    <glyph glyph-name="Gbreve" unicode="&#x11e;" horiz-adv-x="398" 
d="M58 0zM367 562l15 72q2 12 4 21t2 16q0 16 -9.5 21t-30.5 5q-16 0 -26 -2.5t-17 -9.5t-11.5 -19.5t-8.5 -31.5l-101 -477l-3.5 -21t-1.5 -16q0 -17 8.5 -22.5t31.5 -5.5q20 0 32.5 1t19.5 3l77 363h108l-97 -459q-15 -3 -55.5 -6.5t-106.5 -3.5q-38 0 -64.5 3.5t-43 13
t-24 25.5t-7.5 41q0 17 3 37.5t8 46.5l101 477q12 54 26 87t36.5 50.5t55.5 23t82 5.5q36 0 62 -3t42 -11t23.5 -24t7.5 -41q0 -33 -12 -87l-15 -72h-111zM374 833q-54 0 -86.5 25.5t-32.5 82.5q0 13 2 26.5t5 28.5h64q-6 -29 -6 -49q0 -28 14.5 -41t52.5 -13q36 0 63.5 22
t41.5 81h64q-19 -87 -68 -125t-114 -38z" />
    <glyph glyph-name="gbreve" unicode="&#x11f;" horiz-adv-x="366" 
d="M19 0zM144 -67q35 0 49.5 11.5t22.5 45.5l17 77q-16 -20 -38.5 -30.5t-56.5 -10.5q-45 0 -62.5 13.5t-17.5 45.5q0 13 2.5 28.5t6.5 34.5l71 334q7 35 16.5 58.5t23 37.5t34 20t50.5 6q36 0 55 -11.5t27 -37.5l10 44h95l-130 -609q-16 -73 -54.5 -108t-114.5 -35h-131
l18 86h107zM324 481q-7 31 -39 31q-26 0 -36 -10t-16 -40l-63 -295q-4 -15 -4 -26q0 -14 8 -19t27 -5q17 0 30 8.5t22 22.5zM319 642q-54 0 -86.5 25.5t-32.5 82.5q0 13 2 26.5t5 28.5h64q-6 -29 -6 -49q0 -28 14.5 -41t52.5 -13q36 0 63.5 22t41.5 81h64q-19 -87 -68 -125
t-114 -38z" />
    <glyph glyph-name="Gdotaccent" unicode="&#x120;" horiz-adv-x="398" 
d="M58 0zM367 562l15 72q2 12 4 21t2 16q0 16 -9.5 21t-30.5 5q-16 0 -26 -2.5t-17 -9.5t-11.5 -19.5t-8.5 -31.5l-101 -477l-3.5 -21t-1.5 -16q0 -17 8.5 -22.5t31.5 -5.5q20 0 32.5 1t19.5 3l77 363h108l-97 -459q-15 -3 -55.5 -6.5t-106.5 -3.5q-38 0 -64.5 3.5t-43 13
t-24 25.5t-7.5 41q0 17 3 37.5t8 46.5l101 477q12 54 26 87t36.5 50.5t55.5 23t82 5.5q36 0 62 -3t42 -11t23.5 -24t7.5 -41q0 -33 -12 -87l-15 -72h-111zM433 877h-101l22 104h101z" />
    <glyph glyph-name="gdotaccent" unicode="&#x121;" horiz-adv-x="366" 
d="M19 0zM144 -67q35 0 49.5 11.5t22.5 45.5l17 77q-16 -20 -38.5 -30.5t-56.5 -10.5q-45 0 -62.5 13.5t-17.5 45.5q0 13 2.5 28.5t6.5 34.5l71 334q7 35 16.5 58.5t23 37.5t34 20t50.5 6q36 0 55 -11.5t27 -37.5l10 44h95l-130 -609q-16 -73 -54.5 -108t-114.5 -35h-131
l18 86h107zM324 481q-7 31 -39 31q-26 0 -36 -10t-16 -40l-63 -295q-4 -15 -4 -26q0 -14 8 -19t27 -5q17 0 30 8.5t22 22.5zM378 686h-101l22 104h101z" />
    <glyph glyph-name="Gcommaaccent" unicode="&#x122;" horiz-adv-x="398" 
d="M58 0zM367 562l15 72q2 12 4 21t2 16q0 16 -9.5 21t-30.5 5q-16 0 -26 -2.5t-17 -9.5t-11.5 -19.5t-8.5 -31.5l-101 -477l-3.5 -21t-1.5 -16q0 -17 8.5 -22.5t31.5 -5.5q20 0 32.5 1t19.5 3l77 363h108l-97 -459q-15 -3 -55.5 -6.5t-106.5 -3.5q-38 0 -64.5 3.5t-43 13
t-24 25.5t-7.5 41q0 17 3 37.5t8 46.5l101 477q12 54 26 87t36.5 50.5t55.5 23t82 5.5q36 0 62 -3t42 -11t23.5 -24t7.5 -41q0 -33 -12 -87l-15 -72h-111zM145 -20h102l-117 -165h-70z" />
    <glyph glyph-name="gcommaaccent" unicode="&#x123;" horiz-adv-x="366" 
d="M19 0zM144 -67q35 0 49.5 11.5t22.5 45.5l17 77q-16 -20 -38.5 -30.5t-56.5 -10.5q-45 0 -62.5 13.5t-17.5 45.5q0 13 2.5 28.5t6.5 34.5l71 334q7 35 16.5 58.5t23 37.5t34 20t50.5 6q36 0 55 -11.5t27 -37.5l10 44h95l-130 -609q-16 -73 -54.5 -108t-114.5 -35h-131
l18 86h107zM324 481q-7 31 -39 31q-26 0 -36 -10t-16 -40l-63 -295q-4 -15 -4 -26q0 -14 8 -19t27 -5q17 0 30 8.5t22 22.5zM360.004 624.999h-101.994l116.993 164.989h69.9951z" />
    <glyph glyph-name="Hbar" unicode="&#x126;" horiz-adv-x="417" 
d="M375 0h-116l91 432h-100l-91 -432h-115l167 790h115l-20 -95h100l20 95h116zM371 529l22 105h-100l-22 -105h100z" />
    <glyph glyph-name="hbar" unicode="&#x127;" horiz-adv-x="378" 
d="M438 688h-146l-27 -127q31 43 97 43q46 0 66 -14t20 -51q0 -26 -7 -57l-102 -482h-102l100 471q1 5 1.5 8.5t0.5 7.5q0 25 -38 25q-20 0 -32 -8.5t-21 -22.5l-102 -481h-102l146 688h-44l13 61h44l8 41h102l-8 -41h146z" />
    <glyph glyph-name="hbar" unicode="&#x45b;" horiz-adv-x="378" 
d="M438 688h-146l-27 -127q31 43 97 43q46 0 66 -14t20 -51q0 -26 -7 -57l-102 -482h-102l100 471q1 5 1.5 8.5t0.5 7.5q0 25 -38 25q-20 0 -32 -8.5t-21 -22.5l-102 -481h-102l146 688h-44l13 61h44l8 41h102l-8 -41h146z" />
    <glyph glyph-name="Itilde" unicode="&#x128;" horiz-adv-x="267" 
d="M76 0zM191 0h-115l167 790h115zM249 914q-25 0 -42.5 -10t-31.5 -26l15 73q14 11 33.5 18.5t40.5 7.5t39 -5t35 -10.5t35 -10.5t39 -5q46 0 77 36l-16 -72q-14 -13 -33.5 -21t-42.5 -8q-21 0 -39 5t-35 11.5t-35 11.5t-39 5z" />
    <glyph glyph-name="itilde" unicode="&#x129;" horiz-adv-x="262" 
d="M81 0zM206 723q-25 0 -42.5 -10t-31.5 -26l15 73q14 11 33.5 18.5t40.5 7.5t39 -5t35 -10.5t35 -10.5t39 -5q46 0 77 36l-16 -72q-14 -13 -33.5 -21t-42.5 -8q-21 0 -39 5t-35 11.5t-35 11.5t-39 5zM182 0h-101l127 599h101z" />
    <glyph glyph-name="Imacron" unicode="&#x12a;" horiz-adv-x="205" 
d="M46 0zM161 0h-115l167 790h115zM441 899h-292l13 61h292z" />
    <glyph glyph-name="imacron" unicode="&#x12b;" horiz-adv-x="264" 
d="M82 0zM429 708h-292l13 61h292zM183 0h-101l127 599h101z" />
    <glyph glyph-name="Ibreve" unicode="&#x12c;" horiz-adv-x="205" 
d="M46 0zM161 0h-115l167 790h115zM281 833q-54 0 -86.5 25.5t-32.5 82.5q0 13 2 26.5t5 28.5h64q-6 -29 -6 -49q0 -28 14.5 -41t52.5 -13q36 0 63.5 22t41.5 81h64q-19 -87 -68 -125t-114 -38z" />
    <glyph glyph-name="ibreve" unicode="&#x12d;" horiz-adv-x="261" 
d="M80 0zM267 642q-54 0 -86.5 25.5t-32.5 82.5q0 13 2 26.5t5 28.5h64q-6 -29 -6 -49q0 -28 14.5 -41t52.5 -13q36 0 63.5 22t41.5 81h64q-19 -87 -68 -125t-114 -38zM181 0h-101l127 599h101z" />
    <glyph glyph-name="Iogonek" unicode="&#x12e;" horiz-adv-x="205" 
d="M-9 -103q5 26 16.5 43t31.5 30l174 820h115l-167 -790q-38 -17 -58 -34.5t-20 -48.5q0 -21 33 -21h36l-17 -81h-78q-40 0 -55 15.5t-15 39.5q0 6 1 12.5t3 14.5z" />
    <glyph glyph-name="iogonek" unicode="&#x12f;" horiz-adv-x="192" 
d="M147 0q-38 -17 -58 -34.5t-20 -48.5q0 -21 33 -21h36l-17 -81h-78q-40 0 -55 15.5t-15 39.5q0 42 18 68t50 41l132 620h101zM292 686h-101l22 104h101z" />
    <glyph glyph-name="Idotaccent" unicode="&#x130;" horiz-adv-x="205" 
d="M46 0zM161 0h-115l167 790h115zM339 877h-101l22 104h101z" />
    <glyph glyph-name="dotlessi" unicode="&#x131;" horiz-adv-x="192" 
d="M147 0h-101l127 599h101z" />
    <glyph glyph-name="IJ" unicode="&#x132;" horiz-adv-x="577" 
d="M46 0zM161 0h-115l167 790h115zM291 340h105l-39 -183q-6 -24 -6 -38q0 -17 9 -22t30 -5q30 0 41.5 12.5t19.5 52.5l134 633h116l-134 -633q-12 -55 -25.5 -88t-35 -50.5t-54 -23t-82.5 -5.5q-35 0 -59.5 3t-40.5 11t-23 23.5t-7 40.5q0 32 12 89z" />
    <glyph glyph-name="ij" unicode="&#x133;" horiz-adv-x="384" 
d="M46 0zM292 686h-101l22 104h101zM147 0h-101l127 599h101zM367 599h102l-130 -609q-16 -72 -55.5 -107.5t-115.5 -35.5h-56l18 86h48q25 0 38.5 12.5t20.5 44.5zM487 686h-102l22 104h102z" />
    <glyph glyph-name="Kcommaaccent" unicode="&#x136;" horiz-adv-x="404" 
d="M44 0zM550 790l-187 -337l36 -453h-120l-26 415h-5l-88 -415h-116l167 789h116l-63 -298h5l155 299h126zM160 -20h102l-117 -165h-70z" />
    <glyph glyph-name="kcommaaccent" unicode="&#x137;" horiz-adv-x="364" 
d="M44 0zM246 0l-32 308h-4l-65 -308h-101l167 790h101l-87 -412h4l128 221h114l-160 -256l46 -343h-111zM141 -20h102l-117 -165h-70z" />
    <glyph glyph-name="Lacute" unicode="&#x139;" horiz-adv-x="289" 
d="M44 0zM277 0h-233l167 790h115l-146 -690h118zM324 996h113l-128 -166h-81z" />
    <glyph glyph-name="lacute" unicode="&#x13a;" horiz-adv-x="188" 
d="M44 0zM146 0h-102l167 790h102zM308 996h113l-128 -166h-81z" />
    <glyph glyph-name="Lcommaaccent" unicode="&#x13b;" horiz-adv-x="289" 
d="M18 0zM277 0h-233l167 790h115l-146 -690h118zM103 -20h102l-117 -165h-70z" />
    <glyph glyph-name="lcommaaccent" unicode="&#x13c;" horiz-adv-x="188" 
d="M0 0zM146 0h-102l167 790h102zM39 -20h102l-117 -165h-70z" />
    <glyph glyph-name="Lcaron" unicode="&#x13d;" horiz-adv-x="348" 
d="M44 0zM277 0h-233l167 790h115l-146 -690h118zM408 790h102l-117 -165h-70z" />
    <glyph glyph-name="lcaron" unicode="&#x13e;" horiz-adv-x="313" 
d="M44 0zM146 0h-102l167 790h102zM398 790h102l-117 -165h-70z" />
    <glyph glyph-name="Lslash" unicode="&#x141;" horiz-adv-x="288" 
d="M355 538l-91 -38l-85 -400h118l-21 -100h-232l96 454l-40 -15l19 91l40 15l52 245h114l-42 -199l91 38z" />
    <glyph glyph-name="lslash" unicode="&#x142;" horiz-adv-x="228" 
d="M337 527l-65 -26l-106 -501h-102l98 463l-65 -25l19 91l65 25l50 236h102l-42 -198l65 26z" />
    <glyph glyph-name="Nacute" unicode="&#x143;" horiz-adv-x="432" 
d="M44 0zM268 0l-17 493h-4l-104 -493h-99l167 790h125l9 -507h4l107 507h100l-167 -790h-121zM431 996h113l-128 -166h-81z" />
    <glyph glyph-name="nacute" unicode="&#x144;" horiz-adv-x="378" 
d="M44 0zM146 0h-102l127 599h95l-9 -40q16 22 41 33.5t63 11.5q46 0 66.5 -14t20.5 -51q0 -26 -7 -57l-102 -482h-102l100 471q1 5 1.5 8.5t0.5 7.5q0 25 -38 25q-20 0 -32 -8.5t-21 -22.5zM363 805h113l-128 -166h-81z" />
    <glyph glyph-name="Ncommaaccent" unicode="&#x145;" horiz-adv-x="432" 
d="M44 0zM268 0l-17 493h-4l-104 -493h-99l167 790h125l9 -507h4l107 507h100l-167 -790h-121zM155 -20h102l-117 -165h-70z" />
    <glyph glyph-name="ncommaaccent" unicode="&#x146;" horiz-adv-x="378" 
d="M44 0zM146 0h-102l127 599h95l-9 -40q16 22 41 33.5t63 11.5q46 0 66.5 -14t20.5 -51q0 -26 -7 -57l-102 -482h-102l100 471q1 5 1.5 8.5t0.5 7.5q0 25 -38 25q-20 0 -32 -8.5t-21 -22.5zM137 -20h102l-117 -165h-70z" />
    <glyph glyph-name="Ncaron" unicode="&#x147;" horiz-adv-x="432" 
d="M44 0zM268 0l-17 493h-4l-104 -493h-99l167 790h125l9 -507h4l107 507h100l-167 -790h-121zM282 996h69l49 -109l97 109h75l-138 -166h-86z" />
    <glyph glyph-name="ncaron" unicode="&#x148;" horiz-adv-x="378" 
d="M44 0zM146 0h-102l127 599h95l-9 -40q16 22 41 33.5t63 11.5q46 0 66.5 -14t20.5 -51q0 -26 -7 -57l-102 -482h-102l100 471q1 5 1.5 8.5t0.5 7.5q0 25 -38 25q-20 0 -32 -8.5t-21 -22.5zM215 805h69l49 -109l97 109h75l-138 -166h-86z" />
    <glyph glyph-name="Eng" unicode="&#x14a;" horiz-adv-x="432" 
d="M386 -10q-16 -72 -55.5 -107.5t-116.5 -35.5h-56l18 86h48q21 0 34.5 8.5t21.5 28.5l-29 523h-4l-104 -493h-99l167 790h134v-507h4l107 507h100z" />
    <glyph glyph-name="eng" unicode="&#x14b;" horiz-adv-x="378" 
d="M337 471q1 5 1.5 8.5t0.5 7.5q0 25 -38 25q-20 0 -32 -8.5t-21 -22.5l-102 -481h-102l127 599h95l-9 -40q16 22 41 33.5t63 11.5q46 0 66.5 -14t20.5 -51q0 -26 -7 -57l-105 -492q-16 -72 -55.5 -107.5t-116.5 -35.5h-56l18 86h48q26 0 39.5 12.5t20.5 44.5z" />
    <glyph glyph-name="Omacron" unicode="&#x14c;" 
d="M57 0zM398 157q-12 -55 -25.5 -88t-35.5 -50.5t-55.5 -23t-84.5 -5.5q-38 0 -65 3t-43.5 11t-24 23.5t-7.5 40.5q0 33 12 89l101 477q12 55 25.5 87.5t35 50t55 23t84.5 5.5q38 0 65 -3t44 -11t24.5 -24t7.5 -41q0 -33 -12 -87zM383 634q2 12 4 21t2 16q0 17 -9.5 21.5
t-31.5 4.5q-16 0 -26 -2.5t-17 -9.5t-11.5 -19.5t-8.5 -31.5l-101 -477q-6 -26 -6 -38q0 -17 9 -22t32 -5q16 0 26.5 2.5t17 10t11 20t8.5 32.5zM536 899h-292l13 61h292z" />
    <glyph glyph-name="omacron" unicode="&#x14d;" horiz-adv-x="358" 
d="M52 0zM346 117q-9 -42 -20 -67t-30 -38.5t-47.5 -17.5t-72.5 -4q-68 0 -96 11.5t-28 52.5q0 13 1.5 28t6.5 35l78 365q9 42 20 67t29.5 38.5t47.5 17.5t73 4q67 0 95.5 -11.5t28.5 -52.5q0 -13 -2 -28t-6 -35zM323 471q3 12 3 21q0 13 -8.5 17t-29.5 4q-28 0 -38 -8.5
t-15 -33.5l-74 -344q-3 -14 -3 -21q0 -14 8.5 -18t29.5 -4q29 0 38.5 9.5t14.5 33.5zM475 708h-292l13 61h292z" />
    <glyph glyph-name="Obreve" unicode="&#x14e;" 
d="M57 0zM398 157q-12 -55 -25.5 -88t-35.5 -50.5t-55.5 -23t-84.5 -5.5q-38 0 -65 3t-43.5 11t-24 23.5t-7.5 40.5q0 33 12 89l101 477q12 55 25.5 87.5t35 50t55 23t84.5 5.5q38 0 65 -3t44 -11t24.5 -24t7.5 -41q0 -33 -12 -87zM383 634q2 12 4 21t2 16q0 17 -9.5 21.5
t-31.5 4.5q-16 0 -26 -2.5t-17 -9.5t-11.5 -19.5t-8.5 -31.5l-101 -477q-6 -26 -6 -38q0 -17 9 -22t32 -5q16 0 26.5 2.5t17 10t11 20t8.5 32.5zM376 833q-54 0 -86.5 25.5t-32.5 82.5q0 13 2 26.5t5 28.5h64q-6 -29 -6 -49q0 -28 14.5 -41t52.5 -13q36 0 63.5 22t41.5 81
h64q-19 -87 -68 -125t-114 -38z" />
    <glyph glyph-name="obreve" unicode="&#x14f;" horiz-adv-x="358" 
d="M52 0zM346 117q-9 -42 -20 -67t-30 -38.5t-47.5 -17.5t-72.5 -4q-68 0 -96 11.5t-28 52.5q0 13 1.5 28t6.5 35l78 365q9 42 20 67t29.5 38.5t47.5 17.5t73 4q67 0 95.5 -11.5t28.5 -52.5q0 -13 -2 -28t-6 -35zM323 471q3 12 3 21q0 13 -8.5 17t-29.5 4q-28 0 -38 -8.5
t-15 -33.5l-74 -344q-3 -14 -3 -21q0 -14 8.5 -18t29.5 -4q29 0 38.5 9.5t14.5 33.5zM315 642q-54 0 -86.5 25.5t-32.5 82.5q0 13 2 26.5t5 28.5h64q-6 -29 -6 -49q0 -28 14.5 -41t52.5 -13q36 0 63.5 22t41.5 81h64q-19 -87 -68 -125t-114 -38z" />
    <glyph glyph-name="Ohungarumlaut" unicode="&#x150;" 
d="M57 0zM398 157q-12 -55 -25.5 -88t-35.5 -50.5t-55.5 -23t-84.5 -5.5q-38 0 -65 3t-43.5 11t-24 23.5t-7.5 40.5q0 33 12 89l101 477q12 55 25.5 87.5t35 50t55 23t84.5 5.5q38 0 65 -3t44 -11t24.5 -24t7.5 -41q0 -33 -12 -87zM383 634q2 12 4 21t2 16q0 17 -9.5 21.5
t-31.5 4.5q-16 0 -26 -2.5t-17 -9.5t-11.5 -19.5t-8.5 -31.5l-101 -477q-6 -26 -6 -38q0 -17 9 -22t32 -5q16 0 26.5 2.5t17 10t11 20t8.5 32.5zM514 996h113l-130 -166h-80zM334 996h113l-128 -166h-81z" />
    <glyph glyph-name="ohungarumlaut" unicode="&#x151;" horiz-adv-x="358" 
d="M52 0zM346 117q-9 -42 -20 -67t-30 -38.5t-47.5 -17.5t-72.5 -4q-68 0 -96 11.5t-28 52.5q0 13 1.5 28t6.5 35l78 365q9 42 20 67t29.5 38.5t47.5 17.5t73 4q67 0 95.5 -11.5t28.5 -52.5q0 -13 -2 -28t-6 -35zM323 471q3 12 3 21q0 13 -8.5 17t-29.5 4q-28 0 -38 -8.5
t-15 -33.5l-74 -344q-3 -14 -3 -21q0 -14 8.5 -18t29.5 -4q29 0 38.5 9.5t14.5 33.5zM453 805h113l-130 -166h-80zM273 805h113l-128 -166h-81z" />
    <glyph glyph-name="OE" unicode="&#x152;" horiz-adv-x="504" 
d="M459 0h-259q-39 0 -66 3t-44 11.5t-24.5 23.5t-7.5 40q0 17 3.5 37.5t8.5 46.5l99 467q11 53 24.5 84.5t35 48.5t54.5 22.5t84 5.5h259l-20 -96h-110l-24 -114h106l-20 -92h-106l-83 -390h110zM185 162q-5 -25 -5 -36q0 -17 9 -22t32 -5h37l125 591h-37q-16 0 -26 -2
t-16.5 -9t-11 -19t-8.5 -31z" />
    <glyph glyph-name="oe" unicode="&#x153;" horiz-adv-x="537" 
d="M378 264l-31 -144q-3 -14 -3 -21q0 -14 9 -18t29 -4q26 0 36.5 8.5t16.5 37.5l17 81h92l-19 -87q-9 -42 -20 -67t-28.5 -38.5t-44.5 -17.5t-69 -4q-71 0 -88 30q-15 -14 -39 -22t-60 -8q-68 0 -96 11.5t-28 52.5q0 13 1.5 28t6.5 35l78 365q9 42 20 67t29.5 38.5
t47.5 17.5t73 4q37 0 57.5 -9t28.5 -23q14 14 37.5 23t63.5 9q63 0 90 -11t27 -51q0 -25 -9 -65l-46 -218h-179zM395 345h87l27 129q3 15 3 23q0 14 -8 18t-28 4q-26 0 -37 -8.5t-16 -33.5zM323 471q3 12 3 21q0 13 -8.5 17t-29.5 4q-28 0 -38 -8.5t-15 -33.5l-74 -344
q-3 -14 -3 -21q0 -14 8.5 -18t29.5 -4q29 0 38.5 9.5t14.5 33.5z" />
    <glyph glyph-name="Racute" unicode="&#x154;" horiz-adv-x="409" 
d="M44 0zM159 0h-115l167 790h164q39 0 66 -3t44 -11.5t24.5 -24t7.5 -40.5q0 -29 -11 -82l-17 -83q-6 -31 -17.5 -50.5t-24.5 -31.5t-26.5 -17.5t-25.5 -8.5l-1 -4q23 -6 37 -19.5t14 -47.5q0 -21 -6 -52l-66 -315h-116l70 333q2 9 3 16.5t1 13.5q0 15 -8.5 21t-29.5 6h-52
zM261 481h52q28 0 39.5 11t17.5 40l20 97q5 25 5 35q0 15 -9 20.5t-32 5.5h-49zM409 996h113l-128 -166h-81z" />
    <glyph glyph-name="racute" unicode="&#x155;" horiz-adv-x="337" 
d="M44 0zM146 0h-102l127 599h95l-9 -40q15 20 40.5 32.5t62.5 12.5q39 0 57 -13.5t18 -48.5q0 -22 -8 -60l-32 -149h-92l29 137q2 5 2 10v9q0 13 -7.5 18t-27.5 5q-33 0 -52 -33zM363 805h113l-128 -166h-81z" />
    <glyph glyph-name="Rcommaaccent" unicode="&#x156;" horiz-adv-x="409" 
d="M44 0zM159 0h-115l167 790h164q39 0 66 -3t44 -11.5t24.5 -24t7.5 -40.5q0 -29 -11 -82l-17 -83q-6 -31 -17.5 -50.5t-24.5 -31.5t-26.5 -17.5t-25.5 -8.5l-1 -4q23 -6 37 -19.5t14 -47.5q0 -21 -6 -52l-66 -315h-116l70 333q2 9 3 16.5t1 13.5q0 15 -8.5 21t-29.5 6h-52
zM261 481h52q28 0 39.5 11t17.5 40l20 97q5 25 5 35q0 15 -9 20.5t-32 5.5h-49zM151 -20h102l-117 -165h-70z" />
    <glyph glyph-name="rcommaaccent" unicode="&#x157;" horiz-adv-x="337" 
d="M0 0zM146 0h-102l127 599h95l-9 -40q15 20 40.5 32.5t62.5 12.5q39 0 57 -13.5t18 -48.5q0 -22 -8 -60l-32 -149h-92l29 137q2 5 2 10v9q0 13 -7.5 18t-27.5 5q-33 0 -52 -33zM37 -20h102l-117 -165h-70z" />
    <glyph glyph-name="Rcaron" unicode="&#x158;" horiz-adv-x="409" 
d="M44 0zM159 0h-115l167 790h164q39 0 66 -3t44 -11.5t24.5 -24t7.5 -40.5q0 -29 -11 -82l-17 -83q-6 -31 -17.5 -50.5t-24.5 -31.5t-26.5 -17.5t-25.5 -8.5l-1 -4q23 -6 37 -19.5t14 -47.5q0 -21 -6 -52l-66 -315h-116l70 333q2 9 3 16.5t1 13.5q0 15 -8.5 21t-29.5 6h-52
zM261 481h52q28 0 39.5 11t17.5 40l20 97q5 25 5 35q0 15 -9 20.5t-32 5.5h-49zM261 996h69l49 -109l97 109h75l-138 -166h-86z" />
    <glyph glyph-name="rcaron" unicode="&#x159;" horiz-adv-x="337" 
d="M44 0zM146 0h-102l127 599h95l-9 -40q15 20 40.5 32.5t62.5 12.5q39 0 57 -13.5t18 -48.5q0 -22 -8 -60l-32 -149h-92l29 137q2 5 2 10v9q0 13 -7.5 18t-27.5 5q-33 0 -52 -33zM214 805h69l49 -109l97 109h75l-138 -166h-86z" />
    <glyph glyph-name="Sacute" unicode="&#x15a;" horiz-adv-x="395" 
d="M59 0zM360 534l21 98q6 25 6 40q0 16 -9 20.5t-32 4.5q-17 0 -27 -2.5t-16.5 -9t-11 -19.5t-8.5 -34l-17 -78q-3 -15 -3 -25q0 -16 11 -26t40 -27q34 -20 56.5 -35t36 -29t19.5 -28.5t6 -32.5q0 -27 -9 -67l-27 -127q-12 -55 -25.5 -88t-35.5 -50.5t-55.5 -23t-84.5 -5.5
q-36 0 -62 3t-42.5 11.5t-24 24t-7.5 41.5q0 33 12 87l33 157h112l-33 -157q-6 -26 -6 -39q0 -16 9 -21t31 -5q16 0 26 2.5t17 9.5t11 19.5t9 33.5l25 119l3.5 21t1.5 17q0 17 -10 28.5t-39 28.5q-34 19 -57 34.5t-36.5 30t-19 29t-5.5 31.5q0 13 2.5 27.5t6.5 32.5l16 76
q12 55 25 88t35 51t55.5 23.5t84.5 5.5q37 0 63 -3t42.5 -11.5t24 -24t7.5 -40.5q0 -34 -12 -89l-21 -98h-112zM412 996h113l-128 -166h-81z" />
    <glyph glyph-name="sacute" unicode="&#x15b;" horiz-adv-x="354" 
d="M50 0zM311 426l10 45q3 13 3 22q0 12 -8.5 16.5t-28.5 4.5q-30 0 -38.5 -8.5t-14.5 -34.5l-11 -48q-3 -12 -3 -20q0 -13 8.5 -21.5t32.5 -19.5q33 -15 54.5 -27t34 -23t18 -22.5t5.5 -25.5q0 -13 -5 -35l-23 -111q-9 -42 -20 -67.5t-29.5 -39t-47.5 -17.5t-73 -4
q-68 0 -96.5 11.5t-28.5 52.5q0 25 9 64l19 92h100l-17 -81q-3 -14 -3 -22q0 -14 8.5 -18t29.5 -4q28 0 37.5 9t14.5 35l15 73q3 12 3 21q0 14 -11 23t-40 22q-28 12 -47 22t-31 20.5t-17.5 23t-5.5 29.5q0 18 6 45l16 73q9 42 20 67.5t29.5 39t47.5 17.5t74 4
q67 0 95.5 -11.5t28.5 -52.5q0 -25 -9 -64l-12 -55h-99zM351 805h113l-128 -166h-81z" />
    <glyph glyph-name="Scedilla" unicode="&#x15e;" horiz-adv-x="395" 
d="M57 0zM360 534l21 98q6 25 6 40q0 16 -9 20.5t-32 4.5q-17 0 -27 -2.5t-16.5 -9t-11 -19.5t-8.5 -34l-17 -78q-3 -15 -3 -25q0 -16 11 -26t40 -27q34 -20 56.5 -35t36 -29t19.5 -28.5t6 -32.5q0 -27 -9 -67l-27 -127q-12 -55 -25.5 -88t-35.5 -50.5t-55.5 -23t-84.5 -5.5
q-36 0 -62 3t-42.5 11.5t-24 24t-7.5 41.5q0 33 12 87l33 157h112l-33 -157q-6 -26 -6 -39q0 -16 9 -21t31 -5q16 0 26 2.5t17 9.5t11 19.5t9 33.5l25 119l3.5 21t1.5 17q0 17 -10 28.5t-39 28.5q-34 19 -57 34.5t-36.5 30t-19 29t-5.5 31.5q0 13 2.5 27.5t6.5 32.5l16 76
q12 55 25 88t35 51t55.5 23.5t84.5 5.5q37 0 63 -3t42.5 -11.5t24 -24t7.5 -40.5q0 -34 -12 -89l-21 -98h-112zM142 -20h102l-117 -165h-70z" />
    <glyph glyph-name="Scedilla" unicode="&#x218;" horiz-adv-x="395" 
d="M57 0zM360 534l21 98q6 25 6 40q0 16 -9 20.5t-32 4.5q-17 0 -27 -2.5t-16.5 -9t-11 -19.5t-8.5 -34l-17 -78q-3 -15 -3 -25q0 -16 11 -26t40 -27q34 -20 56.5 -35t36 -29t19.5 -28.5t6 -32.5q0 -27 -9 -67l-27 -127q-12 -55 -25.5 -88t-35.5 -50.5t-55.5 -23t-84.5 -5.5
q-36 0 -62 3t-42.5 11.5t-24 24t-7.5 41.5q0 33 12 87l33 157h112l-33 -157q-6 -26 -6 -39q0 -16 9 -21t31 -5q16 0 26 2.5t17 9.5t11 19.5t9 33.5l25 119l3.5 21t1.5 17q0 17 -10 28.5t-39 28.5q-34 19 -57 34.5t-36.5 30t-19 29t-5.5 31.5q0 13 2.5 27.5t6.5 32.5l16 76
q12 55 25 88t35 51t55.5 23.5t84.5 5.5q37 0 63 -3t42.5 -11.5t24 -24t7.5 -40.5q0 -34 -12 -89l-21 -98h-112zM142 -20h102l-117 -165h-70z" />
    <glyph glyph-name="scedilla" unicode="&#x15f;" horiz-adv-x="354" 
d="M32 0zM311 426l10 45q3 13 3 22q0 12 -8.5 16.5t-28.5 4.5q-30 0 -38.5 -8.5t-14.5 -34.5l-11 -48q-3 -12 -3 -20q0 -13 8.5 -21.5t32.5 -19.5q33 -15 54.5 -27t34 -23t18 -22.5t5.5 -25.5q0 -13 -5 -35l-23 -111q-9 -42 -20 -67.5t-29.5 -39t-47.5 -17.5t-73 -4
q-68 0 -96.5 11.5t-28.5 52.5q0 25 9 64l19 92h100l-17 -81q-3 -14 -3 -22q0 -14 8.5 -18t29.5 -4q28 0 37.5 9t14.5 35l15 73q3 12 3 21q0 14 -11 23t-40 22q-28 12 -47 22t-31 20.5t-17.5 23t-5.5 29.5q0 18 6 45l16 73q9 42 20 67.5t29.5 39t47.5 17.5t74 4
q67 0 95.5 -11.5t28.5 -52.5q0 -25 -9 -64l-12 -55h-99zM117 -20h102l-117 -165h-70z" />
    <glyph glyph-name="scedilla" unicode="&#x219;" horiz-adv-x="354" 
d="M32 0zM311 426l10 45q3 13 3 22q0 12 -8.5 16.5t-28.5 4.5q-30 0 -38.5 -8.5t-14.5 -34.5l-11 -48q-3 -12 -3 -20q0 -13 8.5 -21.5t32.5 -19.5q33 -15 54.5 -27t34 -23t18 -22.5t5.5 -25.5q0 -13 -5 -35l-23 -111q-9 -42 -20 -67.5t-29.5 -39t-47.5 -17.5t-73 -4
q-68 0 -96.5 11.5t-28.5 52.5q0 25 9 64l19 92h100l-17 -81q-3 -14 -3 -22q0 -14 8.5 -18t29.5 -4q28 0 37.5 9t14.5 35l15 73q3 12 3 21q0 14 -11 23t-40 22q-28 12 -47 22t-31 20.5t-17.5 23t-5.5 29.5q0 18 6 45l16 73q9 42 20 67.5t29.5 39t47.5 17.5t74 4
q67 0 95.5 -11.5t28.5 -52.5q0 -25 -9 -64l-12 -55h-99zM117 -20h102l-117 -165h-70z" />
    <glyph glyph-name="Scaron" unicode="&#x160;" horiz-adv-x="395" 
d="M59 0zM360 534l21 98q6 25 6 40q0 16 -9 20.5t-32 4.5q-17 0 -27 -2.5t-16.5 -9t-11 -19.5t-8.5 -34l-17 -78q-3 -15 -3 -25q0 -16 11 -26t40 -27q34 -20 56.5 -35t36 -29t19.5 -28.5t6 -32.5q0 -27 -9 -67l-27 -127q-12 -55 -25.5 -88t-35.5 -50.5t-55.5 -23t-84.5 -5.5
q-36 0 -62 3t-42.5 11.5t-24 24t-7.5 41.5q0 33 12 87l33 157h112l-33 -157q-6 -26 -6 -39q0 -16 9 -21t31 -5q16 0 26 2.5t17 9.5t11 19.5t9 33.5l25 119l3.5 21t1.5 17q0 17 -10 28.5t-39 28.5q-34 19 -57 34.5t-36.5 30t-19 29t-5.5 31.5q0 13 2.5 27.5t6.5 32.5l16 76
q12 55 25 88t35 51t55.5 23.5t84.5 5.5q37 0 63 -3t42.5 -11.5t24 -24t7.5 -40.5q0 -34 -12 -89l-21 -98h-112zM264 996h69l49 -109l97 109h75l-138 -166h-86z" />
    <glyph glyph-name="scaron" unicode="&#x161;" horiz-adv-x="354" 
d="M50 0zM311 426l10 45q3 13 3 22q0 12 -8.5 16.5t-28.5 4.5q-30 0 -38.5 -8.5t-14.5 -34.5l-11 -48q-3 -12 -3 -20q0 -13 8.5 -21.5t32.5 -19.5q33 -15 54.5 -27t34 -23t18 -22.5t5.5 -25.5q0 -13 -5 -35l-23 -111q-9 -42 -20 -67.5t-29.5 -39t-47.5 -17.5t-73 -4
q-68 0 -96.5 11.5t-28.5 52.5q0 25 9 64l19 92h100l-17 -81q-3 -14 -3 -22q0 -14 8.5 -18t29.5 -4q28 0 37.5 9t14.5 35l15 73q3 12 3 21q0 14 -11 23t-40 22q-28 12 -47 22t-31 20.5t-17.5 23t-5.5 29.5q0 18 6 45l16 73q9 42 20 67.5t29.5 39t47.5 17.5t74 4
q67 0 95.5 -11.5t28.5 -52.5q0 -25 -9 -64l-12 -55h-99zM203 805h69l49 -109l97 109h75l-138 -166h-86z" />
    <glyph glyph-name="Tcaron" unicode="&#x164;" horiz-adv-x="311" 
d="M99 0zM447 694h-86l-147 -694h-115l147 694h-87l20 96h288zM222 996h69l49 -109l97 109h75l-138 -166h-86z" />
    <glyph glyph-name="tcaron" unicode="&#x165;" horiz-adv-x="329" 
d="M67 0zM327 516h-70l-80 -376q-3 -15 -3 -24q0 -17 9.5 -23t32.5 -6h19l-18 -87h-26q-68 0 -96 20t-28 63q0 10 1 21t4 23l83 389h-37l18 83h37l39 182h102l-39 -182h70zM391 790h102l-117 -165h-70z" />
    <glyph glyph-name="Tbar" unicode="&#x166;" horiz-adv-x="311" 
d="M362 468h-49l-99 -468h-115l99 468h-49l19 90h49l29 136h-87l20 96h288l-20 -96h-86l-29 -136h49z" />
    <glyph glyph-name="tbar" unicode="&#x167;" horiz-adv-x="240" 
d="M274 288h-65l-32 -148q-3 -15 -3 -24q0 -17 9.5 -23t32.5 -6h19l-18 -87h-26q-68 0 -96 20t-28 63q0 10 1 21t4 23l35 161h-31l19 90h31l29 138h-37l18 83h37l39 182h102l-39 -182h70l-18 -83h-70l-29 -138h65z" />
    <glyph glyph-name="Utilde" unicode="&#x168;" horiz-adv-x="403" 
d="M61 0zM200 -10q-38 0 -64 3t-43 11.5t-24.5 24t-7.5 41.5q0 33 12 87l134 633h115l-134 -633q-6 -24 -6 -37q0 -17 9.5 -22t32.5 -5q15 0 25 2.5t16.5 9t11 19t9.5 33.5l134 633h112l-134 -633q-12 -55 -25.5 -88t-35.5 -50.5t-55 -23t-82 -5.5zM316 914q-25 0 -42.5 -10
t-31.5 -26l15 73q14 11 33.5 18.5t40.5 7.5t39 -5t35 -10.5t35 -10.5t39 -5q46 0 77 36l-16 -72q-14 -13 -33.5 -21t-42.5 -8q-21 0 -39 5t-35 11.5t-35 11.5t-39 5z" />
    <glyph glyph-name="utilde" unicode="&#x169;" horiz-adv-x="376" 
d="M56 0zM357 599h103l-127 -599h-96l8 39q-16 -22 -40.5 -33t-61.5 -11q-46 0 -66.5 13.5t-20.5 50.5q0 12 2 26.5t6 31.5l103 482h102l-101 -472q-1 -5 -1.5 -9t-0.5 -8q0 -13 8 -18.5t28 -5.5t31.5 8.5t20.5 22.5zM263 723q-25 0 -42.5 -10t-31.5 -26l15 73
q14 11 33.5 18.5t40.5 7.5t39 -5t35 -10.5t35 -10.5t39 -5q46 0 77 36l-16 -72q-14 -13 -33.5 -21t-42.5 -8q-21 0 -39 5t-35 11.5t-35 11.5t-39 5z" />
    <glyph glyph-name="Umacron" unicode="&#x16a;" horiz-adv-x="403" 
d="M61 0zM200 -10q-38 0 -64 3t-43 11.5t-24.5 24t-7.5 41.5q0 33 12 87l134 633h115l-134 -633q-6 -24 -6 -37q0 -17 9.5 -22t32.5 -5q15 0 25 2.5t16.5 9t11 19t9.5 33.5l134 633h112l-134 -633q-12 -55 -25.5 -88t-35.5 -50.5t-55 -23t-82 -5.5zM538 899h-292l13 61h292z
" />
    <glyph glyph-name="umacron" unicode="&#x16b;" horiz-adv-x="376" 
d="M56 0zM357 599h103l-127 -599h-96l8 39q-16 -22 -40.5 -33t-61.5 -11q-46 0 -66.5 13.5t-20.5 50.5q0 12 2 26.5t6 31.5l103 482h102l-101 -472q-1 -5 -1.5 -9t-0.5 -8q0 -13 8 -18.5t28 -5.5t31.5 8.5t20.5 22.5zM485 708h-292l13 61h292z" />
    <glyph glyph-name="Ubreve" unicode="&#x16c;" horiz-adv-x="403" 
d="M61 0zM200 -10q-38 0 -64 3t-43 11.5t-24.5 24t-7.5 41.5q0 33 12 87l134 633h115l-134 -633q-6 -24 -6 -37q0 -17 9.5 -22t32.5 -5q15 0 25 2.5t16.5 9t11 19t9.5 33.5l134 633h112l-134 -633q-12 -55 -25.5 -88t-35.5 -50.5t-55 -23t-82 -5.5zM378 833
q-54 0 -86.5 25.5t-32.5 82.5q0 13 2 26.5t5 28.5h64q-6 -29 -6 -49q0 -28 14.5 -41t52.5 -13q36 0 63.5 22t41.5 81h64q-19 -87 -68 -125t-114 -38z" />
    <glyph glyph-name="ubreve" unicode="&#x16d;" horiz-adv-x="376" 
d="M56 0zM357 599h103l-127 -599h-96l8 39q-16 -22 -40.5 -33t-61.5 -11q-46 0 -66.5 13.5t-20.5 50.5q0 12 2 26.5t6 31.5l103 482h102l-101 -472q-1 -5 -1.5 -9t-0.5 -8q0 -13 8 -18.5t28 -5.5t31.5 8.5t20.5 22.5zM325 642q-54 0 -86.5 25.5t-32.5 82.5q0 13 2 26.5
t5 28.5h64q-6 -29 -6 -49q0 -28 14.5 -41t52.5 -13q36 0 63.5 22t41.5 81h64q-19 -87 -68 -125t-114 -38z" />
    <glyph glyph-name="Uring" unicode="&#x16e;" horiz-adv-x="403" 
d="M61 0zM200 -10q-38 0 -64 3t-43 11.5t-24.5 24t-7.5 41.5q0 33 12 87l134 633h115l-134 -633q-6 -24 -6 -37q0 -17 9.5 -22t32.5 -5q15 0 25 2.5t16.5 9t11 19t9.5 33.5l134 633h112l-134 -633q-12 -55 -25.5 -88t-35.5 -50.5t-55 -23t-82 -5.5zM470 888
q-5 -23 -11.5 -36t-17 -20.5t-27 -9.5t-41.5 -2q-38 0 -54.5 6t-16.5 29q0 7 1.5 14.5t3.5 18.5l8 40q4 22 10.5 35.5t17.5 21t27.5 9.5t40.5 2q39 0 55 -6t16 -29q0 -14 -4 -33zM435 924q2 10 2 13q0 11 -8 13.5t-28 2.5q-23 0 -32 -4.5t-13 -24.5l-6 -32q-1 -5 -1.5 -8
t-0.5 -6q0 -10 7.5 -12.5t26.5 -2.5q24 0 33.5 4.5t13.5 24.5z" />
    <glyph glyph-name="uring" unicode="&#x16f;" horiz-adv-x="376" 
d="M56 0zM357 599h103l-127 -599h-96l8 39q-16 -22 -40.5 -33t-61.5 -11q-46 0 -66.5 13.5t-20.5 50.5q0 12 2 26.5t6 31.5l103 482h102l-101 -472q-1 -5 -1.5 -9t-0.5 -8q0 -13 8 -18.5t28 -5.5t31.5 8.5t20.5 22.5zM417 697q-5 -23 -11.5 -36t-17 -20.5t-27 -9.5t-41.5 -2
q-38 0 -54.5 6t-16.5 29q0 7 1.5 14.5t3.5 18.5l8 40q4 22 10.5 35.5t17.5 21t27.5 9.5t40.5 2q39 0 55 -6t16 -29q0 -14 -4 -33zM382 733q2 10 2 13q0 11 -8 13.5t-28 2.5q-23 0 -32 -4.5t-13 -24.5l-6 -32q-1 -5 -1.5 -8t-0.5 -6q0 -10 7.5 -12.5t26.5 -2.5q24 0 33.5 4.5
t13.5 24.5z" />
    <glyph glyph-name="Uhungarumlaut" unicode="&#x170;" horiz-adv-x="403" 
d="M61 0zM200 -10q-38 0 -64 3t-43 11.5t-24.5 24t-7.5 41.5q0 33 12 87l134 633h115l-134 -633q-6 -24 -6 -37q0 -17 9.5 -22t32.5 -5q15 0 25 2.5t16.5 9t11 19t9.5 33.5l134 633h112l-134 -633q-12 -55 -25.5 -88t-35.5 -50.5t-55 -23t-82 -5.5zM517 996h113l-130 -166
h-80zM337 996h113l-128 -166h-81z" />
    <glyph glyph-name="uhungarumlaut" unicode="&#x171;" horiz-adv-x="376" 
d="M56 0zM357 599h103l-127 -599h-96l8 39q-16 -22 -40.5 -33t-61.5 -11q-46 0 -66.5 13.5t-20.5 50.5q0 12 2 26.5t6 31.5l103 482h102l-101 -472q-1 -5 -1.5 -9t-0.5 -8q0 -13 8 -18.5t28 -5.5t31.5 8.5t20.5 22.5zM461 805h113l-130 -166h-80zM281 805h113l-128 -166h-81
z" />
    <glyph glyph-name="Uogonek" unicode="&#x172;" horiz-adv-x="403" 
d="M200 -10q-38 0 -64 3t-43 11.5t-24.5 24t-7.5 41.5q0 33 12 87l134 633h115l-134 -633q-6 -24 -6 -37q0 -17 9.5 -22t32.5 -5q15 0 25 2.5t16.5 9t11 19t9.5 33.5l134 633h112l-134 -633q-8 -38 -17 -64.5t-20.5 -44.5t-26.5 -29.5t-35 -18.5q-76 -25 -76 -83
q0 -21 33 -21h36l-17 -81h-78q-41 0 -56 15.5t-15 39.5q0 49 24.5 76t70.5 44h-21v0z" />
    <glyph glyph-name="uogonek" unicode="&#x173;" horiz-adv-x="376" 
d="M357 599h103l-127 -599q-38 -17 -58 -34.5t-20 -48.5q0 -21 33 -21h36l-17 -81h-78q-41 0 -56 15.5t-15 39.5q0 42 20 68.5t55 43.5l12 57q-16 -22 -40.5 -33t-61.5 -11q-46 0 -66.5 13.5t-20.5 50.5q0 12 2 26.5t6 31.5l103 482h102l-101 -472q-1 -5 -1.5 -9t-0.5 -8
q0 -13 8 -18.5t28 -5.5t31.5 8.5t20.5 22.5z" />
    <glyph glyph-name="Wcircumflex" unicode="&#x174;" horiz-adv-x="574" 
d="M82 0zM289 790l-99 -621h4l185 621h147l-87 -621h4l175 621h118l-259 -790h-146l90 627h-4l-187 -627h-148l94 790h113zM607 830h-70l-50 109l-96 -109h-74l138 166h87z" />
    <glyph glyph-name="wcircumflex" unicode="&#x175;" horiz-adv-x="532" 
d="M74 0zM239 599l-65 -448h4l147 448h133l-50 -448h4l133 448h111l-210 -599h-138l57 455h-4l-148 -455h-139l58 599h107zM546 639h-70l-50 109l-96 -109h-74l138 166h87z" />
    <glyph glyph-name="Ycircumflex" unicode="&#x176;" horiz-adv-x="352" 
d="M117 0zM517 790l-226 -511l-59 -279h-115l59 279l-6 511h112l-17 -357h4l134 357h114zM496 830h-70l-50 109l-96 -109h-74l138 166h87z" />
    <glyph glyph-name="ycircumflex" unicode="&#x177;" horiz-adv-x="378" 
d="M28 0zM360 599h102l-130 -609q-16 -73 -55 -108t-115 -35h-134l18 86h109q35 0 50 11.5t23 45.5l17 77q-16 -20 -39.5 -30.5t-57.5 -10.5q-45 0 -65 13.5t-20 50.5q0 21 8 58l96 451h102l-92 -432q-3 -14 -3 -23q0 -16 9 -21.5t29 -5.5q17 0 29.5 8.5t22.5 22.5zM469 639
h-70l-50 109l-96 -109h-74l138 166h87z" />
    <glyph glyph-name="Ydieresis" unicode="&#x178;" horiz-adv-x="352" 
d="M117 0zM517 790l-226 -511l-59 -279h-115l59 279l-6 511h112l-17 -357h4l134 357h114zM503 877h-102l22 104h102zM322 877h-101l22 104h101z" />
    <glyph glyph-name="Ydieresis" unicode="&#x3ab;" horiz-adv-x="352" 
d="M117 0zM517 790l-226 -511l-59 -279h-115l59 279l-6 511h112l-17 -357h4l134 357h114zM503 877h-102l22 104h102zM322 877h-101l22 104h101z" />
    <glyph glyph-name="Zacute" unicode="&#x179;" horiz-adv-x="313" 
d="M18 0zM295 0h-277l21 100l282 594h-140l20 96h259l-16 -78l-282 -613h154zM381 996h113l-128 -166h-81z" />
    <glyph glyph-name="zacute" unicode="&#x17a;" horiz-adv-x="299" 
d="M15 0zM284 0h-269l18 87l253 429h-144l18 83h248l-17 -77l-249 -436h160zM334 805h113l-128 -166h-81z" />
    <glyph glyph-name="Zdotaccent" unicode="&#x17b;" horiz-adv-x="313" 
d="M18 0zM295 0h-277l21 100l282 594h-140l20 96h259l-16 -78l-282 -613h154zM402 877h-101l22 104h101z" />
    <glyph glyph-name="zdotaccent" unicode="&#x17c;" horiz-adv-x="299" 
d="M15 0zM284 0h-269l18 87l253 429h-144l18 83h248l-17 -77l-249 -436h160zM356 686h-101l22 104h101z" />
    <glyph glyph-name="Zcaron" unicode="&#x17d;" horiz-adv-x="313" 
d="M18 0zM295 0h-277l21 100l282 594h-140l20 96h259l-16 -78l-282 -613h154zM233 996h69l49 -109l97 109h75l-138 -166h-86z" />
    <glyph glyph-name="zcaron" unicode="&#x17e;" horiz-adv-x="299" 
d="M15 0zM284 0h-269l18 87l253 429h-144l18 83h248l-17 -77l-249 -436h160zM187 805h69l49 -109l97 109h75l-138 -166h-86z" />
    <glyph glyph-name="uni018E" unicode="&#x18e;" horiz-adv-x="293" 
d="M191 790h224l-167 -790h-223l19 91h112l25 120h-109l19 89h109l84 394h-113z" />
    <glyph glyph-name="uni018F" unicode="&#x18f;" 
d="M145 503l28 131q12 55 25.5 88t35 50t53 22.5t78.5 5.5q76 0 108.5 -15t32.5 -65q0 -32 -12 -86l-101 -477q-12 -55 -25.5 -88t-35.5 -50.5t-55 -23t-83 -5.5q-36 0 -61.5 3t-42 11t-24 23.5t-7.5 40.5q0 17 3.5 39t9.5 50l57 268h210l44 209l3.5 21t1.5 17
q0 17 -10 22.5t-33 5.5q-16 0 -26.5 -2.5t-17.5 -9.5t-12 -20t-9 -34l-28 -131h-107zM213 89q20 0 32 4.5t19.5 15.5t12.5 29.5t11 47.5l32 152h-103l-32 -152q-5 -24 -8 -41t-3 -28q0 -17 8.5 -22.5t30.5 -5.5z" />
    <glyph glyph-name="uni018F" unicode="&#x4d8;" 
d="M145 503l28 131q12 55 25.5 88t35 50t53 22.5t78.5 5.5q76 0 108.5 -15t32.5 -65q0 -32 -12 -86l-101 -477q-12 -55 -25.5 -88t-35.5 -50.5t-55 -23t-83 -5.5q-36 0 -61.5 3t-42 11t-24 23.5t-7.5 40.5q0 17 3.5 39t9.5 50l57 268h210l44 209l3.5 21t1.5 17
q0 17 -10 22.5t-33 5.5q-16 0 -26.5 -2.5t-17.5 -9.5t-12 -20t-9 -34l-28 -131h-107zM213 89q20 0 32 4.5t19.5 15.5t12.5 29.5t11 47.5l32 152h-103l-32 -152q-5 -24 -8 -41t-3 -28q0 -17 8.5 -22.5t30.5 -5.5z" />
    <glyph glyph-name="florin" unicode="&#x192;" horiz-adv-x="270" 
d="M187 516h-33l18 83h33l13 64q14 66 53 96.5t120 30.5h32l-16 -76h-20q-31 0 -46 -12t-21 -44l-12 -59h75l-18 -83h-75l-115 -542q-14 -66 -53 -96.5t-120 -30.5h-31l16 76h19q16 0 27.5 3t19 10t12.5 18.5t9 28.5z" />
    <glyph glyph-name="uni0194" unicode="&#x194;" horiz-adv-x="371" 
d="M145 -185q-60 0 -84.5 7.5t-24.5 35.5q0 10 3 24l4 18q5 24 9.5 37.5t12.5 33.5l128 299l-17 520h113v-293l125 293h114l-239 -522l1 -297v-15q0 -14 -1.5 -25.5t-5.5 -30.5l-4 -18q-5 -22 -13.5 -35.5t-23.5 -20.5t-38.5 -9t-58.5 -2zM199 70l-48 -106q-5 -10 -7.5 -17
t-4.5 -18l-3 -16q-1 -3 -1 -5.5v-4.5q0 -8 5.5 -10.5t20.5 -2.5q19 0 25 4.5t9 18.5l3 16q2 11 3.5 18t1.5 17z" />
    <glyph glyph-name="uni019D" unicode="&#x19d;" horiz-adv-x="432" 
d="M211 790h134v-507h4l107 507h100l-167 -790h-123l-15 493h-4l-107 -503q-16 -72 -54 -107.5t-108 -35.5h-63l18 83h50q25 0 38 14.5t20 45.5z" />
    <glyph glyph-name="uni01A0" unicode="&#x1a0;" horiz-adv-x="421" 
d="M552 882h75l-12 -57q-10 -48 -36 -71t-71 -28v-9q0 -17 -2.5 -35.5t-8.5 -47.5l-101 -477q-12 -55 -25.5 -88t-35.5 -50.5t-55 -23t-84 -5.5q-38 0 -64.5 3t-43 11t-24 23.5t-7.5 41.5q0 32 12 88l101 477q11 52 24.5 84.5t34.5 50.5t51.5 24.5t76.5 6.5q27 0 45 -1.5
t32 -3.5t26.5 -3.5t28.5 -1.5q25 0 35.5 6.5t15.5 28.5zM385 634l3.5 21t1.5 17q0 17 -9 22.5t-32 5.5q-17 0 -28.5 -2.5t-19 -10t-12 -20.5t-8.5 -33l-101 -477q-6 -26 -6 -40q0 -17 9.5 -22.5t32.5 -5.5q17 0 28 2.5t18.5 10t12 21t9.5 34.5z" />
    <glyph glyph-name="uni01A1" unicode="&#x1a1;" horiz-adv-x="404" 
d="M494 691h76l-12 -57q-11 -52 -41.5 -75t-94.5 -23q3 -8 3 -20q0 -16 -6 -47l-75 -352q-9 -42 -20 -67t-29.5 -38.5t-47 -17.5t-72.5 -4q-34 0 -57.5 2.5t-38 9t-21 19.5t-6.5 34q0 12 1.5 27t6.5 35l78 365q8 40 19 64.5t29.5 38.5t47 19t72.5 5q30 0 46 -1.5t27.5 -3.5
t21 -3.5t25.5 -1.5q29 0 40 7.5t16 27.5zM322 463q2 9 3 16.5t1 12.5q0 15 -9 19.5t-30 4.5q-15 0 -24.5 -2t-15.5 -7.5t-10 -16t-7 -27.5l-70 -328q-4 -16 -4 -29q0 -16 9 -20.5t29 -4.5q31 0 41 10.5t17 43.5z" />
    <glyph glyph-name="uni01AF" unicode="&#x1af;" horiz-adv-x="468" 
d="M598 882h76l-12 -57q-11 -52 -39.5 -75t-84.5 -23h-21l-121 -570q-12 -55 -26 -88t-35.5 -50.5t-54 -23t-81.5 -5.5q-37 0 -63.5 3t-43 11.5t-24 24t-7.5 41.5q0 33 12 87l134 633h111l-134 -633q-6 -26 -6 -39q0 -18 9.5 -23.5t32.5 -5.5q16 0 27 2.5t18.5 10t12 21
t9.5 34.5l134 633h119q22 0 31.5 7t14.5 28z" />
    <glyph glyph-name="uni01B0" unicode="&#x1b0;" horiz-adv-x="436" 
d="M525 691h76l-12 -57q-11 -52 -39.5 -75t-84.5 -23h-19l-113 -536h-96l8 39q-17 -23 -41 -33.5t-65 -10.5q-44 0 -63 14t-19 51q0 25 7 57l103 482h102l-101 -472q-1 -5 -1.5 -8.5t-0.5 -7.5q0 -13 7 -19t26 -6q23 0 34.5 8.5t20.5 22.5l103 482h111q22 0 31 7t14 28z" />
    <glyph glyph-name="uni01DD" unicode="&#x1dd;" horiz-adv-x="349" 
d="M284 335l30 141q3 15 3 24q0 13 -8.5 17.5t-28.5 4.5q-27 0 -36.5 -8.5t-15.5 -37.5l-18 -81h-92l19 87q9 42 20 67.5t29 38.5t45 17t69 4q67 0 95.5 -11.5t28.5 -52.5q0 -12 -2.5 -27.5t-6.5 -35.5l-78 -365q-9 -42 -20 -67t-29.5 -38.5t-47 -17.5t-72.5 -4
q-32 0 -54.5 2t-36.5 8.5t-20.5 19t-6.5 32.5q0 24 9 65l47 218h178zM266 253h-86l-27 -128q-3 -15 -3 -23q0 -14 8.5 -18t28.5 -4q14 0 22.5 1.5t14 6.5t9 14t6.5 23z" />
    <glyph glyph-name="uni01DD" unicode="&#x4d9;" horiz-adv-x="349" 
d="M284 335l30 141q3 15 3 24q0 13 -8.5 17.5t-28.5 4.5q-27 0 -36.5 -8.5t-15.5 -37.5l-18 -81h-92l19 87q9 42 20 67.5t29 38.5t45 17t69 4q67 0 95.5 -11.5t28.5 -52.5q0 -12 -2.5 -27.5t-6.5 -35.5l-78 -365q-9 -42 -20 -67t-29.5 -38.5t-47 -17.5t-72.5 -4
q-32 0 -54.5 2t-36.5 8.5t-20.5 19t-6.5 32.5q0 24 9 65l47 218h178zM266 253h-86l-27 -128q-3 -15 -3 -23q0 -14 8.5 -18t28.5 -4q14 0 22.5 1.5t14 6.5t9 14t6.5 23z" />
    <glyph glyph-name="uni01E6" unicode="&#x1e6;" horiz-adv-x="398" 
d="M58 0zM367 562l15 72q2 12 4 21t2 16q0 16 -9.5 21t-30.5 5q-16 0 -26 -2.5t-17 -9.5t-11.5 -19.5t-8.5 -31.5l-101 -477l-3.5 -21t-1.5 -16q0 -17 8.5 -22.5t31.5 -5.5q20 0 32.5 1t19.5 3l77 363h108l-97 -459q-15 -3 -55.5 -6.5t-106.5 -3.5q-38 0 -64.5 3.5t-43 13
t-24 25.5t-7.5 41q0 17 3 37.5t8 46.5l101 477q12 54 26 87t36.5 50.5t55.5 23t82 5.5q36 0 62 -3t42 -11t23.5 -24t7.5 -41q0 -33 -12 -87l-15 -72h-111zM265 996h69l49 -109l97 109h75l-138 -166h-86z" />
    <glyph glyph-name="uni01E7" unicode="&#x1e7;" horiz-adv-x="366" 
d="M19 0zM144 -67q35 0 49.5 11.5t22.5 45.5l17 77q-16 -20 -38.5 -30.5t-56.5 -10.5q-45 0 -62.5 13.5t-17.5 45.5q0 13 2.5 28.5t6.5 34.5l71 334q7 35 16.5 58.5t23 37.5t34 20t50.5 6q36 0 55 -11.5t27 -37.5l10 44h95l-130 -609q-16 -73 -54.5 -108t-114.5 -35h-131
l18 86h107zM324 481q-7 31 -39 31q-26 0 -36 -10t-16 -40l-63 -295q-4 -15 -4 -26q0 -14 8 -19t27 -5q17 0 30 8.5t22 22.5zM209 805h69l49 -109l97 109h75l-138 -166h-86z" />
    <glyph glyph-name="uni01F4" unicode="&#x1f4;" horiz-adv-x="398" 
d="M58 0zM367 562l15 72q2 12 4 21t2 16q0 16 -9.5 21t-30.5 5q-16 0 -26 -2.5t-17 -9.5t-11.5 -19.5t-8.5 -31.5l-101 -477l-3.5 -21t-1.5 -16q0 -17 8.5 -22.5t31.5 -5.5q20 0 32.5 1t19.5 3l77 363h108l-97 -459q-15 -3 -55.5 -6.5t-106.5 -3.5q-38 0 -64.5 3.5t-43 13
t-24 25.5t-7.5 41q0 17 3 37.5t8 46.5l101 477q12 54 26 87t36.5 50.5t55.5 23t82 5.5q36 0 62 -3t42 -11t23.5 -24t7.5 -41q0 -33 -12 -87l-15 -72h-111zM393 996h113l-128 -166h-81z" />
    <glyph glyph-name="uni01F5" unicode="&#x1f5;" horiz-adv-x="366" 
d="M19 0zM144 -67q35 0 49.5 11.5t22.5 45.5l17 77q-16 -20 -38.5 -30.5t-56.5 -10.5q-45 0 -62.5 13.5t-17.5 45.5q0 13 2.5 28.5t6.5 34.5l71 334q7 35 16.5 58.5t23 37.5t34 20t50.5 6q36 0 55 -11.5t27 -37.5l10 44h95l-130 -609q-16 -73 -54.5 -108t-114.5 -35h-131
l18 86h107zM324 481q-7 31 -39 31q-26 0 -36 -10t-16 -40l-63 -295q-4 -15 -4 -26q0 -14 8 -19t27 -5q17 0 30 8.5t22 22.5zM356 805h113l-128 -166h-81z" />
    <glyph glyph-name="uni01F8" unicode="&#x1f8;" horiz-adv-x="432" 
d="M44 0zM268 0l-17 493h-4l-104 -493h-99l167 790h125l9 -507h4l107 507h100l-167 -790h-121zM448 830h-74l-63 166h107z" />
    <glyph glyph-name="uni01F9" unicode="&#x1f9;" horiz-adv-x="378" 
d="M44 0zM146 0h-102l127 599h95l-9 -40q16 22 41 33.5t63 11.5q46 0 66.5 -14t20.5 -51q0 -26 -7 -57l-102 -482h-102l100 471q1 5 1.5 8.5t0.5 7.5q0 25 -38 25q-20 0 -32 -8.5t-21 -22.5zM380 639h-74l-63 166h107z" />
    <glyph glyph-name="uni021A" unicode="&#x21a;" horiz-adv-x="311" 
d="M11 0zM447 694h-86l-147 -694h-115l147 694h-87l20 96h288zM96 -20h102l-117 -165h-70z" />
    <glyph glyph-name="uni021B" unicode="&#x21b;" horiz-adv-x="240" 
d="M0 0zM327 516h-70l-80 -376q-3 -15 -3 -24q0 -17 9.5 -23t32.5 -6h19l-18 -87h-26q-68 0 -96 20t-28 63q0 10 1 21t4 23l83 389h-37l18 83h37l39 182h102l-39 -182h70zM77 -20h102l-117 -165h-70z" />
    <glyph glyph-name="dotlessj" unicode="&#x237;" horiz-adv-x="192" 
d="M175 599h99l-130 -609q-16 -72 -54 -107.5t-108 -35.5h-63l18 83h50q25 0 38 14.5t20 45.5z" />
    <glyph glyph-name="uni0241" unicode="&#x241;" horiz-adv-x="385" 
d="M126 0l53 250q5 24 10 41t12 32t17 28.5t24 30.5q20 24 37 42l38 42l15.5 19.5t11 18t8 21.5t7.5 31l16 78q5 25 5 36q0 18 -9.5 24t-32.5 6q-32 0 -45 -13t-21 -53l-21 -100h-109l21 100q12 55 25.5 87.5t35.5 50t54.5 23t81.5 5.5q37 0 63.5 -3t43.5 -11.5t24.5 -24.5
t7.5 -41q0 -32 -12 -86l-15 -70q-5 -25 -10.5 -43.5t-13 -34.5t-17.5 -30.5t-24 -32.5q-15 -20 -34 -42t-36 -45.5t-30.5 -47t-18.5 -45.5l-51 -243h-111z" />
    <glyph glyph-name="uni0242" unicode="&#x242;" horiz-adv-x="316" 
d="M98 0l29 138q7 32 18.5 55.5t27 43.5t34.5 39.5t40 43.5q9 10 14 17t9 14.5t7 18t6 27.5l13 64q2 8 3 15t1 13q0 16 -9.5 21.5t-30.5 5.5q-14 0 -22.5 -2t-14 -8.5t-9.5 -18t-8 -30.5l-18 -81h-90l19 89q10 47 22 75.5t30 43.5t45 19.5t68 4.5q62 0 88.5 -12.5
t26.5 -55.5q0 -30 -10 -76l-13 -61q-4 -18 -8 -33t-9.5 -28t-13 -26.5t-18.5 -28.5q-9 -13 -16.5 -22l-14.5 -17l-15 -17.5t-18 -22.5q-11 -14 -17 -23t-10 -16t-5.5 -14l-3.5 -17l-29 -138h-98z" />
    <glyph glyph-name="uni024C" unicode="&#x24c;" horiz-adv-x="450" 
d="M199 0h-115l82 390h-86l20 91h86l65 309h164q39 0 66 -3t44 -11.5t24.5 -24t7.5 -40.5q0 -29 -11 -82l-17 -83q-6 -31 -17.5 -50.5t-24.5 -31.5t-26.5 -17.5t-25.5 -8.5l-1 -4q23 -6 37 -19.5t14 -47.5q0 -21 -6 -52l-66 -315h-116l70 333q2 9 3 16.5t1 13.5
q0 15 -8.5 21t-29.5 6h-52zM353 481q28 0 39.5 11t17.5 40l20 97q5 25 5 35q0 15 -9 20.5t-32 5.5h-49l-44 -209h52z" />
    <glyph glyph-name="uni024D" unicode="&#x24d;" horiz-adv-x="337" 
d="M340 227h-146l-48 -227h-102l48 227h-44l13 61h44l66 311h95l-9 -40q15 20 40.5 32.5t65.5 12.5q38 0 55 -13.5t17 -48.5q0 -22 -8 -60l-32 -149h-92l29 137q3 10 3 19q0 23 -31 23q-21 0 -34 -8t-23 -25l-40 -191h146z" />
    <glyph glyph-name="uni0263" unicode="&#x263;" horiz-adv-x="324" 
d="M122 -185q-41 0 -58.5 5.5t-17.5 26.5q0 8 3 22l3 14q4 20 6.5 30.5t10.5 26.5l88 211l-23 448h97v-267l112 267h101l-214 -449l-1 -210q-1 -16 -2 -27t-5 -30l-3 -14q-4 -18 -10.5 -28.5t-18 -16.5t-28 -7.5t-40.5 -1.5zM164 11l-36 -76q-4 -8 -6 -14t-3 -14l-3 -13
q-1 -4 -1 -9t4 -6.5t16 -1.5q15 0 19 3t7 14l3 13q2 8 3 14t1 14z" />
    <glyph glyph-name="uni0272" unicode="&#x272;" horiz-adv-x="378" 
d="M171 599h95l-9 -40q17 23 41.5 34t66.5 11q44 0 63.5 -14.5t19.5 -51.5q0 -25 -7 -56l-102 -482h-102l100 471q1 5 1.5 8.5t0.5 7.5q0 25 -34 25q-25 0 -36.5 -8.5t-20.5 -22.5l-105 -491q-16 -72 -55.5 -107.5t-109.5 -35.5h-63l18 83h50q25 0 38 14.5t20 45.5z" />
    <glyph glyph-name="circumflex" unicode="&#x2c6;" horiz-adv-x="318" 
d="M439 639h-70l-50 109l-96 -109h-74l138 166h87z" />
    <glyph glyph-name="caron" unicode="&#x2c7;" horiz-adv-x="318" 
d="M185 805h69l49 -109l97 109h75l-138 -166h-86z" />
    <glyph glyph-name="breve" unicode="&#x2d8;" horiz-adv-x="317" 
d="M295 642q-54 0 -86.5 25.5t-32.5 82.5q0 13 2 26.5t5 28.5h64q-6 -29 -6 -49q0 -28 14.5 -41t52.5 -13q36 0 63.5 22t41.5 81h64q-19 -87 -68 -125t-114 -38z" />
    <glyph glyph-name="dotaccent" unicode="&#x2d9;" horiz-adv-x="192" 
d="M292 686h-101l22 104h101z" />
    <glyph glyph-name="ring" unicode="&#x2da;" horiz-adv-x="256" 
d="M357 697q-5 -23 -11.5 -36t-17 -20.5t-27 -9.5t-41.5 -2q-38 0 -54.5 6t-16.5 29q0 7 1.5 14.5t3.5 18.5l8 40q4 22 10.5 35.5t17.5 21t27.5 9.5t40.5 2q39 0 55 -6t16 -29q0 -14 -4 -33zM322 733q2 10 2 13q0 11 -8 13.5t-28 2.5q-23 0 -32 -4.5t-13 -24.5l-6 -32
q-1 -5 -1.5 -8t-0.5 -6q0 -10 7.5 -12.5t26.5 -2.5q24 0 33.5 4.5t13.5 24.5z" />
    <glyph glyph-name="ogonek" unicode="&#x2db;" horiz-adv-x="250" 
d="M195 0q-38 -17 -58 -34.5t-20 -48.5q0 -21 33 -21h36l-17 -81h-78q-41 0 -56 15.5t-15 39.5q0 28 8 48.5t24 35.5t39.5 26t54.5 20h49z" />
    <glyph glyph-name="tilde" unicode="&#x2dc;" horiz-adv-x="383" 
d="M266 723q-25 0 -42.5 -10t-31.5 -26l15 73q14 11 33.5 18.5t40.5 7.5t39 -5t35 -10.5t35 -10.5t39 -5q46 0 77 36l-16 -72q-14 -13 -33.5 -21t-42.5 -8q-21 0 -39 5t-35 11.5t-35 11.5t-39 5z" />
    <glyph glyph-name="hungarumlaut" unicode="&#x2dd;" horiz-adv-x="377" 
d="M425 805h113l-130 -166h-80zM245 805h113l-128 -166h-81z" />
    <glyph glyph-name="gravecomb" unicode="&#x300;" horiz-adv-x="0" 
d="M0 639zM4 639h-74l-63 166h107z" />
    <glyph glyph-name="acutecomb" unicode="&#x301;" horiz-adv-x="0" 
d="M0 639zM-13 805h113l-128 -166h-81z" />
    <glyph glyph-name="uni0302" unicode="&#x302;" horiz-adv-x="0" 
d="M0 639zM93 639h-70l-50 109l-96 -109h-74l138 166h87z" />
    <glyph glyph-name="tildecomb" unicode="&#x303;" horiz-adv-x="0" 
d="M0 687zM-113 723q-25 0 -42.5 -10t-31.5 -26l15 73q14 11 33.5 18.5t40.5 7.5t39 -5t35 -10.5t35 -10.5t39 -5q46 0 77 36l-16 -72q-14 -13 -33.5 -21t-42.5 -8q-21 0 -39 5t-35 11.5t-35 11.5t-39 5z" />
    <glyph glyph-name="uni0304" unicode="&#x304;" horiz-adv-x="0" 
d="M0 708zM109 708h-292l13 61h292z" />
    <glyph glyph-name="uni0306" unicode="&#x306;" horiz-adv-x="0" 
d="M0 642zM-50 642q-54 0 -86.5 25.5t-32.5 82.5q0 13 2 26.5t5 28.5h64q-6 -29 -6 -49q0 -28 14.5 -41t52.5 -13q36 0 63.5 22t41.5 81h64q-19 -87 -68 -125t-114 -38z" />
    <glyph glyph-name="uni0307" unicode="&#x307;" horiz-adv-x="0" 
d="M0 686zM9 686h-101l22 104h101z" />
    <glyph glyph-name="uni0308" unicode="&#x308;" horiz-adv-x="0" 
d="M0 686zM100 686h-102l22 104h102zM-81 686h-101l22 104h101z" />
    <glyph glyph-name="hookabovecomb" unicode="&#x309;" horiz-adv-x="0" 
d="M-85 627l4 21q3 16 10.5 23t25.5 18l42 23q10 6 11 16l4 17q0 2 0.5 3.5t0.5 3.5q0 8 -8 11.5t-30 3.5q-24 0 -33.5 -5t-12.5 -19l-5 -26h-50l5 26q4 21 10.5 33t18.5 18.5t30.5 8.5t46.5 2q46 0 64 -6t18 -26q0 -9 -3 -21l-4 -22q-2 -11 -5.5 -18.5t-8.5 -13
t-12.5 -10.5t-17.5 -11l-36 -21q-12 -7 -13 -16l-3 -13h-49z" />
    <glyph glyph-name="uni030A" unicode="&#x30a;" horiz-adv-x="0" 
d="M0 629zM42 697q-5 -23 -11.5 -36t-17 -20.5t-27 -9.5t-41.5 -2q-38 0 -54.5 6t-16.5 29q0 7 1.5 14.5t3.5 18.5l8 40q4 22 10.5 35.5t17.5 21t27.5 9.5t40.5 2q39 0 55 -6t16 -29q0 -14 -4 -33zM7 733q2 10 2 13q0 11 -8 13.5t-28 2.5q-23 0 -32 -4.5t-13 -24.5l-6 -32
q-1 -5 -1.5 -8t-0.5 -6q0 -10 7.5 -12.5t26.5 -2.5q24 0 33.5 4.5t13.5 24.5z" />
    <glyph glyph-name="uni030B" unicode="&#x30b;" horiz-adv-x="0" 
d="M0 639zM83 805h113l-130 -166h-80zM-97 805h113l-128 -166h-81z" />
    <glyph glyph-name="uni030C" unicode="&#x30c;" horiz-adv-x="0" 
d="M0 639zM-161 805h69l49 -109l97 109h75l-138 -166h-86z" />
    <glyph glyph-name="uni0313" unicode="&#x313;" horiz-adv-x="0" 
d="M0 644zM-76 769q6 27 13.5 48t21 35.5t34 21.5t52.5 7h8l-10 -47h-13q-17 0 -27 -10t-15 -37l-3 -12h45l-28 -131h-105z" />
    <glyph glyph-name="uni031B" unicode="&#x31b;" horiz-adv-x="27" 
d="M119 691h74l-9 -43q-6 -29 -15 -50.5t-23.5 -35t-36 -20t-51.5 -6.5h-54l14 63h58q15 2 21.5 11t11.5 32z" />
    <glyph glyph-name="dotbelowcomb" unicode="&#x323;" horiz-adv-x="0" 
d="M-154 -81zM-176 -185h-101l22 104h101z" />
    <glyph glyph-name="uni0326" unicode="&#x326;" horiz-adv-x="0" 
d="M-133 -20zM-235 -20h102l-117 -165h-70z" />
    <glyph glyph-name="uni0328" unicode="&#x328;" horiz-adv-x="0" 
d="M-134 0zM-134 0q-38 -17 -58 -34.5t-20 -48.5q0 -21 33 -21h36l-17 -81h-78q-41 0 -56 15.5t-15 39.5q0 28 8 48.5t24 35.5t39.5 26t54.5 20h49z" />
    <glyph glyph-name="uni032D" unicode="&#x32d;" horiz-adv-x="0" 
d="M-82 -20zM-82 -186h-70l-50 109l-96 -109h-74l138 166h87z" />
    <glyph glyph-name="tonos" unicode="&#x384;" horiz-adv-x="114" 
d="M194 816h83l-56 -183h-73z" />
    <glyph glyph-name="dieresistonos" unicode="&#x385;" horiz-adv-x="323" 
d="M236 686h-78l22 104h78zM297 816h83l-55 -183h-73zM456 686h-78l22 104h78z" />
    <glyph glyph-name="Alphatonos" unicode="&#x386;" horiz-adv-x="493" 
d="M132 0zM341 0l37 176h-97l-37 -176h-112l134 634q12 55 25.5 87.5t35.5 50t54.5 23t81.5 5.5q37 0 63.5 -3.5t43 -12.5t24 -25t7.5 -41q0 -31 -11 -84l-134 -634h-115zM440 697q-15 0 -25.5 -2.5t-17 -9t-11 -19t-8.5 -32.5l-77 -364h97l77 364q5 23 5 33q0 18 -8.5 24
t-31.5 6zM194 816h83l-56 -183h-73z" />
    <glyph glyph-name="anoteleia" unicode="&#x387;" horiz-adv-x="191" 
d="M114 330zM219 330h-105l28 132h105z" />
    <glyph glyph-name="Epsilontonos" unicode="&#x388;" horiz-adv-x="407" 
d="M148 0zM384 0h-226l167 790h225l-20 -95h-110l-24 -115h107l-20 -91h-107l-82 -390h111zM194 816h83l-56 -183h-73z" />
    <glyph glyph-name="Etatonos" unicode="&#x389;" horiz-adv-x="531" 
d="M148 0zM489 0h-116l91 432h-100l-91 -432h-115l167 790h115l-55 -261h100l55 261h116zM194 816h83l-56 -183h-73z" />
    <glyph glyph-name="Iotatonos" unicode="&#x38a;" horiz-adv-x="319" 
d="M148 0zM275 0h-115l167 790h115zM194 816h83l-56 -183h-73z" />
    <glyph glyph-name="Omicrontonos" unicode="&#x38c;" horiz-adv-x="494" 
d="M148 0zM492 157q-12 -55 -25.5 -88t-35.5 -50.5t-55.5 -23t-84.5 -5.5q-38 0 -65 3t-43.5 11t-24 23.5t-7.5 40.5q0 33 12 89l101 477q12 55 25.5 87.5t35 50t55 23t84.5 5.5q38 0 65 -3t44 -11t24.5 -24t7.5 -41q0 -33 -12 -87zM477 634q2 12 4 21t2 16q0 17 -9.5 21.5
t-31.5 4.5q-16 0 -26 -2.5t-17 -9.5t-11.5 -19.5t-8.5 -31.5l-101 -477q-6 -26 -6 -38q0 -17 9 -22t32 -5q16 0 26.5 2.5t17 10t11 20t8.5 32.5zM194 816h83l-56 -183h-73z" />
    <glyph glyph-name="Upsilontonos" unicode="&#x38e;" horiz-adv-x="466" 
d="M148 0zM631 790l-226 -511l-59 -279h-115l59 279l-6 511h112l-17 -357h4l134 357h114zM194 816h83l-56 -183h-73z" />
    <glyph glyph-name="Omegatonos" unicode="&#x38f;" horiz-adv-x="494" 
d="M130 0zM151 99h72q-19 22 -29.5 49t-10.5 66q0 35 11 88l70 332q12 55 25.5 87.5t35.5 50t55.5 23t84.5 5.5q38 0 65 -3t44 -11t24.5 -24t7.5 -41q0 -33 -12 -87l-70 -332q-8 -39 -19.5 -70t-26 -55t-32 -43t-38.5 -35h73l-21 -99h-152l22 105q23 20 41.5 65t35.5 127
l71 337q2 12 3.5 22t1.5 15q0 17 -9 22t-31 5q-16 0 -26.5 -2.5t-17.5 -9.5t-11.5 -19.5t-8.5 -32.5l-71 -337q-10 -45 -15.5 -78t-4.5 -57q0 -39 15 -57l-22 -105h-151zM194 816h83l-56 -183h-73z" />
    <glyph glyph-name="iotadieresistonos" unicode="&#x390;" horiz-adv-x="270" 
d="M100 0zM208 127q-3 -14 -3 -21q0 -22 18 -22h16l-17 -84h-27q-51 0 -73 15.5t-22 48.5q0 13 5 35l106 500h98zM211 686h-78l22 104h78zM272 816h83l-55 -183h-73zM431 686h-78l22 104h78z" />
    <glyph glyph-name="uni0413" unicode="&#x393;" horiz-adv-x="289" 
d="M422 694h-119l-147 -694h-111l167 790h230z" />
    <glyph glyph-name="uni0413" unicode="&#x413;" horiz-adv-x="289" 
d="M422 694h-119l-147 -694h-111l167 790h230z" />
    <glyph glyph-name="Delta" unicode="&#x394;" horiz-adv-x="380" 
d="M445 790l-77 -790h-356l266 790h167zM156 100h111l65 546h-4z" />
    <glyph glyph-name="Theta" unicode="&#x398;" 
d="M398 157q-12 -55 -25.5 -88t-35.5 -50.5t-55.5 -23t-84.5 -5.5q-38 0 -65 3t-43.5 11t-24 23.5t-7.5 40.5q0 33 12 89l101 477q12 55 25.5 87.5t35 50t55 23t84.5 5.5q38 0 65 -3t44 -11t24.5 -24t7.5 -41q0 -33 -12 -87zM349 473h-98l-67 -316q-6 -26 -6 -39
q0 -16 9 -21t31 -5q16 0 27 2.5t17.5 10t11 20t8.5 32.5zM270 562h98l15 72q2 12 4 21t2 16q0 16 -9.5 21t-30.5 5q-32 0 -44 -12t-20 -51z" />
    <glyph glyph-name="Lambda" unicode="&#x39b;" horiz-adv-x="371" 
d="M441 790l-78 -790h-118l82 647h-4l-198 -647h-119l267 790h168z" />
    <glyph glyph-name="Xi" unicode="&#x39e;" horiz-adv-x="293" 
d="M44 95h245l-20 -95h-245zM173 698l19 92h243l-19 -92h-243zM132 490l19 89h237l-19 -89h-237z" />
    <glyph glyph-name="uni041F" unicode="&#x3a0;" horiz-adv-x="417" 
d="M373 0h-112l147 694h-105l-147 -694h-111l167 790h328z" />
    <glyph glyph-name="uni041F" unicode="&#x41f;" horiz-adv-x="417" 
d="M373 0h-112l147 694h-105l-147 -694h-111l167 790h328z" />
    <glyph glyph-name="Sigma" unicode="&#x3a3;" horiz-adv-x="305" 
d="M132 95h171l-20 -95h-265l19 93l218 411l-80 210l16 76h253l-19 -93h-141l66 -184z" />
    <glyph glyph-name="uni0424" unicode="&#x3a6;" horiz-adv-x="508" 
d="M150 565q11 53 24 84.5t33 48.5t50.5 22.5t76.5 5.5h26l13 64h95l-13 -64h26q34 0 58.5 -2.5t40 -11t22.5 -23t7 -38.5q0 -32 -12 -86l-72 -336q-11 -53 -24 -85t-33 -49t-50.5 -22.5t-76.5 -5.5h-26l-14 -67h-95l14 67h-26q-35 0 -59 2.5t-39.5 11t-22.5 23.5t-7 39
q0 32 12 86zM176 229q-6 -24 -6 -38q0 -17 10 -22.5t33 -5.5h27l100 468h-27q-17 0 -27.5 -2.5t-17 -9.5t-11.5 -20t-9 -34zM499 565l3.5 21t1.5 17q0 17 -9.5 22.5t-32.5 5.5h-27l-100 -468h27q16 0 26.5 2.5t17.5 9.5t11.5 20t9.5 34z" />
    <glyph glyph-name="uni0424" unicode="&#x424;" horiz-adv-x="508" 
d="M150 565q11 53 24 84.5t33 48.5t50.5 22.5t76.5 5.5h26l13 64h95l-13 -64h26q34 0 58.5 -2.5t40 -11t22.5 -23t7 -38.5q0 -32 -12 -86l-72 -336q-11 -53 -24 -85t-33 -49t-50.5 -22.5t-76.5 -5.5h-26l-14 -67h-95l14 67h-26q-35 0 -59 2.5t-39.5 11t-22.5 23.5t-7 39
q0 32 12 86zM176 229q-6 -24 -6 -38q0 -17 10 -22.5t33 -5.5h27l100 468h-27q-17 0 -27.5 -2.5t-17 -9.5t-11.5 -20t-9 -34zM499 565l3.5 21t1.5 17q0 17 -9.5 22.5t-32.5 5.5h-27l-100 -468h27q16 0 26.5 2.5t17.5 9.5t11.5 20t9.5 34z" />
    <glyph glyph-name="Psi" unicode="&#x3a8;" horiz-adv-x="476" 
d="M371 390q22 0 36 2.5t23 9.5t14.5 20t10.5 35l70 333h96l-70 -333q-12 -55 -26 -88t-36 -50.5t-54.5 -23t-80.5 -5.5l-61 -290h-111l61 290h-2q-37 0 -62.5 3t-41.5 11t-23.5 23.5t-7.5 40.5q0 33 12 89l70 333h96l-70 -333l-3.5 -20t-1.5 -17q0 -19 12.5 -24.5
t46.5 -5.5l85 400h103z" />
    <glyph glyph-name="Omega" unicode="&#x3a9;" 
d="M57 99h72q-19 22 -29.5 49t-10.5 66q0 35 11 88l70 332q12 55 25.5 87.5t35.5 50t55.5 23t84.5 5.5q38 0 65 -3t44 -11t24.5 -24t7.5 -41q0 -33 -12 -87l-70 -332q-8 -39 -19.5 -70t-26 -55t-32 -43t-38.5 -35h73l-21 -99h-152l22 105q23 20 41.5 65t35.5 127l71 337
q2 12 3.5 22t1.5 15q0 17 -9 22t-31 5q-16 0 -26.5 -2.5t-17.5 -9.5t-11.5 -19.5t-8.5 -32.5l-71 -337q-10 -45 -15.5 -78t-4.5 -57q0 -39 15 -57l-22 -105h-151z" />
    <glyph glyph-name="alphatonos" unicode="&#x3ac;" horiz-adv-x="366" 
d="M52 0zM138 482q7 35 16.5 58.5t23 37.5t33.5 20t49 6q37 0 57 -10.5t28 -39.5l10 45h92l-127 -599h-97l8 42q-17 -23 -40.5 -35t-63.5 -12q-41 0 -58 13.5t-17 47.5q0 12 2 27t6 34zM326 482q-5 16 -13.5 24.5t-31.5 8.5t-34 -11.5t-17 -40.5l-70 -328q-3 -15 -3 -25
q0 -15 7.5 -21t24.5 -6q23 0 35.5 8.5t23.5 24.5zM317 816h83l-56 -183h-73z" />
    <glyph glyph-name="epsilontonos" unicode="&#x3ad;" horiz-adv-x="342" 
d="M45 0zM305 816h83l-56 -183h-73zM298 609q63 0 90 -11t27 -51q0 -25 -9 -65l-15 -68h-89l12 53q3 15 3 24q0 16 -9.5 20.5t-30.5 4.5q-26 0 -36 -8.5t-17 -40.5l-13 -60q-1 -5 -1.5 -8t-0.5 -7q0 -12 8.5 -17t28.5 -5h56l-19 -88h-41q-20 0 -31.5 -1.5t-18 -6
t-10.5 -13.5t-7 -24l-23 -106q-2 -8 -3 -15t-1 -12q0 -14 9 -18t30 -4q27 0 38 8.5t18 41.5l16 77h89l-19 -91q-9 -42 -20 -67.5t-29 -39t-45 -17.5t-69 -4q-33 0 -56.5 2t-37.5 9t-20.5 19.5t-6.5 32.5q0 12 2 27t6 34l24 114q6 30 14.5 48.5t19 29.5t23 17t26.5 10
q-8 2 -16.5 5.5t-15 9.5t-11 15.5t-4.5 24.5q0 7 1 14t3 15l15 69q9 40 19.5 64.5t29 37.5t46.5 17t71 4z" />
    <glyph glyph-name="etatonos" unicode="&#x3ae;" horiz-adv-x="378" 
d="M44 0zM146 0h-102l127 599h95l-9 -40q17 23 41.5 34t66.5 11q44 0 63.5 -14.5t19.5 -51.5q0 -25 -7 -56l-135 -635h-102l133 624q1 5 1.5 8.5t0.5 7.5q0 25 -34 25q-25 0 -36.5 -8.5t-20.5 -22.5zM323 816h83l-56 -183h-73z" />
    <glyph glyph-name="iotatonos" unicode="&#x3af;" horiz-adv-x="191" 
d="M59 0zM167 127q-3 -14 -3 -21q0 -22 18 -22h16l-17 -84h-27q-51 0 -73 15.5t-22 48.5q0 13 5 35l106 500h98zM229 816h83l-56 -183h-73z" />
    <glyph glyph-name="upsilondieresistonos" unicode="&#x3b0;" horiz-adv-x="375" 
d="M61 0zM360 599h96l-103 -482q-9 -42 -20 -67t-29.5 -38.5t-47 -17.5t-72.5 -4q-34 0 -57.5 2.5t-38 9t-21 19.5t-6.5 34q0 12 1.5 27t6.5 35l103 482h96l-99 -464q-4 -17 -4 -30q0 -15 8 -19.5t28 -4.5q31 0 42 10.5t18 43.5zM261 686h-78l22 104h78zM322 816h83
l-55 -183h-73zM481 686h-78l22 104h78z" />
    <glyph glyph-name="alpha" unicode="&#x3b1;" horiz-adv-x="366" 
d="M138 482q7 35 16.5 58.5t23 37.5t33.5 20t49 6q37 0 57 -10.5t28 -39.5l10 45h92l-127 -599h-97l8 42q-17 -23 -40.5 -35t-63.5 -12q-41 0 -58 13.5t-17 47.5q0 12 2 27t6 34zM326 482q-5 16 -13.5 24.5t-31.5 8.5t-34 -11.5t-17 -40.5l-70 -328q-3 -15 -3 -25
q0 -15 7.5 -21t24.5 -6q23 0 35.5 8.5t23.5 24.5z" />
    <glyph glyph-name="beta" unicode="&#x3b2;" horiz-adv-x="382" 
d="M445 538q-7 -31 -16.5 -50.5t-21 -31.5t-23.5 -18t-24 -10q21 -6 35 -20.5t14 -51.5q0 -13 -1.5 -29t-6.5 -36l-27 -129q-11 -50 -23 -81.5t-30.5 -49.5t-46 -24.5t-67.5 -6.5h-68l-33 -153h-95l175 822q9 44 24.5 70t36 39.5t46.5 17.5t57 4q28 0 51.5 -3t40.5 -12
t26.5 -25.5t9.5 -44.5q0 -10 -1 -21t-4 -25zM160 99h55q27 0 39 19.5t21 61.5l24 115q3 15 5 26.5t2 20.5q0 20 -9 27.5t-28 7.5h-20l21 102h18q25 0 35.5 13t17.5 45l26 125q3 13 3 23q0 17 -9 23.5t-28 6.5q-25 0 -36.5 -12t-17.5 -42z" />
    <glyph glyph-name="uni04AF" unicode="&#x3b3;" horiz-adv-x="324" 
d="M205 -3l-32 -150h-92l32 151l20 601h104l-33 -384h4l133 384h102z" />
    <glyph glyph-name="uni04AF" unicode="&#x4af;" horiz-adv-x="324" 
d="M205 -3l-32 -150h-92l32 151l20 601h104l-33 -384h4l133 384h102z" />
    <glyph glyph-name="delta" unicode="&#x3b4;" horiz-adv-x="358" 
d="M124 414q11 52 25.5 78.5t43.5 37.5q-16 11 -22.5 22.5t-6.5 28.5q0 10 2 22t5 28l8 41q8 42 19 67.5t30 39t47.5 17.5t72.5 4q67 0 95 -11.5t28 -51.5q0 -25 -9 -65l-9 -43h-95l6 25q2 9 2.5 17t1.5 13q0 15 -8.5 19.5t-30.5 4.5q-15 0 -24.5 -2t-15.5 -8t-9.5 -16.5
t-7.5 -27.5l-4 -18q-3 -14 -3 -22q0 -11 4 -17t15 -12q25 -16 49.5 -27t43 -22t30 -24t11.5 -33q0 -8 -1.5 -18t-3.5 -22l-69 -322q-9 -42 -20 -67t-29.5 -38.5t-47 -17.5t-72.5 -4q-33 0 -56.5 2.5t-38 9t-21 19t-6.5 33.5q0 12 1.5 27.5t6.5 35.5zM314 419q2 9 3 16t1 12
q0 13 -9 22h-32q-15 0 -24.5 -2t-15.5 -7.5t-9.5 -16t-6.5 -27.5l-60 -280q-4 -17 -4 -30q0 -15 8.5 -20t29.5 -5q15 0 24.5 2t15.5 8t10 17t8 28z" />
    <glyph glyph-name="epsilon" unicode="&#x3b5;" horiz-adv-x="342" 
d="M298 609q63 0 90 -11t27 -51q0 -25 -9 -65l-15 -68h-89l12 53q3 15 3 24q0 16 -9.5 20.5t-30.5 4.5q-26 0 -36 -8.5t-17 -40.5l-13 -60q-1 -5 -1.5 -8t-0.5 -7q0 -12 8.5 -17t28.5 -5h56l-19 -88h-41q-20 0 -31.5 -1.5t-18 -6t-10.5 -13.5t-7 -24l-23 -106q-2 -8 -3 -15
t-1 -12q0 -14 9 -18t30 -4q27 0 38 8.5t18 41.5l16 77h89l-19 -91q-9 -42 -20 -67.5t-29 -39t-45 -17.5t-69 -4q-33 0 -56.5 2t-37.5 9t-20.5 19.5t-6.5 32.5q0 12 2 27t6 34l24 114q6 30 14.5 48.5t19 29.5t23 17t26.5 10q-8 2 -16.5 5.5t-15 9.5t-11 15.5t-4.5 24.5
q0 7 1 14t3 15l15 69q9 40 19.5 64.5t29 37.5t46.5 17t71 4z" />
    <glyph glyph-name="zeta" unicode="&#x3b6;" horiz-adv-x="315" 
d="M211 301q-10 -17 -16.5 -29.5t-12 -24.5t-9 -25.5t-7.5 -31.5l-11 -52q-4 -17 -4 -29q-1 -11 4 -16t16 -13q18 -12 40.5 -23.5t42 -24t33 -27t13.5 -33.5q0 -13 -3 -30t-8 -42l-11 -53h-96l11 50q4 19 4 31q0 11 -4.5 16.5t-14.5 12.5q-29 20 -52.5 32t-40.5 22.5
t-26.5 22.5t-9.5 33q0 22 9 61l17 81q4 18 8 32t10.5 28.5t16 32l23.5 41.5l218 366h-147l17 81h245l-16 -75z" />
    <glyph glyph-name="eta" unicode="&#x3b7;" horiz-adv-x="378" 
d="M146 0h-102l127 599h95l-9 -40q17 23 41.5 34t66.5 11q44 0 63.5 -14.5t19.5 -51.5q0 -25 -7 -56l-135 -635h-102l133 624q1 5 1.5 8.5t0.5 7.5q0 25 -34 25q-25 0 -36.5 -8.5t-20.5 -22.5z" />
    <glyph glyph-name="theta" unicode="&#x3b8;" horiz-adv-x="358" 
d="M344 117q-9 -42 -20 -67t-29.5 -38.5t-47.5 -17.5t-72 -4q-34 0 -57.5 2.5t-38 9t-21 19t-6.5 33.5q0 13 1.5 28t6.5 35l119 556q9 42 20 67t29.5 38.5t47 17.5t72.5 4q67 0 95 -12.5t28 -52.5q0 -13 -2 -28t-6 -34zM313 421h-92l-61 -286q-4 -16 -4 -29q0 -16 9 -20.5
t30 -4.5q30 0 40 11t17 43zM239 505h92l32 149q2 9 2.5 16.5t1.5 12.5q0 15 -9 19.5t-30 4.5q-15 0 -24.5 -2t-15.5 -8t-10 -16.5t-7 -26.5z" />
    <glyph glyph-name="iota" unicode="&#x3b9;" horiz-adv-x="191" 
d="M167 127q-3 -14 -3 -21q0 -22 18 -22h16l-17 -84h-27q-51 0 -73 15.5t-22 48.5q0 13 5 35l106 500h98z" />
    <glyph glyph-name="uni043A" unicode="&#x3ba;" horiz-adv-x="364" 
d="M243 0l-29 308h-4l-65 -308h-101l127 599h101l-47 -221h4l131 221h111l-162 -250l48 -349h-114z" />
    <glyph glyph-name="uni043A" unicode="&#x43a;" horiz-adv-x="364" 
d="M243 0l-29 308h-4l-65 -308h-101l127 599h101l-47 -221h4l131 221h111l-162 -250l48 -349h-114z" />
    <glyph glyph-name="lambda" unicode="&#x3bb;" horiz-adv-x="337" 
d="M248 790q61 0 87.5 -25.5t26.5 -96.5q0 -7 -0.5 -13.5t-0.5 -14.5l-31 -640h-104l25 378h-4l-138 -378h-103l242 607q0 11 0.5 20t0.5 17q0 24 -2 38t-6 21.5t-10.5 10t-16.5 2.5h-27l15 74h46z" />
    <glyph glyph-name="mu" unicode="&#x3bc;" horiz-adv-x="376" 
d="M7 -153l160 752h102l-101 -472q-1 -5 -1.5 -9t-0.5 -8q0 -13 8 -18.5t28 -5.5t31.5 8.5t20.5 22.5l103 482h103l-127 -599h-96l8 39q-17 -23 -41 -33t-61 -10q-13 0 -19 2l-23 -151h-94z" />
    <glyph glyph-name="xi" unicode="&#x3be;" horiz-adv-x="315" 
d="M155 138q-4 -17 -4 -29q-1 -11 4 -16t16 -13q18 -12 40.5 -23.5t42 -24t33 -27t13.5 -33.5q0 -13 -3 -30t-8 -42l-11 -53h-96l11 50q4 19 4 31q0 11 -4.5 16.5t-14.5 12.5q-26 18 -49.5 30t-41.5 23t-28.5 23.5t-10.5 32.5q0 12 2.5 27t7.5 35l62 291q6 30 14.5 48.5
t19 29.5t22.5 17t27 10q-17 5 -32 15t-15 39q0 14 4 30l14 69q8 40 19 64.5t29 37.5t46 17t71 4q32 0 54 -2.5t36 -9t20.5 -19t6.5 -32.5q0 -13 -1.5 -28.5t-6.5 -35.5l-13 -60h-90l9 45q2 8 3 15t1 12q0 14 -8 18t-28 4q-28 0 -39.5 -9t-17.5 -40l-12 -60q-1 -5 -1.5 -8
t-0.5 -7q0 -12 8.5 -17t28.5 -5h57l-19 -88h-57q-27 0 -37.5 -9.5t-15.5 -35.5z" />
    <glyph glyph-name="pi" unicode="&#x3c0;" horiz-adv-x="402" 
d="M495 519h-47l-84 -392q-2 -6 -2 -10.5v-9.5q0 -23 20 -23h14l-17 -84h-28q-51 0 -73 15.5t-22 48.5q0 13 5 35l89 420h-82l-110 -519h-98l110 519h-45l17 80h370z" />
    <glyph glyph-name="rho" unicode="&#x3c1;" horiz-adv-x="362" 
d="M348 117q-7 -34 -17 -57t-24 -37.5t-34 -21t-47 -6.5q-21 0 -35 3.5t-23 9t-14 13t-8 16.5l-40 -190h-99l135 635q9 42 20 67t30 38.5t47 17.5t72 4q33 0 56.5 -2.5t38.5 -9t21.5 -19t6.5 -33.5q0 -13 -2 -28t-6 -35zM326 463q2 9 3 16.5t1 12.5q0 15 -8.5 19.5
t-29.5 4.5q-30 0 -40.5 -10t-17.5 -43l-74 -347q4 -14 12.5 -23.5t32.5 -9.5t34.5 11.5t16.5 40.5z" />
    <glyph glyph-name="sigma1" unicode="&#x3c2;" horiz-adv-x="340" 
d="M140 482q9 41 20 66t29 38.5t46 18t70 4.5q66 0 93 -12t27 -51q0 -13 -2.5 -28.5t-6.5 -35.5l-22 -105h-90l20 96q3 12 3 21q0 14 -9 18.5t-30 4.5q-30 0 -39.5 -9t-14.5 -35l-71 -334q-2 -11 -3 -18t-2 -13q0 -10 4.5 -15.5t15.5 -12.5q18 -12 40.5 -23.5t42 -23.5
t33 -27t13.5 -34q0 -13 -3 -30t-8 -42l-11 -53h-96l11 50q4 19 4 31q0 11 -4.5 16.5t-14.5 12.5q-23 16 -46 27.5t-41.5 23t-30.5 25t-12 33.5q0 12 2.5 27t7.5 35z" />
    <glyph glyph-name="sigma" unicode="&#x3c3;" horiz-adv-x="387" 
d="M415 514v-6q0 -33 -12 -87l-65 -304q-9 -42 -19.5 -67t-28 -38.5t-45.5 -17.5t-72 -4q-33 0 -56.5 2t-38 9t-21 19.5t-6.5 32.5q0 25 9 64l76 355q9 42 20 67t29 38.5t46 17.5t72 4h203l-18 -85h-73zM320 463q3 18 3 30q0 6 -0.5 11t-1.5 10h-36q-14 0 -23.5 -2
t-15.5 -7.5t-9.5 -16t-7.5 -27.5l-69 -326q-4 -17 -4 -30q0 -14 8.5 -19t28.5 -5q15 0 24.5 2t15.5 8t10 16.5t7 27.5z" />
    <glyph glyph-name="tau" unicode="&#x3c4;" horiz-adv-x="319" 
d="M414 514h-101l-83 -387q-2 -6 -2 -11v-9q0 -23 17 -23h16l-17 -84h-27q-51 0 -73 15.5t-22 48.5q0 17 4 34l89 416h-94l18 85h293z" />
    <glyph glyph-name="upsilon" unicode="&#x3c5;" horiz-adv-x="375" 
d="M360 599h96l-103 -482q-9 -42 -20 -67t-29.5 -38.5t-47 -17.5t-72.5 -4q-34 0 -57.5 2.5t-38 9t-21 19.5t-6.5 34q0 12 1.5 27t6.5 35l103 482h96l-99 -464q-4 -17 -4 -30q0 -15 8 -19.5t28 -4.5q31 0 42 10.5t18 43.5z" />
    <glyph glyph-name="uni0444" unicode="&#x3c6;" horiz-adv-x="490" 
d="M417 599h24q33 0 56 -2t37.5 -9t21 -19t6.5 -32q0 -25 -9 -65l-74 -345q-9 -42 -19.5 -67t-28 -38.5t-45.5 -17.5t-72 -4h-24l-33 -153h-91l33 153h-24q-33 0 -56.5 2t-38 9t-21 19.5t-6.5 32.5q0 25 9 64l74 345q9 42 19.5 67t28.5 38.5t46 17.5t72 4h24l40 191h91z
M333 90q14 0 23 2t15 8t10 16.5t8 27.5l66 310q4 17 4 30q0 15 -9 19.5t-29 4.5h-24l-88 -418h24zM218 90l88 418h-24q-14 0 -23.5 -2t-15.5 -8t-9.5 -16.5t-7.5 -27.5l-66 -310q-4 -17 -4 -30q0 -15 8.5 -19.5t29.5 -4.5h24z" />
    <glyph glyph-name="uni0444" unicode="&#x444;" horiz-adv-x="490" 
d="M417 599h24q33 0 56 -2t37.5 -9t21 -19t6.5 -32q0 -25 -9 -65l-74 -345q-9 -42 -19.5 -67t-28 -38.5t-45.5 -17.5t-72 -4h-24l-33 -153h-91l33 153h-24q-33 0 -56.5 2t-38 9t-21 19.5t-6.5 32.5q0 25 9 64l74 345q9 42 19.5 67t28.5 38.5t46 17.5t72 4h24l40 191h91z
M333 90q14 0 23 2t15 8t10 16.5t8 27.5l66 310q4 17 4 30q0 15 -9 19.5t-29 4.5h-24l-88 -418h24zM218 90l88 418h-24q-14 0 -23.5 -2t-15.5 -8t-9.5 -16.5t-7.5 -27.5l-66 -310q-4 -17 -4 -30q0 -15 8.5 -19.5t29.5 -4.5h24z" />
    <glyph glyph-name="chi" unicode="&#x3c7;" horiz-adv-x="337" 
d="M444 599l-149 -358v-394h-102l11 339l-132 -339h-97l163 394v358h97v-294l117 294h92z" />
    <glyph glyph-name="psi" unicode="&#x3c8;" horiz-adv-x="507" 
d="M342 90q14 0 23 2t15 8t10 16.5t8 27.5l97 455h93l-101 -472q-9 -42 -20 -67t-29 -38.5t-45.5 -17.5t-69.5 -4h-24l-33 -153h-92l33 153h-24q-33 0 -56 2t-37.5 9t-21 19.5t-6.5 32.5q0 25 9 64l101 472h93l-97 -455q-4 -17 -4 -30q0 -15 8.5 -19.5t29.5 -4.5h24l148 700
h92l-148 -700h24z" />
    <glyph glyph-name="omega" unicode="&#x3c9;" horiz-adv-x="528" 
d="M333 135q-4 -17 -4 -31t7.5 -18.5t26.5 -4.5q28 0 37.5 10.5t16.5 43.5l99 464h92l-103 -482q-9 -39 -19.5 -64t-26 -39t-38.5 -19t-57 -5q-48 0 -67 11t-23 43h-4q-19 -33 -44 -43.5t-70 -10.5q-51 0 -73 12.5t-22 51.5q0 13 1.5 28t6.5 35l103 482h93l-99 -464
q-4 -17 -4 -31t7.5 -18.5t26.5 -4.5q13 0 21.5 2t14.5 8t10 16.5t8 27.5l73 342h83z" />
    <glyph glyph-name="iotadieresis" unicode="&#x3ca;" horiz-adv-x="265" 
d="M98 0zM206 127q-3 -14 -3 -21q0 -22 18 -22h16l-17 -84h-27q-51 0 -73 15.5t-22 48.5q0 13 5 35l106 500h98zM420 686h-102l22 104h102zM239 686h-101l22 104h101z" />
    <glyph glyph-name="upsilondieresis" unicode="&#x3cb;" horiz-adv-x="375" 
d="M61 0zM360 599h96l-103 -482q-9 -42 -20 -67t-29.5 -38.5t-47 -17.5t-72.5 -4q-34 0 -57.5 2.5t-38 9t-21 19.5t-6.5 34q0 12 1.5 27t6.5 35l103 482h96l-99 -464q-4 -17 -4 -30q0 -15 8 -19.5t28 -4.5q31 0 42 10.5t18 43.5zM475 686h-102l22 104h102zM294 686h-101
l22 104h101z" />
    <glyph glyph-name="omicrontonos" unicode="&#x3cc;" horiz-adv-x="358" 
d="M52 0zM346 117q-9 -42 -20 -67t-30 -38.5t-47.5 -17.5t-72.5 -4q-68 0 -96 11.5t-28 52.5q0 13 1.5 28t6.5 35l78 365q9 42 20 67t29.5 38.5t47.5 17.5t73 4q67 0 95.5 -11.5t28.5 -52.5q0 -13 -2 -28t-6 -35zM323 471q3 12 3 21q0 13 -8.5 17t-29.5 4q-28 0 -38 -8.5
t-15 -33.5l-74 -344q-3 -14 -3 -21q0 -14 8.5 -18t29.5 -4q29 0 38.5 9.5t14.5 33.5zM313 816h83l-56 -183h-73z" />
    <glyph glyph-name="upsilontonos" unicode="&#x3cd;" horiz-adv-x="375" 
d="M61 0zM322 816h83l-56 -183h-73zM360 599h96l-103 -482q-9 -42 -20 -67t-29.5 -38.5t-47 -17.5t-72.5 -4q-34 0 -57.5 2.5t-38 9t-21 19.5t-6.5 34q0 12 1.5 27t6.5 35l103 482h96l-99 -464q-4 -17 -4 -30q0 -15 8 -19.5t28 -4.5q31 0 42 10.5t18 43.5z" />
    <glyph glyph-name="omegatonos" unicode="&#x3ce;" horiz-adv-x="528" 
d="M61 0zM333 135q-4 -17 -4 -31t7.5 -18.5t26.5 -4.5q28 0 37.5 10.5t16.5 43.5l99 464h92l-103 -482q-9 -39 -19.5 -64t-26 -39t-38.5 -19t-57 -5q-48 0 -67 11t-23 43h-4q-19 -33 -44 -43.5t-70 -10.5q-51 0 -73 12.5t-22 51.5q0 13 1.5 28t6.5 35l103 482h93l-99 -464
q-4 -17 -4 -31t7.5 -18.5t26.5 -4.5q13 0 21.5 2t14.5 8t10 16.5t8 27.5l73 342h83zM398 816h83l-56 -183h-73z" />
    <glyph glyph-name="uni0402" unicode="&#x402;" horiz-adv-x="462" 
d="M424 -15q-8 -38 -21.5 -64.5t-34.5 -43t-50.5 -23.5t-70.5 -7h-83l17 82h69q31 0 43 10.5t20 45.5l85 398q3 14 4 23.5t1 16.5q0 17 -8 22t-25 5q-19 0 -34 -3.5t-25 -8.5l-93 -438h-112l147 694h-92l20 96h316l-20 -96h-112l-34 -160q20 8 45.5 12t57.5 4
q22 0 38.5 -2.5t27.5 -10.5t16.5 -22.5t5.5 -37.5q0 -17 -3.5 -40.5t-9.5 -53.5z" />
    <glyph glyph-name="uni0403" unicode="&#x403;" horiz-adv-x="289" 
d="M45 0zM369 996h113l-128 -166h-81zM422 694h-119l-147 -694h-111l167 790h230z" />
    <glyph glyph-name="uni0404" unicode="&#x404;" horiz-adv-x="394" 
d="M372 577l12 57l3.5 21t1.5 16q0 17 -9.5 23t-32.5 6q-17 0 -27.5 -2.5t-18 -10t-12 -20t-8.5 -33.5l-22 -107h119l-19 -88h-119l-60 -282q-6 -26 -6 -39q0 -18 9.5 -23.5t31.5 -5.5q17 0 28 3t18.5 10.5t12 20.5t9.5 34l45 212h107l-45 -212q-12 -56 -26 -89t-35.5 -50
t-53 -22.5t-79.5 -5.5q-38 0 -64.5 3t-43 11.5t-24 24t-7.5 40.5q0 32 12 88l101 477q12 54 25.5 87t35.5 50.5t55 23t83 5.5q36 0 61.5 -3t41.5 -11t23.5 -23.5t7.5 -40.5q0 -33 -12 -88l-12 -57h-107z" />
    <glyph glyph-name="uni0409" unicode="&#x409;" horiz-adv-x="637" 
d="M284 414q-29 -134 -54.5 -215.5t-53 -125.5t-60.5 -58.5t-76 -14.5h-28l20 96h28q18 0 32.5 9.5t29 42t31.5 95.5t40 170l80 377h291l-55 -262h42q39 0 65.5 -3t43.5 -11.5t24.5 -24t7.5 -40.5q0 -29 -11 -82l-44 -206q-11 -53 -24.5 -84.5t-35 -48.5t-54.5 -22.5
t-84 -5.5h-153l147 693h-89zM459 95q16 0 27 2.5t18 9.5t11.5 20t9.5 34l45 212l3.5 21t1.5 16q0 17 -10 22.5t-33 5.5h-42l-73 -343h42z" />
    <glyph glyph-name="uni040A" unicode="&#x40a;" horiz-adv-x="612" 
d="M536 528q76 0 108.5 -15t32.5 -65q0 -29 -11 -81l-44 -206q-11 -53 -24.5 -84.5t-35 -48.5t-54.5 -22.5t-84 -5.5h-163l92 434h-106l-92 -434h-111l167 790h111l-55 -263h106l55 263h111l-55 -262h52zM444 95q16 0 27 2.5t18 9.5t11.5 20t9.5 34l45 212l3.5 21t1.5 16
q0 17 -10 22.5t-33 5.5h-52l-73 -343h52z" />
    <glyph glyph-name="uni040B" unicode="&#x40b;" horiz-adv-x="462" 
d="M181 790h316l-20 -96h-112l-34 -160q20 8 45.5 12t57.5 4q22 0 38.5 -2.5t27.5 -10.5t16.5 -22.5t5.5 -37.5q0 -17 -3.5 -40.5t-9.5 -53.5l-81 -383h-111l81 383q3 14 4 23.5t1 16.5q0 17 -8 22t-25 5q-19 0 -34 -3.5t-25 -8.5l-93 -438h-112l147 694h-92z" />
    <glyph glyph-name="uni040C" unicode="&#x40c;" horiz-adv-x="404" 
d="M44 0zM550 790l-187 -337l36 -453h-120l-26 415h-5l-88 -415h-116l167 789h116l-63 -298h5l155 299h126zM416 996h113l-128 -166h-81z" />
    <glyph glyph-name="uni040D" unicode="&#x40d;" horiz-adv-x="417" 
d="M44 0zM440 830h-74l-63 166h107zM44 0l167 790h101l-107 -506h4l204 506h126l-167 -790h-100l104 493h-4l-206 -493h-122z" />
    <glyph glyph-name="uni040E" unicode="&#x40e;" horiz-adv-x="375" 
d="M35 0zM364 833q-54 0 -86.5 25.5t-32.5 82.5q0 13 2 26.5t5 28.5h64q-6 -29 -6 -49q0 -28 14.5 -41t52.5 -13q36 0 63.5 22t41.5 81h64q-19 -87 -68 -125t-114 -38zM290 790l-23 -400h4l145 400h114l-279 -676q-14 -32 -26.5 -54t-29 -35.5t-38 -19t-52.5 -5.5h-70l20 96
h47q22 0 33.5 6.5t19.5 26.5l20 54v607h115z" />
    <glyph glyph-name="uni040F" unicode="&#x40f;" horiz-adv-x="406" 
d="M428 790h111l-167 -790h-117l-31 -142h-94l31 142h-117l167 790h111l-147 -694h106z" />
    <glyph glyph-name="uni0411" unicode="&#x411;" horiz-adv-x="395" 
d="M319 528q39 0 65.5 -3t43.5 -11.5t24.5 -24t7.5 -40.5q0 -29 -11 -82l-44 -206q-11 -53 -24.5 -84.5t-35 -48.5t-54.5 -22.5t-84 -5.5h-163l167 790h307l-20 -97h-196l-35 -165h52zM227 95q15 0 25.5 3t18.5 13t14.5 29t13.5 51l32 150q9 40 9 61q0 24 -10.5 30t-29.5 6
h-52l-73 -343h52z" />
    <glyph glyph-name="uni0414" unicode="&#x414;" horiz-adv-x="478" 
d="M434 -142h-94l31 142h-265l-31 -142h-92l50 238h31q16 0 30.5 10.5t29 44t31.5 96t39 166.5l80 377h301l-147 -694h57zM286 415q-15 -69 -28 -121t-25.5 -90t-24.5 -64t-24 -44h132l118 598h-89z" />
    <glyph glyph-name="uni0416" unicode="&#x416;" horiz-adv-x="558" 
d="M497 790l-63 -299h4l157 299h107l-185 -334l34 -456h-110l-21 406h-4l-86 -406h-103l86 406h-5l-192 -406h-110l225 456l-43 334h108l30 -299h5l63 299h103z" />
    <glyph glyph-name="uni0417" unicode="&#x417;" horiz-adv-x="391" 
d="M176 172q-4 -18 -6.5 -31t-2.5 -23q0 -17 9.5 -23t32.5 -6q30 0 43.5 12.5t21.5 50.5l48 227q2 8 3 15.5t1 13.5q0 17 -9 24t-32 7h-68l19 88h68q29 0 41.5 11.5t18.5 38.5l12 58q5 25 5 36q0 18 -9.5 23.5t-31.5 5.5q-17 0 -28 -2.5t-18 -10t-11.5 -20t-8.5 -33.5
l-12 -57h-107l12 57q12 54 25.5 87t34.5 50.5t52.5 23t78.5 5.5q39 0 66 -3.5t44 -12.5t24.5 -24.5t7.5 -39.5q0 -17 -3 -36.5t-8 -44.5l-10 -49q-6 -31 -17.5 -51t-24.5 -32t-27 -18t-26 -8q22 -8 36.5 -22t14.5 -51q0 -26 -9 -66l-40 -190q-11 -53 -24.5 -85t-35.5 -49
t-54.5 -22.5t-82.5 -5.5q-36 0 -62 3t-42 11t-23.5 23.5t-7.5 41.5q0 32 12 88l45 212h107z" />
    <glyph glyph-name="uni0418" unicode="&#x418;" horiz-adv-x="417" 
d="M44 0l167 790h101l-107 -506h4l204 506h126l-167 -790h-100l104 493h-4l-206 -493h-122z" />
    <glyph glyph-name="uni0419" unicode="&#x419;" horiz-adv-x="417" 
d="M44 0zM385 833q-54 0 -86.5 25.5t-32.5 82.5q0 13 2 26.5t5 28.5h64q-6 -29 -6 -49q0 -28 14.5 -41t52.5 -13q36 0 63.5 22t41.5 81h64q-19 -87 -68 -125t-114 -38zM44 0l167 790h101l-107 -506h4l204 506h126l-167 -790h-100l104 493h-4l-206 -493h-122z" />
    <glyph glyph-name="uni041B" unicode="&#x41b;" horiz-adv-x="452" 
d="M286 415q-29 -134 -54.5 -216t-53.5 -126t-61.5 -58.5t-76.5 -14.5h-27l20 96h27q18 0 32.5 9.5t29.5 42t32 95.5t40 170l80 377h301l-167 -790h-112l147 694h-98z" />
    <glyph glyph-name="uni0423" unicode="&#x423;" horiz-adv-x="375" 
d="M290 790l-23 -400h4l145 400h114l-279 -676q-14 -32 -26.5 -54t-29 -35.5t-38 -19t-52.5 -5.5h-70l20 96h47q22 0 33.5 6.5t19.5 26.5l20 54v607h115z" />
    <glyph glyph-name="uni0426" unicode="&#x426;" horiz-adv-x="442" 
d="M399 -142h-94l31 142h-291l167 790h111l-147 -694h105l147 694h112l-147 -694h57z" />
    <glyph glyph-name="uni0427" unicode="&#x427;" horiz-adv-x="386" 
d="M284 504q37 0 60 12l58 274h111l-167 -790h-111l89 420q-21 -8 -47 -12t-58 -4q-44 0 -66 13.5t-22 59.5q0 36 13 94l46 219h111l-38 -180q-12 -54 -12 -77q0 -17 7.5 -23t25.5 -6z" />
    <glyph glyph-name="uni0428" unicode="&#x428;" horiz-adv-x="565" 
d="M519 0h-475l167 790h107l-147 -694h78l147 694h105l-147 -694h78l147 694h107z" />
    <glyph glyph-name="uni0429" unicode="&#x429;" horiz-adv-x="590" 
d="M545 -142h-93l31 142h-438l167 790h107l-147 -694h78l147 694h104l-147 -694h79l147 694h107l-147 -694h56z" />
    <glyph glyph-name="uni042A" unicode="&#x42a;" horiz-adv-x="464" 
d="M388 528q38 0 65 -3t43.5 -11.5t24 -24t7.5 -40.5q0 -29 -11 -82l-44 -206q-11 -53 -24.5 -84.5t-35 -48.5t-54.5 -22.5t-83 -5.5h-163l147 693h-100l20 97h211l-55 -262h52zM296 95q16 0 26.5 3t18 12.5t13.5 28.5t13 52l32 150q5 23 7.5 39t2.5 27q0 21 -10 26t-30 5
h-52l-73 -343h52z" />
    <glyph glyph-name="uni042B" unicode="&#x42b;" horiz-adv-x="600" 
d="M44 0zM556 0h-115l167 790h115zM227 95q17 0 28 3t18.5 12.5t13 28.5t12.5 52l32 150q5 23 7.5 39t2.5 27q0 21 -10 26t-31 5h-52l-73 -343h52zM319 528q39 0 65.5 -3t43.5 -11.5t24.5 -24t7.5 -40.5q0 -29 -11 -82l-44 -206q-11 -53 -24.5 -84.5t-35 -48.5t-54.5 -22.5
t-84 -5.5h-163l167 790h111l-55 -262h52z" />
    <glyph glyph-name="uni042C" unicode="&#x42c;" horiz-adv-x="395" 
d="M227 95q17 0 28 3t18.5 12.5t13 28.5t12.5 52l32 150q5 23 7.5 39t2.5 27q0 21 -10 26t-31 5h-52l-73 -343h52zM319 528q39 0 65.5 -3t43.5 -11.5t24.5 -24t7.5 -40.5q0 -29 -11 -82l-44 -206q-11 -53 -24.5 -84.5t-35 -48.5t-54.5 -22.5t-84 -5.5h-163l167 790h111
l-55 -262h52z" />
    <glyph glyph-name="uni042D" unicode="&#x42d;" horiz-adv-x="394" 
d="M160 577l12 57q12 55 25.5 88t35.5 50t53.5 22.5t79.5 5.5q37 0 63.5 -3t43.5 -11.5t24.5 -24t7.5 -40.5q0 -33 -12 -87l-101 -477q-12 -55 -25.5 -88t-35.5 -50.5t-55 -23t-83 -5.5q-36 0 -61.5 3t-42 11t-24 23.5t-7.5 40.5q0 17 3.5 39t9.5 50l45 212h107l-45 -212
q-6 -24 -6 -39q0 -17 10 -23t34 -6q15 0 25.5 2.5t18 10t12 21t9.5 34.5l60 282h-119l19 88h119l22 107q2 12 4 21t1 16q0 17 -10 23t-33 6q-32 0 -44.5 -12.5t-20.5 -53.5l-12 -57h-107z" />
    <glyph glyph-name="uni042E" unicode="&#x42e;" horiz-adv-x="582" 
d="M581 157q-12 -55 -25.5 -88t-35.5 -50.5t-55.5 -23t-84.5 -5.5q-38 0 -65 3t-43.5 11t-24 23.5t-7.5 40.5q0 33 12 89l71 333h-58l-104 -490h-115l167 790h115l-44 -211h58l11 55q11 55 24.5 87.5t35.5 50t55.5 23t84.5 5.5q38 0 65 -3t44 -11t24.5 -24t7.5 -41
q0 -33 -12 -87zM566 634q2 12 4 21t2 16q0 16 -9.5 21t-30.5 5q-32 0 -44 -12t-20 -51l-101 -477q-6 -26 -6 -39q0 -16 9 -21t31 -5q16 0 27 2.5t17.5 10t11 20t8.5 32.5z" />
    <glyph glyph-name="uni042F" unicode="&#x42f;" horiz-adv-x="409" 
d="M287 389l-160 -389h-115l175 398q-24 8 -34.5 24t-10.5 45q0 17 3 37t8 46l17 79q11 53 24.5 84.5t35 48.5t54.5 22.5t84 5.5h163l-167 -790h-111l82 389h-48zM348 693q-18 0 -29 -2.5t-18 -10t-11 -20t-8 -31.5l-15 -73q-8 -35 -8 -49q0 -17 9.5 -22.5t33.5 -5.5h52
l46 214h-52z" />
    <glyph glyph-name="uni0431" unicode="&#x431;" horiz-adv-x="362" 
d="M445 716h-97q-32 0 -47.5 -14.5t-22.5 -46.5l-20 -94q18 21 39.5 32t61.5 11q41 0 58 -13.5t17 -46.5q0 -13 -2 -28t-6 -34l-78 -365q-9 -42 -21 -67t-30.5 -38.5t-46.5 -17.5t-70 -4q-68 0 -96 12t-28 53q0 13 2 28t6 34l116 546q14 66 52.5 96.5t118.5 30.5h109z
M297 515q-23 0 -36.5 -9t-22.5 -24l-74 -347q-2 -9 -3 -16t-1 -13q0 -15 9 -20t29 -5q16 0 25.5 2.5t15.5 8.5t10 16.5t7 26.5l70 328q3 15 3 25q0 15 -7.5 21t-24.5 6z" />
    <glyph glyph-name="uni0432" unicode="&#x432;" horiz-adv-x="360" 
d="M342 346q20 -5 32.5 -16t12.5 -40q0 -19 -6 -46l-25 -121q-8 -40 -19 -64.5t-30 -37.5t-47.5 -17t-72.5 -4h-143l127 599h143q68 0 96.5 -11.5t28.5 -51.5q0 -21 -8 -59l-10 -45q-5 -23 -14.5 -38t-21 -24.5t-22.5 -14t-20 -5.5zM159 77h44q13 0 22 1.5t14.5 7t9 15
t6.5 25.5l27 127q2 11 4 19t2 15q0 12 -7 17.5t-27 5.5h-46zM224 385h46q24 0 33.5 8t14.5 28l11 52q2 8 3 15t1 12q0 13 -8 17t-28 4h-44z" />
    <glyph glyph-name="uni0433" unicode="&#x433;" horiz-adv-x="272" 
d="M368 515h-115l-109 -515h-97l127 599h212z" />
    <glyph glyph-name="uni0434" unicode="&#x434;" horiz-adv-x="418" 
d="M58 83q12 0 22.5 7.5t22 31.5t24 69.5t28.5 121.5l61 286h259l-110 -516h57l-41 -193h-83l24 110h-227l-24 -110h-82l40 193h29zM359 514h-82l-43 -200q-21 -98 -38 -151t-35 -80h106z" />
    <glyph glyph-name="uni0436" unicode="&#x436;" horiz-adv-x="469" 
d="M365 0l-19 309h-4l-65 -309h-87l65 309h-4l-148 -309h-96l177 347l-37 252h93l25 -225h4l48 225h87l-48 -225h4l121 225h94l-145 -252l31 -347h-96z" />
    <glyph glyph-name="uni0437" unicode="&#x437;" horiz-adv-x="342" 
d="M188 82q14 0 23 1.5t15 7t10 15t7 25.5l23 106q3 12 3 21q0 17 -12 20.5t-39 3.5h-43l19 88h57q26 0 36 8.5t15 28.5l13 60q3 15 3 25q0 15 -9 19.5t-30 4.5q-15 0 -24 -2t-14.5 -7t-9 -14.5t-6.5 -25.5l-12 -53h-90l15 68q9 42 20 67t29 38.5t45 17.5t69 4
q67 0 94.5 -11.5t27.5 -51.5q0 -12 -2 -26.5t-6 -33.5l-15 -69q-5 -24 -14 -39.5t-19.5 -24.5t-22.5 -13t-24 -6q19 -8 32 -19t13 -42q0 -9 -1 -20t-4 -25l-24 -114q-9 -41 -19.5 -65t-29 -37.5t-46.5 -17.5t-71 -4q-32 0 -54.5 2t-36.5 9t-20.5 19.5t-6.5 32.5q0 24 9 65
l19 91h90l-16 -77q-4 -16 -4 -28q0 -14 9 -18t29 -4z" />
    <glyph glyph-name="uni0438" unicode="&#x438;" horiz-adv-x="382" 
d="M44 0l127 599h92l-79 -371h4l177 371h98l-127 -599h-91l76 362h-4l-180 -362h-93z" />
    <glyph glyph-name="uni0439" unicode="&#x439;" horiz-adv-x="382" 
d="M44 0zM327 642q-54 0 -86.5 25.5t-32.5 82.5q0 13 2 26.5t5 28.5h64q-6 -29 -6 -49q0 -28 14.5 -41t52.5 -13q36 0 63.5 22t41.5 81h64q-19 -87 -68 -125t-114 -38zM44 0l127 599h92l-79 -371h4l177 371h98l-127 -599h-91l76 362h-4l-180 -362h-93z" />
    <glyph glyph-name="uni043B" unicode="&#x43b;" horiz-adv-x="393" 
d="M235 315q-22 -102 -42.5 -164t-43.5 -95.5t-51 -44.5t-65 -11h-20l17 83h22q15 0 27 6.5t23 30.5t23.5 69.5t29.5 123.5l61 286h260l-127 -599h-98l109 515h-82z" />
    <glyph glyph-name="uni043C" unicode="&#x43c;" horiz-adv-x="495" 
d="M576 599l-127 -599h-86l87 414h-4l-156 -414h-85l18 417h-4l-88 -417h-87l127 599h140l-27 -414h4l149 414h139z" />
    <glyph glyph-name="uni043D" unicode="&#x43d;" horiz-adv-x="382" 
d="M337 0h-98l57 272h-97l-57 -272h-97l127 599h97l-51 -240h97l51 240h98z" />
    <glyph glyph-name="uni043F" unicode="&#x43f;" horiz-adv-x="382" 
d="M337 0h-98l109 515h-97l-109 -515h-97l127 599h292z" />
    <glyph glyph-name="uni0442" unicode="&#x442;" horiz-adv-x="319" 
d="M140 599h292l-18 -84h-97l-109 -515h-98l109 515h-97z" />
    <glyph glyph-name="uni0446" unicode="&#x446;" horiz-adv-x="407" 
d="M369 -110h-83l24 110h-265l127 599h97l-110 -516h97l110 516h98l-110 -516h56z" />
    <glyph glyph-name="uni0447" unicode="&#x447;" horiz-adv-x="367" 
d="M243 350q37 0 57 10l51 239h98l-127 -599h-98l59 278q-19 -5 -43.5 -8.5t-54.5 -3.5q-42 0 -60.5 11t-18.5 50q0 35 15 104l36 168h98l-35 -162q-9 -44 -9 -62q0 -17 7.5 -21t24.5 -4z" />
    <glyph glyph-name="uni0448" unicode="&#x448;" horiz-adv-x="529" 
d="M484 0h-439l127 599h96l-110 -516h77l110 516h93l-110 -516h77l110 516h96z" />
    <glyph glyph-name="uni0449" unicode="&#x449;" horiz-adv-x="553" 
d="M516 -110h-83l24 110h-412l127 599h96l-110 -516h77l110 516h93l-110 -516h77l110 516h96l-110 -516h56z" />
    <glyph glyph-name="uni044A" unicode="&#x44a;" horiz-adv-x="413" 
d="M139 599h184l-41 -194h39q70 0 98.5 -12t28.5 -52q0 -22 -8 -60l-33 -158q-9 -41 -20.5 -65t-31 -37t-48.5 -17t-72 -4h-138l109 514h-85zM252 83q15 0 24.5 1.5t15.5 6.5t9.5 13.5t6.5 22.5l33 153q2 8 3 15t1 12q0 14 -9 18t-32 4h-39l-52 -246h39z" />
    <glyph glyph-name="uni044B" unicode="&#x44b;" horiz-adv-x="552" 
d="M44 0zM199 83q15 0 24.5 1.5t15.5 6.5t9.5 13.5t6.5 22.5l33 153q2 9 3 16t1 12q0 14 -9 17.5t-32 3.5h-39l-52 -246h39zM270 599l-41 -194h39q35 0 59 -2.5t39 -9t22 -19t7 -32.5q0 -12 -2 -27t-6 -34l-33 -158q-9 -41 -20 -65t-29.5 -37t-48 -17t-74.5 -4h-138l127 599
h99zM507 0h-101l127 599h101z" />
    <glyph glyph-name="uni044C" unicode="&#x44c;" horiz-adv-x="360" 
d="M199 83q15 0 24.5 1.5t15.5 6.5t9.5 13.5t6.5 22.5l33 153q2 9 3 16t1 12q0 14 -9 17.5t-32 3.5h-39l-52 -246h39zM270 599l-41 -194h39q35 0 59 -2.5t39 -9t22 -19t7 -32.5q0 -12 -2 -27t-6 -34l-33 -158q-9 -41 -20 -65t-29.5 -37t-48 -17t-74.5 -4h-138l127 599h99z
" />
    <glyph glyph-name="uni044D" unicode="&#x44d;" horiz-adv-x="347" 
d="M194 359h98l22 104q4 17 4 30q0 15 -8.5 19.5t-29.5 4.5q-14 0 -23 -2t-15.5 -8t-10.5 -16.5t-7 -27.5l-10 -48h-90l14 67q9 42 20 67t29 38.5t45.5 17.5t68.5 4q33 0 56.5 -2.5t38 -9t21 -19t6.5 -32.5q0 -25 -9 -64l-78 -365q-9 -42 -20 -67t-29 -38.5t-46 -17.5
t-72 -4q-32 0 -54.5 2t-36.5 9t-20.5 19t-6.5 33q0 25 9 64l20 92h90l-16 -73q-4 -17 -4 -30q0 -16 9 -20.5t29 -4.5q15 0 24 2t15 8t9.5 17t7.5 28l29 136h-98z" />
    <glyph glyph-name="uni044E" unicode="&#x44e;" horiz-adv-x="525" 
d="M222 357h57l27 125q9 42 20 67t29.5 38.5t47.5 17.5t73 4q67 0 95.5 -11.5t28.5 -52.5q0 -13 -2 -28t-6 -35l-78 -365q-9 -42 -20 -67t-29.5 -38.5t-47.5 -17.5t-73 -4q-68 0 -96 11.5t-28 52.5q0 13 1.5 28t6.5 35l33 155h-57l-57 -272h-101l127 599h101zM491 471
q3 12 3 21q0 13 -8 17t-28 4q-29 0 -39.5 -8t-15.5 -34l-74 -344q-3 -12 -3 -21q0 -13 8.5 -17.5t29.5 -4.5q29 0 38.5 9t14.5 34z" />
    <glyph glyph-name="uni044F" unicode="&#x44f;" horiz-adv-x="366" 
d="M240 295l-128 -295h-101l141 302q-21 6 -30 19t-9 36q0 20 8 60l13 60q9 40 19.5 64t29 37t47.5 17t73 4h144l-127 -599h-98l62 295h-44zM284 521q-14 0 -23 -1.5t-14.5 -8t-9.5 -19t-8 -33.5l-6 -29q-6 -29 -6 -42q0 -14 7.5 -17.5t27.5 -3.5h48l32 154h-48z" />
    <glyph glyph-name="uni0452" unicode="&#x452;" horiz-adv-x="378" 
d="M337 471q1 5 1.5 8.5t0.5 7.5q0 25 -34 25q-25 0 -36.5 -8.5t-20.5 -22.5l-102 -481h-102l146 688h-44l13 61h44l8 41h102l-8 -41h146l-13 -61h-146l-27 -127q17 23 40 33t61 10q43 0 62.5 -14.5t19.5 -51.5q0 -25 -7 -56l-105 -492q-16 -72 -55 -107.5t-112 -35.5h-64
l18 83h51q26 0 39.5 14.5t20.5 45.5z" />
    <glyph glyph-name="uni0453" unicode="&#x453;" horiz-adv-x="272" 
d="M47 0zM320 805h113l-128 -166h-81zM368 515h-115l-109 -515h-97l127 599h212z" />
    <glyph glyph-name="uni0454" unicode="&#x454;" horiz-adv-x="347" 
d="M288 272h-98l-29 -136q-4 -17 -4 -31t8.5 -19t29.5 -5q14 0 23 2t15 8t10 16.5t8 28.5l16 73h90l-20 -92q-9 -42 -20.5 -67.5t-29.5 -38.5t-45 -17t-68 -4q-33 0 -56.5 2t-38 9t-21 19.5t-6.5 32.5q0 25 9 64l78 365q9 42 20 67t29 38.5t46 17.5t72 4q63 0 90 -11.5
t27 -52.5q0 -12 -2 -27.5t-6 -35.5l-14 -67h-90l10 48q2 9 3 16.5t1 12.5q0 16 -9 20.5t-29 4.5q-15 0 -24 -2t-15 -8t-9.5 -16.5t-7.5 -27.5l-22 -104h98z" />
    <glyph glyph-name="uni0459" unicode="&#x459;" horiz-adv-x="552" 
d="M234 314q-22 -102 -42 -164t-43 -95t-51 -44t-65 -11h-21l17 83h22q16 0 28 7t23.5 32.5t25 75.5t31.5 135l57 266h252l-41 -194h33q35 0 59 -2.5t39 -9t22 -19t7 -33.5q0 -22 -8 -60l-33 -158q-9 -41 -20 -65t-29.5 -37t-48 -17t-74.5 -4h-131l109 514h-75zM391 83
q15 0 24.5 1.5t15.5 6.5t9.5 13.5t6.5 22.5l33 153q2 8 3 15t1 12q0 14 -9 18t-32 4h-33l-52 -246h33z" />
    <glyph glyph-name="uni045A" unicode="&#x45a;" horiz-adv-x="532" 
d="M450 599l-42 -196h31q70 0 99.5 -11.5t29.5 -52.5q0 -12 -2 -26.5t-6 -32.5l-33 -157q-9 -41 -20 -65t-30 -37t-48.5 -17t-74.5 -4h-130l68 322h-82l-68 -322h-98l127 599h98l-42 -196h82l42 196h99zM372 83q30 0 40 8t16 36l32 146q2 8 3 15t1 12q0 14 -9 18t-32 4h-32
l-51 -239h32z" />
    <glyph glyph-name="uni045C" unicode="&#x45c;" horiz-adv-x="364" 
d="M44 0zM356 805h113l-128 -166h-81zM243 0l-29 308h-4l-65 -308h-101l127 599h101l-47 -221h4l131 221h111l-162 -250l48 -349h-114z" />
    <glyph glyph-name="uni045D" unicode="&#x45d;" horiz-adv-x="382" 
d="M44 0zM382 639h-74l-63 166h107zM44 0l127 599h92l-79 -371h4l177 371h98l-127 -599h-91l76 362h-4l-180 -362h-93z" />
    <glyph glyph-name="uni045E" unicode="&#x45e;" horiz-adv-x="378" 
d="M28 0zM360 599h102l-130 -609q-16 -73 -55 -108t-115 -35h-134l18 86h109q35 0 50 11.5t23 45.5l17 77q-16 -20 -39.5 -30.5t-57.5 -10.5q-45 0 -65 13.5t-20 50.5q0 21 8 58l96 451h102l-92 -432q-3 -14 -3 -23q0 -16 9 -21.5t29 -5.5q17 0 29.5 8.5t22.5 22.5zM326 642
q-54 0 -86.5 25.5t-32.5 82.5q0 13 2 26.5t5 28.5h64q-6 -29 -6 -49q0 -28 14.5 -41t52.5 -13q36 0 63.5 22t41.5 81h64q-19 -87 -68 -125t-114 -38z" />
    <glyph glyph-name="uni045F" unicode="&#x45f;" horiz-adv-x="382" 
d="M365 599h98l-127 -599h-104l-24 -110h-83l24 110h-105l127 599h98l-110 -516h96z" />
    <glyph glyph-name="uni0490" unicode="&#x490;" horiz-adv-x="289" 
d="M422 694h-119l-147 -694h-111l167 790h136l31 142h94z" />
    <glyph glyph-name="uni0491" unicode="&#x491;" horiz-adv-x="272" 
d="M368 515h-115l-109 -515h-97l127 599h129l23 110h83z" />
    <glyph glyph-name="uni0492" unicode="&#x492;" horiz-adv-x="289" 
d="M363 434h-116l-92 -434h-111l92 434h-44l20 93h44l55 263h231l-20 -97h-120l-35 -166h116z" />
    <glyph glyph-name="uni0493" unicode="&#x493;" horiz-adv-x="274" 
d="M318 285h-111l-60 -285h-98l60 285h-43l14 65h43l53 249h213l-18 -84h-115l-35 -165h111z" />
    <glyph glyph-name="uni0496" unicode="&#x496;" horiz-adv-x="597" 
d="M497 790l-63 -299h4l157 299h107l-185 -334l26 -360h60l-51 -238h-93l31 142h-49l-21 406h-4l-86 -406h-103l86 406h-5l-192 -406h-110l225 456l-43 334h108l30 -299h5l63 299h103z" />
    <glyph glyph-name="uni0497" unicode="&#x497;" horiz-adv-x="505" 
d="M468 -110h-83l24 110h-44l-19 309h-4l-65 -309h-87l65 309h-4l-148 -309h-96l177 347l-37 252h93l25 -225h4l48 225h87l-48 -225h4l121 225h94l-145 -252l23 -264h56z" />
    <glyph glyph-name="uni0498" unicode="&#x498;" horiz-adv-x="391" 
d="M176 172q-4 -18 -6.5 -31t-2.5 -23q0 -17 9.5 -23t32.5 -6q30 0 43.5 12.5t21.5 50.5l48 227q2 8 3 15.5t1 13.5q0 17 -9 24t-32 7h-68l19 88h68q29 0 41.5 11.5t18.5 38.5l12 58q5 25 5 36q0 18 -9.5 23.5t-31.5 5.5q-17 0 -28 -2.5t-18 -10t-11.5 -20t-8.5 -33.5
l-12 -57h-107l12 57q12 54 25.5 87t34.5 50.5t52.5 23t78.5 5.5q39 0 66 -3.5t44 -12.5t24.5 -24.5t7.5 -39.5q0 -17 -3 -36.5t-8 -44.5l-10 -49q-6 -31 -17.5 -51t-24.5 -32t-27 -18t-26 -8q22 -8 36.5 -22t14.5 -51q0 -26 -9 -66l-40 -190q-11 -50 -23.5 -81.5t-32.5 -49
t-49.5 -24t-73.5 -7.5q30 -14 42.5 -29t12.5 -38q0 -21 -5.5 -40.5t-18 -34.5t-33 -24t-49.5 -9h-76l17 78h36q29 0 41 15.5t12 35.5q0 10 -6.5 23t-26.5 24q-54 2 -76.5 17.5t-22.5 59.5q0 33 12 89l45 212h107z" />
    <glyph glyph-name="uni0499" unicode="&#x499;" horiz-adv-x="342" 
d="M188 82q14 0 23 1.5t15 7t10 15t7 25.5l23 106q3 12 3 21q0 17 -12 20.5t-39 3.5h-43l19 88h57q26 0 36 8.5t15 28.5l13 60q3 15 3 25q0 15 -9 19.5t-30 4.5q-15 0 -24 -2t-14.5 -7t-9 -14.5t-6.5 -25.5l-12 -53h-90l15 68q9 42 20 67t29 38.5t45 17.5t69 4
q67 0 94.5 -11.5t27.5 -51.5q0 -12 -2 -26.5t-6 -33.5l-15 -69q-5 -24 -14 -39.5t-19.5 -24.5t-22.5 -13t-24 -6q19 -8 32 -19t13 -42q0 -9 -1 -20t-4 -25l-24 -114q-8 -38 -18 -61.5t-26 -37t-40 -19t-60 -6.5q30 -14 42.5 -29t12.5 -38q0 -21 -5.5 -40.5t-18 -34.5
t-33 -24t-49.5 -9h-76l17 78h36q29 0 41.5 15.5t12.5 36.5q0 11 -8 22t-29 24q-45 2 -64 14.5t-19 46.5q0 25 9 66l19 91h90l-16 -77q-4 -16 -4 -28q0 -14 9 -18t29 -4z" />
    <glyph glyph-name="uni049A" unicode="&#x49a;" horiz-adv-x="444" 
d="M550 790l-187 -328l28 -366h59l-51 -238h-93l31 142h-63l-21 415h-5l-88 -415h-116l167 790h116l-63 -299h5l160 299h121z" />
    <glyph glyph-name="uni049B" unicode="&#x49b;" horiz-adv-x="398" 
d="M361 -110h-83l24 110h-59l-29 308h-4l-65 -308h-101l127 599h101l-47 -221h4l131 221h111l-162 -250l36 -266h57z" />
    <glyph glyph-name="uni04A0" unicode="&#x4a0;" horiz-adv-x="465" 
d="M323 491h5l160 299h121l-187 -328l36 -462h-125l-21 415h-5l-88 -415h-116l147 693h-90l20 97h206z" />
    <glyph glyph-name="uni04A1" unicode="&#x4a1;" horiz-adv-x="416" 
d="M276 378h4l131 221h111l-162 -250l48 -349h-114l-29 308h-4l-65 -308h-101l109 514h-83l18 85h184z" />
    <glyph glyph-name="uni04A2" unicode="&#x4a2;" horiz-adv-x="442" 
d="M399 -142h-94l31 142h-75l92 434h-105l-92 -434h-111l167 790h111l-55 -262h105l55 262h112l-147 -694h57z" />
    <glyph glyph-name="uni04A3" unicode="&#x4a3;" horiz-adv-x="407" 
d="M369 -110h-83l24 110h-71l57 272h-97l-57 -272h-97l127 599h97l-51 -240h97l51 240h98l-110 -516h56z" />
    <glyph glyph-name="uni04AA" unicode="&#x4aa;" horiz-adv-x="394" 
d="M344 455l38 179q2 12 4 21t2 16q0 16 -9.5 21t-30.5 5q-16 0 -26 -2.5t-17 -9.5t-11.5 -19.5t-8.5 -31.5l-101 -477q-6 -26 -6 -38q0 -17 9 -22t32 -5q15 0 25 2.5t17 9.5t11 19.5t9 33.5l39 183h111l-39 -183q-11 -53 -24 -85t-32.5 -50t-48 -24.5t-70.5 -7.5
q29 -13 41.5 -28.5t12.5 -37.5q0 -21 -5.5 -40.5t-18 -34.5t-32.5 -24.5t-49 -9.5h-76l17 78h35q31 0 42.5 15t11.5 36q0 11 -6.5 23t-27.5 24q-57 2 -81 18t-24 60q0 32 12 88l101 477q12 54 26 87t36.5 50.5t55.5 23t82 5.5q36 0 62 -3t42 -11t23.5 -24t7.5 -41
q0 -33 -12 -87l-38 -179h-111z" />
    <glyph glyph-name="uni04AB" unicode="&#x4ab;" horiz-adv-x="347" 
d="M301 377l20 94q3 12 3 21q0 13 -8 17t-28 4q-29 0 -38.5 -8t-14.5 -34l-74 -344q-3 -12 -3 -21q0 -13 8 -17.5t28 -4.5q28 0 38 9t15 34l33 155h93l-35 -165q-8 -39 -18.5 -63.5t-26 -38t-38 -18.5t-55.5 -6q29 -13 41 -28t12 -38q0 -21 -5.5 -40.5t-18 -35t-32.5 -25
t-49 -9.5h-76l17 78h35q31 0 42.5 15.5t11.5 35.5q0 10 -6.5 23t-26.5 24q-51 2 -72.5 14.5t-21.5 48.5q0 24 9 63l78 365q9 41 20 66t29 38.5t46 18t70 4.5q67 0 94.5 -12t27.5 -51q0 -13 -2.5 -28.5t-6.5 -35.5l-22 -105h-93z" />
    <glyph glyph-name="uni04B2" unicode="&#x4b2;" horiz-adv-x="415" 
d="M523 790l-155 -376v-318h53l-51 -238h-93l31 142h-57l9 353l-139 -353h-115l173 414v376h117v-303l120 303h107z" />
    <glyph glyph-name="uni04B3" unicode="&#x4b3;" horiz-adv-x="370" 
d="M446 599l-132 -285l12 -231h48l-41 -193h-83l24 110h-52v266l-113 -266h-103l150 316l-18 283h106l6 -229l100 229h96z" />
    <glyph glyph-name="uni04B6" unicode="&#x4b6;" horiz-adv-x="416" 
d="M284 504q37 0 60 12l58 274h111l-147 -694h56l-51 -238h-93l31 142h-74l89 420q-21 -8 -47 -12t-58 -4q-44 0 -66 13.5t-22 59.5q0 36 13 94l46 219h111l-38 -180q-12 -54 -12 -77q0 -17 7.5 -23t25.5 -6z" />
    <glyph glyph-name="uni04B7" unicode="&#x4b7;" horiz-adv-x="393" 
d="M243 350q37 0 57 10l51 239h98l-110 -516h57l-41 -193h-83l24 110h-72l59 278q-19 -5 -43.5 -8.5t-54.5 -3.5q-42 0 -60.5 11t-18.5 50q0 35 15 104l36 168h98l-35 -162q-9 -44 -9 -62q0 -17 7.5 -21t24.5 -4z" />
    <glyph glyph-name="uni04BA" unicode="&#x4ba;" horiz-adv-x="386" 
d="M301 449q-17 0 -32.5 -3t-26.5 -9l-92 -437h-111l167 790h111l-54 -257q21 8 46.5 12t57.5 4q47 0 68 -13t21 -56q0 -34 -14 -99l-80 -381h-111l79 372q6 30 6 46q0 20 -9 25.5t-26 5.5z" />
    <glyph glyph-name="uni04C3" unicode="&#x4c3;" horiz-adv-x="404" 
d="M262 496h4l170 294h112l-197 -329q25 -91 37 -186.5t12 -175.5q0 -57 -6.5 -103.5t-25 -79.5t-51.5 -51t-87 -18h-84l18 83h63q22 0 35 6.5t19.5 22.5t8 41.5t1.5 63.5q0 33 -2 73t-7.5 85t-13.5 93t-20 96h-4l-87 -411h-113l167 790h113z" />
    <glyph glyph-name="uni04C4" unicode="&#x4c4;" horiz-adv-x="364" 
d="M221 376h4l144 223h100l-168 -250q28 -105 41 -177.5t13 -126.5q0 -41 -8 -77t-27 -63t-51 -42.5t-81 -15.5h-62l18 83h49q42 0 53 26t11 75q0 39 -9.5 105.5t-36.5 173.5h-4l-65 -310h-98l127 599h98z" />
    <glyph glyph-name="uni04C7" unicode="&#x4c7;" horiz-adv-x="417" 
d="M353 434h-106l-92 -434h-111l167 790h111l-55 -263h106l55 263h111l-170 -800q-16 -72 -57 -107.5t-119 -35.5h-70l18 83h55q27 0 41 14.5t21 45.5z" />
    <glyph glyph-name="uni04C8" unicode="&#x4c8;" horiz-adv-x="382" 
d="M295 271h-96l-57 -271h-98l127 599h98l-51 -241h96l51 241h98l-130 -609q-16 -72 -53.5 -107.5t-108.5 -35.5h-63l18 83h49q26 0 39.5 14.5t20.5 45.5z" />
    <glyph glyph-name="uni04E8" unicode="&#x4e8;" 
d="M398 157q-12 -55 -25.5 -88t-35.5 -50.5t-55.5 -23t-84.5 -5.5q-38 0 -65 3t-43.5 11t-24 23.5t-7.5 40.5q0 33 12 89l101 477q12 55 25.5 87.5t35 50t55 23t84.5 5.5q38 0 65 -3t44 -11t24.5 -24t7.5 -41q0 -33 -12 -87zM341 435h-98l-59 -278q-6 -26 -6 -39
q0 -16 9 -21t31 -5q16 0 27 2.5t17.5 10t11 20t8.5 32.5zM263 527h98l22 107q2 12 4 21t2 16q0 16 -9.5 21t-30.5 5q-32 0 -44 -12t-20 -51z" />
    <glyph glyph-name="uni04E9" unicode="&#x4e9;" horiz-adv-x="358" 
d="M346 117q-9 -42 -20 -67t-30 -38.5t-47.5 -17.5t-72.5 -4q-68 0 -96 11.5t-28 52.5q0 13 1.5 28t6.5 35l78 365q9 42 20 67t29.5 38.5t47.5 17.5t73 4q67 0 95.5 -11.5t28.5 -52.5q0 -13 -2 -28t-6 -35zM281 273h-88l-32 -146q-3 -12 -3 -21q0 -13 8.5 -17.5t29.5 -4.5
q29 0 38.5 9t14.5 34zM205 334h88l30 137q3 12 3 21q0 13 -8 17t-28 4q-29 0 -39.5 -8t-15.5 -34z" />
    <glyph glyph-name="uni04EE" unicode="&#x4ee;" horiz-adv-x="375" 
d="M35 0zM524 899h-292l13 61h292zM290 790l-23 -400h4l145 400h114l-279 -676q-14 -32 -26.5 -54t-29 -35.5t-38 -19t-52.5 -5.5h-70l20 96h47q22 0 33.5 6.5t19.5 26.5l20 54v607h115z" />
    <glyph glyph-name="uni04EF" unicode="&#x4ef;" horiz-adv-x="378" 
d="M28 0zM360 599h102l-130 -609q-16 -73 -55 -108t-115 -35h-134l18 86h109q35 0 50 11.5t23 45.5l17 77q-16 -20 -39.5 -30.5t-57.5 -10.5q-45 0 -65 13.5t-20 50.5q0 21 8 58l96 451h102l-92 -432q-3 -14 -3 -23q0 -16 9 -21.5t29 -5.5q17 0 29.5 8.5t22.5 22.5zM486 708
h-292l13 61h292z" />
    <glyph glyph-name="uni0512" unicode="&#x512;" horiz-adv-x="452" 
d="M443 694h-98l-59 -279q-29 -134 -54.5 -216t-53.5 -126t-61.5 -58.5t-76.5 -14.5h-27l20 96h27q18 0 32.5 9.5t29.5 42t32 95.5t40 170l80 377h301l-170 -800q-16 -72 -58 -107.5t-122 -35.5h-71l18 83h56q29 0 43.5 14.5t21.5 45.5z" />
    <glyph glyph-name="uni0513" unicode="&#x513;" horiz-adv-x="393" 
d="M360 515h-82l-43 -200q-22 -102 -42.5 -164t-43.5 -95.5t-51 -44.5t-65 -11h-20l17 83h22q15 0 27 6.5t23 30.5t23.5 69.5t29.5 123.5l61 286h260l-130 -609q-16 -72 -54 -107.5t-108 -35.5h-63l18 83h50q26 0 39 14.5t20 45.5z" />
    <glyph glyph-name="uni058F" unicode="&#x58f;" horiz-adv-x="372" 
d="M393 140h-37l-29 -140h-112l29 140h-140l13 59h140l21 101h-140l13 59h140l58 274l3.5 21.5t1.5 17.5q0 17 -9 22.5t-32 5.5q-15 0 -25.5 -2.5t-17 -9.5t-11.5 -20t-9 -35l-39 -183h-101l39 183q12 55 25 88.5t34 50.5t52 22.5t78 5.5q37 0 62.5 -3t41.5 -11.5
t23.5 -23.5t7.5 -40q0 -34 -12 -89l-58 -274h37l-13 -59h-37l-21 -101h37z" />
    <glyph glyph-name="uni1E0C" unicode="&#x1e0c;" horiz-adv-x="407" 
d="M44 0zM407 162q-11 -53 -24.5 -85t-35.5 -49t-55 -22.5t-84 -5.5h-164l167 790h164q39 0 66 -3t44 -11.5t24.5 -23.5t7.5 -40q0 -17 -3 -37t-8 -46zM390 629l3.5 19.5t1.5 15.5q0 16 -9 21t-32 5h-49l-125 -591h49q16 0 26 2.5t16.5 9t11 19t8.5 32.5zM211 -185h-101
l22 104h101z" />
    <glyph glyph-name="uni1E0D" unicode="&#x1e0d;" horiz-adv-x="366" 
d="M51 0zM138 482q7 35 16.5 58.5t23 37.5t33.5 20t50 6q34 0 51.5 -11t25.5 -31l48 228h103l-167 -790h-95l9 43q-20 -26 -44 -37t-60 -11q-44 0 -62.5 12.5t-18.5 46.5q0 24 9 63zM324 481q-7 31 -39 31q-26 0 -36 -10t-16 -40l-70 -326q-3 -15 -3 -25q0 -15 7.5 -20
t27.5 -5q17 0 29.5 8.5t21.5 22.5zM193 -185h-101l22 104h101z" />
    <glyph glyph-name="uni1E12" unicode="&#x1e12;" horiz-adv-x="407" 
d="M16 0zM407 162q-11 -53 -24.5 -85t-35.5 -49t-55 -22.5t-84 -5.5h-164l167 790h164q39 0 66 -3t44 -11.5t24.5 -23.5t7.5 -40q0 -17 -3 -37t-8 -46zM390 629l3.5 19.5t1.5 15.5q0 16 -9 21t-32 5h-49l-125 -591h49q16 0 26 2.5t16.5 9t11 19t8.5 32.5zM306 -186h-70
l-50 109l-96 -109h-74l138 166h87z" />
    <glyph glyph-name="uni1E13" unicode="&#x1e13;" horiz-adv-x="366" 
d="M0 0zM138 482q7 35 16.5 58.5t23 37.5t33.5 20t50 6q34 0 51.5 -11t25.5 -31l48 228h103l-167 -790h-95l9 43q-20 -26 -44 -37t-60 -11q-44 0 -62.5 12.5t-18.5 46.5q0 24 9 63zM324 481q-7 31 -39 31q-26 0 -36 -10t-16 -40l-70 -326q-3 -15 -3 -25q0 -15 7.5 -20
t27.5 -5q17 0 29.5 8.5t21.5 22.5zM288 -186h-70l-50 109l-96 -109h-74l138 166h87z" />
    <glyph glyph-name="uni1E24" unicode="&#x1e24;" horiz-adv-x="417" 
d="M44 0zM375 0h-116l91 432h-100l-91 -432h-115l167 790h115l-55 -261h100l55 261h116zM219 -185h-101l22 104h101z" />
    <glyph glyph-name="uni1E25" unicode="&#x1e25;" horiz-adv-x="378" 
d="M44 0zM146 0h-102l167 790h102l-48 -229q31 43 97 43q46 0 66 -14t20 -51q0 -26 -7 -57l-102 -482h-102l100 471q1 5 1.5 8.5t0.5 7.5q0 25 -38 25q-20 0 -32 -8.5t-21 -22.5zM200 -185h-101l22 104h101z" />
    <glyph glyph-name="uni1E3C" unicode="&#x1e3c;" horiz-adv-x="289" 
d="M0 0zM277 0h-233l167 790h115l-146 -690h118zM266 -186h-70l-50 109l-96 -109h-74l138 166h87z" />
    <glyph glyph-name="uni1E3D" unicode="&#x1e3d;" horiz-adv-x="236" 
d="M0 0zM170 0h-102l167 790h102zM223 -186h-70l-50 109l-96 -109h-74l138 166h87z" />
    <glyph glyph-name="uni1E44" unicode="&#x1e44;" horiz-adv-x="432" 
d="M44 0zM268 0l-17 493h-4l-104 -493h-99l167 790h125l9 -507h4l107 507h100l-167 -790h-121zM452 877h-101l22 104h101z" />
    <glyph glyph-name="uni1E45" unicode="&#x1e45;" horiz-adv-x="378" 
d="M44 0zM146 0h-102l127 599h95l-9 -40q16 22 41 33.5t63 11.5q46 0 66.5 -14t20.5 -51q0 -26 -7 -57l-102 -482h-102l100 471q1 5 1.5 8.5t0.5 7.5q0 25 -38 25q-20 0 -32 -8.5t-21 -22.5zM385 686h-101l22 104h101z" />
    <glyph glyph-name="uni1E4A" unicode="&#x1e4a;" horiz-adv-x="432" 
d="M31 0zM268 0l-17 493h-4l-104 -493h-99l167 790h125l9 -507h4l107 507h100l-167 -790h-121zM321 -186h-70l-50 109l-96 -109h-74l138 166h87z" />
    <glyph glyph-name="uni1E4B" unicode="&#x1e4b;" horiz-adv-x="378" 
d="M4 0zM146 0h-102l127 599h95l-9 -40q16 22 41 33.5t63 11.5q46 0 66.5 -14t20.5 -51q0 -26 -7 -57l-102 -482h-102l100 471q1 5 1.5 8.5t0.5 7.5q0 25 -38 25q-20 0 -32 -8.5t-21 -22.5zM294 -186h-70l-50 109l-96 -109h-74l138 166h87z" />
    <glyph glyph-name="uni1E5A" unicode="&#x1e5a;" horiz-adv-x="409" 
d="M44 0zM159 0h-115l167 790h164q39 0 66 -3t44 -11.5t24.5 -24t7.5 -40.5q0 -29 -11 -82l-17 -83q-6 -31 -17.5 -50.5t-24.5 -31.5t-26.5 -17.5t-25.5 -8.5l-1 -4q23 -6 37 -19.5t14 -47.5q0 -21 -6 -52l-66 -315h-116l70 333q2 9 3 16.5t1 13.5q0 15 -8.5 21t-29.5 6h-52
zM261 481h52q28 0 39.5 11t17.5 40l20 97q5 25 5 35q0 15 -9 20.5t-32 5.5h-49zM217 -185h-101l22 104h101z" />
    <glyph glyph-name="uni1E5B" unicode="&#x1e5b;" horiz-adv-x="337" 
d="M4 0zM146 0h-102l127 599h95l-9 -40q15 20 40.5 32.5t62.5 12.5q39 0 57 -13.5t18 -48.5q0 -22 -8 -60l-32 -149h-92l29 137q2 5 2 10v9q0 13 -7.5 18t-27.5 5q-33 0 -52 -33zM105 -185h-101l22 104h101z" />
    <glyph glyph-name="uni1E62" unicode="&#x1e62;" horiz-adv-x="395" 
d="M59 0zM360 534l21 98q6 25 6 40q0 16 -9 20.5t-32 4.5q-17 0 -27 -2.5t-16.5 -9t-11 -19.5t-8.5 -34l-17 -78q-3 -15 -3 -25q0 -16 11 -26t40 -27q34 -20 56.5 -35t36 -29t19.5 -28.5t6 -32.5q0 -27 -9 -67l-27 -127q-12 -55 -25.5 -88t-35.5 -50.5t-55.5 -23t-84.5 -5.5
q-36 0 -62 3t-42.5 11.5t-24 24t-7.5 41.5q0 33 12 87l33 157h112l-33 -157q-6 -26 -6 -39q0 -16 9 -21t31 -5q16 0 26 2.5t17 9.5t11 19.5t9 33.5l25 119l3.5 21t1.5 17q0 17 -10 28.5t-39 28.5q-34 19 -57 34.5t-36.5 30t-19 29t-5.5 31.5q0 13 2.5 27.5t6.5 32.5l16 76
q12 55 25 88t35 51t55.5 23.5t84.5 5.5q37 0 63 -3t42.5 -11.5t24 -24t7.5 -40.5q0 -34 -12 -89l-21 -98h-112zM208 -185h-101l22 104h101z" />
    <glyph glyph-name="uni1E63" unicode="&#x1e63;" horiz-adv-x="354" 
d="M50 0zM311 426l10 45q3 13 3 22q0 12 -8.5 16.5t-28.5 4.5q-30 0 -38.5 -8.5t-14.5 -34.5l-11 -48q-3 -12 -3 -20q0 -13 8.5 -21.5t32.5 -19.5q33 -15 54.5 -27t34 -23t18 -22.5t5.5 -25.5q0 -13 -5 -35l-23 -111q-9 -42 -20 -67.5t-29.5 -39t-47.5 -17.5t-73 -4
q-68 0 -96.5 11.5t-28.5 52.5q0 25 9 64l19 92h100l-17 -81q-3 -14 -3 -22q0 -14 8.5 -18t29.5 -4q28 0 37.5 9t14.5 35l15 73q3 12 3 21q0 14 -11 23t-40 22q-28 12 -47 22t-31 20.5t-17.5 23t-5.5 29.5q0 18 6 45l16 73q9 42 20 67.5t29.5 39t47.5 17.5t74 4
q67 0 95.5 -11.5t28.5 -52.5q0 -25 -9 -64l-12 -55h-99zM187 -185h-101l22 104h101z" />
    <glyph glyph-name="uni1E6C" unicode="&#x1e6c;" horiz-adv-x="311" 
d="M65 0zM447 694h-86l-147 -694h-115l147 694h-87l20 96h288zM166 -185h-101l22 104h101z" />
    <glyph glyph-name="uni1E6D" unicode="&#x1e6d;" horiz-adv-x="240" 
d="M39 0zM327 516h-70l-80 -376q-3 -15 -3 -24q0 -17 9.5 -23t32.5 -6h19l-18 -87h-26q-68 0 -96 20t-28 63q0 10 1 21t4 23l83 389h-37l18 83h37l39 182h102l-39 -182h70zM140 -185h-101l22 104h101z" />
    <glyph glyph-name="Wgrave" unicode="&#x1e80;" horiz-adv-x="574" 
d="M82 0zM289 790l-99 -621h4l185 621h147l-87 -621h4l175 621h118l-259 -790h-146l90 627h-4l-187 -627h-148l94 790h113zM519 830h-74l-63 166h107z" />
    <glyph glyph-name="wgrave" unicode="&#x1e81;" horiz-adv-x="532" 
d="M74 0zM239 599l-65 -448h4l147 448h133l-50 -448h4l133 448h111l-210 -599h-138l57 455h-4l-148 -455h-139l58 599h107zM457 639h-74l-63 166h107z" />
    <glyph glyph-name="Wacute" unicode="&#x1e82;" horiz-adv-x="574" 
d="M82 0zM289 790l-99 -621h4l185 621h147l-87 -621h4l175 621h118l-259 -790h-146l90 627h-4l-187 -627h-148l94 790h113zM502 996h113l-128 -166h-81z" />
    <glyph glyph-name="wacute" unicode="&#x1e83;" horiz-adv-x="532" 
d="M74 0zM239 599l-65 -448h4l147 448h133l-50 -448h4l133 448h111l-210 -599h-138l57 455h-4l-148 -455h-139l58 599h107zM440 805h113l-128 -166h-81z" />
    <glyph glyph-name="Wdieresis" unicode="&#x1e84;" horiz-adv-x="574" 
d="M82 0zM289 790l-99 -621h4l185 621h147l-87 -621h4l175 621h118l-259 -790h-146l90 627h-4l-187 -627h-148l94 790h113zM614 877h-102l22 104h102zM433 877h-101l22 104h101z" />
    <glyph glyph-name="wdieresis" unicode="&#x1e85;" horiz-adv-x="532" 
d="M74 0zM239 599l-65 -448h4l147 448h133l-50 -448h4l133 448h111l-210 -599h-138l57 455h-4l-148 -455h-139l58 599h107zM553 686h-102l22 104h102zM372 686h-101l22 104h101z" />
    <glyph glyph-name="uni1E92" unicode="&#x1e92;" horiz-adv-x="313" 
d="M18 0zM295 0h-277l21 100l282 594h-140l20 96h259l-16 -78l-282 -613h154zM167 -185h-101l22 104h101z" />
    <glyph glyph-name="uni1E93" unicode="&#x1e93;" horiz-adv-x="299" 
d="M15 0zM284 0h-269l18 87l253 429h-144l18 83h248l-17 -77l-249 -436h160zM161 -185h-101l22 104h101z" />
    <glyph glyph-name="uni1E9E" unicode="&#x1e9e;" horiz-adv-x="408" 
d="M422 697h-74q-17 0 -27.5 -3t-18 -13.5t-14 -31.5t-13.5 -56l-126 -593h-109l132 623q12 55 25.5 88t35.5 50.5t54 23t81 5.5h175l-16 -76l-128 -200q32 -5 46.5 -24.5t14.5 -53.5q0 -14 -2 -30t-6 -35l-44 -209q-11 -50 -23.5 -81.5t-32 -49.5t-48.5 -24.5t-73 -6.5h-42
l21 99h30q25 0 38.5 12.5t21.5 50.5l43 203q9 43 9 62q0 20 -9 25t-29 5h-17l14 66z" />
    <glyph glyph-name="uni1EA0" unicode="&#x1ea0;" 
d="M38 0zM247 0l37 176h-97l-37 -176h-112l134 634q12 55 25.5 87.5t35.5 50t54.5 23t81.5 5.5q37 0 63.5 -3.5t43 -12.5t24 -25t7.5 -41q0 -31 -11 -84l-134 -634h-115zM346 697q-15 0 -25.5 -2.5t-17 -9t-11 -19t-8.5 -32.5l-77 -364h97l77 364q5 23 5 33q0 18 -8.5 24
t-31.5 6zM210 -185h-101l22 104h101z" />
    <glyph glyph-name="uni1EA1" unicode="&#x1ea1;" horiz-adv-x="353" 
d="M50 0zM159 -10q-30 0 -50.5 2t-33.5 8.5t-19 18t-6 30.5q0 20 8 57l31 145q11 54 37 79t76 25h19q34 0 47.5 -2.5t19.5 -6.5l26 124q4 16 4 29q0 14 -9 18.5t-29 4.5q-26 0 -36 -11t-16 -41l-12 -59h-93l15 71q9 42 20 67t28.5 38.5t44.5 17.5t68 4q68 0 97 -11.5
t29 -52.5q0 -12 -2.5 -27.5t-6.5 -35.5l-102 -482q-20 -5 -57.5 -7.5t-97.5 -2.5zM185 74q22 0 32 0.5t14 1.5l41 196q-10 6 -42 6q-15 0 -24 -2.5t-14.5 -8.5t-9 -16.5t-6.5 -25.5l-20 -94l-3.5 -19.5t-1.5 -15.5q0 -13 7 -17.5t27 -4.5zM188 -185h-101l22 104h101z" />
    <glyph glyph-name="uni1EA2" unicode="&#x1ea2;" 
d="M38 0zM247 0l37 176h-97l-37 -176h-112l134 634q12 55 25.5 87.5t35.5 50t54.5 23t81.5 5.5q37 0 63.5 -3.5t43 -12.5t24 -25t7.5 -41q0 -31 -11 -84l-134 -634h-115zM346 697q-15 0 -25.5 -2.5t-17 -9t-11 -19t-8.5 -32.5l-77 -364h97l77 364q5 23 5 33q0 18 -8.5 24
t-31.5 6zM342 818l4 21q3 16 10.5 23t25.5 18l42 23q10 6 11 16l4 17q0 2 0.5 3.5t0.5 3.5q0 8 -8 11.5t-30 3.5q-24 0 -33.5 -5t-12.5 -19l-5 -26h-50l5 26q4 21 10.5 33t18.5 18.5t30.5 8.5t46.5 2q46 0 64 -6t18 -26q0 -9 -3 -21l-4 -22q-2 -11 -5.5 -18.5t-8.5 -13
t-12.5 -10.5t-17.5 -11l-36 -21q-12 -7 -13 -16l-3 -13h-49z" />
    <glyph glyph-name="uni1EA3" unicode="&#x1ea3;" horiz-adv-x="353" 
d="M50 0zM159 -10q-30 0 -50.5 2t-33.5 8.5t-19 18t-6 30.5q0 20 8 57l31 145q11 54 37 79t76 25h19q34 0 47.5 -2.5t19.5 -6.5l26 124q4 16 4 29q0 14 -9 18.5t-29 4.5q-26 0 -36 -11t-16 -41l-12 -59h-93l15 71q9 42 20 67t28.5 38.5t44.5 17.5t68 4q68 0 97 -11.5
t29 -52.5q0 -12 -2.5 -27.5t-6.5 -35.5l-102 -482q-20 -5 -57.5 -7.5t-97.5 -2.5zM185 74q22 0 32 0.5t14 1.5l41 196q-10 6 -42 6q-15 0 -24 -2.5t-14.5 -8.5t-9 -16.5t-6.5 -25.5l-20 -94l-3.5 -19.5t-1.5 -15.5q0 -13 7 -17.5t27 -4.5zM285 627l4 21q3 16 10.5 23
t25.5 18l42 23q10 6 11 16l4 17q0 2 0.5 3.5t0.5 3.5q0 8 -8 11.5t-30 3.5q-24 0 -33.5 -5t-12.5 -19l-5 -26h-50l5 26q4 21 10.5 33t18.5 18.5t30.5 8.5t46.5 2q46 0 64 -6t18 -26q0 -9 -3 -21l-4 -22q-2 -11 -5.5 -18.5t-8.5 -13t-12.5 -10.5t-17.5 -11l-36 -21
q-12 -7 -13 -16l-3 -13h-49z" />
    <glyph glyph-name="uni1EA4" unicode="&#x1ea4;" 
d="M38 0zM247 0l37 176h-97l-37 -176h-112l134 634q12 55 25.5 87.5t35.5 50t54.5 23t81.5 5.5q37 0 63.5 -3.5t43 -12.5t24 -25t7.5 -41q0 -31 -11 -84l-134 -634h-115zM346 697q-15 0 -25.5 -2.5t-17 -9t-11 -19t-8.5 -32.5l-77 -364h97l77 364q5 23 5 33q0 18 -8.5 24
t-31.5 6zM586.857 1069.78h111.09l-125.836 -118.938h-79.6309zM563.42 815.694h-74.6904l-53.3516 88.6494l-102.434 -88.6494h-78.959l147.248 135.007h92.8311z" />
    <glyph glyph-name="uni1EA5" unicode="&#x1ea5;" horiz-adv-x="353" 
d="M50 0zM159 -10q-30 0 -50.5 2t-33.5 8.5t-19 18t-6 30.5q0 20 8 57l31 145q11 54 37 79t76 25h19q34 0 47.5 -2.5t19.5 -6.5l26 124q4 16 4 29q0 14 -9 18.5t-29 4.5q-26 0 -36 -11t-16 -41l-12 -59h-93l15 71q9 42 20 67t28.5 38.5t44.5 17.5t68 4q68 0 97 -11.5
t29 -52.5q0 -12 -2.5 -27.5t-6.5 -35.5l-102 -482q-20 -5 -57.5 -7.5t-97.5 -2.5zM185 74q22 0 32 0.5t14 1.5l41 196q-10 6 -42 6q-15 0 -24 -2.5t-14.5 -8.5t-9 -16.5t-6.5 -25.5l-20 -94l-3.5 -19.5t-1.5 -15.5q0 -13 7 -17.5t27 -4.5zM393 996h113l-128 -166h-81z
M457 639h-70l-50 109l-96 -109h-74l138 166h87z" />
    <glyph glyph-name="uni1EA6" unicode="&#x1ea6;" 
d="M38 0zM247 0l37 176h-97l-37 -176h-112l134 634q12 55 25.5 87.5t35.5 50t54.5 23t81.5 5.5q37 0 63.5 -3.5t43 -12.5t24 -25t7.5 -41q0 -31 -11 -84l-134 -634h-115zM346 697q-15 0 -25.5 -2.5t-17 -9t-11 -19t-8.5 -32.5l-77 -364h97l77 364q5 23 5 33q0 18 -8.5 24
t-31.5 6zM621.596 950.217h-72.7578l-61.9434 119.557h105.204zM563.42 815.694h-74.6904l-53.3516 88.6494l-102.434 -88.6494h-78.959l147.248 135.007h92.8311z" />
    <glyph glyph-name="uni1EA7" unicode="&#x1ea7;" horiz-adv-x="353" 
d="M50 0zM159 -10q-30 0 -50.5 2t-33.5 8.5t-19 18t-6 30.5q0 20 8 57l31 145q11 54 37 79t76 25h19q34 0 47.5 -2.5t19.5 -6.5l26 124q4 16 4 29q0 14 -9 18.5t-29 4.5q-26 0 -36 -11t-16 -41l-12 -59h-93l15 71q9 42 20 67t28.5 38.5t44.5 17.5t68 4q68 0 97 -11.5
t29 -52.5q0 -12 -2.5 -27.5t-6.5 -35.5l-102 -482q-20 -5 -57.5 -7.5t-97.5 -2.5zM185 74q22 0 32 0.5t14 1.5l41 196q-10 6 -42 6q-15 0 -24 -2.5t-14.5 -8.5t-9 -16.5t-6.5 -25.5l-20 -94l-3.5 -19.5t-1.5 -15.5q0 -13 7 -17.5t27 -4.5zM410 830h-74l-63 166h107zM457 639
h-70l-50 109l-96 -109h-74l138 166h87z" />
    <glyph glyph-name="uni1EA8" unicode="&#x1ea8;" 
d="M38 0zM247 0l37 176h-97l-37 -176h-112l134 634q12 55 25.5 87.5t35.5 50t54.5 23t81.5 5.5q37 0 63.5 -3.5t43 -12.5t24 -25t7.5 -41q0 -31 -11 -84l-134 -634h-115zM346 697q-15 0 -25.5 -2.5t-17 -9t-11 -19t-8.5 -32.5l-77 -364h97l77 364q5 23 5 33q0 18 -8.5 24
t-31.5 6zM563.42 815.694h-74.6904l-53.3516 88.6494l-102.434 -88.6494h-78.959l147.248 135.007h92.8311zM512 903.98l4 19.5928q3 14.9277 10.5 21.459q7.5 6.53027 25.5 16.793l42 21.459q10 5.59766 11 14.9277l4 15.8604q0 1.86621 0.5 3.26562t0.5 3.26562
q0 7.46387 -8 10.7295t-30 3.26562q-24 0 -33.5 -4.66504t-12.5 -17.7266l-5 -24.2578h-50l5 24.2578q4 19.5918 10.5 30.7881t18.5 17.2607q12 6.06348 30.5 7.92969t46.5 1.86621q46 0 64 -5.59766q18 -5.59863 18 -24.2578q0 -8.39746 -3 -19.5928l-4 -20.5254
q-2 -10.2627 -5.5 -17.2607q-3.5 -6.99707 -8.5 -12.1289q-5 -5.13086 -12.5 -9.7959t-17.5 -10.2627l-36 -19.5928q-12 -6.53125 -13 -14.9277l-3 -12.1289h-49z" />
    <glyph glyph-name="uni1EA9" unicode="&#x1ea9;" horiz-adv-x="353" 
d="M50 0zM159 -10q-30 0 -50.5 2t-33.5 8.5t-19 18t-6 30.5q0 20 8 57l31 145q11 54 37 79t76 25h19q34 0 47.5 -2.5t19.5 -6.5l26 124q4 16 4 29q0 14 -9 18.5t-29 4.5q-26 0 -36 -11t-16 -41l-12 -59h-93l15 71q9 42 20 67t28.5 38.5t44.5 17.5t68 4q68 0 97 -11.5
t29 -52.5q0 -12 -2.5 -27.5t-6.5 -35.5l-102 -482q-20 -5 -57.5 -7.5t-97.5 -2.5zM185 74q22 0 32 0.5t14 1.5l41 196q-10 6 -42 6q-15 0 -24 -2.5t-14.5 -8.5t-9 -16.5t-6.5 -25.5l-20 -94l-3.5 -19.5t-1.5 -15.5q0 -13 7 -17.5t27 -4.5zM457 639h-70l-50 109l-96 -109h-74
l138 166h87zM327 818l4 21q3 16 10.5 23t25.5 18l42 23q10 6 11 16l4 17q0 2 0.5 3.5t0.5 3.5q0 8 -8 11.5t-30 3.5q-24 0 -33.5 -5t-12.5 -19l-5 -26h-50l5 26q4 21 10.5 33t18.5 18.5t30.5 8.5t46.5 2q46 0 64 -6t18 -26q0 -9 -3 -21l-4 -22q-2 -11 -5.5 -18.5t-8.5 -13
t-12.5 -10.5t-17.5 -11l-36 -21q-12 -7 -13 -16l-3 -13h-49z" />
    <glyph glyph-name="uni1EAA" unicode="&#x1eaa;" 
d="M38 0zM247 0l37 176h-97l-37 -176h-112l134 634q12 55 25.5 87.5t35.5 50t54.5 23t81.5 5.5q37 0 63.5 -3.5t43 -12.5t24 -25t7.5 -41q0 -31 -11 -84l-134 -634h-115zM346 697q-15 0 -25.5 -2.5t-17 -9t-11 -19t-8.5 -32.5l-77 -364h97l77 364q5 23 5 33q0 18 -8.5 24
t-31.5 6zM358 1007.47q-25 0 -42.5 -8.44336q-17.5 -8.44434 -31.5 -21.9541l15 61.6387q14 9.28809 33.5 15.6201q19.5 6.33301 40.5 6.33301t39 -4.22168t35 -8.86523q17 -4.64453 35 -8.86621t39 -4.22168q46 0 77 30.3965l-16 -60.7939q-14 -10.9766 -33.5 -17.7314
t-42.5 -6.75488q-21 0 -39 4.22168q-18 4.22266 -35 9.71094t-35 9.70996t-39 4.22168zM563.42 815.694h-74.6904l-53.3516 88.6494l-102.434 -88.6494h-78.959l147.248 135.007h92.8311z" />
    <glyph glyph-name="uni1EAB" unicode="&#x1eab;" horiz-adv-x="353" 
d="M50 0zM159 -10q-30 0 -50.5 2t-33.5 8.5t-19 18t-6 30.5q0 20 8 57l31 145q11 54 37 79t76 25h19q34 0 47.5 -2.5t19.5 -6.5l26 124q4 16 4 29q0 14 -9 18.5t-29 4.5q-26 0 -36 -11t-16 -41l-12 -59h-93l15 71q9 42 20 67t28.5 38.5t44.5 17.5t68 4q68 0 97 -11.5
t29 -52.5q0 -12 -2.5 -27.5t-6.5 -35.5l-102 -482q-20 -5 -57.5 -7.5t-97.5 -2.5zM185 74q22 0 32 0.5t14 1.5l41 196q-10 6 -42 6q-15 0 -24 -2.5t-14.5 -8.5t-9 -16.5t-6.5 -25.5l-20 -94l-3.5 -19.5t-1.5 -15.5q0 -13 7 -17.5t27 -4.5zM292 914q-25 0 -42.5 -10
t-31.5 -26l15 73q14 11 33.5 18.5t40.5 7.5t39 -5t35 -10.5t35 -10.5t39 -5q46 0 77 36l-16 -72q-14 -13 -33.5 -21t-42.5 -8q-21 0 -39 5t-35 11.5t-35 11.5t-39 5zM457 639h-70l-50 109l-96 -109h-74l138 166h87z" />
    <glyph glyph-name="uni1EAC" unicode="&#x1eac;" 
d="M38 0zM247 0l37 176h-97l-37 -176h-112l134 634q12 55 25.5 87.5t35.5 50t54.5 23t81.5 5.5q37 0 63.5 -3.5t43 -12.5t24 -25t7.5 -41q0 -31 -11 -84l-134 -634h-115zM346 697q-15 0 -25.5 -2.5t-17 -9t-11 -19t-8.5 -32.5l-77 -364h97l77 364q5 23 5 33q0 18 -8.5 24
t-31.5 6zM210 -185h-101l22 104h101zM520 830h-70l-50 109l-96 -109h-74l138 166h87z" />
    <glyph glyph-name="uni1EAD" unicode="&#x1ead;" horiz-adv-x="353" 
d="M50 0zM159 -10q-30 0 -50.5 2t-33.5 8.5t-19 18t-6 30.5q0 20 8 57l31 145q11 54 37 79t76 25h19q34 0 47.5 -2.5t19.5 -6.5l26 124q4 16 4 29q0 14 -9 18.5t-29 4.5q-26 0 -36 -11t-16 -41l-12 -59h-93l15 71q9 42 20 67t28.5 38.5t44.5 17.5t68 4q68 0 97 -11.5
t29 -52.5q0 -12 -2.5 -27.5t-6.5 -35.5l-102 -482q-20 -5 -57.5 -7.5t-97.5 -2.5zM185 74q22 0 32 0.5t14 1.5l41 196q-10 6 -42 6q-15 0 -24 -2.5t-14.5 -8.5t-9 -16.5t-6.5 -25.5l-20 -94l-3.5 -19.5t-1.5 -15.5q0 -13 7 -17.5t27 -4.5zM188 -185h-101l22 104h101z
M457 639h-70l-50 109l-96 -109h-74l138 166h87z" />
    <glyph glyph-name="uni1EAE" unicode="&#x1eae;" 
d="M38 0zM247 0l37 176h-97l-37 -176h-112l134 634q12 55 25.5 87.5t35.5 50t54.5 23t81.5 5.5q37 0 63.5 -3.5t43 -12.5t24 -25t7.5 -41q0 -31 -11 -84l-134 -634h-115zM346 697q-15 0 -25.5 -2.5t-17 -9t-11 -19t-8.5 -32.5l-77 -364h97l77 364q5 23 5 33q0 18 -8.5 24
t-31.5 6zM484.065 1069.78h110.724l-125.422 -118.938h-79.3682zM400 824.135q-54 0 -86.5 20.7383q-32.5 20.7393 -32.5 67.0967q0 10.5732 2 21.5527t5 23.1787h64q-6 -23.5859 -6 -39.8516q0 -22.7715 14.5 -33.3447t52.5 -10.5732q36 0 63.5 17.8926t41.5 65.877h64
q-19 -70.7568 -68 -101.662q-49 -30.9043 -114 -30.9043z" />
    <glyph glyph-name="uni1EAF" unicode="&#x1eaf;" horiz-adv-x="353" 
d="M50 0zM159 -10q-30 0 -50.5 2t-33.5 8.5t-19 18t-6 30.5q0 20 8 57l31 145q11 54 37 79t76 25h19q34 0 47.5 -2.5t19.5 -6.5l26 124q4 16 4 29q0 14 -9 18.5t-29 4.5q-26 0 -36 -11t-16 -41l-12 -59h-93l15 71q9 42 20 67t28.5 38.5t44.5 17.5t68 4q68 0 97 -11.5
t29 -52.5q0 -12 -2.5 -27.5t-6.5 -35.5l-102 -482q-20 -5 -57.5 -7.5t-97.5 -2.5zM185 74q22 0 32 0.5t14 1.5l41 196q-10 6 -42 6q-15 0 -24 -2.5t-14.5 -8.5t-9 -16.5t-6.5 -25.5l-20 -94l-3.5 -19.5t-1.5 -15.5q0 -13 7 -17.5t27 -4.5zM392 996h113l-128 -166h-81z
M313 642q-54 0 -86.5 25.5t-32.5 82.5q0 13 2 26.5t5 28.5h64q-6 -29 -6 -49q0 -28 14.5 -41t52.5 -13q36 0 63.5 22t41.5 81h64q-19 -87 -68 -125t-114 -38z" />
    <glyph glyph-name="uni1EB0" unicode="&#x1eb0;" 
d="M38 0zM247 0l37 176h-97l-37 -176h-112l134 634q12 55 25.5 87.5t35.5 50t54.5 23t81.5 5.5q37 0 63.5 -3.5t43 -12.5t24 -25t7.5 -41q0 -31 -11 -84l-134 -634h-115zM346 697q-15 0 -25.5 -2.5t-17 -9t-11 -19t-8.5 -32.5l-77 -364h97l77 364q5 23 5 33q0 18 -8.5 24
t-31.5 6zM400 824.135q-54 0 -86.5 20.7383q-32.5 20.7393 -32.5 67.0967q0 10.5732 2 21.5527t5 23.1787h64q-6 -23.5859 -6 -39.8516q0 -22.7715 14.5 -33.3447t52.5 -10.5732q36 0 63.5 17.8926t41.5 65.877h64q-19 -70.7568 -68 -101.662q-49 -30.9043 -114 -30.9043z
M495.596 950.217h-72.7578l-61.9434 119.557h105.204z" />
    <glyph glyph-name="uni1EB1" unicode="&#x1eb1;" horiz-adv-x="353" 
d="M50 0zM159 -10q-30 0 -50.5 2t-33.5 8.5t-19 18t-6 30.5q0 20 8 57l31 145q11 54 37 79t76 25h19q34 0 47.5 -2.5t19.5 -6.5l26 124q4 16 4 29q0 14 -9 18.5t-29 4.5q-26 0 -36 -11t-16 -41l-12 -59h-93l15 71q9 42 20 67t28.5 38.5t44.5 17.5t68 4q68 0 97 -11.5
t29 -52.5q0 -12 -2.5 -27.5t-6.5 -35.5l-102 -482q-20 -5 -57.5 -7.5t-97.5 -2.5zM185 74q22 0 32 0.5t14 1.5l41 196q-10 6 -42 6q-15 0 -24 -2.5t-14.5 -8.5t-9 -16.5t-6.5 -25.5l-20 -94l-3.5 -19.5t-1.5 -15.5q0 -13 7 -17.5t27 -4.5zM313 642q-54 0 -86.5 25.5
t-32.5 82.5q0 13 2 26.5t5 28.5h64q-6 -29 -6 -49q0 -28 14.5 -41t52.5 -13q36 0 63.5 22t41.5 81h64q-19 -87 -68 -125t-114 -38zM409 830h-74l-63 166h107z" />
    </font>
</defs>
</svg>
