<svg xmlns="http://www.w3.org/2000/svg" viewBox="0 0 76.69 25.21"><defs><style>.cls-1{fill:#1d1d1b;}</style></defs><title>car</title><g id="Layer_2" data-name="Layer 2"><g id="Layer_1-2" data-name="Layer 1"><path class="cls-1" d="M76.69,21.1l-.82-.87s1.84-6.46-.62-7.43c0,0-3.38-4.4-15.87-5.17a16.77,16.77,0,0,1-4.77-1.89S45.65,0,37,0,21.79,0,19.53,1.13c0,0-10.14,3.63-11,4.4A51.71,51.71,0,0,0,2.62,6s-1.84,3.87-1,5.33c0,0-2.15,1.54-1.5,5.61,0,0-.66,3.07,8.2,3.23,0,0-.26-7.48,6.6-7.38,0,0,7,.16,6.41,8.2l34.46.66s.41-8.45,6.56-8.34c0,0,7.58,0,6.24,8.34ZM17.33,5.2A24.68,24.68,0,0,1,22,2.09l.18,4.79A40.23,40.23,0,0,1,17.33,5.2Zm5.81,1.74-.39-5.2a7.82,7.82,0,0,1,2.11-.57L33.64,1v.17l.5,6.29ZM52.51,8.46,36.84,7.54,35.73,1.13c7.88-.82,17.05,5,17.05,5C54,7.66,52.51,8.46,52.51,8.46Z"/><circle class="cls-1" cx="14.79" cy="19.17" r="5.49"/><circle class="cls-1" cx="62.57" cy="19.78" r="5.43"/></g></g></svg>