<svg xmlns="http://www.w3.org/2000/svg" width="318" height="214" viewBox="0 0 318 214"><title>CONFIANZADEUNREPUESTOTOYOTA</title><path fill="#FFF" d="M35.192 36.615c-1.13.53-2.226.998-3.286 1.404-1.06.407-2.155.751-3.286 1.034-1.13.283-2.305.495-3.524.636-1.22.141-2.553.212-4.002.212-3.498 0-6.457-.503-8.878-1.51-2.42-1.008-4.38-2.403-5.882-4.188-1.502-1.784-2.597-3.895-3.286-6.333-.69-2.438-1.034-5.088-1.034-7.95s.424-5.503 1.272-7.924c.848-2.42 2.102-4.513 3.763-6.28 1.66-1.767 3.728-3.145 6.201-4.134C15.723.592 18.585.098 21.836.098c2.65 0 4.99.265 7.023.795 2.031.53 3.948 1.184 5.75 1.961l-2.438 6.413c-1.272-.53-2.394-.945-3.366-1.245-.971-.3-1.863-.53-2.676-.69-.813-.159-1.572-.264-2.279-.317-.707-.054-1.431-.08-2.173-.08-3.64 0-6.43 1.122-8.374 3.365-1.943 2.244-2.915 5.45-2.915 9.62 0 4.452.972 7.756 2.915 9.911 1.943 2.155 4.717 3.233 8.321 3.233 1.025 0 1.961-.053 2.809-.159.848-.106 1.687-.265 2.518-.477.83-.212 1.704-.486 2.623-.821.919-.336 1.979-.751 3.18-1.246l2.438 6.254zm17.543-4.611c1.237.671 2.756 1.007 4.558 1.007 1.767 0 3.286-.344 4.558-1.034 1.272-.689 2.323-1.616 3.153-2.782.83-1.166 1.44-2.544 1.829-4.134.389-1.59.583-3.286.583-5.088s-.194-3.49-.583-5.061c-.389-1.573-.998-2.95-1.829-4.135-.83-1.183-1.881-2.11-3.153-2.782-1.272-.671-2.791-1.007-4.558-1.007s-3.286.336-4.558 1.007c-1.272.671-2.323 1.599-3.154 2.782-.83 1.184-1.44 2.562-1.828 4.135-.389 1.572-.583 3.259-.583 5.061 0 2.756.45 5.185 1.352 7.288.9 2.102 2.305 3.683 4.213 4.743zm-9.858 1.802c-1.484-1.908-2.535-4.054-3.154-6.44-.618-2.385-.927-4.849-.927-7.393 0-2.544.344-5.008 1.034-7.393.689-2.386 1.784-4.505 3.285-6.36 1.502-1.856 3.419-3.34 5.751-4.452C51.198.653 54.007.098 57.293.098c3.427 0 6.316.556 8.666 1.67 2.35 1.113 4.248 2.596 5.697 4.452 1.449 1.855 2.5 3.974 3.153 6.36.654 2.385.981 4.849.981 7.393 0 2.544-.344 5.017-1.034 7.42-.689 2.403-1.784 4.531-3.285 6.386-1.502 1.856-3.419 3.34-5.751 4.452-2.332 1.114-5.141 1.67-8.427 1.67-3.427 0-6.316-.556-8.666-1.67-2.35-1.113-4.266-2.588-5.75-4.425zM81.461.787h8.109L106 29.301V.787h7.685v29.309c0 .883-.044 1.81-.133 2.783-.088.971-.203 1.704-.344 2.199-.283.954-.645 1.714-1.087 2.279-.441.565-.91.99-1.404 1.272-.495.283-.99.46-1.484.53-.495.07-.936.106-1.325.106-1.484 0-2.791-.45-3.922-1.352-1.13-.9-2.332-2.446-3.604-4.637l-11.183-18.55V39h-7.738V.787zm39.538 0h27.454v6.731h-19.557v8.162h15.105v6.784h-15.105V39h-7.897V.787zm33.072 0h8.056V39h-8.056V.787zm21.677 6.837c.353-1.201.786-2.27 1.299-3.206.512-.937 1.148-1.723 1.907-2.359.76-.636 1.688-1.122 2.783-1.458 1.095-.335 2.385-.503 3.869-.503 1.449 0 2.685.159 3.71.477 1.025.318 1.89.786 2.597 1.405.707.618 1.298 1.369 1.775 2.252.478.883.893 1.89 1.246 3.021l9.275 30.793-7.95 1.749-3.445-11.66h-15.052l-3.498 11.66-7.738-1.749 9.222-30.422zm15.105 13.78l-3.604-12.773c-.212-.707-.477-1.175-.795-1.405-.318-.23-.689-.344-1.113-.344-.46 0-.84.124-1.14.371-.3.247-.556.707-.768 1.378l-3.816 12.773h11.236zM208.502.787h8.109l16.43 28.514V.787h7.685v29.309c0 .883-.044 1.81-.132 2.783-.089.971-.204 1.704-.345 2.199-.283.954-.645 1.714-1.087 2.279-.441.565-.91.99-1.404 1.272-.495.283-.99.46-1.484.53-.495.07-.936.106-1.325.106-1.484 0-2.791-.45-3.922-1.352-1.13-.9-2.332-2.446-3.604-4.637l-11.183-18.55V39h-7.738V.787zm57.611 6.731h-17.755V.787h29.044v4.929l-21.147 25.175c-.106.141-.194.256-.265.345-.07.088-.106.22-.106.397 0 .424.3.636.901.636h20.511V39h-24.857c-2.12 0-3.728-.442-4.823-1.325-1.095-.883-1.643-2.138-1.643-3.763 0-.6.15-1.29.45-2.067.3-.777.91-1.731 1.829-2.862l17.861-21.465zm23.267.106c.353-1.201.786-2.27 1.298-3.206.513-.937 1.149-1.723 1.909-2.359.76-.636 1.687-1.122 2.782-1.458 1.095-.335 2.385-.503 3.869-.503 1.449 0 2.685.159 3.71.477 1.025.318 1.89.786 2.597 1.405.707.618 1.298 1.369 1.775 2.252.478.883.893 1.89 1.246 3.021l9.275 30.793-7.95 1.749-3.445-11.66h-15.052l-3.498 11.66-7.738-1.749 9.222-30.422zm15.105 13.78l-3.604-12.773c-.212-.707-.477-1.175-.795-1.405-.318-.23-.689-.344-1.113-.344-.46 0-.84.124-1.14.371-.3.247-.556.707-.768 1.378l-3.816 12.773h11.236zM3.657 58.787h15.794c3.003 0 5.68.46 8.03 1.378 2.35.919 4.328 2.208 5.935 3.869 1.608 1.66 2.836 3.657 3.684 5.989.848 2.332 1.272 4.911 1.272 7.738 0 2.791-.38 5.362-1.14 7.712-.76 2.35-1.916 4.38-3.471 6.094-1.555 1.714-3.524 3.048-5.91 4.002-2.385.954-5.185 1.431-8.4 1.431H3.657V58.787zM19.08 90.269c3.498 0 6.192-.963 8.083-2.889 1.89-1.925 2.835-5.043 2.835-9.354 0-4.346-.954-7.517-2.862-9.513-1.908-1.997-4.593-2.995-8.056-2.995h-7.473v24.751h7.473zm24.963-31.482h27.454v6.731h-19.61v8.162h15.158v6.784H51.887v9.805h20.034V97H44.043V58.787zm43.937 0h7.95V80.04c0 1.731.097 3.286.291 4.664.195 1.378.583 2.544 1.166 3.498.584.954 1.387 1.687 2.412 2.2 1.025.512 2.385.768 4.081.768 1.66 0 3.003-.256 4.028-.769 1.025-.512 1.828-1.236 2.412-2.172.583-.937.971-2.076 1.166-3.419.194-1.343.291-2.844.291-4.505V58.787h8.003v21.677c0 2.544-.22 4.885-.662 7.023-.442 2.137-1.255 3.974-2.438 5.512-1.184 1.537-2.81 2.738-4.877 3.604-2.067.865-4.708 1.298-7.923 1.298-3.286 0-5.962-.389-8.03-1.166-2.067-.777-3.683-1.89-4.849-3.339-1.166-1.449-1.961-3.206-2.385-5.273-.424-2.068-.636-4.39-.636-6.97V58.787zm38.955 0h8.109l16.43 28.514V58.787h7.685v29.309c0 .883-.044 1.81-.132 2.782-.089.972-.204 1.705-.345 2.2-.283.954-.645 1.714-1.087 2.279-.441.565-.91.99-1.404 1.272-.495.283-.99.46-1.484.53-.495.07-.936.106-1.325.106-1.484 0-2.791-.45-3.922-1.352-1.13-.9-2.332-2.446-3.604-4.637l-11.183-18.55V97h-7.738V58.787zm-123.278 58h14.575c1.837 0 3.56.185 5.168.556 1.607.372 3.003.99 4.187 1.855 1.183.866 2.11 1.997 2.782 3.393.671 1.395 1.007 3.118 1.007 5.167 0 1.378-.22 2.668-.663 3.869-.441 1.201-1.033 2.279-1.775 3.233-.742.954-1.608 1.767-2.597 2.438-.99.671-2.014 1.184-3.074 1.537.6.283 1.14.654 1.617 1.113.477.46.98 1.007 1.51 1.643l8.427 9.805-6.095 4.399-9.434-11.077c-.636-.742-1.201-1.36-1.696-1.855-.495-.495-.954-.892-1.378-1.192-.424-.3-.848-.504-1.272-.61-.424-.106-.901-.159-1.431-.159h-1.908V155h-7.95v-38.213zm13.091 17.49c2.014 0 3.613-.46 4.796-1.378 1.184-.919 1.776-2.279 1.776-4.081 0-1.13-.159-2.058-.477-2.783-.318-.724-.76-1.29-1.325-1.695-.565-.407-1.254-.68-2.067-.822-.813-.141-1.714-.212-2.703-.212h-5.141v10.971h5.141zm22.26-17.49h27.454v6.731h-19.61v8.162H62.01v6.784H46.852v9.805h20.034V155H39.008v-38.213zm33.496 0h14.628c1.837 0 3.577.23 5.22.689 1.644.46 3.083 1.192 4.32 2.2 1.237 1.007 2.217 2.305 2.942 3.895.724 1.59 1.086 3.498 1.086 5.724 0 1.943-.353 3.692-1.06 5.247-.707 1.555-1.678 2.87-2.915 3.948-1.237 1.078-2.703 1.908-4.399 2.492-1.696.583-3.533.874-5.512.874h-6.413V155h-7.897v-38.213zm13.621 18.391c.777 0 1.555-.088 2.332-.265.777-.177 1.475-.495 2.094-.954.618-.46 1.112-1.06 1.483-1.802.372-.742.557-1.678.557-2.809 0-1.272-.177-2.305-.53-3.1-.353-.796-.84-1.414-1.458-1.856-.618-.441-1.316-.733-2.093-.874-.777-.141-1.59-.212-2.438-.212h-5.671v11.872h5.724zm19.928-18.391h7.95v21.253c0 1.731.097 3.286.291 4.664.195 1.378.583 2.544 1.166 3.498.584.954 1.387 1.687 2.412 2.2 1.025.512 2.385.768 4.081.768 1.66 0 3.003-.256 4.028-.768 1.025-.513 1.828-1.237 2.412-2.173.583-.937.971-2.076 1.166-3.419.194-1.343.291-2.844.291-4.505v-21.518h8.003v21.677c0 2.544-.22 4.885-.663 7.023-.441 2.137-1.254 3.974-2.438 5.512-1.183 1.537-2.808 2.738-4.876 3.603-2.067.866-4.708 1.299-7.923 1.299-3.286 0-5.962-.389-8.03-1.166-2.067-.777-3.683-1.89-4.849-3.339-1.166-1.449-1.961-3.206-2.385-5.273-.424-2.068-.636-4.39-.636-6.97v-22.366zm38.955 0h27.454v6.731h-19.61v8.162h15.158v6.784h-15.158v9.805h20.034V155h-27.878v-38.213zm33.125 29.521c4.558 1.837 8.71 2.756 12.455 2.756 2.862 0 4.947-.442 6.254-1.325 1.307-.883 1.961-2.085 1.961-3.604 0-.848-.194-1.563-.583-2.147-.389-.583-.936-1.068-1.643-1.457s-1.563-.715-2.57-.98c-1.008-.266-2.112-.504-3.313-.716-1.59-.283-3.171-.645-4.743-1.087-1.573-.441-2.968-1.068-4.188-1.881-1.219-.813-2.208-1.855-2.968-3.127-.76-1.272-1.139-2.88-1.139-4.823 0-1.696.283-3.26.848-4.69.565-1.432 1.475-2.677 2.73-3.737 1.254-1.06 2.888-1.89 4.902-2.491 2.014-.6 4.452-.901 7.314-.901 2.544 0 4.938.265 7.181.795 2.244.53 4.232 1.148 5.963 1.855l-1.961 6.466c-2.12-.742-4.134-1.316-6.042-1.722-1.908-.407-3.763-.61-5.565-.61-2.438 0-4.231.362-5.38 1.087-1.148.724-1.722 1.775-1.722 3.153 0 1.484.662 2.544 1.987 3.18 1.326.636 3.172 1.166 5.539 1.59 1.625.318 3.25.698 4.876 1.14 1.625.441 3.092 1.086 4.399 1.934 1.307.848 2.367 1.952 3.18 3.313.813 1.36 1.219 3.118 1.219 5.273 0 1.873-.362 3.569-1.087 5.088-.724 1.52-1.784 2.818-3.18 3.896-1.395 1.077-3.118 1.907-5.167 2.49-2.05.584-4.417.875-7.102.875-1.625 0-3.18-.097-4.664-.292-1.484-.194-2.853-.432-4.108-.715-1.254-.283-2.384-.592-3.392-.928-1.007-.335-1.846-.644-2.517-.927l2.226-6.731zm43.089-22.79h-11.395v-6.731h30.74v6.731h-11.395V155h-7.95v-31.482zm36.093 24.486c1.237.671 2.756 1.007 4.558 1.007 1.767 0 3.286-.344 4.558-1.034 1.272-.689 2.323-1.616 3.154-2.782.83-1.166 1.44-2.544 1.828-4.134.389-1.59.583-3.286.583-5.088s-.194-3.49-.583-5.062c-.389-1.572-.998-2.95-1.829-4.133-.83-1.184-1.881-2.112-3.153-2.783-1.272-.671-2.791-1.007-4.558-1.007s-3.286.336-4.558 1.007c-1.272.671-2.323 1.599-3.154 2.782-.83 1.184-1.44 2.562-1.828 4.134-.389 1.573-.583 3.26-.583 5.062 0 2.756.45 5.185 1.351 7.287.902 2.103 2.306 3.684 4.214 4.744zm-9.858 1.802c-1.484-1.908-2.535-4.054-3.153-6.44-.619-2.385-.928-4.849-.928-7.393 0-2.544.344-5.008 1.034-7.394.689-2.385 1.784-4.504 3.286-6.36 1.501-1.855 3.418-3.338 5.75-4.451 2.332-1.114 5.141-1.67 8.427-1.67 3.427 0 6.316.556 8.666 1.67 2.35 1.113 4.248 2.596 5.697 4.451 1.449 1.856 2.5 3.975 3.154 6.36.653 2.386.98 4.85.98 7.394 0 2.544-.344 5.017-1.034 7.42-.689 2.403-1.784 4.531-3.286 6.387-1.501 1.855-3.418 3.338-5.75 4.452-2.332 1.113-5.141 1.669-8.427 1.669-3.427 0-6.316-.556-8.665-1.67-2.35-1.113-4.267-2.588-5.751-4.425zM12.19 181.518H.795v-6.731h30.74v6.731H20.14V213h-7.95v-31.482zm36.093 24.486c1.237.671 2.756 1.007 4.558 1.007 1.767 0 3.286-.344 4.558-1.034 1.272-.689 2.323-1.616 3.154-2.782.83-1.166 1.44-2.544 1.828-4.134.389-1.59.583-3.286.583-5.088s-.194-3.49-.583-5.062c-.389-1.572-.998-2.95-1.828-4.133-.83-1.184-1.882-2.112-3.154-2.783-1.272-.671-2.791-1.007-4.558-1.007s-3.286.336-4.558 1.007c-1.272.671-2.323 1.599-3.154 2.782-.83 1.184-1.44 2.562-1.828 4.135-.389 1.572-.583 3.259-.583 5.061 0 2.756.45 5.185 1.351 7.287.902 2.103 2.306 3.684 4.214 4.744zm-9.858 1.802c-1.484-1.908-2.535-4.054-3.153-6.44-.619-2.385-.928-4.849-.928-7.393 0-2.544.344-5.008 1.033-7.394.69-2.385 1.785-4.504 3.286-6.36 1.502-1.855 3.419-3.338 5.751-4.451 2.332-1.114 5.141-1.67 8.427-1.67 3.427 0 6.316.556 8.666 1.67 2.35 1.113 4.248 2.596 5.697 4.452 1.449 1.855 2.5 3.974 3.154 6.36.653 2.385.98 4.849.98 7.393 0 2.544-.344 5.017-1.033 7.42-.69 2.403-1.785 4.531-3.287 6.387-1.501 1.855-3.418 3.338-5.75 4.452-2.332 1.113-5.141 1.669-8.427 1.669-3.427 0-6.316-.556-8.666-1.67-2.35-1.113-4.266-2.588-5.75-4.425zm48.707-7.685c-1.449-.495-2.606-1.316-3.472-2.465-.865-1.148-1.722-2.658-2.57-4.531l-7.208-15.953 7.102-2.968 8.003 17.225c.389.813.75 1.343 1.087 1.59.335.247.733.371 1.192.371.53 0 .954-.132 1.272-.397.318-.266.671-.804 1.06-1.617l8.056-17.172 7.102 2.862-7.261 15.635c-.883 1.908-1.784 3.471-2.703 4.69-.919 1.22-2.138 2.112-3.657 2.677V213h-8.003v-12.879zm38.107 5.883c1.237.671 2.756 1.007 4.558 1.007 1.767 0 3.286-.344 4.558-1.034 1.272-.689 2.323-1.616 3.154-2.782.83-1.166 1.44-2.544 1.828-4.134.389-1.59.583-3.286.583-5.088s-.194-3.49-.583-5.062c-.389-1.572-.998-2.95-1.828-4.133-.83-1.184-1.882-2.112-3.154-2.783-1.272-.671-2.791-1.007-4.558-1.007s-3.286.336-4.558 1.007c-1.272.671-2.323 1.599-3.154 2.782-.83 1.184-1.44 2.562-1.828 4.135-.389 1.572-.583 3.259-.583 5.061 0 2.756.45 5.185 1.351 7.287.902 2.103 2.306 3.684 4.214 4.744zm-9.858 1.802c-1.484-1.908-2.535-4.054-3.153-6.44-.619-2.385-.928-4.849-.928-7.393 0-2.544.344-5.008 1.034-7.394.689-2.385 1.784-4.504 3.285-6.36 1.502-1.855 3.419-3.338 5.751-4.451 2.332-1.114 5.141-1.67 8.427-1.67 3.427 0 6.316.556 8.666 1.67 2.35 1.113 4.248 2.596 5.697 4.452 1.449 1.855 2.5 3.974 3.154 6.36.653 2.385.98 4.849.98 7.393 0 2.544-.344 5.017-1.034 7.42-.689 2.403-1.784 4.531-3.285 6.387-1.502 1.855-3.419 3.338-5.751 4.452-2.332 1.113-5.141 1.669-8.427 1.669-3.427 0-6.316-.556-8.665-1.67-2.35-1.113-4.267-2.588-5.751-4.425zm47.117-26.288h-11.395v-6.731h30.74v6.731h-11.395V213h-7.95v-31.482zm29.998.106c.353-1.201.786-2.27 1.298-3.207.513-.936 1.149-1.722 1.908-2.358.76-.636 1.688-1.122 2.783-1.458 1.095-.335 2.385-.503 3.869-.503 1.449 0 2.685.159 3.71.477 1.025.318 1.89.786 2.597 1.405.707.618 1.298 1.369 1.775 2.252.478.883.893 1.89 1.246 3.021l9.275 30.793-7.95 1.749-3.445-11.66H194.51l-3.498 11.66-7.738-1.749 9.222-30.422zm15.105 13.78l-3.604-12.773c-.212-.707-.477-1.175-.795-1.405-.318-.23-.689-.344-1.113-.344-.46 0-.84.124-1.14.371-.3.247-.556.707-.768 1.378l-3.816 12.773h11.236z"/></svg>