<svg xmlns="http://www.w3.org/2000/svg" width="519" height="110" viewBox="0 0 519 110"><title>CONOCENUESTROSBENEFICIOS</title><path fill="#FFF" d="M23.568 26.335c-.79.37-1.554.697-2.294.98-.74.284-1.505.525-2.294.722-.79.197-1.61.345-2.46.444-.852.099-1.783.148-2.794.148-2.442 0-4.508-.351-6.198-1.055-1.69-.703-3.058-1.677-4.106-2.923-1.049-1.245-1.813-2.719-2.295-4.421-.48-1.702-.721-3.552-.721-5.55 0-1.998.296-3.842.888-5.531.592-1.69 1.468-3.152 2.627-4.385 1.16-1.233 2.602-2.195 4.329-2.886 1.727-.69 3.725-1.036 5.994-1.036 1.85 0 3.484.185 4.902.555 1.419.37 2.757.826 4.015 1.369l-1.702 4.477c-.888-.37-1.671-.66-2.35-.87-.678-.21-1.3-.37-1.868-.48-.567-.112-1.098-.185-1.591-.223-.493-.037-.999-.055-1.517-.055-2.54 0-4.49.783-5.846 2.35C6.93 9.53 6.252 11.768 6.252 14.68c0 3.108.678 5.414 2.035 6.919 1.357 1.505 3.293 2.257 5.809 2.257.715 0 1.369-.037 1.961-.111.592-.074 1.178-.185 1.758-.333.58-.148 1.19-.34 1.831-.573.641-.235 1.381-.525 2.22-.87l1.702 4.366zm12.247-3.219c.863.469 1.924.703 3.182.703 1.233 0 2.294-.24 3.182-.721.888-.482 1.622-1.129 2.201-1.943.58-.814 1.006-1.776 1.277-2.886.271-1.11.407-2.294.407-3.552s-.136-2.436-.407-3.534c-.271-1.097-.697-2.06-1.276-2.886-.58-.826-1.314-1.473-2.202-1.942-.888-.469-1.949-.703-3.182-.703-1.233 0-2.294.234-3.182.703-.888.469-1.622 1.116-2.201 1.942-.58.827-1.006 1.789-1.277 2.886-.271 1.098-.407 2.276-.407 3.534 0 1.924.314 3.62.944 5.088.629 1.467 1.609 2.571 2.941 3.311zm-6.882 1.258c-1.036-1.332-1.77-2.83-2.201-4.495-.432-1.666-.648-3.386-.648-5.162 0-1.776.24-3.496.721-5.162.482-1.665 1.246-3.144 2.294-4.44 1.049-1.295 2.387-2.33 4.015-3.108C34.742 1.23 36.703.842 38.997.842c2.393 0 4.41.388 6.05 1.165 1.64.778 2.966 1.813 3.977 3.108 1.011 1.296 1.745 2.775 2.201 4.44.457 1.666.685 3.386.685 5.162 0 1.776-.24 3.503-.721 5.18-.482 1.677-1.246 3.163-2.294 4.459-1.049 1.295-2.387 2.33-4.015 3.107-1.628.778-3.589 1.166-5.883 1.166-2.393 0-4.41-.388-6.05-1.166-1.64-.777-2.978-1.806-4.014-3.089zM55.869 1.323h5.661L73 21.229V1.323h5.365v20.461c0 .617-.03 1.264-.093 1.943-.061.678-.141 1.19-.24 1.535-.197.666-.45 1.196-.758 1.591-.309.395-.636.69-.981.888-.345.197-.69.32-1.036.37-.345.05-.654.074-.925.074-1.036 0-1.949-.314-2.738-.944-.79-.629-1.628-1.708-2.516-3.237l-7.807-12.95V28h-5.402V1.323zm36.186 21.793c.863.469 1.924.703 3.182.703 1.233 0 2.294-.24 3.182-.721.888-.482 1.622-1.129 2.202-1.943.58-.814 1.005-1.776 1.276-2.886.271-1.11.407-2.294.407-3.552s-.136-2.436-.407-3.534c-.271-1.097-.697-2.06-1.276-2.886-.58-.826-1.314-1.473-2.202-1.942-.888-.469-1.949-.703-3.182-.703-1.233 0-2.294.234-3.182.703-.888.469-1.622 1.116-2.202 1.942-.58.827-1.005 1.789-1.276 2.886-.271 1.098-.407 2.276-.407 3.534 0 1.924.314 3.62.944 5.088.629 1.467 1.609 2.571 2.941 3.311zm-6.882 1.258c-1.036-1.332-1.77-2.83-2.201-4.495-.432-1.666-.648-3.386-.648-5.162 0-1.776.24-3.496.722-5.162.48-1.665 1.245-3.144 2.293-4.44 1.049-1.295 2.387-2.33 4.015-3.108C90.982 1.23 92.943.842 95.237.842c2.393 0 4.41.388 6.05 1.165 1.64.778 2.966 1.813 3.977 3.108 1.011 1.296 1.745 2.775 2.202 4.44.456 1.666.684 3.386.684 5.162 0 1.776-.24 3.503-.722 5.18-.48 1.677-1.245 3.163-2.293 4.459-1.049 1.295-2.387 2.33-4.015 3.107-1.628.778-3.589 1.166-5.883 1.166-2.393 0-4.41-.388-6.05-1.166-1.64-.777-2.978-1.806-4.014-3.089zm48.951 1.961c-.79.37-1.554.697-2.294.98-.74.284-1.505.525-2.294.722-.79.197-1.61.345-2.46.444-.852.099-1.783.148-2.794.148-2.442 0-4.508-.351-6.197-1.055-1.69-.703-3.06-1.677-4.107-2.923-1.049-1.245-1.813-2.719-2.294-4.421-.482-1.702-.722-3.552-.722-5.55 0-1.998.296-3.842.888-5.531.592-1.69 1.468-3.152 2.627-4.385 1.16-1.233 2.602-2.195 4.329-2.886 1.727-.69 3.725-1.036 5.994-1.036 1.85 0 3.484.185 4.902.555 1.419.37 2.757.826 4.015 1.369l-1.702 4.477c-.888-.37-1.671-.66-2.35-.87-.678-.21-1.3-.37-1.868-.48-.567-.112-1.098-.185-1.591-.223-.493-.037-.999-.055-1.517-.055-2.54 0-4.49.783-5.846 2.35-1.357 1.566-2.035 3.804-2.035 6.715 0 3.108.678 5.414 2.035 6.919 1.357 1.505 3.293 2.257 5.809 2.257.715 0 1.369-.037 1.961-.111.592-.074 1.178-.185 1.757-.333.58-.148 1.19-.34 1.832-.573.641-.235 1.381-.525 2.22-.87l1.702 4.366zm3.663-25.012h19.166v4.699h-13.69v5.698h10.582v4.736h-10.582v6.845h13.986V28h-19.462V1.323zm30.784 0h5.661l11.47 19.906V1.323h5.365v20.461c0 .617-.03 1.264-.093 1.943-.061.678-.141 1.19-.24 1.535-.197.666-.45 1.196-.758 1.591-.309.395-.636.69-.981.888-.345.197-.69.32-1.036.37-.345.05-.654.074-.925.074-1.036 0-1.949-.314-2.738-.944-.79-.629-1.628-1.708-2.516-3.237l-7.807-12.95V28h-5.402V1.323zm27.491 0h5.55V16.16c0 1.209.068 2.294.203 3.256.136.962.407 1.776.815 2.442.407.666.968 1.178 1.683 1.535.715.358 1.665.537 2.849.537 1.16 0 2.097-.179 2.812-.537.715-.357 1.276-.863 1.684-1.517.407-.653.678-1.449.814-2.386.135-.937.203-1.986.203-3.145V1.323h5.587v15.133c0 1.776-.154 3.41-.463 4.902-.308 1.493-.875 2.775-1.702 3.848-.826 1.074-1.96 1.912-3.404 2.517-1.443.604-3.286.906-5.531.906-2.294 0-4.162-.271-5.606-.814-1.443-.543-2.571-1.32-3.385-2.331-.814-1.011-1.369-2.238-1.665-3.682-.296-1.443-.444-3.064-.444-4.865V1.323zm27.195 0h19.166v4.699h-13.69v5.698h10.582v4.736h-10.582v6.845h13.986V28h-19.462V1.323zm23.125 20.609c3.182 1.283 6.08 1.924 8.695 1.924 1.998 0 3.453-.308 4.366-.925.913-.617 1.369-1.455 1.369-2.516 0-.592-.136-1.091-.407-1.498-.271-.408-.654-.747-1.147-1.018s-1.091-.5-1.794-.684c-.704-.186-1.474-.352-2.313-.5-1.11-.197-2.214-.45-3.312-.758-1.097-.309-2.071-.747-2.922-1.314-.852-.567-1.542-1.295-2.072-2.183-.53-.888-.796-2.01-.796-3.367 0-1.184.197-2.275.592-3.274.395-1 1.03-1.869 1.906-2.609.875-.74 2.016-1.32 3.422-1.739 1.406-.42 3.108-.629 5.106-.629 1.776 0 3.447.185 5.014.555 1.566.37 2.953.802 4.162 1.295l-1.369 4.514c-1.48-.518-2.886-.919-4.218-1.203-1.332-.283-2.627-.425-3.885-.425-1.702 0-2.954.253-3.755.758-.802.506-1.203 1.24-1.203 2.202 0 1.036.462 1.776 1.387 2.22.926.444 2.214.814 3.867 1.11 1.135.222 2.27.487 3.404.796 1.135.308 2.158.758 3.071 1.35.913.592 1.653 1.363 2.22 2.313.567.95.851 2.176.851 3.681 0 1.307-.253 2.491-.758 3.552-.506 1.06-1.246 1.967-2.22 2.72-.975.752-2.177 1.331-3.608 1.738-1.43.408-3.083.611-4.958.611-1.135 0-2.22-.068-3.256-.204-1.036-.135-1.992-.302-2.868-.499-.875-.197-1.664-.413-2.368-.647-.703-.235-1.288-.45-1.757-.648l1.554-4.699zm30.081-15.91h-7.955V1.323h21.46v4.699h-7.955V28h-5.55V6.022zm16.613-4.699h10.175c1.283 0 2.485.13 3.608.389 1.122.259 2.096.69 2.923 1.294.826.605 1.473 1.394 1.942 2.369.469.974.703 2.176.703 3.607 0 .962-.154 1.862-.463 2.701-.308.839-.721 1.591-1.239 2.257-.518.666-1.122 1.233-1.813 1.702-.69.469-1.406.826-2.146 1.073.42.197.795.456 1.128.777.334.32.685.703 1.055 1.147l5.883 6.845-4.255 3.071-6.586-7.733c-.444-.518-.839-.95-1.184-1.295s-.666-.623-.962-.832c-.296-.21-.592-.352-.888-.426-.296-.074-.629-.111-.999-.111h-1.332V28h-5.55V1.323zm9.139 12.21c1.406 0 2.522-.32 3.349-.962.826-.641 1.239-1.591 1.239-2.849 0-.79-.111-1.437-.333-1.942-.222-.506-.53-.9-.925-1.184-.395-.284-.876-.475-1.443-.574-.567-.099-1.196-.148-1.887-.148h-3.589v7.659h3.589zm24.124 9.583c.863.469 1.924.703 3.182.703 1.233 0 2.294-.24 3.182-.721.888-.482 1.622-1.129 2.202-1.943.58-.814 1.005-1.776 1.276-2.886.271-1.11.407-2.294.407-3.552s-.136-2.436-.407-3.534c-.271-1.097-.697-2.06-1.276-2.886-.58-.826-1.314-1.473-2.202-1.942-.888-.469-1.949-.703-3.182-.703-1.233 0-2.294.234-3.182.703-.888.469-1.622 1.116-2.202 1.942-.58.827-1.005 1.789-1.276 2.886-.271 1.098-.407 2.276-.407 3.534 0 1.924.314 3.62.943 5.088.63 1.467 1.61 2.571 2.942 3.311zm-6.882 1.258c-1.036-1.332-1.77-2.83-2.202-4.495-.431-1.666-.647-3.386-.647-5.162 0-1.776.24-3.496.721-5.162.482-1.665 1.246-3.144 2.294-4.44 1.049-1.295 2.387-2.33 4.015-3.108 1.628-.777 3.589-1.165 5.883-1.165 2.393 0 4.41.388 6.05 1.165 1.64.778 2.966 1.813 3.977 3.108 1.011 1.296 1.745 2.775 2.202 4.44.456 1.666.684 3.386.684 5.162 0 1.776-.24 3.503-.722 5.18-.48 1.677-1.245 3.163-2.293 4.459-1.049 1.295-2.387 2.33-4.015 3.107-1.628.778-3.589 1.166-5.883 1.166-2.393 0-4.41-.388-6.05-1.166-1.64-.777-2.978-1.806-4.014-3.089zm26.677-2.442c3.182 1.283 6.08 1.924 8.695 1.924 1.998 0 3.453-.308 4.366-.925.913-.617 1.369-1.455 1.369-2.516 0-.592-.136-1.091-.407-1.498-.271-.408-.654-.747-1.147-1.018s-1.091-.5-1.794-.684c-.704-.186-1.474-.352-2.313-.5-1.11-.197-2.214-.45-3.312-.758-1.097-.309-2.071-.747-2.923-1.314-.85-.567-1.541-1.295-2.072-2.183-.53-.888-.795-2.01-.795-3.367 0-1.184.197-2.275.592-3.274.395-1 1.03-1.869 1.906-2.609.875-.74 2.016-1.32 3.422-1.739 1.406-.42 3.108-.629 5.106-.629 1.776 0 3.447.185 5.014.555 1.566.37 2.953.802 4.162 1.295l-1.369 4.514c-1.48-.518-2.886-.919-4.218-1.203-1.332-.283-2.627-.425-3.885-.425-1.702 0-2.954.253-3.755.758-.802.506-1.203 1.24-1.203 2.202 0 1.036.462 1.776 1.388 2.22.925.444 2.213.814 3.866 1.11 1.135.222 2.27.487 3.404.796 1.135.308 2.158.758 3.071 1.35.913.592 1.653 1.363 2.22 2.313.567.95.851 2.176.851 3.681 0 1.307-.253 2.491-.758 3.552-.506 1.06-1.246 1.967-2.22 2.72-.975.752-2.177 1.331-3.608 1.738-1.43.408-3.083.611-4.958.611-1.135 0-2.22-.068-3.256-.204-1.036-.135-1.992-.302-2.868-.499-.875-.197-1.664-.413-2.368-.647-.703-.235-1.288-.45-1.757-.648l1.554-4.699zM5.003 45.273h24.795c3.016 0 5.829.29 8.439.87 2.61.58 4.886 1.508 6.83 2.784 1.943 1.276 3.465 2.929 4.567 4.959 1.102 2.03 1.653 4.466 1.653 7.308 0 1.566-.203 3.016-.609 4.35-.406 1.334-.957 2.552-1.653 3.654-.696 1.102-1.479 2.088-2.349 2.958-.87.87-1.769 1.624-2.697 2.262 1.392.522 2.711 1.218 3.959 2.088 1.247.87 2.363 1.928 3.349 3.175.986 1.248 1.769 2.668 2.349 4.264.58 1.595.87 3.378.87 5.35 0 3.016-.536 5.684-1.61 8.004-1.073 2.32-2.58 4.277-4.523 5.872-1.944 1.596-4.263 2.799-6.96 3.611-2.698.812-5.67 1.218-8.918 1.218H5.003V45.273zm23.751 25.23c2.61 0 4.814-.551 6.612-1.653 1.798-1.102 2.697-3.016 2.697-5.742 0-2.842-.957-4.712-2.871-5.611-1.914-.9-4.785-1.349-8.613-1.349h-8.7v14.355h10.875zm2.523 26.622c2.668 0 4.959-.623 6.873-1.87 1.914-1.248 2.871-3.321 2.871-6.221 0-1.624-.304-2.972-.913-4.046-.61-1.073-1.436-1.913-2.48-2.522-1.044-.61-2.291-1.03-3.741-1.262-1.45-.232-2.987-.348-4.611-.348H17.879v16.269h13.398zm32.277-51.852h45.066v11.049H76.43V69.72h24.882v11.136H76.43v16.095h32.886V108H63.554V45.273zm54.984 0h13.311l26.97 46.806V45.273h12.615v48.111c0 1.45-.072 2.972-.218 4.567-.145 1.596-.333 2.799-.565 3.611-.464 1.566-1.058 2.813-1.784 3.741-.725.928-1.493 1.624-2.305 2.088-.812.464-1.624.754-2.436.87-.812.116-1.537.174-2.175.174-2.436 0-4.582-.74-6.438-2.219-1.856-1.479-3.828-4.016-5.916-7.612l-18.357-30.45V108h-12.702V45.273zm64.902 0h45.066v11.049h-32.19V69.72h24.882v11.136h-24.882v16.095h32.886V108H183.44V45.273zm54.984 0h45.066v11.049h-32.103V69.72h24.795v11.136h-24.795V108h-12.963V45.273zm54.288 0h13.224V108h-13.224V45.273zm77.169 58.812c-1.856.87-3.654 1.638-5.394 2.306-1.74.667-3.538 1.232-5.394 1.696-1.856.464-3.784.812-5.786 1.044-2 .232-4.19.348-6.568.348-5.742 0-10.6-.826-14.572-2.48-3.974-1.653-7.192-3.943-9.657-6.873-2.466-2.929-4.263-6.394-5.394-10.396-1.132-4.002-1.697-8.352-1.697-13.05s.696-9.033 2.088-13.007c1.392-3.973 3.451-7.409 6.177-10.309 2.726-2.9 6.119-5.162 10.179-6.786 4.06-1.624 8.758-2.436 14.094-2.436 4.35 0 8.192.435 11.528 1.305 3.335.87 6.481 1.943 9.439 3.219l-4.002 10.527c-2.088-.87-3.93-1.551-5.525-2.044-1.595-.494-3.059-.87-4.393-1.132-1.334-.26-2.581-.434-3.741-.522-1.16-.087-2.349-.13-3.567-.13-5.974 0-10.556 1.841-13.746 5.524-3.19 3.684-4.785 8.947-4.785 15.791 0 7.308 1.595 12.731 4.785 16.269 3.19 3.538 7.743 5.307 13.659 5.307 1.682 0 3.219-.087 4.611-.261 1.392-.174 2.77-.435 4.132-.783 1.364-.348 2.799-.797 4.307-1.349 1.508-.55 3.248-1.232 5.22-2.044l4.002 10.266zm8.787-58.812h13.224V108h-13.224V45.273zm45.588 51.243c2.03 1.102 4.524 1.653 7.482 1.653 2.9 0 5.394-.565 7.482-1.697 2.088-1.13 3.813-2.653 5.176-4.567 1.364-1.914 2.364-4.176 3.002-6.786.638-2.61.957-5.394.957-8.352s-.319-5.727-.957-8.308c-.638-2.582-1.638-4.843-3.002-6.787-1.363-1.943-3.088-3.465-5.176-4.567-2.088-1.102-4.582-1.653-7.482-1.653-2.9 0-5.394.551-7.482 1.653-2.088 1.102-3.813 2.624-5.176 4.568-1.364 1.943-2.364 4.204-3.002 6.785-.638 2.582-.957 5.351-.957 8.309 0 4.524.74 8.511 2.219 11.963 1.479 3.45 3.784 6.046 6.916 7.786zm-16.182 2.958c-2.436-3.132-4.161-6.655-5.177-10.57-1.015-3.916-1.522-7.961-1.522-12.137s.565-8.221 1.697-12.136c1.13-3.916 2.928-7.395 5.394-10.44 2.465-3.046 5.611-5.481 9.439-7.309 3.828-1.827 8.439-2.74 13.833-2.74 5.626 0 10.367.913 14.224 2.74 3.858 1.828 6.975 4.263 9.353 7.309 2.378 3.045 4.103 6.524 5.176 10.44 1.074 3.915 1.61 7.96 1.61 12.136 0 4.176-.565 8.236-1.697 12.18-1.13 3.944-2.928 7.438-5.394 10.483-2.465 3.046-5.611 5.481-9.439 7.308-3.828 1.828-8.439 2.741-13.833 2.741-5.626 0-10.367-.913-14.224-2.74-3.858-1.828-7.004-4.249-9.44-7.265zm62.727-5.742c7.482 3.016 14.297 4.524 20.445 4.524 4.698 0 8.12-.725 10.266-2.175 2.146-1.45 3.219-3.422 3.219-5.916 0-1.392-.319-2.566-.957-3.524-.638-.957-1.537-1.754-2.697-2.392-1.16-.638-2.566-1.174-4.22-1.61-1.653-.435-3.465-.826-5.437-1.174-2.61-.464-5.205-1.058-7.786-1.784-2.582-.725-4.872-1.754-6.874-3.088-2-1.334-3.624-3.045-4.871-5.133-1.248-2.088-1.871-4.727-1.871-7.917 0-2.784.464-5.35 1.392-7.7.928-2.349 2.421-4.393 4.48-6.133 2.06-1.74 4.742-3.103 8.048-4.089 3.306-.986 7.308-1.479 12.006-1.479 4.176 0 8.105.435 11.788 1.305 3.684.87 6.946 1.885 9.788 3.045l-3.219 10.614c-3.48-1.218-6.786-2.16-9.918-2.828-3.132-.667-6.177-1-9.135-1-4.002 0-6.945.594-8.83 1.784-1.886 1.189-2.828 2.914-2.828 5.176 0 2.436 1.087 4.176 3.263 5.22 2.175 1.044 5.205 1.914 9.091 2.61 2.668.522 5.336 1.145 8.004 1.87 2.668.726 5.075 1.784 7.221 3.176 2.146 1.392 3.886 3.204 5.22 5.438 1.334 2.233 2.001 5.118 2.001 8.656 0 3.074-.594 5.858-1.784 8.352-1.189 2.494-2.928 4.625-5.22 6.394-2.29 1.77-5.118 3.132-8.482 4.09-3.364.957-7.25 1.435-11.658 1.435-2.668 0-5.22-.16-7.656-.478-2.436-.32-4.683-.711-6.742-1.175-2.06-.464-3.915-.971-5.569-1.522-1.653-.552-3.03-1.059-4.132-1.523l3.654-11.049z"/></svg>