<svg xmlns="http://www.w3.org/2000/svg" width="478" height="177" viewBox="0 0 478 177"><title>Group 3</title><path fill="#FFF" d="M10.955 24.377c.345-.247.641-.475.888-.684.247-.21.45-.42.61-.63.16-.21.278-.437.352-.684.074-.247.111-.555.111-.925v-1.221h5.254v1.85c0 1.036-.148 1.93-.444 2.683-.296.752-.962 1.498-1.998 2.238l-2.294 1.665c-.79.567-1.43 1.104-1.924 1.61-.493.505-.74 1.079-.74 1.72 0 .863.4 1.505 1.202 1.924.802.42 1.832.629 3.09.629 1.184 0 2.3-.222 3.348-.666 1.049-.444 2.19-1.036 3.423-1.776l2.368 4.033c-1.209.839-2.615 1.572-4.218 2.202-1.603.629-3.441.943-5.513.943-1.53 0-2.886-.173-4.07-.518-1.184-.345-2.183-.826-2.997-1.443-.814-.617-1.437-1.338-1.869-2.164-.431-.827-.647-1.721-.647-2.683 0-.79.105-1.505.314-2.146.21-.641.506-1.233.888-1.776.383-.543.833-1.042 1.351-1.498.518-.457 1.073-.907 1.665-1.351l1.85-1.332zm2.22-7.326c-.493-.617-.74-1.369-.74-2.257 0-.937.253-1.702.758-2.294.506-.592 1.277-.888 2.313-.888 1.06 0 1.844.296 2.35.888.505.592.758 1.357.758 2.294 0 .913-.253 1.665-.759 2.257-.505.592-1.288.888-2.349.888-1.036 0-1.813-.296-2.331-.888zm15.26-12.728h10.212c1.283 0 2.497.16 3.645.481 1.147.32 2.152.832 3.015 1.536.863.703 1.548 1.609 2.053 2.719.506 1.11.759 2.442.759 3.996 0 1.357-.247 2.578-.74 3.663s-1.172 2.004-2.035 2.757c-.863.752-1.887 1.331-3.071 1.739-1.184.407-2.467.61-3.848.61h-4.477V31h-5.513V4.323zm9.509 12.839c.543 0 1.085-.062 1.628-.185.543-.123 1.03-.345 1.461-.666.432-.32.777-.74 1.036-1.258.26-.518.389-1.172.389-1.961 0-.888-.123-1.61-.37-2.165-.247-.555-.586-.986-1.017-1.294-.432-.309-.92-.512-1.462-.611-.543-.099-1.11-.148-1.702-.148h-3.959v8.288h3.996zm23.289 10.027c2.787 0 4.181-1.875 4.181-5.624 0-3.725-1.394-5.587-4.181-5.587-2.837 0-4.255 1.862-4.255 5.587 0 3.75 1.418 5.624 4.255 5.624zm-7.437 1.517c-.814-.913-1.418-1.98-1.813-3.2-.395-1.222-.592-2.535-.592-3.941 0-1.406.216-2.72.648-3.94.431-1.222 1.06-2.282 1.886-3.183.827-.9 1.85-1.609 3.072-2.127 1.22-.518 2.633-.777 4.236-.777 1.702 0 3.17.259 4.403.777 1.233.518 2.245 1.227 3.034 2.127.79.9 1.375 1.961 1.757 3.183.383 1.22.574 2.534.574 3.94 0 1.406-.203 2.72-.61 3.94-.408 1.222-1.018 2.288-1.832 3.201-.814.913-1.831 1.628-3.053 2.146-1.22.518-2.645.777-4.273.777-1.702 0-3.163-.259-4.385-.777-1.22-.518-2.238-1.233-3.052-2.146zM76.863 16.57h-2.516v-4.403h5.809l.74 1.739c.962-.74 1.862-1.276 2.701-1.61.839-.333 1.714-.499 2.627-.499.42 0 .876.018 1.369.055.493.038.987.142 1.48.315l-.814 4.366c-.37-.099-.69-.16-.962-.185-.271-.025-.617-.037-1.036-.037-.937 0-1.739.166-2.405.5-.666.333-1.184.672-1.554 1.017V31h-5.439V16.57zm27.063 14.615c-.518.123-1.085.228-1.702.315-.617.086-1.147.129-1.591.129-1.628 0-3.034-.24-4.218-.722-1.184-.48-2.158-1.153-2.923-2.016-.765-.863-1.332-1.912-1.702-3.145-.37-1.233-.555-2.59-.555-4.07 0-1.603.265-3.034.796-4.292.53-1.258 1.257-2.319 2.183-3.182.925-.863 2.016-1.523 3.274-1.98 1.258-.456 2.615-.684 4.07-.684 1.258 0 2.504.08 3.737.24 1.233.16 2.59.463 4.07.907v26.418h-5.439v-7.918zm0-14.8c-.37-.099-.746-.166-1.129-.204-.382-.037-.758-.055-1.128-.055-1.406 0-2.565.444-3.478 1.332-.913.888-1.369 2.257-1.369 4.107 0 1.998.37 3.429 1.11 4.292.74.863 1.739 1.295 2.997 1.295.567 0 1.085-.037 1.554-.111.469-.074.95-.197 1.443-.37V16.385zm10.968-4.218h5.402v11.655c0 1.233.29 2.078.87 2.534.58.457 1.325.685 2.238.685.74 0 1.394-.099 1.961-.296.567-.197 1.135-.432 1.702-.703V12.167h5.402v14.541l1.702 2.442-3.922 2.849-1.924-1.961c-.79.42-1.653.79-2.59 1.11-.937.32-2.084.481-3.441.481-1.357 0-2.504-.191-3.441-.574-.937-.382-1.702-.906-2.294-1.572-.592-.666-1.017-1.455-1.276-2.368-.26-.913-.389-1.9-.389-2.96V12.167zm35.24 7.363c-.025-1.258-.333-2.17-.925-2.738-.592-.567-1.32-.851-2.183-.851-1.036 0-1.912.34-2.627 1.018-.715.678-1.11 1.535-1.184 2.571h6.919zm5.661 10.397c-.987.42-2.164.808-3.533 1.166-1.37.357-2.88.536-4.533.536-1.9 0-3.509-.247-4.828-.74-1.32-.493-2.393-1.184-3.22-2.072-.826-.888-1.424-1.942-1.794-3.163-.37-1.222-.555-2.56-.555-4.015 0-1.307.21-2.571.629-3.793.42-1.22 1.048-2.3 1.887-3.237.839-.937 1.862-1.683 3.071-2.239 1.209-.555 2.615-.832 4.218-.832 1.505 0 2.8.234 3.885.703s1.986 1.14 2.701 2.017c.715.875 1.246 1.936 1.591 3.181.345 1.246.518 2.634.518 4.163l-1.554 1.48h-11.137c.05 1.184.512 2.146 1.388 2.886.875.74 2.102 1.11 3.681 1.11.937 0 1.9-.111 2.886-.333.987-.222 2.072-.543 3.256-.962l1.443 4.144zM147.729.401l4.181 2.923-5.883 6.734-3.145-2.22 4.847-7.437zm21.085 11.766h5.402v11.655c0 1.233.29 2.078.87 2.535.58.456 1.325.684 2.238.684.74 0 1.394-.099 1.961-.296.567-.197 1.135-.432 1.702-.703V12.167h5.402v14.541l1.702 2.442-3.922 2.849-1.924-1.961c-.79.42-1.653.79-2.59 1.11-.937.32-2.084.481-3.441.481-1.357 0-2.504-.191-3.441-.574-.937-.382-1.702-.906-2.294-1.572-.592-.666-1.017-1.455-1.276-2.368-.26-.913-.389-1.9-.389-2.96V12.167zm23.474 13.616c.148.074.438.185.87.333.431.148.943.302 1.535.462.592.16 1.233.296 1.924.407.69.112 1.369.167 2.035.167.962 0 1.72-.154 2.276-.463.555-.308.832-.709.832-1.202 0-.32-.08-.573-.24-.758-.16-.186-.414-.34-.759-.463-.345-.123-.777-.247-1.295-.37-.518-.123-1.135-.271-1.85-.444-.592-.148-1.227-.32-1.905-.518-.679-.197-1.314-.493-1.906-.888-.592-.395-1.085-.925-1.48-1.591-.395-.666-.592-1.542-.592-2.627 0-.863.16-1.677.481-2.442.32-.765.808-1.43 1.462-1.998.653-.567 1.492-1.017 2.516-1.35 1.023-.334 2.238-.5 3.644-.5 1.628 0 3.09.166 4.385.5 1.295.333 2.3.672 3.015 1.017l-1.517 3.996c-.962-.345-1.918-.617-2.867-.814-.95-.197-1.881-.296-2.794-.296-1.924 0-2.886.506-2.886 1.517 0 .345.099.623.296.833.197.21.456.382.777.517.32.136.697.253 1.129.352.431.099.881.197 1.35.296.79.173 1.572.364 2.35.573.777.21 1.48.518 2.109.925.629.408 1.134.95 1.517 1.628.382.679.573 1.56.573 2.646 0 1.924-.74 3.472-2.22 4.643-1.48 1.172-3.7 1.758-6.66 1.758-.814 0-1.616-.055-2.405-.167-.79-.11-1.517-.24-2.183-.388-.666-.148-1.24-.302-1.72-.463-.482-.16-.833-.29-1.055-.388l1.258-4.44zm31.873 4.181c-.641.37-1.498.74-2.571 1.11-1.074.37-2.251.555-3.534.555-1.011 0-1.955-.111-2.83-.333-.876-.222-1.64-.573-2.294-1.055-.654-.48-1.172-1.103-1.554-1.868-.383-.765-.574-1.702-.574-2.812 0-1.135.216-2.097.648-2.886.431-.79 1.01-1.424 1.739-1.905.727-.482 1.547-.827 2.46-1.037.913-.21 1.85-.314 2.812-.314h3.959v-.666c0-1.036-.284-1.77-.851-2.201-.567-.432-1.344-.648-2.331-.648-.765 0-1.548.062-2.35.185-.801.123-1.819.395-3.052.814l-1.443-3.922c1.036-.395 2.183-.734 3.441-1.018 1.258-.283 2.64-.425 4.144-.425 1.579 0 2.874.185 3.885.555 1.011.37 1.807.894 2.387 1.572.58.679.98 1.493 1.202 2.443.222.95.333 2.016.333 3.2v7.215l1.813 2.627-3.848 2.701-1.591-1.887zm-1.665-6.808h-3.663c-.79 0-1.412.197-1.868.592-.457.395-.685.937-.685 1.628 0 .765.228 1.338.685 1.72.456.383 1.103.574 1.942.574.74 0 1.4-.099 1.98-.296.58-.197 1.116-.456 1.609-.777v-3.441zm12.189-6.586h-2.516v-4.403h5.809l.74 1.739c.962-.74 1.862-1.276 2.701-1.61.839-.333 1.714-.499 2.627-.499.42 0 .876.018 1.369.055.493.038.987.142 1.48.315l-.814 4.366c-.37-.099-.69-.16-.962-.185-.271-.025-.617-.037-1.036-.037-.937 0-1.739.166-2.405.5-.666.333-1.184.672-1.554 1.017V31h-5.439V16.57zm24.452-4.403h5.402v11.655c0 1.233.29 2.078.87 2.535.58.456 1.325.684 2.238.684.74 0 1.394-.099 1.961-.296.567-.197 1.135-.432 1.702-.703V12.167h5.402v14.541l1.702 2.442-3.922 2.849-1.924-1.961c-.79.42-1.653.79-2.59 1.11-.937.32-2.084.481-3.441.481-1.357 0-2.504-.191-3.441-.574-.937-.382-1.702-.906-2.294-1.572-.592-.666-1.017-1.455-1.276-2.368-.26-.913-.389-1.9-.389-2.96V12.167zm23.77 4.588l-1.332-3.515 4.625-2.109 1.073 1.924c.863-.42 1.751-.777 2.664-1.073.913-.296 1.998-.444 3.256-.444 1.381 0 2.547.191 3.497.573.95.383 1.714.913 2.293 1.591.58.679.993 1.474 1.24 2.387s.37 1.887.37 2.923V31h-5.439V19.419c0-1.209-.234-2.053-.703-2.535-.469-.48-1.196-.721-2.183-.721-.765 0-1.461.092-2.09.277-.63.186-1.24.414-1.832.685V31h-5.439V16.755zm32.888-.185h-2.516v-4.403h5.809l.74 1.739c.962-.74 1.862-1.276 2.701-1.61.839-.333 1.714-.499 2.627-.499.42 0 .876.018 1.369.055.493.038.987.142 1.48.315l-.814 4.366c-.37-.099-.69-.16-.962-.185-.271-.025-.617-.037-1.036-.037-.937 0-1.739.166-2.405.5-.666.333-1.184.672-1.554 1.017V31h-5.439V16.57zm27.174 2.96c-.025-1.258-.333-2.17-.925-2.738-.592-.567-1.32-.851-2.183-.851-1.036 0-1.912.34-2.627 1.018-.715.678-1.11 1.535-1.184 2.571h6.919zm5.661 10.397c-.987.42-2.164.808-3.533 1.166-1.37.357-2.88.536-4.533.536-1.9 0-3.509-.247-4.829-.74-1.32-.493-2.392-1.184-3.219-2.072-.826-.888-1.424-1.942-1.794-3.163-.37-1.222-.555-2.56-.555-4.015 0-1.307.21-2.571.629-3.793.42-1.22 1.048-2.3 1.887-3.237.839-.937 1.862-1.683 3.071-2.239 1.209-.555 2.615-.832 4.218-.832 1.505 0 2.8.234 3.885.703s1.986 1.14 2.701 2.017c.715.875 1.246 1.936 1.591 3.181.345 1.246.518 2.634.518 4.163l-1.554 1.48h-11.137c.05 1.184.512 2.146 1.388 2.886.875.74 2.102 1.11 3.681 1.11.937 0 1.9-.111 2.886-.333.987-.222 2.072-.543 3.256-.962l1.443 4.144zm5.27-13.172l-1.406-3.626 4.366-1.998 1.258 1.85c.69-.345 1.498-.672 2.424-.98.925-.309 1.979-.463 3.163-.463 1.258 0 2.405.216 3.441.647 1.036.432 1.924 1.067 2.664 1.906.74.839 1.307 1.88 1.702 3.127.395 1.245.592 2.682.592 4.31 0 1.455-.185 2.8-.555 4.033-.37 1.233-.943 2.294-1.72 3.182-.778.888-1.77 1.585-2.979 2.09-1.209.506-2.664.759-4.366.759-.469 0-.987-.037-1.554-.111-.567-.074-1.122-.173-1.665-.296v7.918H353.9V16.755zm5.365 9.916c.42.148.863.265 1.332.352.469.086 1.011.129 1.628.129.592 0 1.147-.099 1.665-.296.518-.197.968-.518 1.35-.962.383-.444.685-1.024.907-1.739.222-.715.333-1.591.333-2.627 0-1.924-.345-3.293-1.036-4.107-.69-.814-1.628-1.221-2.812-1.221-.543 0-1.08.068-1.61.204-.53.135-1.116.363-1.757.684v9.583zm17.443-14.504h5.402v11.655c0 1.233.29 2.078.87 2.535.58.456 1.325.684 2.238.684.74 0 1.394-.099 1.961-.296.567-.197 1.135-.432 1.702-.703V12.167h5.402v14.541l1.702 2.442-3.922 2.849-1.924-1.961c-.79.42-1.653.79-2.59 1.11-.937.32-2.084.481-3.441.481-1.357 0-2.504-.191-3.441-.574-.937-.382-1.702-.906-2.294-1.572-.592-.666-1.017-1.455-1.276-2.368-.26-.913-.389-1.9-.389-2.96V12.167zm35.24 7.363c-.025-1.258-.333-2.17-.925-2.738-.592-.567-1.32-.851-2.183-.851-1.036 0-1.912.34-2.627 1.018-.715.678-1.11 1.535-1.184 2.571h6.919zm5.661 10.397c-.987.42-2.164.808-3.533 1.166-1.37.357-2.88.536-4.533.536-1.9 0-3.509-.247-4.828-.74-1.32-.493-2.393-1.184-3.22-2.072-.826-.888-1.424-1.942-1.794-3.163-.37-1.222-.555-2.56-.555-4.015 0-1.307.21-2.571.629-3.793.42-1.22 1.048-2.3 1.887-3.237.839-.937 1.862-1.683 3.071-2.239 1.209-.555 2.615-.832 4.218-.832 1.505 0 2.8.234 3.885.703s1.986 1.14 2.701 2.017c.715.875 1.246 1.936 1.591 3.181.345 1.246.518 2.634.518 4.163l-1.554 1.48h-11.137c.05 1.184.512 2.146 1.388 2.886.875.74 2.102 1.11 3.681 1.11.937 0 1.9-.111 2.886-.333.987-.222 2.072-.543 3.256-.962l1.443 4.144zm4.9-4.144c.148.074.438.185.87.333.431.148.943.302 1.535.462.592.16 1.233.296 1.924.407.69.112 1.369.167 2.035.167.962 0 1.72-.154 2.276-.463.555-.308.832-.709.832-1.202 0-.32-.08-.573-.24-.758-.16-.186-.414-.34-.759-.463-.345-.123-.777-.247-1.295-.37-.518-.123-1.135-.271-1.85-.444-.592-.148-1.227-.32-1.905-.518-.679-.197-1.314-.493-1.906-.888-.592-.395-1.085-.925-1.48-1.591-.395-.666-.592-1.542-.592-2.627 0-.863.16-1.677.481-2.442.32-.765.808-1.43 1.462-1.998.653-.567 1.492-1.017 2.516-1.35 1.023-.334 2.238-.5 3.644-.5 1.628 0 3.09.166 4.385.5 1.295.333 2.3.672 3.015 1.017l-1.517 3.996c-.962-.345-1.918-.617-2.867-.814-.95-.197-1.881-.296-2.794-.296-1.924 0-2.886.506-2.886 1.517 0 .345.099.623.296.833.197.21.456.382.777.517.32.136.697.253 1.129.352.431.099.881.197 1.35.296.79.173 1.572.364 2.35.573.777.21 1.48.518 2.108.925.63.408 1.135.95 1.517 1.628.383.679.574 1.56.574 2.646 0 1.924-.74 3.472-2.22 4.643-1.48 1.172-3.7 1.758-6.66 1.758-.814 0-1.616-.055-2.405-.167-.79-.11-1.517-.24-2.183-.388-.666-.148-1.24-.302-1.72-.463-.482-.16-.833-.29-1.055-.388l1.258-4.44zm20.662-9.213h-2.516v-4.403h2.516V6.95h5.328v5.217h5.624v4.403h-5.624v7.992c0 1.011.247 1.696.74 2.053.493.358 1.098.537 1.813.537.469 0 .98-.043 1.536-.13.555-.086 1.227-.228 2.016-.425l.999 4.033c-.345.123-.746.247-1.202.37-.457.123-.938.228-1.443.314-.506.087-1.024.16-1.555.223-.53.061-1.03.092-1.498.092-1.011 0-1.93-.111-2.756-.333-.827-.222-1.536-.58-2.128-1.073-.592-.493-1.048-1.14-1.369-1.942-.32-.802-.481-1.795-.481-2.979V16.57zm24.806 10.619c2.787 0 4.181-1.875 4.181-5.624 0-3.725-1.394-5.587-4.181-5.587-2.837 0-4.255 1.862-4.255 5.587 0 3.75 1.418 5.624 4.255 5.624zm-7.437 1.517c-.814-.913-1.418-1.98-1.813-3.2-.395-1.222-.592-2.535-.592-3.941 0-1.406.216-2.72.648-3.94.431-1.222 1.06-2.282 1.887-3.183.826-.9 1.85-1.609 3.07-2.127 1.222-.518 2.634-.777 4.237-.777 1.702 0 3.17.259 4.403.777 1.233.518 2.245 1.227 3.034 2.127.79.9 1.375 1.961 1.758 3.183.382 1.22.573 2.534.573 3.94 0 1.406-.203 2.72-.61 3.94-.408 1.222-1.018 2.288-1.832 3.201-.814.913-1.831 1.628-3.052 2.146-1.222.518-2.646.777-4.274.777-1.702 0-3.163-.259-4.384-.777-1.222-.518-2.239-1.233-3.053-2.146zM14.174 76.189c2.787 0 4.181-1.875 4.181-5.624 0-3.725-1.394-5.587-4.181-5.587-2.837 0-4.255 1.862-4.255 5.587 0 3.75 1.418 5.624 4.255 5.624zm-7.437 1.517c-.814-.913-1.418-1.98-1.813-3.2-.395-1.222-.592-2.535-.592-3.941 0-1.406.216-2.72.648-3.94.431-1.222 1.06-2.282 1.887-3.183.826-.9 1.85-1.609 3.07-2.127 1.222-.518 2.634-.777 4.237-.777 1.702 0 3.17.259 4.403.777 1.233.518 2.245 1.227 3.034 2.127.79.9 1.375 1.961 1.758 3.182.382 1.222.573 2.535.573 3.941 0 1.406-.203 2.72-.61 3.94-.408 1.222-1.018 2.288-1.832 3.201-.814.913-1.831 1.628-3.052 2.146-1.222.518-2.646.777-4.274.777-1.702 0-3.163-.259-4.384-.777-1.222-.518-2.239-1.233-3.053-2.146zM29.804 65.57h-2.516v-4.403h5.809l.74 1.739c.962-.74 1.862-1.276 2.701-1.61.839-.333 1.714-.499 2.627-.499.42 0 .876.018 1.369.056.493.037.987.141 1.48.314l-.814 4.366c-.37-.099-.69-.16-.962-.185-.271-.025-.617-.037-1.036-.037-.937 0-1.739.166-2.405.5-.666.333-1.184.672-1.554 1.017V80h-5.439V65.57zm17.11 0h-2.516v-4.403h7.955V80h-5.439V65.57zm-.111-7.363c-.543-.617-.814-1.357-.814-2.22 0-.863.277-1.603.833-2.22.555-.617 1.387-.925 2.497-.925 1.06 0 1.868.308 2.424.925.555.617.832 1.357.832 2.22 0 .863-.277 1.597-.832 2.201-.556.605-1.363.907-2.424.907-1.135 0-1.973-.296-2.516-.888zm13.225 24.494c.913.296 1.85.561 2.812.796.962.234 1.961.351 2.997.351.444 0 .919-.037 1.425-.111.505-.074.974-.203 1.406-.388.431-.186.783-.45 1.054-.796.271-.345.407-.802.407-1.369v-1.036c-.518.123-1.067.234-1.646.333-.58.099-1.178.148-1.795.148-1.751 0-3.225-.253-4.421-.759-1.197-.505-2.165-1.208-2.905-2.109-.74-.9-1.276-1.96-1.61-3.181-.333-1.222-.499-2.547-.499-3.978 0-1.579.247-2.997.74-4.255s1.165-2.312 2.017-3.163c.85-.852 1.85-1.505 2.997-1.962 1.147-.456 2.374-.684 3.681-.684.79 0 1.591.086 2.405.259.814.173 1.554.432 2.22.777l.999-1.443L76.9 61.87l-1.332 3.7v15.503c0 1.43-.265 2.615-.795 3.552-.53.937-1.24 1.683-2.128 2.239-.888.555-1.905.943-3.052 1.165-1.148.222-2.325.333-3.534.333-1.357 0-2.64-.111-3.848-.333-1.209-.222-2.331-.53-3.367-.925l1.184-4.403zm10.138-16.724c-.395-.247-.87-.444-1.424-.592-.556-.148-1.104-.222-1.647-.222-.567 0-1.11.099-1.628.296-.518.197-.974.512-1.369.943-.395.432-.71.993-.943 1.684-.235.69-.352 1.53-.352 2.516 0 1.924.376 3.336 1.129 4.236.752.9 1.806 1.351 3.163 1.351.543 0 1.067-.043 1.573-.13.505-.086 1.005-.203 1.498-.351v-9.731zm11.412-.222l-1.332-3.515 4.625-2.109 1.073 1.924c.863-.42 1.751-.777 2.664-1.073.913-.296 1.998-.444 3.256-.444 1.381 0 2.547.191 3.497.574.95.382 1.714.912 2.294 1.59.58.679.992 1.474 1.239 2.387.247.913.37 1.887.37 2.923V80h-5.439V68.419c0-1.209-.234-2.053-.703-2.534-.469-.482-1.196-.722-2.183-.722-.765 0-1.461.092-2.09.278-.63.185-1.24.413-1.832.684V80h-5.439V65.755zm35.351 13.209c-.641.37-1.498.74-2.571 1.11-1.074.37-2.251.555-3.534.555-1.011 0-1.955-.111-2.83-.333-.876-.222-1.64-.573-2.294-1.055-.654-.48-1.172-1.103-1.554-1.868-.383-.765-.574-1.702-.574-2.812 0-1.135.216-2.097.648-2.886.431-.79 1.01-1.424 1.739-1.906.727-.48 1.547-.826 2.46-1.036.913-.21 1.85-.314 2.812-.314h3.959v-.666c0-1.036-.284-1.77-.851-2.202-.567-.431-1.344-.647-2.331-.647-.765 0-1.548.062-2.35.185-.801.123-1.819.395-3.052.814l-1.443-3.922c1.036-.395 2.183-.734 3.441-1.018 1.258-.283 2.64-.425 4.144-.425 1.579 0 2.874.185 3.885.555 1.011.37 1.807.894 2.387 1.572.58.679.98 1.493 1.202 2.443.222.95.333 2.016.333 3.2v7.215l1.813 2.627-3.848 2.701-1.591-1.887zm-1.665-6.808h-3.663c-.79 0-1.412.197-1.868.592-.457.395-.685.937-.685 1.628 0 .765.228 1.338.685 1.72.456.383 1.103.574 1.942.574.74 0 1.4-.099 1.98-.296.58-.197 1.116-.456 1.609-.777v-3.441zm11.486-14.43h-2.146v-4.403h7.585V80h-5.439V57.726zm16.481 12.395c0-1.036.148-1.93.444-2.683.296-.752.962-1.498 1.998-2.238l2.294-1.665c.79-.567 1.43-1.104 1.924-1.61.493-.505.74-1.079.74-1.72 0-.863-.4-1.505-1.202-1.924-.802-.42-1.832-.629-3.09-.629-1.184 0-2.3.222-3.348.666-1.049.444-2.19 1.036-3.423 1.776l-2.368-4.033c1.209-.839 2.615-1.572 4.218-2.202 1.603-.629 3.441-.943 5.513-.943 1.505 0 2.855.173 4.052.518 1.196.345 2.201.826 3.015 1.443.814.617 1.437 1.338 1.869 2.164.431.827.647 1.721.647 2.683 0 .814-.105 1.535-.314 2.164-.21.63-.506 1.215-.888 1.758-.383.543-.833 1.042-1.351 1.498-.518.457-1.073.907-1.665 1.351l-1.85 1.332c-.345.271-.641.506-.888.703-.247.197-.45.4-.61.61-.16.21-.278.438-.352.685-.074.247-.111.555-.111.925v1.221h-5.254v-1.85zm.296 9.583c-.493-.617-.74-1.381-.74-2.294s.253-1.665.759-2.257c.505-.592 1.288-.888 2.349-.888 1.036 0 1.807.296 2.313.888.505.592.758 1.344.758 2.257 0 .937-.253 1.702-.758 2.294-.506.592-1.277.888-2.313.888-1.06 0-1.85-.296-2.368-.888zM6.172 146.316c.587 0 1.1-.077 1.54-.231.44-.154.807-.429 1.1-.825.293-.396.513-.928.66-1.595.147-.667.22-1.514.22-2.541 0-.983-.066-1.815-.198-2.497-.132-.682-.337-1.228-.616-1.639-.279-.41-.634-.708-1.067-.891-.433-.183-.942-.275-1.529-.275h-2.2v10.494h2.09zM.54 149v-15.862h6.006c2.376 0 4.11.653 5.203 1.958s1.639 3.337 1.639 6.094c0 2.67-.572 4.638-1.716 5.907C10.528 148.366 8.761 149 6.37 149H.54zm19.744-13.112v3.63h4.994v2.816h-4.994v3.916h6.952V149H16.742v-15.862h10.274v2.75h-6.732zm9.887 9.658c.792.455 1.518.766 2.178.935.66.169 1.32.253 1.98.253.968 0 1.657-.176 2.068-.528.41-.352.616-.836.616-1.452 0-.293-.04-.55-.121-.77-.08-.22-.231-.414-.451-.583-.22-.169-.524-.326-.913-.473-.389-.147-.891-.293-1.507-.44-.69-.161-1.32-.356-1.892-.583-.572-.227-1.063-.52-1.474-.88-.41-.36-.73-.803-.957-1.331-.227-.528-.341-1.18-.341-1.958 0-1.525.517-2.728 1.551-3.608 1.034-.88 2.497-1.32 4.389-1.32.997 0 1.885.106 2.662.319.777.213 1.57.546 2.376 1.001l-1.298 2.31c-.147-.088-.348-.194-.605-.319s-.543-.238-.858-.341c-.315-.103-.649-.19-1.001-.264-.352-.073-.704-.11-1.056-.11-.939 0-1.606.161-2.002.484-.396.323-.594.74-.594 1.254 0 .337.059.62.176.847.117.227.308.429.572.605.264.176.612.337 1.045.484.433.147.964.308 1.595.484.499.147 1.005.323 1.518.528.513.205.979.48 1.397.825.418.345.763.777 1.034 1.298.271.52.407 1.177.407 1.969 0 1.701-.524 2.996-1.573 3.883s-2.578 1.331-4.587 1.331c-1.203 0-2.259-.128-3.168-.385-.91-.257-1.709-.62-2.398-1.089l1.232-2.376zm23.616-9.108c-.543-.367-1.075-.62-1.595-.759-.521-.14-1.038-.209-1.551-.209-.587 0-1.104.103-1.551.308-.448.205-.822.532-1.122.979-.301.447-.528 1.034-.682 1.76-.154.726-.231 1.61-.231 2.651 0 1.921.308 3.315.924 4.18.616.865 1.503 1.298 2.662 1.298.586 0 1.17-.088 1.749-.264.579-.176 1.177-.455 1.793-.836l1.254 2.31c-.822.543-1.658.935-2.508 1.177-.851.242-1.71.363-2.574.363-2.435 0-4.21-.671-5.324-2.013-1.115-1.342-1.672-3.414-1.672-6.215 0-2.699.616-4.767 1.848-6.204 1.232-1.437 2.999-2.156 5.302-2.156.513 0 .979.033 1.397.099.418.066.81.158 1.177.275.366.117.71.26 1.034.429.322.169.645.348.968.539l-1.298 2.288zm10.35 12.958c-1.204 0-2.205-.147-3.004-.44-.8-.293-1.437-.73-1.914-1.309-.477-.58-.814-1.305-1.012-2.178-.198-.873-.297-1.881-.297-3.025v-9.306h3.542v9.064c0 .821.048 1.518.143 2.09.095.572.253 1.041.473 1.408.22.367.506.63.858.792.352.161.785.242 1.298.242 1.07 0 1.811-.37 2.222-1.111.41-.74.616-1.822.616-3.245v-9.24h3.41v9.174c0 1.041-.103 1.995-.308 2.86-.205.865-.55 1.61-1.034 2.233s-1.133 1.111-1.947 1.463c-.814.352-1.83.528-3.047.528zm15.959-16.258c.777 0 1.477.08 2.1.242.624.161 1.152.414 1.585.759.432.345.766.781 1 1.309.235.528.353 1.166.353 1.914 0 .66-.147 1.265-.44 1.815-.294.55-.77 1.023-1.43 1.419.953.425 1.61.964 1.969 1.617s.539 1.397.539 2.233c0 1.51-.451 2.647-1.353 3.41-.902.763-2.27 1.144-4.103 1.144h-6.05v-15.862h5.83zm-.528 13.332c.41 0 .784-.026 1.122-.077.337-.051.623-.154.858-.308.234-.154.414-.37.539-.649.124-.279.187-.645.187-1.1 0-.455-.055-.818-.165-1.089-.11-.271-.275-.484-.495-.638-.22-.154-.492-.257-.814-.308-.323-.051-.697-.077-1.122-.077h-1.914v4.246h1.804zm-.066-6.974c.792 0 1.356-.147 1.694-.44.337-.293.506-.807.506-1.54s-.187-1.243-.561-1.529c-.374-.286-.957-.429-1.75-.429h-1.627v3.938h1.738zM92.205 149h-3.52v-15.862h5.39c.777 0 1.503.077 2.178.231.675.154 1.265.407 1.771.759.506.352.902.814 1.188 1.386.286.572.43 1.276.43 2.112 0 1.1-.272 1.998-.815 2.695-.543.697-1.21 1.228-2.002 1.595.25.176.491.47.726.88l3.41 6.05-3.718.484-2.97-5.412c-.205-.337-.418-.609-.638-.814-.22-.205-.587-.308-1.1-.308h-.33V149zm1.32-8.844c.821 0 1.404-.194 1.75-.583.344-.389.516-.942.516-1.661 0-.763-.18-1.327-.539-1.694-.36-.367-.957-.55-1.793-.55h-1.232v4.488h1.298zm13.562-4.268v3.63h4.994v2.816h-4.994v3.916h6.952V149h-10.494v-15.862h10.274v2.75h-6.732zm18.41 10.362h6.953V149h-10.494v-15.862h3.542v13.112zm15.916-13.376c.587 0 1.093.059 1.518.176.425.117.788.315 1.09.594.3.279.556.649.77 1.111.212.462.406 1.038.582 1.727l3.168 12.474-3.542.352-1.122-4.554h-5.148l-1.21 4.598-3.366-.506 3.454-12.298c.161-.557.341-1.063.54-1.518.197-.455.443-.84.736-1.155.293-.315.645-.561 1.056-.737.41-.176.902-.264 1.474-.264zm-1.958 9.02h3.762l-1.188-5.038c-.073-.293-.15-.513-.23-.66-.082-.147-.21-.22-.386-.22-.205 0-.356.07-.45.209-.096.14-.18.356-.254.649l-1.254 5.06zm11.802 3.652c.792.455 1.518.766 2.178.935.66.169 1.32.253 1.98.253.968 0 1.657-.176 2.068-.528.41-.352.616-.836.616-1.452 0-.293-.04-.55-.121-.77-.081-.22-.231-.414-.451-.583-.22-.169-.525-.326-.913-.473-.389-.147-.891-.293-1.507-.44-.69-.161-1.32-.356-1.892-.583-.572-.227-1.064-.52-1.474-.88-.411-.36-.73-.803-.957-1.331-.228-.528-.341-1.18-.341-1.958 0-1.525.517-2.728 1.55-3.608 1.035-.88 2.498-1.32 4.39-1.32.997 0 1.884.106 2.662.319.777.213 1.569.546 2.376 1.001l-1.298 2.31c-.147-.088-.349-.194-.605-.319-.257-.125-.543-.238-.858-.341-.316-.103-.65-.19-1.001-.264-.352-.073-.704-.11-1.056-.11-.939 0-1.606.161-2.002.484-.396.323-.594.74-.594 1.254 0 .337.058.62.176.847.117.227.308.429.572.605.264.176.612.337 1.045.484.432.147.964.308 1.595.484.498.147 1.004.323 1.518.528.513.205.979.48 1.397.825.418.345.762.777 1.034 1.298.271.52.407 1.177.407 1.969 0 1.701-.525 2.996-1.573 3.883-1.049.887-2.578 1.331-4.587 1.331-1.203 0-2.259-.128-3.168-.385-.91-.257-1.709-.62-2.398-1.089l1.232-2.376zm24.483.77c.586 0 1.1-.077 1.54-.231.44-.154.806-.429 1.1-.825.293-.396.513-.928.66-1.595.146-.667.22-1.514.22-2.541 0-.983-.066-1.815-.198-2.497-.132-.682-.338-1.228-.616-1.639-.279-.41-.635-.708-1.067-.891-.433-.183-.943-.275-1.53-.275h-2.2v10.494h2.09zM170.108 149v-15.862h6.006c2.376 0 4.11.653 5.203 1.958 1.092 1.305 1.639 3.337 1.639 6.094 0 2.67-.572 4.638-1.716 5.907-1.144 1.269-2.912 1.903-5.302 1.903h-5.83zm19.743 0h-3.542v-15.862h3.542V149zm3.794-15.862h10.274v2.75h-6.732v3.784h4.994v2.816h-4.994V149h-3.542v-15.862zm16.51 2.75v3.63h4.993v2.816h-4.994v3.916h6.952V149h-10.494v-15.862h10.274v2.75h-6.732zM223.32 149h-3.52v-15.862h5.39c.777 0 1.503.077 2.178.231.674.154 1.265.407 1.77.759.507.352.903.814 1.189 1.386.286.572.429 1.276.429 2.112 0 1.1-.272 1.998-.814 2.695-.543.697-1.21 1.228-2.002 1.595.25.176.491.47.726.88l3.41 6.05-3.718.484-2.97-5.412c-.206-.337-.418-.609-.638-.814-.22-.205-.587-.308-1.1-.308h-.33V149zm1.32-8.844c.821 0 1.404-.194 1.749-.583.344-.389.517-.942.517-1.661 0-.763-.18-1.327-.54-1.694-.359-.367-.956-.55-1.792-.55h-1.232v4.488h1.298zm13.561-4.268v3.63h4.994v2.816h-4.994v3.916h6.952V149H234.66v-15.862h10.274v2.75h-6.732zm9.646-2.75h3.982l5.06 11.462c.044.103.088.194.132.275.044.08.102.121.176.121.102 0 .165-.033.187-.099.022-.066.033-.158.033-.275v-11.484h3.058v13.156c0 .85-.22 1.544-.66 2.079-.44.535-1.188.803-2.244.803-.484 0-.891-.051-1.221-.154-.33-.103-.613-.253-.847-.451-.235-.198-.433-.429-.594-.693-.162-.264-.316-.565-.462-.902l-3.542-7.942V149h-3.058v-15.862zm26.41 3.3c-.543-.367-1.075-.62-1.596-.759-.52-.14-1.037-.209-1.55-.209-.587 0-1.104.103-1.552.308-.447.205-.821.532-1.122.979-.3.447-.528 1.034-.682 1.76-.154.726-.23 1.61-.23 2.651 0 1.921.307 3.315.923 4.18.616.865 1.504 1.298 2.662 1.298.587 0 1.17-.088 1.75-.264.579-.176 1.176-.455 1.792-.836l1.254 2.31c-.821.543-1.657.935-2.508 1.177-.85.242-1.708.363-2.574.363-2.434 0-4.21-.671-5.324-2.013-1.114-1.342-1.672-3.414-1.672-6.215 0-2.699.616-4.767 1.848-6.204 1.232-1.437 3-2.156 5.302-2.156.514 0 .98.033 1.397.099.418.066.81.158 1.177.275.367.117.712.26 1.034.429.323.169.646.348.968.539l-1.298 2.288zM281.921 149h-3.542v-15.862h3.542V149zm9.733-16.126c.587 0 1.093.059 1.518.176.426.117.789.315 1.09.594.3.279.557.649.77 1.111.212.462.406 1.038.582 1.727l3.168 12.474-3.542.352-1.122-4.554h-5.148l-1.21 4.598-3.366-.506 3.454-12.298c.162-.557.341-1.063.54-1.518.197-.455.443-.84.736-1.155.294-.315.646-.561 1.056-.737.411-.176.902-.264 1.474-.264zm-1.958 9.02h3.762l-1.188-5.038c-.073-.293-.15-.513-.23-.66-.081-.147-.21-.22-.386-.22-.205 0-.355.07-.45.209-.096.14-.18.356-.254.649l-1.254 5.06zm11.802 3.652c.792.455 1.518.766 2.178.935.66.169 1.32.253 1.98.253.968 0 1.657-.176 2.068-.528.41-.352.616-.836.616-1.452 0-.293-.04-.55-.121-.77-.08-.22-.231-.414-.451-.583-.22-.169-.525-.326-.913-.473-.389-.147-.891-.293-1.507-.44-.69-.161-1.32-.356-1.892-.583-.572-.227-1.064-.52-1.474-.88-.41-.36-.73-.803-.957-1.331-.228-.528-.341-1.18-.341-1.958 0-1.525.517-2.728 1.55-3.608 1.035-.88 2.498-1.32 4.39-1.32.997 0 1.884.106 2.662.319.777.213 1.57.546 2.376 1.001l-1.298 2.31c-.147-.088-.349-.194-.605-.319-.257-.125-.543-.238-.858-.341-.316-.103-.65-.19-1.001-.264-.352-.073-.704-.11-1.056-.11-.939 0-1.606.161-2.002.484-.396.323-.594.74-.594 1.254 0 .337.058.62.176.847.117.227.308.429.572.605.264.176.612.337 1.045.484.432.147.964.308 1.595.484.498.147 1.004.323 1.518.528.513.205.979.48 1.397.825.418.345.762.777 1.034 1.298.271.52.407 1.177.407 1.969 0 1.701-.525 2.996-1.573 3.883-1.049.887-2.578 1.331-4.587 1.331-1.203 0-2.259-.128-3.168-.385-.91-.257-1.709-.62-2.398-1.089l1.232-2.376zm22.393-9.658v3.63h4.994v2.816h-4.994v3.916h6.952V149H320.35v-15.862h10.274v2.75h-6.732zm9.645-2.75h3.982l5.06 11.462c.044.103.088.194.132.275.044.08.103.121.176.121.103 0 .165-.033.187-.099.022-.066.033-.158.033-.275v-11.484h3.058v13.156c0 .85-.22 1.544-.66 2.079-.44.535-1.188.803-2.244.803-.484 0-.89-.051-1.22-.154-.33-.103-.613-.253-.848-.451-.234-.198-.432-.429-.594-.693-.161-.264-.315-.565-.462-.902l-3.542-7.942V149h-3.058v-15.862zm27.224 2.75h-4.29V149h-3.542v-13.112h-4.29v-2.75h12.122v2.75zM366.754 149h-3.52v-15.862h5.39c.778 0 1.504.077 2.178.231.675.154 1.265.407 1.771.759.506.352.902.814 1.188 1.386.286.572.43 1.276.43 2.112 0 1.1-.272 1.998-.815 2.695-.542.697-1.21 1.228-2.002 1.595.25.176.492.47.726.88l3.41 6.05-3.718.484-2.97-5.412c-.205-.337-.418-.609-.638-.814-.22-.205-.586-.308-1.1-.308h-.33V149zm1.32-8.844c.822 0 1.405-.194 1.75-.583.344-.389.516-.942.516-1.661 0-.763-.18-1.327-.539-1.694-.359-.367-.957-.55-1.793-.55h-1.232v4.488h1.298zm13.562-4.268v3.63h4.994v2.816h-4.994v3.916h6.952V149h-10.494v-15.862h10.274v2.75h-6.732zm21.095 13.508c-1.203 0-2.204-.147-3.003-.44-.8-.293-1.437-.73-1.914-1.309-.477-.58-.814-1.305-1.012-2.178-.198-.873-.297-1.881-.297-3.025v-9.306h3.542v9.064c0 .821.048 1.518.143 2.09.095.572.253 1.041.473 1.408.22.367.506.63.858.792.352.161.785.242 1.298.242 1.07 0 1.811-.37 2.222-1.111.41-.74.616-1.822.616-3.245v-9.24h3.41v9.174c0 1.041-.103 1.995-.308 2.86-.205.865-.55 1.61-1.034 2.233s-1.133 1.111-1.947 1.463c-.814.352-1.83.528-3.047.528zm10.13-16.258h3.981l5.06 11.462c.044.103.088.194.132.275.044.08.103.121.176.121.103 0 .165-.033.187-.099.022-.066.033-.158.033-.275v-11.484h3.058v13.156c0 .85-.22 1.544-.66 2.079-.44.535-1.188.803-2.244.803-.484 0-.89-.051-1.22-.154-.33-.103-.613-.253-.848-.451-.234-.198-.432-.429-.594-.693-.16-.264-.315-.565-.462-.902l-3.542-7.942V149h-3.058v-15.862zM4.06 176H.54v-15.862h5.39c.777 0 1.503.077 2.178.231.675.154 1.265.407 1.771.759.506.352.902.814 1.188 1.386.286.572.429 1.276.429 2.112 0 1.1-.271 1.998-.814 2.695-.543.697-1.21 1.228-2.002 1.595.25.176.491.47.726.88l3.41 6.05-3.718.484-2.97-5.412c-.205-.337-.418-.609-.638-.814-.22-.205-.587-.308-1.1-.308h-.33V176zm1.32-8.844c.821 0 1.404-.194 1.749-.583.345-.389.517-.942.517-1.661 0-.763-.18-1.327-.539-1.694-.36-.367-.957-.55-1.793-.55H4.082v4.488H5.38zm13.562-4.268v3.63h4.994v2.816h-4.994v3.916h6.952V176H15.4v-15.862h10.274v2.75h-6.732zm14.595 4.62c.792 0 1.379-.209 1.76-.627.381-.418.572-1.016.572-1.793 0-.821-.165-1.43-.495-1.826-.33-.396-.942-.594-1.837-.594h-1.408v4.84h1.408zm-1.408 2.64V176h-3.542v-15.862h5.038c.91 0 1.734.066 2.475.198.74.132 1.371.381 1.892.748.52.367.92.873 1.199 1.518s.418 1.474.418 2.486c0 .939-.15 1.73-.451 2.376-.3.645-.715 1.166-1.243 1.562-.528.396-1.159.682-1.892.858-.733.176-1.533.264-2.398.264h-1.496zm16.73 6.248c-1.203 0-2.204-.147-3.003-.44-.8-.293-1.438-.73-1.914-1.309-.477-.58-.814-1.305-1.012-2.178-.198-.873-.297-1.881-.297-3.025v-9.306h3.542v9.064c0 .821.047 1.518.143 2.09.095.572.253 1.041.473 1.408.22.367.506.63.858.792.352.161.784.242 1.298.242 1.07 0 1.81-.37 2.222-1.111.41-.74.616-1.822.616-3.245v-9.24h3.41v9.174c0 1.041-.103 1.995-.308 2.86-.206.865-.55 1.61-1.034 2.233s-1.133 1.111-1.947 1.463c-.814.352-1.83.528-3.047.528zm13.671-13.508v3.63h4.994v2.816H62.53v3.916h6.952V176H58.988v-15.862h10.274v2.75H62.53zm9.888 9.658c.792.455 1.518.766 2.178.935.66.169 1.32.253 1.98.253.968 0 1.657-.176 2.068-.528.41-.352.616-.836.616-1.452 0-.293-.04-.55-.121-.77-.081-.22-.231-.414-.451-.583-.22-.169-.525-.326-.913-.473-.39-.147-.891-.293-1.507-.44-.69-.161-1.32-.356-1.892-.583-.572-.227-1.064-.52-1.474-.88-.411-.36-.73-.803-.957-1.331-.228-.528-.341-1.18-.341-1.958 0-1.525.517-2.728 1.55-3.608 1.035-.88 2.498-1.32 4.39-1.32.997 0 1.884.106 2.662.319.777.213 1.569.546 2.376 1.001l-1.298 2.31c-.147-.088-.349-.194-.605-.319-.257-.125-.543-.238-.858-.341-.316-.103-.65-.19-1.001-.264-.352-.073-.704-.11-1.056-.11-.94 0-1.606.161-2.002.484-.396.323-.594.74-.594 1.254 0 .337.058.62.176.847.117.227.308.429.572.605.264.176.612.337 1.045.484.432.147.964.308 1.595.484.498.147 1.004.323 1.518.528.513.205.979.48 1.397.825.418.345.762.777 1.034 1.298.27.52.407 1.177.407 1.969 0 1.701-.525 2.996-1.573 3.883-1.05.887-2.578 1.331-4.587 1.331-1.203 0-2.26-.128-3.168-.385-.91-.257-1.71-.62-2.398-1.089l1.232-2.376zm24.43-9.658h-4.29V176h-3.543v-13.112h-4.29v-2.75h12.122v2.75zm8.17 10.846c.529 0 .99-.099 1.387-.297.396-.198.73-.517 1-.957.272-.44.474-1.016.606-1.727.132-.711.198-1.58.198-2.607 0-1.98-.246-3.421-.737-4.323-.492-.902-1.273-1.353-2.343-1.353-.5 0-.946.103-1.342.308-.396.205-.734.532-1.012.979-.28.447-.492 1.034-.638 1.76-.147.726-.22 1.61-.22 2.651 0 1.965.249 3.384.748 4.257.498.873 1.283 1.309 2.354 1.309zm-6.797-5.566c0-2.699.579-4.767 1.738-6.204 1.158-1.437 2.874-2.156 5.148-2.156 2.185 0 3.864.7 5.038 2.101 1.173 1.4 1.76 3.487 1.76 6.259 0 2.655-.569 4.69-1.705 6.105-1.137 1.415-2.893 2.123-5.27 2.123-1.202 0-2.229-.18-3.08-.539-.85-.36-1.543-.884-2.078-1.573-.536-.69-.928-1.547-1.177-2.574-.25-1.027-.374-2.207-.374-3.542zm28.619 5.566c.528 0 .99-.099 1.386-.297.396-.198.73-.517 1-.957.272-.44.474-1.016.606-1.727.132-.711.198-1.58.198-2.607 0-1.98-.246-3.421-.737-4.323-.492-.902-1.273-1.353-2.343-1.353-.499 0-.946.103-1.342.308-.396.205-.734.532-1.012.979-.279.447-.492 1.034-.638 1.76-.147.726-.22 1.61-.22 2.651 0 1.965.249 3.384.748 4.257.498.873 1.283 1.309 2.354 1.309zm-6.798-5.566c0-2.699.579-4.767 1.738-6.204 1.158-1.437 2.874-2.156 5.148-2.156 2.185 0 3.864.7 5.038 2.101 1.173 1.4 1.76 3.487 1.76 6.259 0 2.655-.569 4.69-1.705 6.105-1.137 1.415-2.893 2.123-5.27 2.123-1.202 0-2.229-.18-3.08-.539-.85-.36-1.543-.884-2.078-1.573-.536-.69-.928-1.547-1.177-2.574-.25-1.027-.374-2.207-.374-3.542zM140.599 176h-3.52v-15.862h5.39c.777 0 1.503.077 2.178.231.675.154 1.265.407 1.771.759.506.352.902.814 1.188 1.386.286.572.43 1.276.43 2.112 0 1.1-.272 1.998-.815 2.695-.543.697-1.21 1.228-2.002 1.595.25.176.491.47.726.88l3.41 6.05-3.718.484-2.97-5.412c-.205-.337-.418-.609-.638-.814-.22-.205-.587-.308-1.1-.308h-.33V176zm1.32-8.844c.821 0 1.404-.194 1.75-.583.344-.389.516-.942.516-1.661 0-.763-.18-1.327-.539-1.694-.36-.367-.957-.55-1.793-.55h-1.232v4.488h1.298zM155.481 176h-3.542v-15.862h3.542V176zm14.111-12.496c-.47-.367-1.005-.63-1.606-.792-.601-.161-1.188-.242-1.76-.242-.587 0-1.11.103-1.573.308-.462.205-.854.532-1.177.979-.323.447-.568 1.034-.737 1.76-.169.726-.253 1.61-.253 2.651 0 1.965.282 3.384.847 4.257.565.873 1.382 1.309 2.453 1.309.44 0 .884-.033 1.331-.099.447-.066.847-.18 1.2-.341v-3.344h-2.663v-2.618h5.786v7.568c-.323.19-.67.378-1.045.561-.374.183-.792.345-1.254.484-.462.14-.979.25-1.55.33-.573.08-1.218.121-1.937.121-1.232 0-2.28-.18-3.146-.539-.865-.36-1.57-.884-2.112-1.573-.543-.69-.939-1.547-1.188-2.574-.25-1.027-.374-2.207-.374-3.542 0-2.699.634-4.767 1.903-6.204 1.269-1.437 3.054-2.156 5.357-2.156 1.1 0 2.031.136 2.794.407.763.271 1.43.605 2.002 1.001l-1.298 2.288zM178.446 176h-3.542v-15.862h3.542V176zm3.793-15.862h3.982l5.06 11.462c.044.103.088.194.132.275.044.08.103.121.176.121.103 0 .165-.033.187-.099.022-.066.033-.158.033-.275v-11.484h3.058v13.156c0 .85-.22 1.544-.66 2.079-.44.535-1.188.803-2.244.803-.484 0-.89-.051-1.22-.154-.33-.103-.613-.253-.848-.451-.234-.198-.432-.429-.594-.693-.161-.264-.315-.565-.462-.902l-3.542-7.942V176h-3.058v-15.862zm22.362-.264c.586 0 1.092.059 1.518.176.425.117.788.315 1.089.594.3.279.557.649.77 1.111.212.462.407 1.038.583 1.727l3.168 12.474-3.542.352-1.122-4.554h-5.148l-1.21 4.598-3.366-.506 3.454-12.298c.161-.557.34-1.063.539-1.518.198-.455.443-.84.737-1.155.293-.315.645-.561 1.056-.737.41-.176.902-.264 1.474-.264zm-1.958 9.02h3.762l-1.188-5.038c-.074-.293-.15-.513-.231-.66-.081-.147-.21-.22-.385-.22-.206 0-.356.07-.451.209-.096.14-.18.356-.253.649l-1.254 5.06zm15.101 4.356h6.952V176h-10.494v-15.862h3.542v13.112zm21.447 2.75h-3.542v-5.896c-.47-.117-.825-.348-1.067-.693s-.465-.796-.67-1.353l-2.729-7.656 3.498-.484 2.31 6.952c.074.22.15.385.231.495.08.11.195.165.341.165.118 0 .217-.037.297-.11.08-.073.18-.257.297-.55l2.508-6.952 3.146.44-3.08 7.854c-.146.381-.344.752-.594 1.111-.25.36-.564.62-.946.781V176zm18.433.396c-1.202 0-2.203-.147-3.003-.44-.8-.293-1.437-.73-1.914-1.309-.476-.58-.814-1.305-1.012-2.178-.198-.873-.297-1.881-.297-3.025v-9.306h3.542v9.064c0 .821.048 1.518.143 2.09.096.572.253 1.041.473 1.408.22.367.506.63.858.792.352.161.785.242 1.298.242 1.07 0 1.812-.37 2.222-1.111.41-.74.616-1.822.616-3.245v-9.24h3.41v9.174c0 1.041-.102 1.995-.308 2.86-.205.865-.55 1.61-1.034 2.233s-1.133 1.111-1.947 1.463c-.814.352-1.83.528-3.047.528zm10.13-16.258h3.982l5.06 11.462c.044.103.088.194.132.275.044.08.102.121.176.121.102 0 .165-.033.187-.099.022-.066.033-.158.033-.275v-11.484h3.058v13.156c0 .85-.22 1.544-.66 2.079-.44.535-1.188.803-2.244.803-.484 0-.891-.051-1.221-.154-.33-.103-.613-.253-.847-.451-.235-.198-.433-.429-.594-.693-.162-.264-.316-.565-.462-.902l-3.542-7.942V176h-3.058v-15.862zm22.78 13.596c.527 0 .99-.099 1.385-.297.396-.198.73-.517 1.001-.957.272-.44.473-1.016.605-1.727.132-.711.198-1.58.198-2.607 0-1.98-.245-3.421-.737-4.323-.491-.902-1.272-1.353-2.343-1.353-.498 0-.946.103-1.342.308-.396.205-.733.532-1.012.979-.278.447-.491 1.034-.638 1.76-.146.726-.22 1.61-.22 2.651 0 1.965.25 3.384.748 4.257.499.873 1.284 1.309 2.354 1.309zm-6.799-5.566c0-2.699.58-4.767 1.738-6.204 1.159-1.437 2.875-2.156 5.148-2.156 2.186 0 3.865.7 5.038 2.101 1.174 1.4 1.76 3.487 1.76 6.259 0 2.655-.568 4.69-1.705 6.105-1.136 1.415-2.893 2.123-5.269 2.123-1.202 0-2.229-.18-3.08-.539-.85-.36-1.543-.884-2.079-1.573-.535-.69-.927-1.547-1.177-2.574-.249-1.027-.374-2.207-.374-3.542zm22.261-8.03h10.274v2.75h-6.732v3.784h4.994v2.816h-4.994V176h-3.542v-15.862zm17.148-.264c.587 0 1.093.059 1.518.176.425.117.788.315 1.089.594.3.279.557.649.77 1.111.213.462.407 1.038.583 1.727l3.168 12.474-3.542.352-1.122-4.554h-5.148l-1.21 4.598-3.366-.506 3.454-12.298c.161-.557.34-1.063.539-1.518.198-.455.444-.84.737-1.155.293-.315.645-.561 1.056-.737.41-.176.902-.264 1.474-.264zm-1.958 9.02h3.762l-1.188-5.038c-.073-.293-.15-.513-.231-.66-.08-.147-.21-.22-.385-.22-.205 0-.356.07-.451.209-.095.14-.18.356-.253.649l-1.254 5.06zm15.101 4.356h6.952V176h-10.494v-15.862h3.542v13.112zm9.778-.704c.792.455 1.518.766 2.178.935.66.169 1.32.253 1.98.253.968 0 1.657-.176 2.068-.528.41-.352.616-.836.616-1.452 0-.293-.04-.55-.121-.77-.08-.22-.231-.414-.451-.583-.22-.169-.524-.326-.913-.473-.389-.147-.891-.293-1.507-.44-.69-.161-1.32-.356-1.892-.583-.572-.227-1.063-.52-1.474-.88-.41-.36-.73-.803-.957-1.331-.227-.528-.341-1.18-.341-1.958 0-1.525.517-2.728 1.55-3.608 1.035-.88 2.498-1.32 4.39-1.32.997 0 1.885.106 2.662.319.777.213 1.57.546 2.376 1.001l-1.298 2.31c-.147-.088-.348-.194-.605-.319s-.543-.238-.858-.341c-.315-.103-.65-.19-1.001-.264-.352-.073-.704-.11-1.056-.11-.939 0-1.606.161-2.002.484-.396.323-.594.74-.594 1.254 0 .337.059.62.176.847.117.227.308.429.572.605.264.176.612.337 1.045.484.433.147.964.308 1.595.484.499.147 1.005.323 1.518.528.513.205.979.48 1.397.825.418.345.763.777 1.034 1.298.271.52.407 1.177.407 1.969 0 1.701-.524 2.996-1.573 3.883s-2.578 1.331-4.587 1.331c-1.203 0-2.259-.128-3.168-.385-.91-.257-1.709-.62-2.398-1.089l1.232-2.376zm17.17 3.454h-3.543v-15.862h3.542V176zm3.793-15.862h10.274v2.75h-6.732v3.784h4.994v2.816h-4.994V176h-3.542v-15.862zM383.538 176h-3.543v-15.862h3.542V176zm13.78-12.562c-.542-.367-1.073-.62-1.594-.759-.52-.14-1.038-.209-1.551-.209-.587 0-1.104.103-1.551.308-.447.205-.821.532-1.122.979-.3.447-.528 1.034-.682 1.76-.154.726-.231 1.61-.231 2.651 0 1.921.308 3.315.924 4.18.616.865 1.503 1.298 2.662 1.298.587 0 1.17-.088 1.749-.264.58-.176 1.177-.455 1.793-.836l1.254 2.31c-.821.543-1.657.935-2.508 1.177-.85.242-1.709.363-2.574.363-2.435 0-4.21-.671-5.324-2.013-1.115-1.342-1.672-3.414-1.672-6.215 0-2.699.616-4.767 1.848-6.204 1.232-1.437 3-2.156 5.302-2.156.513 0 .979.033 1.397.099.418.066.81.158 1.177.275.367.117.711.26 1.034.429.323.169.645.348.968.539l-1.298 2.288zm10.394-3.564c.587 0 1.093.059 1.518.176.426.117.789.315 1.09.594.3.279.557.649.77 1.111.212.462.406 1.038.582 1.727l3.168 12.474-3.542.352-1.122-4.554h-5.148l-1.21 4.598-3.366-.506 3.454-12.298c.162-.557.341-1.063.54-1.518.197-.455.443-.84.736-1.155.294-.315.646-.561 1.056-.737.411-.176.902-.264 1.474-.264zm-1.958 9.02h3.762l-1.188-5.038c-.073-.293-.15-.513-.23-.66-.081-.147-.21-.22-.386-.22-.205 0-.355.07-.45.209-.096.14-.18.356-.254.649l-1.254 5.06zm17.192 4.422c.587 0 1.1-.077 1.54-.231.44-.154.807-.429 1.1-.825.293-.396.513-.928.66-1.595.147-.667.22-1.514.22-2.541 0-.983-.066-1.815-.198-2.497-.132-.682-.337-1.228-.616-1.639-.279-.41-.634-.708-1.067-.891-.433-.183-.942-.275-1.53-.275h-2.2v10.494h2.09zM417.314 176v-15.862h6.006c2.376 0 4.11.653 5.203 1.958s1.639 3.337 1.639 6.094c0 2.67-.572 4.638-1.716 5.907-1.144 1.269-2.911 1.903-5.302 1.903h-5.83zm22.56-2.266c.527 0 .99-.099 1.385-.297.396-.198.73-.517 1.001-.957.272-.44.473-1.016.605-1.727.132-.711.198-1.58.198-2.607 0-1.98-.245-3.421-.737-4.323-.49-.902-1.272-1.353-2.343-1.353-.498 0-.946.103-1.342.308-.396.205-.733.532-1.012.979-.278.447-.49 1.034-.638 1.76-.146.726-.22 1.61-.22 2.651 0 1.965.25 3.384.748 4.257.5.873 1.284 1.309 2.354 1.309zm-6.799-5.566c0-2.699.58-4.767 1.738-6.204 1.16-1.437 2.875-2.156 5.148-2.156 2.186 0 3.865.7 5.038 2.101 1.174 1.4 1.76 3.487 1.76 6.259 0 2.655-.568 4.69-1.705 6.105-1.136 1.415-2.893 2.123-5.269 2.123-1.202 0-2.229-.18-3.08-.539-.85-.36-1.543-.884-2.079-1.573-.535-.69-.927-1.547-1.177-2.574-.249-1.027-.374-2.207-.374-3.542z"/></svg>