<svg xmlns="http://www.w3.org/2000/svg" viewBox="0 0 801.76 86.68"><defs><style>.cls-1,.cls-2,.cls-9{fill:none;stroke-miterlimit:10;}.cls-1,.cls-2{stroke:#272525;}.cls-1{stroke-width:3px;}.cls-2{stroke-width:0.75px;}.cls-3,.cls-6{font-size:12px;fill:#fff;font-family:ToyotaDisplay-Bold, Toyota Display;font-weight:700;}.cls-4{letter-spacing:-0.01em;}.cls-5{letter-spacing:0.04em;}.cls-6{letter-spacing:0.01em;}.cls-7{letter-spacing:0em;}.cls-8{letter-spacing:0.01em;}.cls-9{stroke:#fff;}</style></defs><title>lineadetiempo</title><g id="Layer_2" data-name="Layer 2"><g id="Layer_1-2" data-name="Layer 1"><line class="cls-1" x1="29.75" y1="81.22" x2="771.89" y2="81.22"/><line class="cls-2" x1="35.15" y1="76.53" x2="35.15" y2="86.68"/><line class="cls-2" x1="41.91" y1="76.53" x2="41.91" y2="86.68"/><line class="cls-2" x1="48.67" y1="76.53" x2="48.67" y2="86.68"/><line class="cls-2" x1="55.43" y1="76.53" x2="55.43" y2="86.68"/><line class="cls-2" x1="62.19" y1="76.53" x2="62.19" y2="86.68"/><line class="cls-2" x1="68.95" y1="76.53" x2="68.95" y2="86.68"/><line class="cls-2" x1="75.71" y1="76.53" x2="75.71" y2="86.68"/><line class="cls-2" x1="82.47" y1="76.53" x2="82.47" y2="86.68"/><line class="cls-2" x1="89.22" y1="76.53" x2="89.22" y2="86.68"/><line class="cls-2" x1="95.98" y1="76.53" x2="95.98" y2="86.68"/><line class="cls-2" x1="102.74" y1="76.53" x2="102.74" y2="86.68"/><line class="cls-2" x1="109.5" y1="76.53" x2="109.5" y2="86.68"/><line class="cls-2" x1="116.26" y1="76.53" x2="116.26" y2="86.68"/><line class="cls-2" x1="123.02" y1="76.53" x2="123.02" y2="86.68"/><line class="cls-2" x1="129.78" y1="76.53" x2="129.78" y2="86.68"/><line class="cls-2" x1="136.54" y1="76.53" x2="136.54" y2="86.68"/><line class="cls-2" x1="143.3" y1="76.53" x2="143.3" y2="86.68"/><line class="cls-2" x1="150.06" y1="76.53" x2="150.06" y2="86.68"/><line class="cls-2" x1="156.82" y1="76.53" x2="156.82" y2="86.68"/><line class="cls-2" x1="163.57" y1="76.53" x2="163.57" y2="86.68"/><line class="cls-2" x1="170.33" y1="76.53" x2="170.33" y2="86.68"/><line class="cls-2" x1="177.09" y1="76.53" x2="177.09" y2="86.68"/><line class="cls-2" x1="183.85" y1="76.53" x2="183.85" y2="86.68"/><line class="cls-2" x1="190.61" y1="76.53" x2="190.61" y2="86.68"/><line class="cls-2" x1="197.37" y1="76.53" x2="197.37" y2="86.68"/><line class="cls-2" x1="204.13" y1="76.53" x2="204.13" y2="86.68"/><line class="cls-2" x1="210.89" y1="76.53" x2="210.89" y2="86.68"/><line class="cls-2" x1="217.65" y1="76.53" x2="217.65" y2="86.68"/><line class="cls-2" x1="224.41" y1="76.53" x2="224.41" y2="86.68"/><line class="cls-2" x1="231.17" y1="76.53" x2="231.17" y2="86.68"/><line class="cls-2" x1="237.92" y1="76.53" x2="237.92" y2="86.68"/><line class="cls-2" x1="244.68" y1="76.53" x2="244.68" y2="86.68"/><line class="cls-2" x1="251.44" y1="76.53" x2="251.44" y2="86.68"/><line class="cls-2" x1="258.2" y1="76.53" x2="258.2" y2="86.68"/><line class="cls-2" x1="264.96" y1="76.53" x2="264.96" y2="86.68"/><line class="cls-2" x1="271.72" y1="76.53" x2="271.72" y2="86.68"/><line class="cls-2" x1="278.48" y1="76.53" x2="278.48" y2="86.68"/><line class="cls-2" x1="285.24" y1="76.53" x2="285.24" y2="86.68"/><line class="cls-2" x1="292" y1="76.53" x2="292" y2="86.68"/><line class="cls-2" x1="298.76" y1="76.53" x2="298.76" y2="86.68"/><line class="cls-2" x1="305.52" y1="76.53" x2="305.52" y2="86.68"/><line class="cls-2" x1="312.27" y1="76.53" x2="312.27" y2="86.68"/><line class="cls-2" x1="319.03" y1="76.53" x2="319.03" y2="86.68"/><line class="cls-2" x1="325.79" y1="76.53" x2="325.79" y2="86.68"/><line class="cls-2" x1="332.55" y1="76.53" x2="332.55" y2="86.68"/><line class="cls-2" x1="339.31" y1="76.53" x2="339.31" y2="86.68"/><line class="cls-2" x1="346.07" y1="76.53" x2="346.07" y2="86.68"/><line class="cls-2" x1="352.83" y1="76.53" x2="352.83" y2="86.68"/><line class="cls-2" x1="359.59" y1="76.53" x2="359.59" y2="86.68"/><line class="cls-2" x1="366.35" y1="76.53" x2="366.35" y2="86.68"/><line class="cls-2" x1="373.11" y1="76.53" x2="373.11" y2="86.68"/><line class="cls-2" x1="379.87" y1="76.53" x2="379.87" y2="86.68"/><line class="cls-2" x1="386.62" y1="76.53" x2="386.62" y2="86.68"/><line class="cls-2" x1="393.38" y1="76.53" x2="393.38" y2="86.68"/><line class="cls-2" x1="400.14" y1="76.53" x2="400.14" y2="86.68"/><line class="cls-2" x1="406.9" y1="76.53" x2="406.9" y2="86.68"/><line class="cls-2" x1="413.66" y1="76.53" x2="413.66" y2="86.68"/><line class="cls-2" x1="420.42" y1="76.53" x2="420.42" y2="86.68"/><line class="cls-2" x1="427.18" y1="76.53" x2="427.18" y2="86.68"/><line class="cls-2" x1="433.94" y1="76.53" x2="433.94" y2="86.68"/><line class="cls-2" x1="440.7" y1="76.53" x2="440.7" y2="86.68"/><line class="cls-2" x1="447.46" y1="76.53" x2="447.46" y2="86.68"/><line class="cls-2" x1="454.22" y1="76.53" x2="454.22" y2="86.68"/><line class="cls-2" x1="460.97" y1="76.53" x2="460.97" y2="86.68"/><line class="cls-2" x1="467.73" y1="76.53" x2="467.73" y2="86.68"/><line class="cls-2" x1="474.49" y1="76.53" x2="474.49" y2="86.68"/><line class="cls-2" x1="481.25" y1="76.53" x2="481.25" y2="86.68"/><line class="cls-2" x1="488.01" y1="76.53" x2="488.01" y2="86.68"/><line class="cls-2" x1="494.77" y1="76.53" x2="494.77" y2="86.68"/><line class="cls-2" x1="501.53" y1="76.53" x2="501.53" y2="86.68"/><line class="cls-2" x1="508.29" y1="76.53" x2="508.29" y2="86.68"/><line class="cls-2" x1="515.05" y1="76.53" x2="515.05" y2="86.68"/><line class="cls-2" x1="521.81" y1="76.53" x2="521.81" y2="86.68"/><line class="cls-2" x1="528.57" y1="76.53" x2="528.57" y2="86.68"/><line class="cls-2" x1="535.32" y1="76.53" x2="535.32" y2="86.68"/><line class="cls-2" x1="542.08" y1="76.53" x2="542.08" y2="86.68"/><line class="cls-2" x1="548.84" y1="76.53" x2="548.84" y2="86.68"/><line class="cls-2" x1="555.6" y1="76.53" x2="555.6" y2="86.68"/><line class="cls-2" x1="562.36" y1="76.53" x2="562.36" y2="86.68"/><line class="cls-2" x1="569.12" y1="76.53" x2="569.12" y2="86.68"/><line class="cls-2" x1="575.88" y1="76.53" x2="575.88" y2="86.68"/><line class="cls-2" x1="582.64" y1="76.53" x2="582.64" y2="86.68"/><line class="cls-2" x1="589.4" y1="76.53" x2="589.4" y2="86.68"/><line class="cls-2" x1="596.16" y1="76.53" x2="596.16" y2="86.68"/><line class="cls-2" x1="602.92" y1="76.53" x2="602.92" y2="86.68"/><line class="cls-2" x1="609.67" y1="76.53" x2="609.67" y2="86.68"/><line class="cls-2" x1="616.43" y1="76.53" x2="616.43" y2="86.68"/><line class="cls-2" x1="623.19" y1="76.53" x2="623.19" y2="86.68"/><line class="cls-2" x1="629.95" y1="76.53" x2="629.95" y2="86.68"/><line class="cls-2" x1="636.71" y1="76.53" x2="636.71" y2="86.68"/><line class="cls-2" x1="643.47" y1="76.53" x2="643.47" y2="86.68"/><line class="cls-2" x1="650.23" y1="76.53" x2="650.23" y2="86.68"/><line class="cls-2" x1="656.99" y1="76.53" x2="656.99" y2="86.68"/><line class="cls-2" x1="663.75" y1="76.53" x2="663.75" y2="86.68"/><line class="cls-2" x1="670.51" y1="76.53" x2="670.51" y2="86.68"/><line class="cls-2" x1="677.27" y1="76.53" x2="677.27" y2="86.68"/><line class="cls-2" x1="684.02" y1="76.53" x2="684.02" y2="86.68"/><line class="cls-2" x1="690.78" y1="76.53" x2="690.78" y2="86.68"/><line class="cls-2" x1="697.54" y1="76.53" x2="697.54" y2="86.68"/><line class="cls-2" x1="704.3" y1="76.53" x2="704.3" y2="86.68"/><line class="cls-2" x1="711.06" y1="76.53" x2="711.06" y2="86.68"/><line class="cls-2" x1="717.82" y1="76.53" x2="717.82" y2="86.68"/><line class="cls-2" x1="724.58" y1="76.53" x2="724.58" y2="86.68"/><line class="cls-2" x1="731.34" y1="76.53" x2="731.34" y2="86.68"/><line class="cls-2" x1="738.1" y1="76.53" x2="738.1" y2="86.68"/><line class="cls-2" x1="744.86" y1="76.53" x2="744.86" y2="86.68"/><line class="cls-2" x1="751.62" y1="76.53" x2="751.62" y2="86.68"/><line class="cls-2" x1="758.37" y1="76.53" x2="758.37" y2="86.68"/><line class="cls-2" x1="765.13" y1="76.53" x2="765.13" y2="86.68"/><path d="M35.15,60.67a5.59,5.59,0,0,0-5.59,5.59,5.52,5.52,0,0,0,.6,2.53s3.12,6.88,5,8.76l.07-.07c1.87-2,4.86-8.56,4.86-8.56a5.67,5.67,0,0,0,.67-2.66A5.6,5.6,0,0,0,35.15,60.67Z"/><path d="M96,60.67a5.59,5.59,0,0,0-5.59,5.59,5.65,5.65,0,0,0,.6,2.53s3.12,6.88,5,8.76l.07-.07c1.88-2,4.86-8.56,4.86-8.56A5.6,5.6,0,0,0,96,60.67Z"/><path d="M156.76,60.67a5.6,5.6,0,0,0-5,8.12s3.12,6.88,5,8.76l.06-.07c1.88-2,4.86-8.56,4.86-8.56a5.6,5.6,0,0,0-4.92-8.25Z"/><path d="M217.65,60.67a5.6,5.6,0,0,0-5,8.12s3.12,6.88,5,8.76l.06-.07c1.88-2,4.86-8.56,4.86-8.56a5.6,5.6,0,0,0-4.92-8.25Z"/><path d="M278.48,60.67a5.59,5.59,0,0,0-5.59,5.59,5.52,5.52,0,0,0,.6,2.53s3.12,6.88,5,8.76l.06-.07c1.88-2,4.86-8.56,4.86-8.56a5.6,5.6,0,0,0-4.92-8.25Z"/><path d="M339.31,60.67a5.59,5.59,0,0,0-5.59,5.59,5.52,5.52,0,0,0,.6,2.53s3.12,6.88,5,8.76l.07-.07c1.87-2,4.86-8.56,4.86-8.56a5.67,5.67,0,0,0,.67-2.66A5.6,5.6,0,0,0,339.31,60.67Z"/><path d="M400.14,60.67a5.59,5.59,0,0,0-5.59,5.59,5.65,5.65,0,0,0,.6,2.53s3.12,6.88,5,8.76l.07-.07c1.88-2,4.86-8.56,4.86-8.56a5.67,5.67,0,0,0,.67-2.66A5.6,5.6,0,0,0,400.14,60.67Z"/><path d="M461,60.67a5.6,5.6,0,0,0-5,8.12s3.12,6.88,5,8.76l.07-.07c1.88-2,4.86-8.56,4.86-8.56A5.6,5.6,0,0,0,461,60.67Z"/><path d="M521.81,60.67a5.6,5.6,0,0,0-5,8.12s3.12,6.88,5,8.76l.06-.07c1.88-2,4.86-8.56,4.86-8.56a5.6,5.6,0,0,0-4.92-8.25Z"/><path d="M582.64,60.67a5.6,5.6,0,0,0-5,8.12s3.12,6.88,5,8.76l.06-.07c1.88-2,4.86-8.56,4.86-8.56a5.6,5.6,0,0,0-4.92-8.25Z"/><path d="M643.47,60.67a5.59,5.59,0,0,0-5.59,5.59,5.52,5.52,0,0,0,.6,2.53s3.12,6.88,5,8.76l.07-.07c1.87-2,4.85-8.56,4.85-8.56a5.6,5.6,0,0,0-4.92-8.25Z"/><path d="M704.3,60.67a5.59,5.59,0,0,0-5.59,5.59,5.52,5.52,0,0,0,.6,2.53s3.12,6.88,5,8.76l.07-.07c1.87-2,4.86-8.56,4.86-8.56a5.67,5.67,0,0,0,.67-2.66A5.6,5.6,0,0,0,704.3,60.67Z"/><path d="M765.13,60.67a5.59,5.59,0,0,0-5.59,5.59,5.65,5.65,0,0,0,.6,2.53s3.12,6.88,5,8.76l.07-.07c1.88-2,4.86-8.56,4.86-8.56a5.6,5.6,0,0,0-4.93-8.25Z"/><text class="cls-3" transform="translate(17.66 49.29)"><tspan class="cls-4">1</tspan><tspan x="6.9" y="0">000 </tspan></text><text class="cls-3" transform="translate(78.85 49.66)">5000 </text><text class="cls-3" transform="translate(135.42 49.66)"><tspan class="cls-4">1</tspan><tspan x="6.9" y="0">0000 </tspan></text><text class="cls-3" transform="translate(197.37 49.66)"><tspan class="cls-5">1</tspan><tspan x="7.5" y="0">5000 </tspan></text><text class="cls-3" transform="translate(258.2 49.66)">20000 </text><text class="cls-6" transform="translate(319.03 49.66)">2<tspan class="cls-7" x="7.28" y="0">5000 </tspan></text><text class="cls-3" transform="translate(379.87 49.66)">30000 </text><text class="cls-3" transform="translate(440.7 49.66)">35000 </text><text class="cls-3" transform="translate(501.53 49.66)">40000 </text><text class="cls-3" transform="translate(562.36 49.66)"><tspan class="cls-8">4</tspan><tspan x="8.15" y="0">5000 </tspan></text><text class="cls-3" transform="translate(623.19 49.66)">50000 </text><text class="cls-3" transform="translate(682.86 49.66)">55000 </text><text class="cls-3" transform="translate(743.22 49.66)">60000 </text><line class="cls-9" y1="0.5" x2="801.76" y2="0.5"/></g></g></svg>