<svg xmlns="http://www.w3.org/2000/svg" viewBox="0 0 801.76 86.68"><defs><style>.cls-1{fill:none;stroke:#fff;stroke-miterlimit:10;}.cls-2,.cls-4,.cls-8{font-size:12px;fill:#fff;font-family:ToyotaDisplay-Bold, Toyota Display;font-weight:700;}.cls-3{letter-spacing:0.05em;}.cls-4,.cls-6{letter-spacing:-0.02em;}.cls-5{letter-spacing:0em;}.cls-7{letter-spacing:0.01em;}.cls-8{letter-spacing:0.04em;}.cls-9{fill:#272525;}</style></defs><title>lineadetiempo3</title><g id="Layer_2" data-name="Layer 2"><g id="Layer_1-2" data-name="Layer 1"><line class="cls-1" y1="0.5" x2="801.76" y2="0.5"/><path d="M35.15,60.67a5.59,5.59,0,0,0-5.59,5.59,5.52,5.52,0,0,0,.6,2.53s3.12,6.88,5,8.76l.07-.07c1.87-2,4.86-8.56,4.86-8.56a5.67,5.67,0,0,0,.67-2.66A5.6,5.6,0,0,0,35.15,60.67Z"/><path d="M96,60.67a5.59,5.59,0,0,0-5.59,5.59,5.65,5.65,0,0,0,.6,2.53s3.12,6.88,5,8.76l.07-.07c1.88-2,4.86-8.56,4.86-8.56A5.6,5.6,0,0,0,96,60.67Z"/><path d="M156.76,60.67a5.6,5.6,0,0,0-5,8.12s3.12,6.88,5,8.76l.06-.07c1.88-2,4.86-8.56,4.86-8.56a5.6,5.6,0,0,0-4.92-8.25Z"/><path d="M217.65,60.67a5.6,5.6,0,0,0-5,8.12s3.12,6.88,5,8.76l.06-.07c1.88-2,4.86-8.56,4.86-8.56a5.6,5.6,0,0,0-4.92-8.25Z"/><path d="M278.48,60.67a5.59,5.59,0,0,0-5.59,5.59,5.52,5.52,0,0,0,.6,2.53s3.12,6.88,5,8.76l.06-.07c1.88-2,4.86-8.56,4.86-8.56a5.6,5.6,0,0,0-4.92-8.25Z"/><text class="cls-2" transform="translate(13.11 49.66)"><tspan class="cls-3">1</tspan><tspan x="7.62" y="0">30000 </tspan></text><text class="cls-2" transform="translate(74.2 49.66)"><tspan class="cls-3">1</tspan><tspan x="7.62" y="0">35000 </tspan></text><text class="cls-4" transform="translate(134.28 49.66)">1<tspan class="cls-5" x="6.78" y="0">40000 </tspan></text><text class="cls-2" transform="translate(193.61 49.66)"><tspan class="cls-6">1</tspan><tspan class="cls-7" x="6.78" y="0">4</tspan><tspan x="14.93" y="0">5000 </tspan></text><text class="cls-8" transform="translate(254.94 49.66)">1<tspan class="cls-5" x="7.5" y="0">50000 </tspan></text><rect class="cls-9" x="82.84" y="79.72" width="6.01" height="3"/><rect class="cls-9" x="245.06" y="79.72" width="6.01" height="3"/><rect class="cls-9" x="89.6" y="79.72" width="6.01" height="3"/><rect class="cls-9" x="96.36" y="79.72" width="6.01" height="3"/><rect class="cls-9" x="103.12" y="79.72" width="6.01" height="3"/><rect class="cls-9" x="251.82" y="79.72" width="6.01" height="3"/><rect class="cls-9" x="238.3" y="79.72" width="6.01" height="3"/><rect class="cls-9" x="224.78" y="79.72" width="6.01" height="3"/><rect class="cls-9" x="69.32" y="79.72" width="6.01" height="3"/><rect class="cls-9" x="62.56" y="79.72" width="6.01" height="3"/><rect class="cls-9" x="231.54" y="79.72" width="6.01" height="3"/><rect class="cls-9" x="109.88" y="79.72" width="6.01" height="3"/><rect class="cls-9" x="76.08" y="79.72" width="6.01" height="3"/><rect class="cls-9" x="157.19" y="79.72" width="6.01" height="3"/><rect class="cls-9" x="116.64" y="79.72" width="6.01" height="3"/><rect class="cls-9" x="305.89" y="79.72" width="6.01" height="3"/><rect class="cls-9" x="150.43" y="79.72" width="6.01" height="3"/><rect class="cls-9" x="272.1" y="79.72" width="6.01" height="3"/><rect class="cls-9" x="299.13" y="79.72" width="6.01" height="3"/><rect class="cls-9" x="285.61" y="79.72" width="6.01" height="3"/><rect class="cls-9" x="278.85" y="79.72" width="6.01" height="3"/><rect class="cls-9" x="123.4" y="79.72" width="6.01" height="3"/><rect class="cls-9" x="258.58" y="79.72" width="6.01" height="3"/><rect class="cls-9" x="130.15" y="79.72" width="6.01" height="3"/><rect class="cls-9" x="143.67" y="79.72" width="6.01" height="3"/><rect class="cls-9" x="265.34" y="79.72" width="6.01" height="3"/><rect class="cls-9" x="136.91" y="79.72" width="6.01" height="3"/><rect class="cls-9" x="170.71" y="79.72" width="6.01" height="3"/><rect class="cls-9" x="35.53" y="79.72" width="6.01" height="3"/><rect class="cls-9" x="197.75" y="79.72" width="6.01" height="3"/><rect class="cls-9" x="184.23" y="79.72" width="6.01" height="3"/><rect class="cls-9" x="42.29" y="79.72" width="6.01" height="3"/><rect class="cls-9" x="190.99" y="79.72" width="6.01" height="3"/><rect class="cls-9" x="177.47" y="79.72" width="6.01" height="3"/><rect class="cls-9" x="163.95" y="79.72" width="6.01" height="3"/><rect class="cls-9" x="29.75" y="79.72" width="5.03" height="3"/><rect class="cls-9" x="292.37" y="79.72" width="6.01" height="3"/><rect class="cls-9" x="211.26" y="79.72" width="6.01" height="3"/><rect class="cls-9" x="218.02" y="79.72" width="6.01" height="3"/><rect class="cls-9" x="204.5" y="79.72" width="6.01" height="3"/><rect class="cls-9" x="55.8" y="79.72" width="6.01" height="3"/><rect class="cls-9" x="49.05" y="79.72" width="6.01" height="3"/><rect class="cls-9" x="34.78" y="82.72" width="0.75" height="3.96"/><rect class="cls-9" x="34.78" y="76.53" width="0.75" height="3.19"/><rect class="cls-9" x="34.78" y="79.72" width="0.75" height="3"/><rect class="cls-9" x="41.54" y="76.53" width="0.75" height="3.19"/><rect class="cls-9" x="41.54" y="82.72" width="0.75" height="3.96"/><rect class="cls-9" x="41.54" y="79.72" width="0.75" height="3"/><rect class="cls-9" x="48.3" y="82.72" width="0.75" height="3.96"/><rect class="cls-9" x="48.3" y="76.53" width="0.75" height="3.19"/><rect class="cls-9" x="48.3" y="79.72" width="0.75" height="3"/><rect class="cls-9" x="55.05" y="82.72" width="0.75" height="3.96"/><rect class="cls-9" x="55.05" y="76.53" width="0.75" height="3.19"/><rect class="cls-9" x="55.05" y="79.72" width="0.75" height="3"/><rect class="cls-9" x="61.81" y="76.53" width="0.75" height="3.19"/><rect class="cls-9" x="61.81" y="82.72" width="0.75" height="3.96"/><rect class="cls-9" x="61.81" y="79.72" width="0.75" height="3"/><rect class="cls-9" x="68.57" y="76.53" width="0.75" height="3.19"/><rect class="cls-9" x="68.57" y="82.72" width="0.75" height="3.96"/><rect class="cls-9" x="68.57" y="79.72" width="0.75" height="3"/><rect class="cls-9" x="75.33" y="76.53" width="0.75" height="3.19"/><rect class="cls-9" x="75.33" y="82.72" width="0.75" height="3.96"/><rect class="cls-9" x="75.33" y="79.72" width="0.75" height="3"/><rect class="cls-9" x="82.09" y="82.72" width="0.75" height="3.96"/><rect class="cls-9" x="82.09" y="76.53" width="0.75" height="3.19"/><rect class="cls-9" x="82.09" y="79.72" width="0.75" height="3"/><rect class="cls-9" x="88.85" y="76.53" width="0.75" height="3.19"/><rect class="cls-9" x="88.85" y="82.72" width="0.75" height="3.96"/><rect class="cls-9" x="88.85" y="79.72" width="0.75" height="3"/><rect class="cls-9" x="95.61" y="82.72" width="0.75" height="3.96"/><rect class="cls-9" x="95.61" y="76.53" width="0.75" height="3.19"/><rect class="cls-9" x="95.61" y="79.72" width="0.75" height="3"/><rect class="cls-9" x="102.37" y="76.53" width="0.75" height="3.19"/><rect class="cls-9" x="102.37" y="82.72" width="0.75" height="3.96"/><rect class="cls-9" x="102.37" y="79.72" width="0.75" height="3"/><rect class="cls-9" x="109.13" y="76.53" width="0.75" height="3.19"/><rect class="cls-9" x="109.13" y="82.72" width="0.75" height="3.96"/><rect class="cls-9" x="109.13" y="79.72" width="0.75" height="3"/><rect class="cls-9" x="115.89" y="76.53" width="0.75" height="3.19"/><rect class="cls-9" x="115.89" y="82.72" width="0.75" height="3.96"/><rect class="cls-9" x="115.89" y="79.72" width="0.75" height="3"/><rect class="cls-9" x="122.65" y="82.72" width="0.75" height="3.96"/><rect class="cls-9" x="122.65" y="76.53" width="0.75" height="3.19"/><rect class="cls-9" x="122.65" y="79.72" width="0.75" height="3"/><rect class="cls-9" x="129.4" y="76.53" width="0.75" height="3.19"/><rect class="cls-9" x="129.4" y="82.72" width="0.75" height="3.96"/><rect class="cls-9" x="129.4" y="79.72" width="0.75" height="3"/><rect class="cls-9" x="136.16" y="76.53" width="0.75" height="3.19"/><rect class="cls-9" x="136.16" y="82.72" width="0.75" height="3.96"/><rect class="cls-9" x="136.16" y="79.72" width="0.75" height="3"/><rect class="cls-9" x="142.92" y="76.53" width="0.75" height="3.19"/><rect class="cls-9" x="142.92" y="82.72" width="0.75" height="3.96"/><rect class="cls-9" x="142.92" y="79.72" width="0.75" height="3"/><rect class="cls-9" x="149.68" y="76.53" width="0.75" height="3.19"/><rect class="cls-9" x="149.68" y="82.72" width="0.75" height="3.96"/><rect class="cls-9" x="149.68" y="79.72" width="0.75" height="3"/><rect class="cls-9" x="156.44" y="76.53" width="0.75" height="3.19"/><rect class="cls-9" x="156.44" y="82.72" width="0.75" height="3.96"/><rect class="cls-9" x="156.44" y="79.72" width="0.75" height="3"/><rect class="cls-9" x="163.2" y="82.72" width="0.75" height="3.96"/><rect class="cls-9" x="163.2" y="76.53" width="0.75" height="3.19"/><rect class="cls-9" x="163.2" y="79.72" width="0.75" height="3"/><rect class="cls-9" x="169.96" y="76.53" width="0.75" height="3.19"/><rect class="cls-9" x="169.96" y="82.72" width="0.75" height="3.96"/><rect class="cls-9" x="169.96" y="79.72" width="0.75" height="3"/><rect class="cls-9" x="176.72" y="82.72" width="0.75" height="3.96"/><rect class="cls-9" x="176.72" y="76.53" width="0.75" height="3.19"/><rect class="cls-9" x="176.72" y="79.72" width="0.75" height="3"/><rect class="cls-9" x="183.48" y="76.53" width="0.75" height="3.19"/><rect class="cls-9" x="183.48" y="82.72" width="0.75" height="3.96"/><rect class="cls-9" x="183.48" y="79.72" width="0.75" height="3"/><rect class="cls-9" x="190.24" y="76.53" width="0.75" height="3.19"/><rect class="cls-9" x="190.24" y="82.72" width="0.75" height="3.96"/><rect class="cls-9" x="190.24" y="79.72" width="0.75" height="3"/><rect class="cls-9" x="197" y="76.53" width="0.75" height="3.19"/><rect class="cls-9" x="197" y="82.72" width="0.75" height="3.96"/><rect class="cls-9" x="197" y="79.72" width="0.75" height="3"/><rect class="cls-9" x="203.75" y="82.72" width="0.75" height="3.96"/><rect class="cls-9" x="203.75" y="76.53" width="0.75" height="3.19"/><rect class="cls-9" x="203.75" y="79.72" width="0.75" height="3"/><rect class="cls-9" x="210.51" y="76.53" width="0.75" height="3.19"/><rect class="cls-9" x="210.51" y="82.72" width="0.75" height="3.96"/><rect class="cls-9" x="210.51" y="79.72" width="0.75" height="3"/><rect class="cls-9" x="217.27" y="76.53" width="0.75" height="3.19"/><rect class="cls-9" x="217.27" y="82.72" width="0.75" height="3.96"/><rect class="cls-9" x="217.27" y="79.72" width="0.75" height="3"/><rect class="cls-9" x="224.03" y="82.72" width="0.75" height="3.96"/><rect class="cls-9" x="224.03" y="76.53" width="0.75" height="3.19"/><rect class="cls-9" x="224.03" y="79.72" width="0.75" height="3"/><rect class="cls-9" x="230.79" y="76.53" width="0.75" height="3.19"/><rect class="cls-9" x="230.79" y="82.72" width="0.75" height="3.96"/><rect class="cls-9" x="230.79" y="79.72" width="0.75" height="3"/><rect class="cls-9" x="237.55" y="76.53" width="0.75" height="3.19"/><rect class="cls-9" x="237.55" y="82.72" width="0.75" height="3.96"/><rect class="cls-9" x="237.55" y="79.72" width="0.75" height="3"/><rect class="cls-9" x="244.31" y="82.72" width="0.75" height="3.96"/><rect class="cls-9" x="244.31" y="76.53" width="0.75" height="3.19"/><rect class="cls-9" x="244.31" y="79.72" width="0.75" height="3"/><rect class="cls-9" x="251.07" y="76.53" width="0.75" height="3.19"/><rect class="cls-9" x="251.07" y="82.72" width="0.75" height="3.96"/><rect class="cls-9" x="251.07" y="79.72" width="0.75" height="3"/><rect class="cls-9" x="257.83" y="82.72" width="0.75" height="3.96"/><rect class="cls-9" x="257.83" y="76.53" width="0.75" height="3.19"/><rect class="cls-9" x="257.83" y="79.72" width="0.75" height="3"/><rect class="cls-9" x="264.59" y="82.72" width="0.75" height="3.96"/><rect class="cls-9" x="264.59" y="76.53" width="0.75" height="3.19"/><rect class="cls-9" x="264.59" y="79.72" width="0.75" height="3"/><rect class="cls-9" x="271.35" y="76.53" width="0.75" height="3.19"/><rect class="cls-9" x="271.35" y="82.72" width="0.75" height="3.96"/><rect class="cls-9" x="271.35" y="79.72" width="0.75" height="3"/><rect class="cls-9" x="278.1" y="82.72" width="0.75" height="3.96"/><rect class="cls-9" x="278.1" y="76.53" width="0.75" height="3.19"/><rect class="cls-9" x="278.1" y="79.72" width="0.75" height="3"/><rect class="cls-9" x="284.86" y="76.53" width="0.75" height="3.19"/><rect class="cls-9" x="284.86" y="82.72" width="0.75" height="3.96"/><rect class="cls-9" x="284.86" y="79.72" width="0.75" height="3"/><rect class="cls-9" x="291.62" y="76.53" width="0.75" height="3.19"/><rect class="cls-9" x="291.62" y="82.72" width="0.75" height="3.96"/><rect class="cls-9" x="291.62" y="79.72" width="0.75" height="3"/><rect class="cls-9" x="298.38" y="82.72" width="0.75" height="3.96"/><rect class="cls-9" x="298.38" y="76.53" width="0.75" height="3.19"/><rect class="cls-9" x="298.38" y="79.72" width="0.75" height="3"/><rect class="cls-9" x="305.14" y="82.72" width="0.75" height="3.96"/><rect class="cls-9" x="305.14" y="76.53" width="0.75" height="3.19"/><rect class="cls-9" x="305.14" y="79.72" width="0.75" height="3"/><polygon class="cls-9" points="312.27 60.67 311.9 60.67 311.9 68.85 311.9 76.53 311.9 86.68 312.27 86.68 312.65 86.68 312.65 76.53 312.65 68.85 312.65 60.67 312.27 60.67"/></g></g></svg>