<svg xmlns="http://www.w3.org/2000/svg" xmlns:xlink="http://www.w3.org/1999/xlink" width="571" height="305" viewBox="0 0 571 305"><title>Group</title><defs><path id="a" d="M0 88.982h88.982V0H0z"/></defs><g fill="none" fill-rule="evenodd"><path fill="#FFF" fill-rule="nonzero" d="M3.036 1.276h6.732l13.64 23.672V1.276h6.38v24.332c0 .733-.037 1.503-.11 2.31-.073.807-.169 1.415-.286 1.826-.235.792-.535 1.423-.902 1.892-.367.47-.755.821-1.166 1.056-.41.235-.821.381-1.232.44-.41.059-.777.088-1.1.088-1.232 0-2.317-.374-3.256-1.122-.939-.748-1.936-2.031-2.992-3.85l-9.284-15.4V33H3.036V1.276zm43.032 25.916c1.027.557 2.288.836 3.784.836 1.467 0 2.728-.286 3.784-.858 1.056-.572 1.929-1.342 2.618-2.31.69-.968 1.195-2.112 1.518-3.432.323-1.32.484-2.728.484-4.224s-.161-2.897-.484-4.202c-.323-1.305-.829-2.45-1.518-3.432-.69-.983-1.562-1.753-2.618-2.31-1.056-.557-2.317-.836-3.784-.836-1.467 0-2.728.279-3.784.836-1.056.557-1.929 1.327-2.618 2.31-.69.983-1.195 2.127-1.518 3.432-.323 1.305-.484 2.706-.484 4.202 0 2.288.374 4.305 1.122 6.05.748 1.745 1.914 3.058 3.498 3.938zm-8.184 1.496c-1.232-1.584-2.105-3.366-2.618-5.346-.513-1.98-.77-4.026-.77-6.138s.286-4.158.858-6.138c.572-1.98 1.481-3.74 2.728-5.28s2.838-2.772 4.774-3.696c1.936-.924 4.268-1.386 6.996-1.386 2.845 0 5.243.462 7.194 1.386 1.95.924 3.527 2.156 4.73 3.696 1.203 1.54 2.075 3.3 2.618 5.28.543 1.98.814 4.026.814 6.138s-.286 4.165-.858 6.16c-.572 1.995-1.481 3.762-2.728 5.302-1.247 1.54-2.838 2.772-4.774 3.696-1.936.924-4.268 1.386-6.996 1.386-2.845 0-5.243-.462-7.194-1.386-1.95-.924-3.542-2.149-4.774-3.674zm67.012 2.332c-.939.44-1.848.829-2.728 1.166-.88.337-1.79.623-2.728.858-.939.235-1.914.41-2.926.528-1.012.117-2.12.176-3.322.176-2.904 0-5.36-.418-7.37-1.254-2.01-.836-3.637-1.995-4.884-3.476-1.247-1.481-2.156-3.234-2.728-5.258-.572-2.024-.858-4.224-.858-6.6 0-2.376.352-4.569 1.056-6.578.704-2.01 1.745-3.747 3.124-5.214 1.379-1.467 3.095-2.61 5.148-3.432 2.053-.821 4.43-1.232 7.128-1.232 2.2 0 4.143.22 5.83.66 1.687.44 3.278.983 4.774 1.628l-2.024 5.324c-1.056-.44-1.987-.785-2.794-1.034-.807-.25-1.547-.44-2.222-.572-.675-.132-1.305-.22-1.892-.264-.587-.044-1.188-.066-1.804-.066-3.021 0-5.339.931-6.952 2.794-1.613 1.863-2.42 4.525-2.42 7.986 0 3.696.807 6.439 2.42 8.228 1.613 1.79 3.916 2.684 6.908 2.684.85 0 1.628-.044 2.332-.132.704-.088 1.4-.22 2.09-.396.69-.176 1.415-.403 2.178-.682.763-.279 1.643-.623 2.64-1.034l2.024 5.192zm14.564-3.828c1.027.557 2.288.836 3.784.836 1.467 0 2.728-.286 3.784-.858 1.056-.572 1.929-1.342 2.618-2.31.69-.968 1.195-2.112 1.518-3.432.323-1.32.484-2.728.484-4.224s-.161-2.897-.484-4.202c-.323-1.305-.829-2.45-1.518-3.432-.69-.983-1.562-1.753-2.618-2.31-1.056-.557-2.317-.836-3.784-.836-1.467 0-2.728.279-3.784.836-1.056.557-1.929 1.327-2.618 2.31-.69.983-1.195 2.127-1.518 3.432-.323 1.305-.484 2.706-.484 4.202 0 2.288.374 4.305 1.122 6.05.748 1.745 1.914 3.058 3.498 3.938zm-8.184 1.496c-1.232-1.584-2.105-3.366-2.618-5.346-.513-1.98-.77-4.026-.77-6.138s.286-4.158.858-6.138c.572-1.98 1.481-3.74 2.728-5.28s2.838-2.772 4.774-3.696c1.936-.924 4.268-1.386 6.996-1.386 2.845 0 5.243.462 7.194 1.386 1.95.924 3.527 2.156 4.73 3.696 1.203 1.54 2.075 3.3 2.618 5.28.543 1.98.814 4.026.814 6.138s-.286 4.165-.858 6.16c-.572 1.995-1.481 3.762-2.728 5.302-1.247 1.54-2.838 2.772-4.774 3.696-1.936.924-4.268 1.386-6.996 1.386-2.845 0-5.243-.462-7.194-1.386-1.95-.924-3.542-2.149-4.774-3.674zm32.032-27.412h12.1c1.525 0 2.955.154 4.29.462 1.335.308 2.493.821 3.476 1.54.983.719 1.753 1.657 2.31 2.816.557 1.159.836 2.589.836 4.29 0 1.144-.183 2.215-.55 3.212-.367.997-.858 1.892-1.474 2.684-.616.792-1.335 1.467-2.156 2.024-.821.557-1.672.983-2.552 1.276.499.235.946.543 1.342.924.396.381.814.836 1.254 1.364l6.996 8.14-5.06 3.652-7.832-9.196c-.528-.616-.997-1.13-1.408-1.54-.41-.41-.792-.74-1.144-.99-.352-.25-.704-.418-1.056-.506-.352-.088-.748-.132-1.188-.132h-1.584V33h-6.6V1.276zm10.868 14.52c1.672 0 3-.381 3.982-1.144.983-.763 1.474-1.892 1.474-3.388 0-.939-.132-1.709-.396-2.31s-.63-1.07-1.1-1.408c-.47-.337-1.041-.565-1.716-.682-.675-.117-1.423-.176-2.244-.176h-4.268v9.108h4.268zm18.48-14.52h12.1c1.525 0 2.955.154 4.29.462 1.335.308 2.493.821 3.476 1.54.983.719 1.753 1.657 2.31 2.816.557 1.159.836 2.589.836 4.29 0 1.144-.183 2.215-.55 3.212-.367.997-.858 1.892-1.474 2.684-.616.792-1.335 1.467-2.156 2.024-.821.557-1.672.983-2.552 1.276.499.235.946.543 1.342.924.396.381.814.836 1.254 1.364l6.996 8.14-5.06 3.652-7.832-9.196c-.528-.616-.997-1.13-1.408-1.54-.41-.41-.792-.74-1.144-.99-.352-.25-.704-.418-1.056-.506-.352-.088-.748-.132-1.188-.132h-1.584V33h-6.6V1.276zm10.868 14.52c1.672 0 3-.381 3.982-1.144.983-.763 1.474-1.892 1.474-3.388 0-.939-.132-1.709-.396-2.31s-.63-1.07-1.1-1.408c-.47-.337-1.041-.565-1.716-.682-.675-.117-1.423-.176-2.244-.176h-4.268v9.108h4.268zm23.628-8.844c.293-.997.653-1.885 1.078-2.662.425-.777.953-1.43 1.584-1.958.63-.528 1.4-.931 2.31-1.21.91-.279 1.98-.418 3.212-.418 1.203 0 2.23.132 3.08.396.85.264 1.57.653 2.156 1.166.587.513 1.078 1.137 1.474 1.87.396.733.74 1.57 1.034 2.508l7.7 25.564-6.6 1.452-2.86-9.68h-12.496l-2.904 9.68-6.424-1.452 7.656-25.256zm12.54 11.44L216.7 7.788c-.176-.587-.396-.975-.66-1.166-.264-.19-.572-.286-.924-.286-.381 0-.697.103-.946.308-.25.205-.462.587-.638 1.144l-3.168 10.604h9.328zm14.344 7.392c3.784 1.525 7.23 2.288 10.34 2.288 2.376 0 4.107-.367 5.192-1.1 1.085-.733 1.628-1.73 1.628-2.992 0-.704-.161-1.298-.484-1.782-.323-.484-.777-.887-1.364-1.21-.587-.323-1.298-.594-2.134-.814-.836-.22-1.753-.418-2.75-.594-1.32-.235-2.633-.535-3.938-.902-1.305-.367-2.464-.887-3.476-1.562s-1.833-1.54-2.464-2.596c-.63-1.056-.946-2.39-.946-4.004 0-1.408.235-2.706.704-3.894.47-1.188 1.225-2.222 2.266-3.102 1.041-.88 2.398-1.57 4.07-2.068 1.672-.499 3.696-.748 6.072-.748 2.112 0 4.1.22 5.962.66 1.863.44 3.513.953 4.95 1.54l-1.628 5.368c-1.76-.616-3.432-1.093-5.016-1.43-1.584-.337-3.124-.506-4.62-.506-2.024 0-3.513.3-4.466.902-.953.601-1.43 1.474-1.43 2.618 0 1.232.55 2.112 1.65 2.64 1.1.528 2.633.968 4.598 1.32 1.35.264 2.699.58 4.048.946 1.35.367 2.567.902 3.652 1.606 1.085.704 1.965 1.62 2.64 2.75s1.012 2.589 1.012 4.378c0 1.555-.3 2.963-.902 4.224-.601 1.261-1.481 2.34-2.64 3.234-1.159.895-2.589 1.584-4.29 2.068s-3.667.726-5.896.726c-1.35 0-2.64-.08-3.872-.242-1.232-.161-2.369-.36-3.41-.594-1.041-.235-1.98-.491-2.816-.77-.836-.279-1.533-.535-2.09-.77l1.848-5.588zm37.488-24.508h12.144c1.525 0 2.97.19 4.334.572 1.364.381 2.56.99 3.586 1.826 1.027.836 1.84 1.914 2.442 3.234.601 1.32.902 2.904.902 4.752 0 1.613-.293 3.065-.88 4.356-.587 1.29-1.393 2.383-2.42 3.278s-2.244 1.584-3.652 2.068-2.933.726-4.576.726h-5.324V33h-6.556V1.276zm11.308 15.268c.645 0 1.29-.073 1.936-.22.645-.147 1.225-.41 1.738-.792.513-.381.924-.88 1.232-1.496.308-.616.462-1.393.462-2.332 0-1.056-.147-1.914-.44-2.574-.293-.66-.697-1.173-1.21-1.54s-1.093-.609-1.738-.726c-.645-.117-1.32-.176-2.024-.176h-4.708v9.856h4.752zm16.676-15.268H322.3v5.588h-16.28v6.776h12.584v5.632H306.02v8.14h16.632V33h-23.144V1.276zm27.808 0h6.556v26.136h16.588V33h-23.144V1.276zm27.06 0h6.688V33h-6.688V1.276zm27.192 13.772h13.2v15.004c-.763.528-1.643 1.02-2.64 1.474-.997.455-2.053.843-3.168 1.166-1.115.323-2.28.58-3.498.77-1.217.19-2.427.286-3.63.286-2.992 0-5.507-.418-7.546-1.254-2.039-.836-3.681-1.995-4.928-3.476-1.247-1.481-2.141-3.234-2.684-5.258-.543-2.024-.814-4.224-.814-6.6 0-2.376.374-4.569 1.122-6.578.748-2.01 1.84-3.747 3.278-5.214 1.437-1.467 3.212-2.61 5.324-3.432 2.112-.821 4.517-1.232 7.216-1.232 2.2 0 4.173.22 5.918.66 1.745.44 3.366.983 4.862 1.628l-2.024 5.324c-1.056-.44-1.995-.785-2.816-1.034-.821-.25-1.584-.44-2.288-.572-.704-.132-1.357-.22-1.958-.264-.601-.044-1.21-.066-1.826-.066-3.021 0-5.42.931-7.194 2.794-1.775 1.863-2.662 4.525-2.662 7.986 0 3.696.777 6.431 2.332 8.206 1.555 1.775 3.784 2.662 6.688 2.662 1.32 0 2.523-.125 3.608-.374 1.085-.25 1.98-.565 2.684-.946V20.68h-6.556v-5.632zm19.14-13.772h12.1c1.525 0 2.955.154 4.29.462 1.335.308 2.493.821 3.476 1.54.983.719 1.753 1.657 2.31 2.816.557 1.159.836 2.589.836 4.29 0 1.144-.183 2.215-.55 3.212-.367.997-.858 1.892-1.474 2.684-.616.792-1.335 1.467-2.156 2.024-.821.557-1.672.983-2.552 1.276.499.235.946.543 1.342.924.396.381.814.836 1.254 1.364l6.996 8.14-5.06 3.652-7.832-9.196c-.528-.616-.997-1.13-1.408-1.54-.41-.41-.792-.74-1.144-.99-.352-.25-.704-.418-1.056-.506-.352-.088-.748-.132-1.188-.132h-1.584V33h-6.6V1.276zm10.868 14.52c1.672 0 3-.381 3.982-1.144.983-.763 1.474-1.892 1.474-3.388 0-.939-.132-1.709-.396-2.31s-.63-1.07-1.1-1.408c-.47-.337-1.041-.565-1.716-.682-.675-.117-1.423-.176-2.244-.176h-4.268v9.108h4.268zm28.688 11.396c1.027.557 2.288.836 3.784.836 1.467 0 2.728-.286 3.784-.858 1.056-.572 1.929-1.342 2.618-2.31.69-.968 1.195-2.112 1.518-3.432.323-1.32.484-2.728.484-4.224s-.161-2.897-.484-4.202c-.323-1.305-.829-2.45-1.518-3.432-.69-.983-1.562-1.753-2.618-2.31-1.056-.557-2.317-.836-3.784-.836-1.467 0-2.728.279-3.784.836-1.056.557-1.929 1.327-2.618 2.31-.69.983-1.195 2.127-1.518 3.432-.323 1.305-.484 2.706-.484 4.202 0 2.288.374 4.305 1.122 6.05.748 1.745 1.914 3.058 3.498 3.938zm-8.184 1.496c-1.232-1.584-2.105-3.366-2.618-5.346-.513-1.98-.77-4.026-.77-6.138s.286-4.158.858-6.138c.572-1.98 1.481-3.74 2.728-5.28s2.838-2.772 4.774-3.696c1.936-.924 4.268-1.386 6.996-1.386 2.845 0 5.243.462 7.194 1.386 1.95.924 3.527 2.156 4.73 3.696 1.203 1.54 2.075 3.3 2.618 5.28.543 1.98.814 4.026.814 6.138s-.286 4.165-.858 6.16c-.572 1.995-1.481 3.762-2.728 5.302-1.247 1.54-2.838 2.772-4.774 3.696-1.936.924-4.268 1.386-6.996 1.386-2.845 0-5.243-.462-7.194-1.386-1.95-.924-3.542-2.149-4.774-3.674zM29.216 90.02c-.939.44-1.848.829-2.728 1.166-.88.337-1.79.623-2.728.858-.939.235-1.914.41-2.926.528-1.012.117-2.12.176-3.322.176-2.904 0-5.36-.418-7.37-1.254-2.01-.836-3.637-1.995-4.884-3.476-1.247-1.481-2.156-3.234-2.728-5.258-.572-2.024-.858-4.224-.858-6.6 0-2.376.352-4.569 1.056-6.578.704-2.01 1.745-3.747 3.124-5.214 1.379-1.467 3.095-2.61 5.148-3.432 2.053-.821 4.43-1.232 7.128-1.232 2.2 0 4.143.22 5.83.66 1.687.44 3.278.983 4.774 1.628l-2.024 5.324c-1.056-.44-1.987-.785-2.794-1.034-.807-.25-1.547-.44-2.222-.572-.675-.132-1.305-.22-1.892-.264-.587-.044-1.188-.066-1.804-.066-3.021 0-5.339.931-6.952 2.794-1.613 1.863-2.42 4.525-2.42 7.986 0 3.696.807 6.439 2.42 8.228 1.613 1.79 3.916 2.684 6.908 2.684.85 0 1.628-.044 2.332-.132.704-.088 1.4-.22 2.09-.396.69-.176 1.415-.403 2.178-.682.763-.279 1.643-.623 2.64-1.034l2.024 5.192zm14.564-3.828c1.027.557 2.288.836 3.784.836 1.467 0 2.728-.286 3.784-.858 1.056-.572 1.929-1.342 2.618-2.31.69-.968 1.195-2.112 1.518-3.432.323-1.32.484-2.728.484-4.224s-.161-2.897-.484-4.202c-.323-1.305-.829-2.45-1.518-3.432-.69-.983-1.562-1.753-2.618-2.31-1.056-.557-2.317-.836-3.784-.836-1.467 0-2.728.279-3.784.836-1.056.557-1.929 1.327-2.618 2.31-.69.983-1.195 2.127-1.518 3.432-.323 1.305-.484 2.706-.484 4.202 0 2.288.374 4.305 1.122 6.05.748 1.745 1.914 3.058 3.498 3.938zm-8.184 1.496c-1.232-1.584-2.105-3.366-2.618-5.346-.513-1.98-.77-4.026-.77-6.138s.286-4.158.858-6.138c.572-1.98 1.481-3.74 2.728-5.28s2.838-2.772 4.774-3.696c1.936-.924 4.268-1.386 6.996-1.386 2.845 0 5.243.462 7.194 1.386 1.95.924 3.527 2.156 4.73 3.696 1.203 1.54 2.075 3.3 2.618 5.28.543 1.98.814 4.026.814 6.138s-.286 4.165-.858 6.16c-.572 1.995-1.481 3.762-2.728 5.302-1.247 1.54-2.838 2.772-4.774 3.696-1.936.924-4.268 1.386-6.996 1.386-2.845 0-5.243-.462-7.194-1.386-1.95-.924-3.542-2.149-4.774-3.674zm32.032-27.412h6.732L88 83.948V60.276h6.38v24.332c0 .733-.037 1.503-.11 2.31-.073.807-.169 1.415-.286 1.826-.235.792-.535 1.423-.902 1.892-.367.47-.755.821-1.166 1.056-.41.235-.821.381-1.232.44-.41.059-.777.088-1.1.088-1.232 0-2.317-.374-3.256-1.122-.939-.748-1.936-2.031-2.992-3.85l-9.284-15.4V92h-6.424V60.276zm41.492 0h6.6V77.92c0 1.437.08 2.728.242 3.872.161 1.144.484 2.112.968 2.904.484.792 1.151 1.4 2.002 1.826.85.425 1.98.638 3.388.638 1.379 0 2.493-.213 3.344-.638.85-.425 1.518-1.027 2.002-1.804.484-.777.807-1.723.968-2.838.161-1.115.242-2.361.242-3.74V60.276h6.644v17.996c0 2.112-.183 4.055-.55 5.83-.367 1.775-1.041 3.3-2.024 4.576-.983 1.276-2.332 2.273-4.048 2.992-1.716.719-3.909 1.078-6.578 1.078-2.728 0-4.95-.323-6.666-.968-1.716-.645-3.058-1.57-4.026-2.772-.968-1.203-1.628-2.662-1.98-4.378-.352-1.716-.528-3.645-.528-5.786V60.276zm32.34 0h6.732l13.64 23.672V60.276h6.38v24.332c0 .733-.037 1.503-.11 2.31-.073.807-.169 1.415-.286 1.826-.235.792-.535 1.423-.902 1.892-.367.47-.755.821-1.166 1.056-.41.235-.821.381-1.232.44-.41.059-.777.088-1.1.088-1.232 0-2.317-.374-3.256-1.122-.939-.748-1.936-2.031-2.992-3.85l-9.284-15.4V92h-6.424V60.276zm41.624 0h12.1c1.525 0 2.955.154 4.29.462 1.335.308 2.493.821 3.476 1.54.983.719 1.753 1.657 2.31 2.816.557 1.159.836 2.589.836 4.29 0 1.144-.183 2.215-.55 3.212-.367.997-.858 1.892-1.474 2.684-.616.792-1.335 1.467-2.156 2.024-.821.557-1.672.983-2.552 1.276.499.235.946.543 1.342.924.396.381.814.836 1.254 1.364l6.996 8.14-5.06 3.652-7.832-9.196c-.528-.616-.997-1.13-1.408-1.54-.41-.41-.792-.74-1.144-.99-.352-.25-.704-.418-1.056-.506-.352-.088-.748-.132-1.188-.132h-1.584V92h-6.6V60.276zm10.868 14.52c1.672 0 3-.381 3.982-1.144.983-.763 1.474-1.892 1.474-3.388 0-.939-.132-1.709-.396-2.31s-.63-1.07-1.1-1.408c-.47-.337-1.041-.565-1.716-.682-.675-.117-1.423-.176-2.244-.176h-4.268v9.108h4.268zm18.48-14.52h22.792v5.588h-16.28v6.776h12.584v5.632h-12.584v8.14h16.632V92h-23.144V60.276zm27.808 0h12.144c1.525 0 2.97.19 4.334.572 1.364.381 2.56.99 3.586 1.826 1.027.836 1.84 1.914 2.442 3.234.601 1.32.902 2.904.902 4.752 0 1.613-.293 3.065-.88 4.356-.587 1.29-1.393 2.383-2.42 3.278s-2.244 1.584-3.652 2.068-2.933.726-4.576.726h-5.324V92h-6.556V60.276zm11.308 15.268c.645 0 1.29-.073 1.936-.22.645-.147 1.225-.41 1.738-.792.513-.381.924-.88 1.232-1.496.308-.616.462-1.393.462-2.332 0-1.056-.147-1.914-.44-2.574-.293-.66-.697-1.173-1.21-1.54s-1.093-.609-1.738-.726c-.645-.117-1.32-.176-2.024-.176h-4.708v9.856h4.752zm16.544-15.268h6.6V77.92c0 1.437.08 2.728.242 3.872.161 1.144.484 2.112.968 2.904.484.792 1.151 1.4 2.002 1.826.85.425 1.98.638 3.388.638 1.379 0 2.493-.213 3.344-.638.85-.425 1.518-1.027 2.002-1.804.484-.777.807-1.723.968-2.838.161-1.115.242-2.361.242-3.74V60.276h6.644v17.996c0 2.112-.183 4.055-.55 5.83-.367 1.775-1.041 3.3-2.024 4.576-.983 1.276-2.332 2.273-4.048 2.992-1.716.719-3.909 1.078-6.578 1.078-2.728 0-4.95-.323-6.666-.968-1.716-.645-3.058-1.57-4.026-2.772-.968-1.203-1.628-2.662-1.98-4.378-.352-1.716-.528-3.645-.528-5.786V60.276zm32.34 0h22.792v5.588h-16.28v6.776h12.584v5.632h-12.584v8.14h16.632V92h-23.144V60.276zm27.5 24.508c3.784 1.525 7.23 2.288 10.34 2.288 2.376 0 4.107-.367 5.192-1.1 1.085-.733 1.628-1.73 1.628-2.992 0-.704-.161-1.298-.484-1.782-.323-.484-.777-.887-1.364-1.21-.587-.323-1.298-.594-2.134-.814-.836-.22-1.753-.418-2.75-.594-1.32-.235-2.633-.535-3.938-.902-1.305-.367-2.464-.887-3.476-1.562s-1.833-1.54-2.464-2.596c-.63-1.056-.946-2.39-.946-4.004 0-1.408.235-2.706.704-3.894.47-1.188 1.225-2.222 2.266-3.102 1.041-.88 2.398-1.57 4.07-2.068 1.672-.499 3.696-.748 6.072-.748 2.112 0 4.1.22 5.962.66 1.863.44 3.513.953 4.95 1.54l-1.628 5.368c-1.76-.616-3.432-1.093-5.016-1.43-1.584-.337-3.124-.506-4.62-.506-2.024 0-3.513.3-4.466.902-.953.601-1.43 1.474-1.43 2.618 0 1.232.55 2.112 1.65 2.64 1.1.528 2.633.968 4.598 1.32 1.35.264 2.699.58 4.048.946 1.35.367 2.567.902 3.652 1.606 1.085.704 1.965 1.62 2.64 2.75S352 80.707 352 82.496c0 1.555-.3 2.963-.902 4.224-.601 1.261-1.481 2.34-2.64 3.234-1.159.895-2.589 1.584-4.29 2.068s-3.667.726-5.896.726c-1.35 0-2.64-.08-3.872-.242-1.232-.161-2.369-.36-3.41-.594-1.041-.235-1.98-.491-2.816-.77-.836-.279-1.533-.535-2.09-.77l1.848-5.588zm35.772-18.92h-9.46v-5.588h25.52v5.588h-9.46V92h-6.6V65.864zm29.964 20.328c1.027.557 2.288.836 3.784.836 1.467 0 2.728-.286 3.784-.858 1.056-.572 1.929-1.342 2.618-2.31.69-.968 1.195-2.112 1.518-3.432.323-1.32.484-2.728.484-4.224s-.161-2.897-.484-4.202c-.323-1.305-.829-2.45-1.518-3.432-.69-.983-1.562-1.753-2.618-2.31-1.056-.557-2.317-.836-3.784-.836-1.467 0-2.728.279-3.784.836-1.056.557-1.929 1.327-2.618 2.31-.69.983-1.195 2.127-1.518 3.432-.323 1.305-.484 2.706-.484 4.202 0 2.288.374 4.305 1.122 6.05.748 1.745 1.914 3.058 3.498 3.938zm-8.184 1.496c-1.232-1.584-2.105-3.366-2.618-5.346-.513-1.98-.77-4.026-.77-6.138s.286-4.158.858-6.138c.572-1.98 1.481-3.74 2.728-5.28s2.838-2.772 4.774-3.696c1.936-.924 4.268-1.386 6.996-1.386 2.845 0 5.243.462 7.194 1.386 1.95.924 3.527 2.156 4.73 3.696 1.203 1.54 2.075 3.3 2.618 5.28.543 1.98.814 4.026.814 6.138s-.286 4.165-.858 6.16c-.572 1.995-1.481 3.762-2.728 5.302-1.247 1.54-2.838 2.772-4.774 3.696-1.936.924-4.268 1.386-6.996 1.386-2.845 0-5.243-.462-7.194-1.386-1.95-.924-3.542-2.149-4.774-3.674zm40.832-27.412h22.792v5.588h-16.236v6.776h12.54v5.632h-12.54V92h-6.556V60.276zm32.516 5.676c.293-.997.653-1.885 1.078-2.662.425-.777.953-1.43 1.584-1.958.63-.528 1.4-.931 2.31-1.21.91-.279 1.98-.418 3.212-.418 1.203 0 2.23.132 3.08.396.85.264 1.57.653 2.156 1.166.587.513 1.078 1.137 1.474 1.87.396.733.74 1.57 1.034 2.508l7.7 25.564-6.6 1.452-2.86-9.68h-12.496l-2.904 9.68-6.424-1.452 7.656-25.256zm12.54 11.44l-2.992-10.604c-.176-.587-.396-.975-.66-1.166-.264-.19-.572-.286-.924-.286-.381 0-.697.103-.946.308-.25.205-.462.587-.638 1.144l-3.168 10.604h9.328zm14.652-17.116h6.556v26.136h16.588V92h-23.144V60.276zm26.664 24.508c3.784 1.525 7.23 2.288 10.34 2.288 2.376 0 4.107-.367 5.192-1.1 1.085-.733 1.628-1.73 1.628-2.992 0-.704-.161-1.298-.484-1.782-.323-.484-.777-.887-1.364-1.21-.587-.323-1.298-.594-2.134-.814-.836-.22-1.753-.418-2.75-.594-1.32-.235-2.633-.535-3.938-.902-1.305-.367-2.464-.887-3.476-1.562s-1.833-1.54-2.464-2.596c-.63-1.056-.946-2.39-.946-4.004 0-1.408.235-2.706.704-3.894.47-1.188 1.225-2.222 2.266-3.102 1.041-.88 2.398-1.57 4.07-2.068 1.672-.499 3.696-.748 6.072-.748 2.112 0 4.1.22 5.962.66 1.863.44 3.513.953 4.95 1.54l-1.628 5.368c-1.76-.616-3.432-1.093-5.016-1.43-1.584-.337-3.124-.506-4.62-.506-2.024 0-3.513.3-4.466.902-.953.601-1.43 1.474-1.43 2.618 0 1.232.55 2.112 1.65 2.64 1.1.528 2.633.968 4.598 1.32 1.35.264 2.699.58 4.048.946 1.35.367 2.567.902 3.652 1.606 1.085.704 1.965 1.62 2.64 2.75s1.012 2.589 1.012 4.378c0 1.555-.3 2.963-.902 4.224-.601 1.261-1.481 2.34-2.64 3.234-1.159.895-2.589 1.584-4.29 2.068s-3.667.726-5.896.726c-1.35 0-2.64-.08-3.872-.242-1.232-.161-2.369-.36-3.41-.594-1.041-.235-1.98-.491-2.816-.77-.836-.279-1.533-.535-2.09-.77l1.848-5.588zm38.896 1.408c1.027.557 2.288.836 3.784.836 1.467 0 2.728-.286 3.784-.858 1.056-.572 1.929-1.342 2.618-2.31.69-.968 1.195-2.112 1.518-3.432.323-1.32.484-2.728.484-4.224s-.161-2.897-.484-4.202c-.323-1.305-.829-2.45-1.518-3.432-.69-.983-1.562-1.753-2.618-2.31-1.056-.557-2.317-.836-3.784-.836-1.467 0-2.728.279-3.784.836-1.056.557-1.929 1.327-2.618 2.31-.69.983-1.195 2.127-1.518 3.432-.323 1.305-.484 2.706-.484 4.202 0 2.288.374 4.305 1.122 6.05.748 1.745 1.914 3.058 3.498 3.938zm-8.184 1.496c-1.232-1.584-2.105-3.366-2.618-5.346-.513-1.98-.77-4.026-.77-6.138s.286-4.158.858-6.138c.572-1.98 1.481-3.74 2.728-5.28s2.838-2.772 4.774-3.696c1.936-.924 4.268-1.386 6.996-1.386 2.845 0 5.243.462 7.194 1.386 1.95.924 3.527 2.156 4.73 3.696 1.203 1.54 2.075 3.3 2.618 5.28.543 1.98.814 4.026.814 6.138s-.286 4.165-.858 6.16c-.572 1.995-1.481 3.762-2.728 5.302-1.247 1.54-2.838 2.772-4.774 3.696-1.936.924-4.268 1.386-6.996 1.386-2.845 0-5.243-.462-7.194-1.386-1.95-.924-3.542-2.149-4.774-3.674zM5.31 139.052c.648 0 1.128-.171 1.44-.513.312-.342.468-.831.468-1.467 0-.672-.135-1.17-.405-1.494-.27-.324-.771-.486-1.503-.486H4.158v3.96H5.31zm-1.152 2.16V146H1.26v-12.978h4.122c.744 0 1.419.054 2.025.162.606.108 1.122.312 1.548.612.426.3.753.714.981 1.242.228.528.342 1.206.342 2.034 0 .768-.123 1.416-.369 1.944s-.585.954-1.017 1.278c-.432.324-.948.558-1.548.702-.6.144-1.254.216-1.962.216H4.158zm15.314-1.962c-.12-.06-.273-.12-.459-.18s-.435-.09-.747-.09c-.276 0-.567.072-.873.216-.306.144-.573.372-.801.684V146h-2.754v-7.362h-1.134v-1.836h3.438l.27 1.188c.42-.48.822-.816 1.206-1.008.384-.192.828-.288 1.332-.288.204 0 .411.009.621.027.21.018.411.051.603.099l-.702 2.43zm6.926 5.094c.552 0 .96-.222 1.224-.666.264-.444.396-1.2.396-2.268 0-1.032-.117-1.782-.351-2.25-.234-.468-.639-.702-1.215-.702-.564 0-.99.225-1.278.675-.288.45-.432 1.215-.432 2.295 0 1.02.132 1.761.396 2.223.264.462.684.693 1.26.693zm-4.41-2.916c0-.756.096-1.44.288-2.052.192-.612.474-1.134.846-1.566.372-.432.837-.762 1.395-.99.558-.228 1.203-.342 1.935-.342 1.488 0 2.583.42 3.285 1.26.702.84 1.053 2.046 1.053 3.618 0 .768-.09 1.458-.27 2.07-.18.612-.456 1.134-.828 1.566-.372.432-.84.762-1.404.99-.564.228-1.224.342-1.98.342-.804 0-1.479-.117-2.025-.351-.546-.234-.99-.567-1.332-.999-.342-.432-.588-.948-.738-1.548-.15-.6-.225-1.266-.225-1.998zm11.12-4.626h1.602v-2.628h2.664v2.628h2.61v1.944h-2.61v3.726c0 .324.009.603.027.837.018.234.06.423.126.567.066.144.168.252.306.324.138.072.333.108.585.108.264 0 .522-.039.774-.117.252-.078.48-.165.684-.261l.612 1.71c-.36.168-.753.324-1.179.468-.426.144-.891.216-1.395.216-.636 0-1.167-.063-1.593-.189-.426-.126-.765-.336-1.017-.63-.252-.294-.429-.681-.531-1.161-.102-.48-.153-1.074-.153-1.782v-3.816h-1.512v-1.944zM47 144.344c.504 0 .951-.039 1.341-.117.39-.078.783-.219 1.179-.423l.81 1.71c-.564.324-1.143.54-1.737.648-.594.108-1.245.162-1.953.162-1.572 0-2.697-.42-3.375-1.26-.678-.84-1.017-2.052-1.017-3.636 0-.732.093-1.401.279-2.007.186-.606.459-1.128.819-1.566.36-.438.813-.777 1.359-1.017.546-.24 1.179-.36 1.899-.36.696 0 1.293.114 1.791.342.498.228.909.558 1.233.99.324.432.561.96.711 1.584.15.624.225 1.326.225 2.106l-.702.774h-4.86c.084.744.294 1.275.63 1.593.336.318.792.477 1.368.477zm.99-3.852c0-1.356-.462-2.034-1.386-2.034-.48 0-.852.141-1.116.423-.264.282-.426.819-.486 1.611h2.988zm11.264-1.224c-.156-.24-.357-.435-.603-.585-.246-.15-.513-.225-.801-.225-.336 0-.612.069-.828.207-.216.138-.387.336-.513.594-.126.258-.213.57-.261.936-.048.366-.072.771-.072 1.215 0 .528.036.966.108 1.314.072.348.177.624.315.828.138.204.297.345.477.423.18.078.378.117.594.117.24 0 .495-.018.765-.054.27-.036.543-.144.819-.324v-4.446zm0 6.264c-.312.168-.663.3-1.053.396-.39.096-.789.144-1.197.144-.54 0-1.032-.09-1.476-.27-.444-.18-.825-.459-1.143-.837-.318-.378-.561-.864-.729-1.458-.168-.594-.252-1.305-.252-2.133 0-1.584.306-2.796.918-3.636.612-.84 1.518-1.26 2.718-1.26.504 0 .945.087 1.323.261.378.174.759.453 1.143.837l.936-1.134 2.106 1.008-.54 1.368v6.894c0 1.428-.366 2.508-1.098 3.24-.732.732-1.902 1.098-3.51 1.098-.408 0-.768-.009-1.08-.027-.312-.018-.609-.054-.891-.108-.282-.054-.561-.132-.837-.234-.276-.102-.582-.231-.918-.387l.828-1.854c.744.42 1.608.63 2.592.63.36 0 .675-.027.945-.081.27-.054.495-.156.675-.306.18-.15.315-.363.405-.639.09-.276.135-.636.135-1.08v-.432zm10.796-1.188c.504 0 .951-.039 1.341-.117.39-.078.783-.219 1.179-.423l.81 1.71c-.564.324-1.143.54-1.737.648-.594.108-1.245.162-1.953.162-1.572 0-2.697-.42-3.375-1.26-.678-.84-1.017-2.052-1.017-3.636 0-.732.093-1.401.279-2.007.186-.606.459-1.128.819-1.566.36-.438.813-.777 1.359-1.017.546-.24 1.179-.36 1.899-.36.696 0 1.293.114 1.791.342.498.228.909.558 1.233.99.324.432.561.96.711 1.584.15.624.225 1.326.225 2.106l-.702.774h-4.86c.084.744.294 1.275.63 1.593.336.318.792.477 1.368.477zm.99-3.852c0-1.356-.462-2.034-1.386-2.034-.48 0-.852.141-1.116.423-.264.282-.426.819-.486 1.611h2.988zm9.982-3.69h1.602v-2.628h2.664v2.628h2.61v1.944h-2.61v3.726c0 .324.009.603.027.837.018.234.06.423.126.567.066.144.168.252.306.324.138.072.333.108.585.108.264 0 .522-.039.774-.117.252-.078.48-.165.684-.261l.612 1.71c-.36.168-.753.324-1.179.468-.426.144-.891.216-1.395.216-.636 0-1.167-.063-1.593-.189-.426-.126-.765-.336-1.017-.63-.252-.294-.429-.681-.531-1.161-.102-.48-.153-1.074-.153-1.782v-3.816h-1.512v-1.944zm18.068 7.218l.594 1.278-2.214 1.08-.828-1.134c-.444.396-.882.675-1.314.837-.432.162-.864.243-1.296.243-1.14 0-1.95-.294-2.43-.882-.48-.588-.72-1.458-.72-2.61v-6.03h2.754v5.526c0 .684.09 1.158.27 1.422.18.264.516.396 1.008.396.288 0 .561-.054.819-.162.258-.108.459-.246.603-.414v-6.768h2.754v7.218zm10.306-8.442c-.54 0-.945-.156-1.215-.468-.27-.312-.405-.708-.405-1.188s.135-.882.405-1.206c.27-.324.675-.486 1.215-.486s.948.162 1.224.486c.276.324.414.726.414 1.206s-.138.876-.414 1.188c-.276.312-.684.468-1.224.468zM110.908 146h-2.754v-7.362h-1.134v-1.836h3.888V146zm3.74-7.182l-.54-1.368 2.106-1.008.936 1.314c.492-.444.954-.768 1.386-.972.432-.204.918-.306 1.458-.306.636 0 1.152.093 1.548.279.396.186.708.45.936.792.228.342.381.747.459 1.215.078.468.117.978.117 1.53V146H120.3v-5.31c0-.708-.084-1.218-.252-1.53-.168-.312-.522-.468-1.062-.468-.624 0-1.152.288-1.584.864V146h-2.754v-7.182zm16.034 7.506c-.492 0-.897-.042-1.215-.126-.318-.084-.579-.207-.783-.369-.204-.162-.366-.366-.486-.612s-.228-.531-.324-.855l-2.16-7.344 2.862-.486 1.836 7.326c.048.204.132.306.252.306.06 0 .114-.015.162-.045s.09-.111.126-.243l1.818-7.344 2.646.522-2.124 7.308c-.192.648-.495 1.137-.909 1.467-.414.33-.981.495-1.701.495zm11.606-1.98c.504 0 .951-.039 1.341-.117.39-.078.783-.219 1.179-.423l.81 1.71c-.564.324-1.143.54-1.737.648-.594.108-1.245.162-1.953.162-1.572 0-2.697-.42-3.375-1.26-.678-.84-1.017-2.052-1.017-3.636 0-.732.093-1.401.279-2.007.186-.606.459-1.128.819-1.566.36-.438.813-.777 1.359-1.017.546-.24 1.179-.36 1.899-.36.696 0 1.293.114 1.791.342.498.228.909.558 1.233.99.324.432.561.96.711 1.584.15.624.225 1.326.225 2.106l-.702.774h-4.86c.084.744.294 1.275.63 1.593.336.318.792.477 1.368.477zm.99-3.852c0-1.356-.462-2.034-1.386-2.034-.48 0-.852.141-1.116.423-.264.282-.426.819-.486 1.611h2.988zm11.588-1.242c-.12-.06-.273-.12-.459-.18s-.435-.09-.747-.09c-.276 0-.567.072-.873.216-.306.144-.573.372-.801.684V146h-2.754v-7.362h-1.134v-1.836h3.438l.27 1.188c.42-.48.822-.816 1.206-1.008.384-.192.828-.288 1.332-.288.204 0 .411.009.621.027.21.018.411.051.603.099l-.702 2.43zm8.942-.306c-.348-.18-.726-.33-1.134-.45-.408-.12-.804-.18-1.188-.18-.504 0-.852.081-1.044.243-.192.162-.288.357-.288.585 0 .18.045.327.135.441.09.114.216.216.378.306s.348.168.558.234c.21.066.435.135.675.207.324.096.654.207.99.333.336.126.645.294.927.504.282.21.51.471.684.783.174.312.261.702.261 1.17 0 .456-.066.879-.198 1.269-.132.39-.351.729-.657 1.017-.306.288-.711.513-1.215.675-.504.162-1.122.243-1.854.243s-1.428-.087-2.088-.261c-.66-.174-1.206-.393-1.638-.657l.864-1.71c.384.204.81.381 1.278.531.468.15.984.225 1.548.225.408 0 .747-.057 1.017-.171.27-.114.405-.345.405-.693 0-.192-.048-.348-.144-.468-.096-.12-.228-.222-.396-.306-.168-.084-.378-.159-.63-.225s-.528-.141-.828-.225c-.312-.084-.624-.186-.936-.306-.312-.12-.591-.282-.837-.486-.246-.204-.447-.465-.603-.783-.156-.318-.234-.717-.234-1.197 0-1.02.345-1.794 1.035-2.322s1.629-.792 2.817-.792c.564 0 1.125.075 1.683.225.558.15 1.047.333 1.467.549l-.81 1.692zm5.666-3.366c-.54 0-.945-.156-1.215-.468-.27-.312-.405-.708-.405-1.188s.135-.882.405-1.206c.27-.324.675-.486 1.215-.486s.948.162 1.224.486c.276.324.414.726.414 1.206s-.138.876-.414 1.188c-.276.312-.684.468-1.224.468zM170.986 146h-2.754v-7.362h-1.134v-1.836h3.888V146zm7.7-1.656c.552 0 .96-.222 1.224-.666.264-.444.396-1.2.396-2.268 0-1.032-.117-1.782-.351-2.25-.234-.468-.639-.702-1.215-.702-.564 0-.99.225-1.278.675-.288.45-.432 1.215-.432 2.295 0 1.02.132 1.761.396 2.223.264.462.684.693 1.26.693zm-4.41-2.916c0-.756.096-1.44.288-2.052.192-.612.474-1.134.846-1.566.372-.432.837-.762 1.395-.99.558-.228 1.203-.342 1.935-.342 1.488 0 2.583.42 3.285 1.26.702.84 1.053 2.046 1.053 3.618 0 .768-.09 1.458-.27 2.07-.18.612-.456 1.134-.828 1.566-.372.432-.84.762-1.404.99-.564.228-1.224.342-1.98.342-.804 0-1.479-.117-2.025-.351-.546-.234-.99-.567-1.332-.999-.342-.432-.588-.948-.738-1.548-.15-.6-.225-1.266-.225-1.998zm4.176-5.85l-1.242-.9 2.142-3.456 1.872 1.332-2.772 3.024zm7.916 3.24l-.54-1.368 2.106-1.008.936 1.314c.492-.444.954-.768 1.386-.972.432-.204.918-.306 1.458-.306.636 0 1.152.093 1.548.279.396.186.708.45.936.792.228.342.381.747.459 1.215.078.468.117.978.117 1.53V146h-2.754v-5.31c0-.708-.084-1.218-.252-1.53-.168-.312-.522-.468-1.062-.468-.624 0-1.152.288-1.584.864V146h-2.754v-7.182zm12.344 4.446l2.628.486-1.71 5.022-1.746-.486.828-5.022zm17.938 2.304c-.468.276-.966.471-1.494.585-.528.114-1.098.171-1.71.171-.792 0-1.461-.105-2.007-.315-.546-.21-.99-.522-1.332-.936-.342-.414-.591-.927-.747-1.539-.156-.612-.234-1.314-.234-2.106 0-1.572.399-2.79 1.197-3.654.798-.864 1.935-1.296 3.411-1.296.588 0 1.095.054 1.521.162.426.108.849.282 1.269.522l-.81 1.764c-.24-.132-.498-.243-.774-.333-.276-.09-.642-.135-1.098-.135-.612 0-1.092.231-1.44.693-.348.462-.522 1.221-.522 2.277 0 1.02.165 1.761.495 2.223.33.462.807.693 1.431.693.42 0 .786-.042 1.098-.126.312-.084.624-.204.936-.36l.81 1.71zm6.566-1.224c.552 0 .96-.222 1.224-.666.264-.444.396-1.2.396-2.268 0-1.032-.117-1.782-.351-2.25-.234-.468-.639-.702-1.215-.702-.564 0-.99.225-1.278.675-.288.45-.432 1.215-.432 2.295 0 1.02.132 1.761.396 2.223.264.462.684.693 1.26.693zm-4.41-2.916c0-.756.096-1.44.288-2.052.192-.612.474-1.134.846-1.566.372-.432.837-.762 1.395-.99.558-.228 1.203-.342 1.935-.342 1.488 0 2.583.42 3.285 1.26.702.84 1.053 2.046 1.053 3.618 0 .768-.09 1.458-.27 2.07-.18.612-.456 1.134-.828 1.566-.372.432-.84.762-1.404.99-.564.228-1.224.342-1.98.342-.804 0-1.479-.117-2.025-.351-.546-.234-.99-.567-1.332-.999-.342-.432-.588-.948-.738-1.548-.15-.6-.225-1.266-.225-1.998zm12.092-2.61l-.54-1.368 2.106-1.008.936 1.314c.492-.444.957-.768 1.395-.972.438-.204.861-.306 1.269-.306.672 0 1.2.114 1.584.342.384.228.672.546.864.954.456-.408.921-.726 1.395-.954.474-.228.951-.342 1.431-.342.612 0 1.104.093 1.476.279.372.186.663.45.873.792.21.342.351.747.423 1.215.072.468.108.978.108 1.53V146h-2.754v-5.31c0-.348-.012-.648-.036-.9-.024-.252-.075-.459-.153-.621-.078-.162-.192-.282-.342-.36-.15-.078-.351-.117-.603-.117-.24 0-.489.084-.747.252-.258.168-.483.372-.675.612.012.12.021.24.027.36.006.12.009.246.009.378V146h-2.754v-5.31c0-.348-.012-.648-.036-.9-.024-.252-.075-.459-.153-.621-.078-.162-.192-.282-.342-.36-.15-.078-.351-.117-.603-.117-.216 0-.453.075-.711.225-.258.15-.489.363-.693.639V146h-2.754v-7.182zm16.97 11.106v-11.106l-.54-1.368 2.106-1.008.936 1.314c.336-.384.732-.693 1.188-.927.456-.234.954-.351 1.494-.351 1.2 0 2.094.429 2.682 1.287.588.858.882 2.079.882 3.663 0 .756-.102 1.437-.306 2.043-.204.606-.498 1.119-.882 1.539-.384.42-.852.744-1.404.972-.552.228-1.182.342-1.89.342-.24 0-.495-.021-.765-.063-.27-.042-.519-.093-.747-.153v3.816h-2.754zm3.96-5.58c.648 0 1.146-.246 1.494-.738.348-.492.522-1.224.522-2.196 0-.444-.021-.849-.063-1.215-.042-.366-.123-.678-.243-.936s-.282-.456-.486-.594c-.204-.138-.474-.207-.81-.207-.312 0-.609.096-.891.288-.282.192-.525.426-.729.702v4.644c.168.072.351.132.549.18.198.048.417.072.657.072zm13.802-5.094c-.12-.06-.273-.12-.459-.18s-.435-.09-.747-.09c-.276 0-.567.072-.873.216-.306.144-.573.372-.801.684V146h-2.754v-7.362h-1.134v-1.836h3.438l.27 1.188c.42-.48.822-.816 1.206-1.008.384-.192.828-.288 1.332-.288.204 0 .411.009.621.027.21.018.411.051.603.099l-.702 2.43zm6.332 5.094c.24 0 .498-.066.774-.198s.498-.282.666-.45v-1.8h-1.152c-.456 0-.81.078-1.062.234-.252.156-.378.492-.378 1.008 0 .456.099.771.297.945.198.174.483.261.855.261zm-.918 1.98c-.888 0-1.578-.258-2.07-.774-.492-.516-.738-1.236-.738-2.16 0-1.104.333-1.887.999-2.349.666-.462 1.671-.693 3.015-.693h1.152v-.342c0-.492-.102-.873-.306-1.143-.204-.27-.564-.405-1.08-.405-.54 0-1.023.048-1.449.144-.426.096-.831.228-1.215.396l-.702-1.746c.504-.24 1.095-.429 1.773-.567.678-.138 1.317-.207 1.917-.207.684 0 1.257.069 1.719.207.462.138.834.363 1.116.675.282.312.483.714.603 1.206s.18 1.098.18 1.818v3.654l.594 1.26-2.106 1.026-.81-1.188c-.456.396-.885.693-1.287.891-.402.198-.837.297-1.305.297zm19.288-7.074c-.12-.06-.273-.12-.459-.18s-.435-.09-.747-.09c-.276 0-.567.072-.873.216-.306.144-.573.372-.801.684V146h-2.754v-7.362h-1.134v-1.836h3.438l.27 1.188c.42-.48.822-.816 1.206-1.008.384-.192.828-.288 1.332-.288.204 0 .411.009.621.027.21.018.411.051.603.099l-.702 2.43zm7.268 5.094c.504 0 .951-.039 1.341-.117.39-.078.783-.219 1.179-.423l.81 1.71c-.564.324-1.143.54-1.737.648-.594.108-1.245.162-1.953.162-1.572 0-2.697-.42-3.375-1.26-.678-.84-1.017-2.052-1.017-3.636 0-.732.093-1.401.279-2.007.186-.606.459-1.128.819-1.566.36-.438.813-.777 1.359-1.017.546-.24 1.179-.36 1.899-.36.696 0 1.293.114 1.791.342.498.228.909.558 1.233.99.324.432.561.96.711 1.584.15.624.225 1.326.225 2.106l-.702.774h-4.86c.084.744.294 1.275.63 1.593.336.318.792.477 1.368.477zm.99-3.852c0-1.356-.462-2.034-1.386-2.034-.48 0-.852.141-1.116.423-.264.282-.426.819-.486 1.611h2.988zm5.864 9.432v-11.106l-.54-1.368 2.106-1.008.936 1.314c.336-.384.732-.693 1.188-.927.456-.234.954-.351 1.494-.351 1.2 0 2.094.429 2.682 1.287.588.858.882 2.079.882 3.663 0 .756-.102 1.437-.306 2.043-.204.606-.498 1.119-.882 1.539-.384.42-.852.744-1.404.972-.552.228-1.182.342-1.89.342-.24 0-.495-.021-.765-.063-.27-.042-.519-.093-.747-.153v3.816h-2.754zm3.96-5.58c.648 0 1.146-.246 1.494-.738.348-.492.522-1.224.522-2.196 0-.444-.021-.849-.063-1.215-.042-.366-.123-.678-.243-.936s-.282-.456-.486-.594c-.204-.138-.474-.207-.81-.207-.312 0-.609.096-.891.288-.282.192-.525.426-.729.702v4.644c.168.072.351.132.549.18.198.048.417.072.657.072zm16.196-.324l.594 1.278-2.214 1.08-.828-1.134c-.444.396-.882.675-1.314.837-.432.162-.864.243-1.296.243-1.14 0-1.95-.294-2.43-.882-.48-.588-.72-1.458-.72-2.61v-6.03h2.754v5.526c0 .684.09 1.158.27 1.422.18.264.516.396 1.008.396.288 0 .561-.054.819-.162.258-.108.459-.246.603-.414v-6.768h2.754v7.218zm8.096.324c.504 0 .951-.039 1.341-.117.39-.078.783-.219 1.179-.423l.81 1.71c-.564.324-1.143.54-1.737.648-.594.108-1.245.162-1.953.162-1.572 0-2.697-.42-3.375-1.26-.678-.84-1.017-2.052-1.017-3.636 0-.732.093-1.401.279-2.007.186-.606.459-1.128.819-1.566.36-.438.813-.777 1.359-1.017.546-.24 1.179-.36 1.899-.36.696 0 1.293.114 1.791.342.498.228.909.558 1.233.99.324.432.561.96.711 1.584.15.624.225 1.326.225 2.106l-.702.774h-4.86c.084.744.294 1.275.63 1.593.336.318.792.477 1.368.477zm.99-3.852c0-1.356-.462-2.034-1.386-2.034-.48 0-.852.141-1.116.423-.264.282-.426.819-.486 1.611h2.988zm11.75-1.548c-.348-.18-.726-.33-1.134-.45-.408-.12-.804-.18-1.188-.18-.504 0-.852.081-1.044.243-.192.162-.288.357-.288.585 0 .18.045.327.135.441.09.114.216.216.378.306s.348.168.558.234c.21.066.435.135.675.207.324.096.654.207.99.333.336.126.645.294.927.504.282.21.51.471.684.783.174.312.261.702.261 1.17 0 .456-.066.879-.198 1.269-.132.39-.351.729-.657 1.017-.306.288-.711.513-1.215.675-.504.162-1.122.243-1.854.243s-1.428-.087-2.088-.261c-.66-.174-1.206-.393-1.638-.657l.864-1.71c.384.204.81.381 1.278.531.468.15.984.225 1.548.225.408 0 .747-.057 1.017-.171.27-.114.405-.345.405-.693 0-.192-.048-.348-.144-.468-.096-.12-.228-.222-.396-.306-.168-.084-.378-.159-.63-.225s-.528-.141-.828-.225c-.312-.084-.624-.186-.936-.306-.312-.12-.591-.282-.837-.486-.246-.204-.447-.465-.603-.783-.156-.318-.234-.717-.234-1.197 0-1.02.345-1.794 1.035-2.322s1.629-.792 2.817-.792c.564 0 1.125.075 1.683.225.558.15 1.047.333 1.467.549l-.81 1.692zm3.272-2.142h1.602v-2.628h2.664v2.628h2.61v1.944h-2.61v3.726c0 .324.009.603.027.837.018.234.06.423.126.567.066.144.168.252.306.324.138.072.333.108.585.108.264 0 .522-.039.774-.117.252-.078.48-.165.684-.261l.612 1.71c-.36.168-.753.324-1.179.468-.426.144-.891.216-1.395.216-.636 0-1.167-.063-1.593-.189-.426-.126-.765-.336-1.017-.63-.252-.294-.429-.681-.531-1.161-.102-.48-.153-1.074-.153-1.782v-3.816h-1.512v-1.944zm13.55 7.542c.552 0 .96-.222 1.224-.666.264-.444.396-1.2.396-2.268 0-1.032-.117-1.782-.351-2.25-.234-.468-.639-.702-1.215-.702-.564 0-.99.225-1.278.675-.288.45-.432 1.215-.432 2.295 0 1.02.132 1.761.396 2.223.264.462.684.693 1.26.693zm-4.41-2.916c0-.756.096-1.44.288-2.052.192-.612.474-1.134.846-1.566.372-.432.837-.762 1.395-.99.558-.228 1.203-.342 1.935-.342 1.488 0 2.583.42 3.285 1.26.702.84 1.053 2.046 1.053 3.618 0 .768-.09 1.458-.27 2.07-.18.612-.456 1.134-.828 1.566-.372.432-.84.762-1.404.99-.564.228-1.224.342-1.98.342-.804 0-1.479-.117-2.025-.351-.546-.234-.99-.567-1.332-.999-.342-.432-.588-.948-.738-1.548-.15-.6-.225-1.266-.225-1.998zm17.978-2.484c-.348-.18-.726-.33-1.134-.45-.408-.12-.804-.18-1.188-.18-.504 0-.852.081-1.044.243-.192.162-.288.357-.288.585 0 .18.045.327.135.441.09.114.216.216.378.306s.348.168.558.234c.21.066.435.135.675.207.324.096.654.207.99.333.336.126.645.294.927.504.282.21.51.471.684.783.174.312.261.702.261 1.17 0 .456-.066.879-.198 1.269-.132.39-.351.729-.657 1.017-.306.288-.711.513-1.215.675-.504.162-1.122.243-1.854.243s-1.428-.087-2.088-.261c-.66-.174-1.206-.393-1.638-.657l.864-1.71c.384.204.81.381 1.278.531.468.15.984.225 1.548.225.408 0 .747-.057 1.017-.171.27-.114.405-.345.405-.693 0-.192-.048-.348-.144-.468-.096-.12-.228-.222-.396-.306-.168-.084-.378-.159-.63-.225s-.528-.141-.828-.225c-.312-.084-.624-.186-.936-.306-.312-.12-.591-.282-.837-.486-.246-.204-.447-.465-.603-.783-.156-.318-.234-.717-.234-1.197 0-1.02.345-1.794 1.035-2.322s1.629-.792 2.817-.792c.564 0 1.125.075 1.683.225.558.15 1.047.333 1.467.549l-.81 1.692zM5.13 168.344c.552 0 .96-.222 1.224-.666.264-.444.396-1.2.396-2.268 0-1.032-.117-1.782-.351-2.25-.234-.468-.639-.702-1.215-.702-.564 0-.99.225-1.278.675-.288.45-.432 1.215-.432 2.295 0 1.02.132 1.761.396 2.223.264.462.684.693 1.26.693zm-4.41-2.916c0-.756.096-1.44.288-2.052.192-.612.474-1.134.846-1.566.372-.432.837-.762 1.395-.99.558-.228 1.203-.342 1.935-.342 1.488 0 2.583.42 3.285 1.26.702.84 1.053 2.046 1.053 3.618 0 .768-.09 1.458-.27 2.07-.18.612-.456 1.134-.828 1.566-.372.432-.84.762-1.404.99-.564.228-1.224.342-1.98.342-.804 0-1.479-.117-2.025-.351-.546-.234-.99-.567-1.332-.999-.342-.432-.588-.948-.738-1.548-.15-.6-.225-1.266-.225-1.998zm17.816-2.178c-.12-.06-.273-.12-.459-.18s-.435-.09-.747-.09c-.276 0-.567.072-.873.216-.306.144-.573.372-.801.684V170h-2.754v-7.362h-1.134v-1.836h3.438l.27 1.188c.42-.48.822-.816 1.206-1.008.384-.192.828-.288 1.332-.288.204 0 .411.009.621.027.21.018.411.051.603.099l-.702 2.43zm4.838-3.672c-.54 0-.945-.156-1.215-.468-.27-.312-.405-.708-.405-1.188s.135-.882.405-1.206c.27-.324.675-.486 1.215-.486s.948.162 1.224.486c.276.324.414.726.414 1.206s-.138.876-.414 1.188c-.276.312-.684.468-1.224.468zM24.886 170h-2.754v-7.362h-1.134v-1.836h3.888V170zm9.14-6.732c-.156-.24-.357-.435-.603-.585-.246-.15-.513-.225-.801-.225-.336 0-.612.069-.828.207-.216.138-.387.336-.513.594-.126.258-.213.57-.261.936-.048.366-.072.771-.072 1.215 0 .528.036.966.108 1.314.072.348.177.624.315.828.138.204.297.345.477.423.18.078.378.117.594.117.24 0 .495-.018.765-.054.27-.036.543-.144.819-.324v-4.446zm0 6.264c-.312.168-.663.3-1.053.396-.39.096-.789.144-1.197.144-.54 0-1.032-.09-1.476-.27-.444-.18-.825-.459-1.143-.837-.318-.378-.561-.864-.729-1.458-.168-.594-.252-1.305-.252-2.133 0-1.584.306-2.796.918-3.636.612-.84 1.518-1.26 2.718-1.26.504 0 .945.087 1.323.261.378.174.759.453 1.143.837l.936-1.134 2.106 1.008-.54 1.368v6.894c0 1.428-.366 2.508-1.098 3.24-.732.732-1.902 1.098-3.51 1.098-.408 0-.768-.009-1.08-.027-.312-.018-.609-.054-.891-.108-.282-.054-.561-.132-.837-.234-.276-.102-.582-.231-.918-.387l.828-1.854c.744.42 1.608.63 2.592.63.36 0 .675-.027.945-.081.27-.054.495-.156.675-.306.18-.15.315-.363.405-.639.09-.276.135-.636.135-1.08v-.432zm7.916-9.954c-.54 0-.945-.156-1.215-.468-.27-.312-.405-.708-.405-1.188s.135-.882.405-1.206c.27-.324.675-.486 1.215-.486s.948.162 1.224.486c.276.324.414.726.414 1.206s-.138.876-.414 1.188c-.276.312-.684.468-1.224.468zM43.454 170H40.7v-7.362h-1.134v-1.836h3.888V170zm3.74-7.182l-.54-1.368 2.106-1.008.936 1.314c.492-.444.954-.768 1.386-.972.432-.204.918-.306 1.458-.306.636 0 1.152.093 1.548.279.396.186.708.45.936.792.228.342.381.747.459 1.215.078.468.117.978.117 1.53V170h-2.754v-5.31c0-.708-.084-1.218-.252-1.53-.168-.312-.522-.468-1.062-.468-.624 0-1.152.288-1.584.864V170h-2.754v-7.182zm15.242 5.526c.24 0 .498-.066.774-.198s.498-.282.666-.45v-1.8h-1.152c-.456 0-.81.078-1.062.234-.252.156-.378.492-.378 1.008 0 .456.099.771.297.945.198.174.483.261.855.261zm-.918 1.98c-.888 0-1.578-.258-2.07-.774-.492-.516-.738-1.236-.738-2.16 0-1.104.333-1.887.999-2.349.666-.462 1.671-.693 3.015-.693h1.152v-.342c0-.492-.102-.873-.306-1.143-.204-.27-.564-.405-1.08-.405-.54 0-1.023.048-1.449.144-.426.096-.831.228-1.215.396l-.702-1.746c.504-.24 1.095-.429 1.773-.567.678-.138 1.317-.207 1.917-.207.684 0 1.257.069 1.719.207.462.138.834.363 1.116.675.282.312.483.714.603 1.206s.18 1.098.18 1.818v3.654l.594 1.26-2.106 1.026-.81-1.188c-.456.396-.885.693-1.287.891-.402.198-.837.297-1.305.297zM72.746 170h-2.754v-11.412h-1.134v-1.836h3.888V170zm8.042-1.656c.504 0 .951-.039 1.341-.117.39-.078.783-.219 1.179-.423l.81 1.71c-.564.324-1.143.54-1.737.648-.594.108-1.245.162-1.953.162-1.572 0-2.697-.42-3.375-1.26-.678-.84-1.017-2.052-1.017-3.636 0-.732.093-1.401.279-2.007.186-.606.459-1.128.819-1.566.36-.438.813-.777 1.359-1.017.546-.24 1.179-.36 1.899-.36.696 0 1.293.114 1.791.342.498.228.909.558 1.233.99.324.432.561.96.711 1.584.15.624.225 1.326.225 2.106l-.702.774h-4.86c.084.744.294 1.275.63 1.593.336.318.792.477 1.368.477zm.99-3.852c0-1.356-.462-2.034-1.386-2.034-.48 0-.852.141-1.116.423-.264.282-.426.819-.486 1.611h2.988zm11.75-1.548c-.348-.18-.726-.33-1.134-.45-.408-.12-.804-.18-1.188-.18-.504 0-.852.081-1.044.243-.192.162-.288.357-.288.585 0 .18.045.327.135.441.09.114.216.216.378.306s.348.168.558.234c.21.066.435.135.675.207.324.096.654.207.99.333.336.126.645.294.927.504.282.21.51.471.684.783.174.312.261.702.261 1.17 0 .456-.066.879-.198 1.269-.132.39-.351.729-.657 1.017-.306.288-.711.513-1.215.675-.504.162-1.122.243-1.854.243s-1.428-.087-2.088-.261c-.66-.174-1.206-.393-1.638-.657l.864-1.71c.384.204.81.381 1.278.531.468.15.984.225 1.548.225.408 0 .747-.057 1.017-.171.27-.114.405-.345.405-.693 0-.192-.048-.348-.144-.468-.096-.12-.228-.222-.396-.306-.168-.084-.378-.159-.63-.225s-.528-.141-.828-.225c-.312-.084-.624-.186-.936-.306-.312-.12-.591-.282-.837-.486-.246-.204-.447-.465-.603-.783-.156-.318-.234-.717-.234-1.197 0-1.02.345-1.794 1.035-2.322s1.629-.792 2.817-.792c.564 0 1.125.075 1.683.225.558.15 1.047.333 1.467.549l-.81 1.692zm13.636 5.4c.504 0 .951-.039 1.341-.117.39-.078.783-.219 1.179-.423l.81 1.71c-.564.324-1.143.54-1.737.648-.594.108-1.245.162-1.953.162-1.572 0-2.697-.42-3.375-1.26-.678-.84-1.017-2.052-1.017-3.636 0-.732.093-1.401.279-2.007.186-.606.459-1.128.819-1.566.36-.438.813-.777 1.359-1.017.546-.24 1.179-.36 1.899-.36.696 0 1.293.114 1.791.342.498.228.909.558 1.233.99.324.432.561.96.711 1.584.15.624.225 1.326.225 2.106l-.702.774h-4.86c.084.744.294 1.275.63 1.593.336.318.792.477 1.368.477zm.99-3.852c0-1.356-.462-2.034-1.386-2.034-.48 0-.852.141-1.116.423-.264.282-.426.819-.486 1.611h2.988zm5.864-1.674l-.54-1.368 2.106-1.008.936 1.314c.492-.444.954-.768 1.386-.972.432-.204.918-.306 1.458-.306.636 0 1.152.093 1.548.279.396.186.708.45.936.792.228.342.381.747.459 1.215.078.468.117.978.117 1.53V170h-2.754v-5.31c0-.708-.084-1.218-.252-1.53-.168-.312-.522-.468-1.062-.468-.624 0-1.152.288-1.584.864V170h-2.754v-7.182zm19.9 7.182h-2.754v-11.412h-1.134v-1.836h3.888V170zm7.7-1.656c.552 0 .96-.222 1.224-.666.264-.444.396-1.2.396-2.268 0-1.032-.117-1.782-.351-2.25-.234-.468-.639-.702-1.215-.702-.564 0-.99.225-1.278.675-.288.45-.432 1.215-.432 2.295 0 1.02.132 1.761.396 2.223.264.462.684.693 1.26.693zm-4.41-2.916c0-.756.096-1.44.288-2.052.192-.612.474-1.134.846-1.566.372-.432.837-.762 1.395-.99.558-.228 1.203-.342 1.935-.342 1.488 0 2.583.42 3.285 1.26.702.84 1.053 2.046 1.053 3.618 0 .768-.09 1.458-.27 2.07-.18.612-.456 1.134-.828 1.566-.372.432-.84.762-1.404.99-.564.228-1.224.342-1.98.342-.804 0-1.479-.117-2.025-.351-.546-.234-.99-.567-1.332-.999-.342-.432-.588-.948-.738-1.548-.15-.6-.225-1.266-.225-1.998zm17.978-2.484c-.348-.18-.726-.33-1.134-.45-.408-.12-.804-.18-1.188-.18-.504 0-.852.081-1.044.243-.192.162-.288.357-.288.585 0 .18.045.327.135.441.09.114.216.216.378.306s.348.168.558.234c.21.066.435.135.675.207.324.096.654.207.99.333.336.126.645.294.927.504.282.21.51.471.684.783.174.312.261.702.261 1.17 0 .456-.066.879-.198 1.269-.132.39-.351.729-.657 1.017-.306.288-.711.513-1.215.675-.504.162-1.122.243-1.854.243s-1.428-.087-2.088-.261c-.66-.174-1.206-.393-1.638-.657l.864-1.71c.384.204.81.381 1.278.531.468.15.984.225 1.548.225.408 0 .747-.057 1.017-.171.27-.114.405-.345.405-.693 0-.192-.048-.348-.144-.468-.096-.12-.228-.222-.396-.306-.168-.084-.378-.159-.63-.225s-.528-.141-.828-.225c-.312-.084-.624-.186-.936-.306-.312-.12-.591-.282-.837-.486-.246-.204-.447-.465-.603-.783-.156-.318-.234-.717-.234-1.197 0-1.02.345-1.794 1.035-2.322s1.629-.792 2.817-.792c.564 0 1.125.075 1.683.225.558.15 1.047.333 1.467.549l-.81 1.692zm13.636 5.4c.504 0 .951-.039 1.341-.117.39-.078.783-.219 1.179-.423l.81 1.71c-.564.324-1.143.54-1.737.648-.594.108-1.245.162-1.953.162-1.572 0-2.697-.42-3.375-1.26-.678-.84-1.017-2.052-1.017-3.636 0-.732.093-1.401.279-2.007.186-.606.459-1.128.819-1.566.36-.438.813-.777 1.359-1.017.546-.24 1.179-.36 1.899-.36.696 0 1.293.114 1.791.342.498.228.909.558 1.233.99.324.432.561.96.711 1.584.15.624.225 1.326.225 2.106l-.702.774h-4.86c.084.744.294 1.275.63 1.593.336.318.792.477 1.368.477zm.99-3.852c0-1.356-.462-2.034-1.386-2.034-.48 0-.852.141-1.116.423-.264.282-.426.819-.486 1.611h2.988zm11.75-1.548c-.348-.18-.726-.33-1.134-.45-.408-.12-.804-.18-1.188-.18-.504 0-.852.081-1.044.243-.192.162-.288.357-.288.585 0 .18.045.327.135.441.09.114.216.216.378.306s.348.168.558.234c.21.066.435.135.675.207.324.096.654.207.99.333.336.126.645.294.927.504.282.21.51.471.684.783.174.312.261.702.261 1.17 0 .456-.066.879-.198 1.269-.132.39-.351.729-.657 1.017-.306.288-.711.513-1.215.675-.504.162-1.122.243-1.854.243s-1.428-.087-2.088-.261c-.66-.174-1.206-.393-1.638-.657l.864-1.71c.384.204.81.381 1.278.531.468.15.984.225 1.548.225.408 0 .747-.057 1.017-.171.27-.114.405-.345.405-.693 0-.192-.048-.348-.144-.468-.096-.12-.228-.222-.396-.306-.168-.084-.378-.159-.63-.225s-.528-.141-.828-.225c-.312-.084-.624-.186-.936-.306-.312-.12-.591-.282-.837-.486-.246-.204-.447-.465-.603-.783-.156-.318-.234-.717-.234-1.197 0-1.02.345-1.794 1.035-2.322s1.629-.792 2.817-.792c.564 0 1.125.075 1.683.225.558.15 1.047.333 1.467.549l-.81 1.692zm3.272-2.142h1.602v-2.628h2.664v2.628h2.61v1.944h-2.61v3.726c0 .324.009.603.027.837.018.234.06.423.126.567.066.144.168.252.306.324.138.072.333.108.585.108.264 0 .522-.039.774-.117.252-.078.48-.165.684-.261l.612 1.71c-.36.168-.753.324-1.179.468-.426.144-.891.216-1.395.216-.636 0-1.167-.063-1.593-.189-.426-.126-.765-.336-1.017-.63-.252-.294-.429-.681-.531-1.161-.102-.48-.153-1.074-.153-1.782v-3.816h-1.512v-1.944zm13.154 7.542c.24 0 .498-.066.774-.198s.498-.282.666-.45v-1.8h-1.152c-.456 0-.81.078-1.062.234-.252.156-.378.492-.378 1.008 0 .456.099.771.297.945.198.174.483.261.855.261zm-.918 1.98c-.888 0-1.578-.258-2.07-.774-.492-.516-.738-1.236-.738-2.16 0-1.104.333-1.887.999-2.349.666-.462 1.671-.693 3.015-.693h1.152v-.342c0-.492-.102-.873-.306-1.143-.204-.27-.564-.405-1.08-.405-.54 0-1.023.048-1.449.144-.426.096-.831.228-1.215.396l-.702-1.746c.504-.24 1.095-.429 1.773-.567.678-.138 1.317-.207 1.917-.207.684 0 1.257.069 1.719.207.462.138.834.363 1.116.675.282.312.483.714.603 1.206s.18 1.098.18 1.818v3.654l.594 1.26-2.106 1.026-.81-1.188c-.456.396-.885.693-1.287.891-.402.198-.837.297-1.305.297zm8.474-13.572h2.754v4.284c.312-.168.63-.303.954-.405.324-.102.69-.153 1.098-.153 1.152 0 2.061.414 2.727 1.242.666.828.999 2.064.999 3.708 0 .612-.087 1.209-.261 1.791-.174.582-.453 1.104-.837 1.566-.384.462-.891.834-1.521 1.116-.63.282-1.401.423-2.313.423-.636 0-1.269-.039-1.899-.117-.63-.078-1.197-.189-1.701-.333v-13.122zm3.69 11.628c.396 0 .729-.072.999-.216.27-.144.483-.348.639-.612.156-.264.267-.582.333-.954s.099-.786.099-1.242c0-.612-.042-1.107-.126-1.485-.084-.378-.198-.672-.342-.882-.144-.21-.315-.351-.513-.423-.198-.072-.411-.108-.639-.108-.24 0-.462.021-.666.063-.204.042-.444.153-.72.333v5.382c.132.06.297.099.495.117.198.018.345.027.441.027zM220.12 170h-2.754v-11.412h-1.134v-1.836h3.888V170zm8.042-1.656c.504 0 .951-.039 1.341-.117.39-.078.783-.219 1.179-.423l.81 1.71c-.564.324-1.143.54-1.737.648-.594.108-1.245.162-1.953.162-1.572 0-2.697-.42-3.375-1.26-.678-.84-1.017-2.052-1.017-3.636 0-.732.093-1.401.279-2.007.186-.606.459-1.128.819-1.566.36-.438.813-.777 1.359-1.017.546-.24 1.179-.36 1.899-.36.696 0 1.293.114 1.791.342.498.228.909.558 1.233.99.324.432.561.96.711 1.584.15.624.225 1.326.225 2.106l-.702.774h-4.86c.084.744.294 1.275.63 1.593.336.318.792.477 1.368.477zm.99-3.852c0-1.356-.462-2.034-1.386-2.034-.48 0-.852.141-1.116.423-.264.282-.426.819-.486 1.611h2.988zm12.938 5.076c-.468.276-.966.471-1.494.585-.528.114-1.098.171-1.71.171-.792 0-1.461-.105-2.007-.315-.546-.21-.99-.522-1.332-.936-.342-.414-.591-.927-.747-1.539-.156-.612-.234-1.314-.234-2.106 0-1.572.399-2.79 1.197-3.654.798-.864 1.935-1.296 3.411-1.296.588 0 1.095.054 1.521.162.426.108.849.282 1.269.522l-.81 1.764c-.24-.132-.498-.243-.774-.333-.276-.09-.642-.135-1.098-.135-.612 0-1.092.231-1.44.693-.348.462-.522 1.221-.522 2.277 0 1.02.165 1.761.495 2.223.33.462.807.693 1.431.693.42 0 .786-.042 1.098-.126.312-.084.624-.204.936-.36l.81 1.71zm4.352-9.99c-.54 0-.945-.156-1.215-.468-.27-.312-.405-.708-.405-1.188s.135-.882.405-1.206c.27-.324.675-.486 1.215-.486s.948.162 1.224.486c.276.324.414.726.414 1.206s-.138.876-.414 1.188c-.276.312-.684.468-1.224.468zM247.954 170H245.2v-7.362h-1.134v-1.836h3.888V170zm3.74-7.182l-.54-1.368 2.106-1.008.936 1.314c.492-.444.957-.768 1.395-.972.438-.204.861-.306 1.269-.306.672 0 1.2.114 1.584.342.384.228.672.546.864.954.456-.408.921-.726 1.395-.954.474-.228.951-.342 1.431-.342.612 0 1.104.093 1.476.279.372.186.663.45.873.792.21.342.351.747.423 1.215.072.468.108.978.108 1.53V170h-2.754v-5.31c0-.348-.012-.648-.036-.9-.024-.252-.075-.459-.153-.621-.078-.162-.192-.282-.342-.36-.15-.078-.351-.117-.603-.117-.24 0-.489.084-.747.252-.258.168-.483.372-.675.612.012.12.021.24.027.36.006.12.009.246.009.378V170h-2.754v-5.31c0-.348-.012-.648-.036-.9-.024-.252-.075-.459-.153-.621-.078-.162-.192-.282-.342-.36-.15-.078-.351-.117-.603-.117-.216 0-.453.075-.711.225-.258.15-.489.363-.693.639V170h-2.754v-7.182zm18.392-3.24c-.54 0-.945-.156-1.215-.468-.27-.312-.405-.708-.405-1.188s.135-.882.405-1.206c.27-.324.675-.486 1.215-.486s.948.162 1.224.486c.276.324.414.726.414 1.206s-.138.876-.414 1.188c-.276.312-.684.468-1.224.468zM271.598 170h-2.754v-7.362h-1.134v-1.836h3.888V170zm8.042-1.656c.504 0 .951-.039 1.341-.117.39-.078.783-.219 1.179-.423l.81 1.71c-.564.324-1.143.54-1.737.648-.594.108-1.245.162-1.953.162-1.572 0-2.697-.42-3.375-1.26-.678-.84-1.017-2.052-1.017-3.636 0-.732.093-1.401.279-2.007.186-.606.459-1.128.819-1.566.36-.438.813-.777 1.359-1.017.546-.24 1.179-.36 1.899-.36.696 0 1.293.114 1.791.342.498.228.909.558 1.233.99.324.432.561.96.711 1.584.15.624.225 1.326.225 2.106l-.702.774h-4.86c.084.744.294 1.275.63 1.593.336.318.792.477 1.368.477zm.99-3.852c0-1.356-.462-2.034-1.386-2.034-.48 0-.852.141-1.116.423-.264.282-.426.819-.486 1.611h2.988zm5.864-1.674l-.54-1.368 2.106-1.008.936 1.314c.492-.444.954-.768 1.386-.972.432-.204.918-.306 1.458-.306.636 0 1.152.093 1.548.279.396.186.708.45.936.792.228.342.381.747.459 1.215.078.468.117.978.117 1.53V170h-2.754v-5.31c0-.708-.084-1.218-.252-1.53-.168-.312-.522-.468-1.062-.468-.624 0-1.152.288-1.584.864V170h-2.754v-7.182zm11.084-2.016h1.602v-2.628h2.664v2.628h2.61v1.944h-2.61v3.726c0 .324.009.603.027.837.018.234.06.423.126.567.066.144.168.252.306.324.138.072.333.108.585.108.264 0 .522-.039.774-.117.252-.078.48-.165.684-.261l.612 1.71c-.36.168-.753.324-1.179.468-.426.144-.891.216-1.395.216-.636 0-1.167-.063-1.593-.189-.426-.126-.765-.336-1.017-.63-.252-.294-.429-.681-.531-1.161-.102-.48-.153-1.074-.153-1.782v-3.816h-1.512v-1.944zm13.55 7.542c.552 0 .96-.222 1.224-.666.264-.444.396-1.2.396-2.268 0-1.032-.117-1.782-.351-2.25-.234-.468-.639-.702-1.215-.702-.564 0-.99.225-1.278.675-.288.45-.432 1.215-.432 2.295 0 1.02.132 1.761.396 2.223.264.462.684.693 1.26.693zm-4.41-2.916c0-.756.096-1.44.288-2.052.192-.612.474-1.134.846-1.566.372-.432.837-.762 1.395-.99.558-.228 1.203-.342 1.935-.342 1.488 0 2.583.42 3.285 1.26.702.84 1.053 2.046 1.053 3.618 0 .768-.09 1.458-.27 2.07-.18.612-.456 1.134-.828 1.566-.372.432-.84.762-1.404.99-.564.228-1.224.342-1.98.342-.804 0-1.479-.117-2.025-.351-.546-.234-.99-.567-1.332-.999-.342-.432-.588-.948-.738-1.548-.15-.6-.225-1.266-.225-1.998zm17.978-2.484c-.348-.18-.726-.33-1.134-.45-.408-.12-.804-.18-1.188-.18-.504 0-.852.081-1.044.243-.192.162-.288.357-.288.585 0 .18.045.327.135.441.09.114.216.216.378.306s.348.168.558.234c.21.066.435.135.675.207.324.096.654.207.99.333.336.126.645.294.927.504.282.21.51.471.684.783.174.312.261.702.261 1.17 0 .456-.066.879-.198 1.269-.132.39-.351.729-.657 1.017-.306.288-.711.513-1.215.675-.504.162-1.122.243-1.854.243s-1.428-.087-2.088-.261c-.66-.174-1.206-.393-1.638-.657l.864-1.71c.384.204.81.381 1.278.531.468.15.984.225 1.548.225.408 0 .747-.057 1.017-.171.27-.114.405-.345.405-.693 0-.192-.048-.348-.144-.468-.096-.12-.228-.222-.396-.306-.168-.084-.378-.159-.63-.225s-.528-.141-.828-.225c-.312-.084-.624-.186-.936-.306-.312-.12-.591-.282-.837-.486-.246-.204-.447-.465-.603-.783-.156-.318-.234-.717-.234-1.197 0-1.02.345-1.794 1.035-2.322s1.629-.792 2.817-.792c.564 0 1.125.075 1.683.225.558.15 1.047.333 1.467.549l-.81 1.692zm12.52 5.4c.24 0 .498-.066.774-.198s.498-.282.666-.45v-1.8h-1.152c-.456 0-.81.078-1.062.234-.252.156-.378.492-.378 1.008 0 .456.099.771.297.945.198.174.483.261.855.261zm-.918 1.98c-.888 0-1.578-.258-2.07-.774-.492-.516-.738-1.236-.738-2.16 0-1.104.333-1.887.999-2.349.666-.462 1.671-.693 3.015-.693h1.152v-.342c0-.492-.102-.873-.306-1.143-.204-.27-.564-.405-1.08-.405-.54 0-1.023.048-1.449.144-.426.096-.831.228-1.215.396l-.702-1.746c.504-.24 1.095-.429 1.773-.567.678-.138 1.317-.207 1.917-.207.684 0 1.257.069 1.719.207.462.138.834.363 1.116.675.282.312.483.714.603 1.206s.18 1.098.18 1.818v3.654l.594 1.26-2.106 1.026-.81-1.188c-.456.396-.885.693-1.287.891-.402.198-.837.297-1.305.297zm16.592-2.304l.594 1.278-2.214 1.08-.828-1.134c-.444.396-.882.675-1.314.837-.432.162-.864.243-1.296.243-1.14 0-1.95-.294-2.43-.882-.48-.588-.72-1.458-.72-2.61v-6.03h2.754v5.526c0 .684.09 1.158.27 1.422.18.264.516.396 1.008.396.288 0 .561-.054.819-.162.258-.108.459-.246.603-.414v-6.768h2.754v7.218zm2.822-7.218h1.602v-2.628h2.664v2.628h2.61v1.944h-2.61v3.726c0 .324.009.603.027.837.018.234.06.423.126.567.066.144.168.252.306.324.138.072.333.108.585.108.264 0 .522-.039.774-.117.252-.078.48-.165.684-.261l.612 1.71c-.36.168-.753.324-1.179.468-.426.144-.891.216-1.395.216-.636 0-1.167-.063-1.593-.189-.426-.126-.765-.336-1.017-.63-.252-.294-.429-.681-.531-1.161-.102-.48-.153-1.074-.153-1.782v-3.816h-1.512v-1.944zm13.55 7.542c.552 0 .96-.222 1.224-.666.264-.444.396-1.2.396-2.268 0-1.032-.117-1.782-.351-2.25-.234-.468-.639-.702-1.215-.702-.564 0-.99.225-1.278.675-.288.45-.432 1.215-.432 2.295 0 1.02.132 1.761.396 2.223.264.462.684.693 1.26.693zm-4.41-2.916c0-.756.096-1.44.288-2.052.192-.612.474-1.134.846-1.566.372-.432.837-.762 1.395-.99.558-.228 1.203-.342 1.935-.342 1.488 0 2.583.42 3.285 1.26.702.84 1.053 2.046 1.053 3.618 0 .768-.09 1.458-.27 2.07-.18.612-.456 1.134-.828 1.566-.372.432-.84.762-1.404.99-.564.228-1.224.342-1.98.342-.804 0-1.479-.117-2.025-.351-.546-.234-.99-.567-1.332-.999-.342-.432-.588-.948-.738-1.548-.15-.6-.225-1.266-.225-1.998zm17.816-2.178c-.12-.06-.273-.12-.459-.18s-.435-.09-.747-.09c-.276 0-.567.072-.873.216-.306.144-.573.372-.801.684V170h-2.754v-7.362H375.9v-1.836h3.438l.27 1.188c.42-.48.822-.816 1.206-1.008.384-.192.828-.288 1.332-.288.204 0 .411.009.621.027.21.018.411.051.603.099l-.702 2.43zm4.838-3.672c-.54 0-.945-.156-1.215-.468-.27-.312-.405-.708-.405-1.188s.135-.882.405-1.206c.27-.324.675-.486 1.215-.486s.948.162 1.224.486c.276.324.414.726.414 1.206s-.138.876-.414 1.188c-.276.312-.684.468-1.224.468zM389.018 170h-2.754v-7.362h-1.134v-1.836h3.888V170zm3.29-7.272v-1.926h7.236v1.746l-3.744 4.896c-.06.084-.108.153-.144.207-.036.054-.054.117-.054.189 0 .096.024.159.072.189.048.03.12.045.216.045h3.816V170h-6.246c-.504 0-.855-.108-1.053-.324-.198-.216-.297-.498-.297-.846 0-.228.036-.441.108-.639.072-.198.21-.429.414-.693l3.672-4.77h-3.996zm13.802 5.616c.24 0 .498-.066.774-.198s.498-.282.666-.45v-1.8h-1.152c-.456 0-.81.078-1.062.234-.252.156-.378.492-.378 1.008 0 .456.099.771.297.945.198.174.483.261.855.261zm-.918 1.98c-.888 0-1.578-.258-2.07-.774-.492-.516-.738-1.236-.738-2.16 0-1.104.333-1.887.999-2.349.666-.462 1.671-.693 3.015-.693h1.152v-.342c0-.492-.102-.873-.306-1.143-.204-.27-.564-.405-1.08-.405-.54 0-1.023.048-1.449.144-.426.096-.831.228-1.215.396l-.702-1.746c.504-.24 1.095-.429 1.773-.567.678-.138 1.317-.207 1.917-.207.684 0 1.257.069 1.719.207.462.138.834.363 1.116.675.282.312.483.714.603 1.206s.18 1.098.18 1.818v3.654l.594 1.26-2.106 1.026-.81-1.188c-.456.396-.885.693-1.287.891-.402.198-.837.297-1.305.297zm13.946-13.572h2.754V168.2l.522 1.152-2.142 1.008-.828-1.224c-.396.36-.81.648-1.242.864-.432.216-.918.324-1.458.324-1.2 0-2.088-.429-2.664-1.287-.576-.858-.864-2.079-.864-3.663 0-.744.096-1.416.288-2.016.192-.6.477-1.113.855-1.539.378-.426.843-.756 1.395-.99.552-.234 1.188-.351 1.908-.351.24 0 .486.024.738.072.252.048.498.114.738.198v-3.996zm-1.17 5.706c-.66 0-1.155.222-1.485.666-.33.444-.495 1.2-.495 2.268 0 1.104.138 1.872.414 2.304.276.432.654.648 1.134.648.372 0 .687-.105.945-.315.258-.21.477-.429.657-.657v-4.662c-.192-.084-.378-.147-.558-.189-.18-.042-.384-.063-.612-.063zm11.624 5.886c.552 0 .96-.222 1.224-.666.264-.444.396-1.2.396-2.268 0-1.032-.117-1.782-.351-2.25-.234-.468-.639-.702-1.215-.702-.564 0-.99.225-1.278.675-.288.45-.432 1.215-.432 2.295 0 1.02.132 1.761.396 2.223.264.462.684.693 1.26.693zm-4.41-2.916c0-.756.096-1.44.288-2.052.192-.612.474-1.134.846-1.566.372-.432.837-.762 1.395-.99.558-.228 1.203-.342 1.935-.342 1.488 0 2.583.42 3.285 1.26.702.84 1.053 2.046 1.053 3.618 0 .768-.09 1.458-.27 2.07-.18.612-.456 1.134-.828 1.566-.372.432-.84.762-1.404.99-.564.228-1.224.342-1.98.342-.804 0-1.479-.117-2.025-.351-.546-.234-.99-.567-1.332-.999-.342-.432-.588-.948-.738-1.548-.15-.6-.225-1.266-.225-1.998zm17.978-2.484c-.348-.18-.726-.33-1.134-.45-.408-.12-.804-.18-1.188-.18-.504 0-.852.081-1.044.243-.192.162-.288.357-.288.585 0 .18.045.327.135.441.09.114.216.216.378.306s.348.168.558.234c.21.066.435.135.675.207.324.096.654.207.99.333.336.126.645.294.927.504.282.21.51.471.684.783.174.312.261.702.261 1.17 0 .456-.066.879-.198 1.269-.132.39-.351.729-.657 1.017-.306.288-.711.513-1.215.675-.504.162-1.122.243-1.854.243s-1.428-.087-2.088-.261c-.66-.174-1.206-.393-1.638-.657l.864-1.71c.384.204.81.381 1.278.531.468.15.984.225 1.548.225.408 0 .747-.057 1.017-.171.27-.114.405-.345.405-.693 0-.192-.048-.348-.144-.468-.096-.12-.228-.222-.396-.306-.168-.084-.378-.159-.63-.225s-.528-.141-.828-.225c-.312-.084-.624-.186-.936-.306-.312-.12-.591-.282-.837-.486-.246-.204-.447-.465-.603-.783-.156-.318-.234-.717-.234-1.197 0-1.02.345-1.794 1.035-2.322s1.629-.792 2.817-.792c.564 0 1.125.075 1.683.225.558.15 1.047.333 1.467.549l-.81 1.692zm5.27 7.38c-.54 0-.945-.159-1.215-.477-.27-.318-.405-.723-.405-1.215 0-.492.135-.903.405-1.233.27-.33.675-.495 1.215-.495.552 0 .963.165 1.233.495.27.33.405.741.405 1.233 0 .492-.135.897-.405 1.215-.27.318-.681.477-1.233.477z"/><g transform="translate(0 216)"><path fill="#E30621" d="M72.833 88.982H16.149C7.267 88.982 0 81.715 0 72.833V16.149C0 7.267 7.267 0 16.15 0h56.683c8.882 0 16.149 7.267 16.149 16.15v56.683c0 8.882-7.267 16.149-16.15 16.149"/><path fill="#FEFEFE" d="M18.99 77.437c-.13.061-.256.115-.378.162-.121.046-.247.086-.377.118-.13.033-.265.057-.405.073-.14.017-.293.025-.46.025-.4 0-.74-.058-1.019-.174-.277-.115-.502-.276-.675-.48-.173-.205-.298-.448-.377-.728-.08-.28-.12-.584-.12-.913 0-.328.05-.631.147-.91.097-.277.241-.518.432-.72.19-.204.428-.362.712-.475.284-.114.613-.17.986-.17.304 0 .573.03.806.09.233.062.454.137.66.226l-.28.736c-.145-.06-.274-.108-.386-.143-.111-.034-.214-.06-.307-.079-.093-.018-.18-.03-.262-.036-.081-.007-.164-.01-.25-.01-.417 0-.738.13-.961.387-.223.258-.334.626-.334 1.104 0 .512.111.891.334 1.139.223.247.542.37.955.37.118 0 .226-.005.323-.018.098-.012.194-.03.289-.054.096-.025.196-.056.302-.095.105-.038.227-.086.365-.143l.28.718zm.888-4.114h.913v2.441c0 .199.01.377.033.535.023.159.067.292.134.402.067.11.16.194.277.253.118.059.274.088.469.088.19 0 .344-.03.462-.088.118-.06.21-.142.277-.25.067-.107.112-.238.134-.392.022-.155.033-.327.033-.518v-2.47h.92v2.489c0 .292-.026.56-.077.806-.05.246-.144.456-.28.633-.136.176-.322.314-.56.414-.237.099-.54.149-.91.149-.377 0-.684-.045-.921-.134-.237-.09-.423-.217-.557-.384-.134-.166-.225-.368-.274-.605-.049-.237-.073-.504-.073-.8v-2.569z"/><mask id="b" fill="#fff"><use xlink:href="#a"/></mask><path fill="#FEFEFE" d="M24.667 77.711h.925v-4.388h-.925zm3.853-.772c.401 0 .71-.111.927-.332.217-.221.326-.58.326-1.074 0-.5-.11-.864-.329-1.093-.219-.229-.527-.344-.925-.344h-.858v2.843h.858zm-1.771-3.616h1.813c.345 0 .652.053.922.159.27.105.497.253.681.444.185.19.326.42.424.688.097.268.146.564.146.888 0 .32-.044.616-.131.886-.088.27-.22.503-.399.7-.178.197-.405.35-.678.459-.274.11-.596.164-.965.164H26.75v-4.388zm7.326 2.367l-.413-1.466c-.024-.08-.055-.135-.092-.161-.036-.027-.078-.04-.127-.04-.053 0-.097.015-.131.043-.035.028-.064.081-.088.158l-.439 1.467h1.29zm-1.734-1.582c.04-.137.09-.26.15-.368.058-.107.131-.197.218-.27.088-.074.194-.13.32-.168.125-.038.274-.057.444-.057.167 0 .308.017.426.054s.217.09.298.161c.081.071.15.158.204.26.055.1.102.216.143.346l1.065 3.536-.913.2-.395-1.338h-1.729l-.401 1.338-.889-.2 1.06-3.494zm6.566-.012h-1.308v-.773h3.53v.773H39.82v3.615h-.913zm3.019-.773h.912v2.441c0 .199.012.377.034.535.023.159.067.292.134.402.067.11.16.194.277.253.118.059.274.088.469.088.19 0 .345-.03.462-.088.117-.06.21-.142.277-.25.067-.107.111-.238.134-.392.022-.155.033-.327.033-.518v-2.47h.92v2.489c0 .292-.026.56-.077.806-.05.246-.144.456-.28.633-.136.176-.322.314-.56.414-.237.099-.54.149-.91.149-.377 0-.684-.045-.921-.134-.238-.09-.423-.217-.557-.384-.134-.166-.226-.368-.274-.605-.049-.237-.073-.504-.073-.8v-2.569zm7.278.773h-1.308v-.773h3.529v.773h-1.308v3.615h-.913zm4.327 2.812c.142.077.316.116.523.116.203 0 .378-.04.524-.12.146-.078.267-.185.362-.319.095-.134.165-.292.21-.474.044-.183.067-.378.067-.584 0-.207-.023-.401-.067-.582-.045-.18-.115-.338-.21-.474-.095-.136-.216-.243-.362-.32-.146-.077-.32-.115-.524-.115-.203 0-.377.038-.523.115-.146.077-.267.184-.362.32-.096.136-.166.294-.21.474-.045.181-.067.375-.067.582 0 .316.052.595.156.837.103.24.264.422.483.544m-1.132.207c-.17-.22-.291-.466-.362-.74-.071-.273-.106-.556-.106-.848 0-.293.04-.575.118-.85.08-.273.205-.516.378-.73.172-.213.392-.383.66-.51.268-.129.59-.193.967-.193.394 0 .726.064.995.192.27.128.488.298.654.511.167.214.288.457.363.73.075.275.112.557.112.85 0 .292-.04.576-.119.852-.079.276-.204.52-.377.733-.172.213-.392.383-.66.511s-.59.192-.968.192c-.393 0-.725-.064-.994-.192-.27-.128-.49-.297-.661-.508m5.751-.882c-.166-.057-.3-.152-.398-.284-.1-.131-.198-.305-.296-.52l-.827-1.832.815-.34.92 1.977c.044.094.085.155.124.183.038.028.084.042.137.042.06 0 .11-.015.146-.045.036-.03.077-.092.121-.186l.926-1.971.815.328-.834 1.795c-.1.22-.205.4-.31.54-.106.139-.246.242-.42.306v1.485h-.919v-1.478zm4.534.675c.142.077.316.116.523.116.203 0 .378-.04.524-.12.146-.078.267-.185.362-.319.095-.134.165-.292.21-.474.044-.183.066-.378.066-.584 0-.207-.022-.401-.066-.582-.045-.18-.115-.338-.21-.474-.095-.136-.216-.243-.362-.32-.146-.077-.32-.115-.524-.115-.203 0-.377.038-.523.115-.146.077-.267.184-.362.32-.096.136-.166.294-.21.474-.045.181-.067.375-.067.582 0 .316.052.595.155.837.104.24.265.422.484.544m-1.132.207c-.17-.22-.291-.466-.362-.74-.071-.273-.107-.556-.107-.848 0-.293.04-.575.12-.85.078-.273.204-.516.376-.73.173-.213.393-.383.66-.51.268-.129.59-.193.968-.193.394 0 .725.064.995.192s.488.298.654.511c.167.214.287.457.363.73.075.275.112.557.112.85 0 .292-.04.576-.119.852-.079.276-.205.52-.377.733-.172.213-.392.383-.66.511s-.59.192-.968.192c-.394 0-.725-.064-.995-.192s-.49-.297-.66-.508m5.593-3.019h-1.309v-.773h3.53v.773h-1.309v3.615h-.912zm5.124 1.594l-.414-1.466c-.024-.08-.055-.135-.092-.161-.036-.027-.078-.04-.127-.04-.053 0-.096.015-.131.043-.035.028-.064.081-.088.158l-.438 1.467h1.29zm-1.735-1.582c.04-.137.09-.26.15-.368.058-.107.131-.197.218-.27.088-.074.194-.13.32-.168.125-.038.274-.057.444-.057.167 0 .309.017.426.054.118.037.217.09.299.161.08.071.148.158.203.26.055.1.103.216.143.346l1.065 3.536-.913.2-.395-1.338h-1.728l-.402 1.338-.889-.2 1.06-3.494zM17.222 18.364c.352.419.812.746 1.38.983.567.237 1.262.355 2.081.355.34 0 .653-.018.94-.051.285-.034.562-.082.827-.15.264-.066.522-.145.771-.242.247-.094.506-.204.77-.328l-.571-1.469c-.282.119-.531.216-.747.295-.215.079-.42.142-.615.19-.195.05-.391.089-.59.113-.2.024-.419.036-.66.036-.845 0-1.496-.251-1.952-.758-.455-.504-.683-1.278-.683-2.325 0-.977.228-1.73.683-2.255.456-.525 1.111-.79 1.966-.79.173 0 .343.007.508.02.167.011.345.036.536.075.19.036.399.091.627.16.227.07.491.167.79.292l.57-1.502c-.421-.185-.87-.337-1.347-.462-.478-.124-1.026-.185-1.648-.185-.762 0-1.434.115-2.014.346-.58.234-1.065.556-1.454.971-.39.413-.684.905-.883 1.472-.198.568-.299 1.187-.299 1.858 0 .674.082 1.293.243 1.867.163.57.419 1.065.771 1.484m10.151-4.526c.091-.367.234-.692.428-.968.196-.28.441-.495.74-.653.298-.157.655-.236 1.069-.236.414 0 .77.079 1.07.236.297.158.544.374.739.653.194.276.338.601.429.968.091.37.137.765.137 1.19 0 .422-.046.82-.137 1.193-.09.373-.235.695-.43.968-.194.273-.44.492-.738.653-.3.164-.656.242-1.07.242-.422 0-.779-.078-1.068-.236-.448-.25-.777-.62-.989-1.111-.212-.495-.317-1.062-.317-1.71 0-.424.046-.818.137-1.189m-1.144 4.435c.347.43.798.777 1.349 1.038.55.26 1.229.39 2.032.39.77 0 1.43-.13 1.977-.39.547-.261.996-.61 1.35-1.045.351-.437.608-.934.77-1.499.161-.564.242-1.144.242-1.74 0-.597-.076-1.176-.23-1.735-.153-.559-.4-1.056-.74-1.49-.34-.437-.785-.783-1.336-1.044-.552-.261-1.229-.392-2.033-.392-.771 0-1.43.13-1.976.392-.548.26-.997.607-1.349 1.044-.352.434-.609.931-.771 1.49-.16.559-.243 1.138-.243 1.736 0 .595.073 1.175.219 1.733.144.558.391 1.062.739 1.512m11.524-4.24l.908 1.602c.256.465.51.783.758.953.248.17.522.255.82.255.29 0 .565-.082.82-.243.257-.163.518-.48.784-.953l.946-1.627v5.47h1.827v-8.963h-1.68l-2.3 4.128c-.065.115-.12.197-.166.242-.046.046-.102.067-.169.067-.067 0-.121-.021-.167-.067-.045-.045-.102-.127-.169-.242l-2.324-4.128H35.9v8.963h1.853v-5.457zm11.053-1.976h1.329c.199 0 .39.015.572.048.182.033.346.1.492.207.144.103.257.246.341.434.084.185.124.428.124.728 0 .264-.043.483-.13.659-.086.173-.203.312-.348.422-.145.106-.31.182-.491.224-.182.04-.364.061-.547.061h-1.342v-2.783zm0 4.35h1.503c.465 0 .896-.068 1.293-.204.398-.137.742-.334 1.032-.586.29-.252.518-.562.685-.926.165-.364.247-.774.247-1.232 0-.522-.085-.968-.255-1.341-.17-.374-.4-.678-.689-.914-.29-.237-.628-.407-1.014-.516-.385-.106-.793-.161-1.224-.161h-3.432v8.963h1.854v-3.084zm8.539-4.35h1.206c.232 0 .443.015.633.048.191.033.354.097.486.191.132.097.237.231.31.401.075.17.112.385.112.653 0 .422-.138.74-.416.956-.278.215-.653.321-1.125.321h-1.206v-2.57zm0 4.124h.447c.125 0 .237.016.336.04.1.024.199.073.299.143.099.07.206.163.323.279.116.115.249.26.398.434l2.212 2.598 1.43-1.032-1.976-2.298c-.124-.148-.243-.279-.355-.385-.112-.11-.238-.194-.38-.261.25-.085.489-.204.721-.361.232-.158.436-.35.61-.571.175-.224.313-.476.416-.759.103-.282.156-.585.156-.907 0-.483-.078-.887-.236-1.214-.158-.328-.375-.592-.653-.795-.278-.204-.605-.35-.982-.435-.377-.087-.781-.13-1.212-.13h-3.42v8.963h1.866v-3.31zm10.556-3.815c.049-.158.11-.264.179-.324.071-.058.16-.086.267-.086.1 0 .187.028.261.08.076.054.138.164.187.33l.845 2.996h-2.634l.895-2.996zm-1.33 4.574h3.53l.808 2.735 1.865-.41-2.176-7.223c-.082-.265-.181-.502-.292-.708-.112-.206-.252-.382-.417-.528-.166-.146-.369-.255-.609-.33-.241-.073-.53-.11-.87-.11-.348 0-.65.04-.908.116-.257.078-.474.194-.653.342-.177.15-.326.334-.447.553-.12.222-.222.47-.304.752l-2.164 7.136 1.815.41.821-2.735zm-51.462 5.578h58.765v-1.421H15.109zm4.267 9.146c.277.15.617.225 1.019.225.395 0 .735-.077 1.019-.23.284-.155.519-.362.704-.623.186-.26.322-.568.41-.924.086-.355.13-.734.13-1.137 0-.402-.044-.78-.13-1.13-.088-.352-.224-.66-.41-.925-.185-.264-.42-.471-.704-.621-.284-.15-.624-.225-1.019-.225-.395 0-.734.075-1.019.225-.284.15-.519.357-.704.621-.186.265-.322.573-.409.925-.087.35-.13.728-.13 1.13 0 .616.1 1.16.302 1.63.201.47.515.822.941 1.06m-2.203.402c-.331-.427-.566-.906-.704-1.44-.139-.532-.207-1.083-.207-1.652 0-.568.076-1.119.23-1.652.154-.533.399-1.006.735-1.421.335-.415.764-.746 1.285-.995.521-.249 1.149-.373 1.883-.373.766 0 1.411.124 1.937.373.525.249.95.58 1.273.995.324.415.559.888.705 1.421.146.533.219 1.084.219 1.652 0 .569-.077 1.122-.23 1.659-.155.537-.4 1.012-.736 1.427-.335.414-.763.746-1.285.995-.52.249-1.148.373-1.883.373-.766 0-1.411-.124-1.937-.373-.525-.249-.953-.578-1.285-.99m11.418-3.47c.45 0 .807-.102 1.072-.308.265-.205.397-.509.397-.912 0-.252-.036-.46-.107-.621-.07-.162-.17-.289-.296-.38-.126-.09-.28-.151-.462-.183-.182-.031-.383-.048-.604-.048h-1.149v2.452h1.15zm-2.926-3.908h3.258c.41 0 .795.041 1.155.124.359.083.67.221.935.415.265.193.472.446.622.758.15.312.225.697.225 1.155 0 .307-.05.596-.148.864-.099.269-.23.51-.397.723-.165.213-.359.395-.58.544-.221.15-.45.265-.687.344.134.063.255.146.361.249.107.102.22.225.338.367l1.883 2.191-1.362.983-2.108-2.475c-.143-.166-.269-.304-.38-.415-.11-.11-.212-.199-.307-.266s-.19-.113-.285-.137c-.094-.023-.201-.035-.32-.035h-.426v3.15h-1.777v-8.54zm7.843 8.54h1.801v-8.54h-1.801zm7.21-4.833h3.554v4.039c-.206.142-.443.275-.71.397-.27.123-.554.227-.854.314-.3.086-.614.155-.941.207-.328.051-.654.077-.978.077-.805 0-1.482-.113-2.031-.337-.549-.225-.99-.537-1.326-.936-.336-.399-.577-.87-.723-1.416-.146-.545-.22-1.137-.22-1.776 0-.64.101-1.23.303-1.771.201-.54.495-1.009.882-1.404.387-.394.865-.702 1.434-.924.568-.22 1.215-.331 1.942-.331.592 0 1.123.06 1.593.177.47.119.906.265 1.309.439l-.545 1.433c-.284-.119-.537-.211-.758-.278-.221-.068-.426-.119-.616-.155-.19-.035-.365-.059-.527-.07-.162-.012-.326-.018-.491-.018-.814 0-1.46.25-1.937.752-.478.501-.717 1.218-.717 2.15 0 .994.21 1.731.628 2.209.418.478 1.019.716 1.8.716.356 0 .68-.033.972-.1.292-.067.533-.153.722-.255V29.91h-1.765v-1.516zm5.102 4.833h1.8v-8.54h-1.8zm3.366-8.54h1.812l3.672 6.372v-6.372h1.717v6.55c0 .197-.01.404-.03.622-.02.217-.045.38-.076.491-.064.213-.145.383-.243.51-.099.126-.203.22-.314.284-.11.063-.221.102-.332.118-.11.016-.209.024-.296.024-.332 0-.624-.1-.876-.302-.253-.201-.521-.547-.806-1.036l-2.499-4.146v5.425h-1.73v-8.54zm13.474 4.607l-.805-2.854c-.047-.158-.106-.262-.177-.314-.071-.051-.154-.077-.249-.077-.103 0-.188.028-.255.083-.067.055-.124.158-.172.308l-.852 2.854h2.51zm-3.375-3.08c.079-.268.176-.506.29-.716.115-.209.257-.385.427-.527.17-.142.377-.25.621-.326.245-.075.534-.112.865-.112.324 0 .6.035.83.107.228.07.422.175.58.313.158.139.29.306.396.504.107.197.2.422.279.675l2.073 6.881-1.777.391-.77-2.605h-3.364l-.781 2.605-1.73-.39 2.061-6.8zm7.219-1.527h1.765v7.035h4.465v1.505h-6.23zM46.181 65.23c2.203-1.678 3.798-6.546 3.798-12.295 0-.236-.003-.47-.009-.703 6.473-.966 11.116-3.594 11.116-6.686 0-.14-.01-.277-.028-.415 1.65 1.981 2.596 4.284 2.596 6.742 0 7.008-7.683 12.759-17.473 13.358M25.328 51.873c0-2.458.946-4.76 2.596-6.742-.02.138-.03.276-.03.415 0 3.092 4.645 5.72 11.118 6.686-.004.233-.009.467-.009.703 0 5.748 1.595 10.617 3.799 12.296-9.793-.599-17.474-6.35-17.474-13.358m24.341-3.218c-.75-5.033-2.784-8.642-5.177-8.642-2.394 0-4.43 3.609-5.18 8.642-4.557-.712-7.743-2.33-7.743-4.218 0-2.541 5.786-4.602 12.923-4.602 7.137 0 12.922 2.06 12.922 4.602 0 1.887-3.186 3.506-7.745 4.218m-8.393.242c.504-3.207 1.754-5.478 3.216-5.478 1.46 0 2.71 2.271 3.213 5.478-1.028.093-2.104.143-3.213.143-1.11 0-2.187-.05-3.216-.143m3.216 11.782c-1.85 0-3.36-3.636-3.449-8.206 1.113.101 2.266.155 3.45.155 1.18 0 2.332-.054 3.446-.155-.09 4.57-1.599 8.206-3.447 8.206m9.977-21.278c-2.777-.893-6.233-1.42-9.977-1.42-3.747 0-7.202.527-9.978 1.42-7.387 2.374-12.46 7.306-12.46 13.004 0 8.016 10.045 14.515 22.438 14.515 12.39 0 22.436-6.5 22.436-14.515 0-5.698-5.074-10.628-12.459-13.004" mask="url(#b)"/></g></g></svg>