<?xml version="1.0" encoding="UTF-8"?>
<svg width="62px" height="16px" viewBox="0 0 62 16" version="1.1" xmlns="http://www.w3.org/2000/svg" xmlns:xlink="http://www.w3.org/1999/xlink">
    <!-- Generator: Sketch 52.5 (67469) - http://www.bohemiancoding.com/sketch -->
    <title>Group</title>
    <desc>Created with Sketch.</desc>
    <defs>
        <path d="M14.1347656,20.7597656 L16.0742188,14.0742188 C16.1640629,13.7617172 16.2744134,13.4882824 16.4052734,13.2539062 C16.5361335,13.0195301 16.7021474,12.8242195 16.9033203,12.6679688 C17.1044932,12.511718 17.3447252,12.3935551 17.6240234,12.3134766 C17.9033217,12.233398 18.2343731,12.1933594 18.6171875,12.1933594 C18.9843768,12.1933594 19.3007799,12.2314449 19.5664062,12.3076172 C19.8320326,12.3837894 20.0546866,12.4951165 20.234375,12.6416016 C20.4140634,12.7880867 20.5615229,12.9697255 20.6767578,13.1865234 C20.7919928,13.4033214 20.8945308,13.6484361 20.984375,13.921875 L22.9296875,20.7597656 L20.5976562,21.2753906 L19.9414062,18.8378906 L17.1464844,18.8378906 L16.4492188,21.2753906 L14.1347656,20.7597656 Z M17.6621094,16.8691406 L19.3789062,16.8691406 L18.6933594,14.2324219 C18.6777343,14.1542965 18.6328129,14.1132813 18.5585938,14.109375 C18.4882809,14.109375 18.4453126,14.1503902 18.4296875,14.2324219 L17.6621094,16.8691406 Z M23.328125,16.6464844 C23.328125,16.0800753 23.4101554,15.528323 23.5742188,14.9912109 C23.7382821,14.4540989 23.9941389,13.9794942 24.3417969,13.5673828 C24.6894549,13.1552714 25.1328098,12.8232434 25.671875,12.5712891 C26.2109402,12.3193347 26.8613243,12.1933594 27.6230469,12.1933594 C28.4472697,12.1933594 29.1347629,12.3193347 29.6855469,12.5712891 C30.2363309,12.8232434 30.6796858,13.1552714 31.015625,13.5673828 C31.3515642,13.9794942 31.589843,14.4531223 31.7304688,14.9882812 C31.8710945,15.5234402 31.9414062,16.076169 31.9414062,16.6464844 C31.9414062,17.2402373 31.8535165,17.8281221 31.6777344,18.4101562 C31.5019522,18.9921904 31.2128926,19.503904 30.8105469,19.9453125 L32.1582031,21.5859375 L30.3828125,22.9921875 L28.8476562,21.0703125 C28.6640616,21.1250003 28.4677745,21.1611327 28.2587891,21.1787109 C28.0498036,21.1962892 27.8378917,21.2050781 27.6230469,21.2050781 C26.798824,21.2050781 26.1103543,21.0732435 25.5576172,20.8095703 C25.00488,20.5458971 24.5644548,20.2001975 24.2363281,19.7724609 C23.9082015,19.3447244 23.6748054,18.8584012 23.5361328,18.3134766 C23.3974602,17.768552 23.328125,17.2128935 23.328125,16.6464844 Z M25.8066406,16.6699219 C25.8066406,16.9511733 25.8349607,17.2353501 25.8916016,17.5224609 C25.9482425,17.8095717 26.0449212,18.0693348 26.1816406,18.3017578 C26.3183601,18.5341808 26.5029285,18.7236321 26.7353516,18.8701172 C26.9677746,19.0166023 27.2597639,19.0898438 27.6113281,19.0898438 C27.9316422,19.0898438 28.2070301,19.0263678 28.4375,18.8994141 C28.6679699,18.7724603 28.8593742,18.5966808 29.0117188,18.3720703 C29.1640633,18.1474598 29.2763668,17.8896499 29.3486328,17.5986328 C29.4208988,17.3076157 29.4570312,16.9980485 29.4570312,16.6699219 C29.4570312,16.3417952 29.424805,16.0332046 29.3603516,15.7441406 C29.2958981,15.4550767 29.1923835,15.2031261 29.0498047,14.9882812 C28.9072258,14.7734364 28.7177746,14.6035163 28.4814453,14.4785156 C28.245116,14.353515 27.9589861,14.2910156 27.6230469,14.2910156 C27.2871077,14.2910156 27.004884,14.353515 26.7763672,14.4785156 C26.5478504,14.6035163 26.3613288,14.7734364 26.2167969,14.9882812 C26.0722649,15.2031261 25.9677738,15.4550767 25.9033203,15.7441406 C25.8388669,16.0332046 25.8066406,16.3417952 25.8066406,16.6699219 Z M33.1132812,17.4375 L33.1132812,12.3457031 L35.515625,12.3457031 L35.515625,17.1972656 C35.515625,17.5175797 35.5332029,17.7998035 35.5683594,18.0439453 C35.6035158,18.2880872 35.6689448,18.4941398 35.7646484,18.6621094 C35.860352,18.830079 35.9960929,18.9580074 36.171875,19.0458984 C36.3476571,19.1337895 36.5800767,19.1777344 36.8691406,19.1777344 C37.1425795,19.1777344 37.3652335,19.1337895 37.5371094,19.0458984 C37.7089852,18.9580074 37.8447261,18.830079 37.9443359,18.6621094 C38.0439458,18.4941398 38.1113279,18.2919934 38.1464844,18.0556641 C38.1816408,17.8193348 38.1992188,17.5527359 38.1992188,17.2558594 L38.1992188,12.3457031 L40.6015625,12.3457031 L40.6015625,17.2792969 C40.6015625,17.8535185 40.5478521,18.3828101 40.4404297,18.8671875 C40.3330073,19.3515649 40.1386733,19.7665998 39.8574219,20.1123047 C39.5761705,20.4580095 39.1933618,20.7265615 38.7089844,20.9179688 C38.224607,21.109376 37.6113318,21.2050781 36.8691406,21.2050781 C36.0996055,21.2050781 35.4716821,21.1210946 34.9853516,20.953125 C34.499021,20.7851554 34.1171889,20.5390641 33.8398438,20.2148438 C33.5624986,19.8906234 33.3720708,19.494143 33.2685547,19.0253906 C33.1650385,18.5566383 33.1132812,18.0273467 33.1132812,17.4375 Z M41.7265625,10.7988281 L43.7773438,8.51953125 L45.1953125,9.9140625 L42.8632812,11.8417969 L41.7265625,10.7988281 Z M42.1074219,21 L42.1074219,12.3457031 L44.5332031,12.3457031 L44.5332031,21 L42.1074219,21 Z" id="path-1"></path>
    </defs>
    <g id="Page-1" stroke="none" stroke-width="1" fill="none" fill-rule="evenodd">
        <g id="Group" transform="translate(-14.000000, -8.000000)">
            <rect id="Rectangle" fill-opacity="0" fill="#CF2F39" x="0" y="0" width="87" height="33"></rect>
            <g id="AQUÃ">
                <use fill="#000000" xlink:href="#path-1"></use>
                <use fill="#FFFFFF" xlink:href="#path-1"></use>
            </g>
            <polyline id="Rectangle_2_copy_5" stroke="#FFFFFF" stroke-width="2.5" points="60.231 10 66.873 16.5 60.231 23"></polyline>
            <polyline id="Rectangle_2_copy_6" stroke="#FFFFFF" stroke-width="2.5" points="67.231 10 73.873 16.5 67.231 23"></polyline>
        </g>
    </g>
</svg>