<?xml version="1.0" encoding="UTF-8"?>
<svg width="241px" height="125px" viewBox="0 0 241 125" version="1.1" xmlns="http://www.w3.org/2000/svg" xmlns:xlink="http://www.w3.org/1999/xlink">
    <!-- Generator: Sketch 52.5 (67469) - http://www.bohemiancoding.com/sketch -->
    <title>Conócelos y descubre</title>
    <desc>Created with Sketch.</desc>
    <defs>
        <path d="M4.02832031,19.2836914 C4.02832031,17.8246997 4.24365019,16.4777894 4.67431641,15.2429199 C5.10498262,14.0080505 5.74438052,12.9401901 6.5925293,12.0393066 C7.44067807,11.1384232 8.49315778,10.4375025 9.75,9.93652344 C11.0068422,9.43554437 12.465812,9.18505859 14.1269531,9.18505859 C15.4804755,9.18505859 16.6735788,9.31909046 17.7062988,9.5871582 C18.7390188,9.85522595 19.7123978,10.1870097 20.6264648,10.5825195 L19.387207,13.8520508 C18.7368132,13.5795885 18.1655298,13.3686531 17.6733398,13.2192383 C17.1811499,13.0698235 16.7285177,12.9533696 16.3154297,12.869873 C15.9023417,12.7863765 15.5156268,12.7314454 15.1552734,12.7050781 C14.7949201,12.6787108 14.4257831,12.6655273 14.0478516,12.6655273 C12.1933501,12.6655273 10.7695362,13.2368107 9.77636719,14.3793945 C8.78319816,15.5219784 8.28662109,17.1567276 8.28662109,19.2836914 C8.28662109,21.5512809 8.78319816,23.2343695 9.77636719,24.3330078 C10.7695362,25.4316461 12.1845611,25.980957 14.0214844,25.980957 C14.5400417,25.980957 15.0146463,25.9523929 15.4453125,25.8952637 C15.8759787,25.8381345 16.3044412,25.7568365 16.7307129,25.6513672 C17.1569846,25.5458979 17.603025,25.4074716 18.0688477,25.236084 C18.5346703,25.0646964 19.0751922,24.8515638 19.6904297,24.5966797 L20.9296875,27.7871094 C20.3496065,28.0595717 19.7893093,28.2990712 19.2487793,28.5056152 C18.7082493,28.7121592 18.1501494,28.8857415 17.5744629,29.0263672 C16.9987764,29.1669929 16.4011261,29.2746578 15.7814941,29.3493652 C15.1618621,29.4240726 14.4829138,29.4614258 13.7446289,29.4614258 C11.9604403,29.4614258 10.4531312,29.2043483 9.22265625,28.6901855 C7.99218135,28.1760228 6.99463273,27.4641159 6.22998047,26.5544434 C5.46532821,25.6447708 4.90722832,24.5703187 4.55566406,23.3310547 C4.2040998,22.0917907 4.02832031,20.7426831 4.02832031,19.2836914 Z M22.3535156,19.3100586 C22.3535156,18.0180599 22.5292951,16.7634338 22.8808594,15.5461426 C23.2324236,14.3288513 23.7905235,13.2478075 24.5551758,12.3029785 C25.319828,11.3581496 26.2954042,10.6022978 27.4819336,10.0354004 C28.668463,9.46850302 30.1010658,9.18505859 31.7797852,9.18505859 C33.5288173,9.18505859 35.0009706,9.46850302 36.1962891,10.0354004 C37.3916075,10.6022978 38.3583947,11.3581496 39.0966797,12.3029785 C39.8349646,13.2478075 40.3688948,14.3266541 40.6984863,15.5395508 C41.0280778,16.7524475 41.1928711,18.0092708 41.1928711,19.3100586 C41.1928711,20.6020572 41.0170916,21.8610779 40.6655273,23.0871582 C40.3139631,24.3132386 39.7558632,25.3986769 38.9912109,26.3435059 C38.2265587,27.2883348 37.2509825,28.0441866 36.0644531,28.611084 C34.8779238,29.1779814 33.4497154,29.4614258 31.7797852,29.4614258 C30.030753,29.4614258 28.5585997,29.1757841 27.3632812,28.6044922 C26.1679628,28.0332003 25.1923866,27.2817429 24.4365234,26.3500977 C23.6806603,25.3745068 23.1445328,24.2802795 22.828125,23.0673828 C22.5117172,21.8544861 22.3535156,20.6020572 22.3535156,19.3100586 Z M26.6118164,19.3100586 C26.6118164,20.7163156 26.8403297,21.955561 27.2973633,23.027832 C27.7543968,24.100103 28.4706982,24.9042942 29.4462891,25.4404297 C30.0791047,25.7832048 30.856929,25.9545898 31.7797852,25.9545898 C32.676274,25.9545898 33.4475065,25.7788104 34.0935059,25.4272461 C34.7395052,25.0756818 35.2756326,24.6032745 35.7019043,24.0100098 C36.128176,23.4167451 36.4401846,22.7136271 36.6379395,21.9006348 C36.8356943,21.0876424 36.9345703,20.2241257 36.9345703,19.3100586 C36.9345703,18.3959915 36.8356943,17.5368693 36.6379395,16.732666 C36.4401846,15.9284628 36.128176,15.2253448 35.7019043,14.623291 C35.2756326,14.0212372 34.7395052,13.5488298 34.0935059,13.2060547 C33.4475065,12.8632795 32.676274,12.6918945 31.7797852,12.6918945 C30.8832963,12.6918945 30.1098665,12.8632795 29.4594727,13.2060547 C28.8090788,13.5488298 28.2707541,14.0212372 27.8444824,14.623291 C27.4182108,15.2253448 27.1062022,15.9262655 26.9084473,16.7260742 C26.7106924,17.5258829 26.6118164,18.3872024 26.6118164,19.3100586 Z M44.0800781,29 L44.0800781,9.52783203 L48.2197266,9.52783203 L56.5913086,24.0561523 L56.5913086,9.52783203 L60.4936523,9.52783203 L60.4936523,24.4648438 C60.4936523,24.9130882 60.4716799,25.3854956 60.4277344,25.8820801 C60.3837888,26.3786646 60.3266605,26.7499988 60.2563477,26.9960938 C60.115722,27.4794946 59.9311535,27.8662095 59.7026367,28.15625 C59.47412,28.4462905 59.2346204,28.6638176 58.9841309,28.8088379 C58.7336413,28.9538581 58.4831555,29.0439451 58.232666,29.0791016 C57.9821765,29.114258 57.7558604,29.1318359 57.5537109,29.1318359 C56.7978478,29.1318359 56.132083,28.9033226 55.5563965,28.4462891 C54.98071,27.9892555 54.367679,27.2026423 53.7172852,26.0864258 L48.0219727,16.6337891 L48.0219727,29 L44.0800781,29 Z M63.3808594,19.3100586 C63.3808594,18.0180599 63.5566389,16.7634338 63.9082031,15.5461426 C64.2597674,14.3288513 64.8178673,13.2478075 65.5825195,12.3029785 C66.3471718,11.3581496 67.322748,10.6022978 68.5092773,10.0354004 C69.6958067,9.46850302 71.1284096,9.18505859 72.8071289,9.18505859 C74.5561611,9.18505859 76.0283143,9.46850302 77.2236328,10.0354004 C78.4189513,10.6022978 79.3857385,11.3581496 80.1240234,12.3029785 C80.8623084,13.2478075 81.3962386,14.3266541 81.7258301,15.5395508 C82.0554216,16.7524475 82.2202148,18.0092708 82.2202148,19.3100586 C82.2202148,20.6020572 82.0444354,21.8610779 81.6928711,23.0871582 C81.3413068,24.3132386 80.7832069,25.3986769 80.0185547,26.3435059 C79.2539024,27.2883348 78.2783262,28.0441866 77.0917969,28.611084 C75.9052675,29.1779814 74.4770591,29.4614258 72.8071289,29.4614258 C71.0580967,29.4614258 69.5859435,29.1757841 68.390625,28.6044922 C67.1953065,28.0332003 66.2197303,27.2817429 65.4638672,26.3500977 C64.708004,25.3745068 64.1718766,24.2802795 63.8554688,23.0673828 C63.5390609,21.8544861 63.3808594,20.6020572 63.3808594,19.3100586 Z M67.6391602,19.3100586 C67.6391602,20.7163156 67.8676735,21.955561 68.324707,23.027832 C68.7817406,24.100103 69.498042,24.9042942 70.4736328,25.4404297 C71.1064485,25.7832048 71.8842727,25.9545898 72.8071289,25.9545898 C73.7036178,25.9545898 74.4748503,25.7788104 75.1208496,25.4272461 C75.7668489,25.0756818 76.3029764,24.6032745 76.729248,24.0100098 C77.1555197,23.4167451 77.4675283,22.7136271 77.6652832,21.9006348 C77.8630381,21.0876424 77.9619141,20.2241257 77.9619141,19.3100586 C77.9619141,18.3959915 77.8630381,17.5368693 77.6652832,16.732666 C77.4675283,15.9284628 77.1555197,15.2253448 76.729248,14.623291 C76.3029764,14.0212372 75.7668489,13.5488298 75.1208496,13.2060547 C74.4748503,12.8632795 73.7036178,12.6918945 72.8071289,12.6918945 C71.91064,12.6918945 71.1372103,12.8632795 70.4868164,13.2060547 C69.8364225,13.5488298 69.2980978,14.0212372 68.8718262,14.623291 C68.4455545,15.2253448 68.1335459,15.9262655 67.935791,16.7260742 C67.7380361,17.5258829 67.6391602,18.3872024 67.6391602,19.3100586 Z M70.012207,6.61425781 L74.4155273,1.92089844 L76.9599609,4.3203125 L72.0688477,8.39404297 L70.012207,6.61425781 Z M84.2504883,19.2836914 C84.2504883,17.8246997 84.4658182,16.4777894 84.8964844,15.2429199 C85.3271506,14.0080505 85.9665485,12.9401901 86.8146973,12.0393066 C87.662846,11.1384232 88.7153257,10.4375025 89.972168,9.93652344 C91.2290102,9.43554437 92.68798,9.18505859 94.3491211,9.18505859 C95.7026435,9.18505859 96.8957468,9.31909046 97.9284668,9.5871582 C98.9611868,9.85522595 99.9345657,10.1870097 100.848633,10.5825195 L99.609375,13.8520508 C98.9589811,13.5795885 98.3876978,13.3686531 97.8955078,13.2192383 C97.4033179,13.0698235 96.9506857,12.9533696 96.5375977,12.869873 C96.1245097,12.7863765 95.7377948,12.7314454 95.3774414,12.7050781 C95.017088,12.6787108 94.6479511,12.6655273 94.2700195,12.6655273 C92.4155181,12.6655273 90.9917042,13.2368107 89.9985352,14.3793945 C89.0053661,15.5219784 88.5087891,17.1567276 88.5087891,19.2836914 C88.5087891,21.5512809 89.0053661,23.2343695 89.9985352,24.3330078 C90.9917042,25.4316461 92.4067291,25.980957 94.2436523,25.980957 C94.7622096,25.980957 95.2368143,25.9523929 95.6674805,25.8952637 C96.0981467,25.8381345 96.5266092,25.7568365 96.9528809,25.6513672 C97.3791525,25.5458979 97.825193,25.4074716 98.2910156,25.236084 C98.7568383,25.0646964 99.2973602,24.8515638 99.9125977,24.5966797 L101.151855,27.7871094 C100.571774,28.0595717 100.011477,28.2990712 99.4709473,28.5056152 C98.9304172,28.7121592 98.3723173,28.8857415 97.7966309,29.0263672 C97.2209444,29.1669929 96.6232941,29.2746578 96.0036621,29.3493652 C95.3840301,29.4240726 94.7050818,29.4614258 93.9667969,29.4614258 C92.1826083,29.4614258 90.6752991,29.2043483 89.4448242,28.6901855 C88.2143493,28.1760228 87.2168007,27.4641159 86.4521484,26.5544434 C85.6874962,25.6447708 85.1293963,24.5703187 84.777832,23.3310547 C84.4262678,22.0917907 84.2504883,20.7426831 84.2504883,19.2836914 Z M103.814941,29 L103.814941,9.52783203 L117.802734,9.52783203 L117.802734,12.9555664 L107.80957,12.9555664 L107.80957,17.121582 L115.535156,17.121582 L115.535156,20.5756836 L107.80957,20.5756836 L107.80957,25.5722656 L118.026855,25.5722656 L118.026855,29 L103.814941,29 Z M120.874512,29 L120.874512,9.52783203 L124.895508,9.52783203 L124.895508,25.5722656 L135.086426,25.5722656 L135.086426,29 L120.874512,29 Z M136.048828,19.3100586 C136.048828,18.0180599 136.224608,16.7634338 136.576172,15.5461426 C136.927736,14.3288513 137.485836,13.2478075 138.250488,12.3029785 C139.015141,11.3581496 139.990717,10.6022978 141.177246,10.0354004 C142.363775,9.46850302 143.796378,9.18505859 145.475098,9.18505859 C147.22413,9.18505859 148.696283,9.46850302 149.891602,10.0354004 C151.08692,10.6022978 152.053707,11.3581496 152.791992,12.3029785 C153.530277,13.2478075 154.064207,14.3266541 154.393799,15.5395508 C154.72339,16.7524475 154.888184,18.0092708 154.888184,19.3100586 C154.888184,20.6020572 154.712404,21.8610779 154.36084,23.0871582 C154.009276,24.3132386 153.451176,25.3986769 152.686523,26.3435059 C151.921871,27.2883348 150.946295,28.0441866 149.759766,28.611084 C148.573236,29.1779814 147.145028,29.4614258 145.475098,29.4614258 C143.726065,29.4614258 142.253912,29.1757841 141.058594,28.6044922 C139.863275,28.0332003 138.887699,27.2817429 138.131836,26.3500977 C137.375973,25.3745068 136.839845,24.2802795 136.523438,23.0673828 C136.20703,21.8544861 136.048828,20.6020572 136.048828,19.3100586 Z M140.307129,19.3100586 C140.307129,20.7163156 140.535642,21.955561 140.992676,23.027832 C141.449709,24.100103 142.166011,24.9042942 143.141602,25.4404297 C143.774417,25.7832048 144.552241,25.9545898 145.475098,25.9545898 C146.371587,25.9545898 147.142819,25.7788104 147.788818,25.4272461 C148.434818,25.0756818 148.970945,24.6032745 149.397217,24.0100098 C149.823488,23.4167451 150.135497,22.7136271 150.333252,21.9006348 C150.531007,21.0876424 150.629883,20.2241257 150.629883,19.3100586 C150.629883,18.3959915 150.531007,17.5368693 150.333252,16.732666 C150.135497,15.9284628 149.823488,15.2253448 149.397217,14.623291 C148.970945,14.0212372 148.434818,13.5488298 147.788818,13.2060547 C147.142819,12.8632795 146.371587,12.6918945 145.475098,12.6918945 C144.578609,12.6918945 143.805179,12.8632795 143.154785,13.2060547 C142.504391,13.5488298 141.966067,14.0212372 141.539795,14.623291 C141.113523,15.2253448 140.801515,15.9262655 140.60376,16.7260742 C140.406005,17.5258829 140.307129,18.3872024 140.307129,19.3100586 Z M156.325195,27.9980469 L157.458984,24.5703125 C159.779308,25.5019578 161.893057,25.9721679 163.800293,25.980957 C165.259285,25.980957 166.322751,25.7546409 166.990723,25.302002 C167.658695,24.849363 167.992676,24.236332 167.992676,23.4628906 C167.992676,23.0322244 167.8938,22.667482 167.696045,22.3686523 C167.49829,22.0698227 167.21924,21.8215342 166.858887,21.6237793 C166.498533,21.4260244 166.061282,21.2612311 165.547119,21.1293945 C165.032956,20.9975579 164.468265,20.8745123 163.853027,20.7602539 C163.04443,20.6196282 162.240238,20.437257 161.44043,20.2131348 C160.640621,19.9890126 159.930911,19.6704122 159.311279,19.2573242 C158.691647,18.8442362 158.188478,18.3125033 157.801758,17.6621094 C157.415037,17.0117155 157.22168,16.1899464 157.22168,15.1967773 C157.22168,14.3354449 157.364501,13.5400427 157.650146,12.8105469 C157.935792,12.081051 158.397214,11.4460476 159.034424,10.9055176 C159.671634,10.3649875 160.504389,9.94311675 161.532715,9.63989258 C162.56104,9.33666841 163.80468,9.18505859 165.263672,9.18505859 C166.555671,9.18505859 167.772944,9.31909046 168.915527,9.5871582 C170.058111,9.85522595 171.073238,10.1694318 171.960938,10.5297852 L170.958984,13.8256836 C169.877924,13.447752 168.851811,13.1555186 167.880615,12.9489746 C166.909419,12.7424306 165.962407,12.6391602 165.039551,12.6391602 C163.800287,12.6391602 162.888431,12.8237286 162.303955,13.1928711 C161.719479,13.5620136 161.427246,14.098141 161.427246,14.8012695 C161.427246,15.5571327 161.765622,16.0954574 162.442383,16.4162598 C163.119144,16.7370622 164.059564,17.0073231 165.263672,17.2270508 C166.089848,17.3852547 166.916011,17.5786121 167.742188,17.8071289 C168.568364,18.0356457 169.315426,18.3652322 169.983398,18.7958984 C170.651371,19.2265647 171.191892,19.789059 171.60498,20.4833984 C172.018068,21.1777378 172.224609,22.0742133 172.224609,23.1728516 C172.224609,24.1308642 172.040041,24.9943809 171.670898,25.7634277 C171.301756,26.5324745 170.761234,27.1916476 170.049316,27.7409668 C169.337399,28.2902859 168.460699,28.714354 167.419189,29.0131836 C166.37768,29.3120132 165.171394,29.4614258 163.800293,29.4614258 C162.974117,29.4614258 162.183109,29.4108892 161.427246,29.3098145 C160.671383,29.2087397 159.974857,29.0878913 159.337646,28.9472656 C158.700436,28.8066399 158.124758,28.6506356 157.610596,28.479248 C157.096433,28.3078605 156.66797,28.1474617 156.325195,27.9980469 Z M178.579102,10.7539062 L182.20459,9.23779297 L186.27832,18.0048828 C186.48047,18.4179708 186.667235,18.6882318 186.838623,18.8156738 C187.010011,18.9431159 187.20996,19.0068359 187.438477,19.0068359 C187.710939,19.0068359 187.928466,18.9409186 188.091064,18.809082 C188.253663,18.6772454 188.43164,18.4003927 188.625,17.9785156 L192.738281,9.23779297 L196.350586,10.6879883 L192.645996,18.6640625 C192.197752,19.6396533 191.740725,20.4372528 191.274902,21.0568848 C190.80908,21.6765168 190.189457,22.1269517 189.416016,22.4082031 L189.416016,29 L185.329102,29 L185.329102,22.4345703 C184.590817,22.1796862 184.001955,21.7622099 183.5625,21.1821289 C183.123045,20.6020479 182.68799,19.8330126 182.257324,18.875 L178.579102,10.7539062 Z M4.85888672,59 L4.85888672,39.527832 L12.9140625,39.527832 C14.443367,39.527832 15.8056581,39.7629371 17.0009766,40.2331543 C18.196295,40.7033715 19.2026326,41.3603473 20.0200195,42.2041016 C20.8374064,43.0478558 21.4636209,44.0651796 21.8986816,45.2561035 C22.3337424,46.4470274 22.5512695,47.7631764 22.5512695,49.2045898 C22.5512695,50.6284251 22.3579121,51.9379823 21.9711914,53.1333008 C21.5844707,54.3286193 20.9934122,55.3613238 20.197998,56.2314453 C19.4025839,57.1015669 18.3984436,57.7805151 17.1855469,58.2683105 C15.9726502,58.756106 14.5488363,59 12.9140625,59 L4.85888672,59 Z M8.91943359,55.5722656 L12.7163086,55.5722656 C14.5004972,55.5722656 15.8737745,55.0822803 16.8361816,54.1022949 C17.7985888,53.1223096 18.2797852,51.5337024 18.2797852,49.3364258 C18.2797852,47.121571 17.7941943,45.5043996 16.822998,44.4848633 C15.8518018,43.4653269 14.482919,42.9555664 12.7163086,42.9555664 L8.91943359,42.9555664 L8.91943359,55.5722656 Z M25.425293,59 L25.425293,39.527832 L39.4130859,39.527832 L39.4130859,42.9555664 L29.4199219,42.9555664 L29.4199219,47.121582 L37.1455078,47.121582 L37.1455078,50.5756836 L29.4199219,50.5756836 L29.4199219,55.5722656 L39.637207,55.5722656 L39.637207,59 L25.425293,59 Z M41.1665039,57.9980469 L42.300293,54.5703125 C44.6206171,55.5019578 46.7343655,55.9721679 48.6416016,55.980957 C50.1005932,55.980957 51.1640592,55.7546409 51.8320312,55.302002 C52.5000033,54.849363 52.8339844,54.236332 52.8339844,53.4628906 C52.8339844,53.0322244 52.7351084,52.667482 52.5373535,52.3686523 C52.3395986,52.0698227 52.0605487,51.8215342 51.7001953,51.6237793 C51.3398419,51.4260244 50.9025905,51.2612311 50.3884277,51.1293945 C49.874265,50.9975579 49.3095734,50.8745123 48.6943359,50.7602539 C47.8857381,50.6196282 47.081547,50.437257 46.2817383,50.2131348 C45.4819296,49.9890126 44.7722199,49.6704122 44.1525879,49.2573242 C43.5329559,48.8442362 43.0297871,48.3125033 42.6430664,47.6621094 C42.2563457,47.0117155 42.0629883,46.1899464 42.0629883,45.1967773 C42.0629883,44.3354449 42.2058091,43.5400427 42.4914551,42.8105469 C42.777101,42.081051 43.2385222,41.4460476 43.8757324,40.9055176 C44.5129426,40.3649875 45.345698,39.9431168 46.3740234,39.6398926 C47.4023489,39.3366684 48.6459888,39.1850586 50.1049805,39.1850586 C51.3969791,39.1850586 52.6142521,39.3190905 53.7568359,39.5871582 C54.8994198,39.8552259 55.9145463,40.1694318 56.8022461,40.5297852 L55.800293,43.8256836 C54.7192329,43.447752 53.6931201,43.1555186 52.7219238,42.9489746 C51.7507276,42.7424306 50.8037156,42.6391602 49.8808594,42.6391602 C48.6415954,42.6391602 47.7297393,42.8237286 47.1452637,43.1928711 C46.5607881,43.5620136 46.2685547,44.098141 46.2685547,44.8012695 C46.2685547,45.5571327 46.6069302,46.0954574 47.2836914,46.4162598 C47.9604526,46.7370622 48.9008729,47.0073231 50.1049805,47.2270508 C50.9311565,47.3852547 51.7573201,47.5786121 52.5834961,47.8071289 C53.4096721,48.0356457 54.1567349,48.3652322 54.824707,48.7958984 C55.4926791,49.2265647 56.0332011,49.789059 56.4462891,50.4833984 C56.8593771,51.1777378 57.065918,52.0742133 57.065918,53.1728516 C57.065918,54.1308642 56.8813495,54.9943809 56.512207,55.7634277 C56.1430646,56.5324745 55.6025426,57.1916476 54.890625,57.7409668 C54.1787074,58.2902859 53.3020072,58.714354 52.260498,59.0131836 C51.2189889,59.3120132 50.0127022,59.4614258 48.6416016,59.4614258 C47.8154256,59.4614258 47.0244178,59.4108892 46.2685547,59.3098145 C45.5126915,59.2087397 44.8161653,59.0878913 44.1789551,58.9472656 C43.5417449,58.8066399 42.966067,58.6506356 42.4519043,58.479248 C41.9377416,58.3078605 41.5092791,58.1474617 41.1665039,57.9980469 Z M59.0566406,49.2836914 C59.0566406,47.8246997 59.2719705,46.4777894 59.7026367,45.2429199 C60.1333029,44.0080505 60.7727008,42.9401901 61.6208496,42.0393066 C62.4689984,41.1384232 63.5214781,40.4375025 64.7783203,39.9365234 C66.0351625,39.4355444 67.4941323,39.1850586 69.1552734,39.1850586 C70.5087958,39.1850586 71.7018991,39.3190905 72.7346191,39.5871582 C73.7673391,39.8552259 74.7407181,40.1870097 75.6547852,40.5825195 L74.4155273,43.8520508 C73.7651335,43.5795885 73.1938501,43.3686531 72.7016602,43.2192383 C72.2094702,43.0698235 71.756838,42.9533696 71.34375,42.869873 C70.930662,42.7863765 70.5439471,42.7314454 70.1835938,42.7050781 C69.8232404,42.6787108 69.4541035,42.6655273 69.0761719,42.6655273 C67.2216704,42.6655273 65.7978565,43.2368107 64.8046875,44.3793945 C63.8115185,45.5219784 63.3149414,47.1567276 63.3149414,49.2836914 C63.3149414,51.5512809 63.8115185,53.2343695 64.8046875,54.3330078 C65.7978565,55.4316461 67.2128814,55.980957 69.0498047,55.980957 C69.568362,55.980957 70.0429666,55.9523929 70.4736328,55.8952637 C70.904299,55.8381345 71.3327615,55.7568365 71.7590332,55.6513672 C72.1853049,55.5458979 72.6313453,55.4074716 73.097168,55.236084 C73.5629906,55.0646964 74.1035125,54.8515638 74.71875,54.5966797 L75.9580078,57.7871094 C75.3779268,58.0595717 74.8176297,58.2990712 74.2770996,58.5056152 C73.7365696,58.7121592 73.1784697,58.8857415 72.6027832,59.0263672 C72.0270967,59.1669929 71.4294465,59.2746578 70.8098145,59.3493652 C70.1901824,59.4240726 69.5112342,59.4614258 68.7729492,59.4614258 C66.9887606,59.4614258 65.4814515,59.2043483 64.2509766,58.6901855 C63.0205017,58.1760228 62.022953,57.4641159 61.2583008,56.5544434 C60.4936485,55.6447708 59.9355486,54.5703187 59.5839844,53.3310547 C59.2324201,52.0917907 59.0566406,50.7426831 59.0566406,49.2836914 Z M78.5419922,50.9316406 L78.5419922,39.527832 L82.5893555,39.527832 L82.5893555,50.3647461 C82.5893555,51.2436567 82.6398921,52.0346645 82.7409668,52.737793 C82.8420415,53.4409215 83.0397934,54.0341773 83.3342285,54.5175781 C83.6286636,55.000979 84.0373509,55.3745104 84.5603027,55.6381836 C85.0832546,55.9018568 85.7797808,56.0336914 86.6499023,56.0336914 C87.4936566,56.0336914 88.1769993,55.9018568 88.6999512,55.6381836 C89.222903,55.3745104 89.6315903,55.0053735 89.9260254,54.5307617 C90.2204605,54.05615 90.4182124,53.4760776 90.5192871,52.7905273 C90.6203618,52.104977 90.6708984,51.3403363 90.6708984,50.496582 L90.6708984,39.527832 L94.7446289,39.527832 L94.7446289,50.5756836 C94.7446289,51.8676822 94.6325695,53.0585883 94.4084473,54.1484375 C94.1843251,55.2382867 93.7712432,56.1743125 93.1691895,56.956543 C92.5671357,57.7387734 91.7387748,58.3518044 90.684082,58.7956543 C89.6293893,59.2395042 88.2846761,59.4614258 86.6499023,59.4614258 C84.9799721,59.4614258 83.6154838,59.2636739 82.5563965,58.8681641 C81.4973092,58.4726543 80.6711455,57.9057654 80.0778809,57.1674805 C79.4846162,56.4291955 79.0803233,55.5327201 78.8649902,54.4780273 C78.6496571,53.4233346 78.5419922,52.2412175 78.5419922,50.9316406 Z M98.3833008,59 L98.3833008,39.527832 L106.08252,39.527832 C107.014165,39.527832 107.886471,39.617919 108.699463,39.7980957 C109.512455,39.9782724 110.219968,40.2661113 110.822021,40.6616211 C111.424075,41.0571309 111.896483,41.5712859 112.239258,42.2041016 C112.582033,42.8369172 112.753418,43.592769 112.753418,44.4716797 C112.753418,44.9550805 112.689698,45.4055155 112.562256,45.822998 C112.434814,46.2404806 112.263429,46.6206038 112.048096,46.9633789 C111.832763,47.3061541 111.591066,47.6115709 111.322998,47.8796387 C111.05493,48.1477064 110.77588,48.378417 110.48584,48.5717773 C110.916506,48.7299813 111.325193,48.9453111 111.711914,49.2177734 C112.098635,49.4902357 112.445799,49.8198223 112.753418,50.206543 C113.061037,50.5932637 113.304931,51.0349096 113.485107,51.5314941 C113.665284,52.0280787 113.755371,52.5839813 113.755371,53.1992188 C113.755371,54.130864 113.588381,54.9570276 113.254395,55.6777344 C112.920408,56.3984411 112.452396,57.0070776 111.850342,57.5036621 C111.248288,58.0002466 110.527592,58.373778 109.688232,58.6242676 C108.848873,58.8747571 107.923833,59 106.913086,59 L98.3833008,59 Z M102.37793,55.625 L106.543945,55.625 C107.370121,55.625 108.079831,55.4316426 108.673096,55.0449219 C109.26636,54.6582012 109.562988,54.016606 109.562988,53.1201172 C109.562988,52.6191381 109.468507,52.1994646 109.279541,51.861084 C109.090575,51.5227034 108.833498,51.2590341 108.508301,51.0700684 C108.183104,50.8811026 107.796389,50.7514652 107.348145,50.6811523 C106.8999,50.6108395 106.425295,50.5756836 105.924316,50.5756836 L102.37793,50.5756836 L102.37793,55.625 Z M102.37793,47.3588867 L105.75293,47.3588867 C106.561527,47.3588867 107.247067,47.1875017 107.80957,46.8447266 C108.372073,46.5019514 108.65332,45.9086956 108.65332,45.0649414 C108.65332,44.1860308 108.354495,43.6059584 107.756836,43.324707 C107.159177,43.0434556 106.267096,42.902832 105.080566,42.902832 L102.37793,42.902832 L102.37793,47.3588867 Z M116.550293,59 L116.550293,39.527832 L123.98584,39.527832 C124.917485,39.527832 125.791988,39.6223135 126.609375,39.8112793 C127.426762,40.0002451 128.138669,40.3166482 128.745117,40.760498 C129.351566,41.2043479 129.823973,41.782223 130.162354,42.4941406 C130.500734,43.2060582 130.669922,44.0805612 130.669922,45.1176758 C130.669922,45.8208043 130.557862,46.4777801 130.33374,47.088623 C130.109618,47.6994659 129.808596,48.2487769 129.430664,48.7365723 C129.052732,49.2243677 128.613284,49.6396467 128.112305,49.9824219 C127.611326,50.325197 127.088382,50.5844718 126.543457,50.7602539 C126.851076,50.9008796 127.125731,51.0898426 127.367432,51.3271484 C127.609132,51.5644543 127.86621,51.8457015 128.138672,52.1708984 L132.436523,57.1674805 L129.325195,59.4086914 L124.513184,53.7661133 C124.187987,53.3881817 123.900148,53.0717786 123.649658,52.8168945 C123.399169,52.5620104 123.166261,52.359864 122.950928,52.2104492 C122.735595,52.0610344 122.520265,51.957764 122.304932,51.9006348 C122.089599,51.8435056 121.845704,51.8149414 121.573242,51.8149414 L120.61084,51.8149414 L120.61084,59 L116.550293,59 Z M120.61084,48.4399414 L123.221191,48.4399414 C124.249517,48.4399414 125.064694,48.2070336 125.666748,47.7412109 C126.268802,47.2753883 126.569824,46.5810593 126.569824,45.6582031 C126.569824,45.0781221 126.488526,44.6057147 126.325928,44.2409668 C126.163329,43.8762189 125.93921,43.5905772 125.653564,43.3840332 C125.367918,43.1774892 125.018557,43.0368656 124.605469,42.9621582 C124.192381,42.8874508 123.73096,42.8500977 123.221191,42.8500977 L120.61084,42.8500977 L120.61084,48.4399414 Z M134.559082,59 L134.559082,39.527832 L148.546875,39.527832 L148.546875,42.9555664 L138.553711,42.9555664 L138.553711,47.121582 L146.279297,47.121582 L146.279297,50.5756836 L138.553711,50.5756836 L138.553711,55.5722656 L148.770996,55.5722656 L148.770996,59 L134.559082,59 Z M155.916504,49.2836914 C155.916504,47.8246997 156.131834,46.4777894 156.5625,45.2429199 C156.993166,44.0080505 157.632564,42.9401901 158.480713,42.0393066 C159.328862,41.1384232 160.381341,40.4375025 161.638184,39.9365234 C162.895026,39.4355444 164.353996,39.1850586 166.015137,39.1850586 C167.368659,39.1850586 168.561762,39.3190905 169.594482,39.5871582 C170.627202,39.8552259 171.600581,40.1870097 172.514648,40.5825195 L171.275391,43.8520508 C170.624997,43.5795885 170.053713,43.3686531 169.561523,43.2192383 C169.069333,43.0698235 168.616701,42.9533696 168.203613,42.869873 C167.790525,42.7863765 167.40381,42.7314454 167.043457,42.7050781 C166.683104,42.6787108 166.313967,42.6655273 165.936035,42.6655273 C164.081534,42.6655273 162.65772,43.2368107 161.664551,44.3793945 C160.671382,45.5219784 160.174805,47.1567276 160.174805,49.2836914 C160.174805,51.5512809 160.671382,53.2343695 161.664551,54.3330078 C162.65772,55.4316461 164.072745,55.980957 165.909668,55.980957 C166.428225,55.980957 166.90283,55.9523929 167.333496,55.8952637 C167.764162,55.8381345 168.192625,55.7568365 168.618896,55.6513672 C169.045168,55.5458979 169.491209,55.4074716 169.957031,55.236084 C170.422854,55.0646964 170.963376,54.8515638 171.578613,54.5966797 L172.817871,57.7871094 C172.23779,58.0595717 171.677493,58.2990712 171.136963,58.5056152 C170.596433,58.7121592 170.038333,58.8857415 169.462646,59.0263672 C168.88696,59.1669929 168.28931,59.2746578 167.669678,59.3493652 C167.050046,59.4240726 166.371097,59.4614258 165.632812,59.4614258 C163.848624,59.4614258 162.341315,59.2043483 161.11084,58.6901855 C159.880365,58.1760228 158.882816,57.4641159 158.118164,56.5544434 C157.353512,55.6447708 156.795412,54.5703187 156.443848,53.3310547 C156.092283,52.0917907 155.916504,50.7426831 155.916504,49.2836914 Z M174.241699,49.3100586 C174.241699,48.0180599 174.417479,46.7634338 174.769043,45.5461426 C175.120607,44.3288513 175.678707,43.2478075 176.443359,42.3029785 C177.208012,41.3581496 178.183588,40.6022978 179.370117,40.0354004 C180.556647,39.468503 181.989249,39.1850586 183.667969,39.1850586 C185.417001,39.1850586 186.889154,39.468503 188.084473,40.0354004 C189.279791,40.6022978 190.246578,41.3581496 190.984863,42.3029785 C191.723148,43.2478075 192.257078,44.3266541 192.58667,45.5395508 C192.916261,46.7524475 193.081055,48.0092708 193.081055,49.3100586 C193.081055,50.6020572 192.905275,51.8610779 192.553711,53.0871582 C192.202147,54.3132386 191.644047,55.3986769 190.879395,56.3435059 C190.114742,57.2883348 189.139166,58.0441866 187.952637,58.611084 C186.766107,59.1779814 185.337899,59.4614258 183.667969,59.4614258 C181.918937,59.4614258 180.446783,59.1757841 179.251465,58.6044922 C178.056146,58.0332003 177.08057,57.2817429 176.324707,56.3500977 C175.568844,55.3745068 175.032716,54.2802795 174.716309,53.0673828 C174.399901,51.8544861 174.241699,50.6020572 174.241699,49.3100586 Z M178.5,49.3100586 C178.5,50.7163156 178.728513,51.955561 179.185547,53.027832 C179.64258,54.100103 180.358882,54.9042942 181.334473,55.4404297 C181.967288,55.7832048 182.745113,55.9545898 183.667969,55.9545898 C184.564458,55.9545898 185.33569,55.7788104 185.981689,55.4272461 C186.627689,55.0756818 187.163816,54.6032745 187.590088,54.0100098 C188.01636,53.4167451 188.328368,52.7136271 188.526123,51.9006348 C188.723878,51.0876424 188.822754,50.2241257 188.822754,49.3100586 C188.822754,48.3959915 188.723878,47.5368693 188.526123,46.732666 C188.328368,45.9284628 188.01636,45.2253448 187.590088,44.623291 C187.163816,44.0212372 186.627689,43.5488298 185.981689,43.2060547 C185.33569,42.8632795 184.564458,42.6918945 183.667969,42.6918945 C182.77148,42.6918945 181.99805,42.8632795 181.347656,43.2060547 C180.697262,43.5488298 180.158938,44.0212372 179.732666,44.623291 C179.306394,45.2253448 178.994386,45.9262655 178.796631,46.7260742 C178.598876,47.5258829 178.5,48.3872024 178.5,49.3100586 Z M180.873047,36.6142578 L185.276367,31.9208984 L187.820801,34.3203125 L182.929688,38.394043 L180.873047,36.6142578 Z M195.941895,59 L195.941895,39.527832 L199.725586,39.527832 L204.774902,48.4926758 C204.915528,48.7475599 205.036376,48.9255366 205.137451,49.0266113 C205.238526,49.1276861 205.359374,49.1782227 205.5,49.1782227 C205.640626,49.1782227 205.761474,49.1276861 205.862549,49.0266113 C205.963624,48.9255366 206.088866,48.7475599 206.238281,48.4926758 L211.22168,39.527832 L214.873535,39.527832 L214.873535,59 L210.905273,59 L210.905273,47.121582 L208.848633,50.6547852 C208.268552,51.6831106 207.701663,52.3730451 207.147949,52.7246094 C206.594236,53.0761736 206.00098,53.2519531 205.368164,53.2519531 C204.71777,53.2519531 204.122317,53.0673847 203.581787,52.6982422 C203.041257,52.3290997 202.494143,51.6391652 201.94043,50.628418 L199.962891,47.1479492 L199.962891,59 L195.941895,59 Z M217.760742,49.3100586 C217.760742,48.0180599 217.936522,46.7634338 218.288086,45.5461426 C218.63965,44.3288513 219.19775,43.2478075 219.962402,42.3029785 C220.727055,41.3581496 221.702631,40.6022978 222.88916,40.0354004 C224.07569,39.468503 225.508292,39.1850586 227.187012,39.1850586 C228.936044,39.1850586 230.408197,39.468503 231.603516,40.0354004 C232.798834,40.6022978 233.765621,41.3581496 234.503906,42.3029785 C235.242191,43.2478075 235.776121,44.3266541 236.105713,45.5395508 C236.435304,46.7524475 236.600098,48.0092708 236.600098,49.3100586 C236.600098,50.6020572 236.424318,51.8610779 236.072754,53.0871582 C235.72119,54.3132386 235.16309,55.3986769 234.398438,56.3435059 C233.633785,57.2883348 232.658209,58.0441866 231.47168,58.611084 C230.28515,59.1779814 228.856942,59.4614258 227.187012,59.4614258 C225.43798,59.4614258 223.965826,59.1757841 222.770508,58.6044922 C221.575189,58.0332003 220.599613,57.2817429 219.84375,56.3500977 C219.087887,55.3745068 218.551759,54.2802795 218.235352,53.0673828 C217.918944,51.8544861 217.760742,50.6020572 217.760742,49.3100586 Z M222.019043,49.3100586 C222.019043,50.7163156 222.247556,51.955561 222.70459,53.027832 C223.161623,54.100103 223.877925,54.9042942 224.853516,55.4404297 C225.486331,55.7832048 226.264156,55.9545898 227.187012,55.9545898 C228.083501,55.9545898 228.854733,55.7788104 229.500732,55.4272461 C230.146732,55.0756818 230.682859,54.6032745 231.109131,54.0100098 C231.535403,53.4167451 231.847411,52.7136271 232.045166,51.9006348 C232.242921,51.0876424 232.341797,50.2241257 232.341797,49.3100586 C232.341797,48.3959915 232.242921,47.5368693 232.045166,46.732666 C231.847411,45.9284628 231.535403,45.2253448 231.109131,44.623291 C230.682859,44.0212372 230.146732,43.5488298 229.500732,43.2060547 C228.854733,42.8632795 228.083501,42.6918945 227.187012,42.6918945 C226.290523,42.6918945 225.517093,42.8632795 224.866699,43.2060547 C224.216305,43.5488298 223.677981,44.0212372 223.251709,44.623291 C222.825437,45.2253448 222.513429,45.9262655 222.315674,46.7260742 C222.117919,47.5258829 222.019043,48.3872024 222.019043,49.3100586 Z M3.40869141,72.9555664 L3.40869141,69.527832 L19.0708008,69.527832 L19.0708008,72.9555664 L13.2568359,72.9555664 L13.2568359,89 L9.20947266,89 L9.20947266,72.9555664 L3.40869141,72.9555664 Z M19.9541016,79.3100586 C19.9541016,78.0180599 20.1298811,76.7634338 20.4814453,75.5461426 C20.8330096,74.3288513 21.3911095,73.2478075 22.1557617,72.3029785 C22.920414,71.3581496 23.8959902,70.6022978 25.0825195,70.0354004 C26.2690489,69.468503 27.7016518,69.1850586 29.3803711,69.1850586 C31.1294033,69.1850586 32.6015565,69.468503 33.796875,70.0354004 C34.9921935,70.6022978 35.9589807,71.3581496 36.6972656,72.3029785 C37.4355506,73.2478075 37.9694808,74.3266541 38.2990723,75.5395508 C38.6286638,76.7524475 38.793457,78.0092708 38.793457,79.3100586 C38.793457,80.6020572 38.6176775,81.8610779 38.2661133,83.0871582 C37.914549,84.3132386 37.3564491,85.3986769 36.5917969,86.3435059 C35.8271446,87.2883348 34.8515684,88.0441866 33.6650391,88.611084 C32.4785097,89.1779814 31.0503013,89.4614258 29.3803711,89.4614258 C27.6313389,89.4614258 26.1591857,89.1757841 24.9638672,88.6044922 C23.7685487,88.0332003 22.7929725,87.2817429 22.0371094,86.3500977 C21.2812462,85.3745068 20.7451188,84.2802795 20.4287109,83.0673828 C20.1123031,81.8544861 19.9541016,80.6020572 19.9541016,79.3100586 Z M24.2124023,79.3100586 C24.2124023,80.7163156 24.4409157,81.955561 24.8979492,83.027832 C25.3549828,84.100103 26.0712842,84.9042942 27.046875,85.4404297 C27.6796907,85.7832048 28.4575149,85.9545898 29.3803711,85.9545898 C30.27686,85.9545898 31.0480925,85.7788104 31.6940918,85.4272461 C32.3400911,85.0756818 32.8762186,84.6032745 33.3024902,84.0100098 C33.7287619,83.4167451 34.0407705,82.7136271 34.2385254,81.9006348 C34.4362803,81.0876424 34.5351562,80.2241257 34.5351562,79.3100586 C34.5351562,78.3959915 34.4362803,77.5368693 34.2385254,76.732666 C34.0407705,75.9284628 33.7287619,75.2253448 33.3024902,74.623291 C32.8762186,74.0212372 32.3400911,73.5488298 31.6940918,73.2060547 C31.0480925,72.8632795 30.27686,72.6918945 29.3803711,72.6918945 C28.4838822,72.6918945 27.7104525,72.8632795 27.0600586,73.2060547 C26.4096647,73.5488298 25.87134,74.0212372 25.4450684,74.623291 C25.0187967,75.2253448 24.7067881,75.9262655 24.5090332,76.7260742 C24.3112783,77.5258829 24.2124023,78.3872024 24.2124023,79.3100586 Z M39.4394531,70.7539062 L43.0649414,69.237793 L47.1386719,78.0048828 C47.3408213,78.4179708 47.527587,78.6882318 47.6989746,78.8156738 C47.8703622,78.9431159 48.0703114,79.0068359 48.2988281,79.0068359 C48.5712904,79.0068359 48.7888175,78.9409186 48.951416,78.809082 C49.1140145,78.6772454 49.2919912,78.4003927 49.4853516,77.9785156 L53.5986328,69.237793 L57.2109375,70.6879883 L53.5063477,78.6640625 C53.0581032,79.6396533 52.6010765,80.4372528 52.1352539,81.0568848 C51.6694313,81.6765168 51.0498086,82.1269517 50.2763672,82.4082031 L50.2763672,89 L46.1894531,89 L46.1894531,82.4345703 C45.4511682,82.1796862 44.8623069,81.7622099 44.4228516,81.1821289 C43.9833962,80.6020479 43.548342,79.8330126 43.1176758,78.875 L39.4394531,70.7539062 Z M57.8569336,79.3100586 C57.8569336,78.0180599 58.0327131,76.7634338 58.3842773,75.5461426 C58.7358416,74.3288513 59.2939415,73.2478075 60.0585938,72.3029785 C60.823246,71.3581496 61.7988222,70.6022978 62.9853516,70.0354004 C64.1718809,69.468503 65.6044838,69.1850586 67.2832031,69.1850586 C69.0322353,69.1850586 70.5043886,69.468503 71.699707,70.0354004 C72.8950255,70.6022978 73.8618127,71.3581496 74.6000977,72.3029785 C75.3383826,73.2478075 75.8723128,74.3266541 76.2019043,75.5395508 C76.5314958,76.7524475 76.6962891,78.0092708 76.6962891,79.3100586 C76.6962891,80.6020572 76.5205096,81.8610779 76.1689453,83.0871582 C75.8173811,84.3132386 75.2592812,85.3986769 74.4946289,86.3435059 C73.7299766,87.2883348 72.7544005,88.0441866 71.5678711,88.611084 C70.3813417,89.1779814 68.9531333,89.4614258 67.2832031,89.4614258 C65.5341709,89.4614258 64.0620177,89.1757841 62.8666992,88.6044922 C61.6713807,88.0332003 60.6958046,87.2817429 59.9399414,86.3500977 C59.1840783,85.3745068 58.6479508,84.2802795 58.331543,83.0673828 C58.0151351,81.8544861 57.8569336,80.6020572 57.8569336,79.3100586 Z M62.1152344,79.3100586 C62.1152344,80.7163156 62.3437477,81.955561 62.8007812,83.027832 C63.2578148,84.100103 63.9741162,84.9042942 64.949707,85.4404297 C65.5825227,85.7832048 66.3603469,85.9545898 67.2832031,85.9545898 C68.179692,85.9545898 68.9509245,85.7788104 69.5969238,85.4272461 C70.2429232,85.0756818 70.7790506,84.6032745 71.2053223,84.0100098 C71.6315939,83.4167451 71.9436025,82.7136271 72.1413574,81.9006348 C72.3391123,81.0876424 72.4379883,80.2241257 72.4379883,79.3100586 C72.4379883,78.3959915 72.3391123,77.5368693 72.1413574,76.732666 C71.9436025,75.9284628 71.6315939,75.2253448 71.2053223,74.623291 C70.7790506,74.0212372 70.2429232,73.5488298 69.5969238,73.2060547 C68.9509245,72.8632795 68.179692,72.6918945 67.2832031,72.6918945 C66.3867143,72.6918945 65.6132845,72.8632795 64.9628906,73.2060547 C64.3124967,73.5488298 63.7741721,74.0212372 63.3479004,74.623291 C62.9216287,75.2253448 62.6096201,75.9262655 62.4118652,76.7260742 C62.2141103,77.5258829 62.1152344,78.3872024 62.1152344,79.3100586 Z M77.5927734,72.9555664 L77.5927734,69.527832 L93.2548828,69.527832 L93.2548828,72.9555664 L87.440918,72.9555664 L87.440918,89 L83.3935547,89 L83.3935547,72.9555664 L77.5927734,72.9555664 Z M92.3847656,88.512207 L97.078125,73.0214844 C97.2539071,72.4062469 97.4736315,71.8591333 97.7373047,71.380127 C98.0009779,70.9011207 98.3261699,70.5012223 98.7128906,70.1804199 C99.0996113,69.8596175 99.5720187,69.6135262 100.130127,69.4421387 C100.688235,69.2707511 101.345211,69.1850586 102.101074,69.1850586 C102.839359,69.1850586 103.469968,69.2663566 103.99292,69.4289551 C104.515872,69.5915535 104.957518,69.8288559 105.317871,70.1408691 C105.678224,70.4528824 105.979247,70.8352028 106.220947,71.2878418 C106.462648,71.7404808 106.671386,72.2524385 106.847168,72.8237305 L111.580078,88.512207 L107.532715,89.4086914 L105.766113,83.4628906 L98.1064453,83.4628906 L96.3266602,89.4086914 L92.3847656,88.512207 Z M99.0424805,80.0351562 L104.777344,80.0351562 L102.931641,73.5224609 C102.826171,73.1621076 102.692139,72.9248053 102.529541,72.8105469 C102.366943,72.6962885 102.180177,72.6391602 101.969238,72.6391602 C101.731932,72.6391602 101.536378,72.7028802 101.382568,72.8303223 C101.228759,72.9577643 101.099122,73.1884749 100.993652,73.5224609 L99.0424805,80.0351562 Z M119.147461,89 L119.147461,69.527832 L123.168457,69.527832 L123.168457,85.5722656 L133.359375,85.5722656 L133.359375,89 L119.147461,89 Z M134.321777,79.3100586 C134.321777,78.0180599 134.497557,76.7634338 134.849121,75.5461426 C135.200685,74.3288513 135.758785,73.2478075 136.523438,72.3029785 C137.28809,71.3581496 138.263666,70.6022978 139.450195,70.0354004 C140.636725,69.468503 142.069328,69.1850586 143.748047,69.1850586 C145.497079,69.1850586 146.969232,69.468503 148.164551,70.0354004 C149.359869,70.6022978 150.326656,71.3581496 151.064941,72.3029785 C151.803226,73.2478075 152.337157,74.3266541 152.666748,75.5395508 C152.99634,76.7524475 153.161133,78.0092708 153.161133,79.3100586 C153.161133,80.6020572 152.985353,81.8610779 152.633789,83.0871582 C152.282225,84.3132386 151.724125,85.3986769 150.959473,86.3435059 C150.19482,87.2883348 149.219244,88.0441866 148.032715,88.611084 C146.846185,89.1779814 145.417977,89.4614258 143.748047,89.4614258 C141.999015,89.4614258 140.526861,89.1757841 139.331543,88.6044922 C138.136224,88.0332003 137.160648,87.2817429 136.404785,86.3500977 C135.648922,85.3745068 135.112795,84.2802795 134.796387,83.0673828 C134.479979,81.8544861 134.321777,80.6020572 134.321777,79.3100586 Z M138.580078,79.3100586 C138.580078,80.7163156 138.808591,81.955561 139.265625,83.027832 C139.722659,84.100103 140.43896,84.9042942 141.414551,85.4404297 C142.047366,85.7832048 142.825191,85.9545898 143.748047,85.9545898 C144.644536,85.9545898 145.415768,85.7788104 146.061768,85.4272461 C146.707767,85.0756818 147.243894,84.6032745 147.670166,84.0100098 C148.096438,83.4167451 148.408446,82.7136271 148.606201,81.9006348 C148.803956,81.0876424 148.902832,80.2241257 148.902832,79.3100586 C148.902832,78.3959915 148.803956,77.5368693 148.606201,76.732666 C148.408446,75.9284628 148.096438,75.2253448 147.670166,74.623291 C147.243894,74.0212372 146.707767,73.5488298 146.061768,73.2060547 C145.415768,72.8632795 144.644536,72.6918945 143.748047,72.6918945 C142.851558,72.6918945 142.078128,72.8632795 141.427734,73.2060547 C140.77734,73.5488298 140.239016,74.0212372 139.812744,74.623291 C139.386472,75.2253448 139.074464,75.9262655 138.876709,76.7260742 C138.678954,77.5258829 138.580078,78.3872024 138.580078,79.3100586 Z M154.598145,87.9980469 L155.731934,84.5703125 C158.052258,85.5019578 160.166006,85.9721679 162.073242,85.980957 C163.532234,85.980957 164.5957,85.7546409 165.263672,85.302002 C165.931644,84.849363 166.265625,84.236332 166.265625,83.4628906 C166.265625,83.0322244 166.166749,82.667482 165.968994,82.3686523 C165.771239,82.0698227 165.492189,81.8215342 165.131836,81.6237793 C164.771483,81.4260244 164.334231,81.2612311 163.820068,81.1293945 C163.305906,80.9975579 162.741214,80.8745123 162.125977,80.7602539 C161.317379,80.6196282 160.513188,80.437257 159.713379,80.2131348 C158.91357,79.9890126 158.203861,79.6704122 157.584229,79.2573242 C156.964597,78.8442362 156.461428,78.3125033 156.074707,77.6621094 C155.687986,77.0117155 155.494629,76.1899464 155.494629,75.1967773 C155.494629,74.3354449 155.63745,73.5400427 155.923096,72.8105469 C156.208742,72.081051 156.670163,71.4460476 157.307373,70.9055176 C157.944583,70.3649875 158.777339,69.9431168 159.805664,69.6398926 C160.83399,69.3366684 162.077629,69.1850586 163.536621,69.1850586 C164.82862,69.1850586 166.045893,69.3190905 167.188477,69.5871582 C168.33106,69.8552259 169.346187,70.1694318 170.233887,70.5297852 L169.231934,73.8256836 C168.150874,73.447752 167.124761,73.1555186 166.153564,72.9489746 C165.182368,72.7424306 164.235356,72.6391602 163.3125,72.6391602 C162.073236,72.6391602 161.16138,72.8237286 160.576904,73.1928711 C159.992429,73.5620136 159.700195,74.098141 159.700195,74.8012695 C159.700195,75.5571327 160.038571,76.0954574 160.715332,76.4162598 C161.392093,76.7370622 162.332514,77.0073231 163.536621,77.2270508 C164.362797,77.3852547 165.188961,77.5786121 166.015137,77.8071289 C166.841313,78.0356457 167.588376,78.3652322 168.256348,78.7958984 C168.92432,79.2265647 169.464842,79.789059 169.87793,80.4833984 C170.291018,81.1777378 170.497559,82.0742133 170.497559,83.1728516 C170.497559,84.1308642 170.31299,84.9943809 169.943848,85.7634277 C169.574705,86.5324745 169.034183,87.1916476 168.322266,87.7409668 C167.610348,88.2902859 166.733648,88.714354 165.692139,89.0131836 C164.65063,89.3120132 163.444343,89.4614258 162.073242,89.4614258 C161.247066,89.4614258 160.456058,89.4108892 159.700195,89.3098145 C158.944332,89.2087397 158.247806,89.0878913 157.610596,88.9472656 C156.973385,88.8066399 156.397708,88.6506356 155.883545,88.479248 C155.369382,88.3078605 154.94092,88.1474617 154.598145,87.9980469 Z M3.32958984,118.512207 L8.02294922,103.021484 C8.19873135,102.406247 8.41845571,101.859133 8.68212891,101.380127 C8.9458021,100.901121 9.27099416,100.501222 9.65771484,100.18042 C10.0444355,99.8596175 10.5168429,99.6135262 11.0749512,99.4421387 C11.6330594,99.2707511 12.2900353,99.1850586 13.0458984,99.1850586 C13.7841834,99.1850586 14.4147923,99.2663566 14.9377441,99.4289551 C15.460696,99.5915535 15.9023419,99.8288559 16.2626953,100.140869 C16.6230487,100.452882 16.9240711,100.835203 17.1657715,101.287842 C17.4074719,101.740481 17.6162101,102.252439 17.7919922,102.82373 L22.5249023,118.512207 L18.4775391,119.408691 L16.7109375,113.462891 L9.05126953,113.462891 L7.27148438,119.408691 L3.32958984,118.512207 Z M9.98730469,110.035156 L15.722168,110.035156 L13.8764648,103.522461 C13.7709956,103.162108 13.6369637,102.924805 13.4743652,102.810547 C13.3117668,102.696288 13.1250011,102.63916 12.9140625,102.63916 C12.6767566,102.63916 12.4812019,102.70288 12.3273926,102.830322 C12.1735832,102.957764 12.0439458,103.188475 11.9384766,103.522461 L9.98730469,110.035156 Z M21.4833984,100.753906 L25.1088867,99.237793 L29.1826172,108.004883 C29.3847666,108.417971 29.5715323,108.688232 29.7429199,108.815674 C29.9143075,108.943116 30.1142567,109.006836 30.3427734,109.006836 C30.6152357,109.006836 30.8327629,108.940919 30.9953613,108.809082 C31.1579598,108.677245 31.3359365,108.400393 31.5292969,107.978516 L35.6425781,99.237793 L39.2548828,100.687988 L35.550293,108.664062 C35.1020485,109.639653 34.6450219,110.437253 34.1791992,111.056885 C33.7133766,111.676517 33.0937539,112.126952 32.3203125,112.408203 L32.3203125,119 L28.2333984,119 L28.2333984,112.43457 C27.4951135,112.179686 26.9062522,111.76221 26.4667969,111.182129 C26.0273416,110.602048 25.5922873,109.833013 25.1616211,108.875 L21.4833984,100.753906 Z M41.2983398,110.931641 L41.2983398,99.527832 L45.3457031,99.527832 L45.3457031,110.364746 C45.3457031,111.243657 45.3962397,112.034664 45.4973145,112.737793 C45.5983892,113.440921 45.7961411,114.034177 46.0905762,114.517578 C46.3850112,115.000979 46.7936986,115.37451 47.3166504,115.638184 C47.8396022,115.901857 48.5361285,116.033691 49.40625,116.033691 C50.2500042,116.033691 50.933347,115.901857 51.4562988,115.638184 C51.9792507,115.37451 52.387938,115.005373 52.682373,114.530762 C52.9768081,114.05615 53.17456,113.476078 53.2756348,112.790527 C53.3767095,112.104977 53.4272461,111.340336 53.4272461,110.496582 L53.4272461,99.527832 L57.5009766,99.527832 L57.5009766,110.575684 C57.5009766,111.867682 57.3889171,113.058588 57.1647949,114.148438 C56.9406727,115.238287 56.5275909,116.174312 55.9255371,116.956543 C55.3234833,117.738773 54.4951225,118.351804 53.4404297,118.795654 C52.3857369,119.239504 51.0410238,119.461426 49.40625,119.461426 C47.7363198,119.461426 46.3718315,119.263674 45.3127441,118.868164 C44.2536568,118.472654 43.4274932,117.905765 42.8342285,117.16748 C42.2409638,116.429196 41.836671,115.53272 41.6213379,114.478027 C41.4060048,113.423335 41.2983398,112.241217 41.2983398,110.931641 Z M61.1396484,119 L61.1396484,99.527832 L69.1948242,99.527832 C70.7241287,99.527832 72.0864198,99.7629371 73.2817383,100.233154 C74.4770568,100.703371 75.4833944,101.360347 76.3007812,102.204102 C77.1181681,103.047856 77.7443826,104.06518 78.1794434,105.256104 C78.6145041,106.447027 78.8320312,107.763176 78.8320312,109.20459 C78.8320312,110.628425 78.6386738,111.937982 78.2519531,113.133301 C77.8652324,114.328619 77.2741739,115.361324 76.4787598,116.231445 C75.6833456,117.101567 74.6792053,117.780515 73.4663086,118.268311 C72.2534119,118.756106 70.829598,119 69.1948242,119 L61.1396484,119 Z M65.2001953,115.572266 L68.9970703,115.572266 C70.7812589,115.572266 72.1545362,115.08228 73.1169434,114.102295 C74.0793505,113.12231 74.5605469,111.533702 74.5605469,109.336426 C74.5605469,107.121571 74.074956,105.5044 73.1037598,104.484863 C72.1325635,103.465327 70.7636807,102.955566 68.9970703,102.955566 L65.2001953,102.955566 L65.2001953,115.572266 Z M80.8754883,109.310059 C80.8754883,108.01806 81.0512678,106.763434 81.402832,105.546143 C81.7543963,104.328851 82.3124962,103.247807 83.0771484,102.302979 C83.8418007,101.35815 84.8173769,100.602298 86.0039062,100.0354 C87.1904356,99.468503 88.6230385,99.1850586 90.3017578,99.1850586 C92.05079,99.1850586 93.5229432,99.468503 94.7182617,100.0354 C95.9135802,100.602298 96.8803674,101.35815 97.6186523,102.302979 C98.3569373,103.247807 98.8908675,104.326654 99.220459,105.539551 C99.5500505,106.752447 99.7148438,108.009271 99.7148438,109.310059 C99.7148438,110.602057 99.5390643,111.861078 99.1875,113.087158 C98.8359357,114.313239 98.2778359,115.398677 97.5131836,116.343506 C96.7485313,117.288335 95.7729552,118.044187 94.5864258,118.611084 C93.3998964,119.177981 91.971688,119.461426 90.3017578,119.461426 C88.5527256,119.461426 87.0805724,119.175784 85.8852539,118.604492 C84.6899354,118.0332 83.7143592,117.281743 82.9584961,116.350098 C82.2026329,115.374507 81.6665055,114.28028 81.3500977,113.067383 C81.0336898,111.854486 80.8754883,110.602057 80.8754883,109.310059 Z M85.1337891,109.310059 C85.1337891,110.716316 85.3623024,111.955561 85.8193359,113.027832 C86.2763695,114.100103 86.9926709,114.904294 87.9682617,115.44043 C88.6010774,115.783205 89.3789016,115.95459 90.3017578,115.95459 C91.1982467,115.95459 91.9694792,115.77881 92.6154785,115.427246 C93.2614778,115.075682 93.7976053,114.603274 94.223877,114.01001 C94.6501486,113.416745 94.9621572,112.713627 95.1599121,111.900635 C95.357667,111.087642 95.456543,110.224126 95.456543,109.310059 C95.456543,108.395992 95.357667,107.536869 95.1599121,106.732666 C94.9621572,105.928463 94.6501486,105.225345 94.223877,104.623291 C93.7976053,104.021237 93.2614778,103.54883 92.6154785,103.206055 C91.9694792,102.86328 91.1982467,102.691895 90.3017578,102.691895 C89.405269,102.691895 88.6318392,102.86328 87.9814453,103.206055 C87.3310514,103.54883 86.7927267,104.021237 86.3664551,104.623291 C85.9401834,105.225345 85.6281748,105.926266 85.4304199,106.726074 C85.232665,107.525883 85.1337891,108.387202 85.1337891,109.310059 Z M87.5068359,96.6142578 L91.9101562,91.9208984 L94.4545898,94.3203125 L89.5634766,98.394043 L87.5068359,96.6142578 Z" id="path-1"></path>
        <filter x="-3.0%" y="-4.3%" width="106.0%" height="111.9%" filterUnits="objectBoundingBox" id="filter-2">
            <feOffset dx="0" dy="2" in="SourceAlpha" result="shadowOffsetOuter1"></feOffset>
            <feGaussianBlur stdDeviation="2" in="shadowOffsetOuter1" result="shadowBlurOuter1"></feGaussianBlur>
            <feColorMatrix values="0 0 0 0 0   0 0 0 0 0   0 0 0 0 0  0 0 0 0.5 0" type="matrix" in="shadowBlurOuter1"></feColorMatrix>
        </filter>
    </defs>
    <g id="Page-1" stroke="none" stroke-width="1" fill="none" fill-rule="evenodd">
        <g id="Conócelos-y-descubre">
            <use fill="black" fill-opacity="1" filter="url(#filter-2)" xlink:href="#path-1"></use>
            <use fill="#FFFFFF" fill-rule="evenodd" xlink:href="#path-1"></use>
        </g>
    </g>
</svg>