<?xml version="1.0" encoding="UTF-8"?>
<svg width="128px" height="56px" viewBox="0 0 128 56" version="1.1" xmlns="http://www.w3.org/2000/svg" xmlns:xlink="http://www.w3.org/1999/xlink">
    <!-- Generator: Sketch 52.5 (67469) - http://www.bohemiancoding.com/sketch -->
    <title>Group</title>
    <desc>Created with Sketch.</desc>
    <defs>
        <path d="M61.8261719,32 L61.8261719,23.3457031 L65.1308594,23.3457031 C65.5449239,23.3457031 65.9335919,23.3876949 66.296875,23.4716797 C66.6601581,23.5556645 66.9765612,23.6962881 67.2460938,23.8935547 C67.5156263,24.0908213 67.7255852,24.3476547 67.8759766,24.6640625 C68.0263679,24.9804703 68.1015625,25.3691383 68.1015625,25.8300781 C68.1015625,26.1425797 68.0517583,26.434569 67.9521484,26.7060547 C67.8525386,26.9775404 67.7187508,27.2216786 67.5507812,27.4384766 C67.3828117,27.6552745 67.1875011,27.839843 66.9648438,27.9921875 C66.7421864,28.144532 66.5097668,28.2597652 66.2675781,28.3378906 C66.4042976,28.4003909 66.5263667,28.4843745 66.6337891,28.5898438 C66.7412115,28.695313 66.8554681,28.8203118 66.9765625,28.9648438 L68.8867188,31.1855469 L67.5039062,32.1816406 L65.3652344,29.6738281 C65.2207024,29.5058585 65.092774,29.3652349 64.9814453,29.2519531 C64.8701166,29.1386713 64.766602,29.0488285 64.6708984,28.9824219 C64.5751948,28.9160153 64.4794927,28.8701173 64.3837891,28.8447266 C64.2880855,28.8193358 64.1796881,28.8066406 64.0585938,28.8066406 L63.6308594,28.8066406 L63.6308594,32 L61.8261719,32 Z M63.6308594,27.3066406 L64.7910156,27.3066406 C65.2480492,27.3066406 65.6103502,27.203126 65.8779297,26.9960938 C66.1455092,26.7890615 66.2792969,26.4804708 66.2792969,26.0703125 C66.2792969,25.8124987 66.2431644,25.6025399 66.1708984,25.4404297 C66.0986325,25.2783195 65.9990241,25.1513676 65.8720703,25.0595703 C65.7451166,24.967773 65.5898447,24.9052736 65.40625,24.8720703 C65.2226553,24.838867 65.0175793,24.8222656 64.7910156,24.8222656 L63.6308594,24.8222656 L63.6308594,27.3066406 Z M69.8300781,32 L69.8300781,23.3457031 L76.046875,23.3457031 L76.046875,24.8691406 L71.6054688,24.8691406 L71.6054688,26.7207031 L75.0390625,26.7207031 L75.0390625,28.2558594 L71.6054688,28.2558594 L71.6054688,30.4765625 L76.1464844,30.4765625 L76.1464844,32 L69.8300781,32 Z M76.8847656,27.6816406 C76.8847656,27.0331999 76.9863271,26.4345731 77.1894531,25.8857422 C77.3925791,25.3369113 77.6904277,24.8623067 78.0830078,24.4619141 C78.4755879,24.0615214 78.9599581,23.7500011 79.5361328,23.5273438 C80.1123076,23.3046864 80.7675745,23.1933594 81.5019531,23.1933594 C82.1035186,23.1933594 82.6425757,23.2529291 83.1191406,23.3720703 C83.5957055,23.4912115 84.0371073,23.638671 84.4433594,23.8144531 L83.8925781,25.2675781 C83.6035142,25.1464838 83.3466808,25.0527347 83.1220703,24.9863281 C82.8974598,24.9199215 82.6894541,24.8681642 82.4980469,24.8310547 C82.3066397,24.7939451 82.1289071,24.7695313 81.9648438,24.7578125 C81.8007804,24.7460937 81.6347665,24.7402344 81.4667969,24.7402344 C80.642574,24.7402344 79.9882837,24.9941381 79.5039062,25.5019531 C79.0195288,26.0097682 78.7773438,26.7363234 78.7773438,27.6816406 C78.7773438,28.6894582 78.9892557,29.4355445 79.4130859,29.9199219 C79.8369162,30.4042993 80.4453085,30.6464844 81.2382812,30.6464844 C81.597658,30.6464844 81.9257798,30.612305 82.2226562,30.5439453 C82.5195327,30.4755856 82.7636709,30.3886724 82.9550781,30.2832031 L82.9550781,28.6425781 L81.1679688,28.6425781 L81.1679688,27.1015625 L84.765625,27.1015625 L84.765625,31.1972656 C84.5585927,31.3417976 84.3193373,31.4755853 84.0478516,31.5986328 C83.7763658,31.7216803 83.4882828,31.827148 83.1835938,31.9150391 C82.8789047,32.0029301 82.5605485,32.0732419 82.2285156,32.1259766 C81.8964827,32.1787112 81.5664079,32.2050781 81.2382812,32.2050781 C80.4218709,32.2050781 79.7363309,32.0908215 79.1816406,31.8623047 C78.6269504,31.6337879 78.1796892,31.3173848 77.8398438,30.9130859 C77.4999983,30.508787 77.2558601,30.0312528 77.1074219,29.4804688 C76.9589836,28.9296847 76.8847656,28.3300814 76.8847656,27.6816406 Z M86.3828125,32 L86.3828125,23.3457031 L89.6875,23.3457031 C90.1015646,23.3457031 90.4902326,23.3876949 90.8535156,23.4716797 C91.2167987,23.5556645 91.5332018,23.6962881 91.8027344,23.8935547 C92.072267,24.0908213 92.2822258,24.3476547 92.4326172,24.6640625 C92.5830086,24.9804703 92.6582031,25.3691383 92.6582031,25.8300781 C92.6582031,26.1425797 92.6083989,26.434569 92.5087891,26.7060547 C92.4091792,26.9775404 92.2753915,27.2216786 92.1074219,27.4384766 C91.9394523,27.6552745 91.7441417,27.839843 91.5214844,27.9921875 C91.298827,28.144532 91.0664075,28.2597652 90.8242188,28.3378906 C90.9609382,28.4003909 91.0830073,28.4843745 91.1904297,28.5898438 C91.2978521,28.695313 91.4121088,28.8203118 91.5332031,28.9648438 L93.4433594,31.1855469 L92.0605469,32.1816406 L89.921875,29.6738281 C89.777343,29.5058585 89.6494146,29.3652349 89.5380859,29.2519531 C89.4267573,29.1386713 89.3232427,29.0488285 89.2275391,28.9824219 C89.1318355,28.9160153 89.0361333,28.8701173 88.9404297,28.8447266 C88.8447261,28.8193358 88.7363287,28.8066406 88.6152344,28.8066406 L88.1875,28.8066406 L88.1875,32 L86.3828125,32 Z M88.1875,27.3066406 L89.3476562,27.3066406 C89.8046898,27.3066406 90.1669908,27.203126 90.4345703,26.9960938 C90.7021498,26.7890615 90.8359375,26.4804708 90.8359375,26.0703125 C90.8359375,25.8124987 90.799805,25.6025399 90.7275391,25.4404297 C90.6552731,25.2783195 90.5556647,25.1513676 90.4287109,25.0595703 C90.3017572,24.967773 90.1464853,24.9052736 89.9628906,24.8720703 C89.779296,24.838867 89.5742199,24.8222656 89.3476562,24.8222656 L88.1875,24.8222656 L88.1875,27.3066406 Z M94.3867188,32 L94.3867188,23.3457031 L100.603516,23.3457031 L100.603516,24.8691406 L96.1621094,24.8691406 L96.1621094,26.7207031 L99.5957031,26.7207031 L99.5957031,28.2558594 L96.1621094,28.2558594 L96.1621094,30.4765625 L100.703125,30.4765625 L100.703125,32 L94.3867188,32 Z M101.382812,31.5546875 L101.886719,30.03125 C102.917974,30.4453146 103.857418,30.6542969 104.705078,30.6582031 C105.353519,30.6582031 105.82617,30.5576182 106.123047,30.3564453 C106.419923,30.1552724 106.568359,29.8828142 106.568359,29.5390625 C106.568359,29.3476553 106.524415,29.1855475 106.436523,29.0527344 C106.348632,28.9199212 106.22461,28.8095708 106.064453,28.7216797 C105.904296,28.6337886 105.709962,28.5605472 105.481445,28.5019531 C105.252929,28.4433591 105.001954,28.3886721 104.728516,28.3378906 C104.369139,28.2753903 104.011721,28.1943364 103.65625,28.0947266 C103.300779,27.9951167 102.985353,27.8535165 102.709961,27.6699219 C102.434569,27.4863272 102.210938,27.2500014 102.039062,26.9609375 C101.867187,26.6718736 101.78125,26.3066428 101.78125,25.8652344 C101.78125,25.48242 101.844726,25.1289079 101.97168,24.8046875 C102.098633,24.4804671 102.30371,24.1982434 102.586914,23.9580078 C102.870119,23.7177722 103.240232,23.5302741 103.697266,23.3955078 C104.154299,23.2607415 104.707028,23.1933594 105.355469,23.1933594 C105.92969,23.1933594 106.470701,23.2529291 106.978516,23.3720703 C107.486331,23.4912115 107.937498,23.6308586 108.332031,23.7910156 L107.886719,25.2558594 C107.406248,25.0878898 106.950197,24.9580083 106.518555,24.8662109 C106.086912,24.7744136 105.666018,24.7285156 105.255859,24.7285156 C104.705075,24.7285156 104.299806,24.8105461 104.040039,24.9746094 C103.780272,25.1386727 103.650391,25.3769516 103.650391,25.6894531 C103.650391,26.0253923 103.80078,26.2646477 104.101562,26.4072266 C104.402345,26.5498054 104.82031,26.6699214 105.355469,26.7675781 C105.722658,26.837891 106.089842,26.9238276 106.457031,27.0253906 C106.824221,27.1269536 107.156249,27.2734365 107.453125,27.4648438 C107.750001,27.656251 107.990233,27.9062485 108.173828,28.2148438 C108.357423,28.523439 108.449219,28.9218726 108.449219,29.4101562 C108.449219,29.8359396 108.367188,30.2197249 108.203125,30.5615234 C108.039062,30.903322 107.79883,31.1962878 107.482422,31.4404297 C107.166014,31.6845715 106.77637,31.8730462 106.313477,32.0058594 C105.850584,32.1386725 105.314456,32.2050781 104.705078,32.2050781 C104.337889,32.2050781 103.98633,32.1826174 103.650391,32.1376953 C103.314451,32.0927732 103.004884,32.0390628 102.72168,31.9765625 C102.438475,31.9140622 102.182618,31.8447269 101.954102,31.7685547 C101.725585,31.6923824 101.535157,31.6210941 101.382812,31.5546875 Z M109.023438,31.7832031 L111.109375,24.8984375 C111.1875,24.6249986 111.285156,24.381837 111.402344,24.1689453 C111.519532,23.9560536 111.664062,23.778321 111.835938,23.6357422 C112.007813,23.4931633 112.217772,23.3837894 112.46582,23.3076172 C112.713868,23.2314449 113.005858,23.1933594 113.341797,23.1933594 C113.669924,23.1933594 113.950194,23.2294918 114.182617,23.3017578 C114.41504,23.3740238 114.611327,23.4794915 114.771484,23.6181641 C114.931641,23.7568366 115.065429,23.9267568 115.172852,24.1279297 C115.280274,24.3291026 115.373046,24.5566394 115.451172,24.8105469 L117.554688,31.7832031 L115.755859,32.1816406 L114.970703,29.5390625 L111.566406,29.5390625 L110.775391,32.1816406 L109.023438,31.7832031 Z M111.982422,28.015625 L114.53125,28.015625 L113.710938,25.1210938 C113.664062,24.9609367 113.604493,24.855469 113.532227,24.8046875 C113.459961,24.753906 113.376954,24.7285156 113.283203,24.7285156 C113.177734,24.7285156 113.090821,24.7568357 113.022461,24.8134766 C112.954101,24.8701175 112.896485,24.9726555 112.849609,25.1210938 L111.982422,28.015625 Z M118.521484,32 L118.521484,23.3457031 L121.826172,23.3457031 C122.240236,23.3457031 122.628904,23.3876949 122.992188,23.4716797 C123.355471,23.5556645 123.671874,23.6962881 123.941406,23.8935547 C124.210939,24.0908213 124.420898,24.3476547 124.571289,24.6640625 C124.72168,24.9804703 124.796875,25.3691383 124.796875,25.8300781 C124.796875,26.1425797 124.747071,26.434569 124.647461,26.7060547 C124.547851,26.9775404 124.414063,27.2216786 124.246094,27.4384766 C124.078124,27.6552745 123.882814,27.839843 123.660156,27.9921875 C123.437499,28.144532 123.205079,28.2597652 122.962891,28.3378906 C123.09961,28.4003909 123.221679,28.4843745 123.329102,28.5898438 C123.436524,28.695313 123.550781,28.8203118 123.671875,28.9648438 L125.582031,31.1855469 L124.199219,32.1816406 L122.060547,29.6738281 C121.916015,29.5058585 121.788086,29.3652349 121.676758,29.2519531 C121.565429,29.1386713 121.461915,29.0488285 121.366211,28.9824219 C121.270507,28.9160153 121.174805,28.8701173 121.079102,28.8447266 C120.983398,28.8193358 120.875001,28.8066406 120.753906,28.8066406 L120.326172,28.8066406 L120.326172,32 L118.521484,32 Z M120.326172,27.3066406 L121.486328,27.3066406 C121.943362,27.3066406 122.305663,27.203126 122.573242,26.9960938 C122.840822,26.7890615 122.974609,26.4804708 122.974609,26.0703125 C122.974609,25.8124987 122.938477,25.6025399 122.866211,25.4404297 C122.793945,25.2783195 122.694337,25.1513676 122.567383,25.0595703 C122.440429,24.967773 122.285157,24.9052736 122.101562,24.8720703 C121.917968,24.838867 121.712892,24.8222656 121.486328,24.8222656 L120.326172,24.8222656 L120.326172,27.3066406 Z" id="path-1"></path>
    </defs>
    <g id="Page-1" stroke="none" stroke-width="1" fill="none" fill-rule="evenodd">
        <g id="Group" transform="translate(2.000000, 2.000000)">
            <circle id="Oval" stroke="#010101" stroke-width="4" cx="26" cy="26" r="26"></circle>
            <polyline id="Path" stroke="#CF2F39" stroke-width="3" points="24.123 34.065 15.249 25.542 24.123 17.019"></polyline>
            <polyline id="Rectangle_2_copy" stroke="#CF2F39" stroke-width="3" points="32.307 34.065 23.433 25.542 32.307 17.019"></polyline>
            <g id="REGRESAR" fill="#000000">
                <use xlink:href="#path-1"></use>
                <use xlink:href="#path-1"></use>
            </g>
        </g>
    </g>
</svg>