<?xml version="1.0" encoding="UTF-8"?>
<svg width="239px" height="62px" viewBox="0 0 239 62" version="1.1" xmlns="http://www.w3.org/2000/svg" xmlns:xlink="http://www.w3.org/1999/xlink">
    <!-- Generator: Sketch 53.2 (72643) - https://sketchapp.com -->
    <title>Group 2</title>
    <desc>Created with Sketch.</desc>
    <g id="Page-1" stroke="none" stroke-width="1" fill="none" fill-rule="evenodd">
        <g id="Group-2" fill="#FFFFFF" fill-rule="nonzero">
            <g id="Group">
                <rect id="Rectangle-Copy" x="0" y="0" width="239" height="2"></rect>
                <rect id="Rectangle-Copy-3" x="0" y="2" width="2" height="58"></rect>
                <rect id="Rectangle-Copy-4" x="237" y="2" width="2" height="58"></rect>
                <rect id="Rectangle-Copy-2" x="0" y="60" width="239" height="2"></rect>
            </g>
            <path d="M24.288,36.235 C23.9253315,36.4050008 23.5740017,36.555166 23.234,36.6855 C22.8939983,36.815834 22.5426685,36.9263329 22.18,37.017 C21.8173315,37.1076671 21.440502,37.1756664 21.0495,37.221 C20.658498,37.2663336 20.230669,37.289 19.766,37.289 C18.6439944,37.289 17.6948372,37.1275016 16.9185,36.8045 C16.1421628,36.4814984 15.5131691,36.0338362 15.0315,35.4615 C14.5498309,34.8891638 14.1985011,34.2120039 13.9775,33.43 C13.7564989,32.6479961 13.646,31.7980046 13.646,30.88 C13.646,29.9619954 13.7819986,29.1148372 14.054,28.3385 C14.3260014,27.5621628 14.7283307,26.8906695 15.261,26.324 C15.7936693,25.7573305 16.4566627,25.3153349 17.25,24.998 C18.0433373,24.6806651 18.9613281,24.522 20.004,24.522 C20.8540042,24.522 21.6048301,24.6069991 22.2565,24.777 C22.9081699,24.9470008 23.5229971,25.1566654 24.101,25.406 L23.319,27.463 C22.910998,27.2929991 22.5511682,27.1598338 22.2395,27.0635 C21.9278318,26.9671662 21.641668,26.8935003 21.381,26.8425 C21.120332,26.7914997 20.8766678,26.7575001 20.65,26.7405 C20.4233322,26.7234999 20.1910012,26.715 19.953,26.715 C18.7856608,26.715 17.8903364,27.0748297 17.267,27.7945 C16.6436635,28.5141703 16.332,29.54266 16.332,30.88 C16.332,32.3080071 16.6436635,33.3676632 17.267,34.059 C17.8903364,34.7503368 18.7799942,35.096 19.936,35.096 C20.2646683,35.096 20.5649986,35.0790002 20.837,35.045 C21.1090014,35.0109998 21.3781653,34.9600003 21.6445,34.892 C21.9108347,34.8239997 22.1913319,34.7361672 22.486,34.6285 C22.7806681,34.5208328 23.1206647,34.3876675 23.506,34.229 L24.288,36.235 Z M29.9279524,35.249 C31.2086255,35.249 31.8489524,34.3876753 31.8489524,32.665 C31.8489524,30.9536581 31.2086255,30.098 29.9279524,30.098 C28.6246125,30.098 27.9729524,30.9536581 27.9729524,32.665 C27.9729524,34.3876753 28.6246125,35.249 29.9279524,35.249 Z M26.5109524,35.946 C26.1369505,35.5266646 25.8592866,35.0365028 25.6779524,34.4755 C25.4966181,33.9144972 25.4059524,33.3110032 25.4059524,32.665 C25.4059524,32.0189968 25.5051181,31.4155028 25.7034524,30.8545 C25.9017867,30.2934972 26.1907838,29.8061687 26.5704524,29.3925 C26.9501209,28.9788313 27.4204496,28.6530012 27.9814524,28.415 C28.5424552,28.1769988 29.191282,28.058 29.9279524,28.058 C30.7099563,28.058 31.3842829,28.1769988 31.9509524,28.415 C32.5176219,28.6530012 32.9822839,28.9788313 33.3449524,29.3925 C33.7076209,29.8061687 33.9767848,30.2934972 34.1524524,30.8545 C34.3281199,31.4155028 34.4159524,32.0189968 34.4159524,32.665 C34.4159524,33.3110032 34.3224533,33.9144972 34.1354524,34.4755 C33.9484514,35.0365028 33.6679543,35.5266646 33.2939524,35.946 C32.9199505,36.3653354 32.4524552,36.6939988 31.8914524,36.932 C31.3304496,37.1700012 30.6759561,37.289 29.9279524,37.289 C29.1459485,37.289 28.4744552,37.1700012 27.9134524,36.932 C27.3524496,36.6939988 26.8849543,36.3653354 26.5109524,35.946 Z M36.2139048,30.455 L35.6019048,28.84 L37.7269048,27.871 L38.2199048,28.755 C38.6165734,28.5623324 39.0245693,28.3980007 39.4439048,28.262 C39.8632402,28.1259993 40.3619019,28.058 40.9399048,28.058 C41.5745746,28.058 42.1100693,28.1458325 42.5464048,28.3215 C42.9827403,28.4971675 43.3340701,28.7408318 43.6004048,29.0525 C43.8667394,29.3641682 44.0565709,29.7296646 44.1699048,30.149 C44.2832387,30.5683354 44.3399048,31.0159976 44.3399048,31.492 L44.3399048,37 L41.8409048,37 L41.8409048,31.679 C41.8409048,31.1236639 41.7332392,30.7355011 41.5179048,30.5145 C41.3025704,30.2934989 40.9682404,30.183 40.5149048,30.183 C40.1635697,30.183 39.8434062,30.2254996 39.5544048,30.3105 C39.2654033,30.3955004 38.9849061,30.5003327 38.7129048,30.625 L38.7129048,37 L36.2139048,37 L36.2139048,30.455 Z M50.5068572,35.249 C51.7875302,35.249 52.4278572,34.3876753 52.4278572,32.665 C52.4278572,30.9536581 51.7875302,30.098 50.5068572,30.098 C49.2035173,30.098 48.5518572,30.9536581 48.5518572,32.665 C48.5518572,34.3876753 49.2035173,35.249 50.5068572,35.249 Z M47.0898572,35.946 C46.7158553,35.5266646 46.4381914,35.0365028 46.2568572,34.4755 C46.0755229,33.9144972 45.9848572,33.3110032 45.9848572,32.665 C45.9848572,32.0189968 46.0840228,31.4155028 46.2823572,30.8545 C46.4806915,30.2934972 46.7696886,29.8061687 47.1493572,29.3925 C47.5290257,28.9788313 47.9993543,28.6530012 48.5603572,28.415 C49.12136,28.1769988 49.7701868,28.058 50.5068572,28.058 C51.2888611,28.058 51.9631877,28.1769988 52.5298572,28.415 C53.0965267,28.6530012 53.5611887,28.9788313 53.9238572,29.3925 C54.2865256,29.8061687 54.5556896,30.2934972 54.7313572,30.8545 C54.9070247,31.4155028 54.9948572,32.0189968 54.9948572,32.665 C54.9948572,33.3110032 54.9013581,33.9144972 54.7143572,34.4755 C54.5273562,35.0365028 54.246859,35.5266646 53.8728572,35.946 C53.4988553,36.3653354 53.03136,36.6939988 52.4703572,36.932 C51.9093543,37.1700012 51.2548609,37.289 50.5068572,37.289 C49.7248532,37.289 49.05336,37.1700012 48.4923572,36.932 C47.9313543,36.6939988 47.463859,36.3653354 47.0898572,35.946 Z M64.3578095,36.541 C63.847807,36.7676678 63.3123123,36.9489993 62.7513095,37.085 C62.1903067,37.2210007 61.598146,37.289 60.9748095,37.289 C60.1474721,37.289 59.4334792,37.1756678 58.8328095,36.949 C58.2321399,36.7223322 57.7363115,36.4078353 57.3453095,36.0055 C56.9543076,35.6031647 56.6653105,35.1243361 56.4783095,34.569 C56.2913086,34.0136639 56.1978095,33.40167 56.1978095,32.733 C56.1978095,32.0756634 56.3054751,31.4608362 56.5208095,30.8885 C56.7361439,30.3161638 57.0478075,29.8203354 57.4558095,29.401 C57.8638116,28.9816646 58.3624733,28.6530012 58.9518095,28.415 C59.5411458,28.1769988 60.2098058,28.058 60.9578095,28.058 C61.6378129,28.058 62.2498068,28.1146661 62.7938095,28.228 C63.3378123,28.3413339 63.8251407,28.4943324 64.2558095,28.687 L63.4738095,30.625 C63.167808,30.5116661 62.9014773,30.4238336 62.6748095,30.3615 C62.4481417,30.2991664 62.2441438,30.2510002 62.0628095,30.217 C61.8814753,30.1829998 61.711477,30.1631667 61.5528095,30.1575 C61.3941421,30.1518333 61.2298104,30.149 61.0598095,30.149 C60.6858077,30.149 60.3571443,30.214166 60.0738095,30.3445 C59.7904748,30.474834 59.5496439,30.6533322 59.3513095,30.88 C59.1529752,31.1066678 59.00281,31.3758318 58.9008095,31.6875 C58.798809,31.9991682 58.7478095,32.3419981 58.7478095,32.716 C58.7478095,33.5320041 58.9688073,34.1524979 59.4108095,34.5775 C59.8528117,35.0025021 60.4138061,35.215 61.0938095,35.215 C61.2638104,35.215 61.436642,35.2065001 61.6123095,35.1895 C61.7879771,35.1724999 61.9749752,35.1413336 62.1733095,35.096 C62.3716439,35.0506664 62.5898083,34.9855004 62.8278095,34.9005 C63.0658107,34.8154996 63.3321414,34.7106673 63.6268095,34.586 L64.3578095,36.541 Z M71.1027619,31.73 C71.0914285,31.1519971 70.9497633,30.732668 70.6777619,30.472 C70.4057606,30.211332 70.0714306,30.081 69.6747619,30.081 C69.1987595,30.081 68.7964302,30.2368318 68.4677619,30.5485 C68.1390936,30.8601682 67.9577621,31.2539976 67.9237619,31.73 L71.1027619,31.73 Z M73.7037619,36.507 C73.2504263,36.6996676 72.7092651,36.8781658 72.0802619,37.0425 C71.4512588,37.2068342 70.757099,37.289 69.9977619,37.289 C69.1250909,37.289 68.3855983,37.1756678 67.7792619,36.949 C67.1729256,36.7223322 66.6799305,36.405002 66.3002619,35.997 C65.9205934,35.588998 65.6457628,35.1045028 65.4757619,34.5435 C65.3057611,33.9824972 65.2207619,33.36767 65.2207619,32.699 C65.2207619,32.0983303 65.3170943,31.5175028 65.5097619,30.9565 C65.7024295,30.3954972 65.9914267,29.8996688 66.3767619,29.469 C66.7620972,29.0383312 67.2324258,28.6955013 67.7877619,28.4405 C68.343098,28.1854987 68.9890916,28.058 69.7257619,28.058 C70.4170987,28.058 71.0120928,28.1656656 71.5107619,28.381 C72.0094311,28.5963344 72.4230936,28.9051647 72.7517619,29.3075 C73.0804302,29.7098353 73.3240945,30.1971638 73.4827619,30.7695 C73.6414294,31.3418362 73.7207619,31.9793298 73.7207619,32.682 L73.0067619,33.362 L67.8897619,33.362 C67.9124287,33.9060027 68.1249266,34.3479983 68.5272619,34.688 C68.9295973,35.0280017 69.493425,35.198 70.2187619,35.198 C70.6494307,35.198 71.0914263,35.1470005 71.5447619,35.045 C71.9980975,34.9429995 72.4967592,34.7956676 73.0407619,34.603 L73.7037619,36.507 Z M79.1016667,30.455 L78.4896667,28.84 L80.5806667,27.871 L81.0906667,28.755 C81.419335,28.5736658 81.7989979,28.4121674 82.2296667,28.2705 C82.6603355,28.1288326 83.1363307,28.058 83.6576667,28.058 C84.1676692,28.058 84.6096648,28.123166 84.9836667,28.2535 C85.3576686,28.383834 85.6636655,28.5566656 85.9016667,28.772 C86.2756686,28.6019991 86.7091642,28.4405008 87.2021667,28.2875 C87.6951692,28.1344992 88.1966641,28.058 88.7066667,28.058 C89.3300031,28.058 89.8428313,28.1458325 90.2451667,28.3215 C90.647502,28.4971675 90.9676655,28.7408318 91.2056667,29.0525 C91.4436679,29.3641682 91.6108329,29.7296646 91.7071667,30.149 C91.8035005,30.5683354 91.8516667,31.0159976 91.8516667,31.492 L91.8516667,37 L89.3696667,37 L89.3696667,31.696 C89.3696667,31.1179971 89.2790009,30.7213344 89.0976667,30.506 C88.9163324,30.2906656 88.6273353,30.183 88.2306667,30.183 C87.9813321,30.183 87.7121681,30.2169997 87.4231667,30.285 C87.1341652,30.3530003 86.8763345,30.4436661 86.6496667,30.557 C86.6950002,30.7156675 86.7233333,30.8884991 86.7346667,31.0755 C86.7460001,31.2625009 86.7516667,31.4523324 86.7516667,31.645 L86.7516667,37 L84.2526667,37 L84.2526667,31.696 C84.2526667,31.1293305 84.1733341,30.7355011 84.0146667,30.5145 C83.8559992,30.2934989 83.5613355,30.183 83.1306667,30.183 C82.8473319,30.183 82.5753347,30.2254996 82.3146667,30.3105 C82.0539987,30.3955004 81.8103345,30.4946661 81.5836667,30.608 L81.5836667,37 L79.1016667,37 L79.1016667,30.455 Z M99.5316191,36.524 C99.2369509,36.6940008 98.8431215,36.8639991 98.3501191,37.034 C97.8571166,37.2040008 97.3159553,37.289 96.7266191,37.289 C96.2619501,37.289 95.8284544,37.2380005 95.4261191,37.136 C95.0237837,37.0339995 94.6724539,36.8725011 94.3721191,36.6515 C94.0717842,36.4304989 93.8337866,36.1443351 93.6581191,35.793 C93.4824515,35.4416649 93.3946191,35.0110026 93.3946191,34.501 C93.3946191,33.9796641 93.4937847,33.5376685 93.6921191,33.175 C93.8904534,32.8123315 94.1567841,32.5205011 94.4911191,32.2995 C94.8254541,32.0784989 95.2022836,31.9198338 95.6216191,31.8235 C96.0409545,31.7271662 96.4716169,31.679 96.9136191,31.679 L98.7326191,31.679 L98.7326191,31.373 C98.7326191,30.8969976 98.602287,30.5598343 98.3416191,30.3615 C98.0809511,30.1631657 97.7239547,30.064 97.2706191,30.064 C96.919284,30.064 96.5594542,30.092333 96.1911191,30.149 C95.8227839,30.2056669 95.3552886,30.3303324 94.7886191,30.523 L94.1256191,28.721 C94.6016214,28.5396658 95.1286162,28.383834 95.7066191,28.2535 C96.284622,28.123166 96.9192823,28.058 97.6106191,28.058 C98.335956,28.058 98.9309501,28.1429991 99.3956191,28.313 C99.8602881,28.4830008 100.225784,28.7238318 100.492119,29.0355 C100.758454,29.3471682 100.942619,29.7211645 101.044619,30.1575 C101.14662,30.5938355 101.197619,31.0839973 101.197619,31.628 L101.197619,34.943 L102.030619,36.15 L100.262619,37.391 L99.5316191,36.524 Z M98.7666191,33.396 L97.0836191,33.396 C96.7209506,33.396 96.4347868,33.4866658 96.2251191,33.668 C96.0154514,33.8493342 95.9106191,34.0986651 95.9106191,34.416 C95.9106191,34.7673351 96.0154514,35.0308325 96.2251191,35.2065 C96.4347868,35.3821675 96.7322838,35.47 97.1176191,35.47 C97.4576208,35.47 97.7607844,35.4246671 98.0271191,35.334 C98.2934537,35.2433329 98.5399513,35.1243341 98.7666191,34.977 L98.7666191,33.396 Z M98.4096191,22.941 L100.330619,24.284 L97.6276191,27.378 L96.1826191,26.358 L98.4096191,22.941 Z M103.335571,34.603 C103.403572,34.6370002 103.536737,34.6879997 103.735071,34.756 C103.933406,34.8240003 104.16857,34.894833 104.440571,34.9685 C104.712573,35.042167 105.007237,35.1044997 105.324571,35.1555 C105.641906,35.2065003 105.95357,35.232 106.259571,35.232 C106.701574,35.232 107.05007,35.1611674 107.305071,35.0195 C107.560073,34.8778326 107.687571,34.6936678 107.687571,34.467 C107.687571,34.3196659 107.650738,34.2035004 107.577071,34.1185 C107.503404,34.0334996 107.387239,33.9626669 107.228571,33.906 C107.069904,33.849333 106.871573,33.7926669 106.633571,33.736 C106.39557,33.679333 106.11224,33.6113337 105.783571,33.532 C105.51157,33.4639997 105.21974,33.3846671 104.908071,33.294 C104.596403,33.2033329 104.304573,33.0673342 104.032571,32.886 C103.76057,32.7046658 103.533906,32.4610015 103.352571,32.155 C103.171237,31.8489985 103.080571,31.4466692 103.080571,30.948 C103.080571,30.5513313 103.154237,30.1773351 103.301571,29.826 C103.448906,29.4746649 103.672737,29.168668 103.973071,28.908 C104.273406,28.647332 104.658736,28.4405008 105.129071,28.2875 C105.599407,28.1344992 106.157568,28.058 106.803571,28.058 C107.551575,28.058 108.223068,28.1344992 108.818071,28.2875 C109.413074,28.4405008 109.874903,28.5963325 110.203571,28.755 L109.506571,30.591 C109.064569,30.4323325 108.625407,30.3076671 108.189071,30.217 C107.752736,30.1263329 107.324907,30.081 106.905571,30.081 C106.021567,30.081 105.579571,30.313331 105.579571,30.778 C105.579571,30.9366675 105.624904,31.0641662 105.715571,31.1605 C105.806239,31.2568338 105.925237,31.3361664 106.072571,31.3985 C106.219906,31.4608336 106.392737,31.5146664 106.591071,31.56 C106.789406,31.6053336 106.996237,31.6506664 107.211571,31.696 C107.57424,31.7753337 107.93407,31.8631662 108.291071,31.9595 C108.648073,32.0558338 108.97107,32.1974991 109.260071,32.3845 C109.549073,32.5715009 109.781404,32.8208318 109.957071,33.1325 C110.132739,33.4441682 110.220571,33.8493308 110.220571,34.348 C110.220571,35.2320044 109.880575,35.943164 109.200571,36.4815 C108.520568,37.019836 107.500578,37.289 106.140571,37.289 C105.76657,37.289 105.39824,37.2635003 105.035571,37.2125 C104.672903,37.1614997 104.338573,37.1020003 104.032571,37.034 C103.72657,36.9659997 103.463073,36.895167 103.242071,36.8215 C103.02107,36.747833 102.859572,36.6883336 102.757571,36.643 L103.335571,34.603 Z" id="Conocemás"></path>
            <rect id="Rectangle" x="124" y="9" width="1" height="44"></rect>
        </g>
    </g>
</svg>