<svg id="tw" xmlns="http://www.w3.org/2000/svg" width="38" height="38" viewBox="0 0 38 38">
  <defs>
    <style>
      .cls-1 {
        fill: none;
        stroke: #fff;
        stroke-width: 2px;
      }

      .cls-2 {
        fill: #fff;
        fill-rule: evenodd;
      }
    </style>
  </defs>
  <circle id="_0_F" data-name="0 F" class="cls-1" cx="19" cy="19" r="18"/>
  <path id="F" class="cls-2" d="M984.763,986.067v8.7a0.222,0.222,0,0,0,.217.227h3.092a0.222,0.222,0,0,0,.216-0.227v-8.843h2.242a0.222,0.222,0,0,0,.216-0.208l0.216-2.664a0.224,0.224,0,0,0-.217-0.246h-2.457v-1.89a0.786,0.786,0,0,1,.768-0.8h1.727a0.222,0.222,0,0,0,.217-0.227v-2.664a0.222,0.222,0,0,0-.217-0.227h-2.919a3.175,3.175,0,0,0-3.1,3.242v2.568h-1.546a0.222,0.222,0,0,0-.217.227V985.7a0.221,0.221,0,0,0,.217.226h1.546v0.142Z" transform="translate(-968 -967)"/>
</svg>
