<?xml version="1.0" encoding="UTF-8"?>
<svg width="466px" height="79px" viewBox="0 0 466 79" version="1.1" xmlns="http://www.w3.org/2000/svg" xmlns:xlink="http://www.w3.org/1999/xlink">
    <!-- Generator: Sketch 52.2 (67145) - http://www.bohemiancoding.com/sketch -->
    <title>Slice 1</title>
    <desc>Created with Sketch.</desc>
    <defs>
        <path d="M3.29492188,23.7646484 C3.29492188,21.9274088 3.56608064,20.2312826 4.10839844,18.6762695 C4.65071623,17.1212564 5.45589201,15.7765299 6.52392578,14.6420898 C7.59195955,13.5076498 8.91731779,12.625 10.5,11.9941406 C12.0826822,11.3632812 13.9199219,11.0478516 16.0117188,11.0478516 C17.7161459,11.0478516 19.2185873,11.2166342 20.519043,11.5541992 C21.8194986,11.8917642 23.0452475,12.3095703 24.1962891,12.8076172 L22.6357422,16.9248047 C21.8167319,16.5817056 21.0973306,16.3160806 20.4775391,16.1279297 C19.8577475,15.9397787 19.2877603,15.7931314 18.7675781,15.6879883 C18.2473959,15.5828451 17.7604166,15.5136719 17.3066406,15.4804688 C16.8528647,15.4472656 16.3880209,15.4306641 15.9121094,15.4306641 C13.5768228,15.4306641 11.7838541,16.150065 10.5332031,17.5888672 C9.28255217,19.0276694 8.65722656,21.0862631 8.65722656,23.7646484 C8.65722656,26.6201172 9.28255217,28.7395834 10.5332031,30.1230469 C11.7838541,31.5065103 13.5657553,32.1982422 15.8789062,32.1982422 C16.531901,32.1982422 17.1295572,32.1622721 17.671875,32.090332 C18.2141928,32.018392 18.7537436,31.9160156 19.2905273,31.7832031 C19.8273111,31.6503906 20.3889975,31.4760742 20.9755859,31.2602539 C21.5621744,31.0444336 22.2428385,30.7760416 23.0175781,30.4550781 L24.578125,34.4726562 C23.8476562,34.8157553 23.1420898,35.1173502 22.4614258,35.3774414 C21.7807617,35.6375326 21.0779623,35.8561197 20.3530273,36.0332031 C19.6280924,36.2102865 18.8754883,36.3458658 18.0952148,36.4399414 C17.3149414,36.534017 16.4599609,36.5810547 15.5302734,36.5810547 C13.2835287,36.5810547 11.3854166,36.2573242 9.8359375,35.6098633 C8.28645842,34.9624023 7.03027344,34.065918 6.06738281,32.9204102 C5.10449219,31.7749023 4.40169279,30.421875 3.95898438,28.8613281 C3.51627596,27.3007812 3.29492188,25.6018881 3.29492188,23.7646484 Z M26.8857422,23.7978516 C26.8857422,22.1708984 27.1070963,20.590983 27.5498047,19.0581055 C27.9925131,17.5252279 28.6953125,16.1638998 29.6582031,14.9741211 C30.6210938,13.7843424 31.8496094,12.8325195 33.34375,12.1186523 C34.8378906,11.4047852 36.6419272,11.0478516 38.7558594,11.0478516 C40.9583334,11.0478516 42.8121744,11.4047852 44.3173828,12.1186523 C45.8225912,12.8325195 47.0400391,13.7843424 47.9697266,14.9741211 C48.8994141,16.1638998 49.5717773,17.5224609 49.9868164,19.0498047 C50.4018555,20.5771484 50.609375,22.1598306 50.609375,23.7978516 C50.609375,25.4248047 50.3880209,27.0102539 49.9453125,28.5541992 C49.5026041,30.0981445 48.7998047,31.4650064 47.8369141,32.6547852 C46.8740234,33.8445639 45.6455078,34.7963867 44.1513672,35.5102539 C42.6572266,36.2241211 40.858724,36.5810547 38.7558594,36.5810547 C36.5533853,36.5810547 34.6995444,36.2213541 33.1943359,35.5019531 C31.6891275,34.7825522 30.4606119,33.8362631 29.5087891,32.6630859 C28.5569662,31.4345703 27.8818359,30.0566406 27.4833984,28.5292969 C27.0849609,27.0019531 26.8857422,25.4248047 26.8857422,23.7978516 Z M32.2480469,23.7978516 C32.2480469,25.568685 32.5358072,27.1292319 33.1113281,28.4794922 C33.686849,29.8297525 34.5888672,30.8424478 35.8173828,31.5175781 C36.6142578,31.9492188 37.59375,32.1650391 38.7558594,32.1650391 C39.8847656,32.1650391 40.855957,31.943685 41.6694336,31.5009766 C42.4829102,31.0582681 43.1580404,30.4633789 43.6948242,29.7163086 C44.231608,28.9692383 44.6245117,28.0838217 44.8735352,27.0600586 C45.1225586,26.0362955 45.2470703,24.9488931 45.2470703,23.7978516 C45.2470703,22.64681 45.1225586,21.5649414 44.8735352,20.5522461 C44.6245117,19.5395508 44.231608,18.6541342 43.6948242,17.8959961 C43.1580404,17.137858 42.4829102,16.5429688 41.6694336,16.1113281 C40.855957,15.6796875 39.8847656,15.4638672 38.7558594,15.4638672 C37.6269531,15.4638672 36.6529947,15.6796875 35.8339844,16.1113281 C35.014974,16.5429688 34.3370767,17.137858 33.800293,17.8959961 C33.2635092,18.6541342 32.8706055,19.5367838 32.621582,20.5439453 C32.3725586,21.5511069 32.2480469,22.6357422 32.2480469,23.7978516 Z M54.2451172,36 L54.2451172,11.4794922 L59.4580078,11.4794922 L70,29.7744141 L70,11.4794922 L74.9140625,11.4794922 L74.9140625,30.2890625 C74.9140625,30.8535156 74.8863931,31.4484049 74.8310547,32.0737305 C74.7757162,32.6990561 74.703776,33.1666666 74.6152344,33.4765625 C74.438151,34.0852865 74.2057291,34.5722656 73.9179688,34.9375 C73.6302084,35.3027344 73.3286133,35.5766602 73.0131836,35.7592773 C72.6977539,35.9418945 72.3823242,36.0553385 72.0668945,36.0996094 C71.7514648,36.1438803 71.4664713,36.1660156 71.2119141,36.1660156 C70.2600912,36.1660156 69.4217123,35.8782553 68.6967773,35.3027344 C67.9718424,34.7272135 67.1998697,33.7366537 66.3808594,32.3310547 L59.2089844,20.4277344 L59.2089844,36 L54.2451172,36 Z M78.5498047,23.7978516 C78.5498047,22.1708984 78.7711588,20.590983 79.2138672,19.0581055 C79.6565756,17.5252279 80.359375,16.1638998 81.3222656,14.9741211 C82.2851562,13.7843424 83.5136719,12.8325195 85.0078125,12.1186523 C86.5019531,11.4047852 88.3059897,11.0478516 90.4199219,11.0478516 C92.6223959,11.0478516 94.4762369,11.4047852 95.9814453,12.1186523 C97.4866537,12.8325195 98.7041016,13.7843424 99.6337891,14.9741211 C100.563477,16.1638998 101.23584,17.5224609 101.650879,19.0498047 C102.065918,20.5771484 102.273438,22.1598306 102.273438,23.7978516 C102.273438,25.4248047 102.052083,27.0102539 101.609375,28.5541992 C101.166667,30.0981445 100.463867,31.4650064 99.5009766,32.6547852 C98.5380859,33.8445639 97.3095703,34.7963867 95.8154297,35.5102539 C94.3212891,36.2241211 92.5227865,36.5810547 90.4199219,36.5810547 C88.2174478,36.5810547 86.3636069,36.2213541 84.8583984,35.5019531 C83.35319,34.7825522 82.1246744,33.8362631 81.1728516,32.6630859 C80.2210287,31.4345703 79.5458984,30.0566406 79.1474609,28.5292969 C78.7490234,27.0019531 78.5498047,25.4248047 78.5498047,23.7978516 Z M83.9121094,23.7978516 C83.9121094,25.568685 84.1998697,27.1292319 84.7753906,28.4794922 C85.3509115,29.8297525 86.2529297,30.8424478 87.4814453,31.5175781 C88.2783203,31.9492188 89.2578125,32.1650391 90.4199219,32.1650391 C91.5488281,32.1650391 92.5200195,31.943685 93.3334961,31.5009766 C94.1469727,31.0582681 94.8221029,30.4633789 95.3588867,29.7163086 C95.8956705,28.9692383 96.2885742,28.0838217 96.5375977,27.0600586 C96.7866211,26.0362955 96.9111328,24.9488931 96.9111328,23.7978516 C96.9111328,22.64681 96.7866211,21.5649414 96.5375977,20.5522461 C96.2885742,19.5395508 95.8956705,18.6541342 95.3588867,17.8959961 C94.8221029,17.137858 94.1469727,16.5429688 93.3334961,16.1113281 C92.5200195,15.6796875 91.5488281,15.4638672 90.4199219,15.4638672 C89.2910156,15.4638672 88.3170572,15.6796875 87.4980469,16.1113281 C86.6790365,16.5429688 86.0011392,17.137858 85.4643555,17.8959961 C84.9275717,18.6541342 84.534668,19.5367838 84.2856445,20.5439453 C84.0366211,21.5511069 83.9121094,22.6357422 83.9121094,23.7978516 Z M86.9003906,7.81054688 L92.4453125,1.90039062 L95.6494141,4.921875 L89.4902344,10.0517578 L86.9003906,7.81054688 Z M104.830078,23.7646484 C104.830078,21.9274088 105.101237,20.2312826 105.643555,18.6762695 C106.185872,17.1212564 106.991048,15.7765299 108.059082,14.6420898 C109.127116,13.5076498 110.452474,12.625 112.035156,11.9941406 C113.617838,11.3632812 115.455078,11.0478516 117.546875,11.0478516 C119.251302,11.0478516 120.753744,11.2166342 122.054199,11.5541992 C123.354655,11.8917642 124.580404,12.3095703 125.731445,12.8076172 L124.170898,16.9248047 C123.351888,16.5817056 122.632487,16.3160806 122.012695,16.1279297 C121.392904,15.9397787 120.822917,15.7931314 120.302734,15.6879883 C119.782552,15.5828451 119.295573,15.5136719 118.841797,15.4804688 C118.388021,15.4472656 117.923177,15.4306641 117.447266,15.4306641 C115.111979,15.4306641 113.31901,16.150065 112.068359,17.5888672 C110.817708,19.0276694 110.192383,21.0862631 110.192383,23.7646484 C110.192383,26.6201172 110.817708,28.7395834 112.068359,30.1230469 C113.31901,31.5065103 115.100912,32.1982422 117.414062,32.1982422 C118.067057,32.1982422 118.664713,32.1622721 119.207031,32.090332 C119.749349,32.018392 120.2889,31.9160156 120.825684,31.7832031 C121.362467,31.6503906 121.924154,31.4760742 122.510742,31.2602539 C123.097331,31.0444336 123.777995,30.7760416 124.552734,30.4550781 L126.113281,34.4726562 C125.382812,34.8157553 124.677246,35.1173502 123.996582,35.3774414 C123.315918,35.6375326 122.613119,35.8561197 121.888184,36.0332031 C121.163249,36.2102865 120.410645,36.3458658 119.630371,36.4399414 C118.850098,36.534017 117.995117,36.5810547 117.06543,36.5810547 C114.818685,36.5810547 112.920573,36.2573242 111.371094,35.6098633 C109.821615,34.9624023 108.56543,34.065918 107.602539,32.9204102 C106.639648,31.7749023 105.936849,30.421875 105.494141,28.8613281 C105.051432,27.3007812 104.830078,25.6018881 104.830078,23.7646484 Z M129.466797,36 L129.466797,11.4794922 L147.081055,11.4794922 L147.081055,15.7958984 L134.49707,15.7958984 L134.49707,21.0419922 L144.225586,21.0419922 L144.225586,25.3916016 L134.49707,25.3916016 L134.49707,31.6835938 L147.363281,31.6835938 L147.363281,36 L129.466797,36 Z M150.949219,36 L150.949219,11.4794922 L156.012695,11.4794922 L156.012695,31.6835938 L168.845703,31.6835938 L168.845703,36 L150.949219,36 Z M170.738281,23.7978516 C170.738281,22.1708984 170.959635,20.590983 171.402344,19.0581055 C171.845052,17.5252279 172.547852,16.1638998 173.510742,14.9741211 C174.473633,13.7843424 175.702148,12.8325195 177.196289,12.1186523 C178.69043,11.4047852 180.494466,11.0478516 182.608398,11.0478516 C184.810872,11.0478516 186.664713,11.4047852 188.169922,12.1186523 C189.67513,12.8325195 190.892578,13.7843424 191.822266,14.9741211 C192.751953,16.1638998 193.424316,17.5224609 193.839355,19.0498047 C194.254395,20.5771484 194.461914,22.1598306 194.461914,23.7978516 C194.461914,25.4248047 194.24056,27.0102539 193.797852,28.5541992 C193.355143,30.0981445 192.652344,31.4650064 191.689453,32.6547852 C190.726562,33.8445639 189.498047,34.7963867 188.003906,35.5102539 C186.509766,36.2241211 184.711263,36.5810547 182.608398,36.5810547 C180.405924,36.5810547 178.552083,36.2213541 177.046875,35.5019531 C175.541667,34.7825522 174.313151,33.8362631 173.361328,32.6630859 C172.409505,31.4345703 171.734375,30.0566406 171.335938,28.5292969 C170.9375,27.0019531 170.738281,25.4248047 170.738281,23.7978516 Z M176.100586,23.7978516 C176.100586,25.568685 176.388346,27.1292319 176.963867,28.4794922 C177.539388,29.8297525 178.441406,30.8424478 179.669922,31.5175781 C180.466797,31.9492188 181.446289,32.1650391 182.608398,32.1650391 C183.737305,32.1650391 184.708496,31.943685 185.521973,31.5009766 C186.335449,31.0582681 187.01058,30.4633789 187.547363,29.7163086 C188.084147,28.9692383 188.477051,28.0838217 188.726074,27.0600586 C188.975098,26.0362955 189.099609,24.9488931 189.099609,23.7978516 C189.099609,22.64681 188.975098,21.5649414 188.726074,20.5522461 C188.477051,19.5395508 188.084147,18.6541342 187.547363,17.8959961 C187.01058,17.137858 186.335449,16.5429688 185.521973,16.1113281 C184.708496,15.6796875 183.737305,15.4638672 182.608398,15.4638672 C181.479492,15.4638672 180.505534,15.6796875 179.686523,16.1113281 C178.867513,16.5429688 178.189616,17.137858 177.652832,17.8959961 C177.116048,18.6541342 176.723145,19.5367838 176.474121,20.5439453 C176.225098,21.5511069 176.100586,22.6357422 176.100586,23.7978516 Z M196.4375,34.7382812 L197.865234,30.421875 C200.787109,31.5950522 203.448893,32.1871744 205.850586,32.1982422 C207.687826,32.1982422 209.027018,31.9132486 209.868164,31.3432617 C210.70931,30.7732748 211.129883,30.0013022 211.129883,29.0273438 C211.129883,28.485026 211.005371,28.0257162 210.756348,27.6494141 C210.507324,27.2731119 210.155924,26.9604492 209.702148,26.7114258 C209.248372,26.4624023 208.697754,26.2548828 208.050293,26.0888672 C207.402832,25.9228516 206.691732,25.7679037 205.916992,25.6240234 C204.898763,25.44694 203.886068,25.2172852 202.878906,24.9350586 C201.871745,24.652832 200.978027,24.2516275 200.197754,23.7314453 C199.41748,23.2112631 198.783854,22.5416666 198.296875,21.7226562 C197.809896,20.9036459 197.566406,19.868815 197.566406,18.6181641 C197.566406,17.5335287 197.746256,16.531901 198.105957,15.6132812 C198.465658,14.6946615 199.046712,13.8950195 199.849121,13.2143555 C200.65153,12.5336914 201.700195,12.0024414 202.995117,11.6206055 C204.290039,11.2387695 205.85612,11.0478516 207.693359,11.0478516 C209.320312,11.0478516 210.85319,11.2166342 212.291992,11.5541992 C213.730794,11.8917642 215.009115,12.287435 216.126953,12.7412109 L214.865234,16.8916016 C213.503906,16.41569 212.211751,16.0476889 210.98877,15.7875977 C209.765788,15.5275064 208.573242,15.3974609 207.411133,15.3974609 C205.850586,15.3974609 204.702311,15.6298828 203.966309,16.0947266 C203.230306,16.5595703 202.862305,17.2347006 202.862305,18.1201172 C202.862305,19.07194 203.288412,19.7498373 204.140625,20.1538086 C204.992838,20.5577799 206.177083,20.8981119 207.693359,21.1748047 C208.733724,21.3740234 209.774088,21.6175131 210.814453,21.9052734 C211.854818,22.1930338 212.795573,22.6080728 213.636719,23.1503906 C214.477865,23.6927084 215.158529,24.4010416 215.678711,25.2753906 C216.198893,26.1497397 216.458984,27.2786459 216.458984,28.6621094 C216.458984,29.8684897 216.226562,30.955892 215.761719,31.9243164 C215.296875,32.8927408 214.616211,33.7228189 213.719727,34.4145508 C212.823242,35.1062826 211.719238,35.6402994 210.407715,36.0166016 C209.096191,36.3929037 207.577148,36.5810547 205.850586,36.5810547 C204.810221,36.5810547 203.814128,36.5174154 202.862305,36.3901367 C201.910482,36.262858 201.033366,36.1106772 200.230957,35.9335938 C199.428548,35.7565103 198.703613,35.5600586 198.056152,35.3442383 C197.408691,35.128418 196.869141,34.9264322 196.4375,34.7382812 Z M224.792969,13.0234375 L229.358398,11.1142578 L234.488281,22.1542969 C234.742838,22.6744791 234.978027,23.0148111 235.193848,23.175293 C235.409668,23.3357748 235.661458,23.4160156 235.949219,23.4160156 C236.292318,23.4160156 236.566244,23.3330078 236.770996,23.1669922 C236.975749,23.0009766 237.19987,22.6523438 237.443359,22.1210938 L242.623047,11.1142578 L247.171875,12.9404297 L242.506836,22.984375 C241.942383,24.2128906 241.366862,25.2172852 240.780273,25.9975586 C240.193685,26.777832 239.413412,27.3450522 238.439453,27.6992188 L238.439453,36 L233.292969,36 L233.292969,27.7324219 C232.363281,27.4114584 231.621745,26.8857422 231.068359,26.1552734 C230.514974,25.4248047 229.967122,24.4563803 229.424805,23.25 L224.792969,13.0234375 Z M256.634766,36 L256.634766,11.4794922 L266.77832,11.4794922 C268.704102,11.4794922 270.419596,11.7755533 271.924805,12.3676758 C273.430013,12.9597983 274.697266,13.7871094 275.726562,14.8496094 C276.755859,15.9121094 277.544434,17.1931967 278.092285,18.6928711 C278.640137,20.1925455 278.914062,21.849935 278.914062,23.6650391 C278.914062,25.4580078 278.670573,27.1070963 278.183594,28.6123047 C277.696615,30.1175131 276.952311,31.4179688 275.950684,32.5136719 C274.949056,33.609375 273.68457,34.4643555 272.157227,35.0786133 C270.629883,35.6928711 268.836914,36 266.77832,36 L256.634766,36 Z M261.748047,31.6835938 L266.529297,31.6835938 C268.776042,31.6835938 270.505371,31.0665689 271.717285,29.8325195 C272.929199,28.5984701 273.535156,26.5979819 273.535156,23.8310547 C273.535156,21.0419922 272.923665,19.0055338 271.700684,17.7216797 C270.477702,16.4378256 268.753906,15.7958984 266.529297,15.7958984 L261.748047,15.7958984 L261.748047,31.6835938 Z M282.533203,36 L282.533203,11.4794922 L300.147461,11.4794922 L300.147461,15.7958984 L287.563477,15.7958984 L287.563477,21.0419922 L297.291992,21.0419922 L297.291992,25.3916016 L287.563477,25.3916016 L287.563477,31.6835938 L300.429688,31.6835938 L300.429688,36 L282.533203,36 Z M302.355469,34.7382812 L303.783203,30.421875 C306.705078,31.5950522 309.366862,32.1871744 311.768555,32.1982422 C313.605794,32.1982422 314.944987,31.9132486 315.786133,31.3432617 C316.627279,30.7732748 317.047852,30.0013022 317.047852,29.0273438 C317.047852,28.485026 316.92334,28.0257162 316.674316,27.6494141 C316.425293,27.2731119 316.073893,26.9604492 315.620117,26.7114258 C315.166341,26.4624023 314.615723,26.2548828 313.968262,26.0888672 C313.320801,25.9228516 312.609701,25.7679037 311.834961,25.6240234 C310.816732,25.44694 309.804037,25.2172852 308.796875,24.9350586 C307.789713,24.652832 306.895996,24.2516275 306.115723,23.7314453 C305.335449,23.2112631 304.701823,22.5416666 304.214844,21.7226562 C303.727865,20.9036459 303.484375,19.868815 303.484375,18.6181641 C303.484375,17.5335287 303.664225,16.531901 304.023926,15.6132812 C304.383626,14.6946615 304.964681,13.8950195 305.76709,13.2143555 C306.569499,12.5336914 307.618164,12.0024414 308.913086,11.6206055 C310.208008,11.2387695 311.774088,11.0478516 313.611328,11.0478516 C315.238281,11.0478516 316.771159,11.2166342 318.209961,11.5541992 C319.648763,11.8917642 320.927083,12.287435 322.044922,12.7412109 L320.783203,16.8916016 C319.421875,16.41569 318.12972,16.0476889 316.906738,15.7875977 C315.683756,15.5275064 314.491211,15.3974609 313.329102,15.3974609 C311.768555,15.3974609 310.62028,15.6298828 309.884277,16.0947266 C309.148275,16.5595703 308.780273,17.2347006 308.780273,18.1201172 C308.780273,19.07194 309.20638,19.7498373 310.058594,20.1538086 C310.910807,20.5577799 312.095052,20.8981119 313.611328,21.1748047 C314.651693,21.3740234 315.692057,21.6175131 316.732422,21.9052734 C317.772787,22.1930338 318.713542,22.6080728 319.554688,23.1503906 C320.395833,23.6927084 321.076497,24.4010416 321.59668,25.2753906 C322.116862,26.1497397 322.376953,27.2786459 322.376953,28.6621094 C322.376953,29.8684897 322.144531,30.955892 321.679688,31.9243164 C321.214844,32.8927408 320.53418,33.7228189 319.637695,34.4145508 C318.741211,35.1062826 317.637207,35.6402994 316.325684,36.0166016 C315.01416,36.3929037 313.495117,36.5810547 311.768555,36.5810547 C310.72819,36.5810547 309.732096,36.5174154 308.780273,36.3901367 C307.828451,36.262858 306.951335,36.1106772 306.148926,35.9335938 C305.346517,35.7565103 304.621582,35.5600586 303.974121,35.3442383 C303.32666,35.128418 302.787109,34.9264322 302.355469,34.7382812 Z M324.883789,23.7646484 C324.883789,21.9274088 325.154948,20.2312826 325.697266,18.6762695 C326.239583,17.1212564 327.044759,15.7765299 328.112793,14.6420898 C329.180827,13.5076498 330.506185,12.625 332.088867,11.9941406 C333.671549,11.3632812 335.508789,11.0478516 337.600586,11.0478516 C339.305013,11.0478516 340.807455,11.2166342 342.10791,11.5541992 C343.408366,11.8917642 344.634115,12.3095703 345.785156,12.8076172 L344.224609,16.9248047 C343.405599,16.5817056 342.686198,16.3160806 342.066406,16.1279297 C341.446615,15.9397787 340.876628,15.7931314 340.356445,15.6879883 C339.836263,15.5828451 339.349284,15.5136719 338.895508,15.4804688 C338.441732,15.4472656 337.976888,15.4306641 337.500977,15.4306641 C335.16569,15.4306641 333.372721,16.150065 332.12207,17.5888672 C330.871419,19.0276694 330.246094,21.0862631 330.246094,23.7646484 C330.246094,26.6201172 330.871419,28.7395834 332.12207,30.1230469 C333.372721,31.5065103 335.154622,32.1982422 337.467773,32.1982422 C338.120768,32.1982422 338.718424,32.1622721 339.260742,32.090332 C339.80306,32.018392 340.342611,31.9160156 340.879395,31.7832031 C341.416178,31.6503906 341.977865,31.4760742 342.564453,31.2602539 C343.151042,31.0444336 343.831706,30.7760416 344.606445,30.4550781 L346.166992,34.4726562 C345.436523,34.8157553 344.730957,35.1173502 344.050293,35.3774414 C343.369629,35.6375326 342.66683,35.8561197 341.941895,36.0332031 C341.21696,36.2102865 340.464355,36.3458658 339.684082,36.4399414 C338.903809,36.534017 338.048828,36.5810547 337.119141,36.5810547 C334.872396,36.5810547 332.974284,36.2573242 331.424805,35.6098633 C329.875326,34.9624023 328.619141,34.065918 327.65625,32.9204102 C326.693359,31.7749023 325.99056,30.421875 325.547852,28.8613281 C325.105143,27.3007812 324.883789,25.6018881 324.883789,23.7646484 Z M349.420898,25.8398438 L349.420898,11.4794922 L354.517578,11.4794922 L354.517578,25.1259766 C354.517578,26.2327475 354.581217,27.2288412 354.708496,28.1142578 C354.835775,28.9996744 355.084798,29.7467447 355.455566,30.3554688 C355.826335,30.9641928 356.340983,31.4345703 356.999512,31.7666016 C357.65804,32.0986328 358.535156,32.2646484 359.630859,32.2646484 C360.693359,32.2646484 361.553874,32.0986328 362.212402,31.7666016 C362.870931,31.4345703 363.38558,30.9697266 363.756348,30.3720703 C364.127116,29.7744141 364.376139,29.0439453 364.503418,28.1806641 C364.630697,27.3173828 364.694336,26.3544922 364.694336,25.2919922 L364.694336,11.4794922 L369.824219,11.4794922 L369.824219,25.3916016 C369.824219,27.0185547 369.683105,28.5182291 369.400879,29.890625 C369.118652,31.2630209 368.59847,32.4417319 367.840332,33.4267578 C367.082194,34.4117838 366.039062,35.1837564 364.710938,35.7426758 C363.382812,36.3015951 361.689453,36.5810547 359.630859,36.5810547 C357.527995,36.5810547 355.809733,36.3320312 354.476074,35.8339844 C353.142415,35.3359375 352.102051,34.6220703 351.35498,33.6923828 C350.60791,32.7626953 350.098795,31.6337891 349.827637,30.3056641 C349.556478,28.9775391 349.420898,27.4889322 349.420898,25.8398438 Z M374.40625,36 L374.40625,11.4794922 L384.101562,11.4794922 C385.27474,11.4794922 386.37321,11.5929361 387.396973,11.8198242 C388.420736,12.0467123 389.311686,12.4091797 390.069824,12.9072266 C390.827962,13.4052734 391.422852,14.0527344 391.854492,14.8496094 C392.286133,15.6464844 392.501953,16.5983072 392.501953,17.7050781 C392.501953,18.3138022 392.421712,18.8810221 392.26123,19.4067383 C392.100749,19.9324545 391.884928,20.4111328 391.61377,20.8427734 C391.342611,21.2744141 391.038249,21.659017 390.700684,21.996582 C390.363119,22.3341471 390.011719,22.6246744 389.646484,22.8681641 C390.188802,23.0673828 390.703451,23.3385416 391.19043,23.6816406 C391.677409,24.0247397 392.114583,24.4397787 392.501953,24.9267578 C392.889323,25.4137369 393.196452,25.9698892 393.42334,26.5952148 C393.650228,27.2205404 393.763672,27.9205728 393.763672,28.6953125 C393.763672,29.8684897 393.553385,30.9088541 393.132812,31.8164062 C392.71224,32.7239584 392.122884,33.4903971 391.364746,34.1157227 C390.606608,34.7410483 389.699056,35.2114258 388.64209,35.5268555 C387.585124,35.8422852 386.420247,36 385.147461,36 L374.40625,36 Z M379.436523,31.75 L384.682617,31.75 C385.722982,31.75 386.616699,31.5065103 387.36377,31.0195312 C388.11084,30.5325522 388.484375,29.7246094 388.484375,28.5957031 C388.484375,27.9648438 388.365397,27.4363608 388.127441,27.0102539 C387.889486,26.5841471 387.565755,26.2521158 387.15625,26.0141602 C386.746745,25.7762045 386.259766,25.6129556 385.695312,25.5244141 C385.130859,25.4358725 384.533203,25.3916016 383.902344,25.3916016 L379.436523,25.3916016 L379.436523,31.75 Z M379.436523,21.3408203 L383.686523,21.3408203 C384.704753,21.3408203 385.568034,21.125 386.276367,20.6933594 C386.984701,20.2617188 387.338867,19.5146484 387.338867,18.4521484 C387.338867,17.3453775 386.962565,16.6149088 386.209961,16.2607422 C385.457357,15.9065756 384.333984,15.7294922 382.839844,15.7294922 L379.436523,15.7294922 L379.436523,21.3408203 Z M397.283203,36 L397.283203,11.4794922 L406.646484,11.4794922 C407.819662,11.4794922 408.920898,11.5984701 409.950195,11.8364258 C410.979492,12.0743814 411.875977,12.4728189 412.639648,13.0317383 C413.40332,13.5906576 413.99821,14.3183594 414.424316,15.2148438 C414.850423,16.1113281 415.063477,17.212565 415.063477,18.5185547 C415.063477,19.4039713 414.922363,20.2312826 414.640137,21.0004883 C414.35791,21.7696939 413.978841,22.4614258 413.50293,23.0756836 C413.027018,23.6899414 412.473633,24.2128906 411.842773,24.6445312 C411.211914,25.0761719 410.553385,25.4026694 409.867188,25.6240234 C410.254557,25.8011069 410.600423,26.0390625 410.904785,26.3378906 C411.209147,26.6367188 411.532878,26.9908853 411.875977,27.4003906 L417.288086,33.6923828 L413.370117,36.5146484 L407.310547,29.4091797 C406.901042,28.9332681 406.538574,28.5348306 406.223145,28.2138672 C405.907715,27.8929037 405.61442,27.6383463 405.343262,27.4501953 C405.072103,27.2620444 404.800944,27.1319986 404.529785,27.0600586 C404.258626,26.9881186 403.951497,26.9521484 403.608398,26.9521484 L402.396484,26.9521484 L402.396484,36 L397.283203,36 Z M402.396484,22.7021484 L405.683594,22.7021484 C406.978516,22.7021484 408.005045,22.4088541 408.763184,21.8222656 C409.521322,21.2356772 409.900391,20.3613281 409.900391,19.1992188 C409.900391,18.46875 409.798014,17.8738608 409.593262,17.4145508 C409.388509,16.9552408 409.106283,16.5955404 408.746582,16.3354492 C408.386881,16.075358 407.94694,15.8982748 407.426758,15.8041992 C406.906576,15.7101236 406.325521,15.6630859 405.683594,15.6630859 L402.396484,15.6630859 L402.396484,22.7021484 Z M419.960938,36 L419.960938,11.4794922 L437.575195,11.4794922 L437.575195,15.7958984 L424.991211,15.7958984 L424.991211,21.0419922 L434.719727,21.0419922 L434.719727,25.3916016 L424.991211,25.3916016 L424.991211,31.6835938 L437.857422,31.6835938 L437.857422,36 L419.960938,36 Z M3.29492188,60.7646484 C3.29492188,58.9274088 3.56608064,57.2312826 4.10839844,55.6762695 C4.65071623,54.1212564 5.45589201,52.7765299 6.52392578,51.6420898 C7.59195955,50.5076498 8.91731779,49.625 10.5,48.9941406 C12.0826822,48.3632812 13.9199219,48.0478516 16.0117188,48.0478516 C17.7161459,48.0478516 19.2185873,48.2166342 20.519043,48.5541992 C21.8194986,48.8917642 23.0452475,49.3095703 24.1962891,49.8076172 L22.6357422,53.9248047 C21.8167319,53.5817056 21.0973306,53.3160806 20.4775391,53.1279297 C19.8577475,52.9397787 19.2877603,52.7931314 18.7675781,52.6879883 C18.2473959,52.5828451 17.7604166,52.5136719 17.3066406,52.4804688 C16.8528647,52.4472656 16.3880209,52.4306641 15.9121094,52.4306641 C13.5768228,52.4306641 11.7838541,53.150065 10.5332031,54.5888672 C9.28255217,56.0276694 8.65722656,58.0862631 8.65722656,60.7646484 C8.65722656,63.6201172 9.28255217,65.7395834 10.5332031,67.1230469 C11.7838541,68.5065103 13.5657553,69.1982422 15.8789062,69.1982422 C16.531901,69.1982422 17.1295572,69.1622721 17.671875,69.090332 C18.2141928,69.018392 18.7537436,68.9160156 19.2905273,68.7832031 C19.8273111,68.6503906 20.3889975,68.4760742 20.9755859,68.2602539 C21.5621744,68.0444336 22.2428385,67.7760416 23.0175781,67.4550781 L24.578125,71.4726562 C23.8476562,71.8157553 23.1420898,72.1173502 22.4614258,72.3774414 C21.7807617,72.6375326 21.0779623,72.8561197 20.3530273,73.0332031 C19.6280924,73.2102865 18.8754883,73.3458658 18.0952148,73.4399414 C17.3149414,73.534017 16.4599609,73.5810547 15.5302734,73.5810547 C13.2835287,73.5810547 11.3854166,73.2573242 9.8359375,72.6098633 C8.28645842,71.9624023 7.03027344,71.065918 6.06738281,69.9204102 C5.10449219,68.7749023 4.40169279,67.421875 3.95898438,65.8613281 C3.51627596,64.3007812 3.29492188,62.6018881 3.29492188,60.7646484 Z M26.8857422,60.7978516 C26.8857422,59.1708984 27.1070963,57.590983 27.5498047,56.0581055 C27.9925131,54.5252279 28.6953125,53.1638998 29.6582031,51.9741211 C30.6210938,50.7843424 31.8496094,49.8325195 33.34375,49.1186523 C34.8378906,48.4047852 36.6419272,48.0478516 38.7558594,48.0478516 C40.9583334,48.0478516 42.8121744,48.4047852 44.3173828,49.1186523 C45.8225912,49.8325195 47.0400391,50.7843424 47.9697266,51.9741211 C48.8994141,53.1638998 49.5717773,54.5224609 49.9868164,56.0498047 C50.4018555,57.5771484 50.609375,59.1598306 50.609375,60.7978516 C50.609375,62.4248047 50.3880209,64.0102539 49.9453125,65.5541992 C49.5026041,67.0981445 48.7998047,68.4650064 47.8369141,69.6547852 C46.8740234,70.8445639 45.6455078,71.7963867 44.1513672,72.5102539 C42.6572266,73.2241211 40.858724,73.5810547 38.7558594,73.5810547 C36.5533853,73.5810547 34.6995444,73.2213541 33.1943359,72.5019531 C31.6891275,71.7825522 30.4606119,70.8362631 29.5087891,69.6630859 C28.5569662,68.4345703 27.8818359,67.0566406 27.4833984,65.5292969 C27.0849609,64.0019531 26.8857422,62.4248047 26.8857422,60.7978516 Z M32.2480469,60.7978516 C32.2480469,62.568685 32.5358072,64.1292319 33.1113281,65.4794922 C33.686849,66.8297525 34.5888672,67.8424478 35.8173828,68.5175781 C36.6142578,68.9492188 37.59375,69.1650391 38.7558594,69.1650391 C39.8847656,69.1650391 40.855957,68.943685 41.6694336,68.5009766 C42.4829102,68.0582681 43.1580404,67.4633789 43.6948242,66.7163086 C44.231608,65.9692383 44.6245117,65.0838217 44.8735352,64.0600586 C45.1225586,63.0362955 45.2470703,61.9488931 45.2470703,60.7978516 C45.2470703,59.64681 45.1225586,58.5649414 44.8735352,57.5522461 C44.6245117,56.5395508 44.231608,55.6541342 43.6948242,54.8959961 C43.1580404,54.137858 42.4829102,53.5429688 41.6694336,53.1113281 C40.855957,52.6796875 39.8847656,52.4638672 38.7558594,52.4638672 C37.6269531,52.4638672 36.6529947,52.6796875 35.8339844,53.1113281 C35.014974,53.5429688 34.3370767,54.137858 33.800293,54.8959961 C33.2635092,55.6541342 32.8706055,56.5367838 32.621582,57.5439453 C32.3725586,58.5511069 32.2480469,59.6357422 32.2480469,60.7978516 Z M35.2363281,44.8105469 L40.78125,38.9003906 L43.9853516,41.921875 L37.8261719,47.0517578 L35.2363281,44.8105469 Z M54.2119141,73 L54.2119141,48.4794922 L58.9765625,48.4794922 L65.3349609,59.7685547 C65.5120444,60.0895181 65.6642252,60.3136392 65.7915039,60.440918 C65.9187826,60.5681967 66.0709635,60.6318359 66.2480469,60.6318359 C66.4251303,60.6318359 66.5773111,60.5681967 66.7045898,60.440918 C66.8318686,60.3136392 66.9895834,60.0895181 67.1777344,59.7685547 L73.453125,48.4794922 L78.0517578,48.4794922 L78.0517578,73 L73.0546875,73 L73.0546875,58.0419922 L70.4648438,62.4912109 C69.734375,63.7861328 69.0205078,64.6549478 68.3232422,65.0976562 C67.6259766,65.5403647 66.8789062,65.7617188 66.0820312,65.7617188 C65.2630209,65.7617188 64.5131836,65.5292969 63.8325195,65.0644531 C63.1518555,64.5996094 62.4628906,63.7307944 61.765625,62.4580078 L59.2753906,58.0751953 L59.2753906,73 L54.2119141,73 Z M81.6875,60.7978516 C81.6875,59.1708984 81.9088541,57.590983 82.3515625,56.0581055 C82.7942709,54.5252279 83.4970703,53.1638998 84.4599609,51.9741211 C85.4228516,50.7843424 86.6513672,49.8325195 88.1455078,49.1186523 C89.6396484,48.4047852 91.443685,48.0478516 93.5576172,48.0478516 C95.7600912,48.0478516 97.6139322,48.4047852 99.1191406,49.1186523 C100.624349,49.8325195 101.841797,50.7843424 102.771484,51.9741211 C103.701172,53.1638998 104.373535,54.5224609 104.788574,56.0498047 C105.203613,57.5771484 105.411133,59.1598306 105.411133,60.7978516 C105.411133,62.4248047 105.189779,64.0102539 104.74707,65.5541992 C104.304362,67.0981445 103.601562,68.4650064 102.638672,69.6547852 C101.675781,70.8445639 100.447266,71.7963867 98.953125,72.5102539 C97.4589844,73.2241211 95.6604819,73.5810547 93.5576172,73.5810547 C91.3551431,73.5810547 89.5013022,73.2213541 87.9960938,72.5019531 C86.4908853,71.7825522 85.2623697,70.8362631 84.3105469,69.6630859 C83.358724,68.4345703 82.6835938,67.0566406 82.2851562,65.5292969 C81.8867188,64.0019531 81.6875,62.4248047 81.6875,60.7978516 Z M87.0498047,60.7978516 C87.0498047,62.568685 87.337565,64.1292319 87.9130859,65.4794922 C88.4886069,66.8297525 89.390625,67.8424478 90.6191406,68.5175781 C91.4160156,68.9492188 92.3955078,69.1650391 93.5576172,69.1650391 C94.6865234,69.1650391 95.6577148,68.943685 96.4711914,68.5009766 C97.284668,68.0582681 97.9597983,67.4633789 98.496582,66.7163086 C99.0333658,65.9692383 99.4262695,65.0838217 99.675293,64.0600586 C99.9243164,63.0362955 100.048828,61.9488931 100.048828,60.7978516 C100.048828,59.64681 99.9243164,58.5649414 99.675293,57.5522461 C99.4262695,56.5395508 99.0333658,55.6541342 98.496582,54.8959961 C97.9597983,54.137858 97.284668,53.5429688 96.4711914,53.1113281 C95.6577148,52.6796875 94.6865234,52.4638672 93.5576172,52.4638672 C92.4287109,52.4638672 91.4547525,52.6796875 90.6357422,53.1113281 C89.8167319,53.5429688 89.1388346,54.137858 88.6020508,54.8959961 C88.065267,55.6541342 87.6723633,56.5367838 87.4233398,57.5439453 C87.1743164,58.5511069 87.0498047,59.6357422 87.0498047,60.7978516 Z M114.010742,52.7958984 L114.010742,48.4794922 L133.733398,48.4794922 L133.733398,52.7958984 L126.412109,52.7958984 L126.412109,73 L121.31543,73 L121.31543,52.7958984 L114.010742,52.7958984 Z M135.526367,60.7978516 C135.526367,59.1708984 135.747721,57.590983 136.19043,56.0581055 C136.633138,54.5252279 137.335938,53.1638998 138.298828,51.9741211 C139.261719,50.7843424 140.490234,49.8325195 141.984375,49.1186523 C143.478516,48.4047852 145.282552,48.0478516 147.396484,48.0478516 C149.598958,48.0478516 151.452799,48.4047852 152.958008,49.1186523 C154.463216,49.8325195 155.680664,50.7843424 156.610352,51.9741211 C157.540039,53.1638998 158.212402,54.5224609 158.627441,56.0498047 C159.04248,57.5771484 159.25,59.1598306 159.25,60.7978516 C159.25,62.4248047 159.028646,64.0102539 158.585938,65.5541992 C158.143229,67.0981445 157.44043,68.4650064 156.477539,69.6547852 C155.514648,70.8445639 154.286133,71.7963867 152.791992,72.5102539 C151.297852,73.2241211 149.499349,73.5810547 147.396484,73.5810547 C145.19401,73.5810547 143.340169,73.2213541 141.834961,72.5019531 C140.329753,71.7825522 139.101237,70.8362631 138.149414,69.6630859 C137.197591,68.4345703 136.522461,67.0566406 136.124023,65.5292969 C135.725586,64.0019531 135.526367,62.4248047 135.526367,60.7978516 Z M140.888672,60.7978516 C140.888672,62.568685 141.176432,64.1292319 141.751953,65.4794922 C142.327474,66.8297525 143.229492,67.8424478 144.458008,68.5175781 C145.254883,68.9492188 146.234375,69.1650391 147.396484,69.1650391 C148.525391,69.1650391 149.496582,68.943685 150.310059,68.5009766 C151.123535,68.0582681 151.798665,67.4633789 152.335449,66.7163086 C152.872233,65.9692383 153.265137,65.0838217 153.51416,64.0600586 C153.763184,63.0362955 153.887695,61.9488931 153.887695,60.7978516 C153.887695,59.64681 153.763184,58.5649414 153.51416,57.5522461 C153.265137,56.5395508 152.872233,55.6541342 152.335449,54.8959961 C151.798665,54.137858 151.123535,53.5429688 150.310059,53.1113281 C149.496582,52.6796875 148.525391,52.4638672 147.396484,52.4638672 C146.267578,52.4638672 145.29362,52.6796875 144.474609,53.1113281 C143.655599,53.5429688 142.977702,54.137858 142.440918,54.8959961 C141.904134,55.6541342 141.51123,56.5367838 141.262207,57.5439453 C141.013184,58.5511069 140.888672,59.6357422 140.888672,60.7978516 Z M160.876953,50.0234375 L165.442383,48.1142578 L170.572266,59.1542969 C170.826823,59.6744791 171.062012,60.0148111 171.277832,60.175293 C171.493652,60.3357748 171.745443,60.4160156 172.033203,60.4160156 C172.376302,60.4160156 172.650228,60.3330078 172.85498,60.1669922 C173.059733,60.0009766 173.283854,59.6523438 173.527344,59.1210938 L178.707031,48.1142578 L183.255859,49.9404297 L178.59082,59.984375 C178.026367,61.2128906 177.450846,62.2172852 176.864258,62.9975586 C176.277669,63.777832 175.497396,64.3450522 174.523438,64.6992188 L174.523438,73 L169.376953,73 L169.376953,64.7324219 C168.447266,64.4114584 167.705729,63.8857422 167.152344,63.1552734 C166.598958,62.4248047 166.051107,61.4563803 165.508789,60.25 L160.876953,50.0234375 Z M184.882812,60.7978516 C184.882812,59.1708984 185.104167,57.590983 185.546875,56.0581055 C185.989583,54.5252279 186.692383,53.1638998 187.655273,51.9741211 C188.618164,50.7843424 189.84668,49.8325195 191.34082,49.1186523 C192.834961,48.4047852 194.638997,48.0478516 196.75293,48.0478516 C198.955404,48.0478516 200.809245,48.4047852 202.314453,49.1186523 C203.819662,49.8325195 205.037109,50.7843424 205.966797,51.9741211 C206.896484,53.1638998 207.568848,54.5224609 207.983887,56.0498047 C208.398926,57.5771484 208.606445,59.1598306 208.606445,60.7978516 C208.606445,62.4248047 208.385091,64.0102539 207.942383,65.5541992 C207.499674,67.0981445 206.796875,68.4650064 205.833984,69.6547852 C204.871094,70.8445639 203.642578,71.7963867 202.148438,72.5102539 C200.654297,73.2241211 198.855794,73.5810547 196.75293,73.5810547 C194.550456,73.5810547 192.696615,73.2213541 191.191406,72.5019531 C189.686198,71.7825522 188.457682,70.8362631 187.505859,69.6630859 C186.554037,68.4345703 185.878906,67.0566406 185.480469,65.5292969 C185.082031,64.0019531 184.882812,62.4248047 184.882812,60.7978516 Z M190.245117,60.7978516 C190.245117,62.568685 190.532878,64.1292319 191.108398,65.4794922 C191.683919,66.8297525 192.585938,67.8424478 193.814453,68.5175781 C194.611328,68.9492188 195.59082,69.1650391 196.75293,69.1650391 C197.881836,69.1650391 198.853027,68.943685 199.666504,68.5009766 C200.47998,68.0582681 201.155111,67.4633789 201.691895,66.7163086 C202.228678,65.9692383 202.621582,65.0838217 202.870605,64.0600586 C203.119629,63.0362955 203.244141,61.9488931 203.244141,60.7978516 C203.244141,59.64681 203.119629,58.5649414 202.870605,57.5522461 C202.621582,56.5395508 202.228678,55.6541342 201.691895,54.8959961 C201.155111,54.137858 200.47998,53.5429688 199.666504,53.1113281 C198.853027,52.6796875 197.881836,52.4638672 196.75293,52.4638672 C195.624023,52.4638672 194.650065,52.6796875 193.831055,53.1113281 C193.012044,53.5429688 192.334147,54.137858 191.797363,54.8959961 C191.26058,55.6541342 190.867676,56.5367838 190.618652,57.5439453 C190.369629,58.5511069 190.245117,59.6357422 190.245117,60.7978516 Z M210.416016,52.7958984 L210.416016,48.4794922 L230.138672,48.4794922 L230.138672,52.7958984 L222.817383,52.7958984 L222.817383,73 L217.720703,73 L217.720703,52.7958984 L210.416016,52.7958984 Z M231.051758,72.3857422 L236.961914,52.8789062 C237.183268,52.1041666 237.459961,51.4152017 237.791992,50.8120117 C238.124023,50.2088217 238.533529,49.7052408 239.020508,49.3012695 C239.507487,48.8972983 240.102376,48.5874023 240.805176,48.371582 C241.507975,48.1557617 242.335287,48.0478516 243.287109,48.0478516 C244.216797,48.0478516 245.010905,48.1502279 245.669434,48.3549805 C246.327962,48.559733 246.884115,48.8585611 247.337891,49.2514648 C247.791667,49.6443686 248.170736,50.1258139 248.475098,50.6958008 C248.77946,51.2657877 249.042318,51.9104819 249.263672,52.6298828 L255.223633,72.3857422 L250.126953,73.5146484 L247.902344,66.0273438 L238.256836,66.0273438 L236.015625,73.5146484 L231.051758,72.3857422 Z M239.435547,61.7109375 L246.657227,61.7109375 L244.333008,53.5097656 C244.200195,53.0559897 244.031413,52.7571615 243.82666,52.6132812 C243.621908,52.469401 243.386719,52.3974609 243.121094,52.3974609 C242.822266,52.3974609 242.576009,52.4777017 242.382324,52.6381836 C242.188639,52.7986654 242.025391,53.0891928 241.892578,53.5097656 L239.435547,61.7109375 Z M264.75293,73 L264.75293,48.4794922 L269.816406,48.4794922 L269.816406,68.6835938 L282.649414,68.6835938 L282.649414,73 L264.75293,73 Z M284.541992,60.7978516 C284.541992,59.1708984 284.763346,57.590983 285.206055,56.0581055 C285.648763,54.5252279 286.351562,53.1638998 287.314453,51.9741211 C288.277344,50.7843424 289.505859,49.8325195 291,49.1186523 C292.494141,48.4047852 294.298177,48.0478516 296.412109,48.0478516 C298.614583,48.0478516 300.468424,48.4047852 301.973633,49.1186523 C303.478841,49.8325195 304.696289,50.7843424 305.625977,51.9741211 C306.555664,53.1638998 307.228027,54.5224609 307.643066,56.0498047 C308.058105,57.5771484 308.265625,59.1598306 308.265625,60.7978516 C308.265625,62.4248047 308.044271,64.0102539 307.601562,65.5541992 C307.158854,67.0981445 306.456055,68.4650064 305.493164,69.6547852 C304.530273,70.8445639 303.301758,71.7963867 301.807617,72.5102539 C300.313477,73.2241211 298.514974,73.5810547 296.412109,73.5810547 C294.209635,73.5810547 292.355794,73.2213541 290.850586,72.5019531 C289.345378,71.7825522 288.116862,70.8362631 287.165039,69.6630859 C286.213216,68.4345703 285.538086,67.0566406 285.139648,65.5292969 C284.741211,64.0019531 284.541992,62.4248047 284.541992,60.7978516 Z M289.904297,60.7978516 C289.904297,62.568685 290.192057,64.1292319 290.767578,65.4794922 C291.343099,66.8297525 292.245117,67.8424478 293.473633,68.5175781 C294.270508,68.9492188 295.25,69.1650391 296.412109,69.1650391 C297.541016,69.1650391 298.512207,68.943685 299.325684,68.5009766 C300.13916,68.0582681 300.81429,67.4633789 301.351074,66.7163086 C301.887858,65.9692383 302.280762,65.0838217 302.529785,64.0600586 C302.778809,63.0362955 302.90332,61.9488931 302.90332,60.7978516 C302.90332,59.64681 302.778809,58.5649414 302.529785,57.5522461 C302.280762,56.5395508 301.887858,55.6541342 301.351074,54.8959961 C300.81429,54.137858 300.13916,53.5429688 299.325684,53.1113281 C298.512207,52.6796875 297.541016,52.4638672 296.412109,52.4638672 C295.283203,52.4638672 294.309245,52.6796875 293.490234,53.1113281 C292.671224,53.5429688 291.993327,54.137858 291.456543,54.8959961 C290.919759,55.6541342 290.526855,56.5367838 290.277832,57.5439453 C290.028809,58.5511069 289.904297,59.6357422 289.904297,60.7978516 Z M310.241211,71.7382812 L311.668945,67.421875 C314.59082,68.5950522 317.252604,69.1871744 319.654297,69.1982422 C321.491537,69.1982422 322.830729,68.9132486 323.671875,68.3432617 C324.513021,67.7732748 324.933594,67.0013022 324.933594,66.0273438 C324.933594,65.485026 324.809082,65.0257162 324.560059,64.6494141 C324.311035,64.2731119 323.959635,63.9604492 323.505859,63.7114258 C323.052083,63.4624023 322.501465,63.2548828 321.854004,63.0888672 C321.206543,62.9228516 320.495443,62.7679037 319.720703,62.6240234 C318.702474,62.44694 317.689779,62.2172852 316.682617,61.9350586 C315.675456,61.652832 314.781738,61.2516275 314.001465,60.7314453 C313.221191,60.2112631 312.587565,59.5416666 312.100586,58.7226562 C311.613607,57.9036459 311.370117,56.868815 311.370117,55.6181641 C311.370117,54.5335287 311.549967,53.531901 311.909668,52.6132812 C312.269369,51.6946615 312.850423,50.8950195 313.652832,50.2143555 C314.455241,49.5336914 315.503906,49.0024414 316.798828,48.6206055 C318.09375,48.2387695 319.659831,48.0478516 321.49707,48.0478516 C323.124023,48.0478516 324.656901,48.2166342 326.095703,48.5541992 C327.534505,48.8917642 328.812826,49.287435 329.930664,49.7412109 L328.668945,53.8916016 C327.307617,53.41569 326.015462,53.0476889 324.79248,52.7875977 C323.569499,52.5275064 322.376953,52.3974609 321.214844,52.3974609 C319.654297,52.3974609 318.506022,52.6298828 317.77002,53.0947266 C317.034017,53.5595703 316.666016,54.2347006 316.666016,55.1201172 C316.666016,56.07194 317.092122,56.7498373 317.944336,57.1538086 C318.796549,57.5577799 319.980794,57.8981119 321.49707,58.1748047 C322.537435,58.3740234 323.577799,58.6175131 324.618164,58.9052734 C325.658529,59.1930338 326.599284,59.6080728 327.44043,60.1503906 C328.281576,60.6927084 328.96224,61.4010416 329.482422,62.2753906 C330.002604,63.1497397 330.262695,64.2786459 330.262695,65.6621094 C330.262695,66.8684897 330.030273,67.955892 329.56543,68.9243164 C329.100586,69.8927408 328.419922,70.7228189 327.523438,71.4145508 C326.626953,72.1062826 325.522949,72.6402994 324.211426,73.0166016 C322.899902,73.3929037 321.380859,73.5810547 319.654297,73.5810547 C318.613932,73.5810547 317.617838,73.5174154 316.666016,73.3901367 C315.714193,73.262858 314.837077,73.1106772 314.034668,72.9335938 C313.232259,72.7565103 312.507324,72.5600586 311.859863,72.3442383 C311.212402,72.128418 310.672852,71.9264322 310.241211,71.7382812 Z M338.679688,72.3857422 L344.589844,52.8789062 C344.811198,52.1041666 345.087891,51.4152017 345.419922,50.8120117 C345.751953,50.2088217 346.161458,49.7052408 346.648438,49.3012695 C347.135417,48.8972983 347.730306,48.5874023 348.433105,48.371582 C349.135905,48.1557617 349.963216,48.0478516 350.915039,48.0478516 C351.844727,48.0478516 352.638835,48.1502279 353.297363,48.3549805 C353.955892,48.559733 354.512044,48.8585611 354.96582,49.2514648 C355.419596,49.6443686 355.798665,50.1258139 356.103027,50.6958008 C356.407389,51.2657877 356.670247,51.9104819 356.891602,52.6298828 L362.851562,72.3857422 L357.754883,73.5146484 L355.530273,66.0273438 L345.884766,66.0273438 L343.643555,73.5146484 L338.679688,72.3857422 Z M347.063477,61.7109375 L354.285156,61.7109375 L351.960938,53.5097656 C351.828125,53.0559897 351.659342,52.7571615 351.45459,52.6132812 C351.249837,52.469401 351.014648,52.3974609 350.749023,52.3974609 C350.450195,52.3974609 350.203939,52.4777017 350.010254,52.6381836 C349.816569,52.7986654 349.65332,53.0891928 349.520508,53.5097656 L347.063477,61.7109375 Z M363.582031,50.0234375 L368.147461,48.1142578 L373.277344,59.1542969 C373.531901,59.6744791 373.76709,60.0148111 373.98291,60.175293 C374.19873,60.3357748 374.450521,60.4160156 374.738281,60.4160156 C375.08138,60.4160156 375.355306,60.3330078 375.560059,60.1669922 C375.764811,60.0009766 375.988932,59.6523438 376.232422,59.1210938 L381.412109,48.1142578 L385.960938,49.9404297 L381.295898,59.984375 C380.731445,61.2128906 380.155924,62.2172852 379.569336,62.9975586 C378.982747,63.777832 378.202474,64.3450522 377.228516,64.6992188 L377.228516,73 L372.082031,73 L372.082031,64.7324219 C371.152344,64.4114584 370.410807,63.8857422 369.857422,63.1552734 C369.304037,62.4248047 368.756185,61.4563803 368.213867,60.25 L363.582031,50.0234375 Z M388.53418,62.8398438 L388.53418,48.4794922 L393.630859,48.4794922 L393.630859,62.1259766 C393.630859,63.2327475 393.694499,64.2288412 393.821777,65.1142578 C393.949056,65.9996744 394.19808,66.7467447 394.568848,67.3554688 C394.939616,67.9641928 395.454264,68.4345703 396.112793,68.7666016 C396.771322,69.0986328 397.648438,69.2646484 398.744141,69.2646484 C399.806641,69.2646484 400.667155,69.0986328 401.325684,68.7666016 C401.984212,68.4345703 402.498861,67.9697266 402.869629,67.3720703 C403.240397,66.7744141 403.48942,66.0439453 403.616699,65.1806641 C403.743978,64.3173828 403.807617,63.3544922 403.807617,62.2919922 L403.807617,48.4794922 L408.9375,48.4794922 L408.9375,62.3916016 C408.9375,64.0185547 408.796387,65.5182291 408.51416,66.890625 C408.231934,68.2630209 407.711751,69.4417319 406.953613,70.4267578 C406.195475,71.4117838 405.152344,72.1837564 403.824219,72.7426758 C402.496094,73.3015951 400.802734,73.5810547 398.744141,73.5810547 C396.641276,73.5810547 394.923014,73.3320312 393.589355,72.8339844 C392.255697,72.3359375 391.215332,71.6220703 390.468262,70.6923828 C389.721191,69.7626953 389.212077,68.6337891 388.940918,67.3056641 C388.669759,65.9775391 388.53418,64.4889322 388.53418,62.8398438 Z M413.519531,73 L413.519531,48.4794922 L423.663086,48.4794922 C425.588867,48.4794922 427.304362,48.7755533 428.80957,49.3676758 C430.314779,49.9597983 431.582031,50.7871094 432.611328,51.8496094 C433.640625,52.9121094 434.429199,54.1931967 434.977051,55.6928711 C435.524902,57.1925455 435.798828,58.849935 435.798828,60.6650391 C435.798828,62.4580078 435.555338,64.1070963 435.068359,65.6123047 C434.58138,67.1175131 433.837077,68.4179688 432.835449,69.5136719 C431.833822,70.609375 430.569336,71.4643555 429.041992,72.0786133 C427.514648,72.6928711 425.72168,73 423.663086,73 L413.519531,73 Z M418.632812,68.6835938 L423.414062,68.6835938 C425.660807,68.6835938 427.390137,68.0665689 428.602051,66.8325195 C429.813965,65.5984701 430.419922,63.5979819 430.419922,60.8310547 C430.419922,58.0419922 429.808431,56.0055338 428.585449,54.7216797 C427.362467,53.4378256 425.638672,52.7958984 423.414062,52.7958984 L418.632812,52.7958984 L418.632812,68.6835938 Z M438.37207,60.7978516 C438.37207,59.1708984 438.593424,57.590983 439.036133,56.0581055 C439.478841,54.5252279 440.181641,53.1638998 441.144531,51.9741211 C442.107422,50.7843424 443.335938,49.8325195 444.830078,49.1186523 C446.324219,48.4047852 448.128255,48.0478516 450.242188,48.0478516 C452.444662,48.0478516 454.298503,48.4047852 455.803711,49.1186523 C457.308919,49.8325195 458.526367,50.7843424 459.456055,51.9741211 C460.385742,53.1638998 461.058105,54.5224609 461.473145,56.0498047 C461.888184,57.5771484 462.095703,59.1598306 462.095703,60.7978516 C462.095703,62.4248047 461.874349,64.0102539 461.431641,65.5541992 C460.988932,67.0981445 460.286133,68.4650064 459.323242,69.6547852 C458.360352,70.8445639 457.131836,71.7963867 455.637695,72.5102539 C454.143555,73.2241211 452.345052,73.5810547 450.242188,73.5810547 C448.039713,73.5810547 446.185872,73.2213541 444.680664,72.5019531 C443.175456,71.7825522 441.94694,70.8362631 440.995117,69.6630859 C440.043294,68.4345703 439.368164,67.0566406 438.969727,65.5292969 C438.571289,64.0019531 438.37207,62.4248047 438.37207,60.7978516 Z M443.734375,60.7978516 C443.734375,62.568685 444.022135,64.1292319 444.597656,65.4794922 C445.173177,66.8297525 446.075195,67.8424478 447.303711,68.5175781 C448.100586,68.9492188 449.080078,69.1650391 450.242188,69.1650391 C451.371094,69.1650391 452.342285,68.943685 453.155762,68.5009766 C453.969238,68.0582681 454.644369,67.4633789 455.181152,66.7163086 C455.717936,65.9692383 456.11084,65.0838217 456.359863,64.0600586 C456.608887,63.0362955 456.733398,61.9488931 456.733398,60.7978516 C456.733398,59.64681 456.608887,58.5649414 456.359863,57.5522461 C456.11084,56.5395508 455.717936,55.6541342 455.181152,54.8959961 C454.644369,54.137858 453.969238,53.5429688 453.155762,53.1113281 C452.342285,52.6796875 451.371094,52.4638672 450.242188,52.4638672 C449.113281,52.4638672 448.139323,52.6796875 447.320312,53.1113281 C446.501302,53.5429688 445.823405,54.137858 445.286621,54.8959961 C444.749837,55.6541342 444.356934,56.5367838 444.10791,57.5439453 C443.858887,58.5511069 443.734375,59.6357422 443.734375,60.7978516 Z M446.722656,44.8105469 L452.267578,38.9003906 L455.47168,41.921875 L449.3125,47.0517578 L446.722656,44.8105469 Z" id="path-1"></path>
        <filter x="-1.2%" y="-4.9%" width="102.4%" height="115.3%" filterUnits="objectBoundingBox" id="filter-2">
            <feOffset dx="0" dy="2" in="SourceAlpha" result="shadowOffsetOuter1"></feOffset>
            <feGaussianBlur stdDeviation="1.5" in="shadowOffsetOuter1" result="shadowBlurOuter1"></feGaussianBlur>
            <feColorMatrix values="0 0 0 0 0   0 0 0 0 0   0 0 0 0 0  0 0 0 0.5 0" type="matrix" in="shadowBlurOuter1"></feColorMatrix>
        </filter>
    </defs>
    <g id="Page-1" stroke="none" stroke-width="1" fill="none" fill-rule="evenodd">
        <g id="CONÓCELOS-Y-DESCUBRE">
            <use fill="black" fill-opacity="1" filter="url(#filter-2)" xlink:href="#path-1"></use>
            <use fill="#FFFFFF" fill-rule="evenodd" xlink:href="#path-1"></use>
        </g>
    </g>
</svg>