<?xml version="1.0" encoding="UTF-8"?>
<svg width="155px" height="41px" viewBox="0 0 155 41" version="1.1" xmlns="http://www.w3.org/2000/svg" xmlns:xlink="http://www.w3.org/1999/xlink">
    <!-- Generator: Sketch 52.2 (67145) - http://www.bohemiancoding.com/sketch -->
    <title>Slice</title>
    <desc>Created with Sketch.</desc>
    <g id="Page-1" stroke="none" stroke-width="1" fill="none" fill-rule="evenodd">
        <g id="play">
            <rect id="Rectangle" fill-opacity="0" fill="#FFFFFF" x="0" y="0" width="155" height="41"></rect>
            <polygon id="Path" fill="#FFFFFF" points="36.773 21.443 27.884 26.779 27.884 16.107"></polygon>
            <circle id="_0" stroke="#FFFFFF" stroke-width="2" fill-opacity="0" fill="#FFFFFF" cx="31" cy="21" r="12"></circle>
            <g id="VER-TRAILE" transform="translate(52.000000, 17.000000)" fill-rule="nonzero">
                <g id="path-1-link" fill="#000000">
                    <path d="M0.1171875,0.5859375 L1.8691406,0.2050781 L3.9726562,7.2246094 C4.0273437,7.4082031 4.084961,7.5302735 4.1455078,7.5908203 C4.2060547,7.6513672 4.2890625,7.6816406 4.3945312,7.6816406 C4.5,7.6816406 4.5820312,7.6513672 4.640625,7.5908203 C4.6992188,7.5302735 4.7558594,7.4082031 4.8105469,7.2246094 L6.9492188,0.2050781 L8.6542969,0.5859375 L6.5507812,7.59375 C6.4804688,7.8242187 6.3867188,8.0380859 6.2695312,8.2353516 C6.1523438,8.4326172 6.0078125,8.6035156 5.8359375,8.7480469 C5.6640625,8.8925782 5.4580078,9.0048828 5.2177734,9.0849609 C4.9775391,9.1650391 4.703125,9.2050781 4.3945312,9.2050781 C3.7382812,9.2050781 3.2460938,9.0625 2.9179688,8.7773438 C2.5898438,8.4921875 2.3535157,8.1015625 2.2089844,7.6054688 L0.1171875,0.5859375 Z M9.5976562,9 L9.5976562,0.3457031 L15.8144531,0.3457031 L15.8144531,1.8691406 L11.3730469,1.8691406 L11.3730469,3.7207031 L14.8066406,3.7207031 L14.8066406,5.2558594 L11.3730469,5.2558594 L11.3730469,7.4765625 L15.9140625,7.4765625 L15.9140625,9 L9.5976562,9 Z M17.1796875,9 L17.1796875,0.3457031 L20.484375,0.3457031 C20.8984375,0.3457031 21.2871094,0.3876953 21.6503906,0.4716797 C22.0136719,0.555664 22.3300781,0.696289 22.5996094,0.8935547 C22.8691406,1.0908203 23.0791015,1.3476562 23.2294922,1.6640625 C23.3798828,1.9804688 23.4550781,2.3691406 23.4550781,2.8300781 C23.4550781,3.1425781 23.4052734,3.4345703 23.3056641,3.7060547 C23.2060547,3.977539 23.0722657,4.2216797 22.9042969,4.4384766 C22.7363281,4.6552734 22.5410156,4.8398438 22.3183594,4.9921875 C22.0957031,5.1445312 21.8632812,5.2597657 21.6210938,5.3378906 C21.7578125,5.4003907 21.8798828,5.484375 21.9873047,5.5898438 C22.0947265,5.6953125 22.2089843,5.8203125 22.3300781,5.9648438 L24.2402344,8.1855469 L22.8574219,9.1816406 L20.71875,6.6738281 C20.5742187,6.5058593 20.4462891,6.3652343 20.3349609,6.2519531 C20.2236328,6.1386719 20.1201172,6.0488281 20.0244141,5.9824219 C19.928711,5.9160157 19.8330078,5.8701172 19.7373047,5.8447266 C19.6416016,5.819336 19.5332032,5.8066406 19.4121094,5.8066406 L18.984375,5.8066406 L18.984375,9 L17.1796875,9 Z M18.984375,4.3066406 L20.1445312,4.3066406 C20.6015625,4.3066406 20.9638672,4.203125 21.2314453,3.9960938 C21.4990235,3.7890625 21.6328125,3.4804688 21.6328125,3.0703125 C21.6328125,2.8125 21.5966797,2.6025391 21.5244141,2.4404297 C21.4521485,2.2783203 21.3525391,2.1513672 21.2255859,2.0595703 C21.0986328,1.9677734 20.9433593,1.9052735 20.7597656,1.8720703 C20.5761719,1.8388672 20.3710938,1.8222656 20.1445312,1.8222656 L18.984375,1.8222656 L18.984375,4.3066406 Z M26.9355469,1.8691406 L26.9355469,0.3457031 L33.8964844,0.3457031 L33.8964844,1.8691406 L31.3125,1.8691406 L31.3125,9 L29.5136719,9 L29.5136719,1.8691406 L26.9355469,1.8691406 Z M34.8984375,9 L34.8984375,0.3457031 L38.203125,0.3457031 C38.6171875,0.3457031 39.0058594,0.3876953 39.3691406,0.4716797 C39.7324219,0.555664 40.0488281,0.696289 40.3183594,0.8935547 C40.5878906,1.0908203 40.7978515,1.3476562 40.9482422,1.6640625 C41.0986328,1.9804688 41.1738281,2.3691406 41.1738281,2.8300781 C41.1738281,3.1425781 41.1240234,3.4345703 41.0244141,3.7060547 C40.9248047,3.977539 40.7910157,4.2216797 40.6230469,4.4384766 C40.4550781,4.6552734 40.2597656,4.8398438 40.0371094,4.9921875 C39.8144531,5.1445312 39.5820312,5.2597657 39.3398438,5.3378906 C39.4765625,5.4003907 39.5986328,5.484375 39.7060547,5.5898438 C39.8134765,5.6953125 39.9277343,5.8203125 40.0488281,5.9648438 L41.9589844,8.1855469 L40.5761719,9.1816406 L38.4375,6.6738281 C38.2929687,6.5058593 38.1650391,6.3652343 38.0537109,6.2519531 C37.9423828,6.1386719 37.8388672,6.0488281 37.7431641,5.9824219 C37.647461,5.9160157 37.5517578,5.8701172 37.4560547,5.8447266 C37.3603516,5.819336 37.2519532,5.8066406 37.1308594,5.8066406 L36.703125,5.8066406 L36.703125,9 L34.8984375,9 Z M36.703125,4.3066406 L37.8632812,4.3066406 C38.3203125,4.3066406 38.6826172,4.203125 38.9501953,3.9960938 C39.2177735,3.7890625 39.3515625,3.4804688 39.3515625,3.0703125 C39.3515625,2.8125 39.3154297,2.6025391 39.2431641,2.4404297 C39.1708985,2.2783203 39.0712891,2.1513672 38.9443359,2.0595703 C38.8173828,1.9677734 38.6621093,1.9052735 38.4785156,1.8720703 C38.2949219,1.8388672 38.0898438,1.8222656 37.8632812,1.8222656 L36.703125,1.8222656 L36.703125,4.3066406 Z M42.4628906,8.7832031 L44.5488281,1.8984375 C44.6269531,1.625 44.7246094,1.3818359 44.8417969,1.1689453 C44.9589844,0.9560547 45.1035157,0.7783203 45.2753906,0.6357422 C45.4472656,0.4931641 45.6572266,0.3837891 45.9052734,0.3076172 C46.1533203,0.2314453 46.4453125,0.1933594 46.78125,0.1933594 C47.109375,0.1933594 47.3896484,0.2294922 47.6220703,0.3017578 C47.8544922,0.3740234 48.0507813,0.4794922 48.2109375,0.6181641 C48.3710937,0.756836 48.5048828,0.9267578 48.6123047,1.1279297 C48.7197265,1.3291015 48.8125,1.5566407 48.890625,1.8105469 L50.9941406,8.7832031 L49.1953125,9.1816406 L48.4101562,6.5390625 L45.0058594,6.5390625 L44.2148438,9.1816406 L42.4628906,8.7832031 Z M45.421875,5.015625 L47.9707031,5.015625 L47.1503906,2.1210938 C47.1035156,1.9609375 47.0439453,1.8554688 46.9716797,1.8046875 C46.8994141,1.7539062 46.8164062,1.7285156 46.7226562,1.7285156 C46.6171875,1.7285156 46.5302735,1.7568359 46.4619141,1.8134766 C46.3935547,1.8701172 46.3359375,1.9726563 46.2890625,2.1210938 L45.421875,5.015625 Z M51.984375,9 L51.984375,0.3457031 L53.8125,0.3457031 L53.8125,9 L51.984375,9 Z M55.488281,9 L55.488281,0.3457031 L57.275391,0.3457031 L57.275391,7.4765625 L61.804688,7.4765625 L61.804688,9 L55.488281,9 Z M62.841797,9 L62.841797,0.3457031 L69.058594,0.3457031 L69.058594,1.8691406 L64.617188,1.8691406 L64.617188,3.7207031 L68.050781,3.7207031 L68.050781,5.2558594 L64.617188,5.2558594 L64.617188,7.4765625 L69.158203,7.4765625 L69.158203,9 L62.841797,9 Z" id="path-1"></path>
                </g>
                <g id="path-1-link" fill="#FFFFFF">
                    <path d="M0.1171875,0.5859375 L1.8691406,0.2050781 L3.9726562,7.2246094 C4.0273437,7.4082031 4.084961,7.5302735 4.1455078,7.5908203 C4.2060547,7.6513672 4.2890625,7.6816406 4.3945312,7.6816406 C4.5,7.6816406 4.5820312,7.6513672 4.640625,7.5908203 C4.6992188,7.5302735 4.7558594,7.4082031 4.8105469,7.2246094 L6.9492188,0.2050781 L8.6542969,0.5859375 L6.5507812,7.59375 C6.4804688,7.8242187 6.3867188,8.0380859 6.2695312,8.2353516 C6.1523438,8.4326172 6.0078125,8.6035156 5.8359375,8.7480469 C5.6640625,8.8925782 5.4580078,9.0048828 5.2177734,9.0849609 C4.9775391,9.1650391 4.703125,9.2050781 4.3945312,9.2050781 C3.7382812,9.2050781 3.2460938,9.0625 2.9179688,8.7773438 C2.5898438,8.4921875 2.3535157,8.1015625 2.2089844,7.6054688 L0.1171875,0.5859375 Z M9.5976562,9 L9.5976562,0.3457031 L15.8144531,0.3457031 L15.8144531,1.8691406 L11.3730469,1.8691406 L11.3730469,3.7207031 L14.8066406,3.7207031 L14.8066406,5.2558594 L11.3730469,5.2558594 L11.3730469,7.4765625 L15.9140625,7.4765625 L15.9140625,9 L9.5976562,9 Z M17.1796875,9 L17.1796875,0.3457031 L20.484375,0.3457031 C20.8984375,0.3457031 21.2871094,0.3876953 21.6503906,0.4716797 C22.0136719,0.555664 22.3300781,0.696289 22.5996094,0.8935547 C22.8691406,1.0908203 23.0791015,1.3476562 23.2294922,1.6640625 C23.3798828,1.9804688 23.4550781,2.3691406 23.4550781,2.8300781 C23.4550781,3.1425781 23.4052734,3.4345703 23.3056641,3.7060547 C23.2060547,3.977539 23.0722657,4.2216797 22.9042969,4.4384766 C22.7363281,4.6552734 22.5410156,4.8398438 22.3183594,4.9921875 C22.0957031,5.1445312 21.8632812,5.2597657 21.6210938,5.3378906 C21.7578125,5.4003907 21.8798828,5.484375 21.9873047,5.5898438 C22.0947265,5.6953125 22.2089843,5.8203125 22.3300781,5.9648438 L24.2402344,8.1855469 L22.8574219,9.1816406 L20.71875,6.6738281 C20.5742187,6.5058593 20.4462891,6.3652343 20.3349609,6.2519531 C20.2236328,6.1386719 20.1201172,6.0488281 20.0244141,5.9824219 C19.928711,5.9160157 19.8330078,5.8701172 19.7373047,5.8447266 C19.6416016,5.819336 19.5332032,5.8066406 19.4121094,5.8066406 L18.984375,5.8066406 L18.984375,9 L17.1796875,9 Z M18.984375,4.3066406 L20.1445312,4.3066406 C20.6015625,4.3066406 20.9638672,4.203125 21.2314453,3.9960938 C21.4990235,3.7890625 21.6328125,3.4804688 21.6328125,3.0703125 C21.6328125,2.8125 21.5966797,2.6025391 21.5244141,2.4404297 C21.4521485,2.2783203 21.3525391,2.1513672 21.2255859,2.0595703 C21.0986328,1.9677734 20.9433593,1.9052735 20.7597656,1.8720703 C20.5761719,1.8388672 20.3710938,1.8222656 20.1445312,1.8222656 L18.984375,1.8222656 L18.984375,4.3066406 Z M26.9355469,1.8691406 L26.9355469,0.3457031 L33.8964844,0.3457031 L33.8964844,1.8691406 L31.3125,1.8691406 L31.3125,9 L29.5136719,9 L29.5136719,1.8691406 L26.9355469,1.8691406 Z M34.8984375,9 L34.8984375,0.3457031 L38.203125,0.3457031 C38.6171875,0.3457031 39.0058594,0.3876953 39.3691406,0.4716797 C39.7324219,0.555664 40.0488281,0.696289 40.3183594,0.8935547 C40.5878906,1.0908203 40.7978515,1.3476562 40.9482422,1.6640625 C41.0986328,1.9804688 41.1738281,2.3691406 41.1738281,2.8300781 C41.1738281,3.1425781 41.1240234,3.4345703 41.0244141,3.7060547 C40.9248047,3.977539 40.7910157,4.2216797 40.6230469,4.4384766 C40.4550781,4.6552734 40.2597656,4.8398438 40.0371094,4.9921875 C39.8144531,5.1445312 39.5820312,5.2597657 39.3398438,5.3378906 C39.4765625,5.4003907 39.5986328,5.484375 39.7060547,5.5898438 C39.8134765,5.6953125 39.9277343,5.8203125 40.0488281,5.9648438 L41.9589844,8.1855469 L40.5761719,9.1816406 L38.4375,6.6738281 C38.2929687,6.5058593 38.1650391,6.3652343 38.0537109,6.2519531 C37.9423828,6.1386719 37.8388672,6.0488281 37.7431641,5.9824219 C37.647461,5.9160157 37.5517578,5.8701172 37.4560547,5.8447266 C37.3603516,5.819336 37.2519532,5.8066406 37.1308594,5.8066406 L36.703125,5.8066406 L36.703125,9 L34.8984375,9 Z M36.703125,4.3066406 L37.8632812,4.3066406 C38.3203125,4.3066406 38.6826172,4.203125 38.9501953,3.9960938 C39.2177735,3.7890625 39.3515625,3.4804688 39.3515625,3.0703125 C39.3515625,2.8125 39.3154297,2.6025391 39.2431641,2.4404297 C39.1708985,2.2783203 39.0712891,2.1513672 38.9443359,2.0595703 C38.8173828,1.9677734 38.6621093,1.9052735 38.4785156,1.8720703 C38.2949219,1.8388672 38.0898438,1.8222656 37.8632812,1.8222656 L36.703125,1.8222656 L36.703125,4.3066406 Z M42.4628906,8.7832031 L44.5488281,1.8984375 C44.6269531,1.625 44.7246094,1.3818359 44.8417969,1.1689453 C44.9589844,0.9560547 45.1035157,0.7783203 45.2753906,0.6357422 C45.4472656,0.4931641 45.6572266,0.3837891 45.9052734,0.3076172 C46.1533203,0.2314453 46.4453125,0.1933594 46.78125,0.1933594 C47.109375,0.1933594 47.3896484,0.2294922 47.6220703,0.3017578 C47.8544922,0.3740234 48.0507813,0.4794922 48.2109375,0.6181641 C48.3710937,0.756836 48.5048828,0.9267578 48.6123047,1.1279297 C48.7197265,1.3291015 48.8125,1.5566407 48.890625,1.8105469 L50.9941406,8.7832031 L49.1953125,9.1816406 L48.4101562,6.5390625 L45.0058594,6.5390625 L44.2148438,9.1816406 L42.4628906,8.7832031 Z M45.421875,5.015625 L47.9707031,5.015625 L47.1503906,2.1210938 C47.1035156,1.9609375 47.0439453,1.8554688 46.9716797,1.8046875 C46.8994141,1.7539062 46.8164062,1.7285156 46.7226562,1.7285156 C46.6171875,1.7285156 46.5302735,1.7568359 46.4619141,1.8134766 C46.3935547,1.8701172 46.3359375,1.9726563 46.2890625,2.1210938 L45.421875,5.015625 Z M51.984375,9 L51.984375,0.3457031 L53.8125,0.3457031 L53.8125,9 L51.984375,9 Z M55.488281,9 L55.488281,0.3457031 L57.275391,0.3457031 L57.275391,7.4765625 L61.804688,7.4765625 L61.804688,9 L55.488281,9 Z M62.841797,9 L62.841797,0.3457031 L69.058594,0.3457031 L69.058594,1.8691406 L64.617188,1.8691406 L64.617188,3.7207031 L68.050781,3.7207031 L68.050781,5.2558594 L64.617188,5.2558594 L64.617188,7.4765625 L69.158203,7.4765625 L69.158203,9 L62.841797,9 Z" id="path-1"></path>
                </g>
            </g>
            <g id="R" transform="translate(122.000000, 17.000000)" fill-rule="nonzero">
                <g id="path-2-link" fill="#000000">
                    <path d="M0.423828,9 L0.423828,0.3457031 L3.728515,0.3457031 C4.142578,0.3457031 4.53125,0.3876953 4.894531,0.4716797 C5.257812,0.555664 5.574219,0.696289 5.84375,0.8935547 C6.113281,1.0908203 6.323242,1.3476562 6.473633,1.6640625 C6.624023,1.9804688 6.699219,2.3691406 6.699219,2.8300781 C6.699219,3.1425781 6.649414,3.4345703 6.549804,3.7060547 C6.450195,3.977539 6.316406,4.2216797 6.148437,4.4384766 C5.980468,4.6552734 5.785156,4.8398438 5.5625,4.9921875 C5.339844,5.1445312 5.107422,5.2597657 4.865234,5.3378906 C5.001953,5.4003907 5.124023,5.484375 5.231445,5.5898438 C5.338867,5.6953125 5.453125,5.8203125 5.574219,5.9648438 L7.484375,8.1855469 L6.101562,9.1816406 L3.96289,6.6738281 C3.818359,6.5058593 3.690429,6.3652343 3.579101,6.2519531 C3.467773,6.1386719 3.364258,6.0488281 3.268554,5.9824219 C3.172851,5.9160157 3.077148,5.8701172 2.981445,5.8447266 C2.885742,5.819336 2.777344,5.8066406 2.65625,5.8066406 L2.228515,5.8066406 L2.228515,9 L0.423828,9 Z M2.228515,4.3066406 L3.388672,4.3066406 C3.845703,4.3066406 4.208008,4.203125 4.475586,3.9960938 C4.743164,3.7890625 4.876953,3.4804688 4.876953,3.0703125 C4.876953,2.8125 4.84082,2.6025391 4.768554,2.4404297 C4.696289,2.2783203 4.596679,2.1513672 4.469726,2.0595703 C4.342773,1.9677734 4.1875,1.9052735 4.003906,1.8720703 C3.820312,1.8388672 3.615234,1.8222656 3.388672,1.8222656 L2.228515,1.8222656 L2.228515,4.3066406 Z" id="path-2"></path>
                </g>
                <g id="path-2-link" fill="#FFFFFF">
                    <path d="M0.423828,9 L0.423828,0.3457031 L3.728515,0.3457031 C4.142578,0.3457031 4.53125,0.3876953 4.894531,0.4716797 C5.257812,0.555664 5.574219,0.696289 5.84375,0.8935547 C6.113281,1.0908203 6.323242,1.3476562 6.473633,1.6640625 C6.624023,1.9804688 6.699219,2.3691406 6.699219,2.8300781 C6.699219,3.1425781 6.649414,3.4345703 6.549804,3.7060547 C6.450195,3.977539 6.316406,4.2216797 6.148437,4.4384766 C5.980468,4.6552734 5.785156,4.8398438 5.5625,4.9921875 C5.339844,5.1445312 5.107422,5.2597657 4.865234,5.3378906 C5.001953,5.4003907 5.124023,5.484375 5.231445,5.5898438 C5.338867,5.6953125 5.453125,5.8203125 5.574219,5.9648438 L7.484375,8.1855469 L6.101562,9.1816406 L3.96289,6.6738281 C3.818359,6.5058593 3.690429,6.3652343 3.579101,6.2519531 C3.467773,6.1386719 3.364258,6.0488281 3.268554,5.9824219 C3.172851,5.9160157 3.077148,5.8701172 2.981445,5.8447266 C2.885742,5.819336 2.777344,5.8066406 2.65625,5.8066406 L2.228515,5.8066406 L2.228515,9 L0.423828,9 Z M2.228515,4.3066406 L3.388672,4.3066406 C3.845703,4.3066406 4.208008,4.203125 4.475586,3.9960938 C4.743164,3.7890625 4.876953,3.4804688 4.876953,3.0703125 C4.876953,2.8125 4.84082,2.6025391 4.768554,2.4404297 C4.696289,2.2783203 4.596679,2.1513672 4.469726,2.0595703 C4.342773,1.9677734 4.1875,1.9052735 4.003906,1.8720703 C3.820312,1.8388672 3.615234,1.8222656 3.388672,1.8222656 L2.228515,1.8222656 L2.228515,4.3066406 Z" id="path-2"></path>
                </g>
            </g>
        </g>
    </g>
</svg>