<?xml version="1.0" encoding="UTF-8"?>
<svg width="47px" height="47px" viewBox="0 0 47 47" version="1.1" xmlns="http://www.w3.org/2000/svg" xmlns:xlink="http://www.w3.org/1999/xlink">
    <!-- Generator: Sketch 52.2 (67145) - http://www.bohemiancoding.com/sketch -->
    <title>Group 5</title>
    <desc>Created with Sketch.</desc>
    <g id="Page-1" stroke="none" stroke-width="1" fill="none" fill-rule="evenodd">
        <g id="Group-5" fill="#FFFFFF">
            <path d="M23.5,47 C10.5213084,47 0,36.4786916 0,23.5 C0,10.5213084 10.5213084,0 23.5,0 C36.4786916,0 47,10.5213084 47,23.5 C47,36.4786916 36.4786916,47 23.5,47 Z M23.5,44 C34.8218374,44 44,34.8218374 44,23.5 C44,12.1781626 34.8218374,3 23.5,3 C12.1781626,3 3,12.1781626 3,23.5 C3,34.8218374 12.1781626,44 23.5,44 Z" id="Combined-Shape"></path>
            <g id="Group-3" transform="translate(13.000000, 14.000000)">
                <rect id="Rectangle" x="8" y="0" width="4" height="20"></rect>
                <rect id="Rectangle" x="0" y="8" width="20" height="4"></rect>
            </g>
        </g>
    </g>
</svg>