<?xml version="1.0" encoding="UTF-8"?>
<svg width="155px" height="37px" viewBox="0 0 155 37" version="1.1" xmlns="http://www.w3.org/2000/svg" xmlns:xlink="http://www.w3.org/1999/xlink">
    <!-- Generator: Sketch 52.2 (67145) - http://www.bohemiancoding.com/sketch -->
    <title>Slice</title>
    <desc>Created with Sketch.</desc>
    <defs>
        <path d="M14.6142344,22.4066875 L15.1181406,20.88325 C16.1493906,21.2973125 17.0888437,21.5062968 17.9365,21.5102031 C18.5849375,21.5102031 19.0575937,21.4096172 19.3544687,21.2084453 C19.6513438,21.0072735 19.7997812,20.7348125 19.7997812,20.3910625 C19.7997812,20.1996562 19.7558359,20.0375469 19.6679453,19.9047344 C19.5800547,19.7719218 19.4560312,19.6615703 19.295875,19.5736797 C19.1357188,19.4857891 18.9413828,19.4125469 18.7128672,19.3539531 C18.4843516,19.2953594 18.233375,19.2406719 17.9599375,19.1898906 C17.6005625,19.1273906 17.2431407,19.0463359 16.8876719,18.9467266 C16.5322031,18.8471172 16.2167734,18.7055156 15.9413828,18.5219219 C15.6659922,18.3383282 15.4423593,18.102 15.2704844,17.8129375 C15.0986094,17.523875 15.0126719,17.1586406 15.0126719,16.7172344 C15.0126719,16.3344219 15.0761484,15.9809062 15.2031016,15.6566875 C15.3300547,15.3324688 15.5351328,15.0502422 15.8183359,14.8100078 C16.101539,14.5697734 16.4716562,14.3822734 16.9286875,14.2475078 C17.3857187,14.1127422 17.9384531,14.0453594 18.5868906,14.0453594 C19.1611094,14.0453594 19.702125,14.1049297 20.2099375,14.2240703 C20.71775,14.3432109 21.1689219,14.4828594 21.5634531,14.6430156 L21.1181406,16.1078594 C20.6376719,15.9398906 20.1816172,15.8100078 19.7499766,15.7182109 C19.3183359,15.626414 18.8974375,15.5805156 18.4872812,15.5805156 C17.9365,15.5805156 17.5312265,15.6625469 17.2714609,15.8266094 C17.0116953,15.9906719 16.8818125,16.2289532 16.8818125,16.5414531 C16.8818125,16.8773906 17.0322032,17.1166485 17.3329844,17.2592266 C17.6337656,17.4018047 18.0517344,17.5219218 18.5868906,17.6195781 C18.9540782,17.6898906 19.3212656,17.7758282 19.6884531,17.8773906 C20.0556407,17.9789531 20.3876718,18.1254375 20.6845469,18.3168437 C20.9814219,18.50825 21.2216563,18.75825 21.40525,19.0668437 C21.5888437,19.3754375 21.6806406,19.773875 21.6806406,20.2621562 C21.6806406,20.6879375 21.5986094,21.0717266 21.4345469,21.4135234 C21.2704844,21.7553203 21.03025,22.048289 20.7138437,22.2924297 C20.3974375,22.5365703 20.0077891,22.7250468 19.5448984,22.8578594 C19.0820078,22.9906719 18.545875,23.0570781 17.9365,23.0570781 C17.5693125,23.0570781 17.21775,23.0346172 16.8818125,22.9896953 C16.545875,22.9447734 16.2363047,22.8910625 15.9531016,22.8285625 C15.6698985,22.7660625 15.4140391,22.6967266 15.1855234,22.6205547 C14.9570078,22.5443828 14.7665781,22.4730937 14.6142344,22.4066875 Z M22.8993906,19.2660625 L22.8993906,14.1977031 L24.6982187,14.1977031 L24.6982187,19.0141094 C24.6982187,19.4047344 24.7206797,19.7562969 24.7656016,20.0687969 C24.8105235,20.3812968 24.8984141,20.6449687 25.0292734,20.8598125 C25.1601328,21.0746563 25.3417734,21.2406719 25.5741953,21.3578594 C25.8066172,21.4750469 26.1161875,21.5336406 26.5029062,21.5336406 C26.8779062,21.5336406 27.1816172,21.4750469 27.4140391,21.3578594 C27.646461,21.2406719 27.8281016,21.0766094 27.9589609,20.8656719 C28.0898203,20.6547344 28.1777109,20.3969219 28.2226328,20.0922344 C28.2675547,19.7875469 28.2900156,19.4477031 28.2900156,19.0727031 L28.2900156,14.1977031 L30.1005625,14.1977031 L30.1005625,19.1078594 C30.1005625,19.6820781 30.0507578,20.211375 29.9511484,20.69575 C29.8515391,21.180125 29.6679453,21.5961407 29.4003672,21.9437969 C29.132789,22.2914531 28.764625,22.563914 28.295875,22.7611797 C27.827125,22.9584453 27.2294687,23.0570781 26.5029062,23.0570781 C25.7607187,23.0570781 25.1542734,22.9691875 24.6835703,22.7934062 C24.2128672,22.617625 23.8456797,22.3656719 23.5820078,22.0375469 C23.3183359,21.7094219 23.1386484,21.3109844 23.0429453,20.8422344 C22.9472422,20.3734844 22.8993906,19.8480937 22.8993906,19.2660625 Z M31.1318125,22.4066875 L31.6357187,20.88325 C32.6669687,21.2973125 33.6064218,21.5062968 34.4540781,21.5102031 C35.1025157,21.5102031 35.5751718,21.4096172 35.8720469,21.2084453 C36.1689219,21.0072735 36.3173594,20.7348125 36.3173594,20.3910625 C36.3173594,20.1996562 36.2734141,20.0375469 36.1855234,19.9047344 C36.0976328,19.7719218 35.9736093,19.6615703 35.8134531,19.5736797 C35.6532969,19.4857891 35.4589609,19.4125469 35.2304453,19.3539531 C35.0019297,19.2953594 34.7509532,19.2406719 34.4775156,19.1898906 C34.1181407,19.1273906 33.7607188,19.0463359 33.40525,18.9467266 C33.0497812,18.8471172 32.7343516,18.7055156 32.4589609,18.5219219 C32.1835703,18.3383282 31.9599375,18.102 31.7880625,17.8129375 C31.6161875,17.523875 31.53025,17.1586406 31.53025,16.7172344 C31.53025,16.3344219 31.5937265,15.9809062 31.7206797,15.6566875 C31.8476328,15.3324688 32.052711,15.0502422 32.3359141,14.8100078 C32.6191172,14.5697734 32.9892344,14.3822734 33.4462656,14.2475078 C33.9032969,14.1127422 34.4560312,14.0453594 35.1044687,14.0453594 C35.6786875,14.0453594 36.2197031,14.1049297 36.7275156,14.2240703 C37.2353282,14.3432109 37.6865,14.4828594 38.0810312,14.6430156 L37.6357187,16.1078594 C37.15525,15.9398906 36.6991953,15.8100078 36.2675547,15.7182109 C35.835914,15.626414 35.4150156,15.5805156 35.0048594,15.5805156 C34.4540781,15.5805156 34.0488047,15.6625469 33.7890391,15.8266094 C33.5292735,15.9906719 33.3993906,16.2289532 33.3993906,16.5414531 C33.3993906,16.8773906 33.5497813,17.1166485 33.8505625,17.2592266 C34.1513437,17.4018047 34.5693125,17.5219218 35.1044687,17.6195781 C35.4716563,17.6898906 35.8388437,17.7758282 36.2060312,17.8773906 C36.5732188,17.9789531 36.90525,18.1254375 37.202125,18.3168437 C37.499,18.50825 37.7392344,18.75825 37.9228281,19.0668437 C38.1064218,19.3754375 38.1982187,19.773875 38.1982187,20.2621562 C38.1982187,20.6879375 38.1161875,21.0717266 37.952125,21.4135234 C37.7880625,21.7553203 37.5478281,22.048289 37.2314219,22.2924297 C36.9150156,22.5365703 36.5253672,22.7250468 36.0624766,22.8578594 C35.5995859,22.9906719 35.0634531,23.0570781 34.4540781,23.0570781 C34.0868906,23.0570781 33.7353281,23.0346172 33.3993906,22.9896953 C33.0634532,22.9447734 32.7538828,22.8910625 32.4706797,22.8285625 C32.1874766,22.7660625 31.9316172,22.6967266 31.7031016,22.6205547 C31.4745859,22.5443828 31.2841562,22.4730937 31.1318125,22.4066875 Z M39.0829844,18.5336406 C39.0829844,17.8852031 39.1786875,17.2865703 39.3700937,16.7377422 C39.5615,16.188914 39.8456797,15.7143047 40.2226328,15.3139141 C40.5995859,14.9135235 41.0673594,14.602 41.6259531,14.3793437 C42.1845468,14.1566875 42.8329844,14.0453594 43.5712656,14.0453594 C44.1728282,14.0453594 44.7031016,14.1049297 45.1620859,14.2240703 C45.6210703,14.3432109 46.0536875,14.4906719 46.4599375,14.6664531 L45.9091562,16.1195781 C45.6200938,15.9984843 45.3661875,15.9047343 45.1474375,15.8383281 C44.9286875,15.7719219 44.7275156,15.720164 44.5439219,15.6830547 C44.3603282,15.6459453 44.1884531,15.6215312 44.0282969,15.6098125 C43.8681407,15.5980937 43.7040782,15.5922344 43.5361094,15.5922344 C42.7118906,15.5922344 42.0790781,15.8461406 41.6376719,16.3539531 C41.1962657,16.8617657 40.9755625,17.5883282 40.9755625,18.5336406 C40.9755625,19.5414531 41.1962657,20.2895 41.6376719,20.7777812 C42.0790781,21.2660625 42.7079844,21.5102031 43.5243906,21.5102031 C43.7548593,21.5102031 43.9657968,21.4975078 44.1572031,21.4721172 C44.3486094,21.4467266 44.5390391,21.4105937 44.7284922,21.3637187 C44.9179453,21.3168437 45.1161875,21.2553203 45.3232187,21.1791484 C45.53025,21.1029766 45.7704843,21.00825 46.0439219,20.8949687 L46.5947031,22.3129375 C46.3368906,22.4340313 46.0878672,22.5404765 45.8476328,22.6322734 C45.6073984,22.7240703 45.3593516,22.8012187 45.1034922,22.8637187 C44.8476328,22.9262188 44.5820078,22.9740703 44.3066172,23.0072734 C44.0312266,23.0404766 43.7294687,23.0570781 43.4013437,23.0570781 C42.608375,23.0570781 41.9384531,22.9428203 41.3915781,22.7143047 C40.8447032,22.4857891 40.4013437,22.1693828 40.0615,21.7650859 C39.7216562,21.3607891 39.4736094,20.88325 39.3173594,20.3324687 C39.1611093,19.7816875 39.0829844,19.1820782 39.0829844,18.5336406 Z M47.7782969,22.852 L47.7782969,14.1977031 L51.0829844,14.1977031 C51.4970469,14.1977031 51.8857187,14.2396953 52.249,14.3236797 C52.6122812,14.407664 52.9286875,14.548289 53.1982187,14.7455547 C53.46775,14.9428203 53.6777109,15.1996562 53.8281016,15.5160625 C53.9784922,15.8324687 54.0536875,16.2211406 54.0536875,16.6820781 C54.0536875,16.9945781 54.0038828,17.2865703 53.9042734,17.5580547 C53.8046641,17.829539 53.670875,18.0736797 53.5029062,18.2904766 C53.3349375,18.5072734 53.139625,18.6918437 52.9169687,18.8441875 C52.6943125,18.9965312 52.4618906,19.1117657 52.2197031,19.1898906 C52.3564218,19.2523907 52.4784922,19.336375 52.5859141,19.4418437 C52.6933359,19.5473125 52.8075937,19.6723125 52.9286875,19.8168437 L54.8388437,22.0375469 L53.4560312,23.0336406 L51.3173594,20.5258281 C51.1728281,20.3578593 51.0448984,20.2172343 50.9335703,20.1039531 C50.8222422,19.9906719 50.7187265,19.9008281 50.6230234,19.8344219 C50.5273203,19.7680157 50.4316172,19.7221172 50.3359141,19.6967266 C50.240211,19.671336 50.1318125,19.6586406 50.0107187,19.6586406 L49.5829844,19.6586406 L49.5829844,22.852 L47.7782969,22.852 Z M49.5829844,18.1586406 L50.7431406,18.1586406 C51.2001719,18.1586406 51.5624765,18.055125 51.8300547,17.8480937 C52.0976328,17.6410625 52.2314219,17.3324687 52.2314219,16.9223125 C52.2314219,16.6645 52.195289,16.4545391 52.1230234,16.2924297 C52.0507578,16.1303203 51.9511485,16.0033672 51.8241953,15.9115703 C51.6972422,15.8197734 51.5419687,15.7572735 51.358375,15.7240703 C51.1747813,15.6908672 50.9697032,15.6742656 50.7431406,15.6742656 L49.5829844,15.6742656 L49.5829844,18.1586406 Z M55.4247812,12.9027812 L57.3818125,10.8168437 L58.5126719,11.88325 L56.3388437,13.6937969 L55.4247812,12.9027812 Z M55.8056406,22.852 L55.8056406,14.1977031 L57.6337656,14.1977031 L57.6337656,22.852 L55.8056406,22.852 Z M59.3095469,22.852 L59.3095469,14.1977031 L62.7314219,14.1977031 C63.1454844,14.1977031 63.5331797,14.2377422 63.8945078,14.3178203 C64.255836,14.3978985 64.570289,14.5258281 64.8378672,14.7016094 C65.1054453,14.8773906 65.3154062,15.1059062 65.46775,15.3871562 C65.6200937,15.6684062 65.6962656,16.0043437 65.6962656,16.3949687 C65.6962656,16.6098125 65.6679453,16.8100078 65.6113047,16.9955547 C65.554664,17.1811016 65.4784922,17.3500469 65.3827891,17.5023906 C65.287086,17.6547344 65.179664,17.7904766 65.0605234,17.9096172 C64.9413828,18.0287578 64.8173594,18.1312968 64.6884531,18.2172344 C64.8798594,18.2875469 65.0615,18.38325 65.233375,18.5043437 C65.40525,18.6254375 65.5595469,18.7719219 65.6962656,18.9437969 C65.8329843,19.1156718 65.9413828,19.3119609 66.0214609,19.5326641 C66.1015391,19.7533672 66.1415781,20.0004375 66.1415781,20.273875 C66.1415781,20.6879375 66.0673593,21.055125 65.9189219,21.3754375 C65.7704844,21.69575 65.5624766,21.9662578 65.2948984,22.1869609 C65.0273203,22.4076641 64.7070078,22.5736797 64.3339609,22.6850078 C63.960914,22.7963359 63.5497813,22.852 63.1005625,22.852 L59.3095469,22.852 Z M61.0849375,21.352 L62.9365,21.352 C63.3036875,21.352 63.6191172,21.2660625 63.8827891,21.0941875 C64.1464609,20.9223125 64.2782969,20.6371562 64.2782969,20.2387187 C64.2782969,20.0160625 64.2363047,19.8295391 64.1523203,19.6791484 C64.068336,19.5287578 63.9540782,19.4115703 63.8095469,19.3275859 C63.6650156,19.2436016 63.4931406,19.1859843 63.2939219,19.1547344 C63.0947031,19.1234844 62.8837656,19.1078594 62.6611094,19.1078594 L61.0849375,19.1078594 L61.0849375,21.352 Z M61.0849375,17.6781719 L62.5849375,17.6781719 C62.9443125,17.6781719 63.249,17.602 63.499,17.4496562 C63.749,17.2973125 63.874,17.0336406 63.874,16.6586406 C63.874,16.2680156 63.7411875,16.0102031 63.4755625,15.8852031 C63.2099375,15.7602032 62.8134531,15.6977031 62.2861094,15.6977031 L61.0849375,15.6977031 L61.0849375,17.6781719 Z M67.3837656,22.852 L67.3837656,14.1977031 L73.6005625,14.1977031 L73.6005625,15.7211406 L69.1591562,15.7211406 L69.1591562,17.5727031 L72.59275,17.5727031 L72.59275,19.1078594 L69.1591562,19.1078594 L69.1591562,21.3285625 L73.7001719,21.3285625 L73.7001719,22.852 L67.3837656,22.852 Z M74.4384531,15.7211406 L74.4384531,14.1977031 L81.3993906,14.1977031 L81.3993906,15.7211406 L78.8154062,15.7211406 L78.8154062,22.852 L77.0165781,22.852 L77.0165781,15.7211406 L74.4384531,15.7211406 Z M82.4013437,22.852 L82.4013437,14.1977031 L88.6181406,14.1977031 L88.6181406,15.7211406 L84.1767344,15.7211406 L84.1767344,17.5727031 L87.6103281,17.5727031 L87.6103281,19.1078594 L84.1767344,19.1078594 L84.1767344,21.3285625 L88.71775,21.3285625 L88.71775,22.852 L82.4013437,22.852 Z" id="path-1"></path>
    </defs>
    <g id="Page-1" stroke="none" stroke-width="1" fill="none" fill-rule="evenodd">
        <g id="Group-7" fill="#FFFFFF">
            <rect id="Rounded_Rectangle_553" fill-opacity="0" x="0" y="0" width="155" height="37" rx="5"></rect>
            <path d="M120,5 L141,5 C145.418278,5 149,8.581722 149,13 L149,24 C149,28.418278 145.418278,32 141,32 L120,32 C115.581722,32 112,28.418278 112,24 L112,13 C112,8.581722 115.581722,5 120,5 Z M135.214286,18.5 L127.214286,12.7857143 L127.214286,24.2142857 L135.214286,18.5 Z" id="Combined-Shape"></path>
            <g id="SUSCRÃBETE">
                <use xlink:href="#path-1"></use>
                <use xlink:href="#path-1"></use>
            </g>
        </g>
    </g>
</svg>