<svg id="fb" xmlns="http://www.w3.org/2000/svg" width="38" height="38" viewBox="0 0 38 38">
  <defs>
    <style>
      .cls-1 {
        fill: none;
        stroke: #fff;
        stroke-width: 2px;
      }

      .cls-2 {
        fill: #fff;
        fill-rule: evenodd;
      }
    </style>
  </defs>
  <circle class="cls-1" cx="19" cy="19" r="18"/>
  <path class="cls-2" d="M950.929,981.55a7.387,7.387,0,0,1-1.716.455,2.207,2.207,0,0,0,.847-0.7,2.869,2.869,0,0,0,.572-0.967,0.059,0.059,0,0,0,0-.083,0.1,0.1,0,0,0-.091.007,9.2,9.2,0,0,1-2.038.725,0.143,0.143,0,0,1-.141-0.035,1.558,1.558,0,0,0-.178-0.169,3.625,3.625,0,0,0-2.5-.789,3.821,3.821,0,0,0-1.436.377,3.644,3.644,0,0,0-1.159.88,3.05,3.05,0,0,0-.729,2.649c0.011,0.076,0,.086-0.071.076a11.192,11.192,0,0,1-7-3.314c-0.082-.086-0.126-0.086-0.193.007a3.128,3.128,0,0,0,.605,3.9c0.138,0.121.279,0.242,0.431,0.352a3.77,3.77,0,0,1-1.352-.352c-0.082-.048-0.123-0.02-0.13.066a1.918,1.918,0,0,0,.022.373,3.389,3.389,0,0,0,2.214,2.661,2.217,2.217,0,0,0,.449.127,4.292,4.292,0,0,1-1.326.038c-0.1-.017-0.133.028-0.1,0.114a3.684,3.684,0,0,0,2.785,2.168c0.126,0.02.253,0.02,0.379,0.048-0.007.011-.015,0.011-0.022,0.021a4.533,4.533,0,0,1-1.9.937,7.3,7.3,0,0,1-2.889.343,0.39,0.39,0,0,0-.23,0c-0.043.025-.006,0.059,0.044,0.1,0.2,0.121.4,0.228,0.6,0.331a9.968,9.968,0,0,0,1.931.718,10.858,10.858,0,0,0,9.985-2.17,9.341,9.341,0,0,0,2.764-7.1,0.344,0.344,0,0,1,.207-0.212,6.483,6.483,0,0,0,1.352-1.314,0.358,0.358,0,0,0,.084-0.251V981.55C950.993,981.508,951,981.521,950.929,981.55ZM939.05,992.94h0Zm0,0h0Zm0.572,0.013c0-.026.3,0,0,0C939.622,992.94,939.659,992.953,939.622,992.953Zm6.009-12.943a0.065,0.065,0,0,1-.071,0h0.071Z" transform="translate(-923 -967)"/>
</svg>
