<?xml version="1.0" encoding="UTF-8"?>
<svg width="83px" height="15px" viewBox="0 0 83 15" version="1.1" xmlns="http://www.w3.org/2000/svg" xmlns:xlink="http://www.w3.org/1999/xlink">
    <!-- Generator: Sketch 52.5 (67469) - http://www.bohemiancoding.com/sketch -->
    <title>Group</title>
    <desc>Created with Sketch.</desc>
    <defs>
        <path d="M10.6161875,10.6829375 L12.3681406,10.3020781 L14.4716562,17.3216094 C14.526344,17.505204 14.5839606,17.6272731 14.6445078,17.6878203 C14.705055,17.7483675 14.788062,17.7786406 14.8935312,17.7786406 C14.9990005,17.7786406 15.081031,17.7483675 15.139625,17.6878203 C15.198219,17.6272731 15.2548591,17.505204 15.3095469,17.3216094 L17.4482187,10.3020781 L19.1532969,10.6829375 L17.0497812,17.69075 C16.9794684,17.9212199 16.8857193,18.135085 16.7685312,18.3323516 C16.6513432,18.5296182 16.5068134,18.7005149 16.3349375,18.8450469 C16.1630616,18.9895788 15.957009,19.1018824 15.7167734,19.1819609 C15.4765379,19.2620395 15.2021265,19.3020781 14.8935312,19.3020781 C14.237278,19.3020781 13.7450954,19.1595014 13.4169687,18.8743438 C13.0888421,18.5891861 12.8525163,18.198565 12.7079844,17.7024688 L10.6161875,10.6829375 Z M20.0966562,19.097 L20.0966562,10.4427031 L26.3134531,10.4427031 L26.3134531,11.9661406 L21.8720469,11.9661406 L21.8720469,13.8177031 L25.3056406,13.8177031 L25.3056406,15.3528594 L21.8720469,15.3528594 L21.8720469,17.5735625 L26.4130625,17.5735625 L26.4130625,19.097 L20.0966562,19.097 Z M27.6786875,19.097 L27.6786875,10.4427031 L30.983375,10.4427031 C31.3974396,10.4427031 31.7861076,10.4846949 32.1493906,10.5686797 C32.5126737,10.6526645 32.8290768,10.7932881 33.0986094,10.9905547 C33.368142,11.1878213 33.5781008,11.4446547 33.7284922,11.7610625 C33.8788836,12.0774703 33.9540781,12.4661383 33.9540781,12.9270781 C33.9540781,13.2395797 33.9042739,13.531569 33.8046641,13.8030547 C33.7050542,14.0745404 33.5712665,14.3186786 33.4032969,14.5354766 C33.2353273,14.7522745 33.0400167,14.936843 32.8173594,15.0891875 C32.594702,15.241532 32.3622825,15.3567652 32.1200937,15.4348906 C32.2568132,15.4973909 32.3788823,15.5813745 32.4863047,15.6868438 C32.5937271,15.792313 32.7079838,15.9173118 32.8290781,16.0618438 L34.7392344,18.2825469 L33.3564219,19.2786406 L31.21775,16.7708281 C31.073218,16.6028585 30.9452896,16.4622349 30.8339609,16.3489531 C30.7226323,16.2356713 30.6191177,16.1458285 30.5234141,16.0794219 C30.4277105,16.0130153 30.3320083,15.9671173 30.2363047,15.9417266 C30.1406011,15.9163358 30.0322037,15.9036406 29.9111094,15.9036406 L29.483375,15.9036406 L29.483375,19.097 L27.6786875,19.097 Z M29.483375,14.4036406 L30.6435312,14.4036406 C31.1005648,14.4036406 31.4628658,14.300126 31.7304453,14.0930938 C31.9980248,13.8860615 32.1318125,13.5774708 32.1318125,13.1673125 C32.1318125,12.9094987 32.09568,12.6995399 32.0234141,12.5374297 C31.9511481,12.3753195 31.8515397,12.2483676 31.7245859,12.1565703 C31.5976322,12.064773 31.4423603,12.0022736 31.2587656,11.9690703 C31.075171,11.935867 30.8700949,11.9192656 30.6435312,11.9192656 L29.483375,11.9192656 L29.483375,14.4036406 Z M38.0790781,19.097 L38.0790781,10.4427031 L39.7607187,10.4427031 L42.0048594,14.4270781 C42.0673597,14.5403599 42.1210701,14.6194607 42.1659922,14.6643828 C42.2109143,14.7093049 42.2646247,14.7317656 42.327125,14.7317656 C42.3896253,14.7317656 42.4433357,14.7093049 42.4882578,14.6643828 C42.5331799,14.6194607 42.5888434,14.5403599 42.65525,14.4270781 L44.8700937,10.4427031 L46.4931406,10.4427031 L46.4931406,19.097 L44.7294687,19.097 L44.7294687,13.8177031 L43.8154062,15.3880156 C43.5575925,15.8450492 43.3056419,16.1516867 43.0595469,16.3079375 C42.8134519,16.4641883 42.5497827,16.5423125 42.2685312,16.5423125 C41.9794673,16.5423125 41.7148215,16.4602821 41.4745859,16.2962188 C41.2343504,16.1321554 40.9911887,15.8255179 40.7450937,15.3762969 L39.8661875,13.8294219 L39.8661875,19.097 L38.0790781,19.097 Z M47.4072031,18.8802031 L49.4931406,11.9954375 C49.571266,11.7219986 49.6689213,11.478837 49.7861094,11.2659453 C49.9032975,11.0530536 50.0478273,10.875321 50.2197031,10.7327422 C50.391579,10.5901633 50.6015378,10.4807894 50.8495859,10.4046172 C51.0976341,10.3284449 51.3896233,10.2903594 51.7255625,10.2903594 C52.0536891,10.2903594 52.3339598,10.3264918 52.5663828,10.3987578 C52.7988058,10.4710238 52.9950929,10.5764915 53.15525,10.7151641 C53.3154071,10.8538366 53.4491948,11.0237568 53.5566172,11.2249297 C53.6640396,11.4261026 53.7568121,11.6536394 53.8349375,11.9075469 L55.9384531,18.8802031 L54.139625,19.2786406 L53.3544687,16.6360625 L49.9501719,16.6360625 L49.1591562,19.2786406 L47.4072031,18.8802031 Z M50.3661875,15.112625 L52.9150156,15.112625 L52.0947031,12.2180938 C52.0478279,12.0579367 51.9882582,11.952469 51.9159922,11.9016875 C51.8437262,11.850906 51.7607192,11.8255156 51.6669687,11.8255156 C51.5614995,11.8255156 51.4745863,11.8538357 51.4062266,11.9104766 C51.3378668,11.9671175 51.2802502,12.0696555 51.233375,12.2180938 L50.3661875,15.112625 Z M50.4130625,9.14778125 L52.3700937,7.06184375 L53.5009531,8.12825 L51.327125,9.93879688 L50.4130625,9.14778125 Z M56.4130625,18.6516875 L56.9169687,17.12825 C57.9482239,17.5423146 58.8876676,17.7512969 59.7353281,17.7552031 C60.3837689,17.7552031 60.8564204,17.6546182 61.1532969,17.4534453 C61.4501734,17.2522724 61.5986094,16.9798142 61.5986094,16.6360625 C61.5986094,16.4446553 61.5546645,16.2825475 61.4667734,16.1497344 C61.3788824,16.0169212 61.2548602,15.9065708 61.0947031,15.8186797 C60.9345461,15.7307886 60.7402121,15.6575472 60.5116953,15.5989531 C60.2831785,15.5403591 60.0322045,15.4856721 59.7587656,15.4348906 C59.3993888,15.3723903 59.0419705,15.2913364 58.6865,15.1917266 C58.3310295,15.0921167 58.0156029,14.9505165 57.7402109,14.7669219 C57.4648189,14.5833272 57.2411884,14.3470014 57.0693125,14.0579375 C56.8974366,13.7688736 56.8115,13.4036428 56.8115,12.9622344 C56.8115,12.57942 56.8749759,12.2259079 57.0019297,11.9016875 C57.1288834,11.5774671 57.3339595,11.2952434 57.6171641,11.0550078 C57.9003686,10.8147722 58.2704821,10.6272741 58.7275156,10.4925078 C59.1845492,10.3577415 59.737278,10.2903594 60.3857187,10.2903594 C60.9599404,10.2903594 61.5009506,10.3499291 62.0087656,10.4690703 C62.5165807,10.5882115 62.967748,10.7278586 63.3622812,10.8880156 L62.9169687,12.3528594 C62.4364976,12.1848898 61.9804475,12.0550083 61.5488047,11.9632109 C61.1171619,11.8714136 60.6962677,11.8255156 60.2861094,11.8255156 C59.7353254,11.8255156 59.330056,11.9075461 59.0702891,12.0716094 C58.8105221,12.2356727 58.6806406,12.4739516 58.6806406,12.7864531 C58.6806406,13.1223923 58.8310297,13.3616477 59.1318125,13.5042266 C59.4325953,13.6468054 59.8505598,13.7669214 60.3857187,13.8645781 C60.7529081,13.934891 61.1200919,14.0208276 61.4872812,14.1223906 C61.8544706,14.2239536 62.1864985,14.3704365 62.483375,14.5618438 C62.7802515,14.753251 63.0204835,15.0032485 63.2040781,15.3118438 C63.3876728,15.620439 63.4794687,16.0188726 63.4794687,16.5071563 C63.4794687,16.9329396 63.3974383,17.3167249 63.233375,17.6585234 C63.0693117,18.000322 62.8290797,18.2932878 62.5126719,18.5374297 C62.196264,18.7815715 61.8066195,18.9700462 61.3437266,19.1028594 C60.8808336,19.2356725 60.3447062,19.3020781 59.7353281,19.3020781 C59.3681388,19.3020781 59.0165798,19.2796174 58.6806406,19.2346953 C58.3447014,19.1897732 58.0351342,19.1360628 57.7519297,19.0735625 C57.4687251,19.0110622 57.2128683,18.9417269 56.9843516,18.8655547 C56.7558348,18.7893824 56.565407,18.7180941 56.4130625,18.6516875 Z" id="path-1"></path>
    </defs>
    <g id="Page-1" stroke="none" stroke-width="1" fill="none" fill-rule="evenodd">
        <g id="Group" transform="translate(-10.000000, -7.000000)">
            <rect id="Rectangle" fill-opacity="0" fill="#0D0D0D" fill-rule="nonzero" x="0" y="0" width="99" height="29"></rect>
            <g id="VER_MÃS">
                <use fill="#000000" xlink:href="#path-1"></use>
                <use fill="#BBBBBB" xlink:href="#path-1"></use>
            </g>
            <polyline id="Path" stroke="#FFFFFF" stroke-width="1.875" points="84.712 7.94 91.119 14.24 84.712 20.54"></polyline>
            <polyline id="Rectangle_2_copy" stroke="#FFFFFF" stroke-width="1.875" points="78.8 7.94 85.207 14.24 78.8 20.54"></polyline>
        </g>
    </g>
</svg>