<?xml version="1.0" encoding="UTF-8"?>
<svg width="145px" height="41px" viewBox="0 0 145 41" version="1.1" xmlns="http://www.w3.org/2000/svg" xmlns:xlink="http://www.w3.org/1999/xlink">
    <!-- Generator: Sketch 52.2 (67145) - http://www.bohemiancoding.com/sketch -->
    <title>Slice</title>
    <desc>Created with Sketch.</desc>
    <defs>
        <path d="M22,17.9228516 L23.8979492,17.5102539 L26.1767578,25.1147461 C26.2360026,25.3136393 26.2984213,25.4458822 26.3640137,25.5114746 C26.4296061,25.577067 26.5195312,25.6098633 26.6337891,25.6098633 C26.7480469,25.6098633 26.8369141,25.577067 26.9003906,25.5114746 C26.9638672,25.4458822 27.0252279,25.3136393 27.0844727,25.1147461 L29.4013672,17.5102539 L31.2485352,17.9228516 L28.9697266,25.5146484 C28.8935547,25.7643229 28.7919922,25.9960123 28.6650391,26.2097168 C28.5380859,26.4234213 28.3815104,26.6085612 28.1953125,26.7651367 C28.0091146,26.9217123 27.7858887,27.0433756 27.5256348,27.130127 C27.2653809,27.2168783 26.968099,27.2602539 26.6337891,27.2602539 C25.9228516,27.2602539 25.3896484,27.1057943 25.0341797,26.796875 C24.6787109,26.4879557 24.4226888,26.0647787 24.2661133,25.5273438 L22,17.9228516 Z M32.2705078,27.0380859 L32.2705078,17.6625977 L39.0053711,17.6625977 L39.0053711,19.3129883 L34.1938477,19.3129883 L34.1938477,21.3188477 L37.9135742,21.3188477 L37.9135742,22.9819336 L34.1938477,22.9819336 L34.1938477,25.3876953 L39.1132812,25.3876953 L39.1132812,27.0380859 L32.2705078,27.0380859 Z M40.484375,27.0380859 L40.484375,17.6625977 L44.0644531,17.6625977 C44.5130209,17.6625977 44.934082,17.7080892 45.3276367,17.7990723 C45.7211914,17.8900553 46.0639648,18.0423991 46.355957,18.2561035 C46.6479492,18.469808 46.8754069,18.7480469 47.0383301,19.0908203 C47.2012533,19.4335938 47.2827148,19.8546549 47.2827148,20.3540039 C47.2827148,20.6925455 47.2287598,21.0088705 47.1208496,21.3029785 C47.0129395,21.5970866 46.8680013,21.8615723 46.6860352,22.0964355 C46.504069,22.3312988 46.2924805,22.53125 46.0512695,22.6962891 C45.8100586,22.8613281 45.5582682,22.9861654 45.2958984,23.0708008 C45.4440104,23.1385091 45.5762533,23.2294922 45.692627,23.34375 C45.8090006,23.4580078 45.9327799,23.5934244 46.0639648,23.75 L48.1333008,26.1557617 L46.6352539,27.2348633 L44.3183594,24.5180664 C44.1617838,24.3361002 44.0231934,24.1837565 43.9025879,24.0610352 C43.7819824,23.9383138 43.6698405,23.840983 43.5661621,23.769043 C43.4624838,23.6971029 43.3588053,23.6473795 43.255127,23.619873 C43.1514486,23.5923666 43.034017,23.5786133 42.902832,23.5786133 L42.4394531,23.5786133 L42.4394531,27.0380859 L40.484375,27.0380859 Z M42.4394531,21.9536133 L43.6962891,21.9536133 C44.1914062,21.9536133 44.583903,21.8414713 44.8737793,21.6171875 C45.1636556,21.3929037 45.3085938,21.0585938 45.3085938,20.6142578 C45.3085938,20.3349609 45.2694498,20.1075033 45.1911621,19.9318848 C45.1128744,19.7562662 45.0049642,19.6187338 44.8674316,19.5192871 C44.7298991,19.4198405 44.5616862,19.3521322 44.362793,19.3161621 C44.1638998,19.280192 43.9417318,19.262207 43.6962891,19.262207 L42.4394531,19.262207 L42.4394531,21.9536133 Z M51.7514648,27.0380859 L51.7514648,17.6625977 L53.5732422,17.6625977 L56.0043945,21.9790039 C56.0721029,22.1017252 56.1302897,22.1874186 56.1789551,22.236084 C56.2276205,22.2847494 56.2858073,22.309082 56.3535156,22.309082 C56.421224,22.309082 56.4794108,22.2847494 56.5280762,22.236084 C56.5767416,22.1874186 56.6370443,22.1017252 56.7089844,21.9790039 L59.1083984,17.6625977 L60.8666992,17.6625977 L60.8666992,27.0380859 L58.9560547,27.0380859 L58.9560547,21.3188477 L57.9658203,23.0200195 C57.6865234,23.5151367 57.4135742,23.8473307 57.1469727,24.0166016 C56.8803711,24.1858724 56.5947266,24.2705078 56.2900391,24.2705078 C55.9768881,24.2705078 55.6901855,24.1816406 55.4299316,24.0039062 C55.1696777,23.8261719 54.90625,23.4939779 54.6396484,23.0073242 L53.6875,21.331543 L53.6875,27.0380859 L51.7514648,27.0380859 Z M61.8569336,26.8032227 L64.1166992,19.3447266 C64.2013346,19.0485026 64.3071289,18.7850748 64.434082,18.5544434 C64.5610352,18.3238119 64.7176107,18.1312662 64.9038086,17.9768066 C65.0900065,17.822347 65.3174642,17.7038574 65.5861816,17.6213379 C65.8548991,17.5388184 66.171224,17.4975586 66.5351562,17.4975586 C66.890625,17.4975586 67.1942545,17.5367025 67.4460449,17.6149902 C67.6978353,17.693278 67.9104818,17.8075358 68.0839844,17.9577637 C68.2574869,18.1079916 68.4024252,18.2920736 68.5187988,18.5100098 C68.6351725,18.7279459 68.7356771,18.9744466 68.8203125,19.2495117 L71.0991211,26.8032227 L69.1503906,27.2348633 L68.2998047,24.3720703 L64.6118164,24.3720703 L63.7548828,27.2348633 L61.8569336,26.8032227 Z M65.0625,22.7216797 L67.8237305,22.7216797 L66.9350586,19.5859375 C66.8842773,19.4124349 66.8197428,19.2981771 66.7414551,19.2431641 C66.6631673,19.188151 66.5732422,19.1606445 66.4716797,19.1606445 C66.3574219,19.1606445 66.263265,19.1913248 66.189209,19.2526855 C66.115153,19.3140463 66.0527344,19.4251302 66.0019531,19.5859375 L65.0625,22.7216797 Z M65.1132812,16.2597656 L67.2333984,14 L68.4584961,15.1552734 L66.1035156,17.1166992 L65.1132812,16.2597656 Z M71.6132812,26.5556641 L72.1591797,24.9052734 C73.2763672,25.3538412 74.294108,25.5802409 75.2124023,25.5844727 C75.9148763,25.5844727 76.4269205,25.4755045 76.7485352,25.2575684 C77.0701498,25.0396322 77.230957,24.7444662 77.230957,24.3720703 C77.230957,24.1647135 77.1833496,23.9890951 77.0881348,23.8452148 C76.9929199,23.7013346 76.8585612,23.5817871 76.6850586,23.4865723 C76.511556,23.3913574 76.3010254,23.3120117 76.0534668,23.2485352 C75.8059082,23.1850586 75.534017,23.1258138 75.237793,23.0708008 C74.8484701,23.0030924 74.4612631,22.9152832 74.0761719,22.807373 C73.6910807,22.6994629 73.3493652,22.5460612 73.0510254,22.347168 C72.7526855,22.1482748 72.5104166,21.8922526 72.3242188,21.5791016 C72.1380209,21.2659506 72.0449219,20.8702799 72.0449219,20.3920898 C72.0449219,19.9773763 72.1136881,19.594401 72.2512207,19.2431641 C72.3887533,18.8919271 72.6109213,18.5861816 72.9177246,18.3259277 C73.224528,18.0656738 73.6254883,17.8625488 74.1206055,17.7165527 C74.6157227,17.5705566 75.2145182,17.4975586 75.9169922,17.4975586 C76.5390625,17.4975586 77.1251627,17.5620931 77.675293,17.6911621 C78.2254232,17.8202311 78.7141927,17.971517 79.1416016,18.1450195 L78.6591797,19.7319336 C78.1386719,19.5499674 77.6446127,19.4092611 77.177002,19.3098145 C76.7093912,19.2103678 76.253418,19.1606445 75.809082,19.1606445 C75.2124023,19.1606445 74.7733561,19.2495117 74.4919434,19.4272461 C74.2105306,19.6049805 74.0698242,19.8631185 74.0698242,20.2016602 C74.0698242,20.5655924 74.2327474,20.8247884 74.5585938,20.979248 C74.8844401,21.1337077 75.3372396,21.2638346 75.9169922,21.3696289 C76.3147787,21.4458008 76.7125651,21.5388998 77.1103516,21.6489258 C77.5081381,21.7589518 77.8678385,21.9176432 78.1894531,22.125 C78.5110677,22.3323568 78.7713216,22.6031901 78.9702148,22.9375 C79.169108,23.2718099 79.2685547,23.7034506 79.2685547,24.2324219 C79.2685547,24.6936849 79.1796875,25.1094564 79.0019531,25.4797363 C78.8242188,25.8500162 78.5639648,26.1673991 78.2211914,26.4318848 C77.878418,26.6963705 77.4562988,26.9005534 76.954834,27.0444336 C76.4533691,27.1883138 75.8725586,27.2602539 75.2124023,27.2602539 C74.8146159,27.2602539 74.4337565,27.2359213 74.0698242,27.1872559 C73.705892,27.1385905 73.3705241,27.0804037 73.0637207,27.0126953 C72.7569173,26.9449869 72.4797363,26.869873 72.2321777,26.7873535 C71.9846191,26.704834 71.7783203,26.6276041 71.6132812,26.5556641 Z" id="path-1"></path>
    </defs>
    <g id="Page-1" stroke="none" stroke-width="1" fill="none" fill-rule="evenodd">
        <rect id="Rectangle" fill-opacity="0" fill="#CF2F39" x="0" y="0" width="145" height="41"></rect>
        <g id="VER_MÃS">
            <use fill="#000000" xlink:href="#path-1"></use>
            <use fill="#FFFFFF" xlink:href="#path-1"></use>
        </g>
        <polyline id="Path" stroke="#FFFFFF" stroke-width="2.5" points="118.134 11.29 127.622 20.66 118.134 30.04"></polyline>
        <polyline id="Rectangle_2_copy" stroke="#FFFFFF" stroke-width="2.5" points="109.384 11.29 118.872 20.66 109.384 30.04"></polyline>
    </g>
</svg>