<svg xmlns="http://www.w3.org/2000/svg" viewBox="0 0 118 30">
        <path fill="#fff" fill-rule="evenodd" d="M32.185 4.523c-.655-.507-1.7-.626-2.613-.003-1.252.857-1.387 2.428-.71 3.645.67 1.204 1.936 1.621 3.383 1.49 1.636-.148 2.947-1.048 3.71-2.092.687-.941 1.426-3.214-.037-5.383C34.803.53 33.35 0 31.793 0c-1.715.002-2.897 1.293-3.717 2.265-1.273 1.51-1.852 1.844-2.947 1.936-1.094.09-2.11-.378-2.613-.896-.504-.52-.784-.908-.784-.908s.61 1.14 1.429 1.823c.88.733 2.24 1.093 3.693.566 1.727-.625 2.673-1.693 3.25-2.024 1.177-.675 2.78-.126 3.12 1.086.394 1.406-.364 2.355-.364 2.355s.261-.955-.675-1.68m80.612 13.593c0-4.048-3.271-7.329-7.307-7.329-4.036 0-7.308 3.28-7.308 7.329 0 4.047 3.272 7.328 7.308 7.328s7.307-3.28 7.307-7.328M105.49 6.232c6.544 0 11.848 5.32 11.848 11.884 0 6.563-5.304 11.884-11.848 11.884-6.544 0-11.85-5.321-11.85-11.884 0-6.563 5.306-11.884 11.85-11.884M2.316 9.025v18.182c0 1.281.974 2.253 2.246 2.253H7.29v-8.356h.001l6.238 6.367c1.847 1.807 2.975 1.989 4.531 1.989h3.626L10.291 18.116 21.686 6.772h-6.21L7.291 15.13l-.001-.002-.02-6.102c0-1.118-.905-2.253-2.246-2.253H.07c1.227 0 2.247 1.115 2.247 2.253m27.196 18.182c0 1.287 1.021 2.253 2.246 2.253h2.728V14.332c0-1.322-1.016-2.253-2.246-2.253h-2.728v15.128M68.857 6.772c1.298 0 2.231 1.041 2.231 2.253 0 1.3.952 2.288 2.246 2.288h4.534v15.894c0 1.358 1.002 2.253 2.246 2.253h2.727V11.313h6.781V9.025c0-1.164-.9-2.253-2.246-2.253h-18.52m-26.301 0h4.91c1.563 0 2.536.735 3.631 2.182l8.088 13.038h.064V6.772h2.41c1.264 0 2.247.947 2.247 2.253V29.46h-1.827c-2.19 0-3.194-.461-4.545-2.258l-8.012-12.93h-.064V29.46h-2.41c-1.195 0-2.247-.88-2.247-2.253V9.025c0-1.23-.97-2.253-2.245-2.253"/>
</svg>
