<?xml version="1.0" encoding="utf-8"?>
<!-- Generator: Adobe Illustrator 25.2.3, SVG Export Plug-In . SVG Version: 6.00 Build 0)  -->
<svg version="1.1" id="Capa_1" xmlns="http://www.w3.org/2000/svg" xmlns:xlink="http://www.w3.org/1999/xlink" x="0px" y="0px"
	 viewBox="0 0 608.52 110.67" style="enable-background:new 0 0 608.52 110.67;" xml:space="preserve">
<g>
	<g>
		<path  fill="#FFFFFF"  d="M117.2,11.01c-9.42-3.03-21.15-4.83-33.89-4.83c-12.71,0-24.45,1.8-33.89,4.83C24.35,19.07,7.11,35.83,7.11,55.18
			c0,27.23,34.11,49.31,76.2,49.31c42.08,0,76.21-22.08,76.21-49.31C159.53,35.83,142.28,19.07,117.2,11.01 M83.31,83.28
			c-6.27,0-11.42-12.34-11.7-27.87c3.77,0.36,7.71,0.53,11.7,0.53c4.01,0,7.94-0.18,11.72-0.53C94.74,70.94,89.58,83.28,83.31,83.28
			 M72.41,43.26c1.69-10.89,5.96-18.6,10.91-18.6c4.95,0,9.22,7.72,10.9,18.6c-3.49,0.31-7.14,0.5-10.9,0.5
			C79.55,43.76,75.91,43.57,72.41,43.26 M100.91,42.44c-2.54-17.08-9.46-29.36-17.59-29.36c-8.13,0-15.04,12.28-17.58,29.36
			c-15.48-2.43-26.31-7.9-26.31-14.33c0-8.62,19.65-15.61,43.89-15.61c24.25,0,43.89,6.99,43.89,15.61
			C127.2,34.54,116.4,40.02,100.91,42.44 M18.24,53.38c0-8.36,3.21-16.17,8.81-22.91c-0.06,0.47-0.1,0.94-0.1,1.42
			c0,10.5,15.77,19.42,37.75,22.7c-0.02,0.79-0.03,1.59-0.03,2.38c0,19.52,5.43,36.06,12.9,41.75
			C44.33,96.71,18.24,77.17,18.24,53.38 M89.06,98.73c7.46-5.69,12.9-22.23,12.9-41.75c0-0.8,0-1.6-0.02-2.38
			c21.98-3.29,37.74-12.21,37.74-22.7c0-0.48-0.03-0.95-0.1-1.42c5.61,6.73,8.81,14.55,8.81,22.91
			C148.39,77.17,122.31,96.71,89.06,98.73"/>
		<polygon  fill="#FFFFFF"  points="240.79,20.24 180.45,20.24 180.45,33.58 202.74,33.58 202.74,90.48 218.52,90.48 218.52,33.58 240.79,33.58 		"/>
		<path  fill="#FFFFFF"  d="M281.55,18.14c-20.55,0-37.22,16.66-37.22,37.2c0,20.56,16.67,37.23,37.22,37.23c20.54,0,37.2-16.67,37.2-37.23
			C318.75,34.8,302.09,18.14,281.55,18.14 M299.78,66.61c-2.41,6.16-7.92,10.77-14.58,11.94c-1.18,0.21-2.42,0.32-3.66,0.32
			c-1.25,0-2.48-0.12-3.67-0.32c-6.66-1.17-12.15-5.78-14.57-11.94c-1.38-3.48-2.13-7.29-2.13-11.27c0-3.98,0.75-7.78,2.13-11.26
			c2.41-6.14,7.91-10.75,14.57-11.93c1.18-0.21,2.42-0.32,3.67-0.32c1.25,0,2.48,0.11,3.66,0.32c6.66,1.18,12.16,5.79,14.58,11.93
			c1.38,3.49,2.13,7.29,2.13,11.26C301.92,59.32,301.16,63.14,299.78,66.61"/>
		<polygon  fill="#FFFFFF"  points="319.01,20.24 337.62,20.24 355,50.43 372.37,20.24 390.97,20.24 362.89,64.49 362.89,90.46 347.1,90.46 
			347.1,64.49 		"/>
		<path  fill="#FFFFFF"  d="M391.27,55.35c0-20.54,16.66-37.21,37.22-37.21c20.55,0,37.21,16.67,37.21,37.21c0,20.55-16.67,37.23-37.21,37.23
			C407.93,92.58,391.27,75.9,391.27,55.35 M428.49,78.88c1.25,0,2.48-0.12,3.66-0.31c6.67-1.18,12.16-5.79,14.57-11.94
			c1.38-3.49,2.13-7.29,2.13-11.28c0-3.97-0.75-7.78-2.13-11.27c-2.42-6.14-7.91-10.76-14.57-11.93c-1.18-0.2-2.41-0.32-3.66-0.32
			c-1.24,0-2.47,0.12-3.66,0.32c-6.66,1.17-12.17,5.79-14.59,11.93c-1.36,3.49-2.13,7.29-2.13,11.27c0,3.98,0.77,7.78,2.13,11.28
			c2.42,6.15,7.92,10.76,14.59,11.94C426.01,78.77,427.24,78.88,428.49,78.88"/>
		<path  fill="#FFFFFF"  d="M578.06,74.97h-29.9l-5.75,15.45h-17.56l28.44-70.22h19.65l28.46,70.22h-17.57L578.06,74.97z M573.46,62.67l-10.34-27.74
			l-10.36,27.74H573.46z"/>
		<polygon  fill="#FFFFFF"  points="529.48,20.24 469.15,20.24 469.15,33.58 491.42,33.58 491.42,90.48 507.22,90.48 507.21,33.58 529.48,33.58 		"/>
	</g>
</g>
</svg>
