<?xml version="1.0" encoding="utf-8"?>
<!-- Generator: Adobe Illustrator 25.2.3, SVG Export Plug-In . SVG Version: 6.00 Build 0)  -->
<svg version="1.1" id="Capa_1" xmlns="http://www.w3.org/2000/svg" xmlns:xlink="http://www.w3.org/1999/xlink" x="0px" y="0px"
	 viewBox="0 0 516 174" style="enable-background:new 0 0 516 174;" xml:space="preserve">
<style type="text/css">
	.st0{fill:#FFFFFF;}
</style>
<g>
	<g>
		<path class="st0" d="M159.07,64.7c0,7.79-5.38,13.09-13.09,13.09h-10.42V51.83h10.42C153.69,51.83,159.07,56.91,159.07,64.7z
			 M152.63,64.74c0-4.9-3.04-7.61-7.64-7.61h-3.29v15.36h3.29C149.67,72.49,152.63,69.64,152.63,64.74z"/>
		<path class="st0" d="M163.13,51.83h16.27v5.38h-10.13v5.01h9.84v5.19h-9.84v5.01h10.46v5.38h-16.6V51.83z"/>
		<path class="st0" d="M183.36,75.64l1.54-5.63c2.08,1.5,5.01,2.78,7.68,2.78c2.12,0,3.15-0.88,3.15-2.3c0-1.5-1.21-1.97-4.64-3.25
			c-4.32-1.65-7.13-3.51-7.13-7.79c0-5.01,3.8-7.97,9.36-7.97c2.93,0,6.11,0.84,7.86,1.9l-1.76,5.12c-1.76-1.02-4.21-1.68-6.03-1.68
			c-1.9,0-3.18,0.73-3.18,2.01c0,1.57,1.87,2.27,4.86,3.33c4.21,1.5,6.95,3,6.95,7.57c0,5.34-3.77,8.45-9.73,8.45
			C189.02,78.16,185.73,77.24,183.36,75.64z"/>
		<path class="st0" d="M206.29,51.83h6.14v25.97h-6.14V51.83z"/>
		<path class="st0" d="M241.14,51.83v25.97h-5.92l-11.34-16.57v16.57h-5.85V51.83h5.96l11.3,16.57V51.83H241.14z"/>
		<path class="st0" d="M246.7,51.83h16.16v5.38h-10.02v5.19h9.51v5.34h-9.51v10.06h-6.14V51.83z"/>
		<path class="st0" d="M266.82,51.83h16.27v5.38h-10.13v5.01h9.84v5.19h-9.84v5.01h10.46v5.38h-16.6V51.83z"/>
		<path class="st0" d="M286.35,64.88c0-8.08,5.82-13.42,13.79-13.42c3.47,0,6.33,1.02,8.48,2.3l-2.01,5.49
			c-1.79-1.13-3.8-2.05-6.22-2.05c-4.57,0-7.61,3.11-7.61,7.57c0,4.32,2.82,7.64,7.61,7.64c2.78,0,5.23-1.13,6.91-2.23l1.72,5.34
			c-2.41,1.61-5.23,2.63-9.14,2.63C291.87,78.16,286.35,72.78,286.35,64.88z"/>
		<path class="st0" d="M329.18,57.17h-6.58v20.63h-6.14V57.17h-6.66v-5.34h19.38V57.17z"/>
		<path class="st0" d="M344.61,71.1h-8.45l-2.23,6.69h-6.22l9.47-25.97h6.73l9.44,25.97h-6.47L344.61,71.1z M343,66.27l-2.63-7.79
			l-2.6,7.79H343z"/>
		<path class="st0" d="M380.05,64.7c0,7.79-5.38,13.09-13.09,13.09h-10.42V51.83h10.42C374.67,51.83,380.05,56.91,380.05,64.7z
			 M373.61,64.74c0-4.9-3.04-7.61-7.64-7.61h-3.29v15.36h3.29C370.65,72.49,373.61,69.64,373.61,64.74z"/>
		<path class="st0" d="M382.61,64.81c0-8.12,5.85-13.35,13.68-13.35c7.86,0,13.68,5.27,13.68,13.24c0,8.01-5.82,13.46-13.71,13.46
			C388.5,78.16,382.61,72.93,382.61,64.81z M403.57,64.81c0-4.46-3-7.53-7.28-7.53c-4.28,0-7.24,3.07-7.24,7.53
			c0,4.43,2.96,7.53,7.24,7.53C400.57,72.34,403.57,69.23,403.57,64.81z"/>
	</g>
	<g>
		<path class="st0" d="M167.72,102.88c0,7.19-5.07,14.43-14.86,14.43h-6.04v14.55h-10.15V88.99h16.18
			C162.65,88.99,167.72,95.57,167.72,102.88z M157.03,102.88c0-3.93-2.6-5.68-6.52-5.68h-3.68v11.9h3.68
			C154.44,109.1,157.03,106.98,157.03,102.88z"/>
		<path class="st0" d="M187.65,115.8h-3.56v16.06h-10.15V88.99h16.49c9.6,0,14.67,5.74,14.67,12.74c0,5.13-2.72,9.78-7.85,12.26
			l11.47,17.88h-11.84L187.65,115.8z M184.09,107.89h4.65c3.32,0,5.68-1.81,5.68-5.37c0-3.56-2.29-5.31-5.62-5.31h-4.71V107.89z"/>
		<path class="st0" d="M210.06,110.42c0-13.41,9.66-22.04,22.59-22.04c12.98,0,22.59,8.7,22.59,21.86c0,13.23-9.6,22.22-22.65,22.22
			C219.78,132.47,210.06,123.83,210.06,110.42z M244.66,110.42c0-7.37-4.95-12.44-12.02-12.44s-11.96,5.07-11.96,12.44
			c0,7.31,4.89,12.44,11.96,12.44S244.66,117.73,244.66,110.42z"/>
		<path class="st0" d="M261.93,88.99h26.69v8.88h-16.55v8.58h15.7v8.82h-15.7v16.61h-10.15V88.99z"/>
		<path class="st0" d="M294.85,115.8V88.99h10.15v25.67c0,5.56,3.2,8.21,7.85,8.21c4.71,0,7.85-2.66,7.85-8.21V88.99h10.09v26.81
			c0,10.51-7.07,16.67-18,16.67C301.91,132.47,294.85,126.31,294.85,115.8z"/>
		<path class="st0" d="M377.82,88.99v42.88h-9.78l-18.72-27.36v27.36h-9.66V88.99h9.84l18.66,27.36V88.99H377.82z"/>
		<path class="st0" d="M425.83,110.24c0,12.86-8.88,21.62-21.62,21.62H387V88.99h17.21C416.96,88.99,425.83,97.38,425.83,110.24z
			 M415.2,110.3c0-8.09-5.01-12.56-12.62-12.56h-5.44v25.36h5.44C410.31,123.11,415.2,118.4,415.2,110.3z"/>
		<path class="st0" d="M430.06,110.42c0-13.41,9.66-22.04,22.59-22.04c12.98,0,22.59,8.7,22.59,21.86c0,13.23-9.6,22.22-22.65,22.22
			C439.78,132.47,430.06,123.83,430.06,110.42z M464.67,110.42c0-7.37-4.95-12.44-12.02-12.44c-7.07,0-11.96,5.07-11.96,12.44
			c0,7.31,4.89,12.44,11.96,12.44C459.71,122.86,464.67,117.73,464.67,110.42z"/>
	</g>
	<g>
		<path class="st0" d="M434.45,63.92c-0.01,0-0.02,0-0.03,0c-0.45-0.01-0.84-0.31-0.98-0.74l-1.91-5.99l-6.17-3.01
			c-0.36-0.18-0.59-0.54-0.6-0.94c0-0.4,0.22-0.77,0.57-0.96l5.82-3.02l2.38-7c0.14-0.42,0.54-0.71,0.98-0.72
			c0.46-0.02,0.85,0.26,1.01,0.68l2.75,7.02l6.05,3.03c0.38,0.19,0.61,0.58,0.59,1c-0.02,0.42-0.29,0.79-0.68,0.94l-6.22,2.41
			l-2.57,6.62C435.28,63.65,434.89,63.92,434.45,63.92z M428.19,53.19l4.68,2.29c0.26,0.13,0.46,0.36,0.55,0.63l1.13,3.56l1.65-4.25
			c0.11-0.28,0.33-0.5,0.61-0.61l4.43-1.72l-4.27-2.14c-0.24-0.12-0.42-0.32-0.51-0.56l-1.84-4.7l-1.58,4.65
			c-0.09,0.26-0.27,0.48-0.52,0.6L428.19,53.19z"/>
	</g>
	<g>
		<path class="st0" d="M423.7,66.65c-0.01,0-0.01,0-0.02,0c-0.21-0.01-0.39-0.14-0.45-0.33l-0.88-2.65l-2.84-1.33
			c-0.17-0.08-0.27-0.24-0.28-0.42c0-0.18,0.1-0.34,0.26-0.42l2.68-1.33l1.1-3.09c0.07-0.19,0.25-0.31,0.45-0.32
			c0.21-0.01,0.39,0.11,0.47,0.3l1.27,3.1l2.79,1.34c0.17,0.08,0.28,0.26,0.27,0.44c-0.01,0.19-0.13,0.35-0.31,0.42l-2.87,1.07
			l-1.19,2.92C424.09,66.53,423.9,66.65,423.7,66.65z M420.82,61.91l2.16,1.01c0.12,0.06,0.21,0.16,0.25,0.28l0.52,1.57l0.76-1.88
			c0.05-0.12,0.15-0.22,0.28-0.27l2.04-0.76l-1.97-0.94c-0.11-0.05-0.19-0.14-0.24-0.25l-0.85-2.07l-0.73,2.05
			c-0.04,0.11-0.13,0.21-0.24,0.27L420.82,61.91z"/>
	</g>
	<path class="st0" d="M115.49,57.54l-4.08,0.01l-0.01-3.99c0-0.73-0.61-1.33-1.36-1.33l-27.18,0.08c-0.75,0-1.36,0.6-1.35,1.34
		l0.01,3.99l-36.69,0.11c-2.25,0.01-4.07,1.8-4.06,4.01c0.01,2.21,1.84,3.99,4.09,3.98l36.69-0.11l0,1.33
		c-0.05,1.43,0.51,2.81,1.55,3.81s2.45,1.55,3.9,1.49l2.72-0.01l0.02,5.41c-3.62,0.33-6.89,2.27-8.86,5.27l-0.63,0
		c-10.99,0.03-19.97,8.59-20.31,19.35c-0.33,10.76,8.1,19.84,19.07,20.52l0.01,4.06c0.01,2.94,2.45,5.32,5.45,5.31l24.46-0.08
		c3-0.01,5.43-2.4,5.42-5.34l-0.01-3.99l6.79-0.02c0.75,0,1.36-0.6,1.35-1.34l-0.04-13.31c0-0.73-0.61-1.33-1.36-1.33l-6.79,0.02
		l-0.05-17.3c0-1.04-0.13-2.08-0.39-3.09c5.36-4.03,8.5-10.28,8.48-16.91l-0.02-5.32C122.29,60.5,119.24,57.53,115.49,57.54
		L115.49,57.54z M46.21,63.08l-1.36,0c-0.75,0-1.36-0.59-1.36-1.33s0.6-1.33,1.35-1.34l1.36,0L46.21,63.08z M114.29,109.46
		l5.44-0.02l0.03,10.65l-5.44,0.02L114.29,109.46z M84.23,54.97l24.46-0.08l0.01,2.66l-24.46,0.08L84.23,54.97z M86.99,69.61
		c-0.73,0.04-1.45-0.22-1.97-0.73c-0.52-0.51-0.8-1.21-0.76-1.93l0-1.33l2.72-0.01L86.99,69.61z M48.92,63.07l-0.01-2.66l66.58-0.2
		c1.73,0,3.27,1.06,3.85,2.65L48.92,63.07z M103.31,72.22l2.72-0.01c1.46,0.04,2.87-0.5,3.89-1.52c1.03-1.01,1.58-2.4,1.52-3.82
		l0-1.33l2.72-0.01l0.01,3.99c0.01,3.96-1.78,7.73-4.89,10.26c-1.76-1.22-3.81-1.97-5.95-2.17L103.31,72.22z M100.58,69.56
		l-0.01-3.99l2.72-0.01l0.01,3.99L100.58,69.56z M106.02,69.55L106,65.55l2.72-0.01l0,1.33c0.04,0.72-0.23,1.42-0.74,1.93
		C107.47,69.32,106.75,69.59,106.02,69.55L106.02,69.55z M92.44,72.25l8.15-0.03l0.02,5.32l-8.15,0.03L92.44,72.25z M89.71,69.6
		L89.7,65.6l2.72-0.01l0.01,3.99L89.71,69.6z M95.15,69.58l-0.01-3.99l2.72-0.01l0.01,3.99L95.15,69.58z M91.1,80.24l10.87-0.03
		c1.68-0.01,3.34,0.39,4.81,1.18c-1.9,0.97-4.02,1.48-6.16,1.48l-16.31,0.05C86.12,81.18,88.56,80.21,91.1,80.24L91.1,80.24z
		 M111.63,126.77c0,1.47-1.21,2.67-2.71,2.67l-24.46,0.08c-1.5,0-2.72-1.18-2.73-2.65l-0.01-3.99l29.9-0.09L111.63,126.77z
		 M111.59,114.79l-29.9,0.09l-0.07-23.96l19.02-0.06c3.77-0.01,7.48-0.99,10.74-2.84c0.08,0.49,0.12,0.98,0.12,1.48L111.59,114.79z
		 M100.64,88.2l-20.38,0.06c-8.25,0.03-14.93,6.6-14.9,14.69s6.74,14.62,14.99,14.6l31.25-0.1l0.01,2.66l-31.25,0.1
		c-9.76,0.03-17.69-7.69-17.72-17.25c-0.03-9.56,7.86-17.33,17.61-17.36l20.38-0.06c8.47-0.04,15.51-6.42,16.2-14.69l2.73-0.01
		C118.87,80.58,110.61,88.16,100.64,88.2L100.64,88.2z M78.91,91.01l0.07,23.8c-6.17-0.68-10.85-5.78-10.87-11.87
		C68.09,96.86,72.73,91.72,78.91,91.01L78.91,91.01z M119.6,68.18l-2.72,0.01l-0.01-2.66l2.72-0.01L119.6,68.18z M119.6,68.18"/>
</g>
</svg>
