<?xml version="1.0" encoding="utf-8"?>
<!-- Generator: Adobe Illustrator 25.2.3, SVG Export Plug-In . SVG Version: 6.00 Build 0)  -->
<svg version="1.1" id="Capa_1" xmlns="http://www.w3.org/2000/svg" xmlns:xlink="http://www.w3.org/1999/xlink" x="0px" y="0px"
	 viewBox="0 0 548.87 269.81" style="enable-background:new 0 0 548.87 269.81;" xml:space="preserve">
<style type="text/css">
	.st0{fill:#FFFFFF;}
</style>
<g>
	<g>
		<g>
			<path class="st0" d="M386.96,64.53c-0.85-2.28-4.34-0.95-3.5,1.31l1.96,5.25c0.84,2.26,4.34,0.95,3.5-1.31L386.96,64.53z"/>
			<path class="st0" d="M416.18,63.54l0-5.61c0-2.43-3.73-2.41-3.74,0l0,5.61C412.44,65.95,416.18,65.95,416.18,63.54z"/>
			<path class="st0" d="M443.39,61.99l-2.8,4.86c-1.2,2.09,2.03,3.95,3.24,1.86l2.8-4.86C447.84,61.75,444.6,59.91,443.39,61.99z"/>
			<path class="st0" d="M468.9,77.81l-4,3.92c-1.72,1.68,0.89,4.35,2.61,2.67l4-3.92C473.25,78.78,470.62,76.13,468.9,77.81z"/>
			<path class="st0" d="M483.08,107.68l5.36-1.66c2.32-0.72,1.19-4.28-1.11-3.57l-5.35,1.66
				C479.68,104.82,480.78,108.39,483.08,107.68z"/>
			<path class="st0" d="M491.58,131.11l-5.61,0.07c-2.41,0.03-2.36,3.76,0.04,3.73l5.61-0.06
				C494.05,134.81,493.99,131.08,491.58,131.11z"/>
			<path class="st0" d="M486.88,162.22l-5.28-1.88c-2.27-0.81-3.52,2.71-1.25,3.52l5.28,1.88
				C487.91,166.56,489.14,163.03,486.88,162.22z"/>
			<path class="st0" d="M465.51,183.06c-1.66-1.75-4.37,0.83-2.71,2.57l3.86,4.06c1.67,1.76,4.36-0.83,2.71-2.57L465.51,183.06z"/>
			<path class="st0" d="M443.26,200.26c-0.82-2.26-4.33-0.99-3.51,1.27l1.91,5.27c0.83,2.28,4.33,0.99,3.51-1.27L443.26,200.26z"/>
			<path class="st0" d="M412.92,206.79l-0.16,5.6c-0.07,2.43,3.66,2.51,3.73,0.11l0.16-5.6
				C416.72,204.49,412.99,204.38,412.92,206.79z"/>
		</g>
	</g>
	
		<rect x="482.03" y="58.49" transform="matrix(0.7071 0.7071 -0.7071 0.7071 186.4962 -328.0049)" class="st0" width="14.31" height="5.25"/>
	
		<rect x="485.38" y="47.44" transform="matrix(0.7381 0.6746 -0.6746 0.7381 165.7673 -323.2365)" class="st0" width="27.8" height="8.97"/>
	<path class="st0" d="M418.38,92.18c-2.45,0-4.59,1.05-6.25,2.71c-2.27,2.27-3.58,5.68-3.58,9.06c0,5.1,2.49,8.43,7.59,8.43
		c2.31,0,4.46-0.99,6.1-2.65c2.17-2.17,3.49-5.52,3.49-9.09C425.74,96.25,424,92.18,418.38,92.18z M123,92.15h-0.09
		c-0.81,1.71-1.59,3.74-2.47,5.48l-3.16,6.44h7.2l-0.83-6.45C123.47,96.02,123.22,93.85,123,92.15z M59.31,80.77l-7.71,44.84h387.93
		l8.03-44.84H59.31z M93.7,117.39l1.91-12.69c0.56-3.53,1.25-7.97,2.15-12.5h-0.1c-1.83,3.91-3.86,8.28-5.76,12.04l-6.59,12.65
		h-5.37l-1.26-12.45c-0.33-3.74-0.6-8.18-0.84-12.25h-0.09c-0.91,4.03-1.87,9-2.69,12.5l-3.04,12.69h-6.3l7.57-30.21h9.53
		l1.11,10.54c0.2,3.02,0.61,6.54,0.65,10.3h0.2c1.41-3.76,3.15-7.44,4.58-10.31l5.54-10.52h9.69l-4.14,30.21H93.7z M125.76,117.39
		l-0.84-8.12h-9.74l-3.85,8.12h-7.38l15.57-30.21h8.88l4.59,30.21H125.76z M162.5,117.39h-7.32l-4.8-12.3
		c-1.47-4.08-2.47-7.03-3.42-10.7l-0.17,0.02c-0.31,2.92-1.04,6.94-1.91,11.55l-2.15,11.43h-6.41l5.71-30.21h8.4l4.54,11.38
		c1.39,3.8,2.3,7.01,3.17,10.62l0.13-0.02c0.05-3.02,0.46-5.7,1.24-9.93l2.26-12.05h6.44L162.5,117.39z M181.82,117.39h-6.74
		l4.57-24.46h-8.86l1.14-5.75h24.59l-1.1,5.75h-9.03L181.82,117.39z M216.93,99.09l-1.1,5.68h-12.09l-1.31,6.94h13.54l-1.07,5.68
		h-20.31l5.71-30.21h19.62l-1.1,5.68h-12.85l-1.17,6.23H216.93z M245.91,117.39h-7.32l-4.8-12.3c-1.47-4.08-2.47-7.03-3.42-10.7
		l-0.17,0.02c-0.31,2.92-1.04,6.94-1.91,11.55l-2.15,11.43h-6.41l5.71-30.21h8.4l4.54,11.38c1.39,3.8,2.3,7.01,3.17,10.62l0.13-0.02
		c0.05-3.02,0.46-5.7,1.24-9.93l2.26-12.05h6.44L245.91,117.39z M251.88,117.39l5.71-30.21h6.74l-5.71,30.21H251.88z M298.95,117.39
		h-6.73l1.91-12.69c0.56-3.53,1.25-7.97,2.15-12.5h-0.1c-1.83,3.91-3.86,8.28-5.76,12.04l-6.59,12.65h-5.37l-1.26-12.45
		c-0.33-3.74-0.6-8.18-0.84-12.25h-0.09c-0.91,4.03-1.87,9-2.69,12.5l-3.04,12.69h-6.3l7.57-30.21h9.53l1.11,10.54
		c0.2,3.02,0.61,6.54,0.65,10.3h0.2c1.41-3.76,3.15-7.44,4.58-10.31l5.54-10.52h9.69L298.95,117.39z M311.11,117.39h-6.74
		l5.71-30.21h6.74L311.11,117.39z M339.61,99.09l-1.1,5.68h-12.09l-1.31,6.94h13.54l-1.07,5.68h-20.31l5.71-30.21h19.62l-1.1,5.68
		h-12.85l-1.17,6.23H339.61z M368.59,117.39h-7.32l-4.8-12.3c-1.47-4.08-2.47-7.03-3.42-10.7l-0.17,0.02
		c-0.31,2.92-1.04,6.94-1.91,11.55l-2.15,11.43h-6.41l5.71-30.21h8.4l4.54,11.38c1.39,3.8,2.3,7.01,3.17,10.62l0.13-0.02
		c0.05-3.02,0.45-5.7,1.24-9.93l2.26-12.05h6.44L368.59,117.39z M387.92,117.39h-6.74l4.58-24.46h-8.86l1.14-5.75h24.59l-1.1,5.75
		h-9.03L387.92,117.39z M427.8,113.1c-3.13,3.02-7.47,4.82-12.64,4.82c-8.25,0-13.85-5.24-13.85-13.5c0-5.22,2-9.78,5.35-12.97
		c3.16-3.01,7.59-4.81,12.49-4.81c8.46,0,13.83,5.16,13.83,13.61C432.98,105.42,431.1,109.9,427.8,113.1z"/>
	<g>
		<g>
			<polygon class="st0" points="87.32,160.66 87.8,158.43 63.57,158.43 63.88,157.01 44.96,157.01 44.19,160.66 			"/>
			<polygon class="st0" points="64.75,153.09 65.42,150.12 46.42,150.12 45.79,153.09 			"/>
			<polygon class="st0" points="66.29,146.19 91.68,146.08 92.45,142.55 48.02,142.55 47.25,146.19 			"/>
			<polygon class="st0" points="48.84,138.63 93.31,138.63 94,135.48 49.51,135.48 			"/>
			<polygon class="st0" points="85.86,167.44 86.47,164.58 43.36,164.58 42.76,167.44 			"/>
			<polygon class="st0" points="84.1,189.79 84.72,186.85 57.57,186.85 57.7,186.26 38.79,186.26 38.04,189.79 			"/>
			<polygon class="st0" points="60.19,174.89 60.66,172.73 84.72,172.73 85.01,171.36 41.93,171.36 41.19,174.89 			"/>
			<polygon class="st0" points="82.34,198.02 83.26,193.71 37.21,193.71 36.3,198.02 			"/>
			<polygon class="st0" points="58.56,182.34 59.33,178.81 40.36,178.81 39.61,182.34 			"/>
		</g>
	</g>
	<g>
		<g>
			<polygon class="st0" points="100.37,138.67 119.56,138.67 118.79,135.48 99.37,135.48 			"/>
			<path class="st0" d="M121.32,146.33c-0.22-1.01-0.46-2.09-0.71-3.28l-0.1-0.41h-18.89l1.16,3.69H121.32z"/>
			<polygon class="st0" points="136.35,160.98 139.06,157.29 106.23,157.29 107.39,160.98 			"/>
			<polygon class="st0" points="132.44,138.67 152.7,138.67 155.03,135.48 134.19,135.48 			"/>
			<path class="st0" d="M118.61,179.36c0.3,1.26,0.59,2.43,0.89,3.57h18.33l-1.22-3.57H118.61z"/>
			<path class="st0" d="M141.96,153.32l2.21-3.02h-17.95c-0.49,0.95-1.01,1.94-1.57,3.02H141.96z"/>
			<path class="st0" d="M139.19,186.9h-18.66c0.18,0.67,0.36,1.35,0.55,2.08l0.4,1.5h18.93L139.19,186.9z"/>
			<path class="st0" d="M147.08,146.33l2.7-3.69h-19.53l-0.08,0.14c-0.67,1.25-1.28,2.4-1.88,3.55H147.08z"/>
			<path class="st0" d="M122.88,153.32c-0.22-1.05-0.44-2.04-0.66-3.02h-18.18l0.95,3.02H122.88z"/>
			<polygon class="st0" points="106.67,198.02 108.64,194.45 88.29,194.45 85.71,198.02 			"/>
			<polygon class="st0" points="141.77,194.45 122.53,194.45 123.48,198.02 142.99,198.02 			"/>
			<polygon class="st0" points="107.57,167.85 132.67,167.85 132.24,166.59 133.44,164.95 108.63,164.95 108.95,165.95 			"/>
			<polygon class="st0" points="135.25,175.39 134.03,171.82 104.69,171.82 102.11,175.39 			"/>
			<path class="st0" d="M110.83,190.48l0.36-0.66c0.59-1.05,1.11-2,1.61-2.91H93.76l-2.59,3.57H110.83z"/>
			<path class="st0" d="M114.93,182.93c0.63-1.18,1.25-2.34,1.91-3.57H99.23l-2.59,3.57H114.93z"/>
		</g>
	</g>
	<g>
		<g>
			<polygon class="st0" points="153.82,179.06 153.08,182.57 171.59,182.57 172.34,179.06 			"/>
			<polygon class="st0" points="151.51,189.98 170,189.98 170.75,186.47 152.25,186.47 			"/>
			<path class="st0" d="M193.87,152.48c0,0.34-0.02,0.67-0.05,1.01h18.92c0.07-0.79,0.12-1.6,0.12-2.43c0-0.18-0.01-0.36-0.02-0.54
				h-19.18C193.8,151.12,193.87,151.77,193.87,152.48z"/>
			<path class="st0" d="M155.39,171.65l-0.74,3.51h40.33c2.5-0.91,4.81-2.05,6.84-3.44c0.03-0.02,0.06-0.04,0.09-0.06H155.39z"/>
			<polygon class="st0" points="150.68,193.87 149.79,198.08 168.26,198.08 169.16,193.87 			"/>
			<polygon class="st0" points="159.88,150.53 159.25,153.49 177.76,153.49 178.4,150.53 			"/>
			<path class="st0" d="M161.47,143l-0.77,3.62h18.53l0.27-1.25c1.06-0.21,2.82-0.32,5.18-0.32c2.46,0,4.68,0.48,6.32,1.57h21.3
				c-0.33-1.27-0.8-2.48-1.4-3.62H161.47z"/>
			<path class="st0" d="M203.21,135.48h-40.14l-0.77,3.62h45.77c-1.01-1.04-2.17-1.97-3.46-2.78
				C204.16,136.03,203.69,135.75,203.21,135.48z"/>
			<path class="st0" d="M192.67,157.39c-0.67,1.33-1.62,2.57-2.86,3.62h21.02c0.5-1.15,0.92-2.35,1.24-3.62H192.67z"/>
			<polygon class="st0" points="176.15,161.01 176.93,157.39 158.42,157.39 157.65,161.01 			"/>
			<path class="st0" d="M156.83,164.91l-0.6,2.84h50.2c0.81-0.88,1.57-1.83,2.27-2.84H156.83z"/>
		</g>
	</g>
	<g>
		<g>
			<path class="st0" d="M216.17,171.69l-0.75,3.5h47.13c-0.55-1.37-1.25-2.54-2.14-3.5H216.17z"/>
			<path class="st0" d="M245.88,189.98h18.93c-0.11-1.17-0.22-2.34-0.32-3.5h-18.87C245.7,187.71,245.79,188.88,245.88,189.98z"/>
			<polygon class="st0" points="229.15,198.08 230.04,193.88 211.42,193.88 210.52,198.08 			"/>
			<path class="st0" d="M246.22,193.88c0.16,1.61,0.31,3.02,0.47,4.2h19.05c-0.2-1.24-0.38-2.67-0.55-4.2H246.22z"/>
			<polygon class="st0" points="214.59,179.08 213.84,182.59 232.41,182.59 233.15,179.08 			"/>
			<path class="st0" d="M245.25,182.59h18.86c-0.03-0.27-0.06-0.54-0.09-0.8c-0.1-0.95-0.23-1.85-0.38-2.7h-19.38
				C244.69,180.03,245.02,181.18,245.25,182.59z"/>
			<polygon class="st0" points="230.86,189.98 231.59,186.48 213.01,186.48 212.26,189.98 			"/>
			<path class="st0" d="M254.52,150.58c0.07,0.37,0.11,0.76,0.11,1.16c0,0.61-0.07,1.21-0.17,1.79h19.31
				c0.2-0.95,0.33-1.93,0.4-2.96H254.52z"/>
			<path class="st0" d="M217.62,164.95l-0.61,2.84h44.12c1.8-0.8,3.48-1.74,4.99-2.84H217.62z"/>
			<path class="st0" d="M265.68,135.64c-0.05-0.03-0.1-0.05-0.15-0.08h-41.62l-0.78,3.62h47.15
				C268.98,137.77,267.42,136.6,265.68,135.64z"/>
			<path class="st0" d="M252.86,157.44c-1.02,1.49-2.44,2.72-4.17,3.62h21.54c0.88-1.11,1.64-2.32,2.25-3.62H252.86z"/>
			<path class="st0" d="M222.3,143.07l-0.78,3.62h18.57l0.31-1.5c1.11-0.21,2.75-0.36,5.11-0.36c2.67,0,4.94,0.67,6.55,1.86H274
				c-0.21-1.3-0.58-2.51-1.09-3.62H222.3z"/>
			<polygon class="st0" points="237.12,161.06 237.87,157.44 219.23,157.44 218.45,161.06 			"/>
			<polygon class="st0" points="220.69,150.58 220.06,153.54 238.68,153.54 239.29,150.58 			"/>
		</g>
	</g>
	<g>
		<g>
			<polygon class="st0" points="279.34,186.47 278.6,189.98 324.65,189.98 325.28,187.06 298.12,187.06 298.25,186.47 			"/>
			<polygon class="st0" points="282.49,171.65 281.74,175.16 300.74,175.16 301.21,173.01 325.27,173.01 325.57,171.65 			"/>
			<polygon class="st0" points="288.57,143 287.8,146.63 306.84,146.63 306.87,146.51 332.24,146.51 333.01,143 			"/>
			<polygon class="st0" points="285.52,157.39 284.75,161.01 327.87,161.01 328.35,158.79 304.12,158.79 304.43,157.39 			"/>
			<polygon class="st0" points="277.77,193.87 276.87,198.08 322.91,198.08 323.81,193.87 			"/>
			<polygon class="st0" points="286.97,150.53 286.34,153.49 305.31,153.49 305.97,150.53 			"/>
			<polygon class="st0" points="290.17,135.48 289.4,139.1 333.86,139.1 334.66,135.48 			"/>
			<polygon class="st0" points="283.92,164.91 283.31,167.76 326.41,167.76 327.03,164.91 			"/>
			<polygon class="st0" points="280.91,179.06 280.17,182.57 299.11,182.57 299.88,179.06 			"/>
		</g>
	</g>
	<path class="st0" d="M414.31,37.5c-30.49,0-57.71,14.02-75.57,35.95h15.85c15.43-15,36.5-24.24,59.72-24.24
		c47.33,0,85.7,38.37,85.7,85.7s-38.37,85.7-85.7,85.7c-18.33,0-35.32-5.76-49.25-15.56h-18.34c17.52,16.89,41.34,27.28,67.59,27.28
		c53.8,0,97.41-43.61,97.41-97.41S468.11,37.5,414.31,37.5z"/>
	<g>
		<g>
			<path class="st0" d="M368.44,178.52c0.25,0.58,0.39,1.23,0.35,1.96c-0.03,0.53-0.2,1.03-0.47,1.5h17.31
				c0.21-1.11,0.34-2.27,0.37-3.46H368.44z"/>
			<path class="st0" d="M349.27,178.52h-15.94c-0.01,0.99,0.03,2.17,0.18,3.46h17.04C349.91,181.03,349.47,179.88,349.27,178.52z"/>
			<path class="st0" d="M354.31,171.2c2.02,0.87,4.39,1.78,7.21,2.81c0,0,0.94,0.19,2.14,0.66h22.05c-0.21-1.16-0.53-2.32-1-3.46
				H354.31z"/>
			<path class="st0" d="M379.25,193.88h-40.69c1.4,1.57,3.17,3.01,5.39,4.2h29.96C375.91,196.89,377.69,195.47,379.25,193.88z"/>
			<path class="st0" d="M358.86,185.83h-24.61c0.38,1.38,0.92,2.8,1.65,4.2h46.45c0.46-0.71,0.89-1.43,1.28-2.16
				c0.32-0.61,0.62-1.29,0.91-2.04h-25.06C359.28,185.84,359.07,185.83,358.86,185.83z"/>
			<path class="st0" d="M344.77,164.77c0.75,0.95,1.61,1.79,2.61,2.58h35.05c-0.79-0.99-1.72-1.93-2.83-2.81H344.6
				C344.66,164.62,344.71,164.7,344.77,164.77z"/>
			<path class="st0" d="M379.33,135.48h-29.85c-1.13,0.79-2.18,1.71-3.12,2.81c-0.21,0.24-0.42,0.5-0.63,0.77h37.73
				C382.31,137.77,380.95,136.55,379.33,135.48z"/>
			<path class="st0" d="M343.3,142.91c-0.56,1.11-1.07,2.31-1.49,3.58h18.8c0.45-0.19,0.96-0.36,1.54-0.5
				c1.84-0.44,4.48-0.63,6.85,0.5h18.85c-0.43-1.16-0.98-2.37-1.66-3.58H343.3z"/>
			<path class="st0" d="M372.8,150.34c0.42,0.83,0.78,1.8,1.05,2.92h15.61c-0.08-0.77-0.23-1.77-0.48-2.92H372.8z"/>
			<path class="st0" d="M341.09,157.11c0.26,1.19,0.65,2.39,1.18,3.58h30.27c-2.7-1.18-5.67-2.38-8.25-3.58H341.09z"/>
			<path class="st0" d="M357.63,150.34H340.9c-0.14,0.96-0.21,1.93-0.21,2.92h17.74C357.94,152.47,357.59,151.42,357.63,150.34z"/>
		</g>
	</g>
	<g>
		<g>
			<path class="st0" d="M426.55,178.09c0.25,0.58,0.39,1.22,0.35,1.94c-0.03,0.52-0.2,1.02-0.47,1.49h17.31
				c0.21-1.09,0.34-2.25,0.37-3.43H426.55z"/>
			<path class="st0" d="M407.38,178.09h-15.94c-0.01,0.98,0.03,2.15,0.18,3.43h17.04C408.03,180.57,407.58,179.43,407.38,178.09z"/>
			<path class="st0" d="M412.43,170.85c2.02,0.87,4.39,1.77,7.21,2.78c0,0,0.94,0.19,2.14,0.65h22.05c-0.21-1.15-0.53-2.3-1-3.43
				H412.43z"/>
			<path class="st0" d="M437.36,193.3h-40.69c1.4,1.56,3.17,2.98,5.39,4.16h29.96C434.03,196.28,435.81,194.87,437.36,193.3z"/>
			<path class="st0" d="M416.97,185.33h-24.61c0.38,1.37,0.92,2.78,1.65,4.16h46.45c0.46-0.7,0.89-1.41,1.28-2.14
				c0.32-0.6,0.62-1.28,0.91-2.02H417.6C417.39,185.33,417.18,185.33,416.97,185.33z"/>
			<path class="st0" d="M402.89,164.48c0.75,0.94,1.61,1.77,2.61,2.56h35.05c-0.79-0.98-1.72-1.91-2.83-2.78h-35.01
				C402.78,164.33,402.83,164.4,402.89,164.48z"/>
			<path class="st0" d="M437.45,135.48h-29.85c-1.13,0.78-2.18,1.7-3.12,2.78c-0.21,0.24-0.42,0.5-0.63,0.76h37.73
				C440.43,137.74,439.06,136.54,437.45,135.48z"/>
			<path class="st0" d="M401.42,142.84c-0.56,1.1-1.07,2.28-1.49,3.54h18.8c0.45-0.19,0.96-0.36,1.54-0.5
				c1.84-0.43,4.48-0.62,6.85,0.5h18.85c-0.43-1.15-0.98-2.35-1.66-3.54H401.42z"/>
			<path class="st0" d="M430.91,150.19c0.42,0.82,0.78,1.78,1.05,2.9h15.61c-0.08-0.76-0.23-1.75-0.48-2.9H430.91z"/>
			<path class="st0" d="M399.21,156.9c0.26,1.18,0.65,2.37,1.18,3.54h30.27c-2.7-1.17-5.67-2.35-8.25-3.54H399.21z"/>
			<path class="st0" d="M415.75,150.19h-16.74c-0.14,0.95-0.21,1.91-0.21,2.9h17.74C416.05,152.3,415.7,151.26,415.75,150.19z"/>
		</g>
	</g>
</g>
</svg>
