<?xml version="1.0" encoding="utf-8"?>
<!-- Generator: Adobe Illustrator 25.2.3, SVG Export Plug-In . SVG Version: 6.00 Build 0)  -->
<svg version="1.1" id="Capa_1" xmlns="http://www.w3.org/2000/svg" xmlns:xlink="http://www.w3.org/1999/xlink" x="0px" y="0px"
	 viewBox="0 0 646 382" style="enable-background:new 0 0 646 382;" xml:space="preserve">
<style type="text/css">
	.st0{fill:#FFFFFF;}
</style>
<g>
	<path class="st0" d="M539.59,142.59l0.37,3.09c0.1,1.03,0.11,2.07,0.17,3.11c0.11,2.2,0.13,4.39,0.08,6.58l29.06-4.13
		c-0.14-1.76-0.3-3.52-0.51-5.28c-0.18-1.39-0.31-2.79-0.55-4.18l-0.78-4.16c-0.34-2.07-0.85-4.1-1.38-6.13l-26.77,8.65
		C539.41,140.96,539.52,141.77,539.59,142.59"/>
	<path class="st0" d="M370.69,54.76l-1.17-12.39c-3.01,0.61-6,1.25-8.94,1.95l2.38,11.54C365.52,55.46,368.1,55.1,370.69,54.76"/>
	<path class="st0" d="M560.55,209.34c3.51-9.53,6.26-19.72,7.78-30.4c0.76-5.32,1.21-10.78,1.3-16.29l-30.43,4.32
		c-0.31,2.12-0.7,4.22-1.14,6.31c-2.35,10.92-6.45,21.26-11.53,30.79l33.12,7.63C559.95,210.92,560.26,210.14,560.55,209.34"/>
	<path class="st0" d="M336.12,61.58l-3.49-9.03c-2.72,0.95-5.42,1.93-8.04,2.97l4.18,8.14C331.18,62.92,333.64,62.23,336.12,61.58"
		/>
	<path class="st0" d="M295.77,75.73c2.54-1.06,5.13-2.14,7.76-3.24l-4.18-5.8c-2.09,1.06-4.17,2.12-6.21,3.15
		c-0.73,0.38-1.47,0.74-2.19,1.12l4.42,4.93C295.51,75.84,295.64,75.79,295.77,75.73"/>
	<path class="st0" d="M242.79,104.26c-0.4,0.37-0.79,0.73-1.18,1.09h3.06c2.4-1.7,4.97-3.52,7.69-5.45l-2.41-1.54
		C247.41,100.44,245.01,102.42,242.79,104.26"/>
	<path class="st0" d="M269.81,88.86c1.64-0.89,3.31-1.83,5-2.76l-3.61-3.24c-1.19,0.78-2.38,1.56-3.54,2.31
		c-0.59,0.37-1.16,0.75-1.73,1.14l3.57,2.72C269.61,88.97,269.71,88.91,269.81,88.86"/>
	<path class="st0" d="M504.12,83.02c1.79,1.38,3.53,2.81,5.22,4.28l19.72-14.4c-3.55-2.99-7.23-5.76-11.02-8.32l-17.37,15.89
		C501.84,81.3,502.99,82.15,504.12,83.02"/>
	<path class="st0" d="M455.12,59.53c0.43,0.12,0.85,0.24,1.28,0.36l10.51-17.2c-2.6-0.62-5.21-1.18-7.81-1.69
		c-1.14-0.22-2.27-0.39-3.4-0.58l-8.15,17.26C450.08,58.25,452.61,58.86,455.12,59.53"/>
	<path class="st0" d="M562.94,121.29l-0.34-1.01l-0.17-0.5c0.01,0.02-0.4-1.08-0.27-0.71l-0.09-0.21l-0.72-1.71l-1.44-3.42
		c-0.17-0.45-0.42-1-0.7-1.57l-24.65,10.32c0.07,0.16,0.15,0.32,0.22,0.56l0.3,0.88l1.2,3.52l0.6,1.75l0.08,0.22
		c0.18,0.51-0.16-0.44-0.11-0.28l0.1,0.38l0.2,0.77l0.31,1.21l26.08-8.43L562.94,121.29z"/>
	<path class="st0" d="M401.4,52.74c2.29-0.01,4.59,0.02,6.89,0.08l3.07-15.4c-3,0.1-5.99,0.25-8.96,0.46L401,52.74
		C401.13,52.74,401.27,52.74,401.4,52.74"/>
	<path class="st0" d="M518.92,216.81c-8.6,12.81-18.61,23.72-28.63,32.89c-0.89,0.8-1.77,1.57-2.66,2.35l29.15,25.84
		c11-11.69,21.95-25.5,31.31-41.84c2.08-3.68,4.08-7.49,5.97-11.41l-34.98-8.06C519.02,216.65,518.97,216.73,518.92,216.81"/>
	<path class="st0" d="M460.82,272.22c-9.3,5.98-17.83,10.5-24.92,14.01c-3.21,1.51-6.14,2.94-8.64,4.01l-11.75,54.32
		c7.72-2.29,14.75-5.38,14.75-5.38s2.21-1.07,6.35-3.07c1.96-0.91,4.89-2.45,8.17-4.17c3.38-1.7,6.91-3.77,10.95-6.05
		c8-4.71,17.55-10.73,27.94-18.54c6.63-4.98,13.6-10.7,20.68-17.23l-30.44-26.98C469.44,266.48,465.05,269.51,460.82,272.22"/>
	<path class="st0" d="M158.87,228.17c-1.26-2.29-3.19-4.09-5.79-5.39c-2.6-1.3-5.97-1.94-10.11-1.94H96.14l8.89,6.23L88.8,299.37
		c-0.17,0.74,0.12,1.11,0.86,1.11h13.89c0.74,0,1.19-0.37,1.36-1.11l5.71-25.44c0.17-0.74,0.62-1.11,1.36-1.11h19.33
		c4.15,0,7.8-0.61,10.96-1.83c3.16-1.22,5.89-2.98,8.18-5.27c2.29-2.3,4.2-5.03,5.74-8.22c1.53-3.19,2.73-6.74,3.61-10.66
		c0.85-3.78,1.22-7.26,1.12-10.44C160.82,233.21,160.14,230.47,158.87,228.17 M145.32,243.78c-0.18,1.3-0.35,2.31-0.52,3.05
		c-0.16,0.74-0.45,1.76-0.85,3.05c-0.4,1.3-0.93,2.57-1.58,3.83c-0.65,1.26-1.47,2.35-2.46,3.28c-0.98,0.92-2.14,1.39-3.48,1.39
		h-21.22c-0.74,0-1.03-0.37-0.86-1.11l4.69-20.88c0.17-0.74,0.62-1.11,1.36-1.11h21.22c1.33,0,2.29,0.46,2.85,1.39
		c0.57,0.93,0.9,2.02,0.99,3.27C145.55,241.2,145.5,242.48,145.32,243.78"/>
	<path class="st0" d="M252.3,220.84h-25.26l8.87,6.22l-16.22,72.31c-0.17,0.74,0.12,1.11,0.86,1.11h13.88
		c0.74,0,1.19-0.37,1.36-1.11l17.37-77.42C253.32,221.21,253.04,220.84,252.3,220.84"/>
	<path class="st0" d="M394.12,220.84H328.2l8.87,6.21l-1.6,7.12c-0.16,0.74,0.12,1.11,0.86,1.11h18.11c0.74,0,1.03,0.37,0.86,1.11
		l-14.13,62.98c-0.17,0.74,0.12,1.11,0.86,1.11h13.89c0.74,0,1.19-0.37,1.36-1.11l14.13-62.98c0.17-0.74,0.62-1.11,1.36-1.11h18.11
		c0.74,0,1.19-0.37,1.36-1.11l2.74-12.22C395.15,221.21,394.86,220.84,394.12,220.84"/>
	<path class="st0" d="M327.51,220.84h-25.28l8.89,6.22l-12.79,56.98c-0.17,0.74-0.51,1.11-1.03,1.11c-0.52,0-0.81-0.37-0.86-1.11
		l-2.57-54.87c-0.16-2.59-1.13-4.63-2.91-6.11c-1.78-1.48-5-2.22-9.67-2.22h-25.01l8.91,6.24l0.04-0.01
		c-0.59,0.8-1.13,1.68-1.59,2.66c-0.99,2.08-1.8,4.56-2.45,7.44l-13.96,62.2c-0.17,0.74,0.12,1.11,0.86,1.11h13.88
		c0.74,0,1.19-0.37,1.36-1.11l13.98-62.31c0.15-0.67,0.48-1,1-1c0.44,0,0.7,0.33,0.78,1l2.61,55.2c0.06,1.04,0.32,2.04,0.77,3
		s1.03,1.83,1.75,2.61c0.72,0.78,1.52,1.41,2.41,1.89c0.89,0.48,1.78,0.73,2.67,0.73h10.22c1.55,0,3.1-0.39,4.65-1.17
		c1.55-0.78,2.96-1.79,4.24-3.05c1.28-1.26,2.38-2.63,3.31-4.11c0.92-1.48,1.55-2.96,1.89-4.44l14.75-65.76
		C328.54,221.21,328.25,220.84,327.51,220.84"/>
	<path class="st0" d="M210.44,227.39c-0.24-2.89-1.48-4.7-3.72-5.44c-2.15-0.71-5.22-1.07-9.19-1.1l-25.24-0.01l8.91,6.24
		c-0.06,0.11-39,72.74-39,72.74c-0.1,0.44,0.15,0.67,0.74,0.67h14.44c0.74,0,1.3-0.37,1.69-1.11l10.15-18.99
		c0.4-0.81,0.98-1.22,1.72-1.22h26.1c0.74,0,1.14,0.37,1.19,1.11l1.57,19.21c0.07,0.67,0.48,1,1.22,1h14.55
		c0.52,0,0.83-0.22,0.93-0.67L210.44,227.39z M196.75,263.16c-0.12,0.52-0.47,0.78-1.06,0.78h-16.55c-0.6,0-0.83-0.26-0.72-0.78
		c0.02-0.07,0.05-0.15,0.11-0.22c0.05-0.07,0.1-0.18,0.13-0.33l13.46-25.33c0.74-1.33,1.3-2,1.67-2c0.37,0,0.6,0.13,0.69,0.39
		c0.09,0.26,0.15,0.8,0.19,1.61l2.09,25.33c-0.03,0.15-0.04,0.26-0.02,0.33C196.77,263.01,196.77,263.09,196.75,263.16"/>
	<path class="st0" d="M189.81,144.72c-0.15-2.29-0.62-4.18-1.4-5.66c-1.05-1.93-2.52-3.61-4.42-5.05c-1.9-1.44-4.04-2.46-6.42-3.05
		c-1.7-0.37-3.79-0.59-6.29-0.67c-2.5-0.07-46.84-0.11-46.84-0.11l8.91,6.24c-1.15,0.82-2.25,1.74-3.27,2.76
		c-1.63,1.63-3.11,3.65-4.47,6.05c-1.36,2.41-2.63,4.94-3.82,7.61c-0.42,0.89-0.78,1.83-1.08,2.83c-0.3,1-0.64,2.18-1.02,3.56
		c-0.38,1.37-0.8,3.05-1.25,5.05c-0.45,2-1,4.44-1.64,7.33c-1.2,5.33-2.07,9.38-2.62,12.16c-0.55,2.78-0.91,4.87-1.08,6.27
		c-0.29,2.97-0.21,5.54,0.27,7.72c0.47,2.18,1.28,4.02,2.43,5.5c4.76,6.52,13.62,9.78,26.58,9.78h41.32c0.74,0,1.19-0.37,1.36-1.11
		l2.81-12.55c0.17-0.74-0.12-1.11-0.86-1.11h-8.89c1.49-2.37,2.7-4.96,3.63-7.78c0.43-1.26,1.04-3.5,1.84-6.72
		c0.8-3.22,4.63-20.31,5.27-23.49c0.64-3.19,1-5.78,1.08-7.78C190.01,149.61,189.96,147.02,189.81,144.72 M173.13,159.16
		l-5.66,25.22c-0.93,4.15-2.29,7.26-4.09,9.33c-1.8,2.07-4.36,3.41-7.68,4c-1.59,0.15-3.02,0.28-4.31,0.39
		c-1.29,0.11-3,0.17-5.15,0.17c-0.81,0-1.71-0.02-2.71-0.06c-0.99-0.04-1.95-0.07-2.86-0.11c-0.92-0.04-1.78-0.07-2.59-0.11
		c-0.81-0.04-1.35-0.1-1.63-0.17c-2.71-0.44-4.67-1.79-5.87-4.05c-1.2-2.26-1.35-5.39-0.45-9.38l5.71-25.44
		c0.85-3.78,2.23-6.64,4.15-8.61c1.92-1.96,4.25-3.28,6.99-3.94c0.94-0.22,2.48-0.42,4.64-0.61c2.15-0.18,4.3-0.28,6.45-0.28
		c2.3,0,4.28,0.06,5.96,0.17c1.68,0.11,3.22,0.35,4.61,0.72c2.52,0.67,4.11,1.98,4.78,3.94
		C174.12,152.29,174.01,155.23,173.13,159.16"/>
	<path class="st0" d="M263.38,131.83h-24.72l8.41,5.89L236,187.04c-0.22,0.96-0.66,2.02-1.32,3.16c-0.67,1.15-1.46,2.22-2.39,3.22
		c-0.93,1-1.99,1.85-3.19,2.56c-1.19,0.7-2.42,1.05-3.68,1.05h-11.66c-1.33,0-2.42-0.35-3.26-1.05c-0.84-0.7-1.48-1.56-1.93-2.56
		c-0.44-1-0.7-2.07-0.78-3.22c-0.07-1.15-0.01-2.17,0.18-3.05l12.17-54.21c0.16-0.74-0.12-1.11-0.86-1.11h-25.31l8.91,6.24
		l-11.66,51.97c-0.47,2.07-0.62,4.02-0.48,5.83c0.15,1.82,0.52,3.54,1.12,5.16c0.63,1.48,1.49,2.93,2.58,4.34
		c0.86,1.11,1.96,2.15,3.3,3.11c1.27,0.97,2.9,1.71,4.89,2.22c1.99,0.52,4.21,0.78,6.66,0.78h13c1.92,0,3.74-0.17,5.44-0.5
		c1.7-0.33,3.27-0.72,4.7-1.16c1.45-0.52,3-1.17,4.66-1.94c1.66-0.78,3.16-1.72,4.53-2.83c1.28-1.11,2.5-2.31,3.64-3.61
		c1.14-1.29,2.07-2.53,2.78-3.72c0.8-1.26,1.58-2.9,2.33-4.94c0.75-2.04,1.43-4.39,2.03-7.05l11.84-52.76
		C264.41,132.21,264.12,131.83,263.38,131.83"/>
	<path class="st0" d="M291.56,131.83h-25.11l8.74,6.12l-16.25,72.41c-0.17,0.74,0.12,1.11,0.86,1.11h13.88
		c0.74,0,1.19-0.37,1.36-1.11l17.37-77.42C292.59,132.21,292.3,131.83,291.56,131.83"/>
	<path class="st0" d="M352.69,131.83h-55.98l8.9,6.23c-0.92,0.69-1.82,1.42-2.69,2.21c-1.03,0.96-2.06,2.02-3.1,3.16
		c-1.03,1.15-1.96,2.54-2.77,4.17c-1.52,2.81-2.64,5.82-3.35,9l-6.98,31.1c-0.45,2-0.64,3.68-0.58,5.05
		c0.06,1.37,0.18,2.46,0.37,3.27c0.67,3.26,1.86,6.06,3.56,8.39c1.7,2.33,3.84,4.02,6.42,5.05c1.14,0.52,2.52,0.98,4.13,1.39
		c1.61,0.41,3.53,0.61,5.75,0.61h28.43c0.74,0,1.19-0.37,1.36-1.11l2.74-12.22c0.17-0.74-0.12-1.11-0.86-1.11h-28.77
		c-2.54-0.22-4.37-1.09-5.47-2.61c-1.1-1.52-1.47-3.57-1.11-6.16l6.3-28.1c0.87-3.85,2.27-6.98,4.22-9.39
		c1.94-2.4,4.43-3.9,7.45-4.5h28.77c0.74,0,1.19-0.37,1.36-1.11l2.74-12.22C353.72,132.21,353.43,131.83,352.69,131.83"/>
	<g>
		<path class="st0" d="M80.68,333.32l-0.1,0.58c-0.32,1.5,0.26,2.5,1.76,2.5c1.34,0,2.37-0.67,2.69-2.05
			c0.22-1.12-0.42-1.63-1.18-1.95l-2.88-1.12c-2.24-0.86-3.17-2.37-2.66-4.8c0.61-2.85,2.88-5.18,7.42-5.18c4,0,5.5,1.79,4.86,4.9
			l-0.16,0.7h-3.97c0.19-0.86,0.19-1.5-0.03-1.95c-0.19-0.42-0.64-0.64-1.38-0.64c-1.12,0-2.21,0.64-2.46,1.86
			c-0.19,0.83,0.13,1.54,1.5,2.02l2.46,0.9c2.59,0.93,3.3,2.34,2.75,4.93c-0.77,3.62-3.84,5.41-7.55,5.41
			c-4.96,0-5.89-2.18-5.18-5.47l0.13-0.61H80.68z"/>
		<path class="st0" d="M95.95,331.02l-0.29,1.38c-0.45,2.01-0.32,4,1.31,4c1.47,0,2.3-1.12,3.01-3.23h3.97
			c-0.99,4-3.39,6.24-7.55,6.24c-6.4,0-5.6-4.93-4.7-9.22c0.99-4.61,2.78-8.9,8.74-8.9c5.15,0,5.57,3.46,4.45,8.74l-0.19,0.99H95.95
			z M101,328.39c0.48-2.62,0.45-4.1-1.38-4.1c-1.76,0-2.66,1.82-2.98,3.42l-0.16,0.67H101z"/>
	</g>
	<g>
		<path class="st0" d="M108.94,321.74h4.22l-0.48,2.3h0.06c1.25-1.66,2.72-2.75,4.54-2.75c0.26,0,0.54,0.03,0.8,0.06l-0.9,4.22
			c-0.45-0.03-0.93-0.06-1.38-0.06c-1.54,0-3.42,0.8-3.9,3.1l-2.21,10.34h-4.42L108.94,321.74z"/>
	</g>
	<g>
		<path class="st0" d="M128.31,321.74h4.41l-7.97,17.21h-5.12l-0.8-17.21h4.61l-0.13,12.32h0.06L128.31,321.74z"/>
		<path class="st0" d="M134.52,321.74h4.42l-3.65,17.21h-4.42L134.52,321.74z M135.76,315.85h4.41l-0.8,3.78h-4.42L135.76,315.85z"
			/>
		<path class="st0" d="M149.01,327.95c0.35-1.66,0.42-3.46-1.25-3.46c-2.18,0-2.94,1.92-3.78,5.89c-0.9,4.26-0.9,6.01,1.09,6.01
			c1.47,0,2.4-1.25,3.01-4.03h4.22c-0.96,4.51-3.39,7.04-8.06,7.04c-4.42,0-6.14-2.14-4.67-9.05c1.5-7.07,4.83-9.06,8.89-9.06
			c4.06,0,5.63,2.59,4.77,6.66H149.01z"/>
		<path class="st0" d="M157.02,321.74h4.42l-3.65,17.21h-4.42L157.02,321.74z M158.26,315.85h4.42l-0.8,3.78h-4.42L158.26,315.85z"
			/>
		<path class="st0" d="M170.84,321.29c5.34-0.1,6.14,3.07,4.86,9.06c-1.25,5.89-3.65,9.05-8.7,9.05c-5.34,0.1-6.14-3.07-4.86-9.05
			C163.39,324.46,165.79,321.29,170.84,321.29z M167.64,336.39c1.79,0,2.75-1.76,3.65-6.05c0.93-4.29,0.7-6.05-1.09-6.05
			c-2.18,0-2.88,2.53-3.65,6.05C165.82,333.86,165.47,336.39,167.64,336.39z"/>
		<path class="st0" d="M187.58,321.74h4.22l-0.48,2.3h0.06c1.25-1.66,2.72-2.75,4.54-2.75c0.26,0,0.54,0.03,0.8,0.06l-0.9,4.22
			c-0.45-0.03-0.93-0.06-1.38-0.06c-1.54,0-3.42,0.8-3.9,3.1l-2.21,10.34h-4.42L187.58,321.74z"/>
		<path class="st0" d="M197.09,327.02l0.1-0.42c0.83-3.97,3.84-5.31,7.17-5.31c5.25,0,5.79,2.18,5.12,5.28l-1.92,9.05
			c-0.35,1.6-0.38,2.34-0.16,3.33h-4.22c-0.16-0.54-0.16-1.22-0.16-1.79h-0.06c-1.41,1.79-2.75,2.24-4.86,2.24
			c-3.07,0-3.62-2.62-3.1-4.93c0.67-3.23,2.27-4.54,5.47-5.38l2.66-0.67c1.38-0.35,1.95-0.86,2.18-2.02
			c0.29-1.31-0.13-2.11-1.6-2.11c-1.34,0-2.24,0.9-2.53,2.24l-0.1,0.48H197.09z M204.45,330.35c-0.7,0.45-1.5,0.74-2.08,0.86
			c-1.86,0.38-2.75,1.25-3.07,2.78c-0.29,1.31-0.03,2.4,1.15,2.4s2.88-0.77,3.3-2.66L204.45,330.35z M205.54,315.11h4.42l-4.1,4.61
			h-3.01L205.54,315.11z"/>
		<path class="st0" d="M213.64,321.74h4.22l-0.38,1.82h0.06c1.31-1.6,2.66-2.27,4.38-2.27c3.62,0,4.74,2.66,3.36,9.06
			c-1.34,6.4-3.58,9.05-7.2,9.05c-1.66,0-2.66-0.67-3.26-2.05h-0.06l-1.54,7.23h-4.42L213.64,321.74z M217.38,336.01
			c1.92,0,2.69-1.92,3.49-5.66c0.8-3.74,0.83-5.66-1.09-5.66c-1.95,0-2.75,1.92-3.55,5.66
			C215.43,334.09,215.43,336.01,217.38,336.01z"/>
		<path class="st0" d="M229.8,321.74h4.42l-3.65,17.21h-4.42L229.8,321.74z M231.05,315.85h4.42l-0.8,3.78h-4.42L231.05,315.85z"/>
		<path class="st0" d="M242.89,337.13h-0.06c-1.31,1.6-2.66,2.27-4.38,2.27c-3.62,0-4.7-2.66-3.36-9.05c1.38-6.4,3.58-9.06,7.2-9.06
			c1.66,0,2.66,0.67,3.3,2.05h0.06l1.54-7.23h4.42l-4.86,22.85h-4.22L242.89,337.13z M240.62,336.01c1.95,0,2.72-1.92,3.52-5.66
			c0.8-3.74,0.83-5.66-1.12-5.66c-1.92,0-2.72,1.92-3.52,5.66C238.7,334.09,238.7,336.01,240.62,336.01z"/>
		<path class="st0" d="M259.63,321.29c5.34-0.1,6.14,3.07,4.86,9.06c-1.25,5.89-3.65,9.05-8.7,9.05c-5.34,0.1-6.14-3.07-4.86-9.05
			C252.17,324.46,254.57,321.29,259.63,321.29z M256.43,336.39c1.79,0,2.75-1.76,3.65-6.05c0.93-4.29,0.7-6.05-1.09-6.05
			c-2.18,0-2.88,2.53-3.65,6.05C254.6,333.86,254.25,336.39,256.43,336.39z"/>
		<path class="st0" d="M281.94,337.13h-0.06c-1.31,1.6-2.66,2.27-4.38,2.27c-3.62,0-4.7-2.66-3.36-9.05c1.38-6.4,3.58-9.06,7.2-9.06
			c1.66,0,2.66,0.67,3.3,2.05h0.06l1.54-7.23h4.42l-4.86,22.85h-4.22L281.94,337.13z M279.67,336.01c1.95,0,2.72-1.92,3.52-5.66
			c0.8-3.74,0.83-5.66-1.12-5.66c-1.92,0-2.72,1.92-3.52,5.66C277.75,334.09,277.75,336.01,279.67,336.01z"/>
		<path class="st0" d="M294.2,331.02l-0.29,1.38c-0.45,2.01-0.32,4,1.31,4c1.47,0,2.3-1.12,3.01-3.23h3.97
			c-0.99,4-3.39,6.24-7.55,6.24c-6.4,0-5.6-4.93-4.7-9.22c0.99-4.61,2.78-8.9,8.73-8.9c5.15,0,5.57,3.46,4.45,8.74l-0.19,0.99H294.2
			z M299.25,328.39c0.48-2.62,0.45-4.1-1.38-4.1c-1.76,0-2.66,1.82-2.98,3.42l-0.16,0.67H299.25z"/>
		<path class="st0" d="M314.87,321.74h4.22l-0.38,1.82h0.06c1.31-1.6,2.66-2.27,4.38-2.27c3.61,0,4.74,2.66,3.36,9.06
			c-1.34,6.4-3.58,9.05-7.2,9.05c-1.66,0-2.66-0.67-3.26-2.05h-0.06l-1.54,7.23h-4.42L314.87,321.74z M318.62,336.01
			c1.92,0,2.69-1.92,3.49-5.66c0.8-3.74,0.83-5.66-1.09-5.66c-1.95,0-2.75,1.92-3.55,5.66
			C316.67,334.09,316.67,336.01,318.62,336.01z"/>
		<path class="st0" d="M331.04,321.74h4.42l-3.65,17.21h-4.41L331.04,321.74z M332.28,315.85h4.42l-0.8,3.78h-4.41L332.28,315.85z"
			/>
		<path class="st0" d="M338.56,321.74h4.22l-0.42,2.02h0.06c1.28-1.7,3.04-2.46,4.89-2.46c2.75,0,4.06,1.5,3.36,4.9l-2.72,12.77
			h-4.42l2.53-11.87c0.35-1.73-0.06-2.4-1.38-2.4c-1.5,0-2.53,0.93-2.94,2.85l-2.43,11.42h-4.42L338.56,321.74z"/>
		<path class="st0" d="M356.58,316.81h4.42l-1.06,4.93h2.56l-0.64,3.01h-2.56l-1.95,9.31c-0.29,1.34-0.13,1.89,1.15,1.89
			c0.35,0,0.7-0.03,0.99-0.06l-0.64,3.07c-0.99,0.1-1.89,0.19-2.91,0.19c-3.46,0-3.87-1.06-3.14-4.54l2.08-9.85h-2.24l0.64-3.01
			h2.24L356.58,316.81z"/>
		<path class="st0" d="M369.64,336.94h-0.06c-1.28,1.7-3.04,2.46-4.89,2.46c-2.75,0-4.06-1.5-3.33-4.9l2.69-12.77h4.42l-2.53,11.87
			c-0.35,1.73,0.1,2.4,1.41,2.4c1.5,0,2.53-0.93,2.91-2.85l2.43-11.42h4.41l-3.65,17.21h-4.22L369.64,336.94z"/>
		<path class="st0" d="M380.04,321.74h4.22l-0.48,2.3h0.06c1.25-1.66,2.72-2.75,4.54-2.75c0.26,0,0.54,0.03,0.8,0.06l-0.9,4.22
			c-0.45-0.03-0.93-0.06-1.38-0.06c-1.54,0-3.42,0.8-3.9,3.1l-2.21,10.34h-4.42L380.04,321.74z"/>
		<path class="st0" d="M389.54,327.02l0.1-0.42c0.83-3.97,3.84-5.31,7.17-5.31c5.25,0,5.79,2.18,5.12,5.28l-1.92,9.05
			c-0.35,1.6-0.39,2.34-0.16,3.33h-4.22c-0.16-0.54-0.16-1.22-0.16-1.79h-0.06c-1.41,1.79-2.75,2.24-4.86,2.24
			c-3.07,0-3.62-2.62-3.1-4.93c0.67-3.23,2.27-4.54,5.47-5.38l2.65-0.67c1.38-0.35,1.95-0.86,2.18-2.02
			c0.29-1.31-0.13-2.11-1.6-2.11c-1.34,0-2.24,0.9-2.53,2.24l-0.1,0.48H389.54z M396.9,330.35c-0.7,0.45-1.5,0.74-2.08,0.86
			c-1.86,0.38-2.75,1.25-3.07,2.78c-0.29,1.31-0.03,2.4,1.15,2.4c1.18,0,2.88-0.77,3.3-2.66L396.9,330.35z"/>
	</g>
	<polygon class="st0" points="360.17,166.78 373.35,184.24 472.24,101.99 	"/>
	<path class="st0" d="M348.51,210.33c-0.17,0.74,0.12,1.11,0.86,1.11h13.87c0.74,0,1.19-0.37,1.36-1.11l5.35-23.83l-12.41-16.43
		L348.51,210.33z"/>
	<path class="st0" d="M381.09,131.83h-25.22l8.85,6.2l-5.52,24.61l18.42-10.38l4.33-19.29
		C382.12,132.24,381.83,131.83,381.09,131.83"/>
	<path class="st0" d="M391.66,174l-13.75,11.7l8.39,24.84c0.04,0.15,0.11,0.33,0.21,0.56c0.1,0.22,0.29,0.33,0.59,0.33h16.87
		c0.22,0,0.43-0.11,0.63-0.33c0.2-0.22,0.21-0.59,0.03-1.11L391.66,174z"/>
</g>
</svg>
