<?xml version="1.0" encoding="utf-8"?>
<!-- Generator: Adobe Illustrator 25.2.3, SVG Export Plug-In . SVG Version: 6.00 Build 0)  -->
<svg version="1.1" id="Capa_1" xmlns="http://www.w3.org/2000/svg" xmlns:xlink="http://www.w3.org/1999/xlink" x="0px" y="0px"
	 viewBox="0 0 646 268" style="enable-background:new 0 0 646 268;" xml:space="preserve">
<style type="text/css">
	.st0{fill:#FFFFFF;}
</style>
<g>
	<path class="st0" d="M299.39,72.05h28.71l4.1-10.55H257.2c0,0-11.72,4.69-11.72,10.55l31.64,0.59l-24.03,58.6
		c0,0-1.76,10.55,15.82,10.55L299.39,72.05z"/>
	<path class="st0" d="M374.98,84.75h-60.55l-3.13,8.59c0,0,43.36,0.39,49.22,0.39c5.86,0,3.52,6.25,3.52,6.25l-3.52,7.42
		c0,0-45.71,0-54.69,0c-8.99,0-10.16,5.47-10.16,5.47s-3.13,5.08-6.64,14.45c-3.52,9.38,7.03,15.24,7.03,15.24s48.83,0,59.38,0
		c10.55,0,16.8-10.94,16.8-10.94s10.94-26.95,13.28-35.94C387.87,86.7,374.98,84.75,374.98,84.75z M353.11,128.89
		c0,0-0.39,3.13-6.25,3.13c-5.86,0-33.99,0-33.99,0s-6.64-0.39-5.08-3.91c1.56-3.52,2.34-6.25,2.34-6.25s1.56-2.73,5.47-2.73
		c3.91,0,40.63,0.39,40.63,0.39L353.11,128.89z"/>
	<path class="st0" d="M537.84,84.75c0,0-48.83,0-59.38,0c-10.55,0-16.8,10.94-16.8,10.94s-10.94,26.95-13.28,35.94
		c-2.34,8.99,10.55,10.94,10.55,10.94h60.55l3.13-8.59c0,0-43.36-0.39-49.22-0.39c-5.86,0-3.52-6.25-3.52-6.25l3.52-7.42
		c0,0,45.71,0,54.69,0c8.98,0,10.16-5.47,10.16-5.47s3.13-5.08,6.64-14.45C548.39,90.61,537.84,84.75,537.84,84.75z M526.12,99.2
		c-1.56,3.52-2.34,6.25-2.34,6.25s-1.56,2.73-5.47,2.73s-40.63-0.39-40.63-0.39l3.13-9.38c0,0,0.39-3.13,6.25-3.13
		c5.86,0,33.99,0,33.99,0S527.69,95.68,526.12,99.2z"/>
	<polygon class="st0" points="381.62,141.78 401.16,141.78 431.24,61.7 411.7,61.7 	"/>
	<polygon class="st0" points="412.49,141.78 432.02,141.78 462.1,61.7 442.57,61.7 	"/>
	<path class="st0" d="M560.54,141.78l12.5-38.67c0,0,3.13-8.2,10.94-8.2s35.94,0,35.94,0L625,82.01h-48.05
		c0,0-17.58,2.73-21.88,15.63s-14.84,44.14-14.84,44.14H560.54z"/>
	<path class="st0" d="M519.04,167.56l-12.13,27.05c0,0-2.8,5.74,5.02,5.74s44.16,0,44.16,0l-4.23,9.02h-51.34
		c0,0-15.97,1.58-10.59-10.93c5.38-12.51,13.74-30.87,13.74-30.87H519.04z"/>
	<path class="st0" d="M333.18,167.95c-7.42,0-53.13-0.39-53.13-0.39l-19.14,41.41l14.09,0.09l12.87-30.56c0,0,0.78-3.52,5.86-3.52
		s4.3,3.52,4.3,3.52l-11.97,30.62l13.94,0.08l11.31-30.71c0,0,0.78-3.52,5.86-3.52s4.3,3.52,4.3,3.52l-12.02,30.77l15.93,0.1
		l12.11-32.81C337.48,176.55,340.6,167.95,333.18,167.95z"/>
	<path class="st0" d="M402.39,167.56h-45.72c-4,0-7.14,4.69-7.14,4.69s-7.43,15.24-10.86,24.32c-3.43,9.08,1.71,11.13,1.71,11.13
		s40.01,0.59,46.01,0.59s7.43-2.93,7.43-2.93s12-21.68,14.29-30.47C410.39,166.1,402.39,167.56,402.39,167.56z M394.14,180.06
		c-1.38,5.29-8.6,18.35-8.6,18.35s-0.86,1.76-4.47,1.76c-3.61,0-27.71-0.35-27.71-0.35s-3.1-1.24-1.03-6.7
		c2.07-5.47,6.54-14.64,6.54-14.64s1.89-2.82,4.3-2.82h27.54C390.69,175.65,395.51,174.76,394.14,180.06z"/>
	<path class="st0" d="M414.05,167.56h14.06v25.95c0,0.8,0.93,1.23,1.54,0.71l30.49-27.05h15.24l-40.04,39.07
		c0,0-11.43,5.86-18.17-3.81C416.29,189.25,414.05,167.56,414.05,167.56z"/>
	<polygon class="st0" points="482.41,167.56 495.69,167.56 478.51,208.97 464.05,208.97 	"/>
	<path class="st0" d="M397.19,163.66h-28.21c-1.03,0-1.61-0.79-1.28-1.76l2.2-6.64c0.32-0.97,1.42-1.76,2.45-1.76h28.21
		c1.03,0,1.61,0.79,1.28,1.76l-2.2,6.64C399.32,162.87,398.22,163.66,397.19,163.66z"/>
	<path class="st0" d="M496.67,163.66h-12.16c-0.44,0-0.54-0.79-0.22-1.76l2.21-6.64c0.32-0.97,0.95-1.76,1.39-1.76h12.16
		c0.44,0,0.54,0.79,0.22,1.76l-2.21,6.64C497.74,162.87,497.11,163.66,496.67,163.66z"/>
	<g>
		<path class="st0" d="M108,61.38l-30.69,0.7l-55.9,127.77c-0.93,2.12-0.22,4.62,1.71,5.89c4.33,2.86,12.82,7.35,24.25,8.04
			L108,61.38z"/>
		<path class="st0" d="M124.87,61L80.43,169.91l44.14-49.22c0,0-2.34-20.31,2.73-30.08c5.08-9.77,25-20.31,25-20.31
			s18.75-4.69,26.56,5.86l-24.61,17.97l1.17,24.22l16.02,11.72l25.39-12.5c0,0-1.17,17.97-8.2,24.61
			c-7.03,6.64-15.63,13.67-27.35,13.67c-11.72,0-20.7-7.81-20.7-7.81l-51.1,55.86c34.66,0,78.06,0,78.06,0l63.29-145.32L124.87,61z"
			/>
	</g>
</g>
</svg>
