<?xml version="1.0" encoding="utf-8"?>
<!-- Generator: Adobe Illustrator 25.2.3, SVG Export Plug-In . SVG Version: 6.00 Build 0)  -->
<svg version="1.1" id="Capa_1" xmlns="http://www.w3.org/2000/svg" xmlns:xlink="http://www.w3.org/1999/xlink" x="0px" y="0px"
	 viewBox="0 0 646 268" style="enable-background:new 0 0 646 268;" xml:space="preserve">
<style type="text/css">
	.st0{fill:#FFFFFF;}
</style>
<g>
	<polygon class="st0" points="88.26,134.03 103.89,134.03 103.89,55.32 133.31,55.32 133.31,41.28 58.97,41.28 58.97,55.32 
		88.26,55.32 	"/>
	<path class="st0" d="M182.6,134.7c27.7,0,49.16-20.54,49.16-47.04S210.3,40.88,182.6,40.88c-27.7,0-49.16,20.14-49.16,46.78
		C133.44,114.16,154.91,134.7,182.6,134.7z M182.74,54.93c18.15,0,33,14.31,33,32.73s-14.84,33-33,33c-18.15,0-33.39-14.58-33.39-33
		S164.45,54.93,182.74,54.93z"/>
	<polygon class="st0" points="270.59,134.03 286.1,134.03 286.1,103.16 320.15,41.28 304.25,41.28 278.28,86.46 251.78,41.28 
		236.01,41.28 270.59,103.69 	"/>
	<path class="st0" d="M369.97,134.7c27.7,0,49.16-20.54,49.16-47.04s-21.47-46.78-49.16-46.78c-27.69,0-49.16,20.14-49.16,46.78
		C320.81,114.16,342.28,134.7,369.97,134.7z M370.11,54.93c18.15,0,33,14.31,33,32.73s-14.84,33-33,33
		c-18.15,0-33.39-14.58-33.39-33S351.82,54.93,370.11,54.93z"/>
	<polygon class="st0" points="452.26,134.03 467.9,134.03 467.9,55.32 497.32,55.32 497.32,41.28 422.98,41.28 422.98,55.32 
		452.26,55.32 	"/>
	<path class="st0" d="M505.8,134.03l8.88-20.94h46.78l8.88,20.94h16.7l-40.55-92.76h-16.03l-40.95,92.76H505.8z M538,57.97
		l17.49,41.21h-34.98L538,57.97z"/>
	<path class="st0" d="M538.23,191.43c-0.16,0.61-0.28,1.23-0.42,1.85c-0.06,0.25-0.11,0.51-0.16,0.77c3.28-0.94,6.02-0.15,8.29,2.36
		c0.59-1.77,1.15-3.48,1.74-5.24c-3.11,0-6.14,0-9.17,0.01C538.41,191.18,538.26,191.32,538.23,191.43z"/>
	<path class="st0" d="M581.55,150.59H64.45c-4.08,0-7.39,3.31-7.39,7.39v61.74c0,4.08,3.31,7.39,7.39,7.39h517.09
		c4.08,0,7.39-3.31,7.39-7.39v-61.74C588.94,153.9,585.63,150.59,581.55,150.59z M111.68,202.47c-1.99,1.69-4.9,2.53-8.72,2.53
		c-2.29,0-4.29-0.24-6.02-0.73c-1.73-0.49-3.25-1.18-4.56-2.07l2.34-4.51c1.5,0.86,2.88,1.46,4.14,1.78
		c1.25,0.32,2.51,0.48,3.76,0.48c1.84,0,3.15-0.33,3.93-1c0.78-0.67,1.17-1.59,1.17-2.76c0-0.56-0.08-1.04-0.23-1.46
		c-0.15-0.42-0.44-0.79-0.86-1.11c-0.42-0.32-1-0.62-1.73-0.9c-0.74-0.28-1.69-0.56-2.86-0.84c-1.31-0.31-2.51-0.68-3.59-1.11
		c-1.09-0.43-2.02-0.99-2.8-1.67c-0.78-0.68-1.39-1.53-1.82-2.53c-0.43-1-0.65-2.24-0.65-3.72c0-2.9,0.98-5.18,2.95-6.86
		c1.96-1.67,4.74-2.51,8.34-2.51c1.89,0,3.58,0.2,5.06,0.61c1.48,0.4,2.98,1.04,4.51,1.9l-2.47,4.39c-0.28-0.17-0.66-0.37-1.15-0.61
		c-0.49-0.24-1.03-0.45-1.63-0.65c-0.6-0.19-1.23-0.36-1.9-0.5c-0.67-0.14-1.34-0.21-2.01-0.21c-1.78,0-3.05,0.31-3.8,0.92
		c-0.75,0.61-1.13,1.41-1.13,2.38c0,0.64,0.11,1.18,0.33,1.61c0.22,0.43,0.59,0.82,1.09,1.15c0.5,0.33,1.16,0.64,1.99,0.92
		c0.82,0.28,1.83,0.59,3.03,0.92c0.95,0.28,1.91,0.61,2.88,1c0.98,0.39,1.86,0.91,2.65,1.57c0.79,0.66,1.45,1.48,1.96,2.47
		c0.52,0.99,0.77,2.24,0.77,3.74C114.67,198.32,113.67,200.78,111.68,202.47z M139.21,204.24h-19.94v-30.14h19.52v5.23H126v6.9h9.49
		v5.35H126v7.44h13.21V204.24z M159.23,204.87l-5.65-10.28c-0.39-0.64-0.79-1.16-1.21-1.55c-0.42-0.39-1.11-0.59-2.08-0.59h-0.63
		v11.79h-6.69v-30.14h10.24c1.48,0,2.86,0.15,4.14,0.44c1.28,0.29,2.4,0.77,3.37,1.44c0.96,0.67,1.71,1.55,2.26,2.63
		c0.54,1.09,0.82,2.42,0.82,4.01c0,2.09-0.52,3.8-1.55,5.12c-1.03,1.32-2.3,2.33-3.8,3.03c0.47,0.33,0.93,0.89,1.38,1.67l6.48,11.5
		L159.23,204.87z M187.87,198.06c-0.56,2.17-1.4,3.88-2.53,5.12c-1.13,1.24-2.72,1.86-4.79,1.86c-1.2,0-2.22-0.11-3.07-0.33
		c-0.85-0.22-1.58-0.6-2.19-1.13c-0.61-0.53-1.14-1.23-1.57-2.11c-0.43-0.88-0.82-1.97-1.15-3.28l-6.06-23.83l7.06-0.67l5.83,23.79
		c0.14,0.56,0.27,0.98,0.41,1.25c0.14,0.28,0.37,0.42,0.7,0.42c0.38,0,0.64-0.13,0.76-0.4c0.12-0.26,0.25-0.68,0.39-1.23l5.65-23.91
		l6.56,0.96L187.87,198.06z M204.17,204.24h-6.73v-30.14h6.73V204.24z M227.37,204.31c-1.62,0.46-3.25,0.69-4.89,0.69
		c-4.63,0-8-1.28-10.12-3.82c-2.12-2.55-3.18-6.49-3.18-11.81c0-5.13,1.17-9.06,3.51-11.79c2.34-2.73,5.7-4.1,10.07-4.1
		c0.98,0,1.86,0.06,2.65,0.19c0.79,0.13,1.54,0.3,2.24,0.52c0.7,0.22,1.35,0.5,1.96,0.82c0.61,0.32,1.23,0.66,1.84,1.02l-2.47,4.35
		c-1.03-0.7-2.04-1.18-3.03-1.44c-0.99-0.26-1.97-0.4-2.95-0.4c-1.11,0-2.1,0.2-2.95,0.59c-0.85,0.39-1.56,1.01-2.13,1.86
		c-0.57,0.85-1,1.96-1.3,3.34c-0.29,1.38-0.44,3.06-0.44,5.04c0,3.65,0.59,6.3,1.76,7.94c1.17,1.64,2.86,2.47,5.06,2.47
		c1.11,0,2.22-0.17,3.32-0.5c1.1-0.33,2.24-0.86,3.41-1.59l2.38,4.39C230.57,203.1,228.98,203.85,227.37,204.31z M242.21,204.24
		h-6.73v-30.14h6.73V204.24z M269.98,200.96c-2.16,2.69-5.5,4.03-10.01,4.03c-2.29,0-4.24-0.34-5.85-1.02
		c-1.62-0.68-2.93-1.68-3.95-2.99c-1.02-1.31-1.76-2.94-2.24-4.89c-0.47-1.95-0.71-4.19-0.71-6.73c0-5.13,1.1-9.06,3.3-11.79
		c2.2-2.73,5.46-4.1,9.78-4.1c4.15,0,7.34,1.33,9.57,3.99c2.23,2.66,3.34,6.63,3.34,11.89
		C273.22,194.41,272.14,198.27,269.98,200.96z M307.96,200.63c-2.17,2.41-5.53,3.62-10.07,3.62h-11.08v-30.14h11.41
		c4.51,0,7.81,1.24,9.89,3.72c2.08,2.48,3.11,6.34,3.11,11.58C311.22,194.48,310.13,198.22,307.96,200.63z M336.18,204.24h-19.94
		v-30.14h19.52v5.23h-12.79v6.9h9.49v5.35h-9.49v7.44h13.21V204.24z M359.88,204.24h-19.94v-30.14h6.73v24.91h13.21V204.24z
		 M370.16,204.24h-6.73v-30.14h6.73V204.24z M394.87,198.06c-0.56,2.17-1.4,3.88-2.53,5.12c-1.13,1.24-2.72,1.86-4.79,1.86
		c-1.2,0-2.22-0.11-3.07-0.33c-0.85-0.22-1.58-0.6-2.19-1.13c-0.61-0.53-1.14-1.23-1.57-2.11c-0.43-0.88-0.82-1.97-1.15-3.28
		l-6.06-23.83l7.06-0.67l5.83,23.79c0.14,0.56,0.27,0.98,0.41,1.25c0.14,0.28,0.37,0.42,0.7,0.42c0.38,0,0.64-0.13,0.76-0.4
		c0.12-0.26,0.25-0.68,0.39-1.23l5.65-23.91l6.56,0.96L394.87,198.06z M424.38,204.24h-19.94v-30.14h19.52v5.23h-12.79v6.9h9.49
		v5.35h-9.49v7.44h13.21V204.24z M444.4,204.87l-5.65-10.28c-0.39-0.64-0.79-1.16-1.21-1.55c-0.42-0.39-1.11-0.59-2.08-0.59h-0.63
		v11.79h-6.69v-30.14h10.24c1.48,0,2.86,0.15,4.14,0.44c1.28,0.29,2.4,0.77,3.36,1.44c0.96,0.67,1.71,1.55,2.26,2.63
		c0.54,1.09,0.82,2.42,0.82,4.01c0,2.09-0.52,3.8-1.55,5.12c-1.03,1.32-2.3,2.33-3.8,3.03c0.47,0.33,0.93,0.89,1.38,1.67l6.48,11.5
		L444.4,204.87z M469.79,189.45c-0.28,0.72-0.65,1.43-1.12,2.11c-0.47,0.68-1.07,1.18-1.78,1.48v11.2h-6.73v-11.2
		c-0.89-0.22-1.57-0.66-2.03-1.32c-0.46-0.65-0.88-1.51-1.27-2.57l-5.19-14.55l6.65-0.92l4.39,13.21c0.14,0.42,0.29,0.73,0.44,0.94
		c0.15,0.21,0.37,0.31,0.65,0.31c0.22,0,0.41-0.07,0.56-0.21c0.15-0.14,0.34-0.49,0.56-1.05l4.77-13.21l5.98,0.84L469.79,189.45z
		 M552.11,189.99c-1,3.01-2,6.02-2.98,9.03c-0.26,0.8-0.72,1.37-1.56,1.57c0.35,4.59-3.69,8.12-7.81,7.88
		c-3.74-0.21-7.15-3.28-7.04-7.81h-11.86c0.07,2.58-0.88,4.7-2.92,6.29c-1.45,1.13-3.12,1.63-4.95,1.51
		c-3.71-0.24-7.06-3.29-6.96-7.83c-0.33,0-0.66,0-0.99,0c-1.53,0-2.38-1.08-2.04-2.56c0.51-2.23,1-4.46,1.49-6.69
		c0.01-0.04,0-0.08,0-0.19c-0.16,0-0.31,0-0.47,0c-2.36,0-4.72,0-7.08,0c-0.85,0-1.56-0.54-1.8-1.3c-0.25-0.8,0.01-1.69,0.72-2.14
		c0.35-0.21,0.8-0.35,1.21-0.36c2.6-0.03,5.2-0.02,7.8-0.02h0.49c0.29-1.32,0.59-2.64,0.9-4.02c-0.18,0-0.32,0-0.46,0
		c-1.89,0-3.77,0.01-5.66,0c-1.01,0-1.82-0.7-1.94-1.65c-0.12-0.95,0.45-1.82,1.4-2.09c0.2-0.06,0.42-0.07,0.64-0.07
		c2.16,0,4.31-0.01,6.47,0c0.32,0,0.44-0.09,0.51-0.4c0.25-1.2,0.52-2.39,0.79-3.64c-0.19,0-0.33,0-0.47,0
		c-0.93,0-1.86,0.01-2.79-0.01c-1.01-0.01-1.84-0.86-1.85-1.87c-0.02-1.02,0.81-1.92,1.83-1.93c1.36-0.02,2.72,0,4.12,0
		c0.12-0.51,0.24-1,0.34-1.49c0.21-1.03,0.94-1.66,1.98-1.66c9.88,0,19.76,0,29.64,0c1.39,0,2.26,1.1,1.95,2.46
		c-0.49,2.18-0.97,4.35-1.45,6.53c-0.02,0.09-0.03,0.18-0.04,0.32h0.46c1.74,0,3.48,0,5.22,0c1.42,0,2.19,0.78,2.19,2.21
		c0,2.25,0.01,4.5,0.01,6.75c0,0.15,0,0.29,0,0.5c0.37,0,0.72,0,1.06,0C551.7,187.32,552.58,188.57,552.11,189.99z"/>
	<path class="st0" d="M545.25,181.68h-4.86c-0.41,1.84-0.83,3.71-1.25,5.61h6.11V181.68z"/>
	<path class="st0" d="M437.21,178.91h-2.34v8.53h2.47c1.56,0,2.67-0.37,3.32-1.11c0.65-0.74,0.98-1.79,0.98-3.16
		c0-1.45-0.34-2.52-1.02-3.22C439.93,179.26,438.8,178.91,437.21,178.91z"/>
	<path class="st0" d="M260.35,178.54c-0.95,0-1.8,0.2-2.55,0.59c-0.75,0.39-1.39,1.01-1.92,1.86c-0.53,0.85-0.93,1.96-1.21,3.34
		c-0.28,1.38-0.42,3.06-0.42,5.04c0,3.73,0.47,6.43,1.42,8.09c0.95,1.66,2.44,2.49,4.47,2.49c1,0,1.88-0.19,2.63-0.56
		c0.75-0.38,1.39-0.98,1.9-1.82c0.52-0.84,0.9-1.93,1.15-3.28c0.25-1.35,0.38-3,0.38-4.95c0-3.76-0.47-6.5-1.4-8.21
		C263.87,179.39,262.38,178.54,260.35,178.54z"/>
	<path class="st0" d="M302.65,181.42c-0.53-0.78-1.21-1.34-2.03-1.69c-0.82-0.35-1.79-0.52-2.91-0.52h-4.18v19.94h3.97
		c1.11,0,2.09-0.15,2.93-0.44c0.84-0.29,1.53-0.82,2.09-1.57c0.56-0.75,0.98-1.76,1.25-3.03c0.28-1.27,0.42-2.88,0.42-4.83
		c0-1.87-0.13-3.45-0.38-4.74C303.57,183.24,303.18,182.2,302.65,181.42z"/>
	<path class="st0" d="M517.79,172.36c-1.6,0-3.21,0-4.81,0c-0.26,0-0.36,0.07-0.42,0.34c-0.8,3.65-1.61,7.29-2.42,10.94
		c-0.9,4.03-1.8,8.05-2.7,12.08c-0.08,0.34-0.13,0.68-0.2,1.03c0.04,0.02,0.08,0.03,0.11,0.05c0.1-0.11,0.21-0.22,0.3-0.34
		c2.97-3.74,8.62-3.74,11.59,0c0.2,0.25,0.4,0.33,0.71,0.33c4.22-0.01,8.44-0.01,12.66-0.01h0.5c1.81-8.14,3.61-16.24,5.43-24.42
		H517.79z"/>
	<path class="st0" d="M540.18,197.48c-1.99-0.01-3.62,1.59-3.63,3.57c-0.01,1.95,1.59,3.56,3.57,3.57c1.98,0.01,3.58-1.56,3.6-3.53
		C543.73,199.13,542.12,197.49,540.18,197.48z"/>
	<path class="st0" d="M513.49,197.48c-1.99-0.01-3.61,1.59-3.62,3.57c-0.01,1.96,1.6,3.56,3.57,3.57c1.99,0.01,3.58-1.56,3.6-3.54
		C517.04,199.12,515.44,197.49,513.49,197.48z"/>
	<path class="st0" d="M152.04,178.91h-2.34v8.53h2.47c1.56,0,2.67-0.37,3.32-1.11c0.65-0.74,0.98-1.79,0.98-3.16
		c0-1.45-0.34-2.52-1.02-3.22C154.76,179.26,153.63,178.91,152.04,178.91z"/>
</g>
</svg>
