<?xml version="1.0" encoding="utf-8"?>
<!-- Generator: Adobe Illustrator 25.2.3, SVG Export Plug-In . SVG Version: 6.00 Build 0)  -->
<svg version="1.1" id="Capa_1" xmlns="http://www.w3.org/2000/svg" xmlns:xlink="http://www.w3.org/1999/xlink" x="0px" y="0px"
	 viewBox="0 0 598.8 66" style="enable-background:new 0 0 598.8 66;" xml:space="preserve">
<style type="text/css">
	.st0{fill:#FFFFFF;}
	.st1{enable-background:new    ;}
</style>
<desc>Created with Sketch.</desc>
<g id="Page-1">
	<g id="ToyotaSafetySense" transform="translate(4.000000, 1.000000)">
		<path class="st0" d="M14,13.1H0.2V8.3h33.7v4.8h-14v38.5H14V13.1z M44.8,48c3,0,5.3-1,6.9-2.9c1.6-1.9,2.4-4.8,2.4-8.5
			c0-3.8-0.8-6.7-2.4-8.6c-1.6-1.9-3.9-2.9-6.9-2.9s-5.4,1-7,2.9s-2.4,4.8-2.4,8.6s0.8,6.6,2.5,8.5C39.5,47,41.8,48,44.8,48z
			 M33.1,48c-1.2-1.4-2-3.1-2.6-5.1s-0.8-4.1-0.8-6.4s0.3-4.4,0.9-6.4s1.6-3.7,2.8-5.1c1.3-1.4,2.8-2.6,4.7-3.4s4.1-1.2,6.6-1.2
			c2.6,0,4.8,0.4,6.8,1.2c1.9,0.8,3.5,1.9,4.7,3.4c1.2,1.4,2.1,3.1,2.7,5.1c0.6,2,0.9,4.1,0.9,6.4s-0.3,4.4-0.8,6.4
			c-0.6,2-1.4,3.7-2.7,5.1s-2.8,2.6-4.7,3.4c-1.9,0.8-4.2,1.2-6.9,1.2c-2.8,0-5.1-0.4-7-1.2C35.8,50.5,34.3,49.4,33.1,48z
			 M66.8,59.4c1.3,0.3,2.5,0.6,3.5,0.8c1.1,0.2,2.2,0.3,3.4,0.3c1.6,0,2.9-0.3,4-1s1.8-1.8,2.4-3.5l1-3.6c-1,0.1-1.8,0.2-2.6,0.2
			c-1.5,0-2.7-0.2-3.8-0.5c-1-0.4-1.9-0.9-2.6-1.6c-0.7-0.7-1.3-1.7-1.8-2.8s-0.9-2.4-1.3-3.8l-5.7-21.8l5.4-1.3l5.6,21.8
			c0.2,0.9,0.5,1.6,0.8,2.3s0.6,1.2,1,1.7c0.4,0.4,0.9,0.8,1.6,1s1.4,0.3,2.3,0.3c0.6,0,1.4-0.1,2.3-0.2l7.1-26.9l5.1,1.3l-8.9,34
			c-0.4,1.8-1,3.2-1.8,4.4c-0.8,1.1-1.7,2-2.7,2.7s-2.1,1.1-3.4,1.4c-1.2,0.3-2.6,0.4-4,0.4c-1.2,0-2.5-0.1-3.9-0.3
			c-1.4-0.2-2.7-0.5-3.8-0.8L66.8,59.4z M112.9,48c3,0,5.3-1,6.9-2.9s2.4-4.8,2.4-8.5c0-3.8-0.8-6.7-2.4-8.6s-3.9-2.9-6.9-2.9
			s-5.4,1-7,2.9s-2.4,4.8-2.4,8.6s0.8,6.6,2.5,8.5C107.6,47,109.9,48,112.9,48z M101.2,48c-1.2-1.4-2-3.1-2.6-5.1
			c-0.5-2-0.8-4.1-0.8-6.4s0.3-4.4,0.9-6.4s1.6-3.7,2.8-5.1c1.3-1.4,2.8-2.6,4.7-3.4c1.9-0.8,4.1-1.2,6.6-1.2c2.6,0,4.8,0.4,6.8,1.2
			c1.9,0.8,3.5,1.9,4.7,3.4c1.2,1.4,2.1,3.1,2.7,5.1s0.9,4.1,0.9,6.4s-0.3,4.4-0.8,6.4c-0.6,2-1.4,3.7-2.7,5.1
			c-1.2,1.4-2.8,2.6-4.7,3.4c-1.9,0.8-4.2,1.2-6.9,1.2c-2.8,0-5.1-0.4-7-1.2C103.9,50.5,102.4,49.4,101.2,48z M135.7,25.9h-4.3v-4.4
			h4.3v-8.9h5.5v8.9h10.1v4.4h-10.1v15.5c0,2.4,0.4,4.1,1.3,5c0.9,0.9,2.2,1.4,4,1.4c1,0,2-0.1,2.9-0.2s1.8-0.3,2.8-0.6l1.1,4.3
			c-1.4,0.4-2.6,0.6-3.8,0.8s-2.5,0.3-4,0.3c-1.4,0-2.8-0.2-4-0.5s-2.2-0.9-3.1-1.6c-0.9-0.8-1.5-1.7-2-2.9s-0.7-2.7-0.7-4.5V25.9z
			 M177.7,49.4c-0.6,0.4-1.3,0.7-2,1.1s-1.6,0.7-2.5,1s-1.9,0.6-2.9,0.8s-2.1,0.3-3.3,0.3c-1.5,0-2.9-0.2-4.3-0.5
			c-1.3-0.4-2.5-0.9-3.5-1.7s-1.8-1.7-2.4-2.9c-0.6-1.2-0.9-2.6-0.9-4.3c0-1.8,0.3-3.3,1-4.5s1.6-2.3,2.7-3.1s2.4-1.4,3.8-1.7
			c1.4-0.4,2.9-0.5,4.4-0.5h8.5V32c0-2.6-0.5-4.4-1.5-5.4s-2.7-1.5-5.1-1.5c-1.6,0-3.2,0.1-4.6,0.4c-1.4,0.2-3,0.7-4.8,1.3l-1.4-4.1
			c1.4-0.5,3-1,4.9-1.4s4-0.7,6.6-0.7c2.5,0,4.5,0.3,6,0.9s2.7,1.4,3.6,2.5c0.8,1.1,1.4,2.4,1.7,3.9s0.4,3.2,0.4,5.1v12.9l2.5,3.8
			l-3.8,3.1L177.7,49.4z M176.4,37.8H168c-1.8,0-3.2,0.4-4.5,1.3c-1.2,0.8-1.8,2.1-1.8,3.9c0,1,0.2,1.8,0.5,2.4s0.8,1.2,1.4,1.6
			s1.3,0.7,2,0.8c0.8,0.2,1.6,0.2,2.4,0.2c1.8,0,3.3-0.3,4.6-0.9c1.3-0.6,2.5-1.3,3.6-2v-7.3H176.4z M201.6,45
			c4.4,1.8,9.1,2.7,14,2.7c4.1,0,7.1-0.7,9.1-2.1c1.9-1.4,2.9-3.3,2.9-5.7c0-1.4-0.3-2.6-0.9-3.5c-0.6-0.9-1.5-1.6-2.5-2.2
			c-1.1-0.6-2.3-1-3.7-1.3s-2.9-0.6-4.4-1c-1.6-0.3-3.3-0.7-5-1.2s-3.3-1.1-4.6-2c-1.4-0.9-2.5-2-3.4-3.4s-1.3-3.1-1.3-5.3
			c0-1.8,0.3-3.5,1-5c0.6-1.5,1.6-2.8,3-4c1.4-1.1,3.2-2,5.4-2.6s4.9-1,8-1c2.8,0,5.4,0.3,7.6,0.8s4.3,1.1,6.2,1.8l-1.5,4.7
			c-2.1-0.8-4.1-1.4-6.1-1.8s-4.2-0.7-6.6-0.7c-3.6,0-6.4,0.6-8.2,1.9s-2.7,3.1-2.7,5.3c0,1.3,0.3,2.3,0.9,3.1s1.4,1.5,2.4,2
			s2.2,0.9,3.5,1.2c1.3,0.3,2.7,0.6,4.2,0.9c1.7,0.3,3.5,0.7,5.2,1.2s3.4,1.2,4.9,2.1s2.6,2.1,3.6,3.6c0.9,1.5,1.4,3.4,1.4,5.7
			c0,4.1-1.5,7.3-4.6,9.7s-7.6,3.6-13.6,3.6c-3.8,0-7-0.3-9.6-1s-4.6-1.2-6-1.8L201.6,45z M261.5,49.4c-0.6,0.4-1.3,0.7-2,1.1
			c-0.7,0.4-1.6,0.7-2.5,1s-1.9,0.6-2.9,0.8s-2.1,0.3-3.3,0.3c-1.5,0-2.9-0.2-4.3-0.5c-1.3-0.4-2.5-0.9-3.5-1.7s-1.8-1.7-2.4-2.9
			c-0.6-1.2-0.9-2.6-0.9-4.3c0-1.8,0.3-3.3,1-4.5s1.6-2.3,2.7-3.1s2.4-1.4,3.8-1.7c1.4-0.4,2.9-0.5,4.3-0.5h8.5V32
			c0-2.6-0.5-4.4-1.5-5.4s-2.7-1.5-5.1-1.5c-1.6,0-3.2,0.1-4.6,0.4s-3,0.7-4.8,1.3l-1.4-4.1c1.4-0.5,3-1,4.9-1.4s4-0.7,6.6-0.7
			c2.5,0,4.5,0.3,6,0.9s2.7,1.4,3.6,2.5c0.8,1.1,1.4,2.4,1.7,3.9c0.3,1.5,0.5,3.2,0.5,5.1v12.9l2.5,3.8l-3.8,3.1L261.5,49.4z
			 M260.1,37.8h-8.3c-1.8,0-3.2,0.4-4.5,1.3s-1.8,2.1-1.8,3.9c0,1,0.2,1.8,0.5,2.4s0.8,1.2,1.4,1.6c0.6,0.4,1.3,0.7,2,0.8
			c0.8,0.2,1.6,0.2,2.4,0.2c1.8,0,3.4-0.3,4.6-0.9c1.3-0.6,2.5-1.3,3.6-2v-7.3H260.1z M275.8,25.9h-4.3v-4.4h4.3v-4
			c0-1.4,0.2-2.8,0.6-4s1-2.3,1.9-3.2s2-1.6,3.4-2.1s3-0.8,5-0.8c1.1,0,2.2,0.1,3.2,0.2s2.1,0.4,3.3,0.7l-1,4.2
			c-1-0.3-1.9-0.5-2.7-0.6c-0.8-0.1-1.7-0.2-2.8-0.2c-1.2,0-2.1,0.2-2.8,0.5c-0.7,0.3-1.2,0.7-1.6,1.3c-0.4,0.5-0.7,1.2-0.8,1.9
			c-0.1,0.8-0.2,1.6-0.2,2.4v3.5h10v4.4h-10v25.6h-5.6V25.9H275.8z M316.6,33.7c0-1.6-0.2-3-0.6-4.1s-1-2-1.7-2.7s-1.5-1.2-2.5-1.4
			c-0.9-0.3-1.9-0.4-3-0.4c-2.7,0-4.8,0.8-6.3,2.4s-2.3,3.7-2.5,6.3L316.6,33.7L316.6,33.7z M321.8,50.3c-1.4,0.5-3.1,1-5,1.5
			s-4.3,0.8-7,0.8c-2.9,0-5.3-0.4-7.3-1.1c-2-0.8-3.6-1.8-4.8-3.2c-1.2-1.4-2.1-3.1-2.7-5c-0.6-2-0.8-4.1-0.8-6.5
			c0-2.2,0.3-4.3,0.9-6.2c0.6-2,1.5-3.7,2.7-5.2s2.8-2.7,4.6-3.5c1.9-0.9,4-1.3,6.6-1.3c4.5,0,7.9,1.3,10.1,4
			c2.2,2.6,3.3,6.4,3.3,11.2l-2.7,2.6H300c0.1,3,1,5.4,2.7,7.1s4.1,2.6,7.2,2.6c1,0,1.9,0,2.7-0.1c0.8-0.1,1.6-0.2,2.4-0.4
			s1.6-0.4,2.4-0.6c0.8-0.2,1.8-0.5,2.9-0.8L321.8,50.3z M330.3,25.9H326v-4.4h4.3v-8.9h5.5v8.9h10.1v4.4h-10.1v15.5
			c0,2.4,0.4,4.1,1.3,5s2.2,1.4,4,1.4c1,0,2-0.1,2.9-0.2s1.8-0.3,2.8-0.6l1.1,4.3c-1.4,0.4-2.6,0.6-3.8,0.8c-1.2,0.2-2.5,0.3-4,0.3
			c-1.4,0-2.8-0.2-4-0.5s-2.2-0.9-3.1-1.6c-0.9-0.8-1.5-1.7-2-2.9s-0.7-2.7-0.7-4.5L330.3,25.9L330.3,25.9z M352.8,59.4
			c1.3,0.3,2.5,0.6,3.5,0.8c1.1,0.2,2.2,0.3,3.4,0.3c1.6,0,2.9-0.3,4-1c1.1-0.6,1.9-1.8,2.4-3.5l1-3.6c-1,0.1-1.8,0.2-2.6,0.2
			c-1.5,0-2.7-0.2-3.8-0.5s-1.9-0.9-2.6-1.6c-0.7-0.7-1.3-1.7-1.8-2.8s-0.9-2.4-1.3-3.8l-5.8-21.8l5.4-1.3l5.6,21.8
			c0.2,0.9,0.5,1.6,0.8,2.3s0.6,1.2,1,1.7s0.9,0.8,1.6,1s1.4,0.3,2.3,0.3c0.6,0,1.4-0.1,2.3-0.2l7.1-26.9l5.1,1.3l-8.9,34
			c-0.4,1.8-1.1,3.2-1.8,4.4c-0.8,1.1-1.7,2-2.7,2.7s-2.1,1.1-3.4,1.4c-1.2,0.3-2.6,0.4-4,0.4c-1.2,0-2.5-0.1-3.9-0.3
			c-1.4-0.2-2.7-0.5-3.8-0.8L352.8,59.4z M396.8,45c4.4,1.8,9.1,2.7,14,2.7c4.1,0,7.1-0.7,9.1-2.1c1.9-1.4,2.9-3.3,2.9-5.7
			c0-1.4-0.3-2.6-0.9-3.5s-1.5-1.6-2.5-2.2c-1.1-0.6-2.3-1-3.7-1.3c-1.4-0.3-2.9-0.6-4.4-1c-1.6-0.3-3.3-0.7-5-1.2s-3.3-1.1-4.6-2
			c-1.4-0.9-2.5-2-3.4-3.4S397,22.2,397,20c0-1.8,0.3-3.5,1-5c0.6-1.5,1.6-2.8,3-4c1.4-1.1,3.2-2,5.4-2.6c2.2-0.6,4.9-1,8-1
			c2.8,0,5.4,0.3,7.6,0.8s4.3,1.1,6.2,1.8l-1.5,4.7c-2.1-0.8-4.1-1.4-6.1-1.8s-4.2-0.7-6.6-0.7c-3.6,0-6.4,0.6-8.2,1.9
			s-2.7,3.1-2.7,5.3c0,1.3,0.3,2.3,0.9,3.1s1.4,1.5,2.4,2s2.2,0.9,3.5,1.2c1.3,0.3,2.7,0.6,4.2,0.9c1.7,0.3,3.5,0.7,5.2,1.2
			c1.8,0.5,3.4,1.2,4.9,2.1s2.6,2.1,3.6,3.6c0.9,1.5,1.4,3.4,1.4,5.7c0,4.1-1.5,7.3-4.6,9.7s-7.6,3.6-13.6,3.6c-3.8,0-7-0.3-9.6-1
			c-2.7-0.6-4.6-1.2-6-1.8L396.8,45z M456.5,33.7c0-1.6-0.2-3-0.6-4.1s-0.9-2-1.6-2.7s-1.5-1.2-2.5-1.4c-0.9-0.3-2-0.4-3-0.4
			c-2.7,0-4.8,0.8-6.3,2.4s-2.3,3.7-2.5,6.3L456.5,33.7L456.5,33.7z M461.7,50.3c-1.4,0.5-3.1,1-5,1.5s-4.3,0.8-7,0.8
			c-2.9,0-5.3-0.4-7.3-1.1c-2-0.8-3.6-1.8-4.8-3.2c-1.2-1.4-2.1-3.1-2.7-5s-0.8-4.1-0.8-6.5c0-2.2,0.3-4.3,0.9-6.2
			c0.6-2,1.5-3.7,2.7-5.2s2.8-2.7,4.6-3.5s4-1.3,6.6-1.3c4.5,0,7.9,1.3,10.1,4c2.2,2.6,3.3,6.4,3.3,11.2l-2.7,2.6h-19.7
			c0.1,3,1,5.4,2.7,7.1c1.7,1.7,4.1,2.6,7.2,2.6c1,0,1.9,0,2.7-0.1c0.8-0.1,1.6-0.2,2.4-0.4s1.6-0.4,2.4-0.6s1.8-0.5,2.9-0.8
			L461.7,50.3z M469.5,27.3l-1.9-5l4.8-2.2l1.9,3.2c1.7-0.8,3.4-1.5,5.1-2s3.7-0.8,5.8-0.8c2.1,0,3.9,0.3,5.3,0.9s2.6,1.5,3.4,2.5
			s1.4,2.3,1.8,3.7c0.4,1.4,0.5,2.9,0.5,4.5v19.5h-5.6V32.4c0-2.5-0.6-4.3-1.8-5.5c-1.2-1.1-2.8-1.7-4.9-1.7c-1.8,0-3.5,0.3-5,0.8
			s-2.8,1.1-4,1.6v23.9h-5.6V27.3H469.5z M503.4,46.1c0.2,0.1,0.6,0.2,1.3,0.4s1.5,0.4,2.5,0.6c1,0.2,2,0.4,3.2,0.6
			c1.2,0.2,2.4,0.3,3.5,0.3c2.5,0,4.4-0.4,5.5-1.3c1.2-0.9,1.7-2,1.7-3.5c0-0.8-0.2-1.5-0.5-2s-0.8-0.9-1.5-1.3
			c-0.7-0.3-1.5-0.6-2.4-0.9s-2.1-0.5-3.3-0.7c-1-0.2-2-0.4-3.2-0.7s-2.3-0.7-3.4-1.3s-1.9-1.4-2.7-2.5c-0.7-1-1.1-2.4-1.1-4.2
			c0-1.3,0.2-2.5,0.7-3.7c0.5-1.1,1.2-2.1,2.2-2.9s2.3-1.5,3.9-1.9c1.6-0.5,3.5-0.7,5.6-0.7c2.4,0,4.6,0.2,6.5,0.7s3.3,0.9,4.3,1.4
			l-1.7,4.2c-1.4-0.5-2.8-0.9-4.3-1.3s-3.2-0.5-5.1-0.5c-2.4,0-4,0.4-5,1.1c-1,0.8-1.5,1.8-1.5,3.1c0,0.9,0.2,1.6,0.7,2.1
			s1.1,1,1.9,1.3c0.8,0.3,1.7,0.6,2.6,0.8c1,0.2,2,0.4,3.1,0.5c1.2,0.2,2.4,0.5,3.6,0.8s2.2,0.8,3.2,1.5c1,0.6,1.7,1.5,2.3,2.5
			c0.6,1.1,0.9,2.4,0.9,4.1c0,3-1.1,5.4-3.3,7.1c-2.2,1.8-5.5,2.6-9.9,2.6c-1.4,0-2.8-0.1-4-0.3c-1.3-0.2-2.5-0.4-3.5-0.6
			s-1.9-0.4-2.6-0.6c-0.7-0.2-1.1-0.3-1.3-0.4L503.4,46.1z M553.8,33.7c0-1.6-0.2-3-0.6-4.1c-0.4-1.1-0.9-2-1.6-2.7
			c-0.7-0.7-1.5-1.2-2.5-1.4c-0.9-0.3-2-0.4-3-0.4c-2.7,0-4.8,0.8-6.3,2.4s-2.3,3.7-2.5,6.3L553.8,33.7L553.8,33.7L553.8,33.7z
			 M559,50.3c-1.4,0.5-3.1,1-5,1.5s-4.3,0.8-7,0.8c-2.9,0-5.3-0.4-7.3-1.1c-2-0.8-3.6-1.8-4.8-3.2s-2.1-3.1-2.7-5s-0.8-4.1-0.8-6.5
			c0-2.2,0.3-4.3,0.9-6.2c0.6-2,1.5-3.7,2.7-5.2s2.8-2.7,4.6-3.5c1.9-0.9,4-1.3,6.6-1.3c4.5,0,7.9,1.3,10.1,4s3.3,6.4,3.3,11.2
			l-2.7,2.6h-19.7c0.1,3,1,5.4,2.7,7.1s4.1,2.6,7.2,2.6c1,0,1.9,0,2.7-0.1s1.6-0.2,2.4-0.4c0.8-0.2,1.6-0.4,2.4-0.6
			c0.8-0.2,1.8-0.5,2.9-0.8L559,50.3z"/>
	</g>
</g>
<g class="st1">
	<path class="st0" d="M569.7,11.1h-4.3V8.6h11.4v2.5h-4.3V23h-2.8V11.1z M578.9,8.6h2.6l3.8,6.6c0.2,0.3,0.4,0.5,0.6,0.5
		c0.2,0,0.4-0.2,0.6-0.5l3.7-6.6h2.5V23h-2.8v-9.2l-1.6,3c-0.4,0.8-0.8,1.3-1.2,1.5c-0.3,0.2-0.8,0.4-1.2,0.4
		c-0.5,0-0.9-0.1-1.2-0.3c-0.3-0.2-0.7-0.7-1.1-1.4l-1.8-3.1V23h-2.8V8.6z"/>
</g>
</svg>
