<?xml version="1.0" encoding="utf-8"?>
<!-- Generator: Adobe Illustrator 27.2.0, SVG Export Plug-In . SVG Version: 6.00 Build 0)  -->
<svg version="1.1" id="Capa_1" xmlns="http://www.w3.org/2000/svg" xmlns:xlink="http://www.w3.org/1999/xlink" x="0px" y="0px"
	 viewBox="0 0 70.6 20.7" style="enable-background:new 0 0 70.6 20.7;" xml:space="preserve">
<style type="text/css">
	.st0{fill:#FFFFFF;}
</style>
<g>
	<path class="st0" d="M25.6,4.1h3c0.9,0,1.5,0.4,2.2,1.3l4.9,7.8l0,0V4.1h1.5c0.8,0,1.4,0.6,1.4,1.4v12.3h-1.1
		c-1.3,0-1.9-0.3-2.7-1.4L30,8.6l0,0v9.1h-1.5c-0.7,0-1.4-0.5-1.4-1.4V5.4C27,4.7,26.4,4.1,25.6,4.1"/>
	<path class="st0" d="M41.5,4.1h11.2c0.8,0,1.4,0.7,1.4,1.4v1.4H50v10.9h-1.6c-0.8,0-1.4-0.5-1.4-1.4V6.8h-2.7
		c-0.8,0-1.4-0.6-1.4-1.4C42.8,4.7,42.2,4.1,41.5,4.1"/>
	<path class="st0" d="M17.7,16.4V7.3h1.6c0.7,0,1.4,0.6,1.4,1.4v9.1h-1.6C18.3,17.7,17.7,17.1,17.7,16.4"/>
	<path class="st0" d="M1.3,5.4v10.9c0,0.8,0.6,1.4,1.4,1.4h1.6v-5l0,0l3.8,3.8c1.1,1.1,1.8,1.2,2.7,1.2H13l-6.9-6.8L13,4.1H9.3
		l-4.9,5l0,0V5.4C4.4,4.7,3.9,4,3,4H0C0.7,4.1,1.3,4.7,1.3,5.4"/>
	<path class="st0" d="M63.5,3.7c-3.9,0-7.1,3.2-7.1,7.1s3.2,7.1,7.1,7.1s7.1-3.2,7.1-7.1S67.5,3.7,63.5,3.7 M63.5,15.3
		c-2.4,0-4.4-2-4.4-4.4s2-4.4,4.4-4.4s4.4,2,4.4,4.4C68,13.3,66,15.3,63.5,15.3z"/>
	<path class="st0" d="M19.3,2.7c-0.4-0.3-1-0.4-1.6,0c-0.8,0.5-0.8,1.5-0.4,2.2s1.2,1,2,0.9c1-0.1,1.8-0.6,2.2-1.3
		c0.4-0.6,0.9-1.9,0-3.2C20.8,0.3,20,0,19,0s-1.7,0.8-2.2,1.4C16,2.3,15.7,2.5,15,2.6c-0.7,0.1-1.3-0.2-1.6-0.5
		c-0.3-0.3-0.5-0.5-0.5-0.5s0.4,0.7,0.9,1.1S15.2,3.4,16,3c1-0.4,1.6-1,2-1.2c0.7-0.4,1.7-0.1,1.9,0.7c0.2,0.8-0.2,1.4-0.2,1.4
		S19.9,3.2,19.3,2.7"/>
</g>
</svg>
