<?xml version="1.0" encoding="utf-8"?>
<!-- Generator: Adobe Illustrator 27.2.0, SVG Export Plug-In . SVG Version: 6.00 Build 0)  -->
<svg version="1.1" id="Capa_1" xmlns="http://www.w3.org/2000/svg" xmlns:xlink="http://www.w3.org/1999/xlink" x="0px" y="0px"
	 viewBox="0 0 18.6 20.7" style="enable-background:new 0 0 18.6 20.7;" xml:space="preserve">
<style type="text/css">
	.st0{fill:#FFFFFF;}
</style>
<path class="st0" d="M9.3,1C4.1,1,0,5.2,0,10.3s4.2,9.4,9.3,9.4s9.3-4.2,9.3-9.4S14.5,1,9.3,1z M10.5,18.5c-0.2,0-0.4,0-0.6,0.1
	v-3.9h3.5C12.7,16.6,11.7,18,10.5,18.5z M5.3,14.7h3.5v3.9c-0.2,0-0.4,0-0.6-0.1C6.9,18,5.9,16.6,5.3,14.7z M1.1,10.9H4
	C4,12,4.2,13.1,4.4,14H1.9C1.4,13.1,1.1,12,1.1,10.9z M8.2,2.2c0.2,0,0.4,0,0.6-0.1V6H5.3C5.9,4.1,6.9,2.7,8.2,2.2z M13.3,6.1H9.8
	v-4c0.2,0,0.4,0,0.6,0.1C11.7,2.7,12.7,4.1,13.3,6.1z M13.5,6.8c0.2,0.9,0.4,2,0.4,3H9.8v-3H13.5z M8.8,6.8v3H4.6
	c0-1.1,0.2-2.1,0.4-3H8.8z M3.9,9.8H1.1c0.1-1.1,0.3-2.1,0.8-3h2.5C4.1,7.7,3.9,8.7,3.9,9.8z M4.6,10.9h4.1V14H5.1
	C4.8,13.1,4.7,12,4.6,10.9z M9.8,14v-3.1h4.1c0,1.1-0.2,2.2-0.5,3.1H9.8z M14.7,10.9h2.9c-0.1,1.1-0.4,2.2-0.9,3.1h-2.5
	C14.5,13.1,14.7,12,14.7,10.9z M14.7,9.8c0-1.1-0.2-2.1-0.4-3h2.5c0.5,0.9,0.7,2,0.8,3H14.7z M16.4,6.1h-2.3
	c-0.4-1.4-1.1-2.6-1.9-3.4C13.9,3.3,15.4,4.5,16.4,6.1z M6.4,2.6C5.6,3.5,5,4.6,4.5,6.1H2.2C3.2,4.5,4.7,3.3,6.4,2.6z M2.3,14.7h2.3
	c0.4,1.4,1.1,2.5,1.9,3.4C4.7,17.5,3.3,16.3,2.3,14.7z M12.2,18.1c0.8-0.8,1.4-2,1.9-3.4h2.3C15.3,16.3,13.9,17.5,12.2,18.1z"/>
</svg>
