<?xml version="1.0" encoding="utf-8"?>
<!-- Generator: Adobe Illustrator 27.2.0, SVG Export Plug-In . SVG Version: 6.00 Build 0)  -->
<svg version="1.1" id="Capa_1" xmlns="http://www.w3.org/2000/svg" xmlns:xlink="http://www.w3.org/1999/xlink" x="0px" y="0px"
	 viewBox="0 0 202.7 20.7" style="enable-background:new 0 0 202.7 20.7;" xml:space="preserve">
<style type="text/css">
	.st0{fill:#FFFFFF;}
	.st1{fill:#E30613;}
</style>
<g>
	<g>
		<g>
			<g>
				<path class="st0" d="M117.5,11.2h-4c-1.2,0-2.7,0.2-3.7,1.7c-0.6,0.9-2.3,4.2-2.3,4.2h2.8l0.9-1.7h3.7v1.7h2.7L117.5,11.2
					 M111.7,14.4c0,0,0.5-1,0.8-1.4c0.5-0.7,1.1-0.8,1.7-0.8c0.4,0,0.6,0,0.6,0l0.1,2.2H111.7z"/>
				<path class="st0" d="M91.2,11.2h-4c-1.2,0-2.7,0.2-3.7,1.7c-0.6,0.9-2.3,4.2-2.3,4.2H84l0.9-1.7h3.7v1.7h2.7L91.2,11.2z
					 M85.4,14.4c0,0,0.5-1,0.8-1.4c0.5-0.7,1.1-0.8,1.7-0.8c0.4,0,0.6,0,0.6,0l0.1,2.2H85.4z"/>
				<path class="st0" d="M128.2,17.1l0.2-1h-5.3c0,0,5.1-3.5,5.8-3.9c0.1-0.3,0.2-0.8,0.2-1h-9.5l-0.1,1h5.3l-6,3.8l-0.2,1h9.6V17.1
					z"/>
				<path class="st0" d="M137.1,11.2c-1.3-0.1-3-0.1-4,0c-1.8,0.1-2.9,0.5-3.4,2c-0.2,0.6-0.4,1.5-0.5,2.2c-0.2,1.4,0.5,1.7,1.5,1.7
					c1.4,0.1,3.5,0.1,5,0c1.4-0.1,2.5-0.5,2.9-1.8c0.2-0.7,0.4-1.3,0.5-2.2C139.3,12.2,138.8,11.3,137.1,11.2 M134.5,16
					c-0.5,0-1.3,0-1.7,0s-1-0.1-0.9-0.8c0.1-0.5,0.3-1.7,0.5-2.2c0.2-0.6,0.6-0.8,1.3-0.8c0.5,0,1.1,0,1.5,0
					c0.9,0.1,1.2,0.4,1.1,1.1c-0.2,0.8-0.3,1.3-0.5,1.9C135.6,15.8,135.1,16,134.5,16"/>
				<path class="st0" d="M70.8,11.2c-1.3-0.1-3-0.1-4,0c-1.8,0.1-2.9,0.5-3.4,2c-0.2,0.6-0.4,1.5-0.5,2.2c-0.2,1.4,0.5,1.7,1.5,1.7
					c1.4,0.1,3.5,0.1,5,0c1.4-0.1,2.5-0.5,2.9-1.8c0.2-0.7,0.4-1.3,0.5-2.2C72.9,12.2,72.4,11.3,70.8,11.2 M68.2,16
					c-0.5,0-1.3,0-1.7,0c-0.3,0-1-0.1-0.9-0.8c0-0.5,0.3-1.7,0.5-2.2c0.2-0.6,0.6-0.8,1.3-0.8c0.5,0,1.1,0,1.5,0
					c0.9,0.1,1.2,0.4,1.1,1.1c-0.2,0.8-0.3,1.3-0.5,1.9C69.3,15.8,68.7,16,68.2,16"/>
				<path class="st0" d="M51.4,11.2c-1.3-0.1-3-0.1-4,0c-1.8,0.1-2.9,0.5-3.4,2c-0.2,0.6-0.4,1.5-0.5,2.2c-0.2,1.4,0.5,1.7,1.5,1.7
					c1.4,0.1,3.5,0.1,5,0c1.4-0.1,2.5-0.5,2.9-1.8c0.2-0.7,0.4-1.3,0.5-2.2C53.5,12.2,53,11.3,51.4,11.2 M48.8,16
					c-0.5,0-1.3,0-1.7,0c-0.3,0-1-0.1-0.9-0.8c0.1-0.5,0.3-1.7,0.5-2.2c0.2-0.6,0.6-0.8,1.3-0.8c0.5,0,1.1,0,1.5,0
					c0.9,0.1,1.2,0.4,1.1,1.1c-0.2,0.8-0.3,1.3-0.5,1.9C49.9,15.8,49.3,16,48.8,16"/>
				<path class="st0" d="M147.4,11.2c-1.3-0.1-3-0.1-4,0c-1.8,0.1-2.9,0.5-3.4,2c-0.2,0.6-0.4,1.5-0.5,2.2c-0.2,1.4,0.5,1.7,1.5,1.7
					c1.4,0.1,3.5,0.1,5,0c1.4-0.1,2.5-0.5,2.9-1.8c0.2-0.7,0.4-1.3,0.5-2.2C149.5,12.2,149.1,11.3,147.4,11.2 M144.8,16
					c-0.5,0-1.2,0-1.7,0c-0.4,0-1-0.1-0.9-0.8c0-0.5,0.3-1.7,0.5-2.2c0.2-0.6,0.6-0.8,1.3-0.8c0.5,0,1.1,0,1.5,0
					c0.9,0.1,1.2,0.4,1.1,1.1c-0.2,0.8-0.3,1.3-0.5,1.9C145.9,15.8,145.4,16,144.8,16"/>
				<path class="st0" d="M166.3,17.1c-1.1,0-1.3-0.3-1.3-1c0-0.2,0.1-0.6,0.2-1c0.3-0.8,1.3-1.2,2.6-1.2h2.7c0,0,0.3-0.7-0.7-0.7
					h-3.7l0.2-1h4.6c1.7,0,2.3,0.9,2,2.1c-0.2,0.8-0.6,2.8-0.6,2.8H166.3z M167.7,16.1h2.5l0.3-1.3h-1.9c-0.8,0-1.2,0.2-1.3,0.6
					c-0.1,0.2-0.1,0.2-0.1,0.4C167.2,15.9,167.3,16.1,167.7,16.1"/>
				<path class="st0" d="M175.9,17.1c-2.2,0-2.4-1.1-2.2-2c0.1-0.3,0.1-0.4,0.3-1c0.4-1.4,1.3-1.9,3.4-1.9h4.6l-0.2,0.9h-3.5
					c-1.2,0-1.6,0.6-1.8,1c-0.1,0.4-0.2,0.6-0.2,0.9c-0.1,0.7,0.2,1.1,1.1,1.1h3.8l-0.2,1H175.9z"/>
				<polygon class="st0" points="183.3,10 185.8,10 185.6,11.2 183,11.2 				"/>
				<polygon class="st0" points="184.3,17.1 185.3,12.2 182.8,12.2 181.8,17.1 				"/>
				<path class="st0" d="M193.7,14.2c-0.2,0.9-0.6,2.8-0.6,2.8h-2.5c0,0,0.4-1.6,0.5-2.4c0.2-1.2,0.1-1.4-1.4-1.4h-0.9L188,17h-2.5
					l1-4.9h4.5C192.9,12.2,194,12.6,193.7,14.2"/>
				<polygon class="st0" points="37,11.4 35.6,17.1 38.5,17.1 39.9,11.4 43.8,11.4 44.1,10 33.5,10 33.2,11.4 				"/>
				<polygon class="st0" points="76.8,12.3 75.6,17.1 78.1,17.1 79.3,12.3 82.6,12.3 82.9,11.1 73.9,11.1 73.6,12.3 				"/>
				<polygon class="st0" points="56.8,14.9 56.3,17.1 58.7,17.1 59.3,14.9 63.8,11.1 61.4,11.1 58.1,13.7 55.7,11.1 53.5,11.1 				
					"/>
				<path class="st0" d="M193.7,19.8l0.7-1.3h2.1c2.3,0,2.6-1.3,2.6-1.3h-3.5c-0.9,0-1.6-0.3-1.4-1.5c0.1-0.5,0.2-0.9,0.4-1.6
					c0.4-1.1,1.6-1.9,3.9-1.9c2.4,0,4.2,0,4.2,0s-0.5,2.7-1,4.5c-0.6,2.4-2.2,3-5.1,3L193.7,19.8L193.7,19.8z M199.3,16.1l0.6-2.8
					c0,0-0.5,0-0.8,0c-1,0-1.9,0.3-2.2,1.3c-0.1,0.4-0.1,0.6-0.2,0.9c-0.1,0.4,0.3,0.7,0.9,0.7h1.7V16.1z"/>
				<path class="st0" d="M165.6,11.6c-0.1,0.6-0.2,0.9-0.4,1.3c-0.3,0.7-1.1,1.1-2.1,1.2c-0.4,0.1-0.9,0-0.9,0l2.1,3h-3.1l-2.9-4.2
					c0,0,2.5,0,2.8,0c0.6,0,1.4-0.2,1.6-0.6c0.1-0.1,0.2-0.3,0.2-0.6s-0.3-0.5-0.7-0.5c-0.5,0-4.6,0-4.6,0l-1.4,5.8h-3l1.9-7.2h8.5
					C165.1,9.8,165.8,10.6,165.6,11.6"/>
				<path class="st0" d="M107.7,12.9h-4.9l-0.5,1.4h2.4l-0.4,1.3h-3.9c-0.8,0-1.2-0.2-1.1-0.8c0.1-0.7,0.4-1.3,0.6-1.9
					c0.5-1.3,1.1-1.6,4-1.6c1.5,0,4.2,0,4.2,0l0.4-1.4c0,0-4,0-5.1,0c-4.1,0-5.5,0.5-6.3,2.5c-0.3,0.7-0.7,1.9-0.8,3
					c-0.2,1.2,0.7,1.7,1.7,1.7c1.4,0.1,8.4,0,8.4,0L107.7,12.9z"/>
			</g>
		</g>
		<g>
			<path class="st0" d="M30,4l-3.5,14.1H0.6L4.1,4H30 M30.5,3.6H30H4.1H3.8L3.7,3.9L0.1,18L0,18.5h0.5h25.9h0.3l0.1-0.3l3.5-14.1
				L30.5,3.6L30.5,3.6z"/>
			<polygon class="st1" points="17,4 16.8,4 13.2,18.1 26.5,18.1 30,4 			"/>
			<polygon points="4.1,4 0.5,18.1 13.4,18.1 17,4 			"/>
			<path class="st0" d="M27.2,11.7c-0.1,0.6-0.2,0.9-0.4,1.3c-0.4,0.7-1.1,1.1-2.1,1.2c-0.4,0-0.9,0-0.9,0l2.1,3h-3.1L19.9,13
				c0,0,2.6,0,2.8,0c0.6,0,1.4-0.2,1.6-0.6c0.1-0.1,0.2-0.3,0.2-0.6s-0.3-0.5-0.7-0.5c-0.5,0-4.6,0-4.6,0l-1.5,5.8h-3l1.9-7.2
				c0,0,7,0,8.5,0C26.6,9.9,27.4,10.7,27.2,11.7"/>
			<path class="st0" d="M13.6,12.9H8.7l-0.5,1.4h2.4l-0.4,1.3H6.3c-0.9,0-1.2-0.2-1.1-0.8c0.1-0.7,0.3-1.3,0.6-1.9
				c0.5-1.3,1.1-1.6,4-1.6c1.5,0,4.2,0,4.2,0l0.4-1.4c0,0-4,0-5.1,0c-4.1,0-5.6,0.5-6.3,2.5c-0.3,0.7-0.7,2-0.8,3
				C2,16.6,2.9,17.1,4,17.1c1.4,0,8.4,0,8.4,0L13.6,12.9z"/>
		</g>
	</g>
</g>
</svg>
