<?xml version="1.0" encoding="utf-8"?>
<!-- Generator: Adobe Illustrator 27.2.0, SVG Export Plug-In . SVG Version: 6.00 Build 0)  -->
<svg version="1.1" id="Capa_1" xmlns="http://www.w3.org/2000/svg" xmlns:xlink="http://www.w3.org/1999/xlink" x="0px" y="0px"
	 viewBox="0 0 109.2 20.7" style="enable-background:new 0 0 109.2 20.7;" xml:space="preserve">
<style type="text/css">
	.st0{fill-rule:evenodd;clip-rule:evenodd;fill:#FFFFFF;}
</style>
<g>
	<path class="st0" d="M14.2,2.6c-1.4,1.7-5.5,7.4-5.9,8.1c-0.9,1.4-1,2.1-1,2.5s0,1.2,0.7,1.9c1.2,1.1,2.9,0.9,4.4,0.9h12.4
		c0.5,0,0.7-0.2,1-0.5c1-1.5,1.4-3.2,1.4-4.6c0-3.1-2-7.1-7.2-8.9l-0.6,0.8c4.1,1.9,5.8,4.5,5.8,8.1c0,1-0.2,2-0.9,2.9h-12
		c-0.7,0-0.8-0.8-0.6-1.3c1.1-1.9,2.2-3.6,3.4-5.3c1.2-1.6,2.4-3.1,3.7-4.7c0.3-0.4,0.1-0.9-0.6-1C16.8,1.2,15.3,1,13.5,1
		C3.6,1,0,6.7,0,10.9c0,4.6,3.6,9.9,13.5,9.9c5.5,0,9.1-1.8,11.1-4h-2.1c-1.8,1.7-4.9,2.9-9.1,2.9C5,19.7,2,15,2,11
		c0.1-3.6,3.4-8.6,11.7-8.8C14.2,2.1,14.4,2.3,14.2,2.6L14.2,2.6z"/>
	<path class="st0" d="M106.1,9.9h-8.9c0.1-1.1,1.1-2,2-2h9V6h-9.5c-3,0-5.4,2.5-5.5,5.4c0,0.2,0.1,0.3,0.4,0.3h10.8
		c0.6,0.1,1,0.5,1,1c0,0.6-0.5,1.1-1.2,1.1H92.3V6.1h-3.5v7.8h-6.5c-1.7,0-2.1-1.1-2.1-2V6h-5.8c-0.6,0.4-1.1,0.8-1.7,1.2l-3.5,2.1
		L64.7,6H51.1c-1.8,0-3.2,0.5-4.2,1.3c-1.8,1.4-2.4,3-2.4,3.6h2.4c-1,0.8-1.7,1.7-2.1,2.8H37c-1.4,0-2.3-1-2.3-2V6h-3.5v6
		c0,2.2,2.1,3.7,5.4,3.7h26.2c0.5-0.4,1.1-0.8,1.6-1.1l3.6-2.2l4.5,3.2h5.1l-6.8-5.1l3.5-2.3c0.7-0.5,1.5-0.9,2.3-1.3V12
		c0,2.2,0.6,3.7,4.9,3.7l24.6-0.1c1.9,0,3.1-1.3,3.1-2.9C109.2,11.2,107.8,9.9,106.1,9.9z M62.1,13.8H49.3c0-1,1.1-2,2.1-2h8v-2
		H49.2c-0.1-0.6,1-1.7,1.8-1.7h9.2V7l5.9,4.3L62.1,13.8z"/>
</g>
</svg>
