<?xml version="1.0" encoding="utf-8"?>
<!-- Generator: Adobe Illustrator 27.2.0, SVG Export Plug-In . SVG Version: 6.00 Build 0)  -->
<svg version="1.1" id="Capa_1" xmlns="http://www.w3.org/2000/svg" xmlns:xlink="http://www.w3.org/1999/xlink" x="0px" y="0px"
	 viewBox="0 0 100.3 20.7" style="enable-background:new 0 0 100.3 20.7;" xml:space="preserve">
<style type="text/css">
	.st0{fill:#FFFFFF;}
</style>
<g>
	<g>
		<path class="st0" d="M15.1,2.6c-1.4-0.1-1.5,0.8-0.7,1c0.3,0.1,4.5,1.3,5.8,3.6c1,1.8-0.2,2.2-1.1,2.3c-0.8,0.1-4.5,0.2-6.6,0.2
			c-2,0-5.8-0.1-6.6-0.2C5.2,9.4,4,9,5,7.3c1.3-2.3,5.6-3.6,5.8-3.6c0.8-0.2,0.7-1.1-0.7-1C4.6,3,0,7,0,10.9s4.6,7.9,10.2,8.3
			c1.4,0.1,1.5-0.8,0.7-1c-0.3-0.1-4.5-1.3-5.8-3.6c-1-1.8,0.2-2.2,1.1-2.3c0.8-0.1,4.5-0.2,6.6-0.2c2,0,5.8,0.1,6.6,0.2
			c0.8,0.1,2.1,0.5,1.1,2.3c-1.3,2.3-5.6,3.6-5.8,3.6c-0.8,0.2-0.7,1.1,0.7,1c5.6-0.4,10.2-4.4,10.2-8.3C25.3,7,20.7,3,15.1,2.6
			 M12.6,10.1c1.5,0,7.6,0.1,8.5-0.6c0.1-0.1,0.1-0.1,0.2,0s0.4,0.2,0.5,0.3s0,0.1-0.1,0.2c-0.5,0.2-1.9,0.4-9.1,0.4S4,10.2,3.5,10
			c0,0-0.1-0.1-0.1-0.2c0.1-0.1,0.4-0.3,0.5-0.3c0.1-0.1,0.2,0,0.2,0C5,10.2,11.1,10.1,12.6,10.1 M24.7,11.2c-0.1,0-0.1-0.1-0.1-0.5
			c-0.1-1-0.7-2.7-1.7-3.7c-0.1-0.1-0.3-0.1-0.1,0.1c0.3,0.4,1.2,1.8,1.2,3.6c0,3.5-3.3,6.7-8.6,7.8c-0.4,0.1-0.5,0-0.1-0.2
			c2.2-0.6,6.1-1.9,7.5-5.3c0.8-1.9-0.5-2.1-1.1-2.1c-1.3-0.1-8.2,0-9.1,0c-1,0-7.8-0.1-9.1,0c-0.5,0-1.9,0.2-1.1,2.1
			c1.5,3.4,5.4,4.8,7.6,5.3c0.4,0.1,0.4,0.2-0.1,0.2c-5.2-1-8.6-4.2-8.6-7.7c0-1.8,0.9-3.2,1.2-3.6c0.2-0.2,0-0.3-0.1-0.1
			c-1,1-1.6,2.7-1.7,3.7c0,0.4-0.1,0.5-0.1,0.5c-0.1,0-0.1-0.2-0.1-0.5C0.7,6.3,6,3.3,9.9,2.9c0.5-0.1,0.5,0.1,0.2,0.2
			C9.4,3.2,4.7,4.3,2.8,7.8c-1,1.8-0.7,2.4,0.9,2.6c0.4,0,3,0.1,8.9,0.1c6,0,8.5-0.1,8.9-0.1c1.6-0.2,1.9-0.8,0.9-2.6
			c-2-3.5-6.7-4.5-7.3-4.7c-0.3-0.1-0.3-0.2,0.2-0.2c3.9,0.4,9.2,3.3,9.4,7.8C24.8,10.9,24.7,11.2,24.7,11.2"/>
		<path class="st0" d="M67.4,11.2c1.4,0.8,2.9,1.6,4.2,2.6c0.4,0.2,0.7,0.6,0.9,0.9c0.1,0.1,0.2,0.3,0.3,0.5
			c0.1,0.1,0.1,0.3,0.1,0.5c0,0.1,0.1,0.2,0.2,0.3c0.1,0,0.1,0.1,0.2,0.1l0,0c1.4,0,2.9,0,4.3,0c0.1,0,0.2,0,0.3-0.1
			c0.1-0.1,0.1-0.2,0.1-0.3l0,0c0.1-3.1,0.1-6.2,0-9.3c0-0.1,0-0.2-0.1-0.3C77.8,6,77.7,6,77.6,6l0,0c-1.4,0-2.7,0-4.1,0l0,0
			c-0.1,0-0.2,0-0.3,0.1c-0.1,0.1-0.1,0.2-0.1,0.3l0,0c0,0.7,0,1.4,0,2l0,0c0,0.2,0,0.3-0.1,0.5c0-0.1,0,0-0.1,0.1
			c0,0.1-0.1,0.1-0.1,0.1l-0.1,0.1c-0.1,0-0.3,0-0.4,0S72,9.1,71.9,9.1C71.7,9,71.5,9,71.4,8.9l0,0c-1.6-0.9-3.2-1.8-4.9-2.6
			c-0.7-0.3-1.4-0.5-2.2-0.5l0,0c-1.1,0-2.3,0-3.4,0c-0.1,0-0.2,0-0.3,0.1s-0.1,0.2-0.1,0.3c-0.1,3.1-0.1,6.2,0,9.3l0,0
			c0,0.1,0,0.2,0.1,0.3s0.2,0.1,0.3,0.1c1.4,0,2.8,0,4.2,0c0.1,0,0.2,0,0.3-0.1c0.1-0.1,0.1-0.2,0.1-0.3c0-1.2,0-2.4,0.1-3.6
			c0-0.2,0-0.4,0.1-0.5c0-0.1,0.1-0.2,0.1-0.2c0.1-0.1,0.2-0.2,0.3-0.2c0.1-0.1,0.3-0.1,0.4-0.1c0.2,0,0.3,0.1,0.5,0.1
			C67.1,11,67.3,11.1,67.4,11.2"/>
		<path class="st0" d="M50.9,15.9c-0.1,0-0.2,0-0.3-0.1s-0.1-0.2-0.1-0.3l0,0c-0.1-3.1-0.1-6.2,0-9.3c0-0.1,0-0.2,0.1-0.3
			c0.1-0.1,0.2-0.1,0.3-0.1c1.5,0,3.1,0,4.6,0l0,0c0.1,0,0.2,0,0.3,0.1s0.1,0.2,0.1,0.3c0.1,3.1,0.1,6.2,0,9.3l0,0
			c0,0.1,0,0.2-0.1,0.3s-0.2,0.1-0.3,0.1l0,0C54,15.9,52.5,15.9,50.9,15.9"/>
		<path class="st0" d="M29.3,15.9c-0.1,0-0.2,0-0.3-0.1s-0.1-0.2-0.1-0.3l0,0c-0.1-3.1-0.1-6.2,0-9.3c0-0.1,0-0.2,0.1-0.3
			c0.1-0.1,0.2-0.1,0.3-0.1l0,0c1.4,0,2.8,0,4.2,0c0.1,0,0.2,0,0.3,0.1s0.1,0.2,0.1,0.3C34,6.8,34,7.4,34.1,8l0,0
			c0,0.2,0.1,0.5,0.3,0.6c0.2,0.2,0.4,0.3,0.6,0.3l0,0c1.6,0,3.3,0,4.9,0l0,0c0.2,0,0.5-0.1,0.6-0.3c0.2-0.2,0.3-0.4,0.3-0.6l0,0
			c0-0.6,0.1-1.2,0.1-1.8C40.9,6.1,41,6,41,6c0.1-0.1,0.2-0.1,0.3-0.1c1.4,0,2.8,0,4.2,0l0,0c0.1,0,0.2,0,0.3,0.1s0.1,0.2,0.1,0.3
			c0.1,3.1,0.1,6.2,0,9.3l0,0c0,0.1,0,0.2-0.1,0.3C45.7,16,45.6,16,45.5,16l0,0c-1.4,0-2.8,0-4.2,0c-0.1,0-0.2,0-0.3-0.1
			s-0.1-0.2-0.1-0.3c0-0.7-0.1-1.4-0.1-2.1c0-0.2-0.1-0.5-0.3-0.6c-0.2-0.2-0.4-0.3-0.6-0.3l0,0c-1.6,0-3.3,0-4.9,0
			c-0.2,0-0.5,0.1-0.6,0.3c-0.2,0.2-0.3,0.4-0.3,0.6c0,0.7-0.1,1.4-0.1,2.1c0,0.1,0,0.2-0.1,0.3C33.8,16,33.7,16,33.6,16l0,0
			C32.2,15.9,30.7,15.9,29.3,15.9L29.3,15.9z"/>
		<path class="st0" d="M100.3,10.8c0-0.8-0.1-1.6-0.2-2.3c-0.1-0.4-0.2-0.9-0.4-1.3c-0.2-0.3-0.4-0.6-0.7-0.8
			c-0.2-0.2-0.5-0.3-0.7-0.4c-0.6-0.3-1.3-0.4-1.9-0.5l0,0c-1.7-0.2-3.4-0.3-5.1-0.3s-3.4,0.1-5.1,0.3l0,0c-0.9,0.1-1.9,0.3-2.6,0.9
			c-0.3,0.2-0.5,0.5-0.7,0.8c-0.2,0.4-0.4,0.8-0.4,1.3l0,0c-0.1,0.8-0.2,1.6-0.2,2.4c0,0.9,0.1,1.9,0.2,2.8l0,0
			c0.1,0.4,0.2,0.7,0.4,1.1c0.2,0.3,0.4,0.5,0.6,0.7s0.4,0.3,0.6,0.4c0.5,0.3,1.1,0.4,1.7,0.5c1.8,0.2,3.7,0.3,5.5,0.3
			s3.7-0.1,5.5-0.3l0,0c0.6-0.1,1.2-0.2,1.7-0.5c0.2-0.1,0.4-0.2,0.6-0.4s0.5-0.4,0.6-0.7c0.2-0.3,0.4-0.7,0.4-1.1l0,0
			C100.3,12.8,100.3,11.8,100.3,10.8 M95.3,12.2c0,0.1-0.1,0.3-0.1,0.4c-0.1,0.2-0.2,0.3-0.4,0.4c-0.2,0.1-0.3,0.2-0.5,0.2
			c-2,0.2-4.1,0.2-6.1,0c-0.2,0-0.4-0.1-0.5-0.2c-0.2-0.1-0.3-0.3-0.4-0.4c-0.1-0.1-0.1-0.3-0.1-0.4l0,0c-0.1-0.5-0.1-1-0.1-1.5
			s0-1,0.1-1.5c0-0.2,0.1-0.3,0.1-0.5c0.1-0.1,0.1-0.2,0.2-0.3s0.2-0.1,0.2-0.2c0.2-0.1,0.4-0.1,0.6-0.2l0,0c1.8-0.2,3.7-0.2,5.6,0
			l0,0c0.2,0,0.4,0.1,0.6,0.2c0.1,0,0.2,0.1,0.2,0.2c0.1,0.1,0.2,0.2,0.2,0.3C95,8.8,95,9,95,9.2c0.1,0.5,0.1,1,0.1,1.5
			C95.4,11.2,95.4,11.7,95.3,12.2"/>
	</g>
</g>
</svg>
