<?xml version="1.0" standalone="no"?>
<!DOCTYPE svg PUBLIC "-//W3C//DTD SVG 1.1//EN" "http://www.w3.org/Graphics/SVG/1.1/DTD/svg11.dtd" >
<svg xmlns="http://www.w3.org/2000/svg" xmlns:xlink="http://www.w3.org/1999/xlink" version="1.1">
<metadata></metadata>
<defs>
<font id="toyota_displayheavy" horiz-adv-x="1372" >
<font-face units-per-em="2048" ascent="1569" descent="-479" />
<missing-glyph horiz-adv-x="368" />
<glyph unicode="&#xfb01;" horiz-adv-x="1316" d="M25 735v318h131v71q0 80 25.5 149.5t84 120t149.5 80t224 29.5q137 0 265 -27.5t212 -62.5l-108 -278q-102 41 -185.5 50t-115.5 9q-92 0 -121 -29.5t-29 -68.5v-43h662v-1053h-404v735h-258v-735h-401v735h-131z" />
<glyph unicode="&#xfb02;" horiz-adv-x="1320" d="M25 735v318h131v86q0 80 30.5 147.5t97 117.5t169 78.5t245.5 28.5q150 0 286 -26.5t235 -59.5v-1425h-402v1188q-29 6 -63.5 10t-61.5 4q-135 0 -135 -94v-55h129v-318h-129v-735h-401v735h-131z" />
<glyph unicode="&#xfb03;" horiz-adv-x="1978" d="M25 735v318h131v86q0 80 26.5 147.5t76.5 117.5t123 78.5t167 28.5q66 0 135.5 -12t128.5 -33l-61 -286q-39 12 -67 17t-48 5q-10 0 -24.5 -2t-27 -11t-20.5 -25.5t-8 -47.5v-63h260v71q0 80 25.5 149.5t84 120t149.5 80t224 29.5q137 0 265.5 -27.5t212.5 -62.5 l-109 -278q-102 41 -185 50t-116 9q-92 0 -120.5 -29.5t-28.5 -68.5v-43h661v-1053h-403v735h-258v-735h-402v735h-260v-735h-401v735h-131z" />
<glyph unicode="&#xfb04;" horiz-adv-x="1982" d="M25 735v318h131v86q0 80 26.5 147.5t76.5 117.5t123 78.5t167 28.5q66 0 135.5 -12t128.5 -33l-61 -286q-39 12 -67 17t-48 5q-10 0 -24.5 -2t-27 -11t-20.5 -25.5t-8 -47.5v-63h260v86q0 80 31 147.5t97.5 117.5t169 78.5t245.5 28.5q150 0 286 -26.5t234 -59.5v-1425 h-401v1188q-29 6 -64 10t-61 4q-135 0 -135 -94v-55h129v-318h-129v-735h-402v735h-260v-735h-401v735h-131z" />
<glyph unicode="&#xd;" horiz-adv-x="368" />
<glyph horiz-adv-x="0" />
<glyph horiz-adv-x="0" />
<glyph unicode=" "  horiz-adv-x="368" />
<glyph unicode="&#x09;" horiz-adv-x="368" />
<glyph unicode="&#xa0;" horiz-adv-x="368" />
<glyph unicode="!" horiz-adv-x="587" d="M86 174q0 88 48 147.5t151 59.5q104 0 152 -59.5t48 -147.5q0 -90 -48 -149.5t-152 -59.5q-92 0 -145.5 56.5t-53.5 152.5zM88 1477h418l-53 -998h-338z" />
<glyph unicode="&#x22;" horiz-adv-x="901" d="M74 807v670h327v-670h-327zM500 807v670h327v-670h-327z" />
<glyph unicode="#" horiz-adv-x="1456" d="M61 319v304h254l31 157h-188v303h252l53 260h317l-53 -260h166l53 260h318l-54 -260h195v-303h-258l-31 -157h193v-304h-254l-54 -260h-317l53 260h-166l-53 -260h-317l53 260h-193zM627 618h174l35 166h-174z" />
<glyph unicode="$" horiz-adv-x="1300" d="M43 115l113 344q135 -53 250.5 -81t218.5 -28q104 0 148 25.5t44 85.5q0 55 -75.5 83.5t-196.5 51.5q-84 16 -162 47t-138.5 81t-96 119.5t-35.5 166.5q0 162 99 279.5t275 162.5v217h328v-203q104 -8 205.5 -33.5t177.5 -60.5l-94 -323q-145 47 -249.5 66.5t-192.5 19.5 q-53 0 -99.5 -20.5t-46.5 -67.5q0 -57 58.5 -83t156.5 -49q78 -18 163 -42.5t155.5 -70.5t115.5 -122t45 -195q0 -170 -101 -291.5t-294 -168.5v-238h-328v219q-143 8 -255.5 42t-188.5 67z" />
<glyph unicode="%" horiz-adv-x="2007" d="M29 1047q0 90 25.5 167.5t77.5 136t131 92.5t183 34q92 0 164 -33t120 -89.5t73.5 -135t25.5 -170.5q0 -90 -26.5 -167t-76.5 -133.5t-125 -88t-171 -31.5q-186 0 -293.5 112.5t-107.5 305.5zM246 0l1136 1452h394l-1131 -1452h-399zM326 1049q0 -74 26.5 -117t81.5 -43 q47 0 76 37t29 123q0 88 -29 126.5t-76 38.5q-109 0 -108 -165zM1182 379q0 90 25.5 168t77.5 136t129 92t179 34q92 0 164 -33t121 -90t74.5 -135t25.5 -170q0 -90 -26.5 -167t-77.5 -133t-126 -88t-171 -32q-190 0 -292.5 112.5t-102.5 305.5zM1477 381q0 -74 25.5 -117 t78.5 -43q43 0 76 38t33 122q0 90 -28 125t-81 35t-78.5 -35t-25.5 -125z" />
<glyph unicode="&#x26;" horiz-adv-x="1466" d="M29 375q0 129 72.5 248.5t238.5 238.5q-51 61 -76.5 121.5t-25.5 132.5q0 80 30.5 150.5t90 125t145.5 85t198 30.5q111 0 220.5 -24.5t207.5 -75.5l-114 -309q-74 35 -139.5 53t-114.5 18q-76 0 -97.5 -22.5t-21.5 -54.5q0 -31 11.5 -57.5t45.5 -67.5l265 -318l194 240 l264 -201l-233 -287l194 -229l-272 -246l-168 201q-47 -37 -94 -67.5t-97.5 -51t-108.5 -32t-130 -11.5q-94 0 -181 26.5t-154.5 79t-108.5 129t-41 175.5zM428 410q0 -39 28.5 -74t98.5 -35q90 0 174 92l-182 219q-45 -47 -82 -96t-37 -106z" />
<glyph unicode="'" horiz-adv-x="475" d="M74 807v670h327v-670h-327z" />
<glyph unicode="(" horiz-adv-x="909" d="M66 569q0 88 36.5 162t77.5 141l398 641l307 -192l-387 -616q-18 -31 -35 -63t-17 -62q0 -45 24 -85t46 -79l369 -588l-305 -199l-414 633q-53 82 -76.5 151.5t-23.5 155.5z" />
<glyph unicode=")" horiz-adv-x="909" d="M25 -172l368 588q23 39 46.5 79t23.5 85q0 31 -16.5 62.5t-34.5 62.5l-387 616l307 192l397 -641q41 -68 78 -141.5t37 -161.5q0 -86 -23.5 -155.5t-77.5 -151.5l-413 -633z" />
<glyph unicode="*" horiz-adv-x="991" d="M33 1034l92 295l235 -96l-22 244h321l-24 -244l227 96l96 -297l-235 -57l170 -197l-264 -190l-129 215l-142 -215l-262 190l170 197z" />
<glyph unicode="+" d="M227 528v318h301v311h320v-311h295v-318h-295v-297h-320v297h-301z" />
<glyph unicode="," horiz-adv-x="577" d="M45 -297l113 596l344 -74l-172 -583z" />
<glyph unicode="-" horiz-adv-x="968" d="M131 455v329h707v-329h-707z" />
<glyph unicode="." horiz-adv-x="524" d="M61 174q0 88 48.5 147.5t152.5 59.5q102 0 150.5 -59.5t48.5 -147.5q0 -90 -48.5 -149.5t-148.5 -59.5q-96 0 -149.5 56.5t-53.5 152.5z" />
<glyph unicode="/" horiz-adv-x="1087" d="M16 -160l697 1719h358l-696 -1719h-359z" />
<glyph unicode="0" horiz-adv-x="1449" d="M66 700q0 156 42 297.5t126.5 248t210.5 169t292 62.5q156 0 277 -56.5t203.5 -156t124.5 -234.5t42 -291q0 -162 -45 -301t-131 -242.5t-212.5 -162t-288.5 -58.5q-154 0 -274 54.5t-201.5 150.5t-123.5 229.5t-42 290.5zM467 717q0 -190 64.5 -296t199.5 -106 q59 0 105.5 22.5t78 71t48 125t16.5 185.5q0 213 -62.5 314.5t-183.5 101.5q-68 0 -118 -30t-82.5 -85t-49 -132t-16.5 -171z" />
<glyph unicode="1" horiz-adv-x="1208" d="M72 1155l340 236q55 39 118.5 62.5t126.5 23.5q94 0 160 -58.5t66 -181.5v-907h284v-330h-987v330h303v657q0 25 -14 25q-8 0 -20 -8l-162 -117z" />
<glyph unicode="2" horiz-adv-x="1216" d="M29 227q0 59 26.5 117.5t91.5 112.5l492 395q47 37 63.5 81t16.5 79q0 63 -35 94t-92 31q-43 0 -94.5 -15.5t-101.5 -37t-95 -44t-74 -34.5l-164 284q55 35 123 69t141.5 59.5t154.5 42t165 16.5q117 0 206 -33t148.5 -90.5t89 -136t29.5 -170.5q0 -86 -23.5 -155 t-66.5 -127t-101.5 -112.5t-125.5 -109.5l-211 -172q-12 -10 -12 -23q0 -16 22 -16h549v-332h-866q-117 0 -186.5 60.5t-69.5 166.5z" />
<glyph unicode="3" horiz-adv-x="1220" d="M37 90l104 336q135 -55 228.5 -84t173.5 -29q37 0 73.5 7.5t64.5 24.5t45 47t17 77q0 57 -37.5 90t-154.5 33h-213v244l246 239q12 8 12 23q0 16 -23 16h-448v344h688q152 0 217.5 -58.5t65.5 -148.5q0 -70 -34 -129t-93 -112l-181 -160q102 -12 172 -50t112 -91.5 t59.5 -118t17.5 -129.5q0 -104 -40 -193.5t-118 -155t-191.5 -102.5t-258.5 -37q-82 0 -157 11.5t-138.5 29t-116.5 38t-92 38.5z" />
<glyph unicode="4" horiz-adv-x="1359" d="M57 541q0 68 33 126t88 121l588 670h332v-827h196v-332h-196v-299h-402v299h-350q-145 0 -217 71.5t-72 170.5zM428 641q0 -10 23 -10h245v319l-260 -293q-8 -8 -8 -16z" />
<glyph unicode="5" horiz-adv-x="1245" d="M37 84l100 340q129 -53 228.5 -83t183.5 -30q94 0 152.5 39t58.5 117t-50.5 120t-125.5 42q-41 0 -93.5 -14.5t-134.5 -49.5l-190 117l24 776h902v-344h-557l-9 -203q37 14 87.5 20.5t97.5 6.5q92 0 175 -24.5t147.5 -78t102.5 -137.5t38 -204q0 -113 -37 -208.5 t-112 -165t-191.5 -108.5t-276.5 -39q-84 0 -163 10.5t-146.5 27t-121.5 36t-89 37.5z" />
<glyph unicode="6" horiz-adv-x="1284" d="M66 674q0 135 30.5 277.5t108.5 259t210 191.5t335 75q100 0 206.5 -22.5t227.5 -82.5l-123 -295q-111 47 -187.5 57.5t-109.5 10.5q-115 0 -183.5 -54.5t-84.5 -201.5q66 27 129 47t147 20q102 0 185 -32.5t142.5 -92t91.5 -144.5t32 -189q0 -119 -42 -216.5t-118 -166 t-180.5 -105.5t-229.5 -37q-141 0 -250.5 48.5t-184.5 138.5t-113.5 220t-38.5 294zM479.5 517q-0.5 -48 20 -96t61 -84t101.5 -36q66 0 108.5 51t42.5 131q0 82 -47 123t-125 41q-47 0 -85 -13t-58 -42q-18 -27 -18.5 -75z" />
<glyph unicode="7" horiz-adv-x="1179" d="M51 0l594 1049q14 23 14 30.5v12.5q0 20 -34 20h-562l-2 346h861q117 0 180 -48t63 -132q0 -41 -14 -93t-41 -100l-600 -1085h-459z" />
<glyph unicode="8" horiz-adv-x="1310" d="M74 393q0 94 43 186.5t153 178.5q-86 59 -117.5 136t-31.5 155q0 88 34.5 165.5t103.5 136t172.5 92.5t238.5 34q129 0 226 -31t160.5 -84t95.5 -126t32 -157q0 -92 -39 -170t-111 -137q111 -61 157 -149t46 -193q0 -98 -38 -181t-113.5 -144.5t-187.5 -96.5t-261 -35 q-141 0 -246.5 32t-176.5 88.5t-105.5 133t-34.5 166.5zM467 430q0 -55 47 -96t143 -41q92 0 138.5 40t46.5 103q0 59 -38 94t-99 52l-138 32q-39 -33 -69.5 -83t-30.5 -101zM502 1038q0 -39 30.5 -74.5t90.5 -52.5l106 -24q23 35 43.5 77t20.5 76q0 41 -36 81t-108 40 t-109.5 -40t-37.5 -83z" />
<glyph unicode="9" horiz-adv-x="1284" d="M61 932q0 125 42 226.5t119 172t184.5 108.5t236.5 38q289 0 432.5 -188.5t143.5 -528.5q0 -141 -29 -281.5t-105.5 -252t-210 -182.5t-342.5 -71q-45 0 -98 4.5t-110.5 14.5t-115.5 27.5t-112 46.5l121 311q94 -45 182 -58.5t142 -13.5q51 0 94 10.5t75.5 38t54 75.5 t32.5 122q-59 -29 -123 -47.5t-154 -18.5q-223 0 -341 122t-118 325zM471 971q0 -72 41 -124t121 -52q47 0 93 17.5t77 31.5q0 68 -8.5 123t-27.5 95t-51 62.5t-81 22.5q-74 0 -119 -51.5t-45 -124.5z" />
<glyph unicode=":" horiz-adv-x="522" d="M61 174q0 88 48.5 147.5t150.5 59.5q104 0 152.5 -59.5t48.5 -147.5q0 -90 -48.5 -149.5t-152.5 -59.5q-92 0 -145.5 56.5t-53.5 152.5zM61 836q0 88 48.5 147t150.5 59q104 0 152.5 -59t48.5 -147q0 -90 -48.5 -149.5t-152.5 -59.5q-92 0 -145.5 56t-53.5 153z" />
<glyph unicode=";" horiz-adv-x="546" d="M10 -297l113 596l344 -74l-172 -583zM86 836q0 88 48 147t151 59q104 0 152 -59t48 -147q0 -90 -48 -149.5t-152 -59.5q-92 0 -145.5 56t-53.5 153z" />
<glyph unicode="&#x3c;" d="M123 659q0 86 57.5 155t161.5 112l762 319l121 -321l-590 -248q-18 -8 -19 -17q0 -8 6.5 -11t12.5 -7l590 -260l-121 -326l-762 330q-111 47 -165 112.5t-54 161.5z" />
<glyph unicode="=" d="M229 313v330h914v-330h-914zM229 750v329h914v-329h-914z" />
<glyph unicode="&#x3e;" d="M147 381l590 260q6 4 12.5 7t6.5 11t-19 17l-590 248l121 321l762 -319q104 -43 161.5 -112t57.5 -155q0 -96 -54 -161.5t-165 -112.5l-762 -330z" />
<glyph unicode="?" horiz-adv-x="1214" d="M49 1307q57 39 123 73.5t137.5 61t152.5 42t173 15.5q123 0 221 -28.5t167 -81t105.5 -124t36.5 -157.5t-34.5 -150.5t-87 -114.5t-114 -93t-116.5 -86q-25 -20 -40 -35t-23.5 -28t-11.5 -28.5t-3 -35.5v-58h-385v92q0 51 1 89t11.5 70t36 60.5t72.5 63.5q39 27 86 55.5 t88 58t68.5 60.5t27.5 64q0 41 -38.5 59t-106.5 18q-176 0 -387 -141zM338 174q0 92 51 149.5t154 57.5q100 0 150 -57.5t50 -149.5t-50 -149.5t-148 -57.5q-94 0 -150.5 55.5t-56.5 151.5z" />
<glyph unicode="@" horiz-adv-x="1998" d="M74 481q0 205 73.5 374t200.5 290t299 187.5t367 66.5q211 0 380 -57.5t287.5 -160t181 -246.5t62.5 -317q0 -160 -55 -271t-141.5 -183t-190.5 -108t-201 -44q-53 -4 -104 -8t-98 -4h-215q-72 0 -135.5 21.5t-110.5 59.5t-75 90t-28 116q0 80 28 135t78 90t118.5 51.5 t150.5 16.5h160v30q0 35 -39 59.5t-94 24.5q-37 0 -99.5 -11t-156.5 -40l-84 225q82 29 179 54.5t200 25.5q113 0 187.5 -26.5t117.5 -75.5t60.5 -119t17.5 -154v-288q86 16 150.5 95t64.5 226q0 236 -148.5 366t-435.5 130q-150 0 -269.5 -45t-203.5 -125t-129 -191.5 t-45 -244.5q0 -139 42 -260t128 -211.5t218 -141.5t312 -51q68 0 136.5 5t130 14.5t112.5 20.5t84 24l82 -246q-29 -12 -81 -28.5t-122.5 -31t-155.5 -24.5t-178 -10q-242 0 -430 62.5t-318 182t-197.5 290.5t-67.5 390zM868 303q0 -23 19.5 -44t60.5 -21h158v133h-143 q-47 0 -71 -22.5t-24 -45.5z" />
<glyph unicode="A" horiz-adv-x="1546" d="M23 41l331 1141q23 80 56.5 140t85 100t123 60.5t169.5 20.5q94 0 162 -19.5t114 -57t75.5 -93t52.5 -125.5l332 -1167l-398 -88l-112 416h-477l-119 -416zM625 705h293l-117 450q-4 20 -23 21q-18 0 -22 -21z" />
<glyph unicode="B" horiz-adv-x="1388" d="M131 0v1477h625q111 0 204 -21.5t159.5 -67t103.5 -116t37 -166.5q0 -117 -47.5 -190.5t-106.5 -124.5q104 -45 162.5 -132.5t58.5 -199.5q0 -113 -40 -198t-111.5 -143.5t-171 -88t-218.5 -29.5h-655zM532 336h220q29 0 56.5 8t50 24.5t36.5 42t14 60.5q0 57 -42 93 t-152 36h-183v-264zM532 907h177q59 0 103 29t44 94q0 70 -43 92.5t-151 22.5h-130v-238z" />
<glyph unicode="C" horiz-adv-x="1421" d="M66 737q0 166 51 306.5t150.5 243t245.5 159.5t337 57q147 0 274 -39t224 -88l-127 -327q-70 31 -125.5 50t-101.5 30.5t-84 15.5t-70 4q-164 0 -257.5 -106.5t-93.5 -305.5q0 -213 94.5 -313t258.5 -100q49 0 92 5t89 17t102.5 33.5t131.5 54.5l127 -325 q-72 -35 -135 -62t-130.5 -45t-142.5 -27.5t-165 -9.5q-201 0 -342 59.5t-230 163t-131 244.5t-42 305z" />
<glyph unicode="D" horiz-adv-x="1587" d="M131 0v1477h647q174 0 312.5 -53.5t233.5 -149.5t146.5 -231.5t51.5 -299.5q0 -162 -45 -298t-137.5 -235t-232.5 -154.5t-329 -55.5h-647zM539 346h229q162 0 245 90t83 297q0 209 -84 303t-244 94h-229v-784z" />
<glyph unicode="E" horiz-adv-x="1318" d="M131 0v1477h1102v-342h-696v-197h534v-342h-534v-254h712v-342h-1118z" />
<glyph unicode="F" horiz-adv-x="1302" d="M131 0v1477h1102v-342h-694v-211h532v-342h-532v-582h-408z" />
<glyph unicode="G" horiz-adv-x="1568" d="M66 737q0 166 57 306.5t163.5 243t260 159.5t348.5 57q150 0 275.5 -29.5t242.5 -74.5l-125 -334q-82 31 -143.5 48t-109.5 25.5t-85 9.5t-71 1q-84 0 -155 -27.5t-123 -80t-82 -129t-30 -175.5q0 -213 89.5 -312t244.5 -99q63 0 126 7t104 23v183h-219v335h616v-753 q-123 -63 -288 -109.5t-339 -46.5q-213 0 -357 59.5t-233.5 163t-128 244.5t-38.5 305z" />
<glyph unicode="H" horiz-adv-x="1550" d="M131 0v1477h412v-559h465v559h411v-1477h-411v557h-465v-557h-412z" />
<glyph unicode="I" horiz-adv-x="675" d="M131 0v1477h414v-1477h-414z" />
<glyph unicode="J" horiz-adv-x="1183" d="M16 86l158 336q63 -41 145 -68.5t160 -27.5q27 0 56.5 6t54 23.5t40 49t15.5 82.5v990h412v-996q0 -256 -143.5 -386t-411.5 -130q-72 0 -142.5 10.5t-135 27.5t-119 38.5t-89.5 44.5z" />
<glyph unicode="K" horiz-adv-x="1499" d="M131 0v1477h414v-572h24q23 0 50.5 12.5t44.5 34.5l450 561l309 -239l-446 -531l502 -532l-297 -264l-535 573q-16 12 -34.5 25.5t-49.5 13.5h-18v-559h-414z" />
<glyph unicode="L" horiz-adv-x="1265" d="M131 0v1477h412v-1131h706v-346h-1118z" />
<glyph unicode="M" horiz-adv-x="1724" d="M131 0v1477h354l351 -641q14 -27 30 -27t29 22l346 646h352v-1477h-397v756l-53 -107q-31 -59 -57.5 -104t-58.5 -76t-70.5 -46t-90.5 -15q-53 0 -93 16t-73.5 47t-62.5 77t-57 107l-52 107v-762h-397z" />
<glyph unicode="N" horiz-adv-x="1554" d="M131 0v1477h371l542 -916v916h379v-1221q0 -125 -57 -200.5t-184 -75.5q-78 0 -148.5 41.5t-140.5 152.5l-365 580v-754h-397z" />
<glyph unicode="O" horiz-adv-x="1601" d="M66 735q0 143 39.5 281.5t128 247t227.5 174t338 65.5q211 0 352 -65.5t227 -174t122 -246.5t36 -282q0 -145 -40 -283.5t-128 -247t-228 -174t-341 -65.5q-354 0 -543.5 197.5t-189.5 572.5zM489 739q0 -72 14.5 -145.5t49.5 -133t94.5 -97t149.5 -37.5q82 0 141 32.5 t98 90t57.5 132t18.5 158.5t-16.5 158t-53 129t-97 87t-146.5 32t-144.5 -32t-95.5 -87t-53.5 -129t-16.5 -158z" />
<glyph unicode="P" horiz-adv-x="1359" d="M131 0v1477h612q111 0 209.5 -29t173 -89.5t117.5 -154.5t43 -225q0 -123 -42 -216t-116.5 -156.5t-176 -95.5t-220.5 -32h-194v-479h-406zM537 819h170q33 0 62.5 7.5t53 24.5t37.5 48t14 78q0 49 -14 81t-36.5 49t-54.5 24.5t-64 7.5h-168v-320z" />
<glyph unicode="Q" horiz-adv-x="1609" d="M66 743q0 145 42 282.5t131 243t227 170t333 64.5q211 0 352 -64.5t227 -170t122 -242.5t36 -283q0 -152 -45 -301t-148 -262l230 -280l-303 -240l-262 328q-47 -14 -100.5 -18.5t-108.5 -4.5q-211 0 -352.5 67.5t-225.5 177t-119.5 249t-35.5 284.5zM489 739 q0 -72 14.5 -145.5t49.5 -133t94.5 -97t149.5 -37.5q82 0 141 32.5t98 90t57.5 132t18.5 158.5t-16.5 158t-53 129t-97 87t-146.5 32t-144.5 -32t-95.5 -87t-53.5 -129t-16.5 -158z" />
<glyph unicode="R" horiz-adv-x="1409" d="M131 0v1477h617q113 0 208 -27t163.5 -79t106.5 -131t38 -183q0 -94 -27 -166t-69 -125t-94 -87t-103 -50q47 -14 81.5 -47t63.5 -68l281 -356l-322 -215l-356 438q-47 59 -81 88t-79 29h-22v-498h-406zM537 844h135q98 0 141 39t43 106q0 92 -49 125t-133 33h-137v-303z " />
<glyph unicode="S" horiz-adv-x="1349" d="M25 84l114 348q154 -55 270.5 -82.5t215.5 -27.5q123 0 174 28.5t51 77.5q0 59 -57.5 88t-184.5 57q-102 23 -193 53.5t-161 80t-111 125t-41 188.5q0 96 34 184t107.5 154.5t193.5 105.5t292 39q147 0 292.5 -32.5t248.5 -77.5l-94 -330q-266 90 -467 90 q-100 0 -142.5 -25.5t-42.5 -78.5q0 -45 45 -76t170 -60q98 -23 194.5 -48t173.5 -72.5t125 -124t48 -201.5q0 -113 -44 -205t-128 -158.5t-206 -102.5t-277 -36q-92 0 -181.5 12.5t-167 31t-142 39t-109.5 36.5z" />
<glyph unicode="T" horiz-adv-x="1257" d="M16 1126v351h1225v-351h-405v-1126h-412v1126h-408z" />
<glyph unicode="U" horiz-adv-x="1531" d="M127 608v869h410v-828q0 -82 9 -144.5t33.5 -105.5t69.5 -65.5t119 -22.5q70 0 114 22.5t69.5 65.5t34.5 103.5t9 136.5v838h410v-842q0 -147 -27.5 -271t-99.5 -212.5t-196 -137.5t-314 -49q-197 0 -321.5 43t-195.5 126t-97.5 203t-26.5 271z" />
<glyph unicode="V" horiz-adv-x="1536" d="M12 1432l398 84l331 -1170q6 -25 11.5 -31t13.5 -6t13 6.5t14 30.5l333 1170l398 -86l-338 -1174q-18 -59 -53 -112.5t-87.5 -92.5t-123 -61.5t-156.5 -22.5q-186 0 -282.5 76t-133.5 211z" />
<glyph unicode="W" horiz-adv-x="2011" d="M66 1448l399 57l127 -1042q2 -25 6 -49.5t15.5 -43t34 -30.5t63.5 -12q8 0 35.5 1t56.5 7v1141h405v-1141q27 -4 61 -5t40 -1q66 0 84 35.5t26 95.5l125 1044l402 -57l-129 -1045q-12 -98 -45 -178t-91.5 -137t-144.5 -89t-205 -32q-92 0 -182 19.5t-150 62.5 q-141 -82 -313 -82q-129 0 -218 32t-146.5 88t-87 137t-41.5 179z" />
<glyph unicode="X" horiz-adv-x="1583" d="M14 160l441 575l-416 565l328 232l372 -518q16 -23 39 -23t39 23l379 520l328 -231l-410 -547l455 -596l-328 -232l-412 549q-16 23 -38 23q-23 0 -39 -23l-410 -549z" />
<glyph unicode="Y" horiz-adv-x="1439" d="M12 1366l369 152l307 -668q10 -20 29 -21q18 0 28 21l306 672l376 -146l-286 -633q-43 -94 -92.5 -151t-128.5 -92v-500h-408v498q-78 29 -127 87t-92 156z" />
<glyph unicode="Z" horiz-adv-x="1378" d="M53 236q0 41 18.5 91t78.5 119l583 689h-602v342h1165v-250l-696 -824q-16 -18 -16 -32q0 -25 30 -25h691v-346h-949q-143 0 -223 61.5t-80 174.5z" />
<glyph unicode="[" horiz-adv-x="839" d="M127 -297v1774h672v-326h-297v-1122h297v-326h-672z" />
<glyph unicode="\" horiz-adv-x="1128" d="M16 1559h400l696 -1719h-401z" />
<glyph unicode="]" horiz-adv-x="841" d="M41 29h295v1122h-295v326h674v-1774h-674v326z" />
<glyph unicode="^" horiz-adv-x="1228" d="M41 756l246 506q57 117 134 177t193 60q117 0 195 -59.5t133 -177.5l246 -506l-320 -135l-192 403q-12 25 -26.5 41t-35.5 16q-20 0 -34.5 -16t-26.5 -41l-193 -403z" />
<glyph unicode="_" horiz-adv-x="1230" d="M102 0h1026v-319h-1026v319z" />
<glyph unicode="`" horiz-adv-x="1024" d="M199 1536l311 211l270 -434l-227 -162z" />
<glyph unicode="a" horiz-adv-x="1187" d="M49 315q0 100 42 166t107.5 106t145.5 56t156 16h178v27q0 45 -40 75t-118 30q-45 0 -109.5 -13.5t-179.5 -52.5l-102 276q98 39 211 64t235 25q141 0 234.5 -31t149 -87.5t77 -137t21.5 -179.5v-364l110 -146l-270 -217l-100 129q-53 -31 -142.5 -61.5t-187.5 -30.5 q-76 0 -150.5 18.5t-134 59.5t-96.5 108.5t-37 163.5zM424 326q0 -29 22.5 -58.5t71.5 -29.5q41 0 87 6t85 22v146h-170q-55 0 -75.5 -29t-20.5 -57z" />
<glyph unicode="b" horiz-adv-x="1218" d="M102 33v1444h398v-404q31 8 76 12.5t88 4.5q106 0 196 -35t155.5 -103.5t101.5 -171t36 -239.5q0 -127 -38 -233.5t-111.5 -182.5t-180 -118t-241.5 -42q-41 0 -97.5 3t-120 10.5t-131 20.5t-131.5 34zM496 287q16 -10 38.5 -13.5t45.5 -3.5q76 0 125 61.5t49 200.5 q0 129 -43 187.5t-113 58.5q-23 0 -51.5 -4t-50.5 -14v-473z" />
<glyph unicode="c" horiz-adv-x="1153" d="M61 524q0 119 44.5 223.5t125 180.5t193.5 120t250 44q121 0 220 -25t189 -74l-127 -301q-53 20 -93 33.5t-71.5 21t-58 9.5t-53.5 2q-100 0 -158.5 -65.5t-58.5 -164.5q0 -106 57.5 -168.5t161.5 -62.5q25 0 50.5 3t60 11t81 23.5t109.5 42.5l117 -307 q-102 -49 -210 -77t-216 -28q-158 0 -272.5 42t-190.5 118t-113 177t-37 222z" />
<glyph unicode="d" horiz-adv-x="1265" d="M61 514q0 127 38 232.5t110 182.5t177.5 119t240.5 42q16 0 45.5 -1.5t48.5 -5.5v394h395v-1184l115 -152l-275 -211l-94 119q-57 -39 -134 -61.5t-150 -22.5q-135 0 -232.5 42t-160 116t-93.5 174t-31 217zM461 514q0 -125 42 -181.5t138 -56.5q49 0 80 21v471 q-29 10 -70 10q-88 0 -139 -63.5t-51 -200.5z" />
<glyph unicode="e" horiz-adv-x="1202" d="M61 526q0 129 39 232.5t112 177.5t177.5 114t237.5 40q125 0 218 -38t155.5 -106.5t95 -165t39.5 -213.5l-119 -123h-547q0 -80 66.5 -119.5t183.5 -39.5q57 0 147 12t189 45l90 -266q-47 -23 -104.5 -43.5t-119 -35.5t-126 -23.5t-121.5 -8.5q-168 0 -285 43t-189.5 119 t-105.5 178.5t-33 220.5zM471 662h274q0 59 -25.5 107t-90.5 48q-74 0 -114 -50t-44 -105z" />
<glyph unicode="f" horiz-adv-x="870" d="M25 725v328h131v86q0 80 28.5 147.5t86 117.5t144.5 78.5t201 28.5q57 0 123 -11t162 -34l-61 -292q-57 14 -93 21t-71 7q-18 0 -39 -2t-39 -11t-29.5 -26.5t-11.5 -46.5v-63h274v-328h-274v-725h-401v725h-131z" />
<glyph unicode="g" horiz-adv-x="1222" d="M61 528q0 131 42 235.5t116 177.5t172 111t209 38q57 0 113.5 -9.5t101.5 -25.5l68 78l329 -189l-92 -164v-823q0 -123 -46 -205t-124 -131t-178 -68.5t-211 -19.5q-121 0 -228.5 18.5t-205.5 53.5l84 317q100 -25 207.5 -45t204.5 -20q16 0 34.5 3t34 12t24.5 24.5 t9 37.5v60q-27 -4 -61.5 -8t-63.5 -4q-147 0 -249.5 40.5t-167 112.5t-93.5 172.5t-29 220.5zM457 528q0 -127 47 -190.5t133 -63.5q14 0 38.5 2.5t49.5 10.5v477q-23 10 -47.5 13t-44.5 3q-33 0 -64.5 -16t-56.5 -48t-40 -79t-15 -109z" />
<glyph unicode="h" horiz-adv-x="1232" d="M102 0v1477h404v-416q39 10 88 19.5t117 9.5q119 0 201.5 -32t134 -87.5t74 -129t22.5 -157.5v-684h-398v666q0 108 -102 108h-2q-35 0 -73 -7t-68 -24v-743h-398z" />
<glyph unicode="i" horiz-adv-x="679" d="M20 729v324h562v-1053h-404v729h-158zM127 1317q0 86 63.5 144.5t167.5 58.5q106 0 165 -58.5t59 -144.5t-59.5 -142.5t-164.5 -56.5q-109 0 -170 50.5t-61 148.5z" />
<glyph unicode="j" horiz-adv-x="638" d="M-279 -383l86 287q47 -18 105.5 -34.5t105.5 -16.5q12 0 33 1t40.5 9t33.5 24.5t14 44.5v1121h402v-1135q0 -80 -28 -149.5t-84 -119.5t-143 -80t-206 -30q-59 0 -153.5 17.5t-205.5 60.5zM115 1317q0 86 63.5 144.5t167.5 58.5q106 0 164.5 -58.5t58.5 -144.5 t-59 -142.5t-164 -56.5q-109 0 -170 50.5t-61 148.5z" />
<glyph unicode="k" horiz-adv-x="1280" d="M102 0v1477h402v-777h24q23 0 38.5 9.5t27.5 23.5l326 395l294 -245l-290 -328l346 -365l-291 -251l-361 395q-27 27 -44 41t-39 14h-31v-389h-402z" />
<glyph unicode="l" horiz-adv-x="608" d="M-14 1155v322h520v-1477h-404v1155h-116z" />
<glyph unicode="m" horiz-adv-x="1810" d="M35 950l325 178l62 -112q20 10 52 23.5t68 24.5t72.5 18.5t69.5 7.5q100 0 175 -24t126 -65q27 12 63.5 27.5t78.5 29t84 23t77 9.5q119 0 202 -32t134 -87.5t73.5 -129t22.5 -157.5v-684h-397v662q0 106 -88 106q-29 0 -60.5 -7t-58.5 -24v-737h-397v666q0 106 -88 106 q-29 0 -60.5 -7t-58.5 -24v-741h-397v766z" />
<glyph unicode="n" horiz-adv-x="1245" d="M35 950l330 178l61 -112q45 23 120 48.5t177 25.5q119 0 202 -32t134 -87.5t73.5 -129t22.5 -157.5v-684h-397v666q0 108 -103 108h-2q-35 0 -72.5 -7t-68.5 -24v-743h-397v766z" />
<glyph unicode="o" horiz-adv-x="1261" d="M61 530q0 117 39 219.5t112 177t178.5 119t240.5 44.5q143 0 250.5 -44.5t178 -119t105.5 -177t35 -219.5t-40 -220t-113.5 -180t-179 -121t-234.5 -44q-121 0 -225.5 40t-181 114t-121 178t-44.5 233zM471 530q0 -237 162 -237q158 0 158 237q0 119 -37 176.5t-121 57.5 q-162 0 -162 -234z" />
<glyph unicode="p" horiz-adv-x="1239" d="M35 963l325 163l66 -102q45 23 114.5 44.5t164.5 21.5q219 0 346 -141.5t127 -416.5q0 -119 -30 -221t-94.5 -178t-166 -119t-246.5 -43q-25 0 -57.5 4.5t-61.5 14.5v-443h-395v1215zM522 303q39 -22 90 -22h4q72 0 117 63.5t45 198.5q0 111 -31.5 174t-99.5 63 q-31 0 -59.5 -5t-65.5 -21v-451z" />
<glyph unicode="q" horiz-adv-x="1214" d="M61 524q0 133 47.5 237.5t128 177.5t186 112t222.5 39q104 0 215 -13.5t252 -58.5v-1471h-399v435q-27 -8 -62 -12.5t-51 -4.5q-137 0 -238.5 41t-168 115t-99.5 177t-33 226zM463 535q0 -121 43 -186.5t119 -65.5q16 0 42.5 2t45.5 8v477q-35 6 -60 6q-96 0 -143 -70.5 t-47 -170.5z" />
<glyph unicode="r" horiz-adv-x="946" d="M20 725v328h375l54 -99q78 74 149.5 101.5t124.5 27.5q35 0 90 -6t113 -27l-56 -311q-35 14 -60.5 18.5t-53.5 4.5q-59 0 -101.5 -17.5t-72.5 -48.5v-696h-404v725h-158z" />
<glyph unicode="s" horiz-adv-x="1052" d="M29 37l92 319q18 -8 58 -20t92.5 -23.5t111.5 -19.5t115 -8q16 0 34.5 1t34 4t24.5 10t9 22q0 14 -6 23t-27.5 17.5t-63.5 18.5t-114 29q-49 12 -103.5 32.5t-101.5 55t-77.5 87t-30.5 126.5q0 76 27.5 144.5t85 120.5t145.5 83t211 31q147 0 263 -27t187 -57l-106 -291 q-94 33 -178 49t-144 16q-43 0 -75.5 -6t-32.5 -41q0 -23 24.5 -39t106.5 -35q68 -16 137.5 -33.5t125.5 -50t92 -89t36 -148.5q0 -82 -35 -150.5t-101.5 -118t-165.5 -77t-228 -27.5q-66 0 -128.5 7.5t-117.5 17.5t-101.5 23.5t-74.5 23.5z" />
<glyph unicode="t" horiz-adv-x="952" d="M20 725v328h132v278h401v-278h274v-328h-274v-358q0 -25 10 -40.5t26.5 -22.5t34 -10t33.5 -3q25 0 72 6t127 27l72 -295q-25 -10 -68 -22.5t-94 -24t-103.5 -18.5t-93.5 -7q-92 0 -168.5 19.5t-132 63.5t-86 115.5t-30.5 174.5v395h-132z" />
<glyph unicode="u" horiz-adv-x="1245" d="M90 379v674h397v-662q0 -108 105 -108h2q35 0 71.5 7t67.5 23v740h397v-791l91 -119l-283 -225l-117 119q-45 -23 -120.5 -48.5t-178.5 -25.5q-125 0 -208 37t-133 97.5t-70.5 134t-20.5 147.5z" />
<glyph unicode="v" horiz-adv-x="1288" d="M25 997l387 101l204 -725q8 -33 29 -33q18 0 27 33l205 725l387 -101l-250 -784q-35 -121 -126 -184.5t-249 -63.5q-156 0 -248 64.5t-125 181.5z" />
<glyph unicode="w" horiz-adv-x="1720" d="M53 1038l402 41l71 -692q4 -43 17.5 -68.5t54.5 -25.5q12 0 29.5 1t34.5 5v754h393v-754q16 -4 33.5 -5t29.5 -1q41 0 54.5 25.5t17.5 68.5l78 692l399 -45l-90 -751q-10 -63 -37 -121t-76 -102t-123.5 -69.5t-179.5 -25.5q-35 0 -77 5t-82.5 15.5t-78.5 27t-65 38.5 q-27 -18 -62.5 -33.5t-75.5 -28t-81 -18.5t-76 -6q-205 0 -304 86t-120 234z" />
<glyph unicode="x" horiz-adv-x="1255" d="M12 895l303 227l285 -350q10 -10 13 -15t12 -5q8 0 12 5t14 15l287 356l289 -223l-307 -370l323 -383l-305 -228l-289 357q-10 10 -14 15t-12 5t-11.5 -5t-13.5 -15l-291 -357l-293 223l318 371z" />
<glyph unicode="y" horiz-adv-x="1269" d="M25 1006l389 84l143 -715q6 -35 16.5 -55.5t22.5 -29.5t23.5 -11.5t21.5 -2.5h18l201 814l385 -91l-289 -1149q-20 -82 -56 -142t-94 -100t-142 -59.5t-199 -19.5q-94 0 -183 17.5t-157 39.5l61 326q25 -8 59 -18.5t71.5 -18.5t74.5 -14t68 -6t66.5 8t49.5 59l15 51 q-88 2 -154.5 16.5t-116 48.5t-81 89t-50.5 139z" />
<glyph unicode="z" horiz-adv-x="1105" d="M49 182q0 68 36 125.5t83 104.5l311 315h-409v326h950v-258l-414 -420q-14 -14 -14 -29q0 -18 37 -18h420v-328h-756q-125 0 -184.5 41t-59.5 141z" />
<glyph unicode="{" horiz-adv-x="919" d="M45 438v322h152v422q0 147 66.5 221t238.5 74h377v-324h-244q-41 0 -51.5 -19.5t-10.5 -58.5v-971q0 -39 9.5 -58t52.5 -19h244v-324h-377q-172 0 -238.5 73.5t-66.5 223.5v438h-152z" />
<glyph unicode="|" horiz-adv-x="651" d="M135 -463v2083h381v-2083h-381z" />
<glyph unicode="}" horiz-adv-x="919" d="M41 27h244q43 0 52 19.5t9 57.5v971q0 39 -10 58.5t-51 19.5h-244v324h375q88 0 147.5 -18.5t95 -55.5t50 -92.5t14.5 -128.5v-422h151v-322h-151v-438q0 -76 -14.5 -131t-50 -92t-95 -55.5t-147.5 -18.5h-375v324z" />
<glyph unicode="~" horiz-adv-x="1320" d="M84 676q31 39 73 81t91 75.5t104.5 56t114.5 22.5q41 0 87 -11t91 -24.5t88 -24.5t78 -11q31 0 63.5 12t63.5 30.5t60.5 42t54.5 46.5l200 -223q-47 -47 -93 -92.5t-96 -82t-107.5 -59t-127.5 -22.5q-53 0 -102 12t-93 25.5t-83 25.5t-72 12q-47 0 -93 -34.5t-93 -79.5z " />
<glyph unicode="&#xa1;" horiz-adv-x="581" d="M82 -428l37 997h338l43 -997h-418zM90 877q0 88 48 147t151 59q104 0 152 -59t48 -147q0 -90 -48 -149.5t-152 -59.5q-92 0 -145.5 56t-53.5 153z" />
<glyph unicode="&#xa2;" horiz-adv-x="1210" d="M123 664q0 199 101.5 332.5t289.5 181.5v258h332v-246q78 -10 150.5 -31.5t131.5 -56.5l-127 -291q-98 39 -159.5 52.5t-104.5 13.5q-109 0 -161 -60.5t-52 -159.5q0 -102 54.5 -161.5t158.5 -59.5q53 0 121 17.5t170 62.5l117 -297q-154 -76 -299 -96v-248h-332v262 q-98 25 -172 75t-122 118.5t-72.5 153.5t-24.5 180z" />
<glyph unicode="&#xa3;" horiz-adv-x="1327" d="M80 545v327h229l60 220q25 90 64.5 161.5t99 120.5t139.5 76t186 27q61 0 114.5 -8.5t105.5 -25t105.5 -39t112.5 -50.5l-139 -295q-74 39 -138.5 62.5t-123.5 23.5q-41 0 -65.5 -11.5t-40 -27.5t-21.5 -33.5t-10 -32.5l-47 -168h327v-327h-415l-41 -148q-6 -25 -7 -39 q0 -14 10.5 -22t39.5 -8h534v-328h-766q-74 0 -124 16.5t-78.5 44t-41 66.5t-12.5 84q0 35 7.5 71.5t17.5 69.5l63 193h-145z" />
<glyph unicode="&#xa4;" horiz-adv-x="1447" d="M29 250q53 59 124.5 127.5t133.5 132.5q-47 98 -47 215q0 109 41 203q-59 61 -129 131.5t-123 130.5l250 227l245 -252q45 18 94.5 28.5t104.5 10.5q104 0 199 -39l247 252l250 -227q-55 -59 -124.5 -131t-129.5 -133q41 -94 41 -201q0 -115 -47 -213q61 -63 133 -133 t127 -129l-250 -227l-260 256q-88 -33 -186 -33q-51 0 -97 8t-89 25l-258 -256zM578 723q0 -66 38.5 -108t106.5 -42t107.5 42t39.5 108q0 68 -39.5 111t-107.5 43t-106.5 -43t-38.5 -111z" />
<glyph unicode="&#xa5;" horiz-adv-x="1449" d="M49 1352l369 151l276 -672q8 -20 29 -20q14 0 19.5 5t9.5 15l272 674l377 -145l-195 -428q-16 -35 -33.5 -63.5t-37.5 -57.5h94v-270h-303v-107h303v-270h-303v-164h-408v164h-303v270h303v107h-303v270h102q-18 29 -35.5 58.5t-33.5 64.5z" />
<glyph unicode="&#xa6;" horiz-adv-x="653" d="M135 401h383v-864h-383v864zM135 877v743h383v-743h-383z" />
<glyph unicode="&#xa7;" horiz-adv-x="1208" d="M63 555q0 55 13.5 98t36 77t49 59.5t55.5 44.5l4 -3q-59 61 -74.5 127t-15.5 113q0 96 40 172t108.5 128t163 79t202.5 27q127 0 239.5 -32t186.5 -69l-115 -291q-78 31 -149.5 48.5t-142.5 17.5q-51 0 -94.5 -15.5t-43.5 -62.5t45 -67.5t112 -34t145.5 -26.5t145 -45 t111.5 -92t45 -165q0 -88 -33.5 -150.5t-101.5 -127.5q35 -41 56.5 -95.5t21.5 -132.5q0 -104 -42 -182t-112.5 -129t-165 -76.5t-200.5 -25.5q-63 0 -128 8t-123 23.5t-110.5 36t-91.5 42.5l121 299q86 -41 174 -62.5t150 -21.5q47 0 89 18.5t42 67.5q0 45 -45 65.5 t-113.5 33t-147.5 25.5t-147.5 45t-114 90.5t-45.5 160.5zM453 618q0 -37 24.5 -56t59.5 -25q47 -10 73.5 -15.5t41 -8.5t21.5 -4t13 -1l21 14q35 29 34 64q0 39 -25.5 57.5t-66.5 24.5q-16 2 -37.5 6l-43 8t-41 8t-27.5 6l-15 -14q-8 -6 -20 -23.5t-12 -40.5z" />
<glyph unicode="&#xa8;" horiz-adv-x="1017" d="M78 1389q0 86 53 143t145 57t142.5 -57t50.5 -143q0 -82 -50.5 -139.5t-142.5 -57.5q-98 0 -148 57.5t-50 139.5zM549 1389q0 86 53 143t146 57q92 0 142 -57t50 -143q0 -82 -50 -139.5t-142 -57.5q-98 0 -148.5 57.5t-50.5 139.5z" />
<glyph unicode="&#xa9;" horiz-adv-x="1689" d="M104 737q0 156 54.5 291t153 234.5t234.5 156t300 56.5q162 0 298 -56.5t234.5 -156t152.5 -234.5t54 -291q0 -158 -54 -292t-152.5 -233t-234.5 -155.5t-298 -56.5q-164 0 -300 56.5t-234.5 155.5t-153 233.5t-54.5 291.5zM315 735q0 -115 37 -213t106.5 -169.5 t168 -111.5t219.5 -40t219 41t166.5 111.5t106.5 167.5t38 212q0 113 -36.5 211t-106.5 171t-168 115t-221 42q-121 0 -218.5 -41t-166 -112.5t-106.5 -170t-38 -213.5zM457 725q0 193 104.5 305.5t292.5 112.5q98 0 177 -26.5t134 -57.5l-90 -250q-53 23 -97 35t-81 12 q-57 0 -87 -32.5t-30 -88.5q0 -63 35 -91t94 -28q29 0 65 9.5t103 40.5l86 -250q-84 -39 -155.5 -58.5t-157.5 -19.5q-106 0 -181 29.5t-122 81t-68.5 122t-21.5 154.5z" />
<glyph unicode="&#xaa;" horiz-adv-x="1013" d="M113 807q0 70 26.5 116t70.5 72.5t100.5 37.5t117.5 11h119v25q0 63 -90 64q-41 0 -96.5 -9.5t-135.5 -33.5l-61 190q76 27 160 45t176 18q94 0 155.5 -21.5t98.5 -61t51 -94t14 -117.5v-254l82 -113l-196 -135l-70 84q-37 -23 -94.5 -46.5t-143.5 -23.5 q-61 0 -112.5 14.5t-90 45t-60 76.5t-21.5 110zM395 823q0 -25 16.5 -44t59.5 -19q16 0 37.5 5t40.5 15v105h-84q-41 0 -55.5 -19.5t-14.5 -42.5z" />
<glyph unicode="&#xab;" horiz-adv-x="1521" d="M66 555q0 74 37.5 130t119.5 114l355 250l184 -258l-291 -207q-10 -8 -18.5 -14.5t-8.5 -16.5t9.5 -16.5t19.5 -14.5l281 -203l-185 -258l-350 261q-39 29 -67.5 53t-48 51t-28.5 57.5t-9 71.5zM750 555q0 74 37.5 130t119.5 114l355 250l184 -258l-291 -207 q-10 -8 -18.5 -14.5t-8.5 -16.5t9.5 -16.5t19.5 -14.5l281 -203l-185 -258l-350 261q-39 29 -67.5 53t-48 51t-28.5 57.5t-9 71.5z" />
<glyph unicode="&#xac;" d="M221 522v328h953v-559h-312v231h-641z" />
<glyph unicode="&#xad;" horiz-adv-x="985" d="M139 455v329h707v-329h-707z" />
<glyph unicode="&#xae;" horiz-adv-x="1269" d="M98 948q0 111 39 206t110.5 166t170 112t219.5 41q123 0 221 -41t168 -112t107.5 -166t37.5 -206t-36.5 -207t-106.5 -166.5t-170 -110.5t-225 -40q-129 0 -228.5 40t-167 110.5t-103.5 167t-36 206.5zM250 946q0 -80 23.5 -150.5t71.5 -122.5t120 -82t170 -30t170 30 t120 82t71.5 122.5t23.5 150.5t-24.5 151.5t-74 124t-121 83t-165.5 30.5t-166 -30.5t-121 -83t-73.5 -124t-24.5 -151.5zM428 700v523h236q84 0 138 -39t54 -121q0 -53 -32.5 -85t-63.5 -42q10 -6 20.5 -15.5t18.5 -19.5l102 -123l-133 -98l-137 164q-16 18 -33 18v-162 h-170zM598 1004h41q23 0 31 12t8 26q0 25 -14.5 32t-26.5 7h-39v-77z" />
<glyph unicode="&#xaf;" horiz-adv-x="1024" d="M190 1169v320h641v-320h-641z" />
<glyph unicode="&#xb0;" horiz-adv-x="741" d="M86 1214q0 57 19.5 108.5t56.5 88.5t89 58.5t120 21.5t120 -21.5t88.5 -58.5t56 -88.5t19.5 -108.5q0 -59 -19.5 -109t-56 -87t-89 -58.5t-119.5 -21.5q-68 0 -120 21.5t-89 58.5t-56.5 87t-19.5 109zM268 1214q0 -45 28 -74.5t75 -29.5t74.5 29.5t27.5 74.5 q0 43 -27.5 74t-74.5 31t-75 -31t-28 -74z" />
<glyph unicode="&#xb1;" d="M229 0v311h301v236h-301v317h301v293h320v-293h295v-317h-295v-236h295v-311h-916z" />
<glyph unicode="&#xb2;" horiz-adv-x="827" d="M66 1368q80 41 171 75t201 34q137 0 215 -63.5t78 -190.5q0 -74 -36 -138.5t-122 -132.5l-139 -112q-4 -4 -10 -9.5t-6 -11.5q0 -12 20 -12h307v-223h-505q-82 0 -126 39t-44 106q0 51 23.5 85t60.5 67l256 233q23 20 36 41t13 43q0 29 -19.5 43t-54.5 14 q-45 0 -96 -21.5t-117 -55.5z" />
<glyph unicode="&#xb3;" horiz-adv-x="827" d="M66 641l73 209q86 -31 144.5 -44t101.5 -13q41 0 71.5 14t30.5 61q0 49 -42 59.5t-126 10.5h-63v147l123 119q4 4 10 10.5t6 12.5q0 4 -3 7t-17 3h-246v223h426q100 0 134 -32.5t34 -90.5q0 -47 -28.5 -85t-67.5 -74l-90 -82q115 -16 169 -81t54 -155q0 -61 -25.5 -114.5 t-74 -93.5t-118 -63.5t-155.5 -23.5q-39 0 -84 6.5t-89 16.5t-83 23.5t-65 29.5z" />
<glyph unicode="&#xb4;" horiz-adv-x="1024" d="M332 1315l272 438l303 -211l-344 -389z" />
<glyph unicode="&#xb5;" horiz-adv-x="1257" d="M106 -446v1499h386v-662q0 -109 112 -108q29 0 66 7t67 23v740h398v-791l90 -119l-283 -225l-117 119q-47 -31 -94 -50.5t-108 -19.5q-47 0 -89 10.5t-59 26.5v-450h-369z" />
<glyph unicode="&#xb6;" horiz-adv-x="1241" d="M35 956q0 150 50 249.5t129 159.5t175 86t186 26h637v-316h-131v-1052q0 -250 -129 -370t-391 -120q-131 0 -227 26.5t-168 59.5l96 332q57 -25 127 -42.5t139 -17.5q29 0 56.5 5.5t49 20.5t35 45t13.5 79v1034h-102v-682q-115 0 -214.5 24.5t-173 81t-115.5 147.5 t-42 224z" />
<glyph unicode="&#xb7;" horiz-adv-x="755" d="M178 704q0 88 48.5 147.5t152.5 59.5q102 0 150.5 -59.5t48.5 -147.5q0 -90 -48.5 -149.5t-148.5 -59.5q-96 0 -149.5 56.5t-53.5 152.5z" />
<glyph unicode="&#xb8;" horiz-adv-x="1024" d="M160 -473l92 197q12 -6 31.5 -14.5t43 -15.5t50 -13.5t53.5 -6.5q35 0 51.5 12.5t16.5 30.5q0 20 -17.5 33.5t-44 21t-59.5 9.5t-64 4l64 235h217l-23 -112q111 -16 161 -73.5t50 -137.5q0 -113 -85 -184.5t-226 -71.5q-78 0 -161 22.5t-150 63.5z" />
<glyph unicode="&#xb9;" horiz-adv-x="827" d="M55 1262l244 165q41 29 81 39.5t73 10.5q72 0 113.5 -35t41.5 -115v-520h164v-223h-614v223h178v313q0 14 -2 22.5t-12 8.5q-8 0 -14.5 -3t-12.5 -7l-94 -60z" />
<glyph unicode="&#xba;" horiz-adv-x="1032" d="M111 946q0 86 27.5 160t79.5 126t129 81.5t175 29.5q188 0 294 -105.5t106 -281.5q0 -80 -24 -150.5t-74 -123.5t-128 -84t-184 -31q-84 0 -157.5 23.5t-128 71t-85 118t-30.5 166.5zM408 952q0 -72 27.5 -112.5t80.5 -40.5q49 0 79 34.5t30 120.5q0 82 -30 120t-75 38 q-55 0 -83.5 -37t-28.5 -123z" />
<glyph unicode="&#xbb;" horiz-adv-x="1511" d="M76 319l291 207q10 8 18 14.5t8 16.5t-9 16.5t-19 14.5l-281 203l184 258l350 -261q39 -29 68 -53t48.5 -51t28.5 -58.5t9 -70.5q0 -74 -38 -130t-120 -114l-354 -250zM760 319l291 207q10 8 18 14.5t8 16.5t-9 16.5t-19 14.5l-281 203l184 258l350 -261q39 -29 68 -53 t48.5 -51t28.5 -58.5t9 -70.5q0 -74 -38 -130t-120 -114l-354 -250z" />
<glyph unicode="&#xbc;" horiz-adv-x="2121" d="M78 1262l244 165q41 29 81 39.5t73 10.5q72 0 113.5 -35t41.5 -115v-520h164v-223h-614v223h178v313q0 14 -2 22.5t-12 8.5q-8 0 -14.5 -3t-12.5 -7l-94 -60zM545 0l895 1458h334l-891 -1458h-338zM1266 340q0 27 18.5 65.5t53.5 77.5l358 395h236v-502h114v-198h-114 v-176h-269v176h-213q-98 0 -141 45t-43 117zM1506 389q0 -12 20 -13h137v183l-141 -148q-4 -4 -10 -11t-6 -11z" />
<glyph unicode="&#xbd;" horiz-adv-x="2121" d="M47 1262l244 165q41 29 81 39.5t73 10.5q72 0 113.5 -35t41.5 -115v-520h164v-223h-614v223h178v313q0 14 -2 22.5t-12 8.5q-8 0 -14.5 -3t-12.5 -7l-94 -60zM512 0l895 1458h334l-891 -1458h-338zM1399 786q80 41 171 75t201 34q137 0 215 -63.5t78 -190.5 q0 -74 -36 -138.5t-122 -132.5l-139 -112q-4 -4 -10 -9.5t-6 -11.5q0 -12 20 -12h307v-223h-505q-82 0 -126 39t-44 106q0 51 23.5 85t60.5 67l256 233q23 20 36 41t13 43q0 29 -19.5 43t-54.5 14q-45 0 -96 -21.5t-117 -55.5z" />
<glyph unicode="&#xbe;" horiz-adv-x="2121" d="M125 637l73 209q86 -31 144.5 -44t101.5 -13q41 0 71.5 14t30.5 61q0 49 -42 59.5t-126 10.5h-63v147l123 119q4 4 10 10.5t6 12.5q0 4 -3 7t-17 3h-246v223h426q100 0 134 -32.5t34 -90.5q0 -47 -28.5 -85t-67.5 -74l-90 -82q115 -16 169 -81t54 -155 q0 -61 -25.5 -114.5t-74 -93.5t-118 -63.5t-155.5 -23.5q-39 0 -84 6.5t-89 16.5t-83 23.5t-65 29.5zM498 0l895 1458h334l-891 -1458h-338zM1219 340q0 27 18.5 65.5t53.5 77.5l358 395h236v-502h114v-198h-114v-176h-269v176h-213q-98 0 -141 45t-43 117zM1459 389 q0 -12 20 -13h137v183l-141 -148q-4 -4 -10 -11t-6 -11z" />
<glyph unicode="&#xbf;" horiz-adv-x="1196" d="M53 -57q0 86 34 150.5t86 114.5t114.5 93t118.5 86q51 39 64 62.5t13 64.5v57h385v-92q0 -51 -1 -89t-12 -69.5t-35.5 -61.5t-71.5 -62q-39 -29 -86.5 -56.5t-88.5 -57.5t-68.5 -60.5t-27.5 -63.5q0 -41 39 -59.5t107 -18.5q176 0 387 142l159 -279q-117 -78 -260 -135.5 t-325 -57.5q-123 0 -221.5 29t-167 81t-105.5 124t-37 158zM475 877q0 92 50 149t151 57q92 0 148.5 -55t56.5 -154q0 -88 -51.5 -146t-153.5 -58q-100 0 -150.5 57t-50.5 150z" />
<glyph unicode="&#xc0;" horiz-adv-x="1546" d="M23 41l331 1141q23 80 56.5 140t85 100t123 60.5t169.5 20.5q94 0 162 -19.5t114 -57t75.5 -93t52.5 -125.5l332 -1167l-398 -88l-112 416h-477l-119 -416zM449 1892l241 238l351 -389l-195 -178zM625 705h293l-117 450q-4 20 -23 21q-18 0 -22 -21z" />
<glyph unicode="&#xc1;" horiz-adv-x="1546" d="M23 41l331 1141q23 80 56.5 140t85 100t123 60.5t169.5 20.5q94 0 162 -19.5t114 -57t75.5 -93t52.5 -125.5l332 -1167l-398 -88l-112 416h-477l-119 -416zM535 1741l350 389l242 -238l-398 -329zM625 705h293l-117 450q-4 20 -23 21q-18 0 -22 -21z" />
<glyph unicode="&#xc2;" horiz-adv-x="1546" d="M23 41l331 1141q23 80 56.5 140t85 100t123 60.5t169.5 20.5q94 0 162 -19.5t114 -57t75.5 -93t52.5 -125.5l332 -1167l-398 -88l-112 416h-477l-119 -416zM395 1710l262 285h252l250 -283l-201 -151l-180 178l-174 -178zM625 705h293l-117 450q-4 20 -23 21 q-18 0 -22 -21z" />
<glyph unicode="&#xc3;" horiz-adv-x="1546" d="M23 41l331 1141q23 80 56.5 140t85 100t123 60.5t169.5 20.5q94 0 162 -19.5t114 -57t75.5 -93t52.5 -125.5l332 -1167l-398 -88l-112 416h-477l-119 -416zM348 1595q-6 180 51.5 266.5t178.5 86.5q51 0 98 -13.5t102 -33.5q53 -18 85 -27.5t55 -9.5q25 0 37 9t18 23.5 t6 28.5v27h223q6 -190 -55.5 -273.5t-181.5 -83.5q-37 0 -73 6.5t-64.5 15.5t-48 16t-27.5 12q-33 12 -65 24t-60 12q-25 0 -37 -9t-16.5 -22.5t-4.5 -27.5v-27h-221zM625 705h293l-117 450q-4 20 -23 21q-18 0 -22 -21z" />
<glyph unicode="&#xc4;" horiz-adv-x="1546" d="M23 41l331 1141q23 80 56.5 140t85 100t123 60.5t169.5 20.5q94 0 162 -19.5t114 -57t75.5 -93t52.5 -125.5l332 -1167l-398 -88l-112 416h-477l-119 -416zM353 1778q0 86 53 143t145 57t142.5 -57t50.5 -143q0 -82 -50.5 -139.5t-142.5 -57.5q-98 0 -148 57.5t-50 139.5 zM625 705h293l-117 450q-4 20 -23 21q-18 0 -22 -21zM824 1778q0 86 53 143t145 57t142.5 -57t50.5 -143q0 -82 -50.5 -139.5t-142.5 -57.5q-98 0 -148 57.5t-50 139.5z" />
<glyph unicode="&#xc5;" horiz-adv-x="1546" d="M23 41l331 1141q23 80 56.5 140t85 100t123 60.5t169.5 20.5q94 0 162 -19.5t114 -57t75.5 -93t52.5 -125.5l332 -1167l-398 -88l-112 416h-477l-119 -416zM444 1886q0 68 22.5 126.5t65.5 101.5t103.5 66.5t136.5 23.5q74 0 134.5 -23.5t103.5 -66.5t66.5 -101.5 t23.5 -126.5t-22.5 -126t-65.5 -101t-103.5 -67.5t-136.5 -24.5q-78 0 -138.5 24.5t-102.5 67.5t-64.5 101.5t-22.5 125.5zM625 705h293l-117 450q-4 20 -23 21q-18 0 -22 -21zM674 1884q0 -43 25.5 -71.5t72.5 -28.5q45 0 71.5 28.5t26.5 71.5t-26.5 73t-71.5 30 q-47 0 -72.5 -30t-25.5 -73z" />
<glyph unicode="&#xc6;" horiz-adv-x="2166" d="M23 53l540 1141q33 68 64.5 121t76 89t107.5 54.5t160 18.5h1110v-347h-701v-215h539v-346h-539v-223h717v-346h-1118v420h-322l-217 -461zM770 758h209v395q-12 0 -19.5 -4t-17.5 -25z" />
<glyph unicode="&#xc7;" horiz-adv-x="1433" d="M66 737q0 166 51 306.5t150.5 243t245.5 159.5t337 57q147 0 274 -39t224 -88l-127 -327q-70 31 -125.5 50t-101.5 30.5t-84 15.5t-70 4q-164 0 -257.5 -106.5t-93.5 -305.5q0 -213 94.5 -313t258.5 -100q49 0 92 5t89 17t102.5 33.5t131.5 54.5l127 -325 q-121 -59 -228 -95.5t-245 -44.5l-12 -61q111 -16 161 -73.5t50 -137.5q0 -113 -85 -184.5t-226 -71.5q-78 0 -161 22.5t-151 63.5l93 197q8 -4 27.5 -12.5t44 -16.5t52 -14.5t52.5 -6.5q39 0 54 12.5t15 30.5q0 20 -18.5 33.5t-46 21t-61 9.5t-64.5 4l47 188 q-164 18 -280.5 84t-191.5 166.5t-109.5 231.5t-34.5 282z" />
<glyph unicode="&#xc8;" horiz-adv-x="1318" d="M131 0v1477h1102v-342h-696v-197h534v-342h-534v-254h712v-342h-1118zM350 1892l241 238l351 -389l-195 -178z" />
<glyph unicode="&#xc9;" horiz-adv-x="1318" d="M131 0v1477h1102v-342h-696v-197h534v-342h-534v-254h712v-342h-1118zM475 1741l350 389l242 -238l-398 -329z" />
<glyph unicode="&#xca;" horiz-adv-x="1318" d="M131 0v1477h1102v-342h-696v-197h534v-342h-534v-254h712v-342h-1118zM305 1710l262 285h252l250 -283l-201 -151l-180 178l-174 -178z" />
<glyph unicode="&#xcb;" horiz-adv-x="1318" d="M131 0v1477h1102v-342h-696v-197h534v-342h-534v-254h712v-342h-1118zM263 1778q0 86 53 143t145 57t142.5 -57t50.5 -143q0 -82 -50.5 -139.5t-142.5 -57.5q-98 0 -148 57.5t-50 139.5zM734 1778q0 86 53 143t145 57t142.5 -57t50.5 -143q0 -82 -50.5 -139.5 t-142.5 -57.5q-98 0 -148 57.5t-50 139.5z" />
<glyph unicode="&#xcc;" horiz-adv-x="675" d="M27 1892l241 238l351 -389l-195 -178zM131 0v1477h414v-1477h-414z" />
<glyph unicode="&#xcd;" horiz-adv-x="675" d="M66 1741l350 389l242 -238l-398 -329zM131 0v1477h414v-1477h-414z" />
<glyph unicode="&#xce;" horiz-adv-x="675" d="M-45 1710l262 285h252l250 -283l-201 -151l-180 178l-174 -178zM131 0v1477h414v-1477h-414z" />
<glyph unicode="&#xcf;" horiz-adv-x="675" d="M-88 1778q0 86 53 143t145 57t142.5 -57t50.5 -143q0 -82 -50.5 -139.5t-142.5 -57.5q-98 0 -148 57.5t-50 139.5zM131 0v1477h414v-1477h-414zM383 1778q0 86 53 143t145 57t142.5 -57t50.5 -143q0 -82 -50.5 -139.5t-142.5 -57.5q-98 0 -148 57.5t-50 139.5z" />
<glyph unicode="&#xd0;" horiz-adv-x="1638" d="M39 573v330h143v574h647q174 0 312.5 -52.5t233.5 -149.5t146.5 -234.5t51.5 -307.5q0 -158 -45 -292t-137.5 -232t-232.5 -153.5t-329 -55.5h-647v573h-143zM586 346h233q162 0 245 90t83 297q0 209 -84 303t-244 94h-233v-227h307v-330h-307v-227z" />
<glyph unicode="&#xd1;" horiz-adv-x="1554" d="M131 0v1477h371l542 -916v916h379v-1221q0 -125 -57 -200.5t-184 -75.5q-78 0 -148.5 41.5t-140.5 152.5l-365 580v-754h-397zM385 1595q-6 180 51.5 266.5t178.5 86.5q51 0 98 -13.5t102 -33.5q53 -18 85 -27.5t55 -9.5q25 0 37 9t18 23.5t6 28.5v27h223 q6 -190 -55.5 -273.5t-181.5 -83.5q-37 0 -73 6.5t-64.5 15.5t-48 16t-27.5 12q-33 12 -65 24t-60 12q-25 0 -37 -9t-16.5 -22.5t-4.5 -27.5v-27h-221z" />
<glyph unicode="&#xd2;" horiz-adv-x="1601" d="M66 735q0 143 39.5 281.5t128 247t227.5 174t338 65.5q211 0 352 -65.5t227 -174t122 -246.5t36 -282q0 -145 -40 -283.5t-128 -247t-228 -174t-341 -65.5q-354 0 -543.5 197.5t-189.5 572.5zM481 1892l241 238l351 -389l-195 -178zM489 739q0 -72 14.5 -145.5t49.5 -133 t94.5 -97t149.5 -37.5q82 0 141 32.5t98 90t57.5 132t18.5 158.5t-16.5 158t-53 129t-97 87t-146.5 32t-144.5 -32t-95.5 -87t-53.5 -129t-16.5 -158z" />
<glyph unicode="&#xd3;" horiz-adv-x="1601" d="M66 735q0 143 39.5 281.5t128 247t227.5 174t338 65.5q211 0 352 -65.5t227 -174t122 -246.5t36 -282q0 -145 -40 -283.5t-128 -247t-228 -174t-341 -65.5q-354 0 -543.5 197.5t-189.5 572.5zM489 739q0 -72 14.5 -145.5t49.5 -133t94.5 -97t149.5 -37.5q82 0 141 32.5 t98 90t57.5 132t18.5 158.5t-16.5 158t-53 129t-97 87t-146.5 32t-144.5 -32t-95.5 -87t-53.5 -129t-16.5 -158zM557 1741l350 389l242 -238l-398 -329z" />
<glyph unicode="&#xd4;" horiz-adv-x="1601" d="M66 735q0 143 39.5 281.5t128 247t227.5 174t338 65.5q211 0 352 -65.5t227 -174t122 -246.5t36 -282q0 -145 -40 -283.5t-128 -247t-228 -174t-341 -65.5q-354 0 -543.5 197.5t-189.5 572.5zM440 1710l262 285h252l250 -283l-201 -151l-180 178l-174 -178zM489 739 q0 -72 14.5 -145.5t49.5 -133t94.5 -97t149.5 -37.5q82 0 141 32.5t98 90t57.5 132t18.5 158.5t-16.5 158t-53 129t-97 87t-146.5 32t-144.5 -32t-95.5 -87t-53.5 -129t-16.5 -158z" />
<glyph unicode="&#xd5;" horiz-adv-x="1601" d="M66 735q0 143 39.5 281.5t128 247t227.5 174t338 65.5q211 0 352 -65.5t227 -174t122 -246.5t36 -282q0 -145 -40 -283.5t-128 -247t-228 -174t-341 -65.5q-354 0 -543.5 197.5t-189.5 572.5zM399 1595q-6 180 51.5 266.5t178.5 86.5q51 0 98 -13.5t102 -33.5 q53 -18 85 -27.5t55 -9.5q25 0 37 9t18 23.5t6 28.5v27h223q6 -190 -55.5 -273.5t-181.5 -83.5q-37 0 -73 6.5t-64.5 15.5t-48 16t-27.5 12q-33 12 -65 24t-60 12q-25 0 -37 -9t-16.5 -22.5t-4.5 -27.5v-27h-221zM489 739q0 -72 14.5 -145.5t49.5 -133t94.5 -97t149.5 -37.5 q82 0 141 32.5t98 90t57.5 132t18.5 158.5t-16.5 158t-53 129t-97 87t-146.5 32t-144.5 -32t-95.5 -87t-53.5 -129t-16.5 -158z" />
<glyph unicode="&#xd6;" horiz-adv-x="1601" d="M66 735q0 143 39.5 281.5t128 247t227.5 174t338 65.5q211 0 352 -65.5t227 -174t122 -246.5t36 -282q0 -145 -40 -283.5t-128 -247t-228 -174t-341 -65.5q-354 0 -543.5 197.5t-189.5 572.5zM389 1778q0 86 53 143t145 57t142.5 -57t50.5 -143q0 -82 -50.5 -139.5 t-142.5 -57.5q-98 0 -148 57.5t-50 139.5zM489 739q0 -72 14.5 -145.5t49.5 -133t94.5 -97t149.5 -37.5q82 0 141 32.5t98 90t57.5 132t18.5 158.5t-16.5 158t-53 129t-97 87t-146.5 32t-144.5 -32t-95.5 -87t-53.5 -129t-16.5 -158zM860 1778q0 86 53 143t145 57t142.5 -57 t50.5 -143q0 -82 -50.5 -139.5t-142.5 -57.5q-98 0 -148 57.5t-50 139.5z" />
<glyph unicode="&#xd7;" d="M229 922l228 231l235 -235l221 221l224 -224l-224 -221l224 -223l-226 -229l-223 221l-215 -217l-227 225l219 219z" />
<glyph unicode="&#xd8;" horiz-adv-x="1601" d="M66 735q0 143 39.5 281.5t128 247t227.5 174t338 65.5q121 0 219 -24l72 135h358l-145 -273q63 -55 108 -124.5t72.5 -147.5t40 -163t12.5 -171q0 -145 -40 -283.5t-128 -247t-228.5 -174t-340.5 -65.5q-113 0 -213 23l-82 -156h-359l154 291q-23 18 -42 38.5t-38 43.5 q-88 113 -120.5 251t-32.5 279zM465 739q0 -66 10 -131t35 -125l364 686q-18 4 -37.5 6.5t-41.5 2.5q-90 0 -152.5 -34t-102.5 -93.5t-57.5 -139.5t-17.5 -172zM731 297q14 -2 29.5 -3t32.5 -1q90 0 154.5 36t106.5 97t62.5 142t20.5 171q0 70 -10.5 131.5t-32.5 114.5z" />
<glyph unicode="&#xd9;" horiz-adv-x="1531" d="M127 608v869h410v-828q0 -82 9 -144.5t33.5 -105.5t69.5 -65.5t119 -22.5q70 0 114 22.5t69.5 65.5t34.5 103.5t9 136.5v838h410v-842q0 -147 -27.5 -271t-99.5 -212.5t-196 -137.5t-314 -49q-197 0 -321.5 43t-195.5 126t-97.5 203t-26.5 271zM414 1892l241 238 l351 -389l-195 -178z" />
<glyph unicode="&#xda;" horiz-adv-x="1531" d="M127 608v869h410v-828q0 -82 9 -144.5t33.5 -105.5t69.5 -65.5t119 -22.5q70 0 114 22.5t69.5 65.5t34.5 103.5t9 136.5v838h410v-842q0 -147 -27.5 -271t-99.5 -212.5t-196 -137.5t-314 -49q-197 0 -321.5 43t-195.5 126t-97.5 203t-26.5 271zM565 1741l350 389 l242 -238l-398 -329z" />
<glyph unicode="&#xdb;" horiz-adv-x="1531" d="M127 608v869h410v-828q0 -82 9 -144.5t33.5 -105.5t69.5 -65.5t119 -22.5q70 0 114 22.5t69.5 65.5t34.5 103.5t9 136.5v838h410v-842q0 -147 -27.5 -271t-99.5 -212.5t-196 -137.5t-314 -49q-197 0 -321.5 43t-195.5 126t-97.5 203t-26.5 271zM397 1710l262 285h252 l250 -283l-201 -151l-180 178l-174 -178z" />
<glyph unicode="&#xdc;" horiz-adv-x="1531" d="M127 608v869h410v-828q0 -82 9 -144.5t33.5 -105.5t69.5 -65.5t119 -22.5q70 0 114 22.5t69.5 65.5t34.5 103.5t9 136.5v838h410v-842q0 -147 -27.5 -271t-99.5 -212.5t-196 -137.5t-314 -49q-197 0 -321.5 43t-195.5 126t-97.5 203t-26.5 271zM342 1778q0 86 53 143 t145 57t142.5 -57t50.5 -143q0 -82 -50.5 -139.5t-142.5 -57.5q-98 0 -148 57.5t-50 139.5zM813 1778q0 86 53 143t145 57t142.5 -57t50.5 -143q0 -82 -50.5 -139.5t-142.5 -57.5q-98 0 -148 57.5t-50 139.5z" />
<glyph unicode="&#xdd;" horiz-adv-x="1439" d="M12 1366l369 152l307 -668q10 -20 29 -21q18 0 28 21l306 672l376 -146l-286 -633q-43 -94 -92.5 -151t-128.5 -92v-500h-408v498q-78 29 -127 87t-92 156zM502 1741l350 389l242 -238l-398 -329z" />
<glyph unicode="&#xde;" horiz-adv-x="1325" d="M131 0v1477h397v-199h189q111 0 209 -26.5t173 -87t118 -156t43 -230.5q0 -133 -42 -228t-116 -156.5t-173.5 -90.5t-211.5 -29h-189v-274h-397zM528 616h138q35 0 67.5 6.5t59 23t42 48t15.5 80.5q0 51 -15.5 83t-41 49.5t-59.5 23.5t-68 6h-138v-320z" />
<glyph unicode="&#xdf;" horiz-adv-x="1318" d="M102 0v1028q0 104 31 192.5t97.5 151t169 97t243.5 34.5q131 0 225.5 -28.5t155.5 -75.5t90 -107.5t29 -122.5q0 -59 -21.5 -111t-48 -98.5t-48 -86t-21.5 -72.5q0 -31 20 -58.5t51 -57.5t66 -63.5t65.5 -76.5t51 -99.5t20.5 -130.5q0 -70 -21.5 -132t-69.5 -110 t-124 -77t-182 -29q-74 0 -145.5 12.5t-121.5 30.5l56 312q47 -16 82.5 -23.5t64.5 -7.5q41 0 56.5 20.5t15.5 42.5q0 43 -43 76t-94.5 72t-94.5 91t-43 134q0 55 21.5 99t48.5 84t48.5 80t21.5 85q0 51 -33 78t-86 27q-66 0 -104.5 -37t-38.5 -105v-1038h-390z" />
<glyph unicode="&#xe0;" horiz-adv-x="1187" d="M49 315q0 100 42 166t107.5 106t145.5 56t156 16h178v27q0 45 -40 75t-118 30q-45 0 -109.5 -13.5t-179.5 -52.5l-102 276q98 39 211 64t235 25q141 0 234.5 -31t149 -87.5t77 -137t21.5 -179.5v-364l110 -146l-270 -217l-100 129q-53 -31 -142.5 -61.5t-187.5 -30.5 q-76 0 -150.5 18.5t-134 59.5t-96.5 108.5t-37 163.5zM267 1536l311 211l270 -434l-227 -162zM424 326q0 -29 22.5 -58.5t71.5 -29.5q41 0 87 6t85 22v146h-170q-55 0 -75.5 -29t-20.5 -57z" />
<glyph unicode="&#xe1;" horiz-adv-x="1187" d="M49 315q0 100 42 166t107.5 106t145.5 56t156 16h178v27q0 45 -40 75t-118 30q-45 0 -109.5 -13.5t-179.5 -52.5l-102 276q98 39 211 64t235 25q141 0 234.5 -31t149 -87.5t77 -137t21.5 -179.5v-364l110 -146l-270 -217l-100 129q-53 -31 -142.5 -61.5t-187.5 -30.5 q-76 0 -150.5 18.5t-134 59.5t-96.5 108.5t-37 163.5zM377 1315l272 438l303 -211l-344 -389zM424 326q0 -29 22.5 -58.5t71.5 -29.5q41 0 87 6t85 22v146h-170q-55 0 -75.5 -29t-20.5 -57z" />
<glyph unicode="&#xe2;" horiz-adv-x="1187" d="M49 315q0 100 42 166t107.5 106t145.5 56t156 16h178v27q0 45 -40 75t-118 30q-45 0 -109.5 -13.5t-179.5 -52.5l-102 276q98 39 211 64t235 25q141 0 234.5 -31t149 -87.5t77 -137t21.5 -179.5v-364l110 -146l-270 -217l-100 129q-53 -31 -142.5 -61.5t-187.5 -30.5 q-76 0 -150.5 18.5t-134 59.5t-96.5 108.5t-37 163.5zM209 1290l274 361h223l273 -359l-199 -145l-186 217l-185 -217zM424 326q0 -29 22.5 -58.5t71.5 -29.5q41 0 87 6t85 22v146h-170q-55 0 -75.5 -29t-20.5 -57z" />
<glyph unicode="&#xe3;" horiz-adv-x="1187" d="M49 315q0 100 42 166t107.5 106t145.5 56t156 16h178v27q0 45 -40 75t-118 30q-45 0 -109.5 -13.5t-179.5 -52.5l-102 276q98 39 211 64t235 25q141 0 234.5 -31t149 -87.5t77 -137t21.5 -179.5v-364l110 -146l-270 -217l-100 129q-53 -31 -142.5 -61.5t-187.5 -30.5 q-76 0 -150.5 18.5t-134 59.5t-96.5 108.5t-37 163.5zM158 1229q-6 180 51.5 266t178.5 86q51 0 98 -13.5t102 -33.5q53 -18 85 -27.5t55 -9.5q25 0 37 9.5t18 23.5t6 28.5v26.5h223q6 -190 -55.5 -273t-181.5 -83q-37 0 -73 6t-64.5 15.5t-48 16.5t-27.5 11 q-33 12 -65 24.5t-60 12.5q-25 0 -37 -9.5t-16.5 -22.5t-4.5 -27.5v-26.5h-221zM424 326q0 -29 22.5 -58.5t71.5 -29.5q41 0 87 6t85 22v146h-170q-55 0 -75.5 -29t-20.5 -57z" />
<glyph unicode="&#xe4;" horiz-adv-x="1187" d="M49 315q0 100 42 166t107.5 106t145.5 56t156 16h178v27q0 45 -40 75t-118 30q-45 0 -109.5 -13.5t-179.5 -52.5l-102 276q98 39 211 64t235 25q141 0 234.5 -31t149 -87.5t77 -137t21.5 -179.5v-364l110 -146l-270 -217l-100 129q-53 -31 -142.5 -61.5t-187.5 -30.5 q-76 0 -150.5 18.5t-134 59.5t-96.5 108.5t-37 163.5zM156 1389q0 86 53 143t145 57t142.5 -57t50.5 -143q0 -82 -50.5 -139.5t-142.5 -57.5q-98 0 -148 57.5t-50 139.5zM424 326q0 -29 22.5 -58.5t71.5 -29.5q41 0 87 6t85 22v146h-170q-55 0 -75.5 -29t-20.5 -57z M627 1389q0 86 53 143t146 57q92 0 142 -57t50 -143q0 -82 -50 -139.5t-142 -57.5q-98 0 -148.5 57.5t-50.5 139.5z" />
<glyph unicode="&#xe5;" horiz-adv-x="1187" d="M49 315q0 100 42 166t107.5 106t145.5 56t156 16h178v27q0 45 -40 75t-118 30q-45 0 -109.5 -13.5t-179.5 -52.5l-102 276q98 39 211 64t235 25q141 0 234.5 -31t149 -87.5t77 -137t21.5 -179.5v-364l110 -146l-270 -217l-100 129q-53 -31 -142.5 -61.5t-187.5 -30.5 q-76 0 -150.5 18.5t-134 59.5t-96.5 108.5t-37 163.5zM258 1462q0 68 22.5 126.5t65.5 101.5t103.5 66.5t136.5 23.5q74 0 134.5 -23.5t103.5 -66.5t66.5 -101.5t23.5 -126.5t-22.5 -126t-65.5 -101t-103.5 -67.5t-136.5 -24.5q-78 0 -138.5 24.5t-102.5 67.5t-64.5 101.5 t-22.5 125.5zM424 326q0 -29 22.5 -58.5t71.5 -29.5q41 0 87 6t85 22v146h-170q-55 0 -75.5 -29t-20.5 -57zM488 1460q0 -43 25.5 -71.5t72.5 -28.5q45 0 71.5 28.5t26.5 71.5t-26.5 73t-71.5 30q-47 0 -72.5 -30t-25.5 -73z" />
<glyph unicode="&#xe6;" horiz-adv-x="1746" d="M41 315q0 100 41 166t106.5 106t145.5 56t158 16h165v27q0 45 -37.5 75t-115.5 30q-57 0 -134 -17.5t-161 -48.5l-103 276q98 39 195.5 64t220.5 25q135 0 211 -28t121 -79q63 51 145 79t179 28q106 0 193 -36t150.5 -103.5t100.5 -165t41 -218.5l-119 -123h-547 q0 -80 66.5 -119.5t183.5 -39.5q57 0 147.5 12t188.5 45l90 -266q-96 -51 -215 -81t-241 -30q-131 0 -224.5 35t-158.5 92q-70 -49 -163 -88t-212 -39q-78 0 -153 18.5t-134 59.5t-95 108.5t-36 163.5zM418 324q0 -14 5 -29.5t18.5 -28t38 -20.5t65.5 -8q29 0 68.5 6 t80.5 26q-27 63 -37 142h-143q-55 0 -75.5 -30t-20.5 -58zM999 662h275q0 59 -25.5 107t-91.5 48q-74 0 -113.5 -50t-44.5 -105z" />
<glyph unicode="&#xe7;" horiz-adv-x="1153" d="M61 524q0 119 44.5 223.5t125 180.5t193.5 120t250 44q121 0 220 -25t189 -74l-127 -301q-53 20 -93 33.5t-71.5 21t-58 9.5t-53.5 2q-100 0 -158.5 -65.5t-58.5 -164.5q0 -106 57.5 -168.5t161.5 -62.5q25 0 50.5 3t60 11t81 23.5t109.5 42.5l117 -307 q-90 -43 -184.5 -70t-190.5 -33l-12 -59q111 -16 161 -73.5t50 -137.5q0 -113 -85 -184.5t-227 -71.5q-78 0 -160.5 22.5t-150.5 63.5l92 197q12 -6 31.5 -14.5t43.5 -15.5t50.5 -13.5t52.5 -6.5q35 0 51.5 12.5t16.5 30.5q0 20 -18.5 33.5t-46 21t-61.5 9.5t-64 4l49 197 q-111 23 -194 71.5t-136 119.5t-80 160t-27 191z" />
<glyph unicode="&#xe8;" horiz-adv-x="1202" d="M61 526q0 129 39 232.5t112 177.5t177.5 114t237.5 40q125 0 218 -38t155.5 -106.5t95 -165t39.5 -213.5l-119 -123h-547q0 -80 66.5 -119.5t183.5 -39.5q57 0 147 12t189 45l90 -266q-47 -23 -104.5 -43.5t-119 -35.5t-126 -23.5t-121.5 -8.5q-168 0 -285 43t-189.5 119 t-105.5 178.5t-33 220.5zM275 1536l311 211l270 -434l-227 -162zM471 662h274q0 59 -25.5 107t-90.5 48q-74 0 -114 -50t-44 -105z" />
<glyph unicode="&#xe9;" horiz-adv-x="1202" d="M61 526q0 129 39 232.5t112 177.5t177.5 114t237.5 40q125 0 218 -38t155.5 -106.5t95 -165t39.5 -213.5l-119 -123h-547q0 -80 66.5 -119.5t183.5 -39.5q57 0 147 12t189 45l90 -266q-47 -23 -104.5 -43.5t-119 -35.5t-126 -23.5t-121.5 -8.5q-168 0 -285 43t-189.5 119 t-105.5 178.5t-33 220.5zM365 1315l272 438l303 -211l-344 -389zM471 662h274q0 59 -25.5 107t-90.5 48q-74 0 -114 -50t-44 -105z" />
<glyph unicode="&#xea;" horiz-adv-x="1202" d="M61 526q0 129 39 232.5t112 177.5t177.5 114t237.5 40q125 0 218 -38t155.5 -106.5t95 -165t39.5 -213.5l-119 -123h-547q0 -80 66.5 -119.5t183.5 -39.5q57 0 147 12t189 45l90 -266q-47 -23 -104.5 -43.5t-119 -35.5t-126 -23.5t-121.5 -8.5q-168 0 -285 43t-189.5 119 t-105.5 178.5t-33 220.5zM234 1290l274 361h223l273 -359l-199 -145l-186 217l-185 -217zM471 662h274q0 59 -25.5 107t-90.5 48q-74 0 -114 -50t-44 -105z" />
<glyph unicode="&#xeb;" horiz-adv-x="1202" d="M61 526q0 129 39 232.5t112 177.5t177.5 114t237.5 40q125 0 218 -38t155.5 -106.5t95 -165t39.5 -213.5l-119 -123h-547q0 -80 66.5 -119.5t183.5 -39.5q57 0 147 12t189 45l90 -266q-47 -23 -104.5 -43.5t-119 -35.5t-126 -23.5t-121.5 -8.5q-168 0 -285 43t-189.5 119 t-105.5 178.5t-33 220.5zM182 1389q0 86 53 143t145 57t142.5 -57t50.5 -143q0 -82 -50.5 -139.5t-142.5 -57.5q-98 0 -148 57.5t-50 139.5zM471 662h274q0 59 -25.5 107t-90.5 48q-74 0 -114 -50t-44 -105zM653 1389q0 86 53 143t146 57q92 0 142 -57t50 -143 q0 -82 -50 -139.5t-142 -57.5q-98 0 -148.5 57.5t-50.5 139.5z" />
<glyph unicode="&#xec;" horiz-adv-x="679" d="M-18 1536l311 211l270 -434l-227 -162zM20 729v324h562v-1053h-404v729h-158z" />
<glyph unicode="&#xed;" horiz-adv-x="679" d="M20 729v324h562v-1053h-404v729h-158zM68 1315l272 438l303 -211l-344 -389z" />
<glyph unicode="&#xee;" horiz-adv-x="679" d="M-65 1290l274 361h223l273 -359l-199 -145l-186 217l-185 -217zM20 729v324h562v-1053h-404v729h-158z" />
<glyph unicode="&#xef;" horiz-adv-x="679" d="M-119 1389q0 86 53 143t145 57t142.5 -57t50.5 -143q0 -82 -50.5 -139.5t-142.5 -57.5q-98 0 -148 57.5t-50 139.5zM20 729v324h562v-1053h-404v729h-158zM352 1389q0 86 53 143t146 57q92 0 142 -57t50 -143q0 -82 -50 -139.5t-142 -57.5q-98 0 -148.5 57.5t-50.5 139.5 z" />
<glyph unicode="&#xf0;" horiz-adv-x="1263" d="M61 494q0 117 35 211t97.5 160.5t148.5 101t188 34.5q129 0 228 -57q-25 47 -60.5 90t-92 79t-137.5 63.5t-192 44.5l105 307q193 -23 342 -92l219 143l203 -264l-133 -94h-4q92 -111 141 -254.5t49 -317.5q0 -158 -38 -283.5t-111.5 -214t-183 -134.5t-253.5 -46 q-127 0 -228 36t-173 103.5t-111 165t-39 218.5zM471 489q0 -96 40 -146t112 -50q51 0 81.5 22.5t47 58.5t21.5 79t5 86q0 27 -1 48.5t-3 41.5q-23 18 -67.5 34.5t-88.5 16.5q-63 0 -105 -44t-42 -147z" />
<glyph unicode="&#xf1;" horiz-adv-x="1245" d="M35 950l330 178l61 -112q45 23 120 48.5t177 25.5q119 0 202 -32t134 -87.5t73.5 -129t22.5 -157.5v-684h-397v666q0 109 -105 108q-35 0 -72.5 -7t-68.5 -24v-743h-397v766zM233 1229q-6 180 51.5 266t178.5 86q51 0 98 -13.5t102 -33.5q53 -18 85 -27.5t55 -9.5 q25 0 37 9.5t18 23.5t6 28.5v26.5h223q6 -190 -55.5 -273t-181.5 -83q-37 0 -73 6t-64.5 15.5t-48 16.5t-27.5 11q-33 12 -65 24.5t-60 12.5q-25 0 -37 -9.5t-16.5 -22.5t-4.5 -27.5v-26.5h-221z" />
<glyph unicode="&#xf2;" horiz-adv-x="1261" d="M61 530q0 117 39 219.5t112 177t178.5 119t240.5 44.5q143 0 250.5 -44.5t178 -119t105.5 -177t35 -219.5t-40 -220t-113.5 -180t-179 -121t-234.5 -44q-121 0 -225.5 40t-181 114t-121 178t-44.5 233zM312 1536l311 211l270 -434l-227 -162zM471 530q0 -237 162 -237 q158 0 158 237q0 119 -37 176.5t-121 57.5q-162 0 -162 -234z" />
<glyph unicode="&#xf3;" horiz-adv-x="1261" d="M61 530q0 117 39 219.5t112 177t178.5 119t240.5 44.5q143 0 250.5 -44.5t178 -119t105.5 -177t35 -219.5t-40 -220t-113.5 -180t-179 -121t-234.5 -44q-121 0 -225.5 40t-181 114t-121 178t-44.5 233zM379 1315l272 438l303 -211l-344 -389zM471 530q0 -237 162 -237 q158 0 158 237q0 119 -37 176.5t-121 57.5q-162 0 -162 -234z" />
<glyph unicode="&#xf4;" horiz-adv-x="1261" d="M61 530q0 117 39 219.5t112 177t178.5 119t240.5 44.5q143 0 250.5 -44.5t178 -119t105.5 -177t35 -219.5t-40 -220t-113.5 -180t-179 -121t-234.5 -44q-121 0 -225.5 40t-181 114t-121 178t-44.5 233zM254 1290l274 361h223l273 -359l-199 -145l-186 217l-185 -217z M471 530q0 -237 162 -237q158 0 158 237q0 119 -37 176.5t-121 57.5q-162 0 -162 -234z" />
<glyph unicode="&#xf5;" horiz-adv-x="1261" d="M61 530q0 117 39 219.5t112 177t178.5 119t240.5 44.5q143 0 250.5 -44.5t178 -119t105.5 -177t35 -219.5t-40 -220t-113.5 -180t-179 -121t-234.5 -44q-121 0 -225.5 40t-181 114t-121 178t-44.5 233zM196 1209q-6 180 51.5 266t178.5 86q51 0 98 -13.5t102 -33.5 q53 -18 85 -27.5t55 -9.5q25 0 37 9.5t18 23.5t6 28.5v26.5h223q6 -190 -55.5 -273t-181.5 -83q-37 0 -73 6t-64.5 15.5t-48 16.5t-27.5 11q-33 12 -65 24.5t-60 12.5q-25 0 -37 -9.5t-16.5 -22.5t-4.5 -27.5v-26.5h-221zM471 530q0 -237 162 -237q158 0 158 237 q0 119 -37 176.5t-121 57.5q-162 0 -162 -234z" />
<glyph unicode="&#xf6;" horiz-adv-x="1261" d="M61 530q0 117 39 219.5t112 177t178.5 119t240.5 44.5q143 0 250.5 -44.5t178 -119t105.5 -177t35 -219.5t-40 -220t-113.5 -180t-179 -121t-234.5 -44q-121 0 -225.5 40t-181 114t-121 178t-44.5 233zM201 1389q0 86 53 143t145 57t142.5 -57t50.5 -143 q0 -82 -50.5 -139.5t-142.5 -57.5q-98 0 -148 57.5t-50 139.5zM471 530q0 -237 162 -237q158 0 158 237q0 119 -37 176.5t-121 57.5q-162 0 -162 -234zM672 1389q0 86 53 143t146 57q92 0 142 -57t50 -143q0 -82 -50 -139.5t-142 -57.5q-98 0 -148.5 57.5t-50.5 139.5z" />
<glyph unicode="&#xf7;" d="M227 547v311h916v-311h-916zM512 297q0 78 42 130t134 52t134 -52t42 -130t-42 -131t-134 -53q-80 0 -128 49t-48 135zM512 1110q0 78 42 130t134 52t134 -52t42 -130t-42 -131t-134 -53q-80 0 -128 49t-48 135z" />
<glyph unicode="&#xf8;" horiz-adv-x="1261" d="M63 528q0 117 39 219.5t112 178t178.5 120t238.5 44.5q41 0 79 -4.5t72 -10.5l82 148h297l-141 -258q92 -76 137 -188.5t45 -239.5q0 -121 -40 -225.5t-113.5 -181.5t-179 -121t-234.5 -44q-41 0 -78 4t-72 13l-108 -195h-297l170 311q-86 74 -136.5 183.5t-50.5 246.5z M418 532q0 -84 22 -141l232 430q-8 2 -15.5 2h-9.5q-104 0 -166.5 -74.5t-62.5 -216.5zM600 233q10 -2 19.5 -2h11.5q104 0 160.5 76t56.5 221q0 41 -4 71t-15 58z" />
<glyph unicode="&#xf9;" horiz-adv-x="1245" d="M90 379v674h397v-662q0 -109 107 -108q35 0 71.5 7t67.5 23v740h397v-791l91 -119l-283 -225l-117 119q-45 -23 -120.5 -48.5t-178.5 -25.5q-125 0 -208 37t-133 97.5t-70.5 134t-20.5 147.5zM271 1536l311 211l270 -434l-227 -162z" />
<glyph unicode="&#xfa;" horiz-adv-x="1245" d="M90 379v674h397v-662q0 -109 107 -108q35 0 71.5 7t67.5 23v740h397v-791l91 -119l-283 -225l-117 119q-45 -23 -120.5 -48.5t-178.5 -25.5q-125 0 -208 37t-133 97.5t-70.5 134t-20.5 147.5zM357 1315l272 438l303 -211l-344 -389z" />
<glyph unicode="&#xfb;" horiz-adv-x="1245" d="M90 379v674h397v-662q0 -109 107 -108q35 0 71.5 7t67.5 23v740h397v-791l91 -119l-283 -225l-117 119q-45 -23 -120.5 -48.5t-178.5 -25.5q-125 0 -208 37t-133 97.5t-70.5 134t-20.5 147.5zM232 1290l274 361h223l273 -359l-199 -145l-186 217l-185 -217z" />
<glyph unicode="&#xfc;" horiz-adv-x="1245" d="M90 379v674h397v-662q0 -109 107 -108q35 0 71.5 7t67.5 23v740h397v-791l91 -119l-283 -225l-117 119q-45 -23 -120.5 -48.5t-178.5 -25.5q-125 0 -208 37t-133 97.5t-70.5 134t-20.5 147.5zM180 1389q0 86 53 143t145 57t142.5 -57t50.5 -143q0 -82 -50.5 -139.5 t-142.5 -57.5q-98 0 -148 57.5t-50 139.5zM651 1389q0 86 53 143t146 57q92 0 142 -57t50 -143q0 -82 -50 -139.5t-142 -57.5q-98 0 -148.5 57.5t-50.5 139.5z" />
<glyph unicode="&#xfd;" horiz-adv-x="1269" d="M25 1006l389 84l143 -715q6 -35 16.5 -55.5t22.5 -29.5t23.5 -11.5t21.5 -2.5h18l201 814l385 -91l-289 -1149q-20 -82 -56 -142t-94 -100t-142 -59.5t-199 -19.5q-94 0 -183 17.5t-157 39.5l61 326q25 -8 59 -18.5t71.5 -18.5t74.5 -14t68 -6t66.5 8t49.5 59l15 51 q-88 2 -154.5 16.5t-116 48.5t-81 89t-50.5 139zM395 1315l272 438l303 -211l-344 -389z" />
<glyph unicode="&#xfe;" horiz-adv-x="1218" d="M106 -446v1923h396v-428q33 14 80 27.5t116 13.5q100 0 184.5 -36t146 -106.5t95 -173t33.5 -235.5q0 -121 -29.5 -224.5t-93 -179.5t-163 -120t-238.5 -44q-37 0 -67.5 4.5t-63.5 14.5v-436h-396zM502 303q41 -23 92 -22q74 0 119 63.5t45 204.5q0 106 -32 168.5 t-108 62.5q-18 0 -49.5 -5t-66.5 -21v-451z" />
<glyph unicode="&#xff;" horiz-adv-x="1269" d="M25 1006l389 84l143 -715q6 -35 16.5 -55.5t22.5 -29.5t23.5 -11.5t21.5 -2.5h18l201 814l385 -91l-289 -1149q-20 -82 -56 -142t-94 -100t-142 -59.5t-199 -19.5q-94 0 -183 17.5t-157 39.5l61 326q25 -8 59 -18.5t71.5 -18.5t74.5 -14t68 -6t66.5 8t49.5 59l15 51 q-88 2 -154.5 16.5t-116 48.5t-81 89t-50.5 139zM211 1389q0 86 53 143t145 57t142.5 -57t50.5 -143q0 -82 -50.5 -139.5t-142.5 -57.5q-98 0 -148 57.5t-50 139.5zM682 1389q0 86 53 143t146 57q92 0 142 -57t50 -143q0 -82 -50 -139.5t-142 -57.5q-98 0 -148.5 57.5 t-50.5 139.5z" />
<glyph unicode="&#x152;" horiz-adv-x="2246" d="M66 731q0 156 47 291t139 236.5t229 160t318 58.5h1362v-342h-697v-197h535v-342h-535v-254h713v-342h-1380q-154 0 -287 48t-232.5 142.5t-155.5 229.5t-56 311zM489 748q0 -74 18.5 -147t61.5 -130t114 -93t175 -36h201v793h-203q-98 0 -168 -31t-114 -83t-64.5 -123 t-20.5 -150z" />
<glyph unicode="&#x153;" horiz-adv-x="1906" d="M61 524q0 121 34 224.5t100.5 179.5t166 119t230.5 43q139 0 230 -46.5t153 -117.5q61 76 154.5 120t224.5 44q119 0 206 -38t143 -106.5t85 -165t35 -213.5l-119 -123h-526q0 -80 66.5 -119.5t182.5 -39.5q53 0 138.5 12t177.5 45l90 -266q-92 -47 -201.5 -79 t-232.5 -32q-147 0 -248.5 46t-167.5 118q-59 -72 -153.5 -118t-229.5 -46q-117 0 -216 38t-171 109.5t-112 175t-40 236.5zM471 528q0 -235 152 -235q147 0 147 239q0 231 -145 232q-154 0 -154 -236zM1180 662h274q0 59 -25.5 107t-91.5 48q-74 0 -113.5 -50t-43.5 -105z " />
<glyph unicode="&#x178;" horiz-adv-x="1439" d="M12 1366l369 152l307 -668q10 -20 29 -21q18 0 28 21l306 672l376 -146l-286 -633q-43 -94 -92.5 -151t-128.5 -92v-500h-408v498q-78 29 -127 87t-92 156zM303 1778q0 86 53 143t145 57t142.5 -57t50.5 -143q0 -82 -50.5 -139.5t-142.5 -57.5q-98 0 -148 57.5t-50 139.5 zM774 1778q0 86 53 143t145 57t142.5 -57t50.5 -143q0 -82 -50.5 -139.5t-142.5 -57.5q-98 0 -148 57.5t-50 139.5z" />
<glyph unicode="&#x2c6;" horiz-adv-x="1024" d="M76 1290l274 361h223l273 -359l-199 -145l-186 217l-185 -217z" />
<glyph unicode="&#x2dc;" horiz-adv-x="1024" d="M92 1229q-6 180 51.5 266t178.5 86q51 0 98 -13.5t102 -33.5q53 -18 85 -27.5t55 -9.5q25 0 37 9.5t18 23.5t6 28.5v26.5h223q6 -190 -55.5 -273t-181.5 -83q-37 0 -73 6t-64.5 15.5t-48 16.5t-27.5 11q-33 12 -65 24.5t-60 12.5q-25 0 -37 -9.5t-16.5 -22.5t-4.5 -27.5 v-26.5h-221z" />
<glyph unicode="&#x2000;" horiz-adv-x="1102" />
<glyph unicode="&#x2001;" horiz-adv-x="2204" />
<glyph unicode="&#x2002;" horiz-adv-x="1102" />
<glyph unicode="&#x2003;" horiz-adv-x="2204" />
<glyph unicode="&#x2004;" horiz-adv-x="734" />
<glyph unicode="&#x2005;" horiz-adv-x="551" />
<glyph unicode="&#x2006;" horiz-adv-x="367" />
<glyph unicode="&#x2007;" horiz-adv-x="367" />
<glyph unicode="&#x2008;" horiz-adv-x="275" />
<glyph unicode="&#x2009;" horiz-adv-x="440" />
<glyph unicode="&#x200a;" horiz-adv-x="122" />
<glyph unicode="&#x2010;" horiz-adv-x="968" d="M131 455v329h707v-329h-707z" />
<glyph unicode="&#x2011;" horiz-adv-x="968" d="M131 455v329h707v-329h-707z" />
<glyph unicode="&#x2012;" horiz-adv-x="968" d="M131 455v329h707v-329h-707z" />
<glyph unicode="&#x2013;" horiz-adv-x="1024" d="M0 444v310h1024v-310h-1024z" />
<glyph unicode="&#x2014;" horiz-adv-x="2048" d="M0 444v310h2048v-310h-2048z" />
<glyph unicode="&#x2018;" horiz-adv-x="571" d="M74 1049q0 27 5 55.5t18.5 68t35 94t53.5 128.5l54 121l231 -78l-80 -240q47 -23 77 -59.5t30 -104.5q0 -86 -53.5 -140t-155.5 -54q-61 0 -102.5 18.5t-66 49t-35.5 67.5t-11 74z" />
<glyph unicode="&#x2019;" horiz-adv-x="571" d="M74 1309q0 86 51 143t160 57q55 0 95 -17t66.5 -46t39 -64.5t12.5 -70.5q0 -45 -23.5 -126t-89.5 -231l-53 -120l-232 77l80 240q-47 23 -76.5 57.5t-29.5 100.5z" />
<glyph unicode="&#x201a;" horiz-adv-x="571" d="M74 143q0 82 52 140.5t157 58.5q57 0 97 -17.5t66.5 -45t39 -64.5t12.5 -74q0 -41 -21.5 -122.5t-91.5 -231.5l-63 -137l-232 78l90 256q-45 16 -75.5 54t-30.5 105z" />
<glyph unicode="&#x201c;" horiz-adv-x="1044" d="M74 1049q0 27 5 55.5t18.5 68t35 94t53.5 128.5l54 121l231 -78l-80 -240q47 -23 77 -59.5t30 -104.5q0 -86 -53.5 -140t-155.5 -54q-61 0 -102.5 18.5t-66 49t-35.5 67.5t-11 74zM547 1049q0 27 5 55.5t18.5 68t35 94t53.5 128.5l54 121l231 -78l-80 -240 q47 -23 77 -59.5t30 -104.5q0 -86 -53.5 -140t-155.5 -54q-61 0 -102.5 18.5t-66 49t-35.5 67.5t-11 74z" />
<glyph unicode="&#x201d;" horiz-adv-x="1044" d="M66 1309q0 86 51 143t160 57q55 0 95 -17t66.5 -46t39 -64.5t12.5 -70.5q0 -45 -23.5 -126t-89.5 -231l-53 -120l-232 77l80 240q-47 23 -76.5 57.5t-29.5 100.5zM537 1309q0 86 51 143t160 57q55 0 95 -17t66.5 -46t39 -64.5t12.5 -70.5q0 -45 -23.5 -126t-89.5 -231 l-53 -120l-232 77l80 240q-47 23 -76.5 57.5t-29.5 100.5z" />
<glyph unicode="&#x201e;" horiz-adv-x="1044" d="M74 143q0 82 52 140.5t157 58.5q57 0 97 -17.5t66.5 -45t39 -64.5t12.5 -74q0 -41 -21.5 -122.5t-91.5 -231.5l-63 -137l-232 78l90 256q-45 16 -75.5 54t-30.5 105zM547 143q0 82 52 140.5t157 58.5q57 0 97 -17.5t66.5 -45t39 -64.5t12.5 -74q0 -41 -21.5 -122.5 t-91.5 -231.5l-63 -137l-232 78l90 256q-45 16 -75.5 54t-30.5 105z" />
<glyph unicode="&#x2022;" horiz-adv-x="1024" d="M211 678q0 68 17.5 124t55.5 97t95 64.5t137 23.5q76 0 131 -23.5t92 -64.5t55.5 -97.5t18.5 -123.5q0 -68 -18.5 -125t-55.5 -99t-92 -65.5t-131 -23.5q-141 0 -223 82.5t-82 230.5z" />
<glyph unicode="&#x2026;" horiz-adv-x="1722" d="M61 174q0 88 48.5 147.5t152.5 59.5q102 0 150.5 -59.5t48.5 -147.5q0 -90 -48.5 -149.5t-148.5 -59.5q-96 0 -149.5 56.5t-53.5 152.5zM661 174q0 88 48.5 147.5t152.5 59.5q102 0 150.5 -59.5t48.5 -147.5q0 -90 -48.5 -149.5t-148.5 -59.5q-96 0 -149.5 56.5 t-53.5 152.5zM1261 174q0 88 48.5 147.5t152.5 59.5q102 0 150.5 -59.5t48.5 -147.5q0 -90 -48.5 -149.5t-148.5 -59.5q-96 0 -149.5 56.5t-53.5 152.5z" />
<glyph unicode="&#x202f;" horiz-adv-x="440" />
<glyph unicode="&#x2039;" horiz-adv-x="837" d="M66 555q0 74 37.5 130t119.5 114l355 250l184 -258l-291 -207q-10 -8 -18.5 -14.5t-8.5 -16.5t9.5 -16.5t19.5 -14.5l281 -203l-185 -258l-350 261q-39 29 -67.5 53t-48 51t-28.5 57.5t-9 71.5z" />
<glyph unicode="&#x203a;" horiz-adv-x="837" d="M76 319l291 207q10 8 18 14.5t8 16.5t-9 16.5t-19 14.5l-281 203l184 258l350 -261q39 -29 68 -53t48.5 -51t28.5 -58.5t9 -70.5q0 -74 -38 -130t-120 -114l-354 -250z" />
<glyph unicode="&#x205f;" horiz-adv-x="551" />
<glyph unicode="&#x20ac;" horiz-adv-x="1409" d="M61 395v264h969v-264h-401q78 -92 241 -92q51 0 92.5 5t83 16.5t88 31t109.5 47.5l117 -309q-61 -31 -116.5 -54.5t-114 -40.5t-124 -25.5t-145.5 -8.5q-135 0 -242.5 31t-187.5 87t-134 135t-85 177h-150zM61 766v268h154q37 100 97.5 181t146.5 139.5t196.5 90.5 t243.5 32q137 0 255 -39t206 -88l-115 -308q-127 61 -214 81t-163 20q-172 0 -247 -109h409v-268h-969z" />
<glyph unicode="&#x2122;" horiz-adv-x="1853" d="M51 1180v297h733v-297h-204v-529h-322v529h-207zM870 651v826h260l160 -320q4 -6 11.5 -18.5t21.5 -12.5t21.5 12.5t11.5 18.5l160 320h260v-826h-301v312l-43 -64q-18 -29 -42 -47t-63 -18q-41 0 -67.5 18t-45.5 47l-43 64v-312h-301z" />
<glyph unicode="&#x25fc;" horiz-adv-x="1126" d="M0 0v1126h1126v-1126h-1126z" />
</font>
</defs>
</svg>
