<?xml version="1.0" encoding="utf-8"?>
<!-- Generator: Adobe Illustrator 25.4.1, SVG Export Plug-In . SVG Version: 6.00 Build 0)  -->
<svg version="1.1" id="Layer_1" xmlns="http://www.w3.org/2000/svg" xmlns:xlink="http://www.w3.org/1999/xlink" x="0px" y="0px"
	 viewBox="0 0 1052 156" style="enable-background:new 0 0 1052 156;" xml:space="preserve">
<style type="text/css">
	.st0{fill:#FFFFFF;}
</style>
<path id="Stroke-1_1_" class="st0" d="M394,143.9c-41-1.7-82.1-4.4-123-8.4c-20.5-2-40.9-4.3-61.3-7.1s-40.7-5.9-60.9-9.7
	c-20.3-3.8-40.3-8.2-60.2-13.7c-9.9-2.8-19.8-5.8-29.5-9.4c-9.7-3.5-19.3-7.6-28.3-12.7c-4.5-2.6-8.9-5.4-13-8.8
	c-2-1.7-3.8-3.6-5.6-5.6S9,64.2,8.1,61.7c-1.1-2.5-1.5-5.3-1.3-8C6.9,51,7.8,48.3,9,46c2.6-4.8,6.4-8.5,10.6-11.7
	c8.3-6.4,17.7-10.9,27.2-15C56.3,15.3,66.1,12,76,9c-9.8,3.1-19.6,6.5-29.1,10.5c-9.4,4.1-18.8,8.7-27,15.1
	c-4,3.2-7.9,6.9-10.3,11.6c-1.2,2.3-2,4.8-2.2,7.5c-0.1,2.6,0.4,5.2,1.3,7.6c2,4.8,5.7,8.7,9.6,12.1c3.9,3.3,8.4,6.1,12.9,8.6
	c9,5,18.6,8.9,28.2,12.4c9.7,3.5,19.6,6.4,29.5,9.1c19.9,5.3,39.9,9.5,60.2,13.2c20.2,3.6,40.5,6.6,60.9,9.2s40.8,4.8,61.2,6.6
	c40.9,3.7,81.8,6,122.8,7.4V143.9z"/>
<path id="Stroke-5_1_" class="st0" d="M980,9.8c13.2,4.1,26.3,8.8,38.7,15.2c6.1,3.2,12.2,6.9,17.5,11.5c2.6,2.4,5.1,5,7,8
	s3.2,6.6,3.2,10.3s-1.3,7.2-3.2,10.3c-1.9,3.1-4.3,5.7-7,8.1c-2.6,2.4-5.5,4.4-8.4,6.3c-1.5,0.9-3,1.9-4.5,2.7l-2.3,1.3l-2.3,1.2
	c-12.5,6.5-25.6,11.3-38.8,15.5c-6.6,2.1-13.2,4-19.9,5.8s-13.4,3.5-20.1,5c-13.5,3.1-27,5.9-40.7,8.3c-27.2,4.9-54.6,8.8-82.1,12
	c-54.9,6.4-110.1,10.2-165.3,12.2s-110.5,2.3-165.8,0.8l0.1-4c55.1,1.8,110.4,1.9,165.5,0.2s110.3-5.2,165.2-11.2
	c27.4-3.1,54.8-6.7,82.1-11.5c13.6-2.4,27.1-5,40.7-8.1c6.7-1.5,13.4-3.1,20.1-4.9c6.7-1.7,13.3-3.6,19.9-5.7
	c13.2-4.1,26.3-8.8,38.6-15.2l2.3-1.2l2.3-1.3c1.5-0.8,3-1.8,4.5-2.7c2.9-1.9,5.8-3.9,8.3-6.2c2.6-2.3,5-4.9,6.9-7.9
	c1.8-3,3.1-6.4,3.2-10c0-3.6-1.2-7-3-10s-4.2-5.6-6.8-8c-5.3-4.7-11.2-8.3-17.4-11.6C1006.3,18.8,993.1,14,980,9.8z"/>
<g transform="translate(415.000000, 136.000000)">
	<path id="Fill-1" class="st0" d="M18.9,8.1c-3.3,0-5.2-2.2-5.2-5.6V2.1C15.2,1.4,16.9,1,18.9,1c2.8,0,4.6,1.1,4.6,3.2
		S22.1,8.1,18.9,8.1L18.9,8.1z M19.3-2.1c-2,0-3.7,0.6-5.2,1.3c0.6-3,2.8-4.8,6.9-4.8c2,0,4.3,0.6,5.8,0.9v-3.2
		c-1.5-0.6-3.5-0.9-5.8-0.9C13.2-8.8,9.5-4.9,9.5,2c0,5.9,3.3,9.1,9.5,9.1s9.3-3.2,9.3-6.7C28,0.3,24.9-2.1,19.3-2.1L19.3-2.1z"/>
	<path id="Fill-2" class="st0" d="M58.3-9.4c1.7,0,3,1.3,3,2.8s-1.3,3-3,3c-1.5,0-3-1.3-3-3C55.5-8.1,56.8-9.4,58.3-9.4L58.3-9.4z
		 M58.3-1C61.4-1,64-3.4,64-6.6c0-3-2.6-5.6-5.8-5.6s-5.8,2.4-5.8,5.6S55.1-1,58.3-1L58.3-1z"/>
	<path id="Fill-4" class="st0" d="M41.6-5.7C45.5-5.7,47-3.1,47,1s-1.5,6.7-5.4,6.7S36.2,4.9,36.2,1S37.5-5.7,41.6-5.7L41.6-5.7z
		 M41.4,11c7.2,0,9.7-4.8,9.7-10s-2.4-9.8-9.7-9.8c-7.2,0-9.8,4.8-9.8,10C31.7,6.4,34.2,11,41.4,11L41.4,11z"/>
	<path id="Fill-5" class="st0" d="M5.6,5.3c0-2-1.5-3.7-4.6-4.6c2.4-0.9,3.5-2.4,3.5-4.3c0-3.2-3.2-5.2-8.5-5.2
		c-2.8,0-5,0.6-6.7,1.5v3.2C-9-4.8-6.4-5.4-4.4-5.4c2.8,0,4.6,0.9,4.6,2.2c0,1.5-1.3,2.4-4.5,2.4h-2.4v3h2.4c3.7,0,5.4,1.5,5.4,3
		S-0.8,8-4.1,8C-6.9,8-9.3,7.4-11,6.9v3.2c1.7,0.6,3.9,1.1,7.1,1.1C2.4,11,5.6,8.5,5.6,5.3"/>
</g>
</svg>
