<?xml version="1.0" encoding="utf-8"?>
<!-- Generator: Adobe Illustrator 22.1.0, SVG Export Plug-In . SVG Version: 6.00 Build 0)  -->
<svg version="1.1" id="Capa_1" xmlns="http://www.w3.org/2000/svg" xmlns:xlink="http://www.w3.org/1999/xlink" x="0px" y="0px"
	 viewBox="0 0 287 288" style="enable-background:new 0 0 287 288;" xml:space="preserve">
<style type="text/css">
	.st0{fill:#FF4040;}
	.st1{fill:#FFFFFF;}
</style>
<circle class="st0" cx="144.5" cy="143.5" r="142.5"/>
<path class="st1" d="M156.1,81.5c0,5.1,0.2,9.5,0,13.7c-0.9,20.6-2.1,41.3-2.8,61.9c-0.2,4.7-2,5.9-6.4,5.9
	c-14.1-0.2-11.7,1.1-12.3-11.6c-1.1-21.6-1.9-43.3-3-64.9c-0.2-3.9,1-5.3,5-5.1C142.9,81.7,149.2,81.5,156.1,81.5z"/>
<path class="st1" d="M144,210.7c-9.1,0-16.9-7.9-16.8-16.9c0.1-8.7,8-16.6,16.7-16.7c9-0.1,17,7.8,17.1,16.8
	C161,203,153.1,210.7,144,210.7z"/>
</svg>
