<svg xmlns="http://www.w3.org/2000/svg" viewBox="0 0 494 494"><defs><style>.cls-1{fill:#1d1e1c;}.cls-2{fill:#e20613;}</style></defs><title>ico-download</title><g id="Capa_2" data-name="Capa 2"><g id="Capa_1-2" data-name="Capa 1"><path class="cls-1" d="M86.33,494A86.43,86.43,0,0,1,0,407.67V86.33A86.43,86.43,0,0,1,86.33,0H407.67A86.35,86.35,0,0,1,494,86.33V407.67A86.43,86.43,0,0,1,407.67,494Zm0-482A74.42,74.42,0,0,0,12,86.33V407.67A74.42,74.42,0,0,0,86.33,482H407.67A74.42,74.42,0,0,0,482,407.67V86.33A74.33,74.33,0,0,0,407.67,12Z"/><path class="cls-2" d="M247,304.63a6,6,0,0,1-4.24-1.76l-79.53-79.53a6,6,0,1,1,8.48-8.48L241,284.14V102.4a6,6,0,1,1,12,0V284.14l69.28-69.28a6,6,0,0,1,8.49,8.48l-79.53,79.53A6,6,0,0,1,247,304.63Z"/><path class="cls-1" d="M102.4,397.6a6,6,0,1,1,0-12H391.6a6,6,0,0,1,0,12Z"/></g></g></svg>