<svg xmlns="http://www.w3.org/2000/svg" viewBox="0 0 502 415.14"><defs><style>.cls-1{fill:#1d1e1c;}.cls-2{fill:#e20613;}</style></defs><title>ico-print</title><g id="Capa_2" data-name="Capa 2"><g id="Layer_1" data-name="Layer 1"><path class="cls-1" d="M137.51,415.14a5.86,5.86,0,0,1-5.86-5.85V299.77H31.07A31.11,31.11,0,0,1,0,268.7V95.87A31.1,31.1,0,0,1,31.06,64.8H131.65V5.86A5.87,5.87,0,0,1,137.51,0h227a5.87,5.87,0,0,1,5.86,5.86V64.8H470.93A31.11,31.11,0,0,1,502,95.87V268.7a31.11,31.11,0,0,1-31.07,31.07H370.35V409.29a5.86,5.86,0,0,1-5.86,5.85Zm5.85-11.71H358.64v-153H143.36Zm227-115.37H470.93a19.38,19.38,0,0,0,19.36-19.36V95.87a19.38,19.38,0,0,0-19.35-19.36H418v46.24a5.87,5.87,0,0,1-5.86,5.86H89.9A5.87,5.87,0,0,1,84,122.75V76.51h-53A19.39,19.39,0,0,0,11.71,95.87V268.7a19.38,19.38,0,0,0,19.36,19.36H131.65V250.45h-24.8a5.86,5.86,0,1,1,0-11.71h288.3a5.86,5.86,0,1,1,0,11.71h-24.8Zm-227-171.16H358.64V11.71H143.36Zm-47.61,0h35.9V76.51H95.75Zm274.6,0h35.9V76.51h-35.9Z"/><path class="cls-2" d="M63.8,179.43a8.6,8.6,0,1,1,8.6-8.6A8.61,8.61,0,0,1,63.8,179.43Z"/><path class="cls-2" d="M197.17,354.74a5.86,5.86,0,1,1,0-11.71h50.68a5.86,5.86,0,1,1,0,11.71Z"/><path class="cls-2" d="M197.17,299.77a5.86,5.86,0,0,1,0-11.72H304.83a5.86,5.86,0,0,1,0,11.72Z"/></g></g></svg>