<?xml version="1.0" encoding="UTF-8"?>
<svg width="239px" height="62px" viewBox="0 0 239 62" version="1.1" xmlns="http://www.w3.org/2000/svg" xmlns:xlink="http://www.w3.org/1999/xlink">
    <!-- Generator: Sketch 52.2 (67145) - http://www.bohemiancoding.com/sketch -->
    <title>Group 4</title>
    <desc>Created with Sketch.</desc>
    <g id="Page-1" stroke="none" stroke-width="1" fill="none" fill-rule="evenodd">
        <g id="Group-4" fill="#FFFFFF">
            <g id="Group">
                <rect id="Rectangle-Copy" x="0" y="0" width="239" height="2"></rect>
                <rect id="Rectangle-Copy-3" x="0" y="2" width="2" height="58"></rect>
                <rect id="Rectangle-Copy-4" x="237" y="2" width="2" height="58"></rect>
                <rect id="Rectangle-Copy-2" x="0" y="60" width="239" height="2"></rect>
            </g>
            <path d="M15.4570312,16.6816406 C15.4570312,16.0332031 15.5527343,15.4345703 15.7441406,14.8857422 C15.9355469,14.336914 16.2197266,13.8623047 16.5966797,13.4619141 C16.9736328,13.0615235 17.4414063,12.75 18,12.5273438 C18.5585937,12.3046875 19.2070312,12.1933594 19.9453125,12.1933594 C20.546875,12.1933594 21.0771485,12.2529297 21.5361328,12.3720703 C21.9951172,12.4912109 22.4277344,12.6386719 22.8339844,12.8144531 L22.2832031,14.2675781 C21.9941407,14.1464843 21.7402343,14.0527343 21.5214844,13.9863281 C21.3027344,13.9199219 21.1015625,13.868164 20.9179688,13.8310547 C20.734375,13.7939453 20.5625,13.7695312 20.4023438,13.7578125 C20.2421875,13.7460938 20.078125,13.7402344 19.9101562,13.7402344 C19.0859375,13.7402344 18.453125,13.9941406 18.0117188,14.5019531 C17.5703125,15.0097657 17.3496094,15.7363282 17.3496094,16.6816406 C17.3496094,17.6894531 17.5703125,18.4375 18.0117188,18.9257812 C18.453125,19.4140625 19.0820313,19.6582031 19.8984375,19.6582031 C20.1289062,19.6582031 20.3398437,19.6455078 20.53125,19.6201172 C20.7226563,19.5947266 20.913086,19.5585938 21.1025391,19.5117188 C21.2919922,19.4648438 21.4902344,19.4033203 21.6972656,19.3271484 C21.9042968,19.2509766 22.1445312,19.15625 22.4179688,19.0429688 L22.96875,20.4609375 C22.7109375,20.5820313 22.4619141,20.6884765 22.2216797,20.7802734 C21.9814453,20.8720703 21.7333985,20.9492187 21.4775391,21.0117188 C21.2216797,21.0742188 20.9560547,21.1220703 20.6806641,21.1552734 C20.4052734,21.1884766 20.1035156,21.2050781 19.7753906,21.2050781 C18.9824219,21.2050781 18.3125,21.0908203 17.765625,20.8623047 C17.21875,20.6337891 16.7753906,20.3173828 16.4355469,19.9130859 C16.0957031,19.5087891 15.8476563,19.03125 15.6914062,18.4804688 C15.5351562,17.9296875 15.4570312,17.3300782 15.4570312,16.6816406 Z M24.6011719,17.9414062 C24.6011719,17.484375 24.6705078,17.0576172 24.8091797,16.6611328 C24.9478516,16.2646484 25.1519531,15.9208985 25.4214844,15.6298828 C25.6910156,15.3388672 26.0230469,15.109375 26.4175781,14.9414062 C26.8121093,14.7734375 27.2691406,14.6894531 27.7886719,14.6894531 C28.3394531,14.6894531 28.8160156,14.7734375 29.2183594,14.9414062 C29.6207031,15.109375 29.9498046,15.3388672 30.205664,15.6298828 C30.4615234,15.9208985 30.6509765,16.2646484 30.7740234,16.6611328 C30.8970703,17.0576172 30.9585937,17.484375 30.9585937,17.9414062 C30.9585937,18.3984375 30.893164,18.8242188 30.7623047,19.21875 C30.6314453,19.6132812 30.4332031,19.9589843 30.1675781,20.2558594 C29.9019531,20.5527344 29.5718749,20.7851562 29.1773437,20.953125 C28.7828125,21.1210938 28.3199219,21.2050781 27.7886719,21.2050781 C27.2378906,21.2050781 26.7652343,21.1210938 26.3707031,20.953125 C25.9761719,20.7851562 25.6460937,20.5527344 25.3804687,20.2558594 C25.1148438,19.9589843 24.9185547,19.6123047 24.7916015,19.2158203 C24.6646484,18.8193359 24.6011719,18.3945312 24.6011719,17.9414062 Z M26.4117187,17.9414062 C26.4078124,19.15625 26.8667969,19.7636719 27.7886719,19.7636719 C28.6910156,19.7636719 29.1441406,19.15625 29.1480469,17.9414062 C29.1480469,16.734375 28.6949219,16.1308594 27.7886719,16.1308594 C26.8667969,16.1308594 26.4078124,16.734375 26.4117187,17.9414062 Z M32.6320312,15.2402344 L34.1320312,14.5546875 L34.4835937,15.1816406 C34.7648437,15.0449219 35.0529297,14.9287109 35.3478515,14.8330078 C35.6427734,14.7373047 35.9933594,14.6894531 36.3996093,14.6894531 C36.8488281,14.6894531 37.2277343,14.7509766 37.5363281,14.8740234 C37.8449219,14.9970703 38.0929687,15.1689453 38.2804687,15.3896484 C38.4679687,15.6103516 38.6017577,15.8681641 38.6818359,16.1630859 C38.761914,16.4580078 38.8019531,16.7734375 38.8019531,17.109375 L38.8019531,21 L37.0382812,21 L37.0382812,17.2441406 C37.0382812,16.8535156 36.9621093,16.5800782 36.8097656,16.4238281 C36.6574218,16.2675781 36.4210937,16.1894531 36.1007812,16.1894531 C35.8546875,16.1894531 35.6291015,16.21875 35.4240234,16.2773438 C35.2189453,16.3359375 35.0207031,16.4101563 34.8292968,16.5 L34.8292968,21 L33.065625,21 L33.065625,16.3828125 L32.6320312,15.2402344 Z M40.8035156,17.9414062 C40.8035156,17.484375 40.8728515,17.0576172 41.0115234,16.6611328 C41.1501953,16.2646484 41.3542968,15.9208985 41.6238281,15.6298828 C41.8933593,15.3388672 42.2253906,15.109375 42.6199218,14.9414062 C43.014453,14.7734375 43.4714843,14.6894531 43.9910156,14.6894531 C44.5417968,14.6894531 45.0183593,14.7734375 45.4207031,14.9414062 C45.8230468,15.109375 46.1521483,15.3388672 46.4080077,15.6298828 C46.6638671,15.9208985 46.8533202,16.2646484 46.9763671,16.6611328 C47.099414,17.0576172 47.1609374,17.484375 47.1609374,17.9414062 C47.1609374,18.3984375 47.0955077,18.8242188 46.9646484,19.21875 C46.833789,19.6132812 46.6355468,19.9589843 46.3699218,20.2558594 C46.1042968,20.5527344 45.7742186,20.7851562 45.3796874,20.953125 C44.9851562,21.1210938 44.5222656,21.2050781 43.9910156,21.2050781 C43.4402343,21.2050781 42.967578,21.1210938 42.5730468,20.953125 C42.1785156,20.7851562 41.8484374,20.5527344 41.5828124,20.2558594 C41.3171875,19.9589843 41.1208984,19.6123047 40.9939452,19.2158203 C40.8669921,18.8193359 40.8035156,18.3945312 40.8035156,17.9414062 Z M42.6140624,17.9414062 C42.6101561,19.15625 43.0691406,19.7636719 43.9910156,19.7636719 C44.8933593,19.7636719 45.3464843,19.15625 45.3503906,17.9414062 C45.3503906,16.734375 44.8972656,16.1308594 43.9910156,16.1308594 C43.0691406,16.1308594 42.6101561,16.734375 42.6140624,17.9414062 Z M48.851953,17.9882812 C48.851953,17.5234375 48.9281249,17.0888672 49.0804687,16.6845703 C49.2328124,16.2802734 49.452539,15.930664 49.7396483,15.6357422 C50.0267577,15.3408203 50.3783202,15.109375 50.7943358,14.9414062 C51.2103515,14.7734375 51.6820312,14.6894531 52.2093749,14.6894531 C52.6898437,14.6894531 53.1224608,14.7294922 53.5072265,14.8095703 C53.8919921,14.8896485 54.2347656,14.9980469 54.5355468,15.1347656 L53.9847655,16.5 C53.7699217,16.421875 53.5824217,16.3603516 53.4222655,16.3154297 C53.2621093,16.2705078 53.1185546,16.2363281 52.9916015,16.2128906 C52.8646483,16.1894531 52.7445311,16.1757813 52.6312499,16.171875 C52.5179687,16.1679687 52.4007812,16.1660156 52.2796874,16.1660156 C52.0140624,16.1660156 51.7816405,16.211914 51.5824218,16.3037109 C51.383203,16.3955078 51.2142577,16.5214844 51.0755858,16.6816406 C50.9369139,16.8417968 50.8314452,17.03125 50.7591796,17.25 C50.686914,17.46875 50.6507812,17.7109375 50.6507812,17.9765625 C50.6507812,18.5507812 50.8070312,18.9882813 51.1195312,19.2890625 C51.4320311,19.5898437 51.8285155,19.7402344 52.3089843,19.7402344 C52.4300781,19.7402344 52.5521483,19.734375 52.6751952,19.7226562 C52.7982421,19.7109375 52.9291014,19.6884766 53.0677733,19.6552734 C53.2064452,19.6220703 53.3597655,19.5761719 53.5277343,19.5175781 C53.6957031,19.4589844 53.8851562,19.3847656 54.0960937,19.2949219 L54.6117187,20.6777344 C54.2523437,20.8378906 53.874414,20.9658203 53.4779296,21.0615234 C53.0814452,21.1572265 52.6624999,21.2050781 52.2210937,21.2050781 C51.6351562,21.2050781 51.1312499,21.125 50.7093749,20.9648438 C50.2874999,20.8046875 49.9378905,20.5820313 49.6605468,20.296875 C49.3832031,20.0117187 49.1791014,19.6738282 49.0482421,19.2832031 C48.9173827,18.8925781 48.851953,18.4609375 48.851953,17.9882812 Z M56.0624999,17.9648438 C56.0624999,17.5390625 56.1298827,17.1289062 56.2646483,16.734375 C56.3994139,16.3398438 56.6035155,15.9902344 56.876953,15.6855469 C57.1503905,15.3808594 57.4824217,15.1386719 57.8730468,14.9589844 C58.2636718,14.7792968 58.7187499,14.6894531 59.2382811,14.6894531 C59.7265624,14.6894531 60.1474608,14.765625 60.5009764,14.9179688 C60.854492,15.0703125 61.1464843,15.288086 61.376953,15.5712891 C61.6074217,15.8544922 61.7792968,16.1982422 61.892578,16.6025391 C62.0058592,17.0068359 62.0624999,17.4570312 62.0624999,17.953125 L61.5585936,18.4335938 L57.9433593,18.4335938 C57.9589843,18.8164062 58.1093749,19.1279297 58.3945311,19.3681641 C58.6796874,19.6083984 59.0781249,19.7285156 59.5898436,19.7285156 C59.8945311,19.7285156 60.2070311,19.6923828 60.5273436,19.6201172 C60.8476562,19.5478516 61.1992187,19.4433593 61.5820311,19.3066406 L62.0507811,20.6542969 C61.7304686,20.7910156 61.3476561,20.9169922 60.9023436,21.0322266 C60.4570311,21.147461 59.9667967,21.2050781 59.4316405,21.2050781 C58.814453,21.2050781 58.2919921,21.125 57.8642577,20.9648438 C57.4365233,20.8046875 57.0888671,20.5800781 56.8212889,20.2910156 C56.5537108,20.0019532 56.3603514,19.6601562 56.2412108,19.265625 C56.1220702,18.8710938 56.0624999,18.4375 56.0624999,17.9648438 Z M57.9667968,17.2792969 L60.2109374,17.2792969 C60.2031249,16.8730469 60.1035155,16.5771485 59.9121093,16.3916016 C59.720703,16.2060547 59.4843749,16.1132812 59.2031249,16.1132812 C58.8671874,16.1132812 58.5839842,16.2236328 58.3535155,16.4443359 C58.1230468,16.6650391 57.9941405,16.9433594 57.9667968,17.2792969 Z M67.1027342,15.2402344 L68.5792967,14.5546875 L68.942578,15.1816406 C69.1730467,15.0527344 69.4406248,14.9384766 69.7453123,14.8388672 C70.0499998,14.7392578 70.3859373,14.6894531 70.7531248,14.6894531 C71.1124998,14.6894531 71.4240233,14.7353515 71.6876951,14.8271484 C71.951367,14.9189453 72.1671873,15.0410156 72.3351561,15.1933594 C72.6007811,15.0722656 72.9074217,14.9580078 73.255078,14.8505859 C73.6027342,14.7431641 73.9562499,14.6894531 74.3156248,14.6894531 C74.7570311,14.6894531 75.1193358,14.7509766 75.4025389,14.8740234 C75.685742,14.9970703 75.9113279,15.1689453 76.0792967,15.3896484 C76.2472655,15.6103516 76.3654295,15.8681641 76.4337889,16.1630859 C76.5021483,16.4580078 76.536328,16.7734375 76.536328,17.109375 L76.536328,21 L74.7843748,21 L74.7843748,17.2558594 C74.7843748,16.8496094 74.7208983,16.5703125 74.5939451,16.4179688 C74.466992,16.265625 74.2628905,16.1894531 73.9816405,16.1894531 C73.8058592,16.1894531 73.6154295,16.2128906 73.4103514,16.2597656 C73.2052733,16.3066406 73.0226561,16.3710938 72.8624998,16.453125 C72.8937498,16.5664062 72.9142576,16.6884766 72.9240233,16.8193359 C72.9337889,16.9501953 72.9386717,17.0839844 72.9386717,17.2207031 L72.9386717,21 L71.1749998,21 L71.1749998,17.2558594 C71.1749998,16.8574219 71.1183592,16.5800782 71.005078,16.4238281 C70.8917967,16.2675781 70.6828123,16.1894531 70.3781248,16.1894531 C70.1789061,16.1894531 69.9874998,16.21875 69.8039061,16.2773438 C69.6203124,16.3359375 69.4484373,16.40625 69.2882811,16.4882812 L69.2882811,21 L67.536328,21 L67.536328,16.3828125 L67.1027342,15.2402344 Z M78.4617186,19.2363281 C78.4617186,18.8691406 78.5320311,18.5576172 78.6726561,18.3017578 C78.8132811,18.0458984 79.0017577,17.8398438 79.2380857,17.6835938 C79.4744138,17.5273437 79.7400389,17.4150391 80.0349607,17.3466797 C80.3298826,17.2783203 80.6335936,17.2441406 80.9460936,17.2441406 L82.2292967,17.2441406 L82.2292967,17.0273438 C82.2292967,16.6914063 82.1374998,16.453125 81.9539061,16.3125 C81.7703123,16.171875 81.5183592,16.1015625 81.1980467,16.1015625 C80.9519529,16.1015625 80.6990232,16.1220703 80.4392576,16.1630859 C80.179492,16.2041016 79.8484373,16.2929688 79.4460936,16.4296875 L78.9773436,15.1582031 C79.313281,15.0292969 79.6853513,14.9189453 80.0935545,14.8271484 C80.5017577,14.7353515 80.9499998,14.6894531 81.4382811,14.6894531 C81.9499998,14.6894531 82.3699217,14.7490235 82.6980467,14.8681641 C83.0261717,14.9873047 83.2849608,15.1572265 83.4744139,15.3779297 C83.663867,15.5986328 83.7937498,15.8632812 83.8640623,16.171875 C83.9343748,16.4804688 83.9695311,16.8261719 83.9695311,17.2089844 L83.9695311,19.546875 L84.5613279,20.4023438 L83.3132811,21.2753906 L82.7976561,20.6660156 C82.5906248,20.7871094 82.3123045,20.9072266 81.9626951,21.0263672 C81.6130857,21.1455078 81.2312498,21.2050781 80.8171873,21.2050781 C80.4890623,21.2050781 80.1824217,21.1689453 79.8972654,21.0966797 C79.6121092,21.0244141 79.3640623,20.9101563 79.1531248,20.7539062 C78.9421873,20.5976562 78.7742185,20.3955078 78.6492186,20.1474609 C78.5242186,19.8994141 78.4617186,19.5957031 78.4617186,19.2363281 Z M80.2371092,19.1777344 C80.2371092,19.4238281 80.311328,19.609375 80.4597654,19.734375 C80.6082029,19.859375 80.8191404,19.921875 81.0925779,19.921875 C81.3308592,19.921875 81.5447264,19.8896484 81.7341795,19.8251953 C81.9236326,19.7607422 82.0984373,19.6757812 82.2585936,19.5703125 L82.2585936,18.4570312 L81.0691404,18.4570312 C80.8113279,18.4570312 80.6082029,18.5205078 80.4597654,18.6474609 C80.311328,18.7744141 80.2371092,18.9511718 80.2371092,19.1777344 Z M80.4363279,13.4882812 L82.0066404,11.0742188 L83.3601561,12.0234375 L81.4558592,14.2089844 L80.4363279,13.4882812 Z M85.9124998,20.7480469 L86.322656,19.3066406 C86.369531,19.3300781 86.463281,19.366211 86.603906,19.4150391 C86.744531,19.4638672 86.9105466,19.5146484 87.1019529,19.5673828 C87.2933592,19.6201172 87.501367,19.6640625 87.7259763,19.6992188 C87.9505857,19.734375 88.1703123,19.7519531 88.385156,19.7519531 C88.697656,19.7519531 88.9437498,19.7021484 89.1234373,19.6025391 C89.3031248,19.5029297 89.3929685,19.3730468 89.3929685,19.2128906 C89.3929685,19.1074219 89.3666013,19.0253906 89.313867,18.9667969 C89.2611326,18.9082031 89.1791013,18.8583984 89.0677732,18.8173828 C88.9564451,18.7763672 88.8167967,18.7363282 88.6488279,18.6972656 C88.4808591,18.6582031 88.2816404,18.609375 88.0511717,18.5507812 C87.8597654,18.5039062 87.6537108,18.4482422 87.4330076,18.3837891 C87.2123044,18.3193359 87.0062498,18.2236328 86.8148435,18.0966797 C86.6234373,17.9697265 86.463281,17.7978516 86.3343748,17.5810547 C86.2054685,17.3642578 86.1410154,17.0800781 86.1410154,16.7285156 C86.1410154,16.4472656 86.1927732,16.1826172 86.2962888,15.9345703 C86.3998045,15.6865235 86.5580076,15.4707031 86.7708982,15.2871094 C86.9837888,15.1035157 87.2562498,14.9580078 87.588281,14.8505859 C87.9203123,14.7431641 88.3148435,14.6894531 88.7718748,14.6894531 C89.2992185,14.6894531 89.7728513,14.7431641 90.1927732,14.8505859 C90.6126951,14.9580078 90.9378904,15.0683594 91.1683592,15.1816406 L90.6761717,16.4765625 C90.3636717,16.3632813 90.0541013,16.2744141 89.7474607,16.2099609 C89.4408201,16.1455078 89.1390623,16.1132812 88.8421873,16.1132812 C88.2171873,16.1132812 87.9046873,16.2773438 87.9046873,16.6054688 C87.9046873,16.71875 87.9369138,16.8095703 88.001367,16.8779297 C88.0658201,16.9462891 88.1498044,17.0019532 88.2533201,17.0449219 C88.3568358,17.0878906 88.478906,17.1259765 88.619531,17.1591797 C88.760156,17.1923828 88.9066404,17.2246094 89.0589842,17.2558594 C89.3167967,17.3105468 89.5707029,17.3720703 89.8207029,17.4404297 C90.0707029,17.5087891 90.298242,17.609375 90.5033201,17.7421875 C90.7083982,17.875 90.8724607,18.0507813 90.9955076,18.2695312 C91.1185545,18.4882812 91.1800779,18.7753906 91.1800779,19.1308594 C91.1800779,19.7558594 90.9398435,20.2578125 90.4593748,20.6367188 C89.978906,21.015625 89.260156,21.2050781 88.3031248,21.2050781 C88.0374998,21.2050781 87.7767576,21.1865234 87.5208982,21.1494141 C87.2650388,21.1123047 87.0287107,21.0703125 86.8119138,21.0234375 C86.595117,20.9765625 86.4095701,20.9267578 86.2552732,20.8740234 C86.1009764,20.8212891 85.9867186,20.7792968 85.9124998,20.7480469 Z M15.2753906,33.7480469 L15.6855469,32.3066406 C15.7324219,32.3300781 15.8261719,32.366211 15.9667969,32.4150391 C16.1074219,32.4638672 16.2734375,32.5146484 16.4648438,32.5673828 C16.65625,32.6201172 16.8642578,32.6640625 17.0888672,32.6992188 C17.3134765,32.734375 17.5332031,32.7519531 17.7480469,32.7519531 C18.0605468,32.7519531 18.3066406,32.7021484 18.4863281,32.6025391 C18.6660157,32.5029297 18.7558594,32.3730468 18.7558594,32.2128906 C18.7558594,32.1074219 18.7294922,32.0253906 18.6767578,31.9667969 C18.6240234,31.9082031 18.5419922,31.8583984 18.4306641,31.8173828 C18.3193359,31.7763672 18.1796875,31.7363282 18.0117188,31.6972656 C17.84375,31.6582031 17.6445312,31.609375 17.4140625,31.5507812 C17.2226562,31.5039062 17.0166016,31.4482422 16.7958984,31.3837891 C16.5751953,31.3193359 16.3691407,31.2236328 16.1777344,31.0966797 C15.9863281,30.9697265 15.8261719,30.7978516 15.6972656,30.5810547 C15.5683594,30.3642578 15.5039062,30.0800781 15.5039062,29.7285156 C15.5039062,29.4472656 15.555664,29.1826172 15.6591797,28.9345703 C15.7626953,28.6865235 15.9208985,28.4707031 16.1337891,28.2871094 C16.3466797,28.1035157 16.6191406,27.9580078 16.9511719,27.8505859 C17.2832032,27.7431641 17.6777344,27.6894531 18.1347656,27.6894531 C18.6621094,27.6894531 19.1357422,27.7431641 19.5556641,27.8505859 C19.975586,27.9580078 20.3007813,28.0683594 20.53125,28.1816406 L20.0390625,29.4765625 C19.7265625,29.3632813 19.4169922,29.2744141 19.1103516,29.2099609 C18.803711,29.1455078 18.5019532,29.1132812 18.2050781,29.1132812 C17.5800781,29.1132812 17.2675781,29.2773438 17.2675781,29.6054688 C17.2675781,29.71875 17.2998047,29.8095703 17.3642578,29.8779297 C17.4287109,29.9462891 17.5126953,30.0019532 17.6162109,30.0449219 C17.7197266,30.0878906 17.8417969,30.1259765 17.9824219,30.1591797 C18.1230469,30.1923828 18.2695312,30.2246094 18.421875,30.2558594 C18.6796875,30.3105468 18.9335937,30.3720703 19.1835938,30.4404297 C19.4335938,30.5087891 19.6611328,30.609375 19.8662109,30.7421875 C20.0712891,30.875 20.2353516,31.0507813 20.3583984,31.2695312 C20.4814453,31.4882812 20.5429688,31.7753906 20.5429688,32.1308594 C20.5429688,32.7558594 20.3027344,33.2578125 19.8222656,33.6367188 C19.3417969,34.015625 18.6230468,34.2050781 17.6660156,34.2050781 C17.4003907,34.2050781 17.1396485,34.1865234 16.8837891,34.1494141 C16.6279297,34.1123047 16.3916016,34.0703125 16.1748047,34.0234375 C15.9580078,33.9765625 15.7724609,33.9267578 15.6181641,33.8740234 C15.4638672,33.8212891 15.3496094,33.7792968 15.2753906,33.7480469 Z M22.2105469,30.9414062 C22.2105469,30.484375 22.2798828,30.0576172 22.4185547,29.6611328 C22.5572266,29.2646484 22.7613281,28.9208985 23.0308594,28.6298828 C23.3003906,28.3388672 23.6324219,28.109375 24.0269531,27.9414062 C24.4214843,27.7734375 24.8785156,27.6894531 25.3980469,27.6894531 C25.9488281,27.6894531 26.4253906,27.7734375 26.8277344,27.9414062 C27.2300781,28.109375 27.5591796,28.3388672 27.815039,28.6298828 C28.0708984,28.9208985 28.2603515,29.2646484 28.3833984,29.6611328 C28.5064453,30.0576172 28.5679687,30.484375 28.5679687,30.9414062 C28.5679687,31.3984375 28.502539,31.8242188 28.3716797,32.21875 C28.2408203,32.6132812 28.0425781,32.9589843 27.7769531,33.2558594 C27.5113281,33.5527344 27.1812499,33.7851562 26.7867187,33.953125 C26.3921875,34.1210938 25.9292969,34.2050781 25.3980469,34.2050781 C24.8472656,34.2050781 24.3746093,34.1210938 23.9800781,33.953125 C23.5855469,33.7851562 23.2554687,33.5527344 22.9898437,33.2558594 C22.7242188,32.9589843 22.5279297,32.6123047 22.4009765,32.2158203 C22.2740234,31.8193359 22.2105469,31.3945312 22.2105469,30.9414062 Z M24.0210937,30.9414062 C24.0171874,32.15625 24.4761719,32.7636719 25.3980469,32.7636719 C26.3003906,32.7636719 26.7535156,32.15625 26.7574219,30.9414062 C26.7574219,29.734375 26.3042969,29.1308594 25.3980469,29.1308594 C24.4761719,29.1308594 24.0171874,29.734375 24.0210937,30.9414062 Z M30.628125,33.8535156 L30.628125,25.3457031 L32.3800781,25.3457031 L32.3800781,27.8945312 C32.5480469,27.8320312 32.7482421,27.7822265 32.980664,27.7451172 C33.2130859,27.7080078 33.4445312,27.6894531 33.675,27.6894531 C34.0890625,27.6894531 34.4728515,27.7568359 34.8263671,27.8916016 C35.1798827,28.0263672 35.4826171,28.2304687 35.7345703,28.5039062 C35.9865234,28.7773438 36.1828125,29.1113282 36.3234375,29.5058594 C36.4640625,29.9003906 36.534375,30.3632812 36.534375,30.8945312 C36.534375,31.390625 36.4621094,31.8417969 36.3175781,32.2480469 C36.1730468,32.6542968 35.9601562,33.0019532 35.6789062,33.2910156 C35.3976562,33.5800781 35.0558594,33.8046875 34.6535156,33.9648438 C34.2511718,34.125 33.784375,34.2050781 33.253125,34.2050781 C32.9171875,34.2050781 32.5158203,34.1826172 32.0490234,34.1376953 C31.5822265,34.0927734 31.1085937,33.9980469 30.628125,33.8535156 Z M32.3800781,32.6816406 C32.5089843,32.7128906 32.6408203,32.734375 32.7755859,32.7460938 C32.9103515,32.7578125 33.0734374,32.7636719 33.2648437,32.7636719 C33.4640625,32.7636719 33.6544921,32.7294922 33.8361328,32.6611328 C34.0177734,32.5927734 34.1740234,32.484375 34.3048828,32.3359375 C34.4357421,32.1875 34.5392578,31.9980468 34.6154296,31.7675781 C34.6916015,31.5371094 34.7296875,31.2578125 34.7296875,30.9296875 C34.7296875,30.2890625 34.5998046,29.834961 34.340039,29.5673828 C34.0802734,29.2998047 33.7589843,29.1660156 33.3761718,29.1660156 C33.0246093,29.1660156 32.692578,29.2246094 32.3800781,29.3417969 L32.3800781,32.6816406 Z M38.1257812,29.3183594 L38.1257812,27.8945312 L40.0124999,27.8945312 L40.2527343,28.4570312 C40.5652343,28.21875 40.8572265,28.0449219 41.1287109,27.9355469 C41.4001952,27.8261718 41.6824218,27.7714844 41.9753906,27.7714844 C42.1121093,27.7714844 42.2605468,27.7773438 42.4207031,27.7890625 C42.5808593,27.8007812 42.7410156,27.8359375 42.9011718,27.8945312 L42.6374999,29.3066406 C42.5164061,29.2753907 42.411914,29.2558593 42.3240234,29.2480469 C42.2361327,29.2402344 42.1257812,29.2363281 41.9929687,29.2363281 C41.6882812,29.2363281 41.427539,29.2900391 41.2107421,29.3974609 C40.9939452,29.5048828 40.825,29.6152344 40.7039062,29.7285156 L40.7039062,34 L38.9402343,34 L38.9402343,29.3183594 L38.1257812,29.3183594 Z M44.1117187,30.9648438 C44.1117187,30.5390625 44.1791015,30.1289062 44.3138671,29.734375 C44.4486327,29.3398438 44.6527342,28.9902344 44.9261718,28.6855469 C45.1996093,28.3808594 45.5316405,28.1386719 45.9222655,27.9589844 C46.3128906,27.7792968 46.7679686,27.6894531 47.2874999,27.6894531 C47.7757811,27.6894531 48.1966796,27.765625 48.5501952,27.9179688 C48.9037108,28.0703125 49.1957031,28.288086 49.4261718,28.5712891 C49.6566405,28.8544922 49.8285156,29.1982422 49.9417968,29.6025391 C50.055078,30.0068359 50.1117187,30.4570312 50.1117187,30.953125 L49.6078124,31.4335938 L45.992578,31.4335938 C46.0082031,31.8164062 46.1585936,32.1279297 46.4437499,32.3681641 C46.7289062,32.6083984 47.1273437,32.7285156 47.6390624,32.7285156 C47.9437499,32.7285156 48.2562499,32.6923828 48.5765624,32.6201172 C48.8968749,32.5478516 49.2484374,32.4433593 49.6312499,32.3066406 L50.0999999,33.6542969 C49.7796874,33.7910156 49.3968749,33.9169922 48.9515624,34.0322266 C48.5062499,34.147461 48.0160155,34.2050781 47.4808593,34.2050781 C46.8636718,34.2050781 46.3412108,34.125 45.9134765,33.9648438 C45.4857421,33.8046875 45.1380859,33.5800781 44.8705077,33.2910156 C44.6029296,33.0019532 44.4095702,32.6601562 44.2904296,32.265625 C44.171289,31.8710938 44.1117187,31.4375 44.1117187,30.9648438 Z M46.0160155,30.2792969 L48.2601562,30.2792969 C48.2523437,29.8730469 48.1527343,29.5771485 47.961328,29.3916016 C47.7699217,29.2060547 47.5335937,29.1132812 47.2523437,29.1132812 C46.9164062,29.1132812 46.633203,29.2236328 46.4027343,29.4443359 C46.1722656,29.6650391 46.0433593,29.9433594 46.0160155,30.2792969 Z M55.151953,28.2402344 L56.651953,27.5546875 L57.0035155,28.1816406 C57.2847655,28.0449219 57.5728514,27.9287109 57.8677733,27.8330078 C58.1626951,27.7373047 58.5132811,27.6894531 58.9195311,27.6894531 C59.3687499,27.6894531 59.7476561,27.7509766 60.0562499,27.8740234 C60.3648436,27.9970703 60.6128905,28.1689453 60.8003905,28.3896484 C60.9878905,28.6103516 61.1216795,28.8681641 61.2017577,29.1630859 C61.2818358,29.4580078 61.3218749,29.7734375 61.3218749,30.109375 L61.3218749,34 L59.558203,34 L59.558203,30.2441406 C59.558203,29.8535156 59.4820311,29.5800782 59.3296874,29.4238281 C59.1773436,29.2675781 58.9410155,29.1894531 58.620703,29.1894531 C58.3746092,29.1894531 58.1490233,29.21875 57.9439452,29.2773438 C57.738867,29.3359375 57.5406249,29.4101563 57.3492186,29.5 L57.3492186,34 L55.5855467,34 L55.5855467,29.3828125 L55.151953,28.2402344 Z M63.5636717,31.7792969 L63.5636717,27.8945312 L65.3156248,27.8945312 L65.3156248,31.6738281 C65.3156248,32.0722656 65.4093748,32.3457032 65.5968748,32.4941406 C65.7843748,32.6425781 66.0265623,32.7167969 66.3234373,32.7167969 C66.5617186,32.7167969 66.7726561,32.6845703 66.9562498,32.6201172 C67.1398436,32.5556641 67.3234374,32.4804688 67.5070311,32.3945312 L67.5070311,27.8945312 L69.2589842,27.8945312 L69.2589842,32.6054688 L69.8156248,33.4023438 L68.5441405,34.3222656 L67.9171873,33.6894531 C67.6593748,33.8261718 67.3791014,33.946289 67.076367,34.0498047 C66.7736326,34.1533203 66.4015623,34.2050781 65.9601561,34.2050781 C65.5187499,34.2050781 65.1466796,34.1425781 64.8439451,34.0175781 C64.5412107,33.8925782 64.2941405,33.7226563 64.1027342,33.5078125 C63.9113279,33.2929687 63.7736326,33.0371094 63.6896483,32.7402344 C63.6056639,32.4433593 63.5636717,32.1230469 63.5636717,31.7792969 Z M71.3484373,30.9648438 C71.3484373,30.5390625 71.4158201,30.1289062 71.5505857,29.734375 C71.6853514,29.3398438 71.8894529,28.9902344 72.1628904,28.6855469 C72.436328,28.3808594 72.7683592,28.1386719 73.1589842,27.9589844 C73.5496092,27.7792968 74.0046873,27.6894531 74.5242186,27.6894531 C75.0124998,27.6894531 75.4333983,27.765625 75.7869139,27.9179688 C76.1404295,28.0703125 76.4324217,28.288086 76.6628904,28.5712891 C76.8933592,28.8544922 77.0652342,29.1982422 77.1785154,29.6025391 C77.2917967,30.0068359 77.3484373,30.4570312 77.3484373,30.953125 L76.8445311,31.4335938 L73.2292967,31.4335938 C73.2449217,31.8164062 73.3953123,32.1279297 73.6804686,32.3681641 C73.9656248,32.6083984 74.3640623,32.7285156 74.8757811,32.7285156 C75.1804686,32.7285156 75.4929685,32.6923828 75.8132811,32.6201172 C76.1335936,32.5478516 76.4851561,32.4433593 76.8679686,32.3066406 L77.3367186,33.6542969 C77.016406,33.7910156 76.6335936,33.9169922 76.1882811,34.0322266 C75.7429686,34.147461 75.2527342,34.2050781 74.7175779,34.2050781 C74.1003905,34.2050781 73.5779295,34.125 73.1501951,33.9648438 C72.7224607,33.8046875 72.3748045,33.5800781 72.1072264,33.2910156 C71.8396482,33.0019532 71.6462888,32.6601562 71.5271482,32.265625 C71.4080077,31.8710938 71.3484373,31.4375 71.3484373,30.9648438 Z M73.2527342,30.2792969 L75.4968748,30.2792969 C75.4890623,29.8730469 75.389453,29.5771485 75.1980467,29.3916016 C75.0066404,29.2060547 74.7703123,29.1132812 74.4890623,29.1132812 C74.1531248,29.1132812 73.8699217,29.2236328 73.6394529,29.4443359 C73.4089842,29.6650391 73.280078,29.9433594 73.2527342,30.2792969 Z M79.0218748,33.7480469 L79.432031,32.3066406 C79.478906,32.3300781 79.572656,32.366211 79.713281,32.4150391 C79.853906,32.4638672 80.0199216,32.5146484 80.2113279,32.5673828 C80.4027342,32.6201172 80.610742,32.6640625 80.8353513,32.6992188 C81.0599607,32.734375 81.2796873,32.7519531 81.494531,32.7519531 C81.807031,32.7519531 82.0531248,32.7021484 82.2328123,32.6025391 C82.4124998,32.5029297 82.5023435,32.3730468 82.5023435,32.2128906 C82.5023435,32.1074219 82.4759763,32.0253906 82.423242,31.9667969 C82.3705076,31.9082031 82.2884763,31.8583984 82.1771482,31.8173828 C82.0658201,31.7763672 81.9261717,31.7363282 81.7582029,31.6972656 C81.5902341,31.6582031 81.3910154,31.609375 81.1605467,31.5507812 C80.9691404,31.5039062 80.7630858,31.4482422 80.5423826,31.3837891 C80.3216794,31.3193359 80.1156248,31.2236328 79.9242185,31.0966797 C79.7328123,30.9697265 79.572656,30.7978516 79.4437498,30.5810547 C79.3148435,30.3642578 79.2503904,30.0800781 79.2503904,29.7285156 C79.2503904,29.4472656 79.3021482,29.1826172 79.4056638,28.9345703 C79.5091795,28.6865235 79.6673826,28.4707031 79.8802732,28.2871094 C80.0931638,28.1035157 80.3656248,27.9580078 80.697656,27.8505859 C81.0296873,27.7431641 81.4242185,27.6894531 81.8812498,27.6894531 C82.4085935,27.6894531 82.8822263,27.7431641 83.3021482,27.8505859 C83.7220701,27.9580078 84.0472654,28.0683594 84.2777342,28.1816406 L83.7855467,29.4765625 C83.4730467,29.3632813 83.1634763,29.2744141 82.8568357,29.2099609 C82.5501951,29.1455078 82.2484373,29.1132812 81.9515623,29.1132812 C81.3265623,29.1132812 81.0140623,29.2773438 81.0140623,29.6054688 C81.0140623,29.71875 81.0462888,29.8095703 81.110742,29.8779297 C81.1751951,29.9462891 81.2591794,30.0019532 81.3626951,30.0449219 C81.4662108,30.0878906 81.588281,30.1259765 81.728906,30.1591797 C81.869531,30.1923828 82.0160154,30.2246094 82.1683592,30.2558594 C82.4261717,30.3105468 82.6800779,30.3720703 82.9300779,30.4404297 C83.1800779,30.5087891 83.407617,30.609375 83.6126951,30.7421875 C83.8177732,30.875 83.9818357,31.0507813 84.1048826,31.2695312 C84.2279295,31.4882812 84.2894529,31.7753906 84.2894529,32.1308594 C84.2894529,32.7558594 84.0492185,33.2578125 83.5687498,33.6367188 C83.088281,34.015625 82.369531,34.2050781 81.4124998,34.2050781 C81.1468748,34.2050781 80.8861326,34.1865234 80.6302732,34.1494141 C80.3744138,34.1123047 80.1380857,34.0703125 79.9212888,34.0234375 C79.704492,33.9765625 79.5189451,33.9267578 79.3646482,33.8740234 C79.2103514,33.8212891 79.0960936,33.7792968 79.0218748,33.7480469 Z M85.8222654,29.3183594 L85.8222654,27.8945312 L86.6367185,27.8945312 L86.6367185,26.2011719 L88.3652341,26.2011719 L88.3652341,27.8945312 L90.1874998,27.8945312 L90.1874998,29.3183594 L88.3652341,29.3183594 L88.3652341,31.9140625 C88.3652341,32.2421875 88.4453123,32.4638672 88.6054685,32.5791016 C88.7656247,32.694336 88.9609373,32.7519531 89.191406,32.7519531 C89.3437498,32.7519531 89.5097654,32.7382813 89.6894529,32.7109375 C89.8691404,32.6835937 90.0878904,32.6367187 90.3457029,32.5703125 L90.6679685,33.8828125 C90.5546873,33.921875 90.4248044,33.9609375 90.2783201,34 C90.1318357,34.0390625 89.9765623,34.0732422 89.8124998,34.1025391 C89.6484373,34.1318359 89.4804685,34.15625 89.3085935,34.1757812 C89.1367185,34.1953125 88.9746091,34.2050781 88.8222654,34.2050781 C88.4941404,34.2050781 88.1962889,34.1689453 87.9287107,34.0966797 C87.6611325,34.0244141 87.4306638,33.9082031 87.2373044,33.7480469 C87.0439451,33.5878907 86.8955076,33.3779297 86.7919919,33.1181641 C86.6884763,32.8583985 86.6367185,32.5371093 86.6367185,32.1542969 L86.6367185,29.3183594 L85.8222654,29.3183594 Z M91.9488279,29.3183594 L91.9488279,27.8945312 L93.8355466,27.8945312 L94.075781,28.4570312 C94.388281,28.21875 94.6802732,28.0449219 94.9517576,27.9355469 C95.2232419,27.8261718 95.5054685,27.7714844 95.7984372,27.7714844 C95.935156,27.7714844 96.0835935,27.7773438 96.2437497,27.7890625 C96.403906,27.8007812 96.5640623,27.8359375 96.7242185,27.8945312 L96.4605466,29.3066406 C96.3394528,29.2753907 96.2349607,29.2558593 96.1470701,29.2480469 C96.0591794,29.2402344 95.9488279,29.2363281 95.8160154,29.2363281 C95.5113279,29.2363281 95.2505857,29.2900391 95.0337888,29.3974609 C94.8169919,29.5048828 94.6480466,29.6152344 94.5269529,29.7285156 L94.5269529,34 L92.763281,34 L92.763281,29.3183594 L91.9488279,29.3183594 Z M97.9347653,30.9414062 C97.9347653,30.484375 98.0041012,30.0576172 98.1427732,29.6611328 C98.2814451,29.2646484 98.4855466,28.9208985 98.7550778,28.6298828 C99.0246091,28.3388672 99.3566404,28.109375 99.7511716,27.9414062 C100.145703,27.7734375 100.602734,27.6894531 101.122265,27.6894531 C101.673047,27.6894531 102.149609,27.7734375 102.551953,27.9414062 C102.954297,28.109375 103.283398,28.3388672 103.539258,28.6298828 C103.795117,28.9208985 103.98457,29.2646484 104.107617,29.6611328 C104.230664,30.0576172 104.292187,30.484375 104.292187,30.9414062 C104.292187,31.3984375 104.226757,31.8242188 104.095898,32.21875 C103.965039,32.6132812 103.766797,32.9589843 103.501172,33.2558594 C103.235547,33.5527344 102.905468,33.7851562 102.510937,33.953125 C102.116406,34.1210938 101.653515,34.2050781 101.122265,34.2050781 C100.571484,34.2050781 100.098828,34.1210938 99.7042966,33.953125 C99.3097654,33.7851562 98.9796872,33.5527344 98.7140622,33.2558594 C98.4484372,32.9589843 98.2521482,32.6123047 98.125195,32.2158203 C97.9982419,31.8193359 97.9347653,31.3945312 97.9347653,30.9414062 Z M99.7453122,30.9414062 C99.7414059,32.15625 100.20039,32.7636719 101.122265,32.7636719 C102.024609,32.7636719 102.477734,32.15625 102.48164,30.9414062 C102.48164,29.734375 102.028515,29.1308594 101.122265,29.1308594 C100.20039,29.1308594 99.7414059,29.734375 99.7453122,30.9414062 Z M105.895312,33.7480469 L106.305468,32.3066406 C106.352343,32.3300781 106.446093,32.366211 106.586718,32.4150391 C106.727343,32.4638672 106.893359,32.5146484 107.084765,32.5673828 C107.276172,32.6201172 107.484179,32.6640625 107.708789,32.6992188 C107.933398,32.734375 108.153125,32.7519531 108.367968,32.7519531 C108.680468,32.7519531 108.926562,32.7021484 109.10625,32.6025391 C109.285937,32.5029297 109.375781,32.3730468 109.375781,32.2128906 C109.375781,32.1074219 109.349414,32.0253906 109.296679,31.9667969 C109.243945,31.9082031 109.161914,31.8583984 109.050586,31.8173828 C108.939258,31.7763672 108.799609,31.7363282 108.63164,31.6972656 C108.463672,31.6582031 108.264453,31.609375 108.033984,31.5507812 C107.842578,31.5039062 107.636523,31.4482422 107.41582,31.3837891 C107.195117,31.3193359 106.989062,31.2236328 106.797656,31.0966797 C106.60625,30.9697265 106.446093,30.7978516 106.317187,30.5810547 C106.188281,30.3642578 106.123828,30.0800781 106.123828,29.7285156 C106.123828,29.4472656 106.175586,29.1826172 106.279101,28.9345703 C106.382617,28.6865235 106.54082,28.4707031 106.753711,28.2871094 C106.966601,28.1035157 107.239062,27.9580078 107.571093,27.8505859 C107.903125,27.7431641 108.297656,27.6894531 108.754687,27.6894531 C109.282031,27.6894531 109.755664,27.7431641 110.175586,27.8505859 C110.595508,27.9580078 110.920703,28.0683594 111.151172,28.1816406 L110.658984,29.4765625 C110.346484,29.3632813 110.036914,29.2744141 109.730273,29.2099609 C109.423633,29.1455078 109.121875,29.1132812 108.825,29.1132812 C108.2,29.1132812 107.8875,29.2773438 107.8875,29.6054688 C107.8875,29.71875 107.919726,29.8095703 107.984179,29.8779297 C108.048633,29.9462891 108.132617,30.0019532 108.236133,30.0449219 C108.339648,30.0878906 108.461718,30.1259765 108.602343,30.1591797 C108.742968,30.1923828 108.889453,30.2246094 109.041797,30.2558594 C109.299609,30.3105468 109.553515,30.3720703 109.803515,30.4404297 C110.053515,30.5087891 110.281054,30.609375 110.486133,30.7421875 C110.691211,30.875 110.855273,31.0507813 110.97832,31.2695312 C111.101367,31.4882812 111.16289,31.7753906 111.16289,32.1308594 C111.16289,32.7558594 110.922656,33.2578125 110.442187,33.6367188 C109.961718,34.015625 109.242968,34.2050781 108.285937,34.2050781 C108.020312,34.2050781 107.75957,34.1865234 107.503711,34.1494141 C107.247851,34.1123047 107.011523,34.0703125 106.794726,34.0234375 C106.577929,33.9765625 106.392382,33.9267578 106.238086,33.8740234 C106.083789,33.8212891 105.969531,33.7792968 105.895312,33.7480469 Z M15.2402344,46.5546875 L15.7441406,45.03125 C16.7753906,45.4453125 17.7148437,45.6542968 18.5625,45.6582031 C19.2109375,45.6582031 19.6835937,45.5576172 19.9804688,45.3564453 C20.2773438,45.1552735 20.4257812,44.8828125 20.4257812,44.5390625 C20.4257812,44.3476562 20.3818359,44.1855469 20.2939453,44.0527344 C20.2060547,43.9199218 20.0820312,43.8095703 19.921875,43.7216797 C19.7617188,43.6337891 19.5673828,43.5605469 19.3388672,43.5019531 C19.1103516,43.4433594 18.859375,43.3886719 18.5859375,43.3378906 C18.2265625,43.2753906 17.8691407,43.1943359 17.5136719,43.0947266 C17.1582031,42.9951172 16.8427734,42.8535156 16.5673828,42.6699219 C16.2919922,42.4863282 16.0683593,42.25 15.8964844,41.9609375 C15.7246094,41.671875 15.6386719,41.3066406 15.6386719,40.8652344 C15.6386719,40.4824219 15.7021484,40.1289062 15.8291016,39.8046875 C15.9560547,39.4804688 16.1611328,39.1982422 16.4443359,38.9580078 C16.727539,38.7177734 17.0976562,38.5302734 17.5546875,38.3955078 C18.0117188,38.2607422 18.5644531,38.1933594 19.2128906,38.1933594 C19.7871094,38.1933594 20.328125,38.2529297 20.8359375,38.3720703 C21.34375,38.4912109 21.7949219,38.6308594 22.1894531,38.7910156 L21.7441406,40.2558594 C21.2636719,40.0878906 20.8076172,39.9580078 20.3759766,39.8662109 C19.9443359,39.774414 19.5234375,39.7285156 19.1132812,39.7285156 C18.5625,39.7285156 18.1572265,39.8105469 17.8974609,39.9746094 C17.6376953,40.1386719 17.5078125,40.3769532 17.5078125,40.6894531 C17.5078125,41.0253906 17.6582032,41.2646485 17.9589844,41.4072266 C18.2597656,41.5498047 18.6777344,41.6699218 19.2128906,41.7675781 C19.5800782,41.8378906 19.9472656,41.9238282 20.3144531,42.0253906 C20.6816407,42.1269531 21.0136718,42.2734375 21.3105469,42.4648438 C21.6074219,42.65625 21.8476563,42.90625 22.03125,43.2148438 C22.2148437,43.5234375 22.3066406,43.921875 22.3066406,44.4101562 C22.3066406,44.8359375 22.2246094,45.2197266 22.0605469,45.5615234 C21.8964844,45.9033203 21.65625,46.196289 21.3398438,46.4404297 C21.0234375,46.6845703 20.6337891,46.8730468 20.1708984,47.0058594 C19.7080078,47.1386719 19.171875,47.2050781 18.5625,47.2050781 C18.1953125,47.2050781 17.84375,47.1826172 17.5078125,47.1376953 C17.171875,47.0927734 16.8623047,47.0390625 16.5791016,46.9765625 C16.2958985,46.9140625 16.0400391,46.8447266 15.8115234,46.7685547 C15.5830078,46.6923828 15.3925781,46.6210937 15.2402344,46.5546875 Z M24.0152344,42.3183594 L24.0152344,40.8945312 L26.5933594,40.8945312 L26.5933594,47 L24.8296875,47 L24.8296875,42.3183594 L24.0152344,42.3183594 Z M24.5308594,39.2128906 C24.5308594,38.9316406 24.6207031,38.6914062 24.8003906,38.4921875 C24.9800781,38.2929688 25.2496094,38.1933594 25.6089844,38.1933594 C25.9527344,38.1933594 26.2154297,38.2929688 26.3970703,38.4921875 C26.5787109,38.6914062 26.6695312,38.9316406 26.6695312,39.2128906 C26.6695312,39.4941406 26.5796875,39.7324219 26.4,39.9277344 C26.2203124,40.1230468 25.9566406,40.2207031 25.6089844,40.2207031 C25.2417968,40.2207031 24.9703125,40.125 24.7945312,39.9335938 C24.61875,39.734375 24.5308594,39.4941406 24.5308594,39.2128906 Z M28.5011718,46.7480469 L28.9113281,45.3066406 C28.9582031,45.3300781 29.0519531,45.366211 29.1925781,45.4150391 C29.3332031,45.4638672 29.4992187,45.5146484 29.690625,45.5673828 C29.8820312,45.6201172 30.090039,45.6640625 30.3146484,45.6992188 C30.5392577,45.734375 30.7589843,45.7519531 30.9738281,45.7519531 C31.286328,45.7519531 31.5324218,45.7021484 31.7121093,45.6025391 C31.8917969,45.5029297 31.9816406,45.3730468 31.9816406,45.2128906 C31.9816406,45.1074219 31.9552734,45.0253906 31.902539,44.9667969 C31.8498046,44.9082031 31.7677734,44.8583984 31.6564453,44.8173828 C31.5451171,44.7763672 31.4054687,44.7363282 31.2375,44.6972656 C31.0695312,44.6582031 30.8703124,44.609375 30.6398437,44.5507812 C30.4484374,44.5039062 30.2423828,44.4482422 30.0216796,44.3837891 C29.8009765,44.3193359 29.5949219,44.2236328 29.4035156,44.0966797 C29.2121093,43.9697265 29.0519531,43.7978516 28.9230468,43.5810547 C28.7941406,43.3642578 28.7296875,43.0800781 28.7296875,42.7285156 C28.7296875,42.4472656 28.7814452,42.1826172 28.8849609,41.9345703 C28.9884765,41.6865235 29.1466797,41.4707031 29.3595703,41.2871094 C29.5724609,41.1035157 29.8449218,40.9580078 30.1769531,40.8505859 C30.5089844,40.7431641 30.9035156,40.6894531 31.3605468,40.6894531 C31.8878906,40.6894531 32.3615234,40.7431641 32.7814453,40.8505859 C33.2013672,40.9580078 33.5265625,41.0683594 33.7570312,41.1816406 L33.2648437,42.4765625 C32.9523437,42.3632813 32.6427734,42.2744141 32.3361328,42.2099609 C32.0294922,42.1455078 31.7277344,42.1132812 31.4308593,42.1132812 C30.8058593,42.1132812 30.4933593,42.2773438 30.4933593,42.6054688 C30.4933593,42.71875 30.5255859,42.8095703 30.590039,42.8779297 C30.6544921,42.9462891 30.7384765,43.0019532 30.8419921,43.0449219 C30.9455078,43.0878906 31.0675781,43.1259765 31.2082031,43.1591797 C31.3488281,43.1923828 31.4953125,43.2246094 31.6476562,43.2558594 C31.9054687,43.3105468 32.1593749,43.3720703 32.409375,43.4404297 C32.659375,43.5087891 32.886914,43.609375 33.0919921,43.7421875 C33.2970703,43.875 33.4611328,44.0507813 33.5841796,44.2695312 C33.7072265,44.4882812 33.76875,44.7753906 33.76875,45.1308594 C33.76875,45.7558594 33.5285156,46.2578125 33.0480468,46.6367188 C32.5675781,47.015625 31.848828,47.2050781 30.8917968,47.2050781 C30.6261719,47.2050781 30.3654297,47.1865234 30.1095703,47.1494141 C29.8537109,47.1123047 29.6173828,47.0703125 29.4005859,47.0234375 C29.183789,46.9765625 28.9982421,46.9267578 28.8439453,46.8740234 C28.6896484,46.8212891 28.5753906,46.7792968 28.5011718,46.7480469 Z M35.3015624,42.3183594 L35.3015624,40.8945312 L36.1160156,40.8945312 L36.1160156,39.2011719 L37.8445312,39.2011719 L37.8445312,40.8945312 L39.6667968,40.8945312 L39.6667968,42.3183594 L37.8445312,42.3183594 L37.8445312,44.9140625 C37.8445312,45.2421875 37.9246093,45.4638672 38.0847656,45.5791016 C38.2449218,45.694336 38.4402343,45.7519531 38.6707031,45.7519531 C38.8230468,45.7519531 38.9890624,45.7382813 39.1687499,45.7109375 C39.3484375,45.6835937 39.5671874,45.6367187 39.8249999,45.5703125 L40.1472656,46.8828125 C40.0339843,46.921875 39.9041015,46.9609375 39.7576171,47 C39.6111327,47.0390625 39.4558593,47.0732422 39.2917968,47.1025391 C39.1277343,47.1318359 38.9597655,47.15625 38.7878906,47.1757812 C38.6160156,47.1953125 38.4539062,47.2050781 38.3015624,47.2050781 C37.9734374,47.2050781 37.6755859,47.1689453 37.4080077,47.0966797 C37.1404296,47.0244141 36.9099609,46.9082031 36.7166015,46.7480469 C36.5232421,46.5878907 36.3748046,46.3779297 36.271289,46.1181641 C36.1677733,45.8583985 36.1160156,45.5371093 36.1160156,45.1542969 L36.1160156,42.3183594 L35.3015624,42.3183594 Z M41.4808593,43.9648438 C41.4808593,43.5390625 41.5482421,43.1289062 41.6830077,42.734375 C41.8177733,42.3398438 42.0218749,41.9902344 42.2953124,41.6855469 C42.5687499,41.3808594 42.9007811,41.1386719 43.2914062,40.9589844 C43.6820312,40.7792968 44.1371092,40.6894531 44.6566405,40.6894531 C45.1449217,40.6894531 45.5658202,40.765625 45.9193358,40.9179688 C46.2728514,41.0703125 46.5648437,41.288086 46.7953124,41.5712891 C47.0257811,41.8544922 47.1976562,42.1982422 47.3109374,42.6025391 C47.4242186,43.0068359 47.4808593,43.4570312 47.4808593,43.953125 L46.976953,44.4335938 L43.3617187,44.4335938 C43.3773437,44.8164062 43.5277342,45.1279297 43.8128905,45.3681641 C44.0980468,45.6083984 44.4964843,45.7285156 45.008203,45.7285156 C45.3128905,45.7285156 45.6253905,45.6923828 45.945703,45.6201172 C46.2660156,45.5478516 46.6175781,45.4433593 47.0003905,45.3066406 L47.4691405,46.6542969 C47.148828,46.7910156 46.7660155,46.9169922 46.320703,47.0322266 C45.8753905,47.147461 45.3851561,47.2050781 44.8499999,47.2050781 C44.2328124,47.2050781 43.7103515,47.125 43.2826171,46.9648438 C42.8548827,46.8046875 42.5072265,46.5800781 42.2396483,46.2910156 C41.9720702,46.0019532 41.7787108,45.6601562 41.6595702,45.265625 C41.5404296,44.8710938 41.4808593,44.4375 41.4808593,43.9648438 Z M43.3851562,43.2792969 L45.6292968,43.2792969 C45.6214843,42.8730469 45.5218749,42.5771485 45.3304687,42.3916016 C45.1390624,42.2060547 44.9027343,42.1132812 44.6214843,42.1132812 C44.2855468,42.1132812 44.0023436,42.2236328 43.7718749,42.4443359 C43.5414062,42.6650391 43.4124999,42.9433594 43.3851562,43.2792969 Z M49.2246093,41.2402344 L50.7011718,40.5546875 L51.064453,41.1816406 C51.2949217,41.0527344 51.5624999,40.9384766 51.8671874,40.8388672 C52.1718749,40.7392578 52.5078124,40.6894531 52.8749999,40.6894531 C53.2343749,40.6894531 53.5458983,40.7353515 53.8095702,40.8271484 C54.0732421,40.9189453 54.2890624,41.0410156 54.4570311,41.1933594 C54.7226561,41.0722656 55.0292968,40.9580078 55.376953,40.8505859 C55.7246092,40.7431641 56.0781249,40.6894531 56.4374999,40.6894531 C56.8789061,40.6894531 57.2412108,40.7509766 57.5244139,40.8740234 C57.807617,40.9970703 58.033203,41.1689453 58.2011718,41.3896484 C58.3691405,41.6103516 58.4873045,41.8681641 58.5556639,42.1630859 C58.6240233,42.4580078 58.658203,42.7734375 58.658203,43.109375 L58.658203,47 L56.9062499,47 L56.9062499,43.2558594 C56.9062499,42.8496094 56.8427733,42.5703125 56.7158202,42.4179688 C56.588867,42.265625 56.3847655,42.1894531 56.1035155,42.1894531 C55.9277343,42.1894531 55.7373046,42.2128906 55.5322264,42.2597656 C55.3271483,42.3066406 55.1445311,42.3710938 54.9843749,42.453125 C55.0156249,42.5664062 55.0361327,42.6884766 55.0458983,42.8193359 C55.055664,42.9501953 55.0605468,43.0839844 55.0605468,43.2207031 L55.0605468,47 L53.2968749,47 L53.2968749,43.2558594 C53.2968749,42.8574219 53.2402342,42.5800782 53.126953,42.4238281 C53.0136718,42.2675781 52.8046874,42.1894531 52.4999999,42.1894531 C52.3007811,42.1894531 52.1093749,42.21875 51.9257811,42.2773438 C51.7421874,42.3359375 51.5703124,42.40625 51.4101561,42.4882812 L51.4101561,47 L49.658203,47 L49.658203,42.3828125 L49.2246093,41.2402344 Z M60.5601561,45.2363281 C60.5601561,44.8691406 60.6304686,44.5576172 60.7710936,44.3017578 C60.9117186,44.0458984 61.1001952,43.8398438 61.3365233,43.6835938 C61.5728514,43.5273437 61.8384764,43.4150391 62.1333983,43.3466797 C62.4283201,43.2783203 62.7320311,43.2441406 63.0445311,43.2441406 L64.3277342,43.2441406 L64.3277342,43.0273438 C64.3277342,42.6914063 64.2359373,42.453125 64.0523436,42.3125 C63.8687499,42.171875 63.6167968,42.1015625 63.2964842,42.1015625 C63.0503905,42.1015625 62.7974608,42.1220703 62.5376952,42.1630859 C62.2779296,42.2041016 61.9468749,42.2929688 61.5445311,42.4296875 L61.0757811,41.1582031 C61.4117186,41.0292969 61.7837889,40.9189453 62.191992,40.8271484 C62.6001952,40.7353515 63.0484374,40.6894531 63.5367186,40.6894531 C64.0484373,40.6894531 64.4683592,40.7490235 64.7964842,40.8681641 C65.1246092,40.9873047 65.3833983,41.1572265 65.5728514,41.3779297 C65.7623045,41.5986328 65.8921874,41.8632812 65.9624999,42.171875 C66.0328124,42.4804688 66.0679686,42.8261719 66.0679686,43.2089844 L66.0679686,45.546875 L66.6597655,46.4023438 L65.4117186,47.2753906 L64.8960936,46.6660156 C64.6890624,46.7871094 64.4107421,46.9072266 64.0611327,47.0263672 C63.7115233,47.1455078 63.3296874,47.2050781 62.9156249,47.2050781 C62.5874999,47.2050781 62.2808593,47.1689453 61.995703,47.0966797 C61.7105467,47.0244141 61.4624999,46.9101563 61.2515624,46.7539062 C61.0406249,46.5976562 60.8726561,46.3955078 60.7476561,46.1474609 C60.6226561,45.8994141 60.5601561,45.5957031 60.5601561,45.2363281 Z M62.3355467,45.1777344 C62.3355467,45.4238281 62.4097655,45.609375 62.558203,45.734375 C62.7066405,45.859375 62.917578,45.921875 63.1910155,45.921875 C63.4292968,45.921875 63.6431639,45.8896484 63.832617,45.8251953 C64.0220701,45.7607422 64.1968749,45.6757812 64.3570311,45.5703125 L64.3570311,44.4570312 L63.167578,44.4570312 C62.9097655,44.4570312 62.7066405,44.5205078 62.558203,44.6474609 C62.4097655,44.7744141 62.3355467,44.9511718 62.3355467,45.1777344 Z M68.0109373,46.7480469 L68.4210936,45.3066406 C68.4679686,45.3300781 68.5617186,45.366211 68.7023436,45.4150391 C68.8429686,45.4638672 69.0089842,45.5146484 69.2003905,45.5673828 C69.3917967,45.6201172 69.5998046,45.6640625 69.8244139,45.6992188 C70.0490232,45.734375 70.2687498,45.7519531 70.4835936,45.7519531 C70.7960936,45.7519531 71.0421873,45.7021484 71.2218748,45.6025391 C71.4015624,45.5029297 71.4914061,45.3730468 71.4914061,45.2128906 C71.4914061,45.1074219 71.4650389,45.0253906 71.4123045,44.9667969 C71.3595701,44.9082031 71.2775389,44.8583984 71.1662108,44.8173828 C71.0548826,44.7763672 70.9152342,44.7363282 70.7472655,44.6972656 C70.5792967,44.6582031 70.3800779,44.609375 70.1496092,44.5507812 C69.9582029,44.5039062 69.7521483,44.4482422 69.5314451,44.3837891 C69.310742,44.3193359 69.1046874,44.2236328 68.9132811,44.0966797 C68.7218748,43.9697265 68.5617186,43.7978516 68.4328123,43.5810547 C68.3039061,43.3642578 68.239453,43.0800781 68.239453,42.7285156 C68.239453,42.4472656 68.2912107,42.1826172 68.3947264,41.9345703 C68.4982421,41.6865235 68.6564452,41.4707031 68.8693358,41.2871094 C69.0822264,41.1035157 69.3546873,40.9580078 69.6867186,40.8505859 C70.0187499,40.7431641 70.4132811,40.6894531 70.8703123,40.6894531 C71.3976561,40.6894531 71.8712889,40.7431641 72.2912108,40.8505859 C72.7111327,40.9580078 73.036328,41.0683594 73.2667967,41.1816406 L72.7746092,42.4765625 C72.4621092,42.3632813 72.1525389,42.2744141 71.8458983,42.2099609 C71.5392577,42.1455078 71.2374999,42.1132812 70.9406248,42.1132812 C70.3156248,42.1132812 70.0031248,42.2773438 70.0031248,42.6054688 C70.0031248,42.71875 70.0353514,42.8095703 70.0998045,42.8779297 C70.1642576,42.9462891 70.248242,43.0019532 70.3517576,43.0449219 C70.4552733,43.0878906 70.5773436,43.1259765 70.7179686,43.1591797 C70.8585936,43.1923828 71.005078,43.2246094 71.1574217,43.2558594 C71.4152342,43.3105468 71.6691404,43.3720703 71.9191405,43.4404297 C72.1691405,43.5087891 72.3966795,43.609375 72.6017576,43.7421875 C72.8068358,43.875 72.9708983,44.0507813 73.0939451,44.2695312 C73.216992,44.4882812 73.2785155,44.7753906 73.2785155,45.1308594 C73.2785155,45.7558594 73.0382811,46.2578125 72.5578123,46.6367188 C72.0773436,47.015625 71.3585936,47.2050781 70.4015623,47.2050781 C70.1359374,47.2050781 69.8751952,47.1865234 69.6193358,47.1494141 C69.3634764,47.1123047 69.1271483,47.0703125 68.9103514,47.0234375 C68.6935545,46.9765625 68.5080076,46.9267578 68.3537108,46.8740234 C68.1994139,46.8212891 68.0851561,46.7792968 68.0109373,46.7480469 Z M75.1335936,46.1621094 C75.1335936,45.8652343 75.2136717,45.6210938 75.3738279,45.4296875 C75.5339842,45.2382812 75.7859373,45.1425781 76.1296873,45.1425781 C76.4734373,45.1425781 76.7253905,45.2382812 76.8855467,45.4296875 C77.0457029,45.6210938 77.1257811,45.8652343 77.1257811,46.1621094 C77.1257811,46.4667969 77.0457029,46.7148437 76.8855467,46.90625 C76.7253905,47.0976563 76.4734373,47.1933594 76.1296873,47.1933594 C75.7781248,47.1933594 75.5261717,47.0976563 75.3738279,46.90625 C75.2136717,46.7070312 75.1335936,46.4589844 75.1335936,46.1621094 Z" id="Conoce-ms-sobre-nue"></path>
            <rect id="Rectangle" x="124" y="9" width="1" height="44"></rect>
        </g>
    </g>
</svg>