<?xml version="1.0" encoding="UTF-8"?>
<svg width="155px" height="41px" viewBox="0 0 155 41" version="1.1" xmlns="http://www.w3.org/2000/svg" xmlns:xlink="http://www.w3.org/1999/xlink">
    <!-- Generator: Sketch 53.2 (72643) - https://sketchapp.com -->
    <title>Slice</title>
    <desc>Created with Sketch.</desc>
    <g id="Page-1" stroke="none" stroke-width="1" fill="none" fill-rule="evenodd">
        <g id="Group" fill="#FFFFFF" fill-rule="nonzero">
            <rect id="Rectangle" fill-opacity="0" x="0" y="0" width="155" height="41"></rect>
            <polygon id="Path" points="42.773 21.443 33.884 26.779 33.884 16.107"></polygon>
            <circle id="_0" stroke="#FFFFFF" stroke-width="2" fill-opacity="0" cx="37" cy="21" r="12"></circle>
            <path d="M58.12,17.588 L59.872,17.204 L61.972,24.224 C62.0280003,24.4080009 62.0859997,24.5299997 62.146,24.59 C62.2060003,24.6500003 62.2879995,24.68 62.392,24.68 C62.4960005,24.68 62.5779997,24.6500003 62.638,24.59 C62.6980003,24.5299997 62.7559997,24.4080009 62.812,24.224 L64.948,17.204 L66.652,17.588 L64.552,24.596 C64.4799996,24.8280012 64.3860006,25.041999 64.27,25.238 C64.1539994,25.434001 64.0100009,25.6039993 63.838,25.748 C63.6659991,25.8920007 63.4600012,26.0039996 63.22,26.084 C62.9799988,26.1640004 62.7040016,26.204 62.392,26.204 C61.7359967,26.204 61.2440016,26.0620014 60.916,25.778 C60.5879984,25.4939986 60.3520007,25.1040025 60.208,24.608 L58.12,17.588 Z M67.6,17.348 L73.816,17.348 L73.816,18.872 L69.376,18.872 L69.376,20.72 L72.808,20.72 L72.808,22.256 L69.376,22.256 L69.376,24.476 L73.912,24.476 L73.912,26 L67.6,26 L67.6,17.348 Z M75.184,17.348 L78.484,17.348 C78.9000021,17.348 79.2899982,17.3899996 79.654,17.474 C80.0180018,17.5580004 80.3339987,17.697999 80.602,17.894 C80.8700013,18.090001 81.0799992,18.3459984 81.232,18.662 C81.3840008,18.9780016 81.46,19.3679977 81.46,19.832 C81.46,20.1440016 81.4100005,20.4359986 81.31,20.708 C81.2099995,20.9800014 81.0760008,21.2239989 80.908,21.44 C80.7399992,21.6560011 80.5440011,21.8399992 80.32,21.992 C80.0959989,22.1440008 79.8640012,22.2599996 79.624,22.34 C79.7600007,22.4040003 79.8819995,22.4879995 79.99,22.592 C80.0980005,22.6960005 80.2119994,22.8199993 80.332,22.964 L82.24,25.184 L80.86,26.18 L78.724,23.672 C78.5799993,23.5039992 78.4520006,23.3640006 78.34,23.252 C78.2279994,23.1399994 78.1240005,23.0500003 78.028,22.982 C77.9319995,22.9139997 77.8360005,22.8680001 77.74,22.844 C77.6439995,22.8199999 77.5360006,22.808 77.416,22.808 L76.984,22.808 L76.984,26 L75.184,26 L75.184,17.348 Z M78.148,21.308 C78.6040023,21.308 78.9659987,21.204001 79.234,20.996 C79.5020013,20.787999 79.636,20.480002 79.636,20.072 C79.636,19.8159987 79.6000004,19.6060008 79.528,19.442 C79.4559996,19.2779992 79.3560006,19.1500005 79.228,19.058 C79.0999994,18.9659995 78.9440009,18.9040002 78.76,18.872 C78.5759991,18.8399998 78.3720011,18.824 78.148,18.824 L76.984,18.824 L76.984,21.308 L78.148,21.308 Z M85.588,17.348 L89.164,17.348 C89.8440034,17.348 90.4499973,17.451999 90.982,17.66 C91.5140027,17.868001 91.9619982,18.1599981 92.326,18.536 C92.6900018,18.9120019 92.967999,19.3639974 93.16,19.892 C93.352001,20.4200026 93.448,21.0039968 93.448,21.644 C93.448,22.2760032 93.3620009,22.8579973 93.19,23.39 C93.0179991,23.9220027 92.7560018,24.3819981 92.404,24.77 C92.0519982,25.1580019 91.6060027,25.4599989 91.066,25.676 C90.5259973,25.8920011 89.8920036,26 89.164,26 L85.588,26 L85.588,17.348 Z M89.08,24.476 C89.872004,24.476 90.4819979,24.2580022 90.91,23.822 C91.3380021,23.3859978 91.552,22.6800049 91.552,21.704 C91.552,20.7199951 91.3360022,20.0020023 90.904,19.55 C90.4719978,19.0979977 89.8640039,18.872 89.08,18.872 L87.388,18.872 L87.388,24.476 L89.08,24.476 Z M94.732,17.348 L100.948,17.348 L100.948,18.872 L96.508,18.872 L96.508,20.72 L99.94,20.72 L99.94,22.256 L96.508,22.256 L96.508,24.476 L101.044,24.476 L101.044,26 L94.732,26 L94.732,17.348 Z M102.316,17.348 L103.996,17.348 L106.24,21.332 C106.304,21.4440006 106.358,21.5219998 106.402,21.566 C106.446,21.6100002 106.5,21.632 106.564,21.632 C106.628,21.632 106.682,21.6100002 106.726,21.566 C106.77,21.5219998 106.824,21.4440006 106.888,21.332 L109.108,17.348 L110.728,17.348 L110.728,26 L108.964,26 L108.964,20.72 L108.052,22.292 C107.795999,22.7480023 107.544001,23.0539992 107.296,23.21 C107.047999,23.3660008 106.784001,23.444 106.504,23.444 C106.215999,23.444 105.952001,23.3620008 105.712,23.198 C105.471999,23.0339992 105.228001,22.7280022 104.98,22.28 L104.104,20.732 L104.104,26 L102.316,26 L102.316,17.348 Z M115.168,24.416 C115.448001,24.5680008 115.791998,24.644 116.2,24.644 C116.600002,24.644 116.943999,24.5660008 117.232,24.41 C117.520001,24.2539992 117.757999,24.0440013 117.946,23.78 C118.134001,23.5159987 118.272,23.2040018 118.36,22.844 C118.448,22.4839982 118.492,22.100002 118.492,21.692 C118.492,21.283998 118.448,20.9020018 118.36,20.546 C118.272,20.1899982 118.134001,19.8780013 117.946,19.61 C117.757999,19.3419987 117.520001,19.1320008 117.232,18.98 C116.943999,18.8279992 116.600002,18.752 116.2,18.752 C115.799998,18.752 115.456001,18.8279992 115.168,18.98 C114.879999,19.1320008 114.642001,19.3419987 114.454,19.61 C114.265999,19.8780013 114.128,20.1899982 114.04,20.546 C113.952,20.9020018 113.908,21.283998 113.908,21.692 C113.908,22.3160031 114.009999,22.8659976 114.214,23.342 C114.418001,23.8180024 114.735998,24.1759988 115.168,24.416 Z M112.936,24.824 C112.599998,24.3919978 112.362001,23.9060027 112.222,23.366 C112.081999,22.8259973 112.012,22.2680029 112.012,21.692 C112.012,21.1159971 112.089999,20.5580027 112.246,20.018 C112.402001,19.4779973 112.649998,18.9980021 112.99,18.578 C113.330002,18.1579979 113.763997,17.8220013 114.292,17.57 C114.820003,17.3179987 115.455996,17.192 116.2,17.192 C116.976004,17.192 117.629997,17.3179987 118.162,17.57 C118.694003,17.8220013 119.123998,18.1579979 119.452,18.578 C119.780002,18.9980021 120.017999,19.4779973 120.166,20.018 C120.314001,20.5580027 120.388,21.1159971 120.388,21.692 C120.388,22.2680029 120.310001,22.8279973 120.154,23.372 C119.997999,23.9160027 119.750002,24.3979979 119.41,24.818 C119.069998,25.2380021 118.636003,25.5739987 118.108,25.826 C117.579997,26.0780013 116.944004,26.204 116.2,26.204 C115.423996,26.204 114.770003,26.0780013 114.238,25.826 C113.705997,25.5739987 113.272002,25.2400021 112.936,24.824 Z" id="VERDEMO"></path>
        </g>
    </g>
</svg>