<svg width="450" height="291" viewBox="0 0 450 291" fill="none" xmlns="http://www.w3.org/2000/svg">
<path d="M54.2604 61.6194C53.5947 63.6164 52.8182 64.3929 50.4884 64.0601C44.2758 63.1726 41.8351 59.5116 41.9461 54.4083C42.057 50.5255 42.9445 45.0894 41.2804 44.5347C37.9522 43.4253 29.9645 54.8521 24.6394 67.4993C20.0909 78.2604 18.4268 91.7951 22.3097 93.5701C25.527 95.0123 30.6302 88.7997 34.4021 81.0339C28.7442 81.3667 26.0817 78.5932 25.416 72.3806C25.1941 70.3837 26.1926 69.829 28.0786 69.3852C31.8505 68.3868 38.1741 67.2774 41.6132 66.8336C44.8305 66.3899 46.4946 66.9446 47.9368 68.9415C48.9353 70.3837 49.8228 72.0478 50.4884 73.3791C51.7088 76.0416 51.5978 77.7057 50.3775 80.5902C46.1618 90.7966 40.5038 98.5624 34.624 102.667C30.8521 105.33 26.6364 106.217 22.4206 105.441C18.5377 104.775 15.0986 103.333 11.9923 101.225C9.66256 99.5609 7.22188 96.4545 6.33436 93.0154C2.00771 77.0401 13.6564 46.4207 30.1864 34.2173C33.6256 31.6657 37.8413 31.4438 40.9476 31.8876C45.1633 32.4423 50.1556 34.5501 52.9291 37.3236C55.5917 39.9862 56.3682 42.9815 56.4792 46.9754C56.5901 51.0802 55.3698 58.1803 54.2604 61.6194ZM85.88 85.8043C78.7798 87.0247 70.7921 88.3559 65.1342 89.9091C62.6935 94.4576 60.4747 98.7843 58.5888 102.556C57.3684 104.886 56.4809 104.997 54.373 104.109C52.4871 103.333 50.6011 102.223 49.0479 100.448C47.4948 98.6733 47.4948 97.1202 48.8261 94.0139C56.1481 77.7057 70.6812 50.6364 80.1111 35.8814C81.8861 33.1079 83.883 31.6657 87.7659 31.7766C92.3145 31.8876 98.3052 33.4407 101.855 34.8829C104.518 35.9923 104.851 37.6564 104.407 40.4299C102.41 54.4083 99.8584 81.1449 98.4162 101.669C98.3052 104.22 97.6396 104.886 95.1989 104.886C92.7582 104.886 89.8738 104.442 88.3206 103.888C86.1018 103.111 85.4362 101.669 85.4362 98.3405C85.4362 94.7905 85.6581 90.5747 85.88 85.8043ZM73.6766 73.8228C78.0032 73.1572 82.4408 72.4915 86.6565 72.1587C87.3222 63.3945 88.2097 54.2974 89.2082 46.4207C84.8815 53.7427 79.2236 63.7273 73.6766 73.8228ZM138.745 76.9291C141.629 65.0586 147.065 46.4207 150.837 35.7705C151.835 32.997 153.278 32.5532 155.718 33.3298C157.382 33.8845 159.268 34.772 160.711 35.6595C163.151 37.2127 163.928 38.544 162.818 42.094C157.826 57.9584 149.617 84.3621 145.068 101.447C144.402 104.109 142.627 104.664 139.965 103.998C137.968 103.444 135.527 102.445 133.752 101.447C131.755 100.337 130.646 98.7843 129.869 95.7889C127.983 87.4684 126.652 76.3744 125.765 62.0632C122.991 70.8274 118.221 86.47 113.783 102.112C113.117 104.442 112.008 105.108 109.567 104.331C108.014 103.777 106.017 102.778 104.797 102.002C102.356 100.448 101.691 99.339 102.689 94.5686C105.13 83.2527 114.671 51.8567 120.107 35.9923C120.883 33.8845 121.993 33.1079 123.657 33.1079C125.432 33.1079 129.758 34.6611 132.976 36.3252C135.527 37.6564 136.082 38.8768 136.304 41.8722C136.969 52.3005 137.746 65.0586 138.745 76.9291ZM189.236 85.8043C182.136 87.0247 174.148 88.3559 168.49 89.9091C166.05 94.4576 163.831 98.7843 161.945 102.556C160.724 104.886 159.837 104.997 157.729 104.109C155.843 103.333 153.957 102.223 152.404 100.448C150.851 98.6733 150.851 97.1202 152.182 94.0139C159.504 77.7057 174.037 50.6364 183.467 35.8814C185.242 33.1079 187.239 31.6657 191.122 31.7766C195.671 31.8876 201.661 33.4407 205.211 34.8829C207.874 35.9923 208.207 37.6564 207.763 40.4299C205.766 54.4083 203.214 81.1449 201.772 101.669C201.661 104.22 200.996 104.886 198.555 104.886C196.114 104.886 193.23 104.442 191.677 103.888C189.458 103.111 188.792 101.669 188.792 98.3405C188.792 94.7905 189.014 90.5747 189.236 85.8043ZM177.033 73.8228C181.359 73.1572 185.797 72.4915 190.013 72.1587C190.678 63.3945 191.566 54.2974 192.564 46.4207C188.238 53.7427 182.58 63.7273 177.033 73.8228ZM219.497 48.1957C218.721 46.6426 217.611 44.5347 216.946 42.6487C215.836 39.9862 215.947 38.544 218.388 37.2127C229.26 31 253.001 27.1172 259.99 46.5316C266.203 63.7273 254.222 93.4592 223.269 104.997C220.385 106.106 218.055 105.995 215.504 104.109C213.063 102.112 211.399 100.559 209.18 98.2296C206.961 95.8999 205.852 94.4576 207.405 88.6888C210.511 77.262 215.282 61.2866 219.497 48.1957ZM221.494 90.2419C242.906 79.5917 248.675 58.2912 246.345 51.413C245.125 48.0848 241.02 45.755 235.251 47.8629C230.37 61.0647 225.71 75.7088 221.494 90.2419ZM307.636 37.8783C310.631 40.8737 311.851 44.3128 312.073 48.5285C312.85 63.6164 306.637 87.8012 294.101 100.116C289.885 104.22 285.337 105.33 279.901 104.664C276.351 104.22 272.135 102.889 269.25 100.892C267.032 99.339 264.591 96.3436 263.593 92.9045C258.822 77.0401 268.474 48.8614 283.895 36.1033C287.112 33.4407 292.104 32.1094 295.654 32.6641C300.314 33.3298 305.084 35.3267 307.636 37.8783ZM296.431 45.2003C292.992 44.0909 285.115 56.4053 281.232 66.8336C277.349 77.151 275.241 91.2404 279.346 92.9045C283.34 94.5686 289.663 84.9168 294.101 71.715C297.54 61.5085 299.981 46.3097 296.431 45.2003ZM326.662 81.9214C324.332 88.9106 322.113 95.8999 320.227 102.334C319.562 104.664 318.785 105.108 316.455 104.553C314.126 103.888 312.018 103.111 310.465 102.002C308.468 100.559 308.246 99.0062 308.801 95.8999C310.908 85.6934 316.788 66.2789 321.891 50.3036C321.004 48.6395 319.895 46.5316 319.229 44.7566C318.23 41.9831 318.341 40.6518 320.671 39.3205C331.543 33.2188 352.4 28.0047 359.167 36.1033C361.941 39.4315 364.27 44.0909 365.047 49.9708C365.824 56.1834 362.939 61.2866 358.613 65.5023C354.175 69.829 347.851 74.1556 340.64 77.7057C344.19 83.6965 350.07 91.7951 354.286 96.7874C356.061 98.7843 355.506 99.8937 353.953 101.225C352.067 102.778 351.069 103 349.183 103.555C347.075 104.22 344.412 104.331 341.417 101.447C337.201 97.6749 330.878 89.2435 326.662 81.9214ZM338.532 48.9723C336.425 54.1865 334.206 60.51 331.765 67.2774C344.856 62.2851 353.398 52.1896 352.511 48.6395C351.956 46.0879 345.633 45.5332 338.532 48.9723ZM373.453 46.8644C372.233 44.7566 371.235 41.5393 370.791 39.5424C370.347 37.3236 370.902 36.8799 372.677 36.4361C380.332 34.2173 394.532 32.5532 404.738 32.2204C407.068 32.1094 408.51 33.2188 409.065 35.3267C409.842 37.6564 410.174 39.3205 410.396 41.5393C410.507 43.98 409.842 44.8675 407.401 45.0894C402.298 45.6441 395.974 46.4207 389.983 47.4191C388.319 51.9677 386.322 57.1818 384.325 62.6179C387.099 62.1741 389.872 61.9523 392.868 61.8413C395.308 61.7304 396.64 62.2851 397.416 64.3929C398.193 66.6117 398.748 68.6087 398.97 70.8274C399.302 73.2681 398.637 73.9338 396.196 74.4885C390.538 75.5979 384.215 76.8182 378.668 78.2604C377.447 81.6996 376.227 85.1387 375.228 88.3559C379.777 87.4684 383.771 86.9137 388.541 86.5809C390.982 86.359 392.424 86.9137 393.201 89.0216C394.088 91.3513 394.643 93.3482 394.865 95.567C395.198 98.0077 394.643 98.7843 392.202 99.339C385.879 100.781 378.778 102.334 372.788 103.998C369.46 104.886 367.795 104.442 365.798 102.778C364.356 101.558 362.914 100.116 361.361 98.0077C360.141 96.3436 359.364 93.9029 360.03 90.7966C362.248 80.923 368.572 61.5085 373.453 46.8644ZM398.89 85.4715C402.329 83.6965 407.099 84.1402 409.429 86.1371C415.975 91.906 422.298 93.792 425.072 91.3513C428.289 88.6888 416.751 81.6996 410.871 74.9322C406.767 70.1618 404.77 62.8398 408.431 54.7412C411.537 47.5301 418.415 39.2096 425.072 34.9939C427.623 33.4407 431.839 31.7766 436.498 33.4407C440.048 34.772 444.042 37.3236 446.15 39.7643C449.256 43.2034 448.924 46.9754 448.591 49.9708C447.814 55.074 445.041 63.7273 442.711 68.2758C441.602 70.3837 440.492 70.8274 438.495 69.9399C432.837 67.4993 430.286 64.0601 431.284 59.6225C432.172 55.6287 435.5 47.1973 434.169 46.5316C431.839 45.2003 417.528 59.8444 423.518 67.943C430.064 76.5963 444.375 82.2543 439.161 92.3498C435.389 99.6718 429.287 105.108 420.19 105.108C412.868 105.108 405.768 101.669 399.555 92.7935C396.338 88.245 396.782 86.5809 398.89 85.4715Z" fill="#7AC8E5"/>
<path d="M28.902 195.376C33.7392 194.436 39.3827 194.033 43.0106 193.898C45.8324 193.764 47.3104 194.973 48.5197 197.392C49.5947 199.407 50.804 202.632 51.2071 204.916C51.8789 207.604 51.0727 208.276 48.3853 208.544C39.6514 209.351 24.3335 211.769 16.9432 213.65C11.8372 214.86 10.3592 213.919 9.01552 212.172C7.4031 210.291 4.44701 206.394 2.96896 203.707C1.89402 201.557 0.684704 198.467 4.0439 195.914C25.4084 178.983 53.2226 147.004 49.5947 143.645C47.3104 141.495 40.9951 146.869 34.4111 152.916C30.2457 156.544 23.5273 156.275 18.9588 154.394C16.5401 153.319 15.4652 151.035 19.4962 145.123C25.8115 135.717 34.9485 128.73 43.4137 126.983C53.6257 124.833 61.6878 131.82 64.3751 137.464C68.4062 146.063 65.3157 153.453 59.8066 162.187C53.2226 172.534 40.592 186.105 28.902 195.376ZM117.462 132.895C121.224 136.389 122.434 140.554 122.702 145.526C123.777 163.8 116.253 192.823 101.204 207.469C96.0975 212.441 90.7228 213.785 84.1388 213.113C79.839 212.575 74.8674 210.963 71.3738 208.41C68.8208 206.663 65.8647 203.035 64.6554 199.004C59.2807 180.058 70.4332 145.526 88.976 130.745C93.0071 127.52 98.2474 126.311 102.95 126.849C108.594 127.52 114.506 130.073 117.462 132.895ZM104.025 141.898C100.129 140.554 90.8572 152.782 85.3481 167.696C80.3765 181.133 78.7641 196.72 83.6013 198.735C88.3042 200.617 95.8288 189.061 101.069 173.474C105.1 161.381 108.056 143.241 104.025 141.898ZM142.406 195.376C147.243 194.436 152.887 194.033 156.515 193.898C159.337 193.764 160.815 194.973 162.024 197.392C163.099 199.407 164.308 202.632 164.711 204.916C165.383 207.604 164.577 208.276 161.89 208.544C153.156 209.351 137.838 211.769 130.447 213.65C125.341 214.86 123.863 213.919 122.52 212.172C120.907 210.291 117.951 206.394 116.473 203.707C115.398 201.557 114.189 198.467 117.548 195.914C138.913 178.983 166.727 147.004 163.099 143.645C160.815 141.495 154.499 146.869 147.915 152.916C143.75 156.544 137.031 156.275 132.463 154.394C130.044 153.319 128.969 151.035 133 145.123C139.316 135.717 148.453 128.73 156.918 126.983C167.13 124.833 175.192 131.82 177.879 137.464C181.91 146.063 178.82 153.453 173.311 162.187C166.727 172.534 154.096 186.105 142.406 195.376ZM211.69 169.846C214.377 170.653 216.93 171.996 218.946 174.146C227.276 182.746 225.261 193.629 219.214 201.826C212.093 211.366 203.225 214.188 193.684 214.322C186.16 214.322 178.098 211.366 170.842 202.901C166.542 197.929 167.617 195.779 169.901 194.301C173.664 191.614 179.038 192.555 182.129 194.57C191.131 200.482 197.312 199.407 202.821 193.629C208.062 188.12 207.793 181.402 205.912 178.983C204.031 176.565 201.343 175.759 196.775 176.565C191.669 177.505 187.503 175.624 184.95 169.443C183.876 166.89 184.279 164.875 186.832 163.934C206.315 156.813 216.393 150.094 216.393 144.719C216.393 143.107 215.586 142.435 214.108 142.435C211.421 142.435 207.256 144.854 204.031 147.004C198.925 150.497 191.938 149.154 188.175 145.526C186.294 143.645 186.563 141.629 188.175 139.614C192.341 134.373 200.403 128.595 208.196 126.714C213.84 125.371 221.767 124.967 227.948 134.373C234.801 144.854 231.173 155.469 225.53 160.978C221.902 164.472 217.199 167.428 211.69 169.846Z" fill="#7AC8E5"/>
<path d="M264.493 288.848C279.043 288.058 293.573 288.418 308.143 288.008C320.493 287.668 332.833 286.838 345.183 286.338C357.583 285.838 369.993 285.488 382.393 285.098C389.033 284.888 395.663 284.708 402.303 284.538C411.313 284.308 420.983 285.008 429.773 282.898C437.793 280.978 444.523 272.338 444.153 264.018C443.783 255.858 438.403 246.808 429.773 245.138C420.773 243.388 411.433 244.308 402.303 244.538C395.663 244.708 389.023 244.888 382.393 245.098C369.983 245.488 357.583 246.098 345.183 246.808C332.833 247.518 320.443 248.168 308.143 249.468C300.503 250.278 292.873 251.098 285.273 252.308C281.843 252.858 278.413 253.558 274.973 254.028C277.663 253.658 271.883 254.268 271.243 254.328C268.993 254.548 266.733 254.778 264.483 255.008C255.703 255.888 247.133 262.158 247.563 271.928C247.973 280.688 255.033 289.368 264.493 288.848Z" fill="#7AC8E5"/>
<path d="M280.483 216.535C281.936 217.051 281.702 218.128 280.905 219.675C280.014 221.456 278.515 223.096 277.296 224.174C275.984 225.299 273.781 225.955 271.953 225.768C270.032 225.58 268.485 224.877 267.361 224.221C266.376 223.612 265.205 222.44 264.783 221.034C262.768 214.567 267.454 201.725 274.016 196.101C275.75 194.649 277.39 194.321 278.749 194.461C280.764 194.649 283.154 195.68 284.326 196.758C285.638 197.976 285.873 199.288 285.826 200.929C285.779 202.803 285.263 205.475 284.654 206.974C284.373 207.724 284.139 208.24 282.92 207.959C280.483 207.396 279.639 206.178 279.546 203.975C279.499 202.381 280.249 200.226 279.218 199.804C277.859 199.241 274.062 205.522 272.469 209.833C270.735 214.473 269.985 219.862 271.625 220.472C272.516 220.8 273.734 219.956 275.656 217.8C276.968 216.348 278.702 215.926 280.483 216.535ZM297.925 217.332C294.925 217.847 291.551 218.41 289.161 219.066C288.13 220.987 287.192 222.815 286.396 224.408C285.88 225.393 285.505 225.44 284.615 225.065C283.818 224.737 283.021 224.268 282.365 223.518C281.709 222.768 281.709 222.112 282.271 220.8C285.364 213.911 291.504 202.475 295.487 196.242C296.237 195.07 297.081 194.461 298.721 194.508C300.643 194.555 303.174 195.211 304.673 195.82C305.798 196.289 305.939 196.992 305.751 198.164C304.908 204.069 303.83 215.363 303.22 224.034C303.174 225.111 302.892 225.393 301.861 225.393C300.83 225.393 299.612 225.205 298.956 224.971C298.018 224.643 297.737 224.034 297.737 222.628C297.737 221.128 297.831 219.347 297.925 217.332ZM292.769 212.27C294.597 211.989 296.472 211.708 298.253 211.567C298.534 207.865 298.909 204.022 299.331 200.694C297.503 203.787 295.113 208.005 292.769 212.27ZM325.808 199.851C324.309 199.991 322.34 200.179 320.7 200.366C318.169 207.677 315.217 217.144 313.154 224.502C312.873 225.486 312.545 225.674 311.561 225.393C310.577 225.111 309.499 224.643 308.655 224.034C307.812 223.424 307.718 222.721 307.999 221.409C308.983 216.488 311.655 207.302 313.623 201.35C312.498 201.538 311.374 201.772 310.671 201.913C309.686 202.1 309.171 202.007 308.655 201.163C308.093 200.226 307.531 198.679 307.343 197.789C307.156 196.851 307.484 196.617 308.234 196.43C312.639 195.445 319.575 194.742 323.934 194.649C325.012 194.649 325.387 194.93 325.715 195.398C326.324 196.336 326.746 197.601 326.886 198.492C327.027 199.476 326.933 199.757 325.808 199.851ZM328.972 200.882C328.456 199.991 328.034 198.632 327.847 197.789C327.66 196.851 327.894 196.664 328.644 196.476C331.877 195.539 337.876 194.836 342.188 194.695C343.172 194.649 343.781 195.117 344.016 196.008C344.344 196.992 344.484 197.695 344.578 198.632C344.625 199.663 344.344 200.038 343.313 200.132C341.157 200.366 338.486 200.694 335.955 201.116C335.252 203.038 334.408 205.24 333.565 207.537C334.736 207.349 335.908 207.256 337.173 207.209C338.204 207.162 338.767 207.396 339.095 208.287C339.423 209.224 339.657 210.068 339.751 211.005C339.892 212.036 339.61 212.317 338.579 212.551C336.189 213.02 333.518 213.536 331.174 214.145C330.659 215.598 330.143 217.051 329.722 218.41C331.643 218.035 333.33 217.8 335.346 217.66C336.377 217.566 336.986 217.8 337.314 218.691C337.689 219.675 337.923 220.519 338.017 221.456C338.157 222.487 337.923 222.815 336.892 223.049C334.221 223.659 331.221 224.315 328.691 225.018C327.285 225.393 326.582 225.205 325.738 224.502C325.129 223.987 324.519 223.377 323.863 222.487C323.348 221.784 323.02 220.753 323.301 219.441C324.238 215.27 326.91 207.068 328.972 200.882ZM361.64 207.115C361.358 207.959 361.03 208.287 360.046 208.146C357.422 207.771 356.391 206.224 356.437 204.069C356.484 202.428 356.859 200.132 356.156 199.898C354.75 199.429 351.376 204.256 349.126 209.599C347.205 214.145 346.502 219.862 348.142 220.612C349.501 221.222 351.657 218.597 353.251 215.316C350.86 215.457 349.736 214.285 349.454 211.661C349.361 210.817 349.782 210.583 350.579 210.396C352.173 209.974 354.844 209.505 356.297 209.318C357.656 209.13 358.359 209.365 358.968 210.208C359.39 210.817 359.765 211.52 360.046 212.083C360.562 213.208 360.515 213.911 359.999 215.129C358.218 219.441 355.828 222.721 353.344 224.455C351.751 225.58 349.97 225.955 348.189 225.627C346.549 225.346 345.096 224.737 343.784 223.846C342.799 223.143 341.768 221.831 341.393 220.378C339.566 213.629 344.487 200.694 351.47 195.539C352.922 194.461 354.703 194.367 356.016 194.555C357.797 194.789 359.905 195.68 361.077 196.851C362.202 197.976 362.53 199.241 362.577 200.929C362.624 202.663 362.108 205.662 361.64 207.115ZM381.444 197.086C382.709 198.351 383.225 199.804 383.318 201.585C383.646 207.959 381.022 218.175 375.726 223.377C373.945 225.111 372.024 225.58 369.727 225.299C368.227 225.111 366.447 224.549 365.228 223.705C364.291 223.049 363.26 221.784 362.838 220.331C360.823 213.629 364.9 201.725 371.414 196.336C372.773 195.211 374.882 194.649 376.382 194.883C378.351 195.164 380.366 196.008 381.444 197.086ZM376.71 200.179C375.257 199.71 371.93 204.912 370.29 209.318C368.649 213.676 367.759 219.628 369.493 220.331C371.18 221.034 373.851 216.957 375.726 211.38C377.179 207.068 378.21 200.647 376.71 200.179ZM389.481 215.691C388.497 218.644 387.56 221.597 386.763 224.315C386.482 225.299 386.154 225.486 385.17 225.252C384.185 224.971 383.295 224.643 382.639 224.174C381.795 223.565 381.701 222.909 381.936 221.597C382.826 217.285 385.31 209.083 387.466 202.335C387.091 201.632 386.622 200.741 386.341 199.991C385.919 198.82 385.966 198.257 386.95 197.695C391.543 195.117 400.354 192.915 403.213 196.336C404.385 197.742 405.369 199.71 405.697 202.194C406.025 204.819 404.806 206.974 402.979 208.755C401.104 210.583 398.433 212.411 395.386 213.911C396.886 216.441 399.37 219.862 401.151 221.971C401.901 222.815 401.666 223.284 401.01 223.846C400.213 224.502 399.792 224.596 398.995 224.83C398.105 225.111 396.98 225.158 395.714 223.94C393.933 222.346 391.262 218.785 389.481 215.691ZM394.496 201.772C393.605 203.975 392.668 206.646 391.637 209.505C397.167 207.396 400.776 203.131 400.401 201.632C400.167 200.554 397.495 200.319 394.496 201.772ZM415.789 192.352C414.993 192.493 414.29 192.446 413.634 192.165C412.321 191.602 411.29 190.431 411.29 189.775C411.29 189.4 411.431 189.212 412.134 188.978C415.508 187.853 417.711 186.963 420.804 185.416C421.648 184.994 421.929 184.994 422.304 185.697C422.585 186.26 422.772 187.244 422.772 188.181C422.772 188.79 422.538 189.306 421.976 189.821C420.804 190.899 418.555 191.884 415.789 192.352ZM416.258 196.992C417.195 197.742 417.289 198.164 416.914 199.241C414.758 205.053 410.869 217.519 408.947 224.362C408.666 225.393 408.291 225.58 407.307 225.299C406.323 225.018 405.198 224.502 404.401 223.94C403.557 223.331 403.417 222.721 403.698 221.362C404.823 216.019 408.806 202.053 410.869 196.195C411.29 195.07 411.9 194.883 412.931 195.211C413.962 195.539 415.415 196.336 416.258 196.992ZM427.538 217.332C424.539 217.847 421.164 218.41 418.774 219.066C417.743 220.987 416.806 222.815 416.009 224.408C415.494 225.393 415.119 225.44 414.228 225.065C413.432 224.737 412.635 224.268 411.979 223.518C411.323 222.768 411.323 222.112 411.885 220.8C414.978 213.911 421.118 202.475 425.101 196.242C425.851 195.07 426.695 194.461 428.335 194.508C430.256 194.555 432.787 195.211 434.287 195.82C435.412 196.289 435.552 196.992 435.365 198.164C434.521 204.069 433.443 215.363 432.834 224.034C432.787 225.111 432.506 225.393 431.475 225.393C430.444 225.393 429.225 225.205 428.569 224.971C427.632 224.643 427.351 224.034 427.351 222.628C427.351 221.128 427.444 219.347 427.538 217.332ZM422.383 212.27C424.211 211.989 426.085 211.708 427.866 211.567C428.147 207.865 428.522 204.022 428.944 200.694C427.116 203.787 424.726 208.005 422.383 212.27Z" fill="black"/>
<path d="M283.642 156.926C285.106 157.366 286.497 158.098 287.595 159.269C292.133 163.954 291.035 169.883 287.741 174.348C283.862 179.545 279.03 181.083 273.833 181.156C269.734 181.156 265.342 179.545 261.389 174.934C259.047 172.225 259.632 171.054 260.877 170.249C262.926 168.785 265.854 169.297 267.538 170.395C272.442 173.616 275.81 173.031 278.811 169.883C281.666 166.882 281.519 163.222 280.494 161.904C279.47 160.586 278.006 160.147 275.517 160.586C272.735 161.099 270.466 160.074 269.075 156.707C268.49 155.316 268.709 154.218 270.1 153.706C280.714 149.826 286.204 146.166 286.204 143.238C286.204 142.36 285.765 141.994 284.96 141.994C283.496 141.994 281.226 143.311 279.47 144.482C276.688 146.386 272.882 145.654 270.832 143.677C269.807 142.652 269.954 141.554 270.832 140.456C273.101 137.602 277.493 134.454 281.739 133.429C284.813 132.697 289.132 132.478 292.499 137.602C296.233 143.311 294.256 149.094 291.182 152.095C289.205 153.998 286.643 155.609 283.642 156.926Z" fill="#7AC8E5"/>
<path d="M299.569 156.519C299.005 155.545 298.544 154.059 298.339 153.137C298.134 152.112 298.39 151.907 299.21 151.702C302.746 150.678 309.304 149.909 314.018 149.755C315.094 149.704 315.76 150.216 316.016 151.19C316.375 152.266 316.529 153.035 316.631 154.059C316.683 155.187 316.375 155.596 315.248 155.699C312.891 155.955 309.97 156.314 307.203 156.775C306.435 158.876 305.513 161.284 304.59 163.795C305.871 163.59 307.152 163.487 308.536 163.436C309.663 163.385 310.278 163.641 310.636 164.614C310.995 165.639 311.251 166.561 311.354 167.586C311.507 168.714 311.2 169.021 310.073 169.277C307.46 169.79 304.539 170.353 301.977 171.019C301.413 172.608 300.85 174.196 300.389 175.682C302.489 175.272 304.334 175.016 306.537 174.862C307.665 174.76 308.331 175.016 308.689 175.989C309.099 177.065 309.355 177.988 309.458 179.012C309.612 180.14 309.355 180.498 308.228 180.755C305.308 181.421 302.028 182.138 299.261 182.907C297.724 183.316 296.956 183.112 296.033 182.343C295.367 181.779 294.701 181.113 293.984 180.14C293.42 179.371 293.062 178.244 293.369 176.809C294.394 172.249 297.314 163.282 299.569 156.519ZM321.39 172.71C320.314 175.938 319.29 179.166 318.419 182.138C318.111 183.214 317.753 183.419 316.677 183.163C315.601 182.855 314.627 182.497 313.91 181.984C312.987 181.318 312.885 180.601 313.141 179.166C314.115 174.452 316.83 165.485 319.187 158.107C318.777 157.339 318.265 156.365 317.957 155.545C317.496 154.264 317.548 153.649 318.624 153.035C323.645 150.216 333.278 147.808 336.403 151.549C337.684 153.086 338.76 155.238 339.119 157.953C339.478 160.823 338.145 163.18 336.147 165.127C334.098 167.125 331.177 169.123 327.847 170.763C329.486 173.53 332.202 177.27 334.149 179.576C334.969 180.498 334.712 181.011 333.995 181.626C333.124 182.343 332.663 182.445 331.792 182.702C330.818 183.009 329.589 183.06 328.205 181.728C326.258 179.986 323.338 176.092 321.39 172.71ZM326.873 157.492C325.899 159.9 324.875 162.821 323.747 165.947C329.794 163.641 333.739 158.978 333.329 157.339C333.073 156.16 330.152 155.904 326.873 157.492ZM351.489 174.503C348.21 175.067 344.521 175.682 341.908 176.399C340.781 178.5 339.756 180.498 338.885 182.24C338.321 183.316 337.911 183.368 336.938 182.958C336.067 182.599 335.196 182.087 334.478 181.267C333.761 180.447 333.761 179.73 334.376 178.295C337.758 170.763 344.47 158.261 348.825 151.446C349.645 150.165 350.567 149.499 352.361 149.55C354.461 149.602 357.228 150.319 358.868 150.985C360.098 151.497 360.251 152.266 360.046 153.547C359.124 160.003 357.946 172.351 357.279 181.831C357.228 183.009 356.921 183.316 355.794 183.316C354.666 183.316 353.334 183.112 352.617 182.855C351.592 182.497 351.285 181.831 351.285 180.293C351.285 178.654 351.387 176.707 351.489 174.503ZM345.853 168.97C347.852 168.662 349.901 168.355 351.848 168.201C352.156 164.153 352.565 159.952 353.027 156.314C351.028 159.696 348.415 164.307 345.853 168.97Z" fill="#7AC8E5"/>
<path d="M280.308 279.465V262.577H277.795V259.767H283.415V279.465H280.308ZM287.404 279.195V276.952C292.052 272.872 296.942 269.305 296.942 265.441C296.942 263.388 296.051 261.983 293.754 261.983C291.592 261.983 290.43 263.496 290.349 265.712H287.377C287.485 261.442 290.241 259.362 293.727 259.362C297.726 259.362 299.996 261.766 299.996 265.306C299.996 270.089 295.132 273.737 291.971 276.628H300.536V279.195H287.404ZM309.64 271.954C309.64 267.36 312.748 264.333 316.666 264.333C319.179 264.333 320.908 265.522 321.827 266.738V264.577H324.934V279.465H321.827V277.25C320.881 278.52 319.098 279.709 316.612 279.709C312.748 279.709 309.64 276.547 309.64 271.954ZM321.827 272.008C321.827 268.819 319.638 267.009 317.314 267.009C315.017 267.009 312.802 268.738 312.802 271.954C312.802 275.169 315.017 277.034 317.314 277.034C319.638 277.034 321.827 275.223 321.827 272.008ZM337.702 279.465V262.577H335.189V259.767H340.809V279.465H337.702ZM345.852 259.713H357.741V262.415H348.689V267.792C349.419 266.819 351.013 266.009 352.769 266.009C357.606 266.009 359.092 269.603 359.092 272.575C359.092 276.493 356.85 279.465 352.283 279.465C348.23 279.465 345.879 277.223 345.419 274.142H348.419C348.824 275.818 350.229 276.898 352.31 276.898C354.958 276.898 356.147 275.088 356.147 272.656C356.147 270.089 354.877 268.63 352.31 268.63C350.499 268.63 349.284 269.63 348.77 271.089H345.852V259.713ZM368.697 271.954C368.697 267.36 371.804 264.333 375.722 264.333C378.235 264.333 379.965 265.522 380.883 266.738V264.577H383.991V279.465H380.883V277.25C379.938 278.52 378.154 279.709 375.668 279.709C371.804 279.709 368.697 276.547 368.697 271.954ZM380.883 272.008C380.883 268.819 378.695 267.009 376.371 267.009C374.074 267.009 371.858 268.738 371.858 271.954C371.858 275.169 374.074 277.034 376.371 277.034C378.695 277.034 380.883 275.223 380.883 272.008ZM391.117 271.143V279.465H388.037V264.577H391.117V266.279C392.117 265.063 393.765 264.333 395.549 264.333C399.035 264.333 401.656 266.522 401.656 270.683V279.465H398.602V271.143C398.602 268.414 397.116 267.009 394.873 267.009C392.603 267.009 391.117 268.414 391.117 271.143ZM390.658 263.036C390.955 260.902 392.144 259.875 393.711 259.875C395.171 259.875 395.765 261.064 396.846 261.064C397.44 261.064 397.9 260.713 398.008 259.929H399.737C399.44 262.064 398.251 263.09 396.684 263.09C395.225 263.09 394.63 261.875 393.549 261.875C392.955 261.875 392.495 262.253 392.387 263.036H390.658ZM419.771 272.008C419.771 276.682 416.312 279.709 412.043 279.709C407.801 279.709 404.585 276.682 404.585 272.008C404.585 267.333 407.936 264.333 412.178 264.333C416.421 264.333 419.771 267.333 419.771 272.008ZM407.72 272.008C407.72 275.385 409.719 277.034 412.043 277.034C414.34 277.034 416.61 275.385 416.61 272.008C416.61 268.63 414.421 267.009 412.124 267.009C409.8 267.009 407.72 268.63 407.72 272.008ZM433.922 275.304C433.922 277.817 431.733 279.709 428.221 279.709C424.654 279.709 422.141 277.601 422.006 274.899H425.194C425.302 276.115 426.464 277.115 428.167 277.115C429.95 277.115 430.896 276.358 430.896 275.331C430.896 272.413 422.249 274.088 422.249 268.63C422.249 266.252 424.465 264.333 427.977 264.333C431.355 264.333 433.571 266.144 433.733 269.116H430.653C430.544 267.819 429.545 266.928 427.869 266.928C426.221 266.928 425.356 267.603 425.356 268.603C425.356 271.602 433.76 269.927 433.922 275.304Z" fill="white"/>
</svg>
