<svg width="441" height="115" viewBox="0 0 441 115" fill="none" xmlns="http://www.w3.org/2000/svg">
<path d="M15.5622 30.12C16.8022 30.56 16.6022 31.48 15.9222 32.8C15.1622 34.32 13.8822 35.72 12.8422 36.64C11.7222 37.6 9.84219 38.16 8.28219 38C6.64219 37.84 5.32219 37.24 4.36219 36.68C3.52219 36.16 2.52219 35.16 2.16219 33.96C0.442187 28.44 4.44219 17.48 10.0422 12.68C11.5222 11.44 12.9222 11.16 14.0822 11.28C15.8022 11.44 17.8422 12.32 18.8422 13.24C19.9622 14.28 20.1622 15.4 20.1222 16.8C20.0822 18.4 19.6422 20.68 19.1222 21.96C18.8822 22.6 18.6822 23.04 17.6422 22.8C15.5622 22.32 14.8422 21.28 14.7622 19.4C14.7222 18.04 15.3622 16.2 14.4822 15.84C13.3222 15.36 10.0822 20.72 8.72219 24.4C7.24219 28.36 6.60219 32.96 8.00219 33.48C8.76219 33.76 9.80219 33.04 11.4422 31.2C12.5622 29.96 14.0422 29.6 15.5622 30.12ZM35.5209 13.52C36.6009 14.6 37.0409 15.84 37.1209 17.36C37.4009 22.8 35.1609 31.52 30.6409 35.96C29.1209 37.44 27.4809 37.84 25.5209 37.6C24.2409 37.44 22.7209 36.96 21.6809 36.24C20.8809 35.68 20.0009 34.6 19.6409 33.36C17.9209 27.64 21.4009 17.48 26.9609 12.88C28.1209 11.92 29.9209 11.44 31.2009 11.64C32.8809 11.88 34.6009 12.6 35.5209 13.52ZM31.4809 16.16C30.2409 15.76 27.4009 20.2 26.0009 23.96C24.6009 27.68 23.8409 32.76 25.3209 33.36C26.7609 33.96 29.0409 30.48 30.6409 25.72C31.8809 22.04 32.7609 16.56 31.4809 16.16ZM49.1966 27.6C50.2366 23.32 52.1966 16.6 53.5566 12.76C53.9166 11.76 54.4366 11.6 55.3166 11.88C55.9166 12.08 56.5966 12.4 57.1166 12.72C57.9966 13.28 58.2766 13.76 57.8766 15.04C56.0766 20.76 53.1166 30.28 51.4766 36.44C51.2366 37.4 50.5966 37.6 49.6366 37.36C48.9166 37.16 48.0366 36.8 47.3966 36.44C46.6766 36.04 46.2766 35.48 45.9966 34.4C45.3166 31.4 44.8366 27.4 44.5166 22.24C43.5166 25.4 41.7966 31.04 40.1966 36.68C39.9566 37.52 39.5566 37.76 38.6766 37.48C38.1166 37.28 37.3966 36.92 36.9566 36.64C36.0766 36.08 35.8366 35.68 36.1966 33.96C37.0766 29.88 40.5166 18.56 42.4766 12.84C42.7566 12.08 43.1566 11.8 43.7566 11.8C44.3966 11.8 45.9566 12.36 47.1166 12.96C48.0366 13.44 48.2366 13.88 48.3166 14.96C48.5566 18.72 48.8366 23.32 49.1966 27.6ZM72.7084 13.52C73.7884 14.6 74.2284 15.84 74.3084 17.36C74.5884 22.8 72.3484 31.52 67.8284 35.96C66.3084 37.44 64.6684 37.84 62.7084 37.6C61.4284 37.44 59.9084 36.96 58.8684 36.24C58.0684 35.68 57.1884 34.6 56.8284 33.36C55.1084 27.64 58.5884 17.48 64.1484 12.88C65.3084 11.92 67.1084 11.44 68.3884 11.64C70.0684 11.88 71.7884 12.6 72.7084 13.52ZM68.6684 16.16C67.4284 15.76 64.5884 20.2 63.1884 23.96C61.7884 27.68 61.0284 32.76 62.5084 33.36C63.9484 33.96 66.2284 30.48 67.8284 25.72C69.0684 22.04 69.9484 16.56 68.6684 16.16ZM87.9841 30.12C89.2241 30.56 89.0241 31.48 88.3441 32.8C87.5841 34.32 86.3041 35.72 85.2641 36.64C84.1441 37.6 82.2641 38.16 80.7041 38C79.0641 37.84 77.7441 37.24 76.7841 36.68C75.9441 36.16 74.9441 35.16 74.5841 33.96C72.8641 28.44 76.8641 17.48 82.4641 12.68C83.9441 11.44 85.3441 11.16 86.5041 11.28C88.2241 11.44 90.2641 12.32 91.2641 13.24C92.3841 14.28 92.5841 15.4 92.5441 16.8C92.5041 18.4 92.0641 20.68 91.5441 21.96C91.3041 22.6 91.1041 23.04 90.0641 22.8C87.9841 22.32 87.2641 21.28 87.1841 19.4C87.1441 18.04 87.7841 16.2 86.9041 15.84C85.7441 15.36 82.5041 20.72 81.1441 24.4C79.6641 28.36 79.0241 32.96 80.4241 33.48C81.1841 33.76 82.2241 33.04 83.8641 31.2C84.9841 29.96 86.4641 29.6 87.9841 30.12ZM95.6581 16.76C95.2181 16 94.8581 14.84 94.6981 14.12C94.5381 13.32 94.7381 13.16 95.3781 13C98.1381 12.2 103.258 11.6 106.938 11.48C107.778 11.44 108.298 11.84 108.498 12.6C108.778 13.44 108.898 14.04 108.978 14.84C109.018 15.72 108.778 16.04 107.898 16.12C106.058 16.32 103.778 16.6 101.618 16.96C101.018 18.6 100.298 20.48 99.5781 22.44C100.578 22.28 101.578 22.2 102.658 22.16C103.538 22.12 104.018 22.32 104.298 23.08C104.578 23.88 104.778 24.6 104.858 25.4C104.978 26.28 104.738 26.52 103.858 26.72C101.818 27.12 99.5381 27.56 97.5381 28.08C97.0981 29.32 96.6581 30.56 96.2981 31.72C97.9381 31.4 99.3781 31.2 101.098 31.08C101.978 31 102.498 31.2 102.778 31.96C103.098 32.8 103.298 33.52 103.378 34.32C103.498 35.2 103.298 35.48 102.418 35.68C100.138 36.2 97.5781 36.76 95.4181 37.36C94.2181 37.68 93.6181 37.52 92.8981 36.92C92.3781 36.48 91.8581 35.96 91.2981 35.2C90.8581 34.6 90.5781 33.72 90.8181 32.6C91.6181 29.04 93.8981 22.04 95.6581 16.76ZM127.363 30.8C124.803 31.24 121.923 31.72 119.883 32.28C119.003 33.92 118.202 35.48 117.523 36.84C117.083 37.68 116.763 37.72 116.003 37.4C115.322 37.12 114.642 36.72 114.082 36.08C113.522 35.44 113.522 34.88 114.002 33.76C116.643 27.88 121.883 18.12 125.283 12.8C125.923 11.8 126.643 11.28 128.043 11.32C129.683 11.36 131.843 11.92 133.123 12.44C134.083 12.84 134.203 13.44 134.043 14.44C133.323 19.48 132.403 29.12 131.883 36.52C131.843 37.44 131.603 37.68 130.723 37.68C129.843 37.68 128.803 37.52 128.243 37.32C127.443 37.04 127.203 36.52 127.203 35.32C127.203 34.04 127.283 32.52 127.363 30.8ZM122.963 26.48C124.523 26.24 126.122 26 127.643 25.88C127.883 22.72 128.203 19.44 128.563 16.6C127.003 19.24 124.963 22.84 122.963 26.48ZM153.657 35.64C151.377 36.16 149.017 36.68 146.857 37.32C145.497 37.72 144.777 37.56 144.097 36.96C143.537 36.48 143.057 36 142.497 35.2C141.977 34.44 141.777 33.8 142.017 32.76C143.177 27.8 146.337 17.68 148.497 12.32C148.897 11.36 149.417 11.24 150.257 11.52C151.137 11.8 152.377 12.36 153.137 12.96C153.897 13.56 153.977 13.96 153.617 14.88C151.937 19.28 149.617 25.88 147.777 31.64C149.337 31.32 150.697 31.16 152.337 31.04C153.217 30.96 153.697 31.12 154.017 31.92C154.337 32.72 154.537 33.48 154.617 34.28C154.777 35.16 154.737 35.4 153.657 35.64ZM172.005 13.52C173.085 14.6 173.525 15.84 173.605 17.36C173.885 22.8 171.645 31.52 167.125 35.96C165.605 37.44 163.965 37.84 162.005 37.6C160.725 37.44 159.205 36.96 158.165 36.24C157.365 35.68 156.485 34.6 156.125 33.36C154.405 27.64 157.885 17.48 163.445 12.88C164.605 11.92 166.405 11.44 167.685 11.64C169.365 11.88 171.085 12.6 172.005 13.52ZM167.965 16.16C166.725 15.76 163.885 20.2 162.485 23.96C161.085 27.68 160.325 32.76 161.805 33.36C163.245 33.96 165.525 30.48 167.125 25.72C168.365 22.04 169.245 16.56 167.965 16.16ZM172.681 30.68C173.921 30.04 175.641 30.2 176.481 30.92C178.841 33 181.121 33.68 182.121 32.8C183.281 31.84 179.121 29.32 177.001 26.88C175.521 25.16 174.801 22.52 176.121 19.6C177.241 17 179.721 14 182.121 12.48C183.041 11.92 184.561 11.32 186.241 11.92C187.521 12.4 188.961 13.32 189.721 14.2C190.841 15.44 190.721 16.8 190.601 17.88C190.321 19.72 189.321 22.84 188.481 24.48C188.081 25.24 187.681 25.4 186.961 25.08C184.921 24.2 184.001 22.96 184.361 21.36C184.681 19.92 185.881 16.88 185.401 16.64C184.561 16.16 179.401 21.44 181.561 24.36C183.921 27.48 189.081 29.52 187.201 33.16C185.841 35.8 183.641 37.76 180.361 37.76C177.721 37.76 175.161 36.52 172.921 33.32C171.761 31.68 171.921 31.08 172.681 30.68ZM215.649 22.08C215.409 22.8 215.129 23.08 214.289 22.96C212.049 22.64 211.169 21.32 211.209 19.48C211.249 18.08 211.569 16.12 210.969 15.92C209.769 15.52 206.889 19.64 204.969 24.2C203.329 28.08 202.729 32.96 204.129 33.6C205.289 34.12 207.129 31.88 208.489 29.08C206.449 29.2 205.489 28.2 205.249 25.96C205.169 25.24 205.529 25.04 206.209 24.88C207.569 24.52 209.849 24.12 211.089 23.96C212.249 23.8 212.849 24 213.369 24.72C213.729 25.24 214.049 25.84 214.289 26.32C214.729 27.28 214.689 27.88 214.249 28.92C212.729 32.6 210.689 35.4 208.569 36.88C207.209 37.84 205.689 38.16 204.169 37.88C202.769 37.64 201.529 37.12 200.409 36.36C199.569 35.76 198.689 34.64 198.369 33.4C196.809 27.64 201.009 16.6 206.969 12.2C208.209 11.28 209.729 11.2 210.849 11.36C212.369 11.56 214.169 12.32 215.169 13.32C216.129 14.28 216.409 15.36 216.449 16.8C216.489 18.28 216.049 20.84 215.649 22.08ZM227.05 30.8C224.49 31.24 221.61 31.72 219.57 32.28C218.69 33.92 217.89 35.48 217.21 36.84C216.77 37.68 216.45 37.72 215.69 37.4C215.01 37.12 214.33 36.72 213.77 36.08C213.21 35.44 213.21 34.88 213.69 33.76C216.33 27.88 221.57 18.12 224.97 12.8C225.61 11.8 226.33 11.28 227.73 11.32C229.37 11.36 231.53 11.92 232.81 12.44C233.77 12.84 233.89 13.44 233.73 14.44C233.01 19.48 232.09 29.12 231.57 36.52C231.53 37.44 231.29 37.68 230.41 37.68C229.53 37.68 228.49 37.52 227.93 37.32C227.13 37.04 226.89 36.52 226.89 35.32C226.89 34.04 226.97 32.52 227.05 30.8ZM222.65 26.48C224.21 26.24 225.81 26 227.33 25.88C227.57 22.72 227.89 19.44 228.25 16.6C226.69 19.24 224.65 22.84 222.65 26.48ZM246.111 27.6C247.151 23.32 249.111 16.6 250.471 12.76C250.831 11.76 251.351 11.6 252.231 11.88C252.831 12.08 253.511 12.4 254.031 12.72C254.911 13.28 255.191 13.76 254.791 15.04C252.991 20.76 250.031 30.28 248.391 36.44C248.151 37.4 247.511 37.6 246.551 37.36C245.831 37.16 244.951 36.8 244.311 36.44C243.591 36.04 243.191 35.48 242.911 34.4C242.231 31.4 241.751 27.4 241.431 22.24C240.431 25.4 238.711 31.04 237.111 36.68C236.871 37.52 236.471 37.76 235.591 37.48C235.031 37.28 234.311 36.92 233.871 36.64C232.991 36.08 232.751 35.68 233.111 33.96C233.991 29.88 237.431 18.56 239.391 12.84C239.671 12.08 240.071 11.8 240.671 11.8C241.311 11.8 242.871 12.36 244.031 12.96C244.951 13.44 245.151 13.88 245.231 14.96C245.471 18.72 245.751 23.32 246.111 27.6ZM264.316 30.8C261.756 31.24 258.876 31.72 256.836 32.28C255.956 33.92 255.156 35.48 254.476 36.84C254.036 37.68 253.716 37.72 252.956 37.4C252.276 37.12 251.596 36.72 251.036 36.08C250.476 35.44 250.476 34.88 250.956 33.76C253.596 27.88 258.836 18.12 262.236 12.8C262.876 11.8 263.596 11.28 264.996 11.32C266.636 11.36 268.796 11.92 270.076 12.44C271.036 12.84 271.156 13.44 270.996 14.44C270.276 19.48 269.356 29.12 268.836 36.52C268.796 37.44 268.556 37.68 267.676 37.68C266.796 37.68 265.756 37.52 265.196 37.32C264.396 37.04 264.156 36.52 264.156 35.32C264.156 34.04 264.236 32.52 264.316 30.8ZM259.916 26.48C261.476 26.24 263.076 26 264.596 25.88C264.836 22.72 265.156 19.44 265.516 16.6C263.956 19.24 261.916 22.84 259.916 26.48ZM275.227 17.24C274.947 16.68 274.547 15.92 274.307 15.24C273.907 14.28 273.947 13.76 274.827 13.28C278.747 11.04 287.307 9.64 289.827 16.64C292.067 22.84 287.747 33.56 276.587 37.72C275.547 38.12 274.707 38.08 273.787 37.4C272.907 36.68 272.307 36.12 271.507 35.28C270.707 34.44 270.307 33.92 270.867 31.84C271.987 27.72 273.707 21.96 275.227 17.24ZM275.947 32.4C283.667 28.56 285.747 20.88 284.907 18.4C284.467 17.2 282.987 16.36 280.907 17.12C279.147 21.88 277.467 27.16 275.947 32.4ZM307.005 13.52C308.085 14.6 308.525 15.84 308.605 17.36C308.885 22.8 306.645 31.52 302.125 35.96C300.605 37.44 298.965 37.84 297.005 37.6C295.725 37.44 294.205 36.96 293.165 36.24C292.365 35.68 291.485 34.6 291.125 33.36C289.405 27.64 292.885 17.48 298.445 12.88C299.605 11.92 301.405 11.44 302.685 11.64C304.365 11.88 306.085 12.6 307.005 13.52ZM302.965 16.16C301.725 15.76 298.885 20.2 297.485 23.96C296.085 27.68 295.325 32.76 296.805 33.36C298.245 33.96 300.525 30.48 302.125 25.72C303.365 22.04 304.245 16.56 302.965 16.16ZM313.865 29.4C313.025 31.92 312.225 34.44 311.545 36.76C311.305 37.6 311.025 37.76 310.185 37.56C309.345 37.32 308.585 37.04 308.025 36.64C307.305 36.12 307.225 35.56 307.425 34.44C308.185 30.76 310.305 23.76 312.145 18C311.825 17.4 311.425 16.64 311.185 16C310.825 15 310.865 14.52 311.705 14.04C315.625 11.84 323.145 9.96 325.585 12.88C326.585 14.08 327.425 15.76 327.705 17.88C327.985 20.12 326.945 21.96 325.385 23.48C323.785 25.04 321.505 26.6 318.905 27.88C320.185 30.04 322.305 32.96 323.825 34.76C324.465 35.48 324.265 35.88 323.705 36.36C323.025 36.92 322.665 37 321.985 37.2C321.225 37.44 320.265 37.48 319.185 36.44C317.665 35.08 315.385 32.04 313.865 29.4ZM318.145 17.52C317.385 19.4 316.585 21.68 315.705 24.12C320.425 22.32 323.505 18.68 323.185 17.4C322.985 16.48 320.705 16.28 318.145 17.52ZM330.736 16.76C330.296 16 329.936 14.84 329.776 14.12C329.616 13.32 329.816 13.16 330.456 13C333.216 12.2 338.336 11.6 342.016 11.48C342.856 11.44 343.376 11.84 343.576 12.6C343.856 13.44 343.976 14.04 344.056 14.84C344.096 15.72 343.856 16.04 342.976 16.12C341.136 16.32 338.856 16.6 336.696 16.96C336.096 18.6 335.376 20.48 334.656 22.44C335.656 22.28 336.656 22.2 337.736 22.16C338.616 22.12 339.096 22.32 339.376 23.08C339.656 23.88 339.856 24.6 339.936 25.4C340.056 26.28 339.816 26.52 338.936 26.72C336.896 27.12 334.616 27.56 332.616 28.08C332.176 29.32 331.736 30.56 331.376 31.72C333.016 31.4 334.456 31.2 336.176 31.08C337.056 31 337.576 31.2 337.856 31.96C338.176 32.8 338.376 33.52 338.456 34.32C338.576 35.2 338.376 35.48 337.496 35.68C335.216 36.2 332.656 36.76 330.496 37.36C329.296 37.68 328.696 37.52 327.976 36.92C327.456 36.48 326.936 35.96 326.376 35.2C325.936 34.6 325.656 33.72 325.896 32.6C326.696 29.04 328.976 22.04 330.736 16.76ZM339.907 30.68C341.147 30.04 342.868 30.2 343.708 30.92C346.068 33 348.348 33.68 349.348 32.8C350.508 31.84 346.348 29.32 344.228 26.88C342.748 25.16 342.028 22.52 343.348 19.6C344.468 17 346.948 14 349.348 12.48C350.268 11.92 351.788 11.32 353.468 11.92C354.748 12.4 356.188 13.32 356.948 14.2C358.068 15.44 357.948 16.8 357.828 17.88C357.548 19.72 356.548 22.84 355.708 24.48C355.308 25.24 354.908 25.4 354.188 25.08C352.148 24.2 351.228 22.96 351.588 21.36C351.908 19.92 353.108 16.88 352.628 16.64C351.788 16.16 346.628 21.44 348.788 24.36C351.148 27.48 356.308 29.52 354.428 33.16C353.068 35.8 350.868 37.76 347.588 37.76C344.948 37.76 342.388 36.52 340.147 33.32C338.987 31.68 339.147 31.08 339.907 30.68ZM369.836 17.24C369.556 16.68 369.156 15.92 368.916 15.24C368.516 14.28 368.556 13.76 369.436 13.28C373.356 11.04 381.916 9.64 384.436 16.64C386.676 22.84 382.356 33.56 371.196 37.72C370.156 38.12 369.316 38.08 368.396 37.4C367.516 36.68 366.916 36.12 366.116 35.28C365.316 34.44 364.916 33.92 365.476 31.84C366.596 27.72 368.316 21.96 369.836 17.24ZM370.556 32.4C378.276 28.56 380.356 20.88 379.516 18.4C379.076 17.2 377.596 16.36 375.516 17.12C373.756 21.88 372.076 27.16 370.556 32.4ZM389.096 16.76C388.656 16 388.296 14.84 388.136 14.12C387.976 13.32 388.176 13.16 388.816 13C391.576 12.2 396.696 11.6 400.376 11.48C401.216 11.44 401.736 11.84 401.936 12.6C402.216 13.44 402.336 14.04 402.416 14.84C402.456 15.72 402.216 16.04 401.336 16.12C399.496 16.32 397.216 16.6 395.056 16.96C394.456 18.6 393.736 20.48 393.016 22.44C394.016 22.28 395.016 22.2 396.096 22.16C396.976 22.12 397.456 22.32 397.736 23.08C398.016 23.88 398.216 24.6 398.296 25.4C398.416 26.28 398.176 26.52 397.296 26.72C395.256 27.12 392.976 27.56 390.976 28.08C390.536 29.32 390.096 30.56 389.736 31.72C391.376 31.4 392.816 31.2 394.536 31.08C395.416 31 395.936 31.2 396.216 31.96C396.536 32.8 396.736 33.52 396.816 34.32C396.936 35.2 396.736 35.48 395.856 35.68C393.576 36.2 391.016 36.76 388.856 37.36C387.656 37.68 387.056 37.52 386.336 36.92C385.816 36.48 385.296 35.96 384.736 35.2C384.296 34.6 384.016 33.72 384.256 32.6C385.056 29.04 387.336 22.04 389.096 16.76ZM419.36 35.64C417.08 36.16 414.72 36.68 412.56 37.32C411.2 37.72 410.48 37.56 409.8 36.96C409.24 36.48 408.76 36 408.2 35.2C407.68 34.44 407.48 33.8 407.72 32.76C408.88 27.8 412.04 17.68 414.2 12.32C414.6 11.36 415.12 11.24 415.96 11.52C416.84 11.8 418.08 12.36 418.84 12.96C419.6 13.56 419.68 13.96 419.32 14.88C417.64 19.28 415.32 25.88 413.48 31.64C415.04 31.32 416.4 31.16 418.04 31.04C418.92 30.96 419.4 31.12 419.72 31.92C420.04 32.72 420.24 33.48 420.32 34.28C420.48 35.16 420.44 35.4 419.36 35.64ZM433.417 30.8C430.857 31.24 427.977 31.72 425.937 32.28C425.057 33.92 424.257 35.48 423.577 36.84C423.137 37.68 422.817 37.72 422.057 37.4C421.377 37.12 420.697 36.72 420.137 36.08C419.577 35.44 419.577 34.88 420.057 33.76C422.697 27.88 427.937 18.12 431.337 12.8C431.977 11.8 432.697 11.28 434.097 11.32C435.737 11.36 437.897 11.92 439.177 12.44C440.137 12.84 440.257 13.44 440.097 14.44C439.377 19.48 438.457 29.12 437.937 36.52C437.897 37.44 437.657 37.68 436.777 37.68C435.897 37.68 434.857 37.52 434.297 37.32C433.497 37.04 433.257 36.52 433.257 35.32C433.257 34.04 433.337 32.52 433.417 30.8ZM429.017 26.48C430.577 26.24 432.177 26 433.697 25.88C433.937 22.72 434.257 19.44 434.617 16.6C433.057 19.24 431.017 22.84 429.017 26.48Z" fill="#43454A"/>
<path d="M85.3156 80.7629C118.981 81.5425 152.623 83.2289 186.283 84.2627C224.407 85.4321 262.537 86.5422 300.667 87.1778C318.079 87.4659 335.496 87.8812 352.907 87.9998C357.28 88.0337 361 82.4747 361 76.0343C361 69.5177 357.298 64.1026 352.907 64.0687C319.254 63.8314 285.594 64.2636 251.94 64.5348C213.81 64.8399 175.686 65.9162 137.556 66.5009C120.139 66.772 102.733 67.3991 85.3156 67.5601C79.5615 67.611 79.5615 80.6273 85.3156 80.7629Z" fill="#D0D032"/>
<path d="M114.728 61.248C111.72 69.44 106.344 86.4 103.848 95.552C103.464 96.96 103.016 97.216 101.672 96.832C100.328 96.448 98.984 95.936 97.832 95.104C96.744 94.336 96.488 93.376 96.936 91.52C98.088 86.336 101.48 74.24 104.168 65.984C102.312 64.768 101.8 64.384 102.824 62.656C103.912 60.736 105.576 58.496 106.728 57.024C107.816 55.68 108.392 55.488 109.8 55.936C111.144 56.384 112.616 57.088 113.896 58.176C115.112 59.2 115.304 59.712 114.728 61.248ZM122.682 88.384C124.986 87.936 127.674 87.744 129.402 87.68C130.746 87.616 131.45 88.192 132.026 89.344C132.538 90.304 133.114 91.84 133.306 92.928C133.626 94.208 133.242 94.528 131.962 94.656C127.802 95.04 120.506 96.192 116.986 97.088C114.554 97.664 113.85 97.216 113.21 96.384C112.442 95.488 111.034 93.632 110.33 92.352C109.818 91.328 109.242 89.856 110.842 88.64C121.018 80.576 134.266 65.344 132.538 63.744C131.45 62.72 128.442 65.28 125.306 68.16C123.322 69.888 120.122 69.76 117.946 68.864C116.794 68.352 116.282 67.264 118.202 64.448C121.21 59.968 125.562 56.64 129.594 55.808C134.458 54.784 138.298 58.112 139.578 60.8C141.498 64.896 140.026 68.416 137.402 72.576C134.266 77.504 128.25 83.968 122.682 88.384ZM143.439 65.344C143.439 61.056 147.791 55.552 153.167 55.552C157.327 55.552 162.191 57.664 162.191 62.912C162.191 70.016 157.647 72.96 153.231 72.96C148.303 72.96 143.439 70.848 143.439 65.344ZM155.727 62.336C155.727 60.928 155.151 60.224 154.191 60.224C151.695 60.224 150.031 63.872 150.031 66.624C150.031 67.968 150.671 68.544 151.759 68.544C154.319 68.544 155.727 64.512 155.727 62.336ZM181.466 63.616C180.762 62.4 180.186 60.544 179.93 59.392C179.674 58.112 179.994 57.856 181.018 57.6C185.434 56.32 193.626 55.36 199.514 55.168C200.858 55.104 201.69 55.744 202.01 56.96C202.458 58.304 202.65 59.264 202.778 60.544C202.842 61.952 202.458 62.464 201.05 62.592C198.106 62.912 194.458 63.36 191.002 63.936C190.042 66.56 188.89 69.568 187.738 72.704C189.338 72.448 190.938 72.32 192.666 72.256C194.074 72.192 194.842 72.512 195.29 73.728C195.738 75.008 196.058 76.16 196.186 77.44C196.378 78.848 195.994 79.232 194.586 79.552C191.322 80.192 187.674 80.896 184.474 81.728C183.77 83.712 183.066 85.696 182.49 87.552C185.114 87.04 187.418 86.72 190.17 86.528C191.578 86.4 192.41 86.72 192.858 87.936C193.37 89.28 193.69 90.432 193.818 91.712C194.01 93.12 193.69 93.568 192.282 93.888C188.634 94.72 184.538 95.616 181.082 96.576C179.161 97.088 178.202 96.832 177.049 95.872C176.218 95.168 175.386 94.336 174.489 93.12C173.785 92.16 173.337 90.752 173.721 88.96C175.002 83.264 178.65 72.064 181.466 63.616ZM205.963 64.384C205.515 63.488 204.875 62.272 204.491 61.184C203.851 59.648 203.915 58.816 205.323 58.048C211.595 54.464 225.291 52.224 229.323 63.424C232.907 73.344 225.995 90.496 208.139 97.152C206.475 97.792 205.131 97.728 203.659 96.64C202.251 95.488 201.291 94.592 200.011 93.248C198.73 91.904 198.09 91.072 198.986 87.744C200.779 81.152 203.531 71.936 205.963 64.384ZM207.115 88.64C219.467 82.496 222.795 70.208 221.451 66.24C220.747 64.32 218.378 62.976 215.051 64.192C212.235 71.808 209.547 80.256 207.115 88.64ZM245.851 58.304C247.131 59.328 247.259 59.904 246.747 61.376C243.803 69.312 238.491 86.336 235.867 95.68C235.483 97.088 234.971 97.344 233.627 96.96C232.283 96.576 230.747 95.872 229.659 95.104C228.507 94.272 228.315 93.44 228.699 91.584C230.235 84.288 235.675 65.216 238.491 57.216C239.067 55.68 239.899 55.424 241.307 55.872C242.715 56.32 244.699 57.408 245.851 58.304ZM265.5 84.992C267.484 85.696 267.164 87.168 266.076 89.28C264.86 91.712 262.812 93.952 261.148 95.424C259.356 96.96 256.348 97.856 253.852 97.6C251.228 97.344 249.116 96.384 247.58 95.488C246.236 94.656 244.636 93.056 244.059 91.136C241.307 82.304 247.708 64.768 256.668 57.088C259.036 55.104 261.276 54.656 263.132 54.848C265.884 55.104 269.148 56.512 270.748 57.984C272.54 59.648 272.86 61.44 272.796 63.68C272.732 66.24 272.028 69.888 271.196 71.936C270.812 72.96 270.492 73.664 268.828 73.28C265.5 72.512 264.348 70.848 264.22 67.84C264.156 65.664 265.18 62.72 263.772 62.144C261.916 61.376 256.732 69.952 254.556 75.84C252.188 82.176 251.164 89.536 253.404 90.368C254.62 90.816 256.284 89.664 258.908 86.72C260.7 84.736 263.068 84.16 265.5 84.992ZM286.539 58.304C287.819 59.328 287.947 59.904 287.435 61.376C284.491 69.312 279.179 86.336 276.555 95.68C276.171 97.088 275.659 97.344 274.315 96.96C272.971 96.576 271.434 95.872 270.346 95.104C269.194 94.272 269.002 93.44 269.386 91.584C270.922 84.288 276.363 65.216 279.179 57.216C279.755 55.68 280.587 55.424 281.995 55.872C283.403 56.32 285.387 57.408 286.539 58.304ZM310.871 58.432C312.599 60.16 313.303 62.144 313.431 64.576C313.879 73.28 310.295 87.232 303.063 94.336C300.631 96.704 298.007 97.344 294.871 96.96C292.823 96.704 290.391 95.936 288.727 94.784C287.447 93.888 286.039 92.16 285.463 90.176C282.711 81.024 288.279 64.768 297.175 57.408C299.031 55.872 301.911 55.104 303.959 55.424C306.647 55.808 309.399 56.96 310.871 58.432ZM304.407 62.656C302.423 62.016 297.879 69.12 295.639 75.136C293.399 81.088 292.183 89.216 294.551 90.176C296.855 91.136 300.503 85.568 303.063 77.952C305.047 72.064 306.455 63.296 304.407 62.656ZM307.735 52.16C306.199 52.48 304.855 52.352 303.959 51.84C302.487 51.008 301.207 49.536 301.207 48.768C301.207 48.256 301.399 48 302.359 47.68C306.967 46.144 311.319 44.224 315.799 41.984C316.951 41.408 317.463 41.664 317.911 42.56C318.295 43.328 318.551 44.608 318.551 45.76C318.551 46.656 318.231 47.616 317.207 48.32C314.775 49.984 310.743 51.52 307.735 52.16ZM332.752 80.96C334.416 74.112 337.552 63.36 339.728 57.216C340.304 55.616 341.136 55.36 342.544 55.808C343.504 56.128 344.592 56.64 345.424 57.152C346.832 58.048 347.28 58.816 346.64 60.864C343.76 70.016 339.024 85.248 336.4 95.104C336.016 96.64 334.992 96.96 333.456 96.576C332.304 96.256 330.896 95.68 329.872 95.104C328.72 94.464 328.08 93.568 327.632 91.84C326.544 87.04 325.776 80.64 325.264 72.384C323.664 77.44 320.912 86.464 318.352 95.488C317.968 96.832 317.328 97.216 315.92 96.768C315.024 96.448 313.872 95.872 313.168 95.424C311.76 94.528 311.376 93.888 311.952 91.136C313.36 84.608 318.864 66.496 322 57.344C322.448 56.128 323.088 55.68 324.048 55.68C325.072 55.68 327.568 56.576 329.424 57.536C330.896 58.304 331.216 59.008 331.344 60.736C331.728 66.752 332.176 74.112 332.752 80.96Z" fill="#43454A"/>
</svg>
