<svg width="556" height="109" viewBox="0 0 556 109" fill="none" xmlns="http://www.w3.org/2000/svg">
<path d="M66.4462 36.7388C67.9352 37.2672 67.695 38.3719 66.8785 39.9568C65.9659 41.782 64.429 43.463 63.1802 44.5677C61.8354 45.7205 59.578 46.3929 57.7048 46.2007C55.7356 46.0086 54.1506 45.2882 52.9978 44.6158C51.9892 43.9914 50.7885 42.7906 50.3562 41.3497C48.2909 34.7216 53.0939 21.5614 59.8181 15.7978C61.5952 14.3088 63.2763 13.9726 64.6691 14.1167C66.7344 14.3088 69.184 15.3655 70.3847 16.4702C71.7295 17.719 71.9697 19.0638 71.9217 20.7449C71.8736 22.666 71.3453 25.4038 70.7209 26.9407C70.4327 27.7092 70.1926 28.2375 68.9438 27.9493C66.4462 27.373 65.5817 26.1242 65.4856 23.8668C65.4376 22.2338 66.2061 20.0244 65.1494 19.5921C63.7566 19.0158 59.8661 25.4518 58.2331 29.8705C56.456 34.6255 55.6875 40.149 57.3686 40.7734C58.2811 41.1096 59.5299 40.245 61.4992 38.0356C62.844 36.5467 64.6211 36.1145 66.4462 36.7388ZM90.4117 16.8064C91.7085 18.1032 92.2369 19.5921 92.3329 21.4173C92.6691 27.9493 89.9794 38.4199 84.5521 43.7512C82.7269 45.5283 80.7577 46.0086 78.4042 45.7205C76.8673 45.5283 75.0421 44.952 73.7933 44.0874C72.8327 43.415 71.7761 42.1182 71.3438 40.6293C69.2785 33.761 73.4571 21.5614 80.1333 16.0379C81.5262 14.8852 83.6875 14.3088 85.2245 14.549C87.2417 14.8372 89.307 15.7017 90.4117 16.8064ZM85.5607 19.9764C84.0718 19.4961 80.6616 24.8274 78.9806 29.3422C77.2995 33.809 76.387 39.9088 78.1641 40.6293C79.8931 41.3497 82.6309 37.1711 84.5521 31.4555C86.041 27.0368 87.0976 20.4567 85.5607 19.9764ZM106.833 33.7129C108.081 28.5737 110.435 20.5047 112.068 15.8938C112.5 14.6931 113.125 14.5009 114.181 14.8372C114.902 15.0773 115.718 15.4616 116.343 15.8458C117.399 16.5182 117.736 17.0946 117.255 18.6315C115.094 25.4998 111.54 36.931 109.57 44.3276C109.282 45.4803 108.514 45.7205 107.361 45.4323C106.497 45.1921 105.44 44.7598 104.671 44.3276C103.807 43.8473 103.327 43.1749 102.99 41.878C102.174 38.2758 101.597 33.4728 101.213 27.2769C100.012 31.0713 97.9472 37.8435 96.026 44.6158C95.7378 45.6244 95.2575 45.9126 94.2008 45.5764C93.5284 45.3362 92.6639 44.9039 92.1355 44.5677C91.0789 43.8953 90.7907 43.415 91.223 41.3497C92.2796 36.4507 96.4102 22.8582 98.7637 15.9899C99.0999 15.0773 99.5802 14.7411 100.301 14.7411C101.069 14.7411 102.942 15.4135 104.335 16.134C105.44 16.7103 105.68 17.2387 105.776 18.5355C106.064 23.0503 106.4 28.5737 106.833 33.7129ZM135.065 16.8064C136.361 18.1032 136.89 19.5921 136.986 21.4173C137.322 27.9493 134.632 38.4199 129.205 43.7512C127.38 45.5283 125.411 46.0086 123.057 45.7205C121.52 45.5283 119.695 44.952 118.446 44.0874C117.486 43.415 116.429 42.1182 115.997 40.6293C113.931 33.761 118.11 21.5614 124.786 16.0379C126.179 14.8852 128.34 14.3088 129.877 14.549C131.895 14.8372 133.96 15.7017 135.065 16.8064ZM130.214 19.9764C128.725 19.4961 125.315 24.8274 123.633 29.3422C121.952 33.809 121.04 39.9088 122.817 40.6293C124.546 41.3497 127.284 37.1711 129.205 31.4555C130.694 27.0368 131.751 20.4567 130.214 19.9764ZM153.407 36.7388C154.896 37.2672 154.656 38.3719 153.839 39.9568C152.927 41.782 151.39 43.463 150.141 44.5677C148.796 45.7205 146.539 46.3929 144.665 46.2007C142.696 46.0086 141.111 45.2882 139.958 44.6158C138.95 43.9914 137.749 42.7906 137.317 41.3497C135.251 34.7216 140.054 21.5614 146.779 15.7978C148.556 14.3088 150.237 13.9726 151.63 14.1167C153.695 14.3088 156.145 15.3655 157.345 16.4702C158.69 17.719 158.93 19.0638 158.882 20.7449C158.834 22.666 158.306 25.4038 157.681 26.9407C157.393 27.7092 157.153 28.2375 155.904 27.9493C153.407 27.373 152.542 26.1242 152.446 23.8668C152.398 22.2338 153.167 20.0244 152.11 19.5921C150.717 19.0158 146.827 25.4518 145.194 29.8705C143.417 34.6255 142.648 40.149 144.329 40.7734C145.242 41.1096 146.49 40.245 148.46 38.0356C149.805 36.5467 151.582 36.1145 153.407 36.7388ZM162.621 20.6968C162.093 19.7842 161.661 18.3914 161.469 17.5268C161.277 16.5662 161.517 16.3741 162.285 16.182C165.599 15.2214 171.747 14.5009 176.166 14.3569C177.175 14.3088 177.799 14.7891 178.039 15.7017C178.375 16.7103 178.519 17.4308 178.615 18.3914C178.663 19.448 178.375 19.8323 177.319 19.9283C175.109 20.1685 172.372 20.5047 169.778 20.937C169.057 22.9062 168.193 25.1636 167.328 27.5171C168.529 27.325 169.73 27.2289 171.027 27.1809C172.083 27.1328 172.66 27.373 172.996 28.2856C173.332 29.2462 173.572 30.1107 173.668 31.0713C173.812 32.128 173.524 32.4161 172.468 32.6563C170.018 33.1366 167.28 33.6649 164.879 34.2893C164.351 35.7782 163.822 37.2672 163.39 38.66C165.359 38.2758 167.088 38.0356 169.154 37.8916C170.21 37.7955 170.835 38.0356 171.171 38.9482C171.555 39.9568 171.795 40.8214 171.891 41.782C172.035 42.8386 171.795 43.1749 170.739 43.415C168.001 44.0394 164.927 44.7118 162.333 45.4323C160.892 45.8165 160.172 45.6244 159.307 44.9039C158.683 44.3756 158.059 43.7512 157.386 42.8386C156.858 42.1182 156.522 41.0615 156.81 39.7167C157.77 35.442 160.508 27.0368 162.621 20.6968ZM200.69 37.5554C197.617 38.0837 194.158 38.66 191.709 39.3325C190.652 41.3017 189.692 43.1749 188.875 44.8079C188.347 45.8165 187.963 45.8645 187.05 45.4803C186.233 45.1441 185.417 44.6638 184.745 43.8953C184.072 43.1268 184.072 42.4544 184.648 41.1096C187.818 34.0492 194.11 22.3298 198.193 15.9418C198.961 14.7411 199.826 14.1167 201.507 14.1647C203.476 14.2128 206.07 14.8852 207.607 15.5096C208.76 15.9899 208.904 16.7103 208.711 17.9111C207.847 23.9629 206.742 35.5381 206.118 44.4236C206.07 45.5283 205.782 45.8165 204.725 45.8165C203.668 45.8165 202.42 45.6244 201.747 45.3842C200.787 45.048 200.498 44.4236 200.498 42.9827C200.498 41.4458 200.594 39.6206 200.69 37.5554ZM195.407 32.3681C197.28 32.0799 199.202 31.7918 201.027 31.6477C201.315 27.8533 201.699 23.9148 202.131 20.5047C200.258 23.6747 197.809 27.9974 195.407 32.3681ZM232.263 43.367C229.526 43.9914 226.692 44.6158 224.098 45.3842C222.465 45.8645 221.601 45.6724 220.784 44.952C220.112 44.3756 219.535 43.7993 218.863 42.8386C218.239 41.9261 217.999 41.1576 218.287 39.9088C219.68 33.9531 223.474 21.8015 226.068 15.3655C226.548 14.2128 227.172 14.0687 228.181 14.4049C229.238 14.7411 230.726 15.4135 231.639 16.134C232.552 16.8544 232.648 17.3347 232.215 18.4394C230.198 23.7227 227.412 31.6477 225.203 38.564C227.076 38.1797 228.709 37.9876 230.678 37.8435C231.735 37.7475 232.311 37.9396 232.696 38.9002C233.08 39.8608 233.32 40.7734 233.416 41.734C233.608 42.7906 233.56 43.0788 232.263 43.367ZM254.295 16.8064C255.592 18.1032 256.12 19.5921 256.217 21.4173C256.553 27.9493 253.863 38.4199 248.436 43.7512C246.611 45.5283 244.641 46.0086 242.288 45.7205C240.751 45.5283 238.926 44.952 237.677 44.0874C236.716 43.415 235.66 42.1182 235.227 40.6293C233.162 33.761 237.341 21.5614 244.017 16.0379C245.41 14.8852 247.571 14.3088 249.108 14.549C251.125 14.8372 253.191 15.7017 254.295 16.8064ZM249.444 19.9764C247.955 19.4961 244.545 24.8274 242.864 29.3422C241.183 33.809 240.271 39.9088 242.048 40.6293C243.777 41.3497 246.514 37.1711 248.436 31.4555C249.925 27.0368 250.981 20.4567 249.444 19.9764ZM255.107 37.4113C256.596 36.6428 258.661 36.8349 259.669 37.6994C262.503 40.197 265.241 41.0135 266.442 39.9568C267.835 38.8041 262.839 35.7782 260.294 32.8484C258.517 30.7831 257.652 27.6131 259.237 24.1069C260.582 20.985 263.56 17.3827 266.442 15.5576C267.546 14.8852 269.371 14.1647 271.389 14.8852C272.926 15.4616 274.655 16.5662 275.567 17.6229C276.912 19.1118 276.768 20.7449 276.624 22.0417C276.288 24.251 275.087 27.9974 274.078 29.9666C273.598 30.8792 273.118 31.0713 272.253 30.6871C269.804 29.6304 268.699 28.1415 269.131 26.2203C269.516 24.4912 270.956 20.8409 270.38 20.5527C269.371 19.9764 263.176 26.3163 265.769 29.8225C268.603 33.5689 274.799 36.0184 272.541 40.3891C270.908 43.5591 268.267 45.9126 264.328 45.9126C261.158 45.9126 258.084 44.4236 255.395 40.5812C254.002 38.612 254.194 37.8916 255.107 37.4113ZM306.701 27.0848C306.413 27.9493 306.077 28.2856 305.068 28.1415C302.378 27.7572 301.322 26.1722 301.37 23.9629C301.418 22.2818 301.802 19.9283 301.081 19.6882C299.641 19.2079 296.182 24.155 293.877 29.6304C291.908 34.2893 291.187 40.149 292.868 40.9175C294.261 41.5418 296.471 38.8522 298.104 35.4901C295.654 35.6341 294.501 34.4334 294.213 31.7437C294.117 30.8792 294.549 30.639 295.366 30.4469C296.999 30.0146 299.737 29.5343 301.226 29.3422C302.618 29.1501 303.339 29.3902 303.963 30.2548C304.395 30.8792 304.78 31.5996 305.068 32.176C305.596 33.3287 305.548 34.0492 305.02 35.2979C303.195 39.7167 300.745 43.0788 298.2 44.8559C296.567 46.0086 294.741 46.3929 292.916 46.0567C291.235 45.7685 289.746 45.1441 288.402 44.2315C287.393 43.5111 286.336 42.1662 285.952 40.6773C284.079 33.761 289.122 20.5047 296.278 15.2214C297.767 14.1167 299.592 14.0206 300.937 14.2128C302.762 14.4529 304.924 15.3655 306.125 16.5662C307.277 17.719 307.614 19.0158 307.662 20.7449C307.71 22.522 307.181 25.5959 306.701 27.0848ZM320.39 37.5554C317.316 38.0837 313.858 38.66 311.409 39.3325C310.352 41.3017 309.391 43.1749 308.575 44.8079C308.047 45.8165 307.662 45.8645 306.75 45.4803C305.933 45.1441 305.117 44.6638 304.444 43.8953C303.772 43.1268 303.772 42.4544 304.348 41.1096C307.518 34.0492 313.81 22.3298 317.893 15.9418C318.661 14.7411 319.526 14.1167 321.207 14.1647C323.176 14.2128 325.77 14.8852 327.307 15.5096C328.459 15.9899 328.603 16.7103 328.411 17.9111C327.547 23.9629 326.442 35.5381 325.818 44.4236C325.77 45.5283 325.481 45.8165 324.425 45.8165C323.368 45.8165 322.119 45.6244 321.447 45.3842C320.486 45.048 320.198 44.4236 320.198 42.9827C320.198 41.4458 320.294 39.6206 320.39 37.5554ZM315.107 32.3681C316.98 32.0799 318.901 31.7918 320.726 31.6477C321.015 27.8533 321.399 23.9148 321.831 20.5047C319.958 23.6747 317.508 27.9974 315.107 32.3681ZM343.277 33.7129C344.526 28.5737 346.88 20.5047 348.513 15.8938C348.945 14.6931 349.569 14.5009 350.626 14.8372C351.346 15.0773 352.163 15.4616 352.787 15.8458C353.844 16.5182 354.18 17.0946 353.7 18.6315C351.538 25.4998 347.984 36.931 346.015 44.3276C345.727 45.4803 344.958 45.7205 343.806 45.4323C342.941 45.1921 341.884 44.7598 341.116 44.3276C340.251 43.8473 339.771 43.1749 339.435 41.878C338.618 38.2758 338.042 33.4728 337.658 27.2769C336.457 31.0713 334.392 37.8435 332.471 44.6158C332.182 45.6244 331.702 45.9126 330.645 45.5764C329.973 45.3362 329.108 44.9039 328.58 44.5677C327.523 43.8953 327.235 43.415 327.668 41.3497C328.724 36.4507 332.855 22.8582 335.208 15.9899C335.544 15.0773 336.025 14.7411 336.745 14.7411C337.514 14.7411 339.387 15.4135 340.78 16.134C341.884 16.7103 342.125 17.2387 342.221 18.5355C342.509 23.0503 342.845 28.5737 343.277 33.7129ZM365.137 37.5554C362.063 38.0837 358.605 38.66 356.155 39.3325C355.099 41.3017 354.138 43.1749 353.322 44.8079C352.793 45.8165 352.409 45.8645 351.496 45.4803C350.68 45.1441 349.863 44.6638 349.191 43.8953C348.519 43.1268 348.519 42.4544 349.095 41.1096C352.265 34.0492 358.557 22.3298 362.639 15.9418C363.408 14.7411 364.272 14.1167 365.953 14.1647C367.923 14.2128 370.516 14.8852 372.053 15.5096C373.206 15.9899 373.35 16.7103 373.158 17.9111C372.293 23.9629 371.189 35.5381 370.564 44.4236C370.516 45.5283 370.228 45.8165 369.171 45.8165C368.115 45.8165 366.866 45.6244 366.194 45.3842C365.233 45.048 364.945 44.4236 364.945 42.9827C364.945 41.4458 365.041 39.6206 365.137 37.5554ZM359.854 32.3681C361.727 32.0799 363.648 31.7918 365.473 31.6477C365.761 27.8533 366.146 23.9148 366.578 20.5047C364.705 23.6747 362.255 27.9974 359.854 32.3681ZM378.238 21.2732C377.902 20.6008 377.422 19.6882 377.134 18.8717C376.653 17.719 376.701 17.0946 377.758 16.5182C382.465 13.8285 392.743 12.1475 395.769 20.5527C398.459 27.9974 393.272 40.8694 379.871 45.8645C378.622 46.3448 377.614 46.2968 376.509 45.4803C375.453 44.6158 374.732 43.9433 373.771 42.9347C372.811 41.9261 372.331 41.3017 373.003 38.8041C374.348 33.857 376.413 26.9407 378.238 21.2732ZM379.103 39.4766C388.373 34.8657 390.87 25.6439 389.862 22.666C389.333 21.2251 387.556 20.2165 385.059 21.1291C382.945 26.8447 380.928 33.1846 379.103 39.4766ZM416.397 16.8064C417.693 18.1032 418.222 19.5921 418.318 21.4173C418.654 27.9493 415.964 38.4199 410.537 43.7512C408.712 45.5283 406.743 46.0086 404.389 45.7205C402.852 45.5283 401.027 44.952 399.778 44.0874C398.818 43.415 397.761 42.1182 397.329 40.6293C395.263 33.761 399.442 21.5614 406.118 16.0379C407.511 14.8852 409.672 14.3088 411.209 14.549C413.227 14.8372 415.292 15.7017 416.397 16.8064ZM411.546 19.9764C410.057 19.4961 406.646 24.8274 404.965 29.3422C403.284 33.809 402.372 39.9088 404.149 40.6293C405.878 41.3497 408.616 37.1711 410.537 31.4555C412.026 27.0368 413.082 20.4567 411.546 19.9764ZM424.634 35.8743C423.625 38.9002 422.664 41.9261 421.848 44.7118C421.56 45.7205 421.224 45.9126 420.215 45.6724C419.206 45.3842 418.294 45.048 417.621 44.5677C416.757 43.9433 416.661 43.2709 416.901 41.9261C417.813 37.5073 420.359 29.1021 422.568 22.1857C422.184 21.4653 421.704 20.5527 421.416 19.7842C420.983 18.5835 421.031 18.0071 422.04 17.4308C426.747 14.7891 435.777 12.5317 438.706 16.0379C439.907 17.4788 440.916 19.4961 441.252 22.0417C441.588 24.7313 440.34 26.9407 438.466 28.7659C436.545 30.639 433.807 32.5122 430.685 34.0492C432.222 36.6428 434.768 40.149 436.593 42.3103C437.362 43.1749 437.122 43.6552 436.449 44.2315C435.633 44.9039 435.2 45 434.384 45.2402C433.471 45.5283 432.319 45.5764 431.022 44.3276C429.197 42.6946 426.459 39.0443 424.634 35.8743ZM429.773 21.6094C428.86 23.8668 427.9 26.6045 426.843 29.5343C432.511 27.373 436.209 23.0023 435.825 21.4653C435.585 20.3606 432.847 20.1205 429.773 21.6094ZM444.891 20.6968C444.363 19.7842 443.931 18.3914 443.739 17.5268C443.547 16.5662 443.787 16.3741 444.555 16.182C447.869 15.2214 454.017 14.5009 458.436 14.3569C459.445 14.3088 460.069 14.7891 460.309 15.7017C460.645 16.7103 460.789 17.4308 460.885 18.3914C460.934 19.448 460.645 19.8323 459.589 19.9283C457.379 20.1685 454.642 20.5047 452.048 20.937C451.328 22.9062 450.463 25.1636 449.598 27.5171C450.799 27.325 452 27.2289 453.297 27.1809C454.353 27.1328 454.93 27.373 455.266 28.2856C455.602 29.2462 455.842 30.1107 455.938 31.0713C456.082 32.128 455.794 32.4161 454.738 32.6563C452.288 33.1366 449.55 33.6649 447.149 34.2893C446.621 35.7782 446.092 37.2672 445.66 38.66C447.629 38.2758 449.358 38.0356 451.424 37.8916C452.48 37.7955 453.105 38.0356 453.441 38.9482C453.825 39.9568 454.065 40.8214 454.161 41.782C454.305 42.8386 454.065 43.1749 453.009 43.415C450.271 44.0394 447.197 44.7118 444.603 45.4323C443.162 45.8165 442.442 45.6244 441.577 44.9039C440.953 44.3756 440.329 43.7512 439.656 42.8386C439.128 42.1182 438.792 41.0615 439.08 39.7167C440.04 35.442 442.778 27.0368 444.891 20.6968ZM455.904 37.4113C457.393 36.6428 459.458 36.8349 460.467 37.6994C463.301 40.197 466.038 41.0135 467.239 39.9568C468.632 38.8041 463.637 35.7782 461.091 32.8484C459.314 30.7831 458.449 27.6131 460.034 24.1069C461.379 20.985 464.357 17.3827 467.239 15.5576C468.344 14.8852 470.169 14.1647 472.186 14.8852C473.723 15.4616 475.452 16.5662 476.365 17.6229C477.71 19.1118 477.565 20.7449 477.421 22.0417C477.085 24.251 475.884 27.9974 474.876 29.9666C474.395 30.8792 473.915 31.0713 473.051 30.6871C470.601 29.6304 469.496 28.1415 469.929 26.2203C470.313 24.4912 471.754 20.8409 471.177 20.5527C470.169 19.9764 463.973 26.3163 466.567 29.8225C469.4 33.5689 475.596 36.0184 473.339 40.3891C471.706 43.5591 469.064 45.9126 465.126 45.9126C461.956 45.9126 458.882 44.4236 456.192 40.5812C454.799 38.612 454.991 37.8916 455.904 37.4113ZM491.84 21.2732C491.504 20.6008 491.024 19.6882 490.736 18.8717C490.255 17.719 490.303 17.0946 491.36 16.5182C496.067 13.8285 506.345 12.1475 509.371 20.5527C512.061 27.9974 506.874 40.8694 493.473 45.8645C492.225 46.3448 491.216 46.2968 490.111 45.4803C489.055 44.6158 488.334 43.9433 487.374 42.9347C486.413 41.9261 485.933 41.3017 486.605 38.8041C487.95 33.857 490.015 26.9407 491.84 21.2732ZM492.705 39.4766C501.975 34.8657 504.472 25.6439 503.464 22.666C502.935 21.2251 501.158 20.2165 498.661 21.1291C496.547 26.8447 494.53 33.1846 492.705 39.4766ZM514.967 20.6968C514.438 19.7842 514.006 18.3914 513.814 17.5268C513.622 16.5662 513.862 16.3741 514.63 16.182C517.944 15.2214 524.092 14.5009 528.511 14.3569C529.52 14.3088 530.144 14.7891 530.384 15.7017C530.72 16.7103 530.864 17.4308 530.96 18.3914C531.009 19.448 530.72 19.8323 529.664 19.9283C527.454 20.1685 524.717 20.5047 522.123 20.937C521.403 22.9062 520.538 25.1636 519.673 27.5171C520.874 27.325 522.075 27.2289 523.372 27.1809C524.428 27.1328 525.005 27.373 525.341 28.2856C525.677 29.2462 525.917 30.1107 526.013 31.0713C526.157 32.128 525.869 32.4161 524.813 32.6563C522.363 33.1366 519.625 33.6649 517.224 34.2893C516.696 35.7782 516.167 37.2672 515.735 38.66C517.704 38.2758 519.433 38.0356 521.499 37.8916C522.555 37.7955 523.18 38.0356 523.516 38.9482C523.9 39.9568 524.14 40.8214 524.236 41.782C524.38 42.8386 524.14 43.1749 523.084 43.415C520.346 44.0394 517.272 44.7118 514.678 45.4323C513.237 45.8165 512.517 45.6244 511.652 44.9039C511.028 44.3756 510.404 43.7512 509.731 42.8386C509.203 42.1182 508.867 41.0615 509.155 39.7167C510.115 35.442 512.853 27.0368 514.967 20.6968Z" fill="#43454A"/>
<path d="M24.323 86.5567C89.249 87.4662 154.131 89.4337 219.046 90.6398C292.571 92.0042 366.108 93.2992 439.644 94.0407C473.223 94.3769 506.814 94.8614 540.393 94.9998C548.827 95.0394 556 88.5538 556 81.04C556 73.4373 548.86 67.1197 540.393 67.0801C475.489 66.8033 410.574 67.3076 345.67 67.6239C272.134 67.9799 198.609 69.2355 125.072 69.9177C91.4818 70.234 57.9134 70.9657 24.323 71.1535C13.2257 71.2128 13.2257 86.3985 24.323 86.5567Z" fill="#E58EB9"/>
<path d="M16.0728 83.7129C17.3216 78.5737 19.675 70.5047 21.3081 65.8938C21.7403 64.6931 22.3647 64.5009 23.4214 64.8372C24.1418 65.0773 24.9583 65.4616 25.5827 65.8458C26.6394 66.5182 26.9756 67.0946 26.4953 68.6315C24.334 75.4998 20.7797 86.931 18.8105 94.3276C18.5223 95.4803 17.7538 95.7205 16.6011 95.4323C15.7366 95.1921 14.6799 94.7598 13.9114 94.3276C13.0469 93.8473 12.5666 93.1749 12.2304 91.878C11.4139 88.2758 10.8375 83.4728 10.4533 77.2769C9.25253 81.0713 7.18724 87.8435 5.26604 94.6158C4.97786 95.6244 4.49756 95.9126 3.4409 95.5764C2.76848 95.3362 1.90394 94.9039 1.37561 94.5677C0.31895 93.8953 0.03077 93.415 0.46304 91.3497C1.5197 86.4507 5.65028 72.8582 8.00375 65.9899C8.33996 65.0773 8.82026 64.7411 9.54071 64.7411C10.3092 64.7411 12.1824 65.4135 13.5752 66.134C14.6799 66.7103 14.9201 67.2387 15.0161 68.5355C15.3043 73.0503 15.6405 78.5737 16.0728 83.7129ZM25.0413 90.9175C23.1681 85.4901 27.4908 74.4432 30.7568 66.0859C31.1891 64.9332 31.8135 64.7891 32.8702 65.1734C33.8788 65.5576 34.9835 66.134 35.752 66.9024C36.7126 67.815 36.8566 68.8236 36.3283 70.1205C33.6867 76.8927 28.7876 89.6687 31.5253 90.5812C34.7914 91.6859 39.7384 73.7707 41.8998 65.7978C42.236 64.597 42.9084 64.4049 43.9651 64.7411C45.0217 65.0773 46.3186 65.7978 47.1831 66.4702C48.1437 67.2387 48.1437 67.6229 47.8555 68.7276C44.3493 81.7918 41.2754 91.4458 36.7126 94.5677C35.1276 95.6724 33.6867 95.8645 31.7655 95.7685C29.9403 95.6724 28.4034 95 27.2506 94.1355C26.3381 93.463 25.5216 92.3583 25.0413 90.9175ZM50.8953 70.6968C50.367 69.7842 49.9347 68.3914 49.7426 67.5268C49.5505 66.5662 49.7906 66.3741 50.5591 66.182C53.8732 65.2214 60.021 64.5009 64.4398 64.3569C65.4484 64.3088 66.0728 64.7891 66.3129 65.7017C66.6491 66.7103 66.7932 67.4308 66.8893 68.3914C66.9373 69.448 66.6491 69.8323 65.5925 69.9283C63.3831 70.1685 60.6454 70.5047 58.0518 70.937C57.3313 72.9062 56.4668 75.1636 55.6022 77.5171C56.803 77.325 58.0037 77.2289 59.3005 77.1809C60.3572 77.1328 60.9336 77.373 61.2698 78.2856C61.606 79.2462 61.8461 80.1107 61.9422 81.0713C62.0863 82.128 61.7981 82.4161 60.7414 82.6563C58.2919 83.1366 55.5542 83.6649 53.1527 84.2893C52.6244 85.7782 52.096 87.2672 51.6638 88.66C53.633 88.2758 55.3621 88.0356 57.4274 87.8916C58.484 87.7955 59.1084 88.0356 59.4446 88.9482C59.8289 89.9568 60.069 90.8214 60.1651 91.782C60.3092 92.8386 60.069 93.1749 59.0124 93.415C56.2747 94.0394 53.2007 94.7118 50.6071 95.4323C49.1662 95.8165 48.4458 95.6244 47.5812 94.9039C46.9568 94.3756 46.3324 93.7512 45.66 92.8386C45.1317 92.1182 44.7955 91.0615 45.0837 89.7167C46.0443 85.442 48.782 77.0368 50.8953 70.6968ZM61.9077 87.4113C63.3966 86.6428 65.4619 86.8349 66.4705 87.6994C69.3043 90.197 72.042 91.0135 73.2427 89.9568C74.6356 88.8041 69.6405 85.7782 67.0949 82.8484C65.3178 80.7831 64.4533 77.6131 66.0382 74.1069C67.3831 70.985 70.3609 67.3827 73.2427 65.5576C74.3474 64.8852 76.1726 64.1647 78.1898 64.8852C79.7268 65.4616 81.4559 66.5662 82.3684 67.6229C83.7133 69.1118 83.5692 70.7449 83.4251 72.0417C83.0889 74.251 81.8881 77.9974 80.8795 79.9666C80.3992 80.8792 79.9189 81.0713 79.0544 80.6871C76.6048 79.6304 75.5002 78.1415 75.9324 76.2203C76.3167 74.4912 77.7576 70.8409 77.1812 70.5527C76.1726 69.9764 69.9767 76.3163 72.5703 79.8225C75.4041 83.5689 81.6 86.0184 79.3426 90.3891C77.7095 93.5591 75.0679 95.9126 71.1294 95.9126C67.9594 95.9126 64.8855 94.4236 62.1958 90.5812C60.803 88.612 60.9951 87.8916 61.9077 87.4113ZM103.235 69.6402C101.698 69.7842 99.6806 69.9764 97.9996 70.1685C95.406 77.6612 92.3801 87.3632 90.2668 94.9039C89.9786 95.9126 89.6424 96.1047 88.6337 95.8165C87.6251 95.5283 86.5204 95.048 85.6559 94.4236C84.7913 93.7993 84.6953 93.0788 84.9835 91.734C85.9921 86.6908 88.7298 77.2769 90.7471 71.1771C89.5943 71.3692 88.4416 71.6094 87.7212 71.7535C86.7125 71.9456 86.1842 71.8495 85.6559 70.985C85.0795 70.0244 84.5032 68.4394 84.311 67.5268C84.1189 66.5662 84.4551 66.3261 85.2236 66.134C89.7384 65.1253 96.8469 64.4049 101.314 64.3088C102.418 64.3088 102.803 64.597 103.139 65.0773C103.763 66.0379 104.195 67.3347 104.34 68.2473C104.484 69.2559 104.388 69.5441 103.235 69.6402ZM108.592 85.8743C107.584 88.9002 106.623 91.9261 105.807 94.7118C105.519 95.7205 105.182 95.9126 104.174 95.6724C103.165 95.3842 102.252 95.048 101.58 94.5677C100.716 93.9433 100.619 93.2709 100.86 91.9261C101.772 87.5073 104.318 79.1021 106.527 72.1857C106.143 71.4653 105.663 70.5527 105.374 69.7842C104.942 68.5835 104.99 68.0071 105.999 67.4308C110.706 64.7891 119.735 62.5317 122.665 66.0379C123.866 67.4788 124.875 69.4961 125.211 72.0417C125.547 74.7313 124.298 76.9407 122.425 78.7659C120.504 80.639 117.766 82.5122 114.644 84.0492C116.181 86.6428 118.727 90.149 120.552 92.3103C121.32 93.1749 121.08 93.6552 120.408 94.2315C119.591 94.9039 119.159 95 118.343 95.2402C117.43 95.5283 116.277 95.5764 114.98 94.3276C113.155 92.6946 110.418 89.0443 108.592 85.8743ZM113.732 71.6094C112.819 73.8668 111.858 76.6045 110.802 79.5343C116.469 77.373 120.168 73.0023 119.783 71.4653C119.543 70.3606 116.806 70.1205 113.732 71.6094ZM136.807 87.5554C133.733 88.0837 130.275 88.66 127.825 89.3325C126.768 91.3017 125.808 93.1749 124.991 94.8079C124.463 95.8165 124.079 95.8645 123.166 95.4803C122.35 95.1441 121.533 94.6638 120.861 93.8953C120.188 93.1268 120.188 92.4544 120.765 91.1096C123.935 84.0492 130.227 72.3298 134.309 65.9418C135.078 64.7411 135.942 64.1167 137.623 64.1647C139.592 64.2128 142.186 64.8852 143.723 65.5096C144.876 65.9899 145.02 66.7103 144.828 67.9111C143.963 73.9629 142.858 85.5381 142.234 94.4236C142.186 95.5283 141.898 95.8165 140.841 95.8165C139.785 95.8165 138.536 95.6244 137.863 95.3842C136.903 95.048 136.615 94.4236 136.615 92.9827C136.615 91.4458 136.711 89.6206 136.807 87.5554ZM131.523 82.3681C133.397 82.0799 135.318 81.7918 137.143 81.6477C137.431 77.8533 137.815 73.9148 138.248 70.5047C136.374 73.6747 133.925 77.9974 131.523 82.3681ZM144.319 87.4113C145.807 86.6428 147.873 86.8349 148.881 87.6994C151.715 90.197 154.453 91.0135 155.654 89.9568C157.046 88.8041 152.051 85.7782 149.506 82.8484C147.729 80.7831 146.864 77.6131 148.449 74.1069C149.794 70.985 152.772 67.3827 155.654 65.5576C156.758 64.8852 158.583 64.1647 160.601 64.8852C162.138 65.4616 163.867 66.5662 164.779 67.6229C166.124 69.1118 165.98 70.7449 165.836 72.0417C165.5 74.251 164.299 77.9974 163.29 79.9666C162.81 80.8792 162.33 81.0713 161.465 80.6871C159.016 79.6304 157.911 78.1415 158.343 76.2203C158.728 74.4912 160.168 70.8409 159.592 70.5527C158.583 69.9764 152.388 76.3163 154.981 79.8225C157.815 83.5689 164.011 86.0184 161.753 90.3891C160.12 93.5591 157.479 95.9126 153.54 95.9126C150.37 95.9126 147.296 94.4236 144.607 90.5812C143.214 88.612 143.406 87.8916 144.319 87.4113ZM180.351 70.6968C179.823 69.7842 179.391 68.3914 179.198 67.5268C179.006 66.5662 179.246 66.3741 180.015 66.182C183.329 65.2214 189.477 64.5009 193.896 64.3569C194.904 64.3088 195.529 64.7891 195.769 65.7017C196.105 66.7103 196.249 67.4308 196.345 68.3914C196.393 69.448 196.105 69.8323 195.048 69.9283C192.839 70.1685 190.101 70.5047 187.508 70.937C186.787 72.9062 185.923 75.1636 185.058 77.5171C186.259 77.325 187.46 77.2289 188.756 77.1809C189.813 77.1328 190.389 77.373 190.726 78.2856C191.062 79.2462 191.302 80.1107 191.398 81.0713C191.542 82.128 191.254 82.4161 190.197 82.6563C187.748 83.1366 185.01 83.6649 182.609 84.2893C182.08 85.7782 181.552 87.2672 181.12 88.66C183.089 88.2758 184.818 88.0356 186.883 87.8916C187.94 87.7955 188.564 88.0356 188.9 88.9482C189.285 89.9568 189.525 90.8214 189.621 91.782C189.765 92.8386 189.525 93.1749 188.468 93.415C185.731 94.0394 182.657 94.7118 180.063 95.4323C178.622 95.8165 177.902 95.6244 177.037 94.9039C176.413 94.3756 175.788 93.7512 175.116 92.8386C174.588 92.1182 174.251 91.0615 174.54 89.7167C175.5 85.442 178.238 77.0368 180.351 70.6968ZM198.735 71.2732C198.399 70.6008 197.919 69.6882 197.631 68.8717C197.15 67.719 197.198 67.0946 198.255 66.5182C202.962 63.8285 213.24 62.1475 216.266 70.5527C218.956 77.9974 213.769 90.8694 200.368 95.8645C199.12 96.3448 198.111 96.2968 197.006 95.4803C195.95 94.6158 195.229 93.9433 194.269 92.9347C193.308 91.9261 192.828 91.3017 193.5 88.8041C194.845 83.857 196.91 76.9407 198.735 71.2732ZM199.6 89.4766C208.87 84.8657 211.367 75.6439 210.359 72.666C209.83 71.2251 208.053 70.2165 205.556 71.1291C203.442 76.8447 201.425 83.1846 199.6 89.4766ZM228.67 66.7103C229.631 67.4788 229.727 67.9111 229.343 69.0158C227.133 74.9715 223.147 87.7475 221.178 94.7598C220.89 95.8165 220.505 96.0086 219.497 95.7205C218.488 95.4323 217.335 94.9039 216.519 94.3276C215.654 93.7032 215.51 93.0788 215.798 91.6859C216.951 86.2105 221.034 71.8976 223.147 65.8938C223.579 64.7411 224.204 64.549 225.26 64.8852C226.317 65.2214 227.806 66.0379 228.67 66.7103ZM243.416 86.7388C244.905 87.2672 244.665 88.3719 243.848 89.9568C242.936 91.782 241.399 93.463 240.15 94.5677C238.805 95.7205 236.548 96.3929 234.675 96.2007C232.705 96.0086 231.12 95.2882 229.968 94.6158C228.959 93.9914 227.758 92.7906 227.326 91.3497C225.261 84.7216 230.064 71.5614 236.788 65.7978C238.565 64.3088 240.246 63.9726 241.639 64.1167C243.704 64.3088 246.154 65.3655 247.354 66.4702C248.699 67.719 248.939 69.0638 248.891 70.7449C248.843 72.666 248.315 75.4038 247.691 76.9407C247.403 77.7092 247.162 78.2375 245.914 77.9493C243.416 77.373 242.551 76.1242 242.455 73.8668C242.407 72.2338 243.176 70.0244 242.119 69.5921C240.726 69.0158 236.836 75.4518 235.203 79.8705C233.426 84.6255 232.657 90.149 234.338 90.7734C235.251 91.1096 236.5 90.245 238.469 88.0356C239.814 86.5467 241.591 86.1145 243.416 86.7388ZM259.205 66.7103C260.166 67.4788 260.262 67.9111 259.878 69.0158C257.668 74.9715 253.682 87.7475 251.712 94.7598C251.424 95.8165 251.04 96.0086 250.031 95.7205C249.023 95.4323 247.87 94.9039 247.054 94.3276C246.189 93.7032 246.045 93.0788 246.333 91.6859C247.486 86.2105 251.568 71.8976 253.682 65.8938C254.114 64.7411 254.738 64.549 255.795 64.8852C256.852 65.2214 258.341 66.0379 259.205 66.7103ZM277.466 66.8064C278.763 68.1032 279.291 69.5921 279.387 71.4173C279.723 77.9493 277.034 88.4199 271.606 93.7512C269.781 95.5283 267.812 96.0086 265.458 95.7205C263.921 95.5283 262.096 94.952 260.848 94.0874C259.887 93.415 258.83 92.1182 258.398 90.6293C256.333 83.761 260.511 71.5614 267.188 66.0379C268.58 64.8852 270.742 64.3088 272.279 64.549C274.296 64.8372 276.361 65.7017 277.466 66.8064ZM272.615 69.9764C271.126 69.4961 267.716 74.8274 266.035 79.3422C264.354 83.809 263.441 89.9088 265.218 90.6293C266.947 91.3497 269.685 87.1711 271.606 81.4555C273.095 77.0368 274.152 70.4567 272.615 69.9764ZM293.887 83.7129C295.136 78.5737 297.489 70.5047 299.122 65.8938C299.554 64.6931 300.179 64.5009 301.236 64.8372C301.956 65.0773 302.772 65.4616 303.397 65.8458C304.454 66.5182 304.79 67.0946 304.309 68.6315C302.148 75.4998 298.594 86.931 296.625 94.3276C296.336 95.4803 295.568 95.7205 294.415 95.4323C293.551 95.1921 292.494 94.7598 291.726 94.3276C290.861 93.8473 290.381 93.1749 290.045 91.878C289.228 88.2758 288.652 83.4728 288.267 77.2769C287.067 81.0713 285.001 87.8435 283.08 94.6158C282.792 95.6244 282.312 95.9126 281.255 95.5764C280.583 95.3362 279.718 94.9039 279.19 94.5677C278.133 93.8953 277.845 93.415 278.277 91.3497C279.334 86.4507 283.464 72.8582 285.818 65.9899C286.154 65.0773 286.634 64.7411 287.355 64.7411C288.123 64.7411 289.997 65.4135 291.389 66.134C292.494 66.7103 292.734 67.2387 292.83 68.5355C293.118 73.0503 293.455 78.5737 293.887 83.7129ZM307.509 70.6968C306.98 69.7842 306.548 68.3914 306.356 67.5268C306.164 66.5662 306.404 66.3741 307.172 66.182C310.487 65.2214 316.634 64.5009 321.053 64.3569C322.062 64.3088 322.686 64.7891 322.926 65.7017C323.263 66.7103 323.407 67.4308 323.503 68.3914C323.551 69.448 323.263 69.8323 322.206 69.9283C319.996 70.1685 317.259 70.5047 314.665 70.937C313.945 72.9062 313.08 75.1636 312.216 77.5171C313.416 77.325 314.617 77.2289 315.914 77.1809C316.971 77.1328 317.547 77.373 317.883 78.2856C318.219 79.2462 318.46 80.1107 318.556 81.0713C318.7 82.128 318.411 82.4161 317.355 82.6563C314.905 83.1366 312.168 83.6649 309.766 84.2893C309.238 85.7782 308.709 87.2672 308.277 88.66C310.246 88.2758 311.975 88.0356 314.041 87.8916C315.097 87.7955 315.722 88.0356 316.058 88.9482C316.442 89.9568 316.682 90.8214 316.778 91.782C316.923 92.8386 316.682 93.1749 315.626 93.415C312.888 94.0394 309.814 94.7118 307.22 95.4323C305.78 95.8165 305.059 95.6244 304.195 94.9039C303.57 94.3756 302.946 93.7512 302.273 92.8386C301.745 92.1182 301.409 91.0615 301.697 89.7167C302.658 85.442 305.395 77.0368 307.509 70.6968ZM318.521 87.4113C320.01 86.6428 322.075 86.8349 323.084 87.6994C325.918 90.197 328.655 91.0135 329.856 89.9568C331.249 88.8041 326.254 85.7782 323.708 82.8484C321.931 80.7831 321.067 77.6131 322.652 74.1069C323.997 70.985 326.974 67.3827 329.856 65.5576C330.961 64.8852 332.786 64.1647 334.803 64.8852C336.34 65.4616 338.069 66.5662 338.982 67.6229C340.327 69.1118 340.183 70.7449 340.039 72.0417C339.702 74.251 338.502 77.9974 337.493 79.9666C337.013 80.8792 336.532 81.0713 335.668 80.6871C333.218 79.6304 332.114 78.1415 332.546 76.2203C332.93 74.4912 334.371 70.8409 333.795 70.5527C332.786 69.9764 326.59 76.3163 329.184 79.8225C332.018 83.5689 338.213 86.0184 335.956 90.3891C334.323 93.5591 331.681 95.9126 327.743 95.9126C324.573 95.9126 321.499 94.4236 318.809 90.5812C317.416 88.612 317.609 87.8916 318.521 87.4113ZM363.823 87.5554C360.75 88.0837 357.291 88.66 354.842 89.3325C353.785 91.3017 352.825 93.1749 352.008 94.8079C351.48 95.8165 351.096 95.8645 350.183 95.4803C349.366 95.1441 348.55 94.6638 347.878 93.8953C347.205 93.1268 347.205 92.4544 347.781 91.1096C350.951 84.0492 357.243 72.3298 361.326 65.9418C362.094 64.7411 362.959 64.1167 364.64 64.1647C366.609 64.2128 369.203 64.8852 370.74 65.5096C371.893 65.9899 372.037 66.7103 371.844 67.9111C370.98 73.9629 369.875 85.5381 369.251 94.4236C369.203 95.5283 368.915 95.8165 367.858 95.8165C366.801 95.8165 365.553 95.6244 364.88 95.3842C363.92 95.048 363.631 94.4236 363.631 92.9827C363.631 91.4458 363.727 89.6206 363.823 87.5554ZM358.54 82.3681C360.413 82.0799 362.335 81.7918 364.16 81.6477C364.448 77.8533 364.832 73.9148 365.264 70.5047C363.391 73.6747 360.942 77.9974 358.54 82.3681ZM386.711 83.7129C387.959 78.5737 390.313 70.5047 391.946 65.8938C392.378 64.6931 393.002 64.5009 394.059 64.8372C394.78 65.0773 395.596 65.4616 396.22 65.8458C397.277 66.5182 397.613 67.0946 397.133 68.6315C394.972 75.4998 391.417 86.931 389.448 94.3276C389.16 95.4803 388.392 95.7205 387.239 95.4323C386.374 95.1921 385.318 94.7598 384.549 94.3276C383.685 93.8473 383.204 93.1749 382.868 91.878C382.052 88.2758 381.475 83.4728 381.091 77.2769C379.89 81.0713 377.825 87.8435 375.904 94.6158C375.616 95.6244 375.135 95.9126 374.079 95.5764C373.406 95.3362 372.542 94.9039 372.013 94.5677C370.957 93.8953 370.669 93.415 371.101 91.3497C372.157 86.4507 376.288 72.8582 378.642 65.9899C378.978 65.0773 379.458 64.7411 380.178 64.7411C380.947 64.7411 382.82 65.4135 384.213 66.134C385.318 66.7103 385.558 67.2387 385.654 68.5355C385.942 73.0503 386.278 78.5737 386.711 83.7129ZM417.4 69.6402C415.863 69.7842 413.846 69.9764 412.165 70.1685C409.571 77.6612 406.545 87.3632 404.432 94.9039C404.144 95.9126 403.807 96.1047 402.799 95.8165C401.79 95.5283 400.685 95.048 399.821 94.4236C398.956 93.7993 398.86 93.0788 399.148 91.734C400.157 86.6908 402.895 77.2769 404.912 71.1771C403.759 71.3692 402.607 71.6094 401.886 71.7535C400.878 71.9456 400.349 71.8495 399.821 70.985C399.244 70.0244 398.668 68.4394 398.476 67.5268C398.284 66.5662 398.62 66.3261 399.389 66.134C403.903 65.1253 411.012 64.4049 415.479 64.3088C416.583 64.3088 416.968 64.597 417.304 65.0773C417.928 66.0379 418.36 67.3347 418.505 68.2473C418.649 69.2559 418.553 69.5441 417.4 69.6402ZM420.642 70.6968C420.114 69.7842 419.681 68.3914 419.489 67.5268C419.297 66.5662 419.537 66.3741 420.306 66.182C423.62 65.2214 429.768 64.5009 434.186 64.3569C435.195 64.3088 435.819 64.7891 436.059 65.7017C436.396 66.7103 436.54 67.4308 436.636 68.3914C436.684 69.448 436.396 69.8323 435.339 69.9283C433.13 70.1685 430.392 70.5047 427.798 70.937C427.078 72.9062 426.213 75.1636 425.349 77.5171C426.55 77.325 427.75 77.2289 429.047 77.1809C430.104 77.1328 430.68 77.373 431.016 78.2856C431.353 79.2462 431.593 80.1107 431.689 81.0713C431.833 82.128 431.545 82.4161 430.488 82.6563C428.038 83.1366 425.301 83.6649 422.899 84.2893C422.371 85.7782 421.843 87.2672 421.41 88.66C423.38 88.2758 425.109 88.0356 427.174 87.8916C428.231 87.7955 428.855 88.0356 429.191 88.9482C429.575 89.9568 429.816 90.8214 429.912 91.782C430.056 92.8386 429.816 93.1749 428.759 93.415C426.021 94.0394 422.947 94.7118 420.354 95.4323C418.913 95.8165 418.192 95.6244 417.328 94.9039C416.703 94.3756 416.079 93.7512 415.407 92.8386C414.878 92.1182 414.542 91.0615 414.83 89.7167C415.791 85.442 418.529 77.0368 420.642 70.6968ZM441.097 85.8743C440.088 88.9002 439.128 91.9261 438.311 94.7118C438.023 95.7205 437.687 95.9126 436.678 95.6724C435.67 95.3842 434.757 95.048 434.085 94.5677C433.22 93.9433 433.124 93.2709 433.364 91.9261C434.277 87.5073 436.822 79.1021 439.032 72.1857C438.647 71.4653 438.167 70.5527 437.879 69.7842C437.447 68.5835 437.495 68.0071 438.503 67.4308C443.21 64.7891 452.24 62.5317 455.17 66.0379C456.371 67.4788 457.379 69.4961 457.715 72.0417C458.052 74.7313 456.803 76.9407 454.93 78.7659C453.008 80.639 450.271 82.5122 447.149 84.0492C448.686 86.6428 451.231 90.149 453.056 92.3103C453.825 93.1749 453.585 93.6552 452.912 94.2315C452.096 94.9039 451.664 95 450.847 95.2402C449.935 95.5283 448.782 95.5764 447.485 94.3276C445.66 92.6946 442.922 89.0443 441.097 85.8743ZM446.236 71.6094C445.324 73.8668 444.363 76.6045 443.306 79.5343C448.974 77.373 452.672 73.0023 452.288 71.4653C452.048 70.3606 449.31 70.1205 446.236 71.6094ZM468.539 66.7103C469.5 67.4788 469.596 67.9111 469.211 69.0158C467.002 74.9715 463.016 87.7475 461.046 94.7598C460.758 95.8165 460.374 96.0086 459.365 95.7205C458.357 95.4323 457.204 94.9039 456.387 94.3276C455.523 93.7032 455.379 93.0788 455.667 91.6859C456.82 86.2105 460.902 71.8976 463.016 65.8938C463.448 64.7411 464.072 64.549 465.129 64.8852C466.186 65.2214 467.674 66.0379 468.539 66.7103ZM486.8 66.8064C488.097 68.1032 488.625 69.5921 488.721 71.4173C489.057 77.9493 486.368 88.4199 480.94 93.7512C479.115 95.5283 477.146 96.0086 474.792 95.7205C473.255 95.5283 471.43 94.952 470.181 94.0874C469.221 93.415 468.164 92.1182 467.732 90.6293C465.667 83.761 469.845 71.5614 476.521 66.0379C477.914 64.8852 480.076 64.3088 481.613 64.549C483.63 64.8372 485.695 65.7017 486.8 66.8064ZM481.949 69.9764C480.46 69.4961 477.05 74.8274 475.369 79.3422C473.688 83.809 472.775 89.9088 474.552 90.6293C476.281 91.3497 479.019 87.1711 480.94 81.4555C482.429 77.0368 483.486 70.4567 481.949 69.9764ZM495.037 85.8743C494.028 88.9002 493.068 91.9261 492.251 94.7118C491.963 95.7205 491.627 95.9126 490.618 95.6724C489.61 95.3842 488.697 95.048 488.025 94.5677C487.16 93.9433 487.064 93.2709 487.304 91.9261C488.217 87.5073 490.762 79.1021 492.972 72.1857C492.587 71.4653 492.107 70.5527 491.819 69.7842C491.387 68.5835 491.435 68.0071 492.443 67.4308C497.15 64.7891 506.18 62.5317 509.11 66.0379C510.31 67.4788 511.319 69.4961 511.655 72.0417C511.992 74.7313 510.743 76.9407 508.87 78.7659C506.948 80.639 504.211 82.5122 501.089 84.0492C502.626 86.6428 505.171 90.149 506.996 92.3103C507.765 93.1749 507.525 93.6552 506.852 94.2315C506.036 94.9039 505.604 95 504.787 95.2402C503.874 95.5283 502.722 95.5764 501.425 94.3276C499.6 92.6946 496.862 89.0443 495.037 85.8743ZM500.176 71.6094C499.264 73.8668 498.303 76.6045 497.246 79.5343C502.914 77.373 506.612 73.0023 506.228 71.4653C505.988 70.3606 503.25 70.1205 500.176 71.6094ZM515.295 70.6968C514.766 69.7842 514.334 68.3914 514.142 67.5268C513.95 66.5662 514.19 66.3741 514.959 66.182C518.273 65.2214 524.42 64.5009 528.839 64.3569C529.848 64.3088 530.472 64.7891 530.712 65.7017C531.049 66.7103 531.193 67.4308 531.289 68.3914C531.337 69.448 531.049 69.8323 529.992 69.9283C527.783 70.1685 525.045 70.5047 522.451 70.937C521.731 72.9062 520.866 75.1636 520.002 77.5171C521.202 77.325 522.403 77.2289 523.7 77.1809C524.757 77.1328 525.333 77.373 525.669 78.2856C526.005 79.2462 526.246 80.1107 526.342 81.0713C526.486 82.128 526.198 82.4161 525.141 82.6563C522.691 83.1366 519.954 83.6649 517.552 84.2893C517.024 85.7782 516.495 87.2672 516.063 88.66C518.032 88.2758 519.762 88.0356 521.827 87.8916C522.883 87.7955 523.508 88.0356 523.844 88.9482C524.228 89.9568 524.468 90.8214 524.565 91.782C524.709 92.8386 524.468 93.1749 523.412 93.415C520.674 94.0394 517.6 94.7118 515.007 95.4323C513.566 95.8165 512.845 95.6244 511.981 94.9039C511.356 94.3756 510.732 93.7512 510.059 92.8386C509.531 92.1182 509.195 91.0615 509.483 89.7167C510.444 85.442 513.181 77.0368 515.295 70.6968ZM526.307 87.4113C527.796 86.6428 529.861 86.8349 530.87 87.6994C533.704 90.197 536.441 91.0135 537.642 89.9568C539.035 88.8041 534.04 85.7782 531.494 82.8484C529.717 80.7831 528.853 77.6131 530.438 74.1069C531.783 70.985 534.76 67.3827 537.642 65.5576C538.747 64.8852 540.572 64.1647 542.589 64.8852C544.126 65.4616 545.855 66.5662 546.768 67.6229C548.113 69.1118 547.969 70.7449 547.825 72.0417C547.488 74.251 546.288 77.9974 545.279 79.9666C544.799 80.8792 544.318 81.0713 543.454 80.6871C541.004 79.6304 539.9 78.1415 540.332 76.2203C540.716 74.4912 542.157 70.8409 541.581 70.5527C540.572 69.9764 534.376 76.3163 536.97 79.8225C539.804 83.5689 545.999 86.0184 543.742 90.3891C542.109 93.5591 539.467 95.9126 535.529 95.9126C532.359 95.9126 529.285 94.4236 526.595 90.5812C525.202 88.612 525.395 87.8916 526.307 87.4113Z" fill="#43454A"/>
</svg>
