<?xml version="1.0" encoding="utf-8"?>
<!-- Generator: Adobe Illustrator 25.4.1, SVG Export Plug-In . SVG Version: 6.00 Build 0)  -->
<svg version="1.1" id="Capa_1" xmlns="http://www.w3.org/2000/svg" xmlns:xlink="http://www.w3.org/1999/xlink" x="0px" y="0px"
	 viewBox="0 0 50 50" style="enable-background:new 0 0 50 50;" xml:space="preserve">
<style type="text/css">
	.st0{fill:#FFFFFF;}
</style>
<g>
	<g>
		<path class="st0" d="M4.2,16.4c-0.1,0-0.2,0-0.3-0.1c-0.4-0.2-0.5-0.6-0.3-1.1C7.5,7.7,15.5,2.9,24.2,2.9c3.7,0,7.2,0.9,10.5,2.6
			c0.4,0.2,0.5,0.6,0.3,1.1C34.8,7,34.4,7.1,34,6.8c-3.1-1.6-6.4-2.3-9.9-2.3C16,4.5,8.7,8.9,4.8,16.1C4.7,16.3,4.5,16.4,4.2,16.4z"
			/>
	</g>
	<g>
		<g>
			<path class="st0" d="M42.9,14.7C42.9,14.7,42.9,14.8,42.9,14.7c-0.3,0.4-0.3,1.1,0.1,1.4c0.3,0.3,1,0.3,1.3,0l0.1-0.1
				c0.3-0.4,0.3-1-0.1-1.4C43.8,14.3,43.3,14.3,42.9,14.7z"/>
			<path class="st0" d="M36.9,9.4C36.9,9.4,36.8,9.4,36.9,9.4c-0.3,0.4-0.3,1.1,0.1,1.4c0.3,0.3,1,0.3,1.3,0l0.1-0.1
				c0.3-0.4,0.3-1-0.1-1.4C37.9,9,37.2,9,36.9,9.4z"/>
			<path class="st0" d="M36.4,7.7c-0.3,0.4-0.2,0.9-0.2,0.9l0.6,0.7l0,0l0,0c0.4-0.4,1.2-0.5,1.7-0.1s0.5,1.2,0.1,1.6l-0.1,0.1l0,0
				l4.3,3.9l0,0c0-0.1,0.1-0.1,0.1-0.2c0,0,0,0,0.1-0.1c0.4-0.4,1.2-0.5,1.7-0.1s0.5,1.2,0.1,1.6l-0.1,0.1c0,0,0,0-0.1,0
				c0.3,0.2,0.6,0.4,0.9,0.4c0.3-0.1,0.6-0.4,0.6-0.4c0-0.1,0.1-0.2,0.2-0.5s-1.3-2.2-1.5-2.4c-0.4-0.7-1-2.2-1.1-2.4
				c-1-1.7-2.7-2.6-3.1-2.8c-0.4-0.2-1.6-0.6-1.9-0.7c-0.2-0.1-0.6-0.3-0.9-0.5c-0.1-0.1-0.2,0-0.3,0L37,7.2
				C36.8,7.4,36.6,7.4,36.4,7.7z M42.1,9.7c0,0,1.3,1.2,1.4,2.3c0,0-0.2-0.1-0.4,0.2l-1.6-1.5L42.1,9.7z M40,8.7l0.5-0.1
				c0,0,0.5,0.2,1.4,1l-0.6,1l-1.4-1.4L40,8.7z"/>
		</g>
	</g>
	<g>
		<path class="st0" d="M24.9,46.3c-3.7,0-7.2-0.9-10.5-2.6c-0.4-0.2-0.5-0.6-0.3-1.1c0.2-0.4,0.6-0.5,1.1-0.3
			c3.1,1.6,6.4,2.3,9.9,2.3c8.1,0,15.5-4.5,19.2-11.6c0.2-0.4,0.6-0.5,1.1-0.3c0.4,0.2,0.5,0.6,0.3,1.1
			C41.5,41.5,33.6,46.3,24.9,46.3z"/>
	</g>
	<g>
		<g>
			<path class="st0" d="M6.1,34.4C6.1,34.4,6.2,34.4,6.1,34.4C6.4,34,6.4,33.3,6,33c-0.3-0.3-1-0.3-1.3,0l-0.1,0.1
				c-0.3,0.4-0.3,1,0.1,1.4C5.1,34.8,5.8,34.8,6.1,34.4z"/>
			<path class="st0" d="M12.2,39.8C12.2,39.8,12.2,39.7,12.2,39.8c0.3-0.4,0.3-1.1-0.1-1.4c-0.3-0.3-1-0.3-1.3,0l-0.1,0.1
				c-0.3,0.4-0.3,1,0.1,1.4C11.2,40.2,11.7,40.2,12.2,39.8z"/>
			<path class="st0" d="M12.7,41.5c0.3-0.4,0.2-0.9,0.2-0.9l-0.6-0.7l0,0l0,0c-0.4,0.4-1.2,0.5-1.7,0.1c-0.4-0.4-0.4-1.2,0-1.7
				l0.1-0.1l0,0l-4.3-3.9l0,0c0,0.1-0.1,0.1-0.1,0.2c0,0,0,0-0.1,0.1C5.8,35,5,35.1,4.5,34.7C4,34.3,4,33.5,4.4,33.1L4.5,33
				c0,0,0,0,0.1,0c-0.3-0.2-0.6-0.4-0.9-0.4C3.4,32.7,3.1,33,3.1,33c0,0.1-0.1,0.2-0.2,0.5s1.3,2.2,1.5,2.4c0.4,0.7,1,2.2,1.1,2.4
				c1,1.7,2.7,2.6,3.1,2.8c0.4,0.2,1.6,0.6,1.9,0.7c0.2,0.1,0.6,0.3,0.9,0.5c0.1,0.1,0.2,0,0.3,0l0.5-0.5
				C12.2,41.7,12.5,41.8,12.7,41.5z M6.8,39.5c0,0-1.3-1.2-1.4-2.3c0,0,0.2,0.1,0.4-0.2l1.6,1.5L6.8,39.5z M9,40.4l-0.5,0.1
				c0,0-0.5-0.2-1.4-1l0.6-1L9.1,40L9,40.4z"/>
		</g>
	</g>
	<g>
		<path class="st0" d="M7.3,22.7C7.7,22.8,8.1,23,8.4,23c0.3,0.1,0.6,0.1,0.9,0.1c0.3,0,0.5,0,0.7-0.1c0.1-0.1,0.2-0.2,0.2-0.3
			c0-0.2-0.1-0.3-0.2-0.4c-0.1-0.1-0.4-0.1-0.7-0.2c-0.3-0.1-0.5-0.1-0.9-0.2c-0.2,0-0.4-0.1-0.6-0.3c-0.2-0.1-0.3-0.3-0.4-0.5
			c-0.1-0.2-0.2-0.4-0.2-0.7c0-0.3,0-0.5,0.1-0.7s0.2-0.4,0.4-0.6c0.2-0.2,0.4-0.3,0.9-0.4c0.3-0.1,0.7-0.2,1.2-0.2
			c0.4,0,0.9,0,1.2,0.1c0.4,0.1,0.7,0.2,1.1,0.3L11.5,20c-0.7-0.2-1.4-0.4-1.9-0.4c-0.3,0-0.4,0-0.6,0.1c-0.1,0.1-0.2,0.2-0.2,0.3
			c0,0.1,0.1,0.2,0.2,0.3c0.1,0.1,0.3,0.2,0.7,0.2c0.3,0.1,0.5,0.1,0.9,0.2c0.2,0.1,0.5,0.2,0.7,0.3s0.4,0.3,0.5,0.5
			c0.1,0.2,0.2,0.5,0.2,0.9c0,0.3-0.1,0.6-0.2,0.9c-0.1,0.2-0.3,0.5-0.5,0.6c-0.2,0.2-0.5,0.3-0.9,0.4c-0.3,0.1-0.7,0.1-1.2,0.1
			c-0.2,0-0.5,0-0.7-0.1c-0.2,0-0.5-0.1-0.7-0.1c-0.2-0.1-0.4-0.1-0.6-0.2C7,24,6.8,24,6.7,24L7.3,22.7z"/>
		<path class="st0" d="M12.9,24.5v-6.3h4.6v1.5h-2.9v0.9h2.2V22h-2.2v1.1h3v1.5L12.9,24.5z"/>
		<path class="st0" d="M22,22.3h-1v-1.4h2.6v3.2c-0.3,0.2-0.7,0.3-1.2,0.4s-1,0.2-1.4,0.2c-0.6,0-1.1-0.1-1.5-0.2
			c-0.4-0.2-0.7-0.4-1-0.6c-0.2-0.3-0.4-0.6-0.5-1.1s-0.2-0.9-0.2-1.3c0-0.4,0.1-0.9,0.2-1.3c0.2-0.4,0.4-0.7,0.6-1.1
			c0.3-0.3,0.6-0.5,1.1-0.6s1-0.2,1.5-0.2c0.4,0,0.7,0,1.2,0.1c0.3,0.1,0.6,0.2,1,0.3l-0.5,1.4c-0.2-0.1-0.4-0.1-0.6-0.2
			c-0.2,0-0.3-0.1-0.4-0.1s-0.2,0-0.3,0c-0.1,0-0.2,0-0.3,0c-0.2,0-0.4,0-0.6,0.1s-0.3,0.2-0.5,0.3c-0.1,0.1-0.2,0.3-0.3,0.5
			c0,0.1,0,0.4,0,0.6c0,0.6,0.1,1.1,0.3,1.3c0.2,0.3,0.5,0.4,1.1,0.4c0.2,0,0.3,0,0.5,0c0.2,0,0.3-0.1,0.4-0.1L22,22.3L22,22.3z"/>
		<path class="st0" d="M27.9,18.3h1.7v3.5c0,0.4,0,0.9-0.1,1.2c-0.1,0.3-0.2,0.6-0.4,0.9s-0.4,0.4-0.9,0.5c-0.4,0.1-0.7,0.2-1.3,0.2
			s-1-0.1-1.4-0.2c-0.3-0.1-0.6-0.3-0.9-0.5c-0.2-0.2-0.3-0.5-0.4-0.9c-0.1-0.3-0.1-0.7-0.1-1.2v-3.7h1.7v3.5c0,0.2,0,0.4,0,0.6
			s0.1,0.3,0.1,0.4c0.1,0.1,0.2,0.2,0.3,0.3c0.1,0.1,0.3,0.1,0.5,0.1c0.2,0,0.3,0,0.4-0.1c0.1-0.1,0.2-0.1,0.3-0.3
			c0.1-0.1,0.1-0.3,0.1-0.4c0-0.2,0-0.3,0-0.5L27.9,18.3z"/>
		<path class="st0" d="M34.6,24.8l-1.5-1.9c-0.1-0.2-0.2-0.3-0.3-0.4c-0.1-0.1-0.2-0.1-0.3-0.1h-0.1v2.1h-1.7v-6.3h2.6
			c0.3,0,0.6,0,0.9,0.1c0.2,0.1,0.5,0.2,0.6,0.3c0.2,0.1,0.3,0.3,0.4,0.5c0.1,0.2,0.2,0.5,0.2,0.7c0,0.3,0,0.5-0.1,0.7
			c-0.1,0.2-0.2,0.4-0.3,0.5c-0.1,0.1-0.2,0.3-0.4,0.3c-0.1,0.1-0.3,0.2-0.4,0.2c0.1,0,0.2,0.1,0.3,0.2c0.1,0.1,0.2,0.2,0.2,0.3
			l1.2,1.5L34.6,24.8z M32.4,21h0.5c0.3,0,0.4-0.1,0.5-0.2c0.1-0.1,0.2-0.2,0.2-0.4s-0.1-0.4-0.2-0.5c0-0.1-0.2-0.1-0.4-0.1h-0.5
			C32.4,19.7,32.4,21,32.4,21z"/>
		<path class="st0" d="M39.3,24.7c-1,0-1.7-0.3-2.2-0.9s-0.7-1.4-0.7-2.4c0-0.4,0.1-0.9,0.2-1.2c0.1-0.4,0.3-0.7,0.5-1.1
			s0.5-0.5,1-0.7c0.4-0.2,0.9-0.3,1.4-0.3s1.1,0.1,1.5,0.3c0.4,0.2,0.7,0.4,1,0.7c0.2,0.3,0.4,0.6,0.5,1.1c0.1,0.4,0.1,0.7,0.1,1.2
			s-0.1,0.9-0.2,1.2c-0.1,0.4-0.3,0.7-0.5,1.1s-0.5,0.5-1,0.7C40.3,24.6,39.8,24.7,39.3,24.7z M39.3,23.1c0.2,0,0.4,0,0.5-0.1
			c0.2-0.1,0.3-0.2,0.4-0.4c0.1-0.1,0.2-0.3,0.2-0.5c0-0.2,0.1-0.4,0.1-0.6c0-0.2,0-0.4-0.1-0.6c0-0.2-0.1-0.4-0.2-0.5
			c-0.1-0.1-0.2-0.3-0.4-0.3c-0.1-0.2-0.3-0.2-0.5-0.2c-0.2,0-0.4,0-0.6,0.1c-0.2,0.1-0.3,0.2-0.4,0.3c-0.1,0.1-0.2,0.3-0.2,0.5
			c0,0.2-0.1,0.4-0.1,0.6c0,0.2,0,0.4,0.1,0.6c0,0.2,0.1,0.4,0.2,0.5c0.1,0.2,0.2,0.3,0.4,0.4C38.8,23.1,39.1,23.1,39.3,23.1z"/>
	</g>
	<g>
		<path class="st0" d="M24.5,29.2c0-1.7,1.4-3.1,3.2-3.1c1.7,0,3.1,1.4,3.2,3.1c0,1.7-1.5,3.1-3.2,3.1
			C25.9,32.3,24.5,30.9,24.5,29.2L24.5,29.2z M27.7,31.2c1,0,1.7-0.9,1.7-2c0-1.1-0.9-2-1.7-2c-1,0-1.8,0.9-1.7,2
			C25.9,30.2,26.6,31.2,27.7,31.2"/>
		<polyline class="st0" points="34.4,27.4 34.4,32.1 33,32.1 33,27.4 31.1,27.4 31.1,26.3 36.2,26.3 36.2,27.4 34.4,27.4 		"/>
		<path class="st0" d="M37.8,30.9L37.8,30.9l-0.5,1.3h-1.6l2.4-5.8h1.8l2.4,5.8h-1.6l-0.5-1.3H37.8L37.8,30.9z M39.1,29.8h0.9
			l-0.9-2.1l-0.9,2.1H39.1"/>
		<polyline class="st0" points="9.9,27.4 9.9,32.1 8.5,32.1 8.5,27.4 6.7,27.4 6.7,26.3 11.7,26.3 11.7,27.4 9.9,27.4 		"/>
		<path class="st0" d="M12.1,29.2c0-1.7,1.4-3.1,3.2-3.1c1.7,0,3.2,1.4,3.2,3.1s-1.4,3.1-3.2,3.1S12.1,30.9,12.1,29.2L12.1,29.2z
			 M15.2,31.2c1,0,1.7-0.9,1.7-2c0-1.1-0.7-2-1.7-2s-1.8,0.9-1.7,2C13.4,30.2,14.2,31.2,15.2,31.2"/>
		<polyline class="st0" points="21.4,32.1 22,32.1 22,29.9 24.4,26.3 22.9,26.3 21.4,28.7 19.9,26.3 18.4,26.3 20.7,29.9 20.7,32.1 
			21.4,32.1 		"/>
	</g>
</g>
</svg>
