<?xml version="1.0" encoding="utf-8"?>
<!-- Generator: Adobe Illustrator 27.5.0, SVG Export Plug-In . SVG Version: 6.00 Build 0)  -->
<svg version="1.1" id="Capa_1" xmlns="http://www.w3.org/2000/svg" xmlns:xlink="http://www.w3.org/1999/xlink" x="0px" y="0px"
	 viewBox="0 0 50 50" style="enable-background:new 0 0 50 50;" xml:space="preserve">
<style type="text/css">
	.st0{fill:#FFFFFF;}
</style>
<g>
	<path class="st0" d="M25.57,16.72c0-1.66,1.22-3.04,2.82-3.28c0,0,1.48-0.26,1.91,0.27c0.05,0.06,0.11,0.1,0.11,0.17v1.82
		c0,0.15-0.14,0.28-0.29,0.23c-0.28-0.09-0.65-0.19-0.99-0.02c-0.26,0.13-0.79,0.44-0.73,1.52l0,2.01h2.01v0.4
		c0,1.11-0.9,2.01-2.01,2.01v15.5c0,0.11-0.09,0.2-0.2,0.2h-2.42c-0.11,0-0.2-0.09-0.2-0.2h0v-15.5h-0.6c-0.11,0-0.2-0.09-0.2-0.2
		v-2.01c0-0.11,0.09-0.2,0.2-0.2h0.6V16.72z"/>
	<g>
		<path class="st0" d="M9.05,15.88c0-0.01,0-0.03,0-0.04s0-0.03,0-0.04c-0.02-1.32-1.1-2.39-2.42-2.39c-0.63,0-1.46,0.24-2.01,1.08
			l0.01,1.62c0,0.02,0,0.03,0.01,0.05c0.08,0.13,0.29,0.09,0.42-0.08c0.08-0.1,0.21-0.24,0.52-0.24c0.38,0,0.65,0.39,0.65,0.68v13.6
			c0,0.11,0.09,0.2,0.2,0.2h2.42c0.11,0,0.2-0.09,0.2-0.2V15.88V15.8"/>
		<path class="st0" d="M14.29,15.88c0-0.01,0-0.03,0-0.04s0-0.03,0-0.04c-0.02-1.32-1.1-2.39-2.42-2.39c-0.63,0-1.46,0.24-2.01,1.08
			l0.01,1.62c0,0.02,0,0.03,0.01,0.05c0.08,0.13,0.29,0.09,0.42-0.08c0.08-0.1,0.21-0.24,0.52-0.24c0.38,0,0.65,0.39,0.65,0.68v13.6
			c0,0.11,0.09,0.2,0.2,0.2h2.42c0.11,0,0.2-0.09,0.2-0.2V15.88V15.8"/>
		<path class="st0" d="M3.62,30.32c0.11,0,0.2-0.09,0.2-0.2V15.82c0-1.32-1.06-2.4-2.38-2.42H1.4c-0.22,0-0.4,0.18-0.4,0.4v4.4
			v11.91c0,0.11,0.09,0.2,0.2,0.2H3.62z"/>
	</g>
	<path class="st0" d="M20.33,29.75v0.57h2.61c0.11,0,0.2-0.09,0.2-0.2V16.22c0-1.21-1.2-2.82-3.02-2.82l-0.4,0
		c-1.81,0-3.02,1.61-3.02,2.82v3.02c0,0.11,0.09,0.2,0.2,0.2h2.22c0,0,0,0,0,0c0.1,0,0.19-0.08,0.2-0.18c0-0.01,0,0,0,0v-2.65
		c0-0.23,0-0.79,0.5-0.79c0.5,0,0.5,0.6,0.5,0.81l0,4.96c0,0.01-0.01,0.01-0.02,0.01c-0.44-0.34-1-0.55-1.6-0.55
		c-1.14,0-1.81,0.4-2.01,2.01c-0.14,1.15-0.06,4.34,0,4.83c0.21,1.6,0.81,2.42,2.01,2.42c0.85,0,1.52-0.51,1.6-0.58
		C20.33,29.74,20.33,29.74,20.33,29.75z M19.83,28.3c-0.12,0-0.45-0.11-0.5-0.6c-0.14-1.01-0.18-3.02,0-4.03
		c0.06-0.41,0.32-0.61,0.5-0.61c0.18,0,0.5,0.16,0.5,0.61v4.03C20.33,28.23,19.95,28.3,19.83,28.3z"/>
	<g>
		<path class="st0" d="M30.8,33.13v-3.6h0.58v3.6H30.8z"/>
		<path class="st0" d="M33.43,31.09v2.04h-0.56v-1.97c0-0.24-0.08-0.36-0.23-0.36c-0.19,0-0.29,0.15-0.29,0.44v1.89h-0.56v-2.84h0.5
			l0,0.37c0.1-0.25,0.28-0.37,0.54-0.37C33.23,30.29,33.43,30.56,33.43,31.09z"/>
		<path class="st0" d="M35.48,31.09v2.04h-0.56v-1.97c0-0.24-0.08-0.36-0.23-0.36c-0.19,0-0.29,0.15-0.29,0.44v1.89h-0.56v-2.84h0.5
			l0,0.37c0.1-0.25,0.28-0.37,0.54-0.37C35.27,30.29,35.48,30.56,35.48,31.09z"/>
		<path class="st0" d="M48.52,31.09v2.04h-0.56v-1.97c0-0.24-0.08-0.36-0.23-0.36c-0.19,0-0.29,0.15-0.29,0.44v1.89h-0.56v-2.84h0.5
			l0,0.37c0.1-0.25,0.28-0.37,0.54-0.37C48.32,30.29,48.52,30.56,48.52,31.09z"/>
		<path class="st0" d="M35.88,31.19c0-0.58,0.3-0.9,0.83-0.9c0.53,0,0.83,0.32,0.83,0.9v1.08c0,0.58-0.3,0.9-0.83,0.9
			c-0.53,0-0.83-0.32-0.83-0.9V31.19z M36.97,31.13c0-0.22-0.09-0.34-0.27-0.34c-0.18,0-0.27,0.11-0.27,0.34v1.19
			c0,0.22,0.09,0.34,0.27,0.34c0.18,0,0.27-0.11,0.27-0.34V31.13z"/>
		<path class="st0" d="M38.35,33.13l-0.56-2.81h0.57l0.36,2.04l0.35-2.04h0.53l-0.55,2.81H38.35z"/>
		<path class="st0" d="M41,33.13c-0.03-0.05-0.04-0.16-0.04-0.33c-0.11,0.26-0.3,0.38-0.57,0.38c-0.36,0-0.59-0.27-0.59-0.7
			c0-0.44,0.18-0.69,0.65-0.93c0.2-0.1,0.32-0.17,0.37-0.21c0.05-0.05,0.07-0.11,0.07-0.19V31.1c0-0.21-0.07-0.32-0.23-0.32
			c-0.17,0-0.25,0.11-0.25,0.32v0.1h-0.53v-0.07c0-0.55,0.28-0.85,0.79-0.85c0.55,0,0.79,0.29,0.79,0.92v1.12
			c0,0.36,0.02,0.62,0.06,0.8H41z M40.89,32.22v-0.48c-0.03,0.03-0.12,0.1-0.28,0.21c-0.17,0.11-0.25,0.25-0.25,0.43
			c0,0.2,0.08,0.3,0.24,0.3C40.79,32.69,40.89,32.54,40.89,32.22z"/>
		<path class="st0" d="M41.85,31.18c0-0.57,0.29-0.89,0.82-0.89c0.53,0,0.8,0.33,0.8,0.89v0.17h-0.54v-0.22
			c0-0.22-0.08-0.33-0.26-0.33c-0.18,0-0.26,0.11-0.26,0.33v1.21c0,0.22,0.08,0.33,0.26,0.33c0.18,0,0.26-0.11,0.26-0.33v-0.21h0.54
			v0.15c0,0.56-0.27,0.89-0.8,0.89c-0.53,0-0.82-0.32-0.82-0.89V31.18z"/>
		<path class="st0" d="M43.87,30.07v-0.54h0.56v0.54H43.87z M43.87,33.13v-2.8h0.56v2.8H43.87z"/>
		<polygon class="st0" points="45.34,30.13 45.64,29.54 46.25,29.54 45.78,30.13 		"/>
		<path class="st0" d="M44.83,31.19c0-0.58,0.3-0.9,0.83-0.9c0.53,0,0.83,0.32,0.83,0.9v1.08c0,0.58-0.3,0.9-0.83,0.9
			c-0.53,0-0.83-0.32-0.83-0.9V31.19z M45.92,31.14c0-0.22-0.09-0.34-0.27-0.34c-0.18,0-0.27,0.11-0.27,0.34v1.18
			c0,0.22,0.09,0.34,0.27,0.34c0.18,0,0.27-0.11,0.27-0.34V31.14z"/>
		<path class="st0" d="M30.8,37.56v-3.62h1.55v0.52h-0.97v0.97h0.76v0.52h-0.76v1.61H30.8z"/>
		<path class="st0" d="M32.76,34.46v-0.52h0.57v0.52H32.76z M32.76,37.56v-2.81h0.57v2.81H32.76z"/>
		<path class="st0" d="M39.42,35.55v2.01h-0.57v-1.95c0-0.24-0.08-0.36-0.23-0.36c-0.19,0-0.29,0.15-0.29,0.44v1.87h-0.57v-2.81h0.5
			l0,0.37c0.1-0.25,0.28-0.37,0.54-0.37C39.22,34.75,39.42,35.02,39.42,35.55z"/>
		<path class="st0" d="M41.85,34.46v-0.52h0.57v0.52H41.85z M41.85,37.56v-2.81h0.57v2.81H41.85z"/>
		<path class="st0" d="M44.48,36.28h-1.11v0.47c0,0.22,0.1,0.34,0.28,0.34c0.19,0,0.28-0.11,0.28-0.34v-0.1h0.54v0.05
			c0,0.58-0.3,0.9-0.84,0.9c-0.54,0-0.84-0.32-0.84-0.9v-1.07c0-0.58,0.3-0.9,0.84-0.9c0.54,0,0.84,0.32,0.84,0.9V36.28z
			 M43.37,35.83h0.56v-0.26c0-0.22-0.09-0.34-0.28-0.34c-0.19,0-0.28,0.11-0.28,0.34V35.83z"/>
		<path class="st0" d="M46.08,34.78v0.55c-0.04-0.01-0.09-0.02-0.14-0.02c-0.32,0-0.48,0.21-0.48,0.64v1.6h-0.57v-2.81h0.49
			l0.01,0.52c0.07-0.34,0.25-0.52,0.53-0.52C45.98,34.75,46.03,34.76,46.08,34.78z"/>
		<path class="st0" d="M39.83,35.61c0-0.57,0.29-0.89,0.83-0.89c0.53,0,0.81,0.33,0.81,0.89v0.17h-0.54v-0.22
			c0-0.22-0.09-0.33-0.26-0.33c-0.18,0-0.26,0.11-0.26,0.33v1.2c0,0.22,0.09,0.33,0.26,0.33c0.18,0,0.26-0.11,0.26-0.33v-0.21h0.54
			v0.15c0,0.56-0.27,0.89-0.81,0.89c-0.53,0-0.83-0.32-0.83-0.89V35.61z"/>
		<path class="st0" d="M35.37,35.53v2.04h-0.56v-1.97c0-0.24-0.08-0.36-0.23-0.36c-0.19,0-0.29,0.15-0.29,0.44v1.89h-0.56v-2.84h0.5
			l0,0.37c0.1-0.25,0.28-0.37,0.54-0.37C35.17,34.72,35.37,34.99,35.37,35.53z"/>
		<path class="st0" d="M36.92,37.57c-0.03-0.05-0.04-0.16-0.04-0.33c-0.11,0.26-0.3,0.38-0.57,0.38c-0.36,0-0.59-0.27-0.59-0.7
			c0-0.44,0.18-0.69,0.65-0.93c0.2-0.1,0.32-0.17,0.37-0.21c0.05-0.05,0.07-0.11,0.07-0.19v-0.05c0-0.21-0.07-0.32-0.23-0.32
			c-0.17,0-0.25,0.11-0.25,0.32v0.1h-0.53v-0.07c0-0.55,0.28-0.85,0.79-0.85c0.55,0,0.79,0.29,0.79,0.92v1.12
			c0,0.36,0.02,0.62,0.06,0.8H36.92z M36.8,36.66v-0.48c-0.03,0.03-0.12,0.1-0.28,0.21c-0.17,0.11-0.25,0.25-0.25,0.43
			c0,0.2,0.08,0.3,0.24,0.3C36.71,37.12,36.8,36.97,36.8,36.66z"/>
		<path class="st0" d="M47.45,37.57c-0.03-0.05-0.04-0.16-0.04-0.33c-0.11,0.26-0.3,0.38-0.57,0.38c-0.36,0-0.59-0.27-0.59-0.7
			c0-0.44,0.18-0.69,0.65-0.93c0.2-0.1,0.32-0.17,0.37-0.21c0.05-0.05,0.07-0.11,0.07-0.19v-0.05c0-0.21-0.07-0.32-0.23-0.32
			c-0.17,0-0.25,0.11-0.25,0.32v0.1h-0.53v-0.07c0-0.55,0.28-0.85,0.79-0.85c0.55,0,0.79,0.29,0.79,0.92v1.12
			c0,0.36,0.02,0.62,0.06,0.8H47.45z M47.34,36.66v-0.48c-0.03,0.03-0.12,0.1-0.28,0.21c-0.17,0.11-0.25,0.25-0.25,0.43
			c0,0.2,0.08,0.3,0.24,0.3C47.24,37.12,47.34,36.97,47.34,36.66z"/>
	</g>
</g>
</svg>
