<?xml version="1.0" encoding="utf-8"?>
<!-- Generator: Adobe Illustrator 25.4.1, SVG Export Plug-In . SVG Version: 6.00 Build 0)  -->
<svg version="1.1" id="Capa_1" xmlns="http://www.w3.org/2000/svg" xmlns:xlink="http://www.w3.org/1999/xlink" x="0px" y="0px"
	 viewBox="0 0 50 50" style="enable-background:new 0 0 50 50;" xml:space="preserve">
<style type="text/css">
	.st0{fill:#FFFFFF;}
</style>
<g>
	<g>
		<path class="st0" d="M28.7,28.3c-0.4,0-0.7,0.2-0.9,0.4c-0.2,0.3-0.3,0.7-0.3,1.2s0.1,0.9,0.3,1.2c0.2,0.3,0.5,0.4,0.9,0.4
			c0.4,0,0.7-0.1,0.9-0.4s0.3-0.7,0.3-1.2c0-0.5-0.1-0.9-0.3-1.2C29.4,28.5,29.1,28.3,28.7,28.3z"/>
		<path class="st0" d="M33.8,28.4h-1.2v1.2h1.1c0.3,0,0.4,0,0.6-0.2s0.2-0.3,0.2-0.5c0-0.2-0.1-0.4-0.2-0.5
			C34.2,28.5,34.1,28.4,33.8,28.4z"/>
		<polygon class="st0" points="5.1,30.5 6.4,30.5 5.8,28.7 		"/>
		<path class="st0" d="M0.9,26.7v6.5h48.5v-6.5H0.9z M7.5,32.3H6.9l-0.3-1H4.9l-0.3,1H4.1H3.5l1.6-4.7h0.6h0.6L8,32.3H7.5z
			 M9.7,31.1c0.2,0.3,0.5,0.4,0.8,0.4c0.3,0,0.5-0.1,0.7-0.2s0.3-0.4,0.3-0.7h1c-0.1,0.5-0.3,1-0.6,1.3c-0.4,0.3-0.8,0.5-1.4,0.5
			c-0.7,0-1.2-0.2-1.6-0.7c-0.4-0.4-0.6-1-0.6-1.8c0-0.8,0.2-1.4,0.6-1.8c0.4-0.5,0.9-0.7,1.6-0.7c0.6,0,1,0.2,1.4,0.5
			c0.4,0.3,0.6,0.7,0.6,1.2h-1c0-0.3-0.1-0.5-0.3-0.6c-0.2-0.2-0.4-0.2-0.7-0.2c-0.4,0-0.7,0.1-0.8,0.4c-0.2,0.3-0.3,0.7-0.3,1.2
			C9.4,30.5,9.5,30.9,9.7,31.1z M14.4,31.1c0.2,0.3,0.5,0.4,0.8,0.4c0.3,0,0.5-0.1,0.7-0.2c0.2-0.2,0.3-0.4,0.3-0.7h1
			c-0.1,0.5-0.3,1-0.6,1.3c-0.4,0.3-0.8,0.5-1.4,0.5c-0.7,0-1.2-0.2-1.6-0.7s-0.6-1-0.6-1.8c0-0.8,0.2-1.4,0.6-1.8
			c0.4-0.5,0.9-0.7,1.6-0.7c0.6,0,1,0.2,1.4,0.5s0.6,0.7,0.6,1.2h-1c0-0.3-0.1-0.5-0.3-0.6c-0.2-0.2-0.4-0.2-0.7-0.2
			c-0.4,0-0.7,0.1-0.8,0.4c-0.2,0.3-0.3,0.7-0.3,1.2C14.1,30.5,14.2,30.9,14.4,31.1z M21.5,31.9v0.4H18v-4.7h3.4V28v0.4h-2.5v1h2.3
			v0.4v0.4h-2.3v1.2h2.6V31.9z M25.4,32c-0.3,0.3-0.8,0.4-1.4,0.4c-0.6,0-1-0.1-1.4-0.4c-0.3-0.3-0.5-0.7-0.5-1.2H23
			c0,0.2,0.1,0.4,0.3,0.6c0.2,0.1,0.4,0.2,0.7,0.2c0.3,0,0.6,0,0.7-0.2c0.2-0.1,0.3-0.2,0.3-0.4c0-0.2-0.1-0.3-0.2-0.4
			c-0.1-0.1-0.4-0.2-0.8-0.3c-0.7-0.2-1.2-0.3-1.5-0.5c-0.2-0.2-0.4-0.5-0.4-0.9c0-0.5,0.2-0.8,0.5-1.1s0.8-0.4,1.3-0.4
			c0.5,0,0.9,0.1,1.3,0.4c0.3,0.3,0.5,0.7,0.5,1.1h-1c0-0.2-0.1-0.4-0.3-0.5c-0.2-0.1-0.4-0.2-0.7-0.2c-0.2,0-0.4,0.1-0.6,0.2
			c-0.1,0.1-0.2,0.3-0.2,0.5c0,0.1,0.1,0.2,0.2,0.3c0.1,0.1,0.5,0.2,0.9,0.3c0.7,0.2,1.1,0.3,1.4,0.5c0.2,0.2,0.3,0.5,0.3,1
			C25.9,31.4,25.7,31.8,25.4,32z M30.3,31.8c-0.4,0.4-1,0.7-1.6,0.7s-1.2-0.2-1.6-0.7c-0.4-0.4-0.6-1-0.6-1.8c0-0.8,0.2-1.4,0.6-1.8
			c0.4-0.5,1-0.7,1.6-0.7s1.2,0.2,1.6,0.7c0.4,0.5,0.6,1.1,0.6,1.8C30.9,30.7,30.7,31.3,30.3,31.8z M35.6,32.3h-1.1
			c0,0,0-0.2-0.1-0.3c0-0.2,0-0.3,0-0.5l0-0.4c0-0.2-0.1-0.4-0.2-0.5c-0.1-0.1-0.3-0.1-0.6-0.1h-1v1.8h-0.5h-0.5v-4.7h0.5H34
			c0.4,0,0.8,0.1,1.1,0.4c0.3,0.2,0.4,0.6,0.4,0.9c0,0.5-0.2,0.8-0.5,1C35,30,34.9,30,34.8,30.1c0.1,0,0.1,0,0.2,0.1
			c0.3,0.2,0.4,0.4,0.4,0.8l0,0.8c0,0.2,0,0.3,0,0.3s0.1,0.1,0.2,0.2L35.6,32.3L35.6,32.3z M37.3,32.3h-0.5h-0.5v-4.7h0.5h0.5
			L37.3,32.3L37.3,32.3z M41.8,31.8c-0.4,0.4-1,0.7-1.6,0.7c-0.7,0-1.2-0.2-1.6-0.7c-0.4-0.4-0.6-1-0.6-1.8c0-0.8,0.2-1.4,0.6-1.8
			c0.4-0.5,1-0.7,1.6-0.7c0.7,0,1.2,0.2,1.6,0.7c0.4,0.5,0.6,1.1,0.6,1.8C42.4,30.7,42.2,31.3,41.8,31.8z M46.3,32
			c-0.3,0.3-0.8,0.4-1.4,0.4c-0.6,0-1-0.1-1.4-0.4c-0.3-0.3-0.5-0.7-0.5-1.2h0.9c0,0.2,0.1,0.4,0.3,0.6c0.2,0.1,0.4,0.2,0.7,0.2
			c0.3,0,0.6,0,0.7-0.2c0.2-0.1,0.3-0.2,0.3-0.4c0-0.2-0.1-0.3-0.2-0.4c-0.1-0.1-0.4-0.2-0.8-0.3c-0.7-0.2-1.2-0.3-1.5-0.5
			c-0.2-0.2-0.4-0.5-0.4-0.9c0-0.5,0.2-0.8,0.5-1.1s0.8-0.4,1.3-0.4c0.5,0,0.9,0.1,1.3,0.4c0.3,0.3,0.5,0.7,0.5,1.1h-1
			c0-0.2-0.1-0.4-0.3-0.5c-0.2-0.1-0.4-0.2-0.7-0.2c-0.2,0-0.4,0.1-0.6,0.2C44,28.6,44,28.7,44,28.9c0,0.1,0.1,0.2,0.2,0.3
			c0.1,0.1,0.5,0.2,0.9,0.3c0.7,0.2,1.1,0.3,1.4,0.5c0.2,0.2,0.3,0.5,0.3,1C46.8,31.4,46.6,31.8,46.3,32z"/>
		<path class="st0" d="M40.2,28.3c-0.4,0-0.7,0.2-0.9,0.4c-0.2,0.3-0.3,0.7-0.3,1.2s0.1,0.9,0.3,1.2c0.2,0.3,0.5,0.4,0.9,0.4
			c0.4,0,0.7-0.1,0.9-0.4c0.2-0.3,0.3-0.7,0.3-1.2c0-0.5-0.1-0.9-0.3-1.2C40.9,28.5,40.6,28.3,40.2,28.3z"/>
	</g>
	<g>
		<polygon class="st0" points="20.5,18.3 15.7,18.3 15.7,19.4 17.5,19.4 17.5,23.9 18.7,23.9 18.7,19.4 20.5,19.4 		"/>
		<path class="st0" d="M23.8,18.1c-1.6,0-3,1.3-3,3c0,1.6,1.3,3,3,3c1.6,0,3-1.3,3-3C26.8,19.5,25.4,18.1,23.8,18.1 M25.3,22
			c-0.2,0.5-0.6,0.9-1.2,1c-0.1,0-0.2,0-0.3,0c-0.1,0-0.2,0-0.3,0c-0.5-0.1-1-0.5-1.2-1c-0.1-0.3-0.2-0.6-0.2-0.9
			c0-0.3,0.1-0.6,0.2-0.9c0.2-0.5,0.6-0.9,1.2-1c0.1,0,0.2,0,0.3,0c0.1,0,0.2,0,0.3,0c0.5,0.1,1,0.5,1.2,1c0.1,0.3,0.2,0.6,0.2,0.9
			C25.4,21.4,25.4,21.7,25.3,22"/>
		<polygon class="st0" points="26.8,18.3 28.3,18.3 29.7,20.7 31.1,18.3 32.6,18.3 30.3,21.8 30.3,23.9 29,23.9 29,21.8 		"/>
		<path class="st0" d="M32.6,21.1c0-1.6,1.3-3,3-3s3,1.3,3,3c0,1.6-1.3,3-3,3C33.9,24.1,32.6,22.8,32.6,21.1 M35.6,23
			c0.1,0,0.2,0,0.3,0c0.5-0.1,1-0.5,1.2-1c0.1-0.3,0.2-0.6,0.2-0.9c0-0.3-0.1-0.6-0.2-0.9c-0.2-0.5-0.6-0.9-1.2-1
			c-0.1,0-0.2,0-0.3,0c-0.1,0-0.2,0-0.3,0c-0.5,0.1-1,0.5-1.2,1c-0.1,0.3-0.2,0.6-0.2,0.9c0,0.3,0.1,0.6,0.2,0.9
			c0.2,0.5,0.6,0.9,1.2,1C35.4,23,35.5,23,35.6,23"/>
		<path class="st0" d="M47.6,22.7h-2.4l-0.5,1.2h-1.4l2.3-5.6h1.6l2.3,5.6H48L47.6,22.7L47.6,22.7z M47.2,21.7l-0.8-2.2l-0.8,2.2
			H47.2z"/>
		<polygon class="st0" points="43.7,18.3 38.8,18.3 38.8,19.4 40.6,19.4 40.6,23.9 41.9,23.9 41.9,19.4 43.7,19.4 		"/>
	</g>
	<path class="st0" d="M6.3,20.3c0.1-1.1,0.5-1.9,1-1.9c0.5,0,0.9,0.8,1,1.9h0.6c-0.2-1.7-0.8-2.9-1.6-2.9s-1.4,1.2-1.6,2.9H6.3z"/>
	<g>
		<path class="st0" d="M13.9,21c0,2.3-3,4.3-6.6,4.3c-3.7,0-6.6-1.9-6.6-4.3c0-1.7,1.5-3.1,3.7-3.8c0.8-0.3,1.8-0.4,2.9-0.4
			s2.1,0.2,2.9,0.4C12.4,17.9,13.9,19.3,13.9,21 M7.3,24.8c3.1,0,5.7-1.8,5.7-3.9c0-2.2-2.5-3.9-5.7-3.9s-5.7,1.8-5.7,3.9
			C1.6,23,4.2,24.8,7.3,24.8"/>
		<path class="st0" d="M2.4,19c0-1.1,2.2-2.1,4.9-2.1s4.9,0.9,4.9,2.1c0,1.1-2.2,2.1-4.9,2.1C4.6,21.1,2.4,20.1,2.4,19 M7.3,20
			c2.1,0,3.8-0.6,3.8-1.3s-1.7-1.3-3.8-1.3c-2.1,0-3.8,0.6-3.8,1.3S5.2,20,7.3,20"/>
		<path class="st0" d="M6.3,20.5c0,0.1,0,0.3,0,0.4c0,1.4,0.5,2.5,1,2.5s1-1.1,1-2.5c0-0.2,0-0.3,0-0.4h0.6c0,0.2,0,0.5,0,0.7
			c0,2.1-0.7,3.8-1.6,3.8c-0.9,0-1.6-1.7-1.6-3.8c0-0.2,0-0.5,0-0.7H6.3z"/>
	</g>
</g>
</svg>
