<?xml version="1.0" encoding="utf-8"?>
<!-- Generator: Adobe Illustrator 25.4.1, SVG Export Plug-In . SVG Version: 6.00 Build 0)  -->
<svg version="1.1" id="Capa_1" xmlns="http://www.w3.org/2000/svg" xmlns:xlink="http://www.w3.org/1999/xlink" x="0px" y="0px"
	 viewBox="0 0 50 50" style="enable-background:new 0 0 50 50;" xml:space="preserve">
<style type="text/css">
	.st0{fill:#FFFFFF;}
</style>
<g>
	<g id="XMLID_9_">
		<g id="XMLID_10_">
			<g id="XMLID_299_">
				<path class="st0" d="M7.1,34.4h1.7v0.3H7.5v0.7h1v0.3h-1v0.9h1.3v0.3H7.1V34.4z"/>
			</g>
			<g id="XMLID_297_">
				<path class="st0" d="M9.3,34.7H9.2v-0.3h0.5v2.4H9.3V34.7z"/>
			</g>
			<g id="XMLID_295_">
				<path class="st0" d="M12.5,36.7c-0.1,0.1-0.2,0.1-0.3,0.1c-0.1,0-0.2,0.1-0.3,0.1c-0.1,0-0.3,0-0.4-0.1
					c-0.1-0.1-0.2-0.1-0.3-0.2s-0.1-0.2-0.1-0.3c0-0.1-0.1-0.2-0.1-0.3c0-0.1,0-0.3,0.1-0.3c0.1-0.1,0.1-0.2,0.2-0.3
					c0.1-0.1,0.2-0.1,0.3-0.2s0.3-0.1,0.4-0.1c0.1,0,0.3,0,0.3,0.1c0.1,0,0.2,0.1,0.3,0.1l-0.1,0.3c-0.1-0.1-0.2-0.1-0.3-0.1
					c-0.1,0-0.1,0-0.3,0c-0.1,0-0.2,0-0.3,0.1c-0.1,0.1-0.1,0.1-0.2,0.1c-0.1,0.1-0.1,0.1-0.1,0.2c0,0.1-0.1,0.2-0.1,0.3
					c0,0.2,0.1,0.3,0.1,0.5c0.1,0.1,0.2,0.1,0.4,0.1c0.1,0,0.2,0,0.3,0c0.1,0,0.2-0.1,0.3-0.1L12.5,36.7z"/>
			</g>
			<g id="XMLID_293_">
				<path class="st0" d="M13.1,35.3h-0.2v-0.2h0.4l0.1,0.2l0.1-0.1c0.1,0,0.1-0.1,0.1-0.1s0.1-0.1,0.1-0.1c0.1,0,0.1,0,0.2,0
					s0.1,0,0.1,0h0.1l-0.1,0.3H14c0,0-0.1,0-0.1,0s-0.1,0-0.1,0c-0.1,0-0.1,0-0.1,0.1c-0.1,0-0.1,0.1-0.1,0.1s-0.1,0.1-0.1,0.1v1.3
					h-0.3L13.1,35.3L13.1,35.3z"/>
			</g>
			<g id="XMLID_289_">
				<path class="st0" d="M16,36.7c-0.1,0-0.2,0.1-0.3,0.1c-0.1,0-0.3,0.1-0.4,0.1s-0.3,0-0.4-0.1c-0.1-0.1-0.2-0.1-0.3-0.2
					s-0.1-0.2-0.1-0.3c-0.1-0.1-0.1-0.2-0.1-0.3c0-0.1,0-0.3,0.1-0.3c0.1-0.1,0.1-0.2,0.1-0.3c0.1-0.1,0.1-0.1,0.3-0.2
					s0.2-0.1,0.3-0.1c0.3,0,0.5,0.1,0.5,0.2c0.1,0.1,0.2,0.3,0.2,0.6L15.8,36h-1.1c0,0.2,0.1,0.3,0.1,0.4c0.1,0.1,0.2,0.1,0.4,0.1
					c0.1,0,0.1,0,0.1,0c0.1,0,0.1,0,0.1,0s0.1,0,0.1-0.1c0.1,0,0.1,0,0.1-0.1L16,36.7z M15.6,35.8c0-0.1,0-0.2-0.1-0.2
					c0-0.1-0.1-0.1-0.1-0.1c-0.1-0.1-0.1-0.1-0.1-0.1s-0.1,0-0.2,0c-0.1,0-0.3,0.1-0.3,0.1c-0.1,0.1-0.1,0.2-0.1,0.3L15.6,35.8
					L15.6,35.8z M15.4,34.1l0.3,0.2l-0.5,0.6L15,34.7L15.4,34.1z"/>
			</g>
			<g id="XMLID_286_">
				<path class="st0" d="M17.8,36.6c-0.1,0.1-0.1,0.1-0.3,0.1c-0.1,0.1-0.2,0.1-0.3,0.1s-0.3,0-0.3-0.1c-0.1-0.1-0.2-0.1-0.3-0.2
					c-0.1-0.1-0.1-0.2-0.1-0.3c0-0.1-0.1-0.2-0.1-0.3c0-0.1,0-0.3,0.1-0.4c0.1-0.1,0.1-0.2,0.2-0.3s0.2-0.1,0.3-0.2
					C17,35,17.2,35,17.3,35c0.1,0,0.1,0,0.2,0s0.1,0,0.1,0v-0.7H18v2.1l0.1,0.2l-0.2,0.2L17.8,36.6z M17.7,35.3
					c-0.1,0-0.1,0-0.1-0.1s-0.1,0-0.2,0s-0.1,0-0.2,0.1c-0.1,0-0.1,0.1-0.2,0.1c-0.1,0.1-0.1,0.1-0.1,0.2c-0.1,0.1-0.1,0.2-0.1,0.3
					c0,0.1,0,0.2,0.1,0.3c0,0.1,0.1,0.1,0.1,0.2c0.1,0.1,0.1,0.1,0.1,0.1c0.1,0,0.1,0,0.2,0c0.1,0,0.2,0,0.3-0.1
					c0.1-0.1,0.1-0.1,0.2-0.1L17.7,35.3L17.7,35.3z"/>
			</g>
			<g id="XMLID_283_">
				<path class="st0" d="M18.8,35.3h-0.2v-0.2h0.5v1.7h-0.3V35.3z M18.7,34.7c-0.1-0.1-0.1-0.1-0.1-0.1c0-0.1,0-0.1,0.1-0.1
					c0.1,0,0.1-0.1,0.1-0.1c0.1,0,0.1,0,0.1,0.1c0.1,0.1,0.1,0.1,0.1,0.1c0,0.1,0,0.1-0.1,0.1c-0.1,0.1-0.1,0.1-0.1,0.1
					C18.8,34.8,18.8,34.8,18.7,34.7z"/>
			</g>
			<g id="XMLID_281_">
				<path class="st0" d="M19.8,35.3h-0.3v-0.2h0.3v-0.5h0.3v0.5h0.5v0.3h-0.5v0.9c0,0.1,0,0.2,0.1,0.3c0.1,0.1,0.1,0.1,0.2,0.1
					c0.1,0,0.1,0,0.1,0c0.1,0,0.1,0,0.1-0.1l0.1,0.3c-0.1,0-0.1,0.1-0.2,0.1c-0.1,0-0.1,0-0.2,0s-0.1,0-0.2,0s-0.1-0.1-0.2-0.1
					c-0.1-0.1-0.1-0.1-0.1-0.1c0-0.1-0.1-0.1-0.1-0.3L19.8,35.3L19.8,35.3z"/>
			</g>
			<g id="XMLID_278_">
				<path class="st0" d="M21.3,36.6c-0.1-0.1-0.1-0.2-0.1-0.3c0-0.1-0.1-0.2-0.1-0.3c0-0.1,0-0.3,0.1-0.3c0.1-0.1,0.1-0.2,0.1-0.3
					c0.1-0.1,0.1-0.1,0.3-0.2s0.2-0.1,0.4-0.1c0.1,0,0.3,0,0.4,0.1c0.1,0.1,0.2,0.1,0.3,0.2c0.1,0.1,0.1,0.2,0.1,0.3
					c0.1,0.1,0.1,0.2,0.1,0.3c0,0.1,0,0.3-0.1,0.3c-0.1,0.1-0.1,0.2-0.1,0.3c-0.1,0.1-0.1,0.1-0.3,0.2c-0.1,0.1-0.3,0.1-0.4,0.1
					s-0.3,0-0.4-0.1S21.3,36.6,21.3,36.6z M21.9,36.6c0.2,0,0.3-0.1,0.4-0.1c0.1-0.1,0.1-0.3,0.1-0.5c0-0.2-0.1-0.4-0.1-0.5
					c-0.1-0.1-0.2-0.1-0.4-0.1s-0.3,0.1-0.4,0.1c-0.1,0.1-0.1,0.3-0.1,0.5c0,0.2,0.1,0.4,0.1,0.5C21.6,36.5,21.8,36.6,21.9,36.6z"/>
			</g>
			<g id="XMLID_275_">
				<path class="st0" d="M25.2,36.6c-0.1,0-0.1,0.1-0.1,0.1c-0.1,0-0.1,0.1-0.1,0.1c-0.1,0-0.1,0.1-0.1,0.1c-0.1,0-0.1,0-0.2,0
					c-0.1,0-0.1,0-0.3,0c-0.1,0-0.1-0.1-0.2-0.1c-0.1-0.1-0.1-0.1-0.1-0.1C24,36.6,24,36.5,24,36.4c0-0.1,0-0.2,0.1-0.3
					c0.1-0.1,0.1-0.1,0.1-0.2c0.1-0.1,0.1-0.1,0.2-0.1s0.1,0,0.3,0h0.5v-0.1c0-0.1,0-0.3-0.1-0.3c-0.1-0.1-0.1-0.1-0.3-0.1
					c-0.1,0-0.2,0-0.3,0c-0.1,0-0.2,0.1-0.3,0.1l-0.1-0.2c0.1,0,0.2-0.1,0.3-0.1c0.1,0,0.2-0.1,0.3-0.1s0.3,0,0.3,0.1
					c0.1,0.1,0.1,0.1,0.2,0.1c0.1,0.1,0.1,0.1,0.1,0.2s0,0.2,0,0.3v0.7l0.1,0.2l-0.2,0.2L25.2,36.6z M25.2,36h-0.5
					c-0.1,0-0.2,0-0.3,0.1c-0.1,0.1-0.1,0.1-0.1,0.2s0,0.1,0,0.1c0,0.1,0.1,0.1,0.1,0.1c0.1,0,0.1,0.1,0.1,0.1c0.1,0,0.1,0,0.1,0
					c0.1,0,0.2,0,0.3-0.1c0.1-0.1,0.1-0.1,0.2-0.1L25.2,36L25.2,36z"/>
			</g>
			<g id="XMLID_273_">
				<path class="st0" d="M27,35.3h-0.3v-0.2H27v-0.5h0.3v0.5h0.5v0.3h-0.5v0.9c0,0.1,0,0.2,0.1,0.3c0.1,0.1,0.1,0.1,0.2,0.1
					s0.1,0,0.1,0c0.1,0,0.1,0,0.1-0.1l0.1,0.3c-0.1,0-0.1,0.1-0.2,0.1s-0.1,0-0.2,0s-0.1,0-0.2,0s-0.1-0.1-0.2-0.1
					c-0.1-0.1-0.1-0.1-0.1-0.1c0-0.1-0.1-0.1-0.1-0.3L27,35.3L27,35.3z"/>
			</g>
			<g id="XMLID_271_">
				<path class="st0" d="M28.4,35.1h0.3v1.1c0,0.1,0.1,0.3,0.1,0.3c0.1,0.1,0.1,0.1,0.3,0.1s0.2,0,0.3-0.1c0.1-0.1,0.1-0.1,0.2-0.1
					v-1.3h0.3v1.3l0.1,0.2l-0.2,0.2l-0.2-0.2c-0.1,0.1-0.2,0.1-0.3,0.1c-0.1,0.1-0.2,0.1-0.3,0.1s-0.2,0-0.3-0.1
					c-0.1-0.1-0.1-0.1-0.2-0.1s-0.1-0.1-0.1-0.2c0-0.1,0-0.1,0-0.3V35.1z"/>
			</g>
			<g id="XMLID_269_">
				<path class="st0" d="M31.4,35.4l-0.1-0.3l0.3-0.1l0.1,0.2c0.1-0.1,0.1-0.1,0.3-0.1C32,35,32.1,35,32.2,35c0.1,0,0.2,0,0.3,0.1
					c0.1,0,0.1,0.1,0.2,0.1c0.1-0.1,0.2-0.1,0.3-0.1C33,35,33.1,35,33.2,35c0.1,0,0.2,0,0.3,0.1c0.1,0.1,0.1,0.1,0.2,0.1
					s0.1,0.1,0.1,0.2s0,0.1,0,0.3v1.1h-0.3v-1.1c0-0.1,0-0.3-0.1-0.3s-0.1-0.1-0.3-0.1c-0.1,0-0.1,0-0.2,0s-0.1,0.1-0.2,0.1
					c0,0,0,0.1,0,0.1s0,0.1,0,0.2v1.1h-0.3v-1.1c0-0.1,0-0.1,0-0.2s0-0.1-0.1-0.1c0-0.1-0.1-0.1-0.1-0.1c-0.1,0-0.1,0-0.1,0
					s-0.2,0-0.3,0.1c-0.1,0-0.1,0.1-0.2,0.1v1.3h-0.3v-1.3H31.4z"/>
			</g>
			<g id="XMLID_23_">
				<path class="st0" d="M35.7,36.7c-0.1,0-0.2,0.1-0.3,0.1c-0.1,0-0.3,0.1-0.4,0.1s-0.3,0-0.4-0.1c-0.1-0.1-0.2-0.1-0.3-0.2
					c-0.1-0.1-0.1-0.2-0.1-0.3c-0.1-0.1-0.1-0.2-0.1-0.3c0-0.1,0-0.3,0.1-0.3c0.1-0.1,0.1-0.2,0.1-0.3s0.1-0.1,0.3-0.2
					c0.1-0.1,0.2-0.1,0.3-0.1c0.3,0,0.5,0.1,0.5,0.2c0.1,0.1,0.2,0.3,0.2,0.6L35.6,36h-1.1c0,0.2,0.1,0.3,0.1,0.4
					c0.1,0.1,0.2,0.1,0.4,0.1c0.1,0,0.1,0,0.1,0c0.1,0,0.1,0,0.1,0s0.1,0,0.1-0.1c0.1,0,0.1,0,0.1-0.1L35.7,36.7z M35.5,35.8
					c0-0.1,0-0.2-0.1-0.2s-0.1-0.1-0.1-0.1c-0.1-0.1-0.1-0.1-0.1-0.1s-0.1,0-0.2,0c-0.1,0-0.3,0.1-0.3,0.1c-0.1,0.1-0.1,0.2-0.1,0.3
					L35.5,35.8L35.5,35.8z"/>
			</g>
			<g id="XMLID_20_">
				<path class="st0" d="M37.6,36.6c-0.1,0.1-0.1,0.1-0.3,0.1c-0.1,0.1-0.2,0.1-0.3,0.1c-0.1,0-0.3,0-0.3-0.1
					c-0.1-0.1-0.2-0.1-0.3-0.2c-0.1-0.1-0.1-0.2-0.1-0.3c0-0.1-0.1-0.2-0.1-0.3c0-0.1,0-0.3,0.1-0.4c0.1-0.1,0.1-0.2,0.2-0.3
					s0.2-0.1,0.3-0.2C36.9,35,37,35,37.1,35c0.1,0,0.1,0,0.2,0s0.1,0,0.1,0v-0.7h0.3v2.1l0.1,0.2l-0.2,0.2L37.6,36.6z M37.5,35.3
					c-0.1,0-0.1,0-0.1-0.1s-0.1,0-0.2,0s-0.1,0-0.2,0.1c-0.1,0-0.1,0.1-0.2,0.1s-0.1,0.1-0.1,0.2s-0.1,0.2-0.1,0.3
					c0,0.1,0,0.2,0.1,0.3c0,0.1,0.1,0.1,0.1,0.2s0.1,0.1,0.1,0.1c0.1,0.1,0.1,0,0.2,0c0.1,0,0.2,0,0.3-0.1c0.1-0.1,0.1-0.1,0.2-0.1
					L37.5,35.3L37.5,35.3z"/>
			</g>
			<g id="XMLID_17_">
				<path class="st0" d="M38.5,35.3h-0.2v-0.2h0.5v1.7h-0.3V35.3z M38.5,34.7c-0.1-0.1-0.1-0.1-0.1-0.1c0-0.1,0-0.1,0.1-0.1
					s0.1-0.1,0.1-0.1c0.1,0,0.1,0,0.1,0.1c0.1,0.1,0.1,0.1,0.1,0.1c0,0.1,0,0.1-0.1,0.1c-0.1,0.1-0.1,0.1-0.1,0.1
					C38.6,34.8,38.5,34.8,38.5,34.7z"/>
			</g>
			<g id="XMLID_14_">
				<path class="st0" d="M40.7,36.6c-0.1,0.1-0.1,0.1-0.3,0.1c-0.1,0.1-0.2,0.1-0.3,0.1c-0.1,0-0.3,0-0.3-0.1
					c-0.1-0.1-0.2-0.1-0.3-0.2c-0.1-0.1-0.1-0.2-0.1-0.3c0-0.1-0.1-0.2-0.1-0.3c0-0.1,0-0.3,0.1-0.4c0.1-0.1,0.1-0.2,0.2-0.3
					s0.2-0.1,0.3-0.2C40,35,40.1,35,40.3,35c0.1,0,0.1,0,0.2,0s0.1,0,0.1,0v-0.7h0.3v2.1l0.1,0.2l-0.2,0.2L40.7,36.6z M40.7,35.3
					c-0.1,0-0.1,0-0.1-0.1c-0.1,0-0.1,0-0.2,0s-0.1,0-0.2,0.1c-0.1,0-0.1,0.1-0.2,0.1s-0.1,0.1-0.1,0.2c-0.1,0.1-0.1,0.2-0.1,0.3
					c0,0.1,0,0.2,0.1,0.3c0,0.1,0.1,0.1,0.1,0.2c0.1,0.1,0.1,0.1,0.1,0.1c0.1,0,0.1,0,0.2,0c0.1,0,0.2,0,0.3-0.1
					c0.1-0.1,0.1-0.1,0.2-0.1L40.7,35.3L40.7,35.3z"/>
			</g>
			<g id="XMLID_11_">
				<path class="st0" d="M42.7,36.6c-0.1,0-0.1,0.1-0.1,0.1c-0.1,0-0.1,0.1-0.1,0.1c-0.1,0-0.1,0.1-0.1,0.1c-0.1,0-0.1,0-0.2,0
					s-0.1,0-0.3,0c-0.1,0-0.1-0.1-0.2-0.1c-0.1-0.1-0.1-0.1-0.1-0.1c-0.1-0.1-0.1-0.1-0.1-0.3c0-0.1,0-0.2,0.1-0.3
					c0.1-0.1,0.1-0.1,0.1-0.2c0.1-0.1,0.1-0.1,0.2-0.1s0.1,0,0.3,0h0.5v-0.1c0-0.1,0-0.3-0.1-0.3c-0.1-0.1-0.1-0.1-0.3-0.1
					c-0.1,0-0.2,0-0.3,0s-0.2,0.1-0.3,0.1l-0.1-0.2c0.1,0,0.2-0.1,0.3-0.1c0.1,0,0.2-0.1,0.3-0.1c0.1,0,0.3,0,0.3,0.1
					c0.1,0.1,0.1,0.1,0.2,0.1c0.1,0.1,0.1,0.1,0.1,0.2s0,0.2,0,0.3v0.7l0.1,0.2l-0.2,0.2L42.7,36.6z M42.7,36h-0.5
					c-0.1,0-0.2,0-0.3,0.1c-0.1,0.1-0.1,0.1-0.1,0.2s0,0.1,0,0.1c0,0.1,0.1,0.1,0.1,0.1c0.1,0,0.1,0.1,0.1,0.1c0.1,0,0.1,0,0.1,0
					c0.1,0,0.2,0,0.3-0.1c0.1-0.1,0.1-0.1,0.2-0.1L42.7,36L42.7,36z"/>
			</g>
		</g>
	</g>
	<g id="XMLID_227_">
		<g id="XMLID_8_">
			<polygon class="st0" points="8.7,27.5 5,27.5 5,28.3 6.4,28.3 6.4,31.8 7.3,31.8 7.3,28.3 8.7,28.3 			"/>
		</g>
		<g id="XMLID_5_">
			<path class="st0" d="M11.2,27.3c-1.3,0-2.3,1-2.3,2.3s1,2.3,2.3,2.3s2.3-1,2.3-2.3C13.5,28.3,12.5,27.3,11.2,27.3 M12.3,30.3
				c-0.1,0.4-0.5,0.7-0.9,0.7c-0.1,0-0.1,0-0.2,0s-0.1,0-0.2,0c-0.4-0.1-0.7-0.3-0.9-0.7c-0.1-0.2-0.1-0.5-0.1-0.7s0.1-0.5,0.1-0.7
				c0.1-0.4,0.5-0.7,0.9-0.7c0.1,0,0.1,0,0.2,0s0.1,0,0.2,0c0.4,0.1,0.7,0.3,0.9,0.7c0.1,0.2,0.1,0.5,0.1,0.7S12.5,30.1,12.3,30.3"
				/>
		</g>
		<g id="XMLID_4_">
			<polygon class="st0" points="13.5,27.5 14.7,27.5 15.7,29.3 16.8,27.5 18,27.5 16.2,30.2 16.2,31.8 15.2,31.8 15.2,30.2 			"/>
		</g>
		<g id="XMLID_1_">
			<path class="st0" d="M18,29.6c0-1.3,1-2.3,2.3-2.3s2.3,1,2.3,2.3s-1,2.3-2.3,2.3C19,31.9,18,30.9,18,29.6 M20.2,31.1
				c0.1,0,0.1,0,0.2,0c0.4-0.1,0.7-0.3,0.9-0.7c0.1-0.2,0.1-0.5,0.1-0.7c0-0.3-0.1-0.5-0.1-0.7c-0.1-0.4-0.5-0.7-0.9-0.7
				c-0.1,0-0.1,0-0.2,0s-0.1,0-0.2,0c-0.4,0.1-0.7,0.3-0.9,0.7c-0.1,0.2-0.1,0.5-0.1,0.7c0,0.3,0.1,0.5,0.1,0.7
				c0.1,0.4,0.5,0.7,0.9,0.7C20.1,31.1,20.2,31.1,20.2,31.1"/>
		</g>
		<g id="XMLID_241_">
			<path class="st0" d="M29.4,30.8h-1.8l-0.4,1h-1.1l1.7-4.3h1.2l1.7,4.3h-1.1L29.4,30.8L29.4,30.8z M29.2,30.1l-0.7-1.7l-0.7,1.7
				H29.2z"/>
		</g>
		<g id="XMLID_240_">
			<polygon class="st0" points="26.5,27.5 22.8,27.5 22.8,28.3 24.1,28.3 24.1,31.8 25.1,31.8 25.1,28.3 26.5,28.3 			"/>
		</g>
		<g id="XMLID_237_">
			<g id="XMLID_238_">
				<path class="st0" d="M32.4,31.7v-4.3h1.2v3.3h2.1v1H32.4L32.4,31.7z"/>
			</g>
		</g>
		<g id="XMLID_234_">
			<g id="XMLID_235_">
				<path class="st0" d="M36.1,31.7v-4.3h1.2v4.3H36.1z"/>
			</g>
		</g>
		<g id="XMLID_231_">
			<g id="XMLID_232_">
				<path class="st0" d="M38,31.7v-4.3h3.2v1.1h-2.1v0.6h1.5v1h-1.5v1.7L38,31.7L38,31.7z"/>
			</g>
		</g>
		<g id="XMLID_228_">
			<g id="XMLID_229_">
				<path class="st0" d="M41.7,31.7v-4.3h3.2v1.1h-2v0.6h1.6v1h-1.6v0.7H45v1L41.7,31.7L41.7,31.7z"/>
			</g>
		</g>
	</g>
	<g>
		<g>
			<path class="st0" d="M19.8,21.7c0-0.2,0-0.3,0-0.5c0.1-1.3,0.1-2.1,0.7-3c0.1-0.1,0.1-0.1,0.1-0.2h-5.3c-0.4,0-0.5-0.3-0.4-0.6
				l1.2-2.9c0.1-0.4,0.5-0.7,0.9-0.7h6.7c0,0,0,0,0.1,0c0.3-0.3,0.5-0.5,0.7-0.6c-0.2-0.1-0.3-0.1-0.5-0.1h-0.7h-6.3h-0.5
				c-0.6,0-1.3,0.5-1.5,1.1l-0.8,1.9l-0.7-0.2c-0.1,0-0.1,0-0.2,0c-0.4,0-0.7,0.3-0.7,0.7V17c0,0.5,0.4,0.9,0.9,0.9h0.1l-0.1,0.3
				c-0.2,0.5-0.4,1.5-0.4,2V24c0,0.5,0.4,0.9,0.9,0.9h1c0.5,0,0.9-0.4,0.9-0.9v-0.9h4V23v0.1l0,0C19.7,22.6,19.7,22.2,19.8,21.7z
				 M17.6,21.1c0,0.2-0.1,0.3-0.3,0.3H15c-0.2,0-0.3-0.1-0.3-0.3v-1.1c0-0.2,0.1-0.3,0.3-0.3h2.3c0.2,0,0.3,0.1,0.3,0.3V21.1z"/>
		</g>
	</g>
	<g>
		<g>
			<path class="st0" d="M32.7,19.8l-0.1,0.3c0.4-0.1,0.8-0.1,1.3-0.1c0.1,0,0.2,0,0.3-0.1c0.1-0.1,0.2-0.2,0.4-0.4
				C34.2,19.5,33.5,19.7,32.7,19.8L32.7,19.8L32.7,19.8z"/>
			<path class="st0" d="M35.1,18.8c-0.5,0.1-1.2,0.3-2.1,0.4l-0.2,0.3c0,0,0,0-0.1,0L30.1,20l0,0l0,0l0,0c0,0,0,0.1-0.1,0.1
				c0.4-0.1,3-0.5,4.5-0.7C34.8,19.2,35,19,35.1,18.8z"/>
			<path class="st0" d="M27.8,20.1L27.8,20.1L27.8,20.1L27.8,20.1l-2.7-0.5H25l-0.2-0.3c-0.9-0.1-1.5-0.3-2.1-0.4
				c0.1,0.1,0.3,0.3,0.5,0.5C24.8,19.7,27.4,20.1,27.8,20.1L27.8,20.1z"/>
			<path class="st0" d="M35.6,19c0,0.2,0.2,0.4,0.4,0.4c0.2,0,0.4-0.2,0.4-0.4s-0.2-0.4-0.4-0.4C35.8,18.6,35.6,18.8,35.6,19z"/>
			<path class="st0" d="M36.7,17.9c-0.1-0.1-0.1-0.2-0.1-0.3l0,0c-0.1,0.1-0.3,0.3-0.4,0.5c-0.7,0.4-3.5,1.2-7.1,1.2l0,0H29h-0.1
				l0,0c-3.6,0-6.5-0.7-7.1-1.2c-0.1-0.1-0.3-0.3-0.4-0.5c-0.1,0.1-0.1,0.2-0.2,0.3h0.1c0,0,0.1,0.7,3.5,1.3l0,0h0.1l0,0l2.6,0.5
				c0,0,0.1,0,0.2,0.1c0,0.1,0.1,0.1,0.1,0.2c0.1,0.1,0.1,0.1,0.1,0.2l0.1,0.1l0,0c0.1,0.1,0.1,0.1,0.1,0.2c0.1,0.2,0.5,0.3,0.9,0.3
				s0.7-0.1,0.8-0.3c0.1-0.1,0.1-0.1,0.1-0.2h-0.1l0.1-0.1c0.1-0.1,0.1-0.1,0.1-0.2c0.1-0.1,0.1-0.1,0.1-0.2
				c0.1-0.1,0.2-0.1,0.2-0.1l2.6-0.5H33l0,0C36.3,18.7,36.6,18,36.7,17.9z M28.9,20.6c-0.5,0-0.8-0.3-0.8-0.5c0-0.3,0.4-0.5,0.8-0.5
				c0.5,0,0.8,0.3,0.8,0.5C29.7,20.3,29.4,20.6,28.9,20.6z"/>
			<path class="st0" d="M21.5,19c0,0.2,0.2,0.4,0.4,0.4c0.2,0,0.4-0.2,0.4-0.4s-0.2-0.4-0.4-0.4C21.7,18.6,21.5,18.8,21.5,19z"/>
			<path class="st0" d="M37.4,24.3c0.1-0.2,0.1-1.6,0.1-1.7c0-0.1,0-0.5-0.1-0.8c-0.1-0.3-0.1-1.2-0.1-1.3c0-0.2,0.1-1-0.1-1.3
				c-0.1-0.3-0.2-0.4-0.3-0.6c0,0.1,0.1,0.1,0.1,0.1c0.1,0.3,0.2,0.7,0.1,0.9c0,0-0.1,0.1-0.4,0.1c-0.1,0-0.3,0-0.4,0.1
				c-0.5,0.1-1.6,0.4-2.1,0.4c0,0-0.1-0.1-0.3-0.1c-0.1,0-0.2,0-0.3,0.1c-0.7,0.1-1.8,0.3-2.7,0.3l-1.3,0.2l0,0l0,0
				c-0.1,0.2-0.5,0.3-0.9,0.3c-0.3,0-0.7-0.1-0.9-0.3l0,0l0,0l0,0l-1.2-0.2c-0.9-0.1-2.1-0.3-2.7-0.3c-0.1,0-0.3-0.1-0.3-0.1
				c-0.1,0.1-0.3,0.1-0.3,0.1c-0.5,0-1.6-0.3-2.1-0.4c-0.1-0.1-0.3-0.1-0.4-0.1c-0.2,0-0.4-0.1-0.4-0.1c-0.1-0.2,0.1-0.7,0.1-0.9
				c0.3-0.1,0.3-0.2,0.4-0.3c0,0.1-0.1,0.1-0.1,0.1c-0.5,0.9-0.5,1.5-0.6,3.3c-0.1,1.7,0.3,2.7,0.3,2.7c0.1,0.1,0.2,0.1,0.2,0.1
				c0,0.9,0.5,0.9,1.4,0.9c1,0,1-0.7,1-0.7c2.9,0.3,11.4,0,11.4,0c0.2,0.4,0.1,0.7,1.5,0.7s1.1-0.8,1.1-0.8S37.3,24.5,37.4,24.3z
				 M36.9,23.7c0,0,0-0.1,0-0.3c-0.2,0.1-0.9,0.5-2.3,0.5c-1.9,0.1-7.3,0.2-7.3,0.2s-4.9,0.1-6.3-0.8c0,0,0,0-0.1-0.1
				c0,0.2-0.1,0.3-0.1,0.4c0,0.1-0.2,0.3-0.2,0.3l-0.1-0.4c-0.1-2.1,0.3-2.5,0.3-2.5c0.3-0.3,2.6-0.1,2.6-0.1
				c-1.7,0.1-2.1,0.3-2.1,0.3c-0.1,0.1-0.1,0.4-0.2,0.7c0,0.1,0.1,0.2,0.3,0.3s2.6,0.5,5.5,0.6c2.9,0.1,4.9,0,4.9,0s3.7-0.1,4.8-0.5
				c0,0,0.1-0.1,0.2-0.1c-0.1-0.3-0.1-0.7-0.3-0.9c0,0-0.4-0.2-2.1-0.3c0,0,2.3-0.2,2.6,0.1c0,0,0.3,0.3,0.3,2.5l-0.1,0.4
				C37.1,24,36.9,23.9,36.9,23.7z"/>
			<path class="st0" d="M25.2,19.8c-0.7-0.1-1.5-0.3-1.8-0.3c0.1,0.1,0.3,0.3,0.4,0.4c0.1,0,0.2,0,0.3,0.1c0.5,0.1,0.9,0.1,1.3,0.1
				L25.2,19.8L25.2,19.8L25.2,19.8z"/>
			<path class="st0" d="M22,16.9c0,0-0.2,0.2-0.5,0.6c0.1,0.1,0.2,0.3,0.3,0.5c0.5,0.3,3.3,1.1,7.1,1.1s6.6-0.8,7.1-1.1
				c0.1-0.1,0.3-0.3,0.4-0.5c-0.2-0.3-0.5-0.6-0.5-0.6s0.7,0,0.9-0.1c0.3-0.1,0.5-0.4,0.5-0.5c0-0.1-0.2-0.3-0.5-0.5
				c-0.3-0.2-1.2-0.3-1.4-0.2c-0.1,0.1,0,0.8,0,0.8s-0.1,0-0.1-0.1c-0.1-0.1-0.1-0.1-0.1-0.1c-0.6-1.3-1.9-2.3-2.3-2.7
				c-0.3-0.3-1.7-0.3-1.7-0.3h-1.7c0,0-3.4-0.1-4.5,0.1c-1.1,0.3-2.9,3.1-2.9,3.1v-0.1l0.1-0.7c0,0,0-0.1-0.1-0.1
				c-0.1,0-0.6,0.1-0.9,0.1s-0.5,0.3-0.7,0.5c-0.1,0.1-0.1,0.1,0,0.2C21.1,16.9,22,16.9,22,16.9z M22.8,16.2c0.3-0.9,1.7-2.1,2-2.3
				c0,0,0.1-0.1,0.1-0.1h7.9c0.1,0,0.1,0,0.1,0c0.9,0.5,1.8,2.1,2,2.4c0,0.1,0,0.1-0.1,0.1c-0.7,0-4.9,0.1-5.9,0.1
				C28,16.4,23.6,16.3,22.8,16.2C22.8,16.3,22.8,16.3,22.8,16.2z"/>
			<path class="st0" d="M21.4,22.5c-0.2,0-0.4,0.2-0.4,0.5c0,0.3,0.2,0.5,0.4,0.5s0.4-0.2,0.4-0.5C21.8,22.7,21.6,22.5,21.4,22.5z"
				/>
			<path class="st0" d="M36.3,22.5c-0.2,0-0.4,0.2-0.4,0.5c0,0.3,0.2,0.5,0.4,0.5c0.2,0,0.4-0.2,0.4-0.5
				C36.7,22.7,36.5,22.5,36.3,22.5z"/>
		</g>
	</g>
</g>
</svg>
