<?xml version="1.0" encoding="utf-8"?>
<!-- Generator: Adobe Illustrator 25.4.1, SVG Export Plug-In . SVG Version: 6.00 Build 0)  -->
<svg version="1.1" id="Capa_1" xmlns="http://www.w3.org/2000/svg" xmlns:xlink="http://www.w3.org/1999/xlink" x="0px" y="0px"
	 viewBox="0 0 70.3 70.3" style="enable-background:new 0 0 70.3 70.3;" xml:space="preserve">
<style type="text/css">
	.st0{fill:#FFFFFF;}
</style>
<g>
	<g>
		<path class="st0" d="M27.5,32.3l2.8,0.6l-2.4,8.5c-0.1,0.3-0.2,0.6-0.4,0.8c-0.2,0.3-0.4,0.5-0.6,0.7c-0.3,0.2-0.5,0.3-0.9,0.4
			c-0.3,0.1-0.7,0.2-1.1,0.2c-0.9,0-1.6-0.2-2-0.6c-0.5-0.4-0.8-0.9-1-1.5l-2.4-8.5l2.8-0.6l2.4,8.5c0,0.1,0.1,0.2,0.1,0.2h0.1H25
			c0,0,0.1-0.1,0.1-0.2L27.5,32.3z"/>
		<path class="st0" d="M37.8,43.7l-0.8-3h-3.4l-0.9,3l-2.8-0.6l2.4-8.3c0.1-0.4,0.2-0.7,0.4-1c0.2-0.3,0.4-0.5,0.6-0.7
			c0.2-0.2,0.5-0.3,0.9-0.4c0.3-0.1,0.8-0.2,1.2-0.2c0.5,0,0.8,0.1,1.2,0.1c0.3,0.1,0.6,0.2,0.8,0.4c0.2,0.2,0.4,0.4,0.5,0.7
			s0.3,0.6,0.4,0.9l2.4,8.5L37.8,43.7z M36.3,38.2l-0.8-3.3c0-0.1-0.1-0.2-0.2-0.2c-0.1,0-0.1,0.1-0.2,0.2l-0.9,3.3H36.3z"/>
		<path class="st0" d="M42,43.3V32.6h2.9v8.2H50v2.5C50,43.3,42,43.3,42,43.3z"/>
		<path class="st0" d="M57.2,32.6h2.9v6.1c0,0.7-0.1,1.4-0.2,2c-0.1,0.6-0.4,1.1-0.7,1.5c-0.3,0.4-0.8,0.8-1.4,1
			c-0.6,0.2-1.3,0.4-2.3,0.4c-0.9,0-1.7-0.1-2.3-0.3c-0.6-0.2-1.1-0.5-1.4-0.9c-0.3-0.4-0.6-0.9-0.7-1.5c-0.1-0.6-0.2-1.2-0.2-2
			v-6.3h2.9v6c0,0.4,0,0.7,0.1,1c0,0.3,0.1,0.6,0.2,0.8c0.1,0.2,0.3,0.4,0.5,0.5c0.2,0.1,0.5,0.2,0.9,0.2c0.3,0,0.6-0.1,0.8-0.2
			c0.2-0.1,0.4-0.3,0.5-0.5s0.2-0.5,0.3-0.8c0-0.3,0.1-0.6,0.1-1L57.2,32.6L57.2,32.6z"/>
		<path class="st0" d="M62.3,43.3V32.6h7.9v2.5h-5v1.4H69V39h-3.8v1.8h5.1v2.5L62.3,43.3L62.3,43.3z"/>
	</g>
	<polygon class="st0" points="19.4,22.8 19.4,24.5 21.9,24.5 21.9,31.2 23.7,31.2 23.7,24.5 26.3,24.5 26.3,22.8 	"/>
	<path class="st0" d="M31.6,22.7c-2.6,0-4.4,1.9-4.4,4.3l0,0c0,2.4,1.8,4.3,4.4,4.3S36,29.4,36,27l0,0C36,24.6,34.2,22.7,31.6,22.7z
		 M34.1,27c0,1.4-1,2.6-2.5,2.6s-2.5-1.2-2.5-2.6l0,0c0-1.4,1-2.6,2.5-2.6C33,24.4,34.1,25.6,34.1,27L34.1,27z"/>
	<polygon class="st0" points="39.5,27.9 39.5,31.2 41.3,31.2 41.3,27.8 44.5,22.8 42.4,22.8 40.4,26.2 38.4,22.8 36.3,22.8 	"/>
	<path class="st0" d="M49.2,22.7c-2.6,0-4.4,1.9-4.4,4.3l0,0c0,2.4,1.8,4.3,4.4,4.3c2.6,0,4.4-1.9,4.4-4.3l0,0
		C53.6,24.6,51.8,22.7,49.2,22.7z M51.7,27c0,1.4-1,2.6-2.5,2.6s-2.5-1.2-2.5-2.6l0,0c0-1.4,1-2.6,2.5-2.6S51.7,25.6,51.7,27
		L51.7,27z"/>
	<polygon class="st0" points="57.1,24.5 57.1,31.2 58.9,31.2 58.9,24.5 61.4,24.5 61.4,22.8 54.6,22.8 54.6,24.5 	"/>
	<path class="st0" d="M66.5,22.8h-1.7l-3.6,8.4h1.9l0.8-1.9h3.5l0.8,1.9h1.9L66.5,22.8z M64.6,27.7l1.1-2.7l1.1,2.7H64.6z"/>
	<path class="st0" d="M19.5,48h0.6v-1.7l0.3,0.5c0.1,0.1,0.2,0.2,0.2,0.3c0.1,0.1,0.2,0.1,0.3,0.1c0.1,0,0.2,0,0.3-0.1
		c0.1-0.1,0.2-0.2,0.2-0.3l0.3-0.5V48h0.6v-2.8h-0.5L21,46.5c0,0,0,0.1-0.1,0.1c0,0,0,0-0.1,0c0,0,0,0-0.1,0c0,0,0,0-0.1-0.1
		l-0.7-1.3h-0.5L19.5,48L19.5,48z"/>
	<polygon class="st0" points="23.1,48 25.1,48 25.1,47.5 23.6,47.5 23.6,46.8 24.7,46.8 24.7,46.3 23.6,46.3 23.6,45.7 25,45.7 
		25,45.2 23.1,45.2 	"/>
	<path class="st0" d="M25.6,47.9c0,0,0.1,0,0.1,0.1c0.1,0,0.1,0,0.2,0.1c0.1,0,0.1,0,0.2,0s0.2,0,0.3,0c0.3,0,0.6-0.1,0.7-0.2
		c0.2-0.2,0.2-0.4,0.2-0.7v-1.9h-0.6v1.9c0,0.1,0,0.2,0,0.2c0,0.1-0.1,0.1-0.1,0.1l-0.1,0.1c-0.1,0-0.1,0-0.2,0s-0.2,0-0.3,0
		c-0.1,0-0.2-0.1-0.3-0.1L25.6,47.9z"/>
	<path class="st0" d="M30.7,46.1c0-0.2-0.1-0.3-0.2-0.5c-0.1-0.1-0.2-0.2-0.4-0.3c-0.2-0.1-0.4-0.1-0.6-0.1s-0.4,0-0.6,0.1
		c-0.2,0.1-0.3,0.2-0.4,0.3s-0.2,0.3-0.2,0.5c-0.1,0.2-0.1,0.4-0.1,0.5c0,0.1,0,0.4,0.1,0.5c0,0.2,0.1,0.3,0.2,0.5
		c0.1,0.1,0.2,0.2,0.4,0.3c0.2,0.1,0.4,0.1,0.6,0.1s0.4,0,0.6-0.1c0.2-0.1,0.3-0.2,0.4-0.3c0.1-0.1,0.2-0.3,0.2-0.5s0.1-0.4,0.1-0.5
		C30.8,46.4,30.8,46.2,30.7,46.1z M30.1,47c0,0.1-0.1,0.2-0.1,0.3s-0.1,0.2-0.2,0.2c-0.1,0.1-0.2,0.1-0.3,0.1c-0.1,0-0.2,0-0.3-0.1
		c-0.1-0.1-0.2-0.2-0.3-0.3c-0.1-0.2-0.1-0.3-0.1-0.5c0-0.1,0-0.3,0-0.4c0-0.1,0.1-0.2,0.1-0.3c0.1-0.1,0.1-0.2,0.2-0.2
		c0.1-0.1,0.2-0.1,0.3-0.1s0.2,0,0.3,0.1c0.1,0.1,0.2,0.1,0.2,0.2c0.1,0.1,0.1,0.2,0.1,0.3s0,0.2,0,0.4C30.2,46.7,30.2,46.8,30.1,47
		z"/>
	<path class="st0" d="M33.2,47L33.2,47L33,46.8c0.1,0,0.2-0.1,0.2-0.1c0.1-0.1,0.1-0.1,0.2-0.2c0.1-0.1,0.1-0.2,0.1-0.2
		c0-0.1,0.1-0.2,0.1-0.3c0-0.2,0-0.3-0.1-0.4c-0.1-0.1-0.1-0.2-0.2-0.2c-0.1-0.1-0.2-0.1-0.3-0.1s-0.2,0-0.4,0h-1v2.8h0.6v-1h0.1
		h0.1h0.1l0.1,0.1l0.1,0.1l0.7,0.8l0.4-0.3L33.2,47z M32.5,46.5h-0.4v-0.8h0.4c0.1,0,0.1,0,0.2,0c0.1,0,0.1,0,0.2,0.1l0.1,0.1
		c0,0.1,0,0.1,0,0.2c0,0.1,0,0.2-0.1,0.3C32.8,46.4,32.7,46.5,32.5,46.5z"/>
	<path class="st0" d="M35.4,45.3l0.7,2.3c0,0.2,0.1,0.3,0.2,0.4c0.1,0.1,0.3,0.1,0.5,0.1c0.1,0,0.2,0,0.3,0s0.1-0.1,0.2-0.1
		c0.1,0,0.1-0.1,0.1-0.2c0-0.1,0.1-0.1,0.1-0.2l0.7-2.2l-0.5-0.1L37,47.6c0,0.1,0,0.1-0.1,0.1s0,0-0.1,0s-0.1,0-0.1,0s0-0.1-0.1-0.1
		l-0.7-2.3L35.4,45.3z"/>
	<path class="st0" d="M40.3,45.7c0-0.1-0.1-0.2-0.1-0.2s-0.1-0.1-0.1-0.2c-0.1,0-0.1-0.1-0.2-0.1c-0.1,0-0.2,0-0.3,0s-0.2,0-0.3,0
		s-0.1,0.1-0.2,0.1c-0.1,0-0.1,0.1-0.1,0.2c0,0.1-0.1,0.1-0.1,0.2l-0.7,2.2l0.6,0.1l0.3-0.8h1.1l0.2,0.8l0.6-0.1L40.3,45.7z
		 M39.2,46.7l0.3-0.9c0-0.1,0-0.1,0.1-0.1h0.1h0.1c0,0,0,0.1,0.1,0.1l0.1,0.9H39.2z"/>
	<polygon class="st0" points="41.6,48 43.6,48 43.6,47.5 42.2,47.5 42.2,45.2 41.6,45.2 	"/>
	<path class="st0" d="M46.7,46.1c0-0.2-0.1-0.3-0.2-0.5c-0.1-0.1-0.2-0.2-0.4-0.3c-0.2-0.1-0.4-0.1-0.6-0.1c-0.2,0-0.4,0-0.6,0.1
		c-0.2,0.1-0.3,0.2-0.4,0.3c-0.1,0.1-0.2,0.3-0.2,0.5c-0.1,0.2-0.1,0.4-0.1,0.5c0,0.1,0,0.4,0.1,0.5c0,0.2,0.1,0.3,0.2,0.5
		c0.1,0.1,0.2,0.2,0.4,0.3s0.4,0.1,0.6,0.1c0.2,0,0.4,0,0.6-0.1c0.2-0.1,0.3-0.2,0.4-0.3c0.1-0.1,0.2-0.3,0.2-0.5s0.1-0.4,0.1-0.5
		C46.8,46.4,46.8,46.2,46.7,46.1z M46.2,47c0,0.1-0.1,0.2-0.1,0.3c-0.1,0.1-0.1,0.2-0.2,0.2c-0.1,0.1-0.2,0.1-0.3,0.1
		s-0.2,0-0.3-0.1c-0.1-0.1-0.2-0.2-0.3-0.3c-0.1-0.2-0.1-0.3-0.1-0.5c0-0.1,0-0.3,0-0.4c0-0.1,0.1-0.2,0.1-0.3
		c0.1-0.1,0.1-0.2,0.2-0.2c0.1-0.1,0.2-0.1,0.3-0.1s0.2,0,0.3,0.1c0.1,0.1,0.2,0.1,0.2,0.2c0.1,0.1,0.1,0.2,0.1,0.3s0,0.2,0,0.4
		C46.2,46.7,46.2,46.8,46.2,47z"/>
	<path class="st0" d="M49.2,47L49.2,47L49,46.8c0.1,0,0.2-0.1,0.2-0.1c0.1-0.1,0.1-0.1,0.2-0.2c0.1-0.1,0.1-0.2,0.1-0.2
		c0-0.1,0.1-0.2,0.1-0.3c0-0.2,0-0.3-0.1-0.4c-0.1-0.1-0.1-0.2-0.2-0.2c-0.1-0.1-0.2-0.1-0.3-0.1s-0.2,0-0.4,0h-1v2.8h0.6v-1h0.1
		h0.1h0.1l0.1,0.1l0.1,0.1l0.7,0.8l0.4-0.3L49.2,47z M48.5,46.5h-0.4v-0.8h0.4c0.1,0,0.1,0,0.2,0c0.1,0,0.1,0,0.2,0.1l0.1,0.1
		c0,0.1,0,0.1,0,0.2c0,0.1,0,0.2-0.1,0.3C48.8,46.4,48.7,46.5,48.5,46.5z"/>
	<path class="st0" d="M51.4,47.8c0.1,0,0.1,0,0.2,0.1c0.1,0,0.2,0,0.2,0.1c0.1,0,0.2,0,0.3,0.1c0.1,0.1,0.2,0,0.3,0
		c0.2,0,0.4,0,0.5-0.1c0.1,0,0.3-0.1,0.4-0.2c0.1-0.1,0.2-0.2,0.2-0.3c0.1-0.1,0.1-0.2,0.1-0.4s0-0.3-0.1-0.4
		c-0.1-0.1-0.1-0.2-0.2-0.2c-0.1-0.1-0.2-0.1-0.3-0.1s-0.2-0.1-0.4-0.1s-0.3-0.1-0.4-0.1c-0.1,0-0.1-0.1-0.1-0.2
		c0-0.1,0-0.2,0.1-0.2c0.1-0.1,0.2-0.1,0.4-0.1c0.1,0,0.3,0,0.4,0c0.1,0,0.3,0.1,0.4,0.1l0.1-0.5c-0.1-0.1-0.3-0.1-0.4-0.1
		c-0.2,0-0.3-0.1-0.5-0.1s-0.4,0-0.5,0.1c-0.1,0-0.3,0.1-0.4,0.2c-0.1,0.1-0.2,0.2-0.2,0.3s-0.1,0.2-0.1,0.3s0,0.3,0.1,0.4
		c0.1,0.1,0.1,0.2,0.2,0.2c0.1,0.1,0.2,0.1,0.3,0.1s0.2,0.1,0.3,0.1s0.2,0,0.2,0.1c0.1,0,0.1,0,0.2,0.1c0.1,0,0.1,0.1,0.1,0.1
		s0,0.1,0,0.2c0,0.1,0,0.2-0.1,0.3s-0.2,0.1-0.5,0.1s-0.6-0.1-0.9-0.2L51.4,47.8z"/>
	<rect x="54.5" y="45.2" class="st0" width="0.6" height="2.8"/>
	<polygon class="st0" points="56,48 57.9,48 57.9,47.5 56.5,47.5 56.5,46.8 57.6,46.8 57.6,46.3 56.5,46.3 56.5,45.7 57.9,45.7 
		57.9,45.2 56,45.2 	"/>
	<path class="st0" d="M58.7,48h0.6v-1.7l0.3,0.5c0.1,0.1,0.2,0.2,0.2,0.3c0.1,0.1,0.2,0.1,0.3,0.1s0.2,0,0.3-0.1
		c0.1-0.1,0.2-0.2,0.2-0.3l0.3-0.5V48h0.6v-2.8H61l-0.7,1.3c0,0,0,0.1-0.1,0.1c0,0,0,0-0.1,0c0,0,0,0-0.1,0c0,0,0,0-0.1-0.1
		l-0.7-1.3h-0.5V48z"/>
	<path class="st0" d="M64.2,45.7c-0.1-0.1-0.1-0.2-0.2-0.3c-0.1-0.1-0.2-0.1-0.3-0.2c-0.1,0-0.2-0.1-0.4-0.1h-1v2.8h0.6v-1h0.5
		c0.1,0,0.3,0,0.4-0.1c0.1,0,0.2-0.1,0.3-0.2c0.1-0.1,0.2-0.2,0.2-0.3c0.1-0.1,0.1-0.2,0.1-0.4C64.3,45.9,64.3,45.8,64.2,45.7z
		 M63.7,46.3C63.7,46.4,63.6,46.4,63.7,46.3c-0.1,0.1-0.2,0.2-0.3,0.2c-0.1,0-0.1,0-0.2,0h-0.4v-0.8h0.4c0.1,0,0.1,0,0.2,0
		c0.1,0,0.1,0,0.2,0.1l0.1,0.1c0,0.1,0,0.1,0,0.2S63.7,46.3,63.7,46.3z"/>
	<path class="st0" d="M66.7,47L66.7,47l-0.2-0.2c0.1,0,0.2-0.1,0.2-0.1c0.1-0.1,0.1-0.1,0.2-0.2c0.1-0.1,0.1-0.2,0.1-0.2
		c0-0.1,0.1-0.2,0.1-0.3c0-0.2,0-0.3-0.1-0.4c-0.1-0.1-0.1-0.2-0.2-0.2s-0.2-0.1-0.3-0.1c-0.1,0-0.2,0-0.4,0h-1v2.8h0.6v-1h0.1h0.1
		H66l0.1,0.1l0.1,0.1l0.7,0.8l0.4-0.3L66.7,47z M66,46.5h-0.4v-0.8H66c0.1,0,0.1,0,0.2,0s0.1,0,0.2,0.1l0.1,0.1c0,0.1,0,0.1,0,0.2
		c0,0.1,0,0.2-0.1,0.3C66.3,46.4,66.2,46.5,66,46.5z"/>
	<polygon class="st0" points="68,48 70,48 70,47.5 68.5,47.5 68.5,46.8 69.6,46.8 69.6,46.3 68.5,46.3 68.5,45.7 70,45.7 70,45.2 
		68,45.2 	"/>
	<circle class="st0" cx="4.2" cy="34.9" r="1.1"/>
	<path class="st0" d="M1.1,46.7c0,1,0.3,1.2,0.6,1.2s2.1,0,3,0s0.8-0.5,0.8-0.8s0-1.9-0.1-1.9c-0.2,0-4.1-0.5-4.2-0.5
		c-0.1,0-0.1,0-0.1,0.2S1.1,46.1,1.1,46.7z"/>
	<path class="st0" d="M16.5,35c-0.6,0-1.1,0.5-1.1,1.1c0,0.6,0.5,1.1,1.1,1.1C16.7,37.1,16.6,35,16.5,35z"/>
	<path class="st0" d="M3.1,40.8c-0.6,0-1.1,0.5-1.1,1.1C2,42.5,2.5,43,3.1,43s1.1-0.5,1.1-1.1C4.2,41.2,3.7,40.8,3.1,40.8z"/>
	<path class="st0" d="M8.3,23.9c0.4,0,7-0.1,8.1-0.1c0.1,0,0.2-0.1,0.2-0.2V23c0-0.1-0.1-0.2-0.2-0.2c-1.1,0-7.1,0-8.1,0.1
		C8,23,6.9,24.3,6.2,25.2c-0.7,1-1.5,2.2-2.3,3.5c-0.2,0.3-0.5,0.6-0.7,1C3.1,29.6,3,29.4,3,29.2c0.2-0.5,1-1.7-0.5-1.5
		C1.1,28,0,28.4,0,29.1c0,0.6,0.5,0.9,1.6,1.1c0.4,0,0.8,0.1,1.2,0.2c-1.3,2-2.3,3.9-2.4,4.3c-0.2,1.1,0.4,9.5,0.5,9.6
		c0.2,0.1,6.4,0.9,6.7,0.9h8.8c0.1,0,0.1-0.1,0.1-0.1v-1.6c0-0.1-0.1-0.1-0.1-0.1c-1.5,0.1-4.1,0-5.9-0.9c-3.5-1.7-3.4-2.8-3.1-3.1
		C8,39,7.9,39.9,9.5,40.8c0.5,0.3,2.1,1.1,3.1,1.3c1.4,0.3,2.8,0.2,3.8,0.1v-4.6c0-0.1-0.1-0.2-0.2-0.2l-6.1-0.5c0,0,0,0-0.1,0
		l-0.3-0.3c-0.1-0.1,0-0.1,0.1-0.1l5.2,0.3c0.1,0,0.1,0,0.1-0.1L15,36.3c0,0,0-0.1-0.1-0.1l-5.7-0.4c0,0,0,0-0.1,0l-0.2-0.3
		c0-0.1,0-0.1,0.1-0.1l6,0.3c0,0,0.1,0,0.1-0.1v-0.4c0,0,0-0.1-0.1-0.1l-6.2-0.4H8.7l-0.2-0.5c0-0.1,0-0.1,0.1-0.1l7.9,0.6
		c0.1,0,0.1-0.1,0.1-0.1v-5.1c0,0-9,0-10.6,0S4.8,29,5.2,28.2C5.7,27.3,8.1,23.9,8.3,23.9z M4.6,43.2c-0.1,0.1-1.7,0.2-2.3-0.2
		c-0.6-0.4-0.6-2.9-0.6-2.9c1.1,0,1.8,0.2,2.2,0.8S4.7,43.1,4.6,43.2z M6.6,39.4c0,0,0,0.2,0,0.5c0,0.4-0.5,0.4-0.5-0.2
		c-0.1-0.6,0.1-0.9,0.5-1.2c0.4-0.4,0.7-0.3,0.7,0C7.4,38.8,7.1,38.9,6.6,39.4z M4.9,33.6c1.8,0.3,2.2,1.2,2.6,1.8
		c0.4,0.6,1,1.7,0.7,1.6c-0.3-0.1-2.2-0.6-3.1-0.8c-0.8,0.5-1.7-0.1-2.2-0.3c-1.1-0.5-0.8-1.9-0.6-2.2C2.5,33.3,3,33.3,4.9,33.6z"/>
</g>
</svg>
