<?xml version="1.0" encoding="utf-8"?>
<!-- Generator: Adobe Illustrator 25.4.1, SVG Export Plug-In . SVG Version: 6.00 Build 0)  -->
<svg version="1.1" id="Capa_1" xmlns="http://www.w3.org/2000/svg" xmlns:xlink="http://www.w3.org/1999/xlink" x="0px" y="0px"
	 viewBox="0 0 50 50" style="enable-background:new 0 0 50 50;" xml:space="preserve">
<style type="text/css">
	.st0{fill:#FFFFFF;}
</style>
<g>
	<g>
		<path class="st0" d="M41,6.8c0.5-0.6,1-1.3,1.8-2.2c1,3,1.9,5.5,3,8.3c-3,0.1-5.8,0.3-8.7,0.4c0.4-0.9,0.8-1.6,1-2.2
			C30,3.6,15.7,4.4,4.2,12.9C9.7,4.5,25.8-2.5,41,6.8z"/>
	</g>
	<g>
		<path class="st0" d="M8.8,43.1c-0.5,0.6-1,1.3-1.8,2.2c-0.9-3-1.8-5.5-2.9-8.2c3-0.1,5.7-0.3,8.6-0.4c-0.4,0.9-0.8,1.6-1.2,2.1
			c7.9,7.7,21.8,7.1,33.2-1.3C39.4,45.8,23.7,52.4,8.8,43.1z"/>
	</g>
	<g>
		<g>
			<path class="st0" d="M7.4,30.5h1.4v0.4h-1v0.4h0.8v0.4H7.7v0.5h1v0.4H7.4V30.5z"/>
		</g>
		<g>
			<path class="st0" d="M9.2,30.5h0.4l0.8,1.6v-1.6h0.4V32v0.1c0,0.1,0,0.1,0,0.1c0,0.1,0,0.1-0.1,0.1l-0.1,0.1h-0.1h-0.1
				c-0.1,0-0.1,0-0.1-0.1c-0.1-0.1-0.1-0.1-0.1-0.3l-0.5-1v1.3H9v-1.9H9.2z"/>
		</g>
		<g>
			<path class="st0" d="M11.9,29.9h1.2c0.1,0,0.3,0,0.4,0.1c0.1,0,0.3,0.1,0.4,0.1c0.1,0.1,0.1,0.1,0.3,0.3c0.1,0.1,0.1,0.3,0.1,0.4
				s0,0.3-0.1,0.4c-0.1,0.1-0.1,0.3-0.3,0.3c-0.1,0.1-0.1,0.1-0.4,0.1c-0.1,0-0.3,0.1-0.4,0.1h-0.5v1h-0.6
				C11.9,32.8,11.9,29.9,11.9,29.9z M12.9,31.4c0.1,0,0.1,0,0.1,0c0.1,0,0.1,0,0.1-0.1c0.1-0.1,0.1-0.1,0.1-0.1
				c0-0.1,0.1-0.1,0.1-0.1c0-0.1,0-0.1,0-0.3c0-0.1-0.1-0.1-0.1-0.3c-0.1,0-0.1-0.1-0.1-0.1c-0.1,0-0.1,0-0.1,0h-0.4v1H12.9z"/>
		</g>
		<g>
			<path class="st0" d="M14.8,30.5c0-0.1,0.1-0.1,0.1-0.3s0.1-0.1,0.1-0.1c0.1-0.1,0.1-0.1,0.3-0.1c0.1,0,0.1,0,0.3,0
				c0.1,0,0.1,0,0.3,0c0.1,0,0.1,0.1,0.1,0.1c0.1,0.1,0.1,0.1,0.1,0.1c0,0.1,0.1,0.1,0.1,0.3l0.8,2.3l-0.6,0.1L16.1,32h-1.2
				l-0.3,0.9l-0.5-0.1L14.8,30.5z M16.1,31.6l-0.3-1c0-0.1,0-0.1-0.1-0.1h-0.1h-0.1c0,0,0,0.1-0.1,0.1l-0.3,1H16.1z"/>
		</g>
		<g>
			<path class="st0" d="M17.5,30.1h1.2c0.1,0,0.3,0,0.4,0.1c0.1,0,0.3,0.1,0.4,0.1c0.1,0.1,0.1,0.1,0.1,0.3c0.1,0.1,0.1,0.3,0.1,0.4
				c0,0.1,0,0.1-0.1,0.3c0,0.1-0.1,0.1-0.1,0.3s-0.1,0.1-0.1,0.1c-0.1,0.1-0.1,0.1-0.3,0.1c0.1,0,0.1,0.1,0.1,0.1l0.1,0.1l0.6,0.8
				l-0.4,0.4l-0.8-0.9c-0.1-0.1-0.1-0.1-0.1-0.1L18.5,32c0,0-0.1,0-0.1-0.1h-0.1h-0.1v1.2h-0.6L17.5,30.1z M18.5,31.5
				c0.1,0,0.3,0,0.4-0.1C19,31.2,19,31.2,19,31c0-0.1,0-0.1,0-0.1c0-0.1-0.1-0.1-0.1-0.1l-0.1-0.1c-0.1,0-0.1,0-0.1,0h-0.4v0.9H18.5
				z"/>
		</g>
		<g>
			<path class="st0" d="M20.9,30.7h-0.9v-0.5h2.5v0.5h-0.9l-0.1,2.5h-0.6L20.9,30.7z"/>
		</g>
		<g>
			<path class="st0" d="M22.8,30.2H25v0.5h-1.6v0.6h1.2v0.5h-1.2v0.8H25v0.5h-2.2V30.2z"/>
		</g>
		<g>
			<path class="st0" d="M25.9,30.7h0.8c0.1,0,0.3,0,0.4,0.1c0.1,0.1,0.3,0.1,0.3,0.1c0.1,0.1,0.1,0.1,0.1,0.4c0,0.1,0.1,0.3,0.1,0.4
				c0,0.1,0,0.3-0.1,0.4c0,0.1-0.1,0.3-0.1,0.4c-0.1,0.1-0.1,0.1-0.3,0.1c-0.1,0.1-0.3,0.1-0.4,0.1h-0.8V30.7z M26.7,32.4
				c0.1,0,0.4,0,0.4-0.1c0.1-0.1,0.1-0.3,0.1-0.4s0-0.4-0.1-0.5c-0.1-0.1-0.3-0.1-0.4-0.1h-0.4v1.3h0.4V32.4z"/>
		</g>
		<g>
			<path class="st0" d="M28.1,30.8h1.4v0.4h-1v0.4h0.8V32h-0.8v0.5h1v0.4h-1.4V30.8z"/>
		</g>
		<g>
			<path class="st0" d="M30.5,30.3h1.2c0.1,0,0.3,0,0.4,0.1c0.1,0,0.3,0.1,0.4,0.1c0.1,0.1,0.1,0.1,0.3,0.3c0.1,0.1,0.1,0.3,0.1,0.4
				c0,0.1,0,0.3-0.1,0.4c-0.1,0.1-0.1,0.3-0.3,0.3C32.3,32,32.3,32,32,32c-0.3,0-0.3,0.1-0.4,0.1h-0.5v1h-0.6V30.3z M31.6,31.9
				c0.1,0,0.1,0,0.1,0c0.1,0,0.1,0,0.1-0.1c0.1-0.1,0.1-0.1,0.1-0.1c0-0.1,0.1-0.1,0.1-0.1c0-0.1,0-0.1,0-0.3S32,31.1,32,31.1
				c-0.1,0-0.1-0.1-0.1-0.1h-0.1h-0.4v1h0.3V31.9z"/>
		</g>
		<g>
			<path class="st0" d="M33.5,31c0-0.1,0.1-0.1,0.1-0.3c0-0.1,0.1-0.1,0.1-0.1c0.1-0.1,0.1-0.1,0.3-0.1s0.1,0,0.3,0s0.1,0,0.3,0
				c0.1,0,0.1,0.1,0.1,0.1c0.1,0.1,0.1,0.1,0.1,0.1c0,0.1,0.1,0.1,0.1,0.3l0.8,2.3L35,33.4l-0.3-0.9h-1.2l-0.3,0.9l-0.5-0.1L33.5,31
				z M34.6,32l-0.3-1c0-0.1,0-0.1-0.1-0.1h-0.1h0c0,0,0,0.1-0.1,0.1l-0.4,1H34.6z"/>
		</g>
		<g>
			<path class="st0" d="M37.4,31.8h1.3v1.4c-0.1,0.1-0.1,0.1-0.3,0.1s-0.1,0.1-0.3,0.1c-0.1,0-0.1,0.1-0.4,0.1c-0.1,0-0.3,0-0.4,0
				c-0.3,0-0.5-0.1-0.8-0.1c-0.1-0.1-0.4-0.1-0.4-0.4c0-0.3-0.1-0.3-0.3-0.5c-0.1-0.1-0.1-0.4-0.1-0.6c0-0.3,0-0.4,0.1-0.6
				c0.1-0.1,0.1-0.4,0.4-0.4c0.1-0.1,0.3-0.3,0.5-0.4c0.1-0.1,0.4-0.1,0.8-0.1c0.1,0,0.4,0,0.5,0.1c0.1,0,0.4,0.1,0.4,0.1l-0.1,0.5
				c-0.1,0-0.1-0.1-0.3-0.1S38,31,38,30.8c-0.1,0-0.1,0-0.1,0c-0.1,0-0.1,0-0.1,0c-0.3,0-0.5,0.1-0.8,0.3c-0.1,0.1-0.3,0.4-0.3,0.6
				c0,0.4,0.1,0.6,0.1,0.8c0.1,0.1,0.4,0.3,0.6,0.3c0.1,0,0.3,0,0.4,0c0.1,0,0.1-0.1,0.3-0.1v-0.5h-0.6v-0.4H37.4z"/>
		</g>
		<g>
			<path class="st0" d="M39.4,33.1c-0.1-0.1-0.1-0.4-0.3-0.5c0-0.1-0.1-0.4-0.1-0.6c0-0.1,0-0.4,0.1-0.5c0.1-0.1,0.1-0.4,0.3-0.5
				s0.3-0.3,0.4-0.4c0.1-0.1,0.4-0.1,0.8-0.1c0.4,0,0.5,0.1,0.8,0.1c0.1,0.1,0.4,0.1,0.4,0.4s0.1,0.4,0.3,0.5
				c0.1,0.1,0.1,0.4,0.1,0.6s0,0.4-0.1,0.6c-0.1,0.1-0.1,0.4-0.3,0.5c-0.1,0.1-0.3,0.3-0.4,0.4c-0.1,0.1-0.4,0.1-0.8,0.1
				c-0.4,0-0.5-0.1-0.8-0.1C39.7,33.3,39.6,33.3,39.4,33.1z M40.2,32.9c0.1,0.1,0.1,0.1,0.4,0.1c0.3,0,0.3,0,0.4-0.1
				c0.1-0.1,0.1-0.1,0.3-0.1c0.1-0.1,0.1-0.1,0.1-0.4c0-0.1,0.1-0.3,0.1-0.4c0-0.1,0-0.3,0-0.4c0-0.1-0.1-0.3-0.1-0.4
				c-0.1-0.1-0.1-0.1-0.3-0.3c-0.1-0.1-0.1-0.1-0.4-0.1s-0.3,0-0.4,0.1c-0.1,0.1-0.1,0.1-0.3,0.1S40,31.2,40,31.5
				c0,0.1-0.1,0.3-0.1,0.4c0,0.1,0,0.4,0.1,0.5C40,32.7,40.1,32.9,40.2,32.9z"/>
		</g>
	</g>
	<g>
		<g>
			<path class="st0" d="M18.8,23.7c0-0.1,0-0.4,0-0.5c0.1-1.6,0.1-2.2,0.8-3.2c0-0.1,0.1-0.1,0.1-0.3h-5.8c-0.4,0-0.6-0.3-0.4-0.6
				l1.3-3.2c0.1-0.4,0.6-0.6,1-0.6h7.4l0,0c0.4-0.4,0.5-0.5,0.8-0.6c-0.1,0-0.3-0.1-0.4-0.1h-0.8h-6.9h-0.5c-0.8,0-1.4,0.5-1.7,1.2
				l-0.9,2.1L12,17.5c-0.1,0-0.1,0-0.3,0c-0.4,0-0.8,0.4-0.8,0.6v0.4c0,0.5,0.4,0.9,0.9,0.9H12l-0.3,0.4c-0.3,0.6-0.4,1.6-0.4,2.2
				v4.2c0,0.5,0.4,0.9,0.9,0.9h1.2c0.5,0,0.9-0.4,0.9-0.9v-1h4.4l0,0l0,0l0,0C18.8,24.7,18.8,24.4,18.8,23.7z M16.4,23.2
				c0,0.1-0.1,0.4-0.4,0.4h-2.5c-0.1,0-0.4-0.1-0.4-0.4v-1.3c0-0.1,0.1-0.4,0.4-0.4h2.3c0.1,0,0.4,0.1,0.4,0.4L16.4,23.2L16.4,23.2z
				"/>
		</g>
		<g>
			<path class="st0" d="M33.2,21.6l-0.1,0.3c0.4-0.1,0.9-0.1,1.4-0.1c0.1,0,0.3,0,0.4,0c0.1-0.1,0.3-0.3,0.4-0.4
				C34.9,21.4,34.1,21.5,33.2,21.6L33.2,21.6L33.2,21.6z"/>
			<path class="st0" d="M35.8,20.7c-0.5,0.1-1.3,0.4-2.2,0.4l-0.1,0.4l0,0l-3,0.5l0,0l0,0l0,0v0.1c0.4-0.1,3.4-0.5,4.9-0.8
				C35.5,21,35.8,20.7,35.8,20.7z"/>
			<path class="st0" d="M27.7,22L27.7,22L27.7,22L27.7,22l-3-0.5l0,0l-0.1-0.4c-1-0.1-1.7-0.3-2.2-0.4c0.1,0.1,0.4,0.4,0.5,0.6
				C24.5,21.5,27.4,22,27.7,22L27.7,22z"/>
			<path class="st0" d="M36.4,20.8c0,0.3,0.1,0.4,0.4,0.4c0.3,0,0.4-0.1,0.4-0.4c0-0.3-0.1-0.4-0.4-0.4
				C36.6,20.5,36.4,20.6,36.4,20.8z"/>
			<path class="st0" d="M37.6,19.5c-0.1-0.1-0.1-0.1-0.1-0.3l0,0c-0.1,0.1-0.3,0.4-0.4,0.5c-0.8,0.4-4,1.3-7.9,1.3l0,0
				c0,0,0,0-0.1,0c0,0,0,0-0.1,0l0,0c-4,0-7.3-0.8-7.9-1.3c-0.1-0.1-0.4-0.4-0.4-0.5c-0.1,0.1-0.1,0.1-0.1,0.3l0,0
				c0,0,0.1,0.8,4,1.4l0,0h0.1l0,0l2.9,0.5c0,0,0.1,0,0.3,0.1l0.1,0.1c0,0.1,0.1,0.1,0.1,0.1h0.1l0,0c0.1,0.1,0.1,0.1,0.1,0.3
				c0.1,0.1,0.6,0.3,1,0.3c0.4,0,0.8-0.1,0.9-0.3s0.1-0.1,0.1-0.3h-0.1l0.1-0.1c0-0.1,0.1-0.1,0.1-0.1c0-0.1,0.1-0.1,0.1-0.1
				c0.1-0.1,0.3-0.1,0.3-0.1l2.9-0.5l0,0l0,0C37.4,20.5,37.6,19.7,37.6,19.5z M29,22.5c-0.5,0-0.9-0.3-0.9-0.6
				c0-0.4,0.4-0.6,0.9-0.6c0.5,0,0.9,0.3,0.9,0.6C30,22.3,29.6,22.5,29,22.5z"/>
			<path class="st0" d="M20.7,20.8c0,0.3,0.1,0.4,0.4,0.4c0.3,0,0.4-0.1,0.4-0.4c0-0.3-0.1-0.4-0.4-0.4
				C20.9,20.5,20.7,20.6,20.7,20.8z"/>
			<path class="st0" d="M38.5,26.6c0.1-0.3,0.1-1.8,0.1-1.8c0-0.1,0-0.6-0.1-0.9c0-0.3-0.1-1.3-0.1-1.6c0-0.1,0.1-1,0-1.4
				c-0.1-0.3-0.3-0.4-0.4-0.6c0,0,0,0.1,0.1,0.1c0.1,0.3,0.1,0.8,0.1,1c0,0-0.1,0.1-0.4,0.1c-0.1,0-0.3,0-0.4,0.1
				C37,21.8,35.8,22,35.3,22c0,0-0.1-0.1-0.4-0.1c-0.1,0-0.1,0-0.4,0.1c-0.8,0.1-1.9,0.3-3,0.4l-1.4,0.1l0,0l0,0
				c-0.1,0.1-0.5,0.3-1,0.3c-0.4,0-0.8-0.1-1-0.3l0,0l0,0l0,0l-1.3-0.1c-1-0.1-2.2-0.3-3-0.4c-0.1,0-0.3,0-0.4-0.1
				C23.2,22,22.9,22,22.9,22c-0.5,0-1.7-0.3-2.2-0.4c-0.1,0-0.3-0.1-0.4-0.1c-0.3,0-0.4-0.1-0.4-0.1c-0.1-0.1,0.1-0.6,0.1-1
				c0-0.1,0.1-0.3,0.1-0.4l-0.1,0.1c-0.6,1-0.5,1.7-0.6,3.5c-0.1,1.8,0.3,3,0.3,3c0,0.1,0.1,0.1,0.1,0.1c0,1,0.4,1,1.7,1
				c1.3,0,1.2-0.8,1.2-0.8c3.1,0.4,12.6,0,12.6,0c0.1,0.4,0.1,0.8,1.7,0.8s1.3-0.9,1.3-0.9S38.4,26.8,38.5,26.6z M37.9,26
				c0,0,0-0.1,0-0.4c-0.3,0.1-1,0.5-2.6,0.6c-2.1,0.1-8.2,0.1-8.2,0.1s-5.5,0.1-7-0.9l0,0c0,0.3,0,0.4,0,0.4c0,0.1-0.3,0.3-0.3,0.3
				l0-0.4c-0.1-2.3,0.3-2.6,0.3-2.6c0.4-0.3,2.9-0.1,2.9-0.1c-1.9,0-2.3,0.3-2.3,0.3c-0.1,0.1-0.1,0.4-0.3,0.6
				c0,0.1,0.1,0.3,0.3,0.3c0.1,0.1,2.9,0.6,6.1,0.6c3.2,0.1,5.5,0,5.5,0s4-0.1,5.3-0.6c0,0,0.1-0.1,0.3-0.1
				c-0.1-0.4-0.1-0.6-0.3-0.9c0,0-0.4-0.3-2.3-0.3c0,0,2.6-0.1,2.9,0.1c0,0,0.4,0.4,0.3,2.6L38.1,26C38.3,26.3,37.9,26,37.9,26z"/>
			<path class="st0" d="M24.9,21.6c-0.8-0.1-1.7-0.3-1.9-0.4c0.1,0.1,0.4,0.4,0.4,0.4c0.1,0,0.1,0,0.4,0c0.5,0.1,1,0.1,1.4,0.1
				L24.9,21.6L24.9,21.6L24.9,21.6z"/>
			<path class="st0" d="M21.2,18.5c0,0-0.1,0.3-0.5,0.6c0.1,0.1,0.3,0.4,0.4,0.5c0.5,0.4,3.8,1.3,7.9,1.3s7.3-0.9,7.9-1.3
				c0.1-0.1,0.4-0.4,0.4-0.5c-0.1-0.3-0.5-0.6-0.5-0.6s0.8,0,1-0.1c0.4-0.1,0.5-0.4,0.5-0.5c0,0-0.1-0.3-0.5-0.5
				c-0.4-0.3-1.3-0.3-1.6-0.1c-0.1,0.1,0,0.9,0,0.9s-0.1,0-0.1-0.1c-0.1-0.1-0.1-0.1-0.1-0.1c-0.8-1.4-2.2-2.6-2.5-3
				c-0.4-0.4-1.9-0.3-1.9-0.3h-1.9c0,0-3.8-0.1-4.9,0.1c-1.2,0.3-3.1,3.4-3.1,3.4V18l0.1-0.8c0,0,0-0.1-0.1-0.1c-0.1,0-0.8,0-1,0.1
				c-0.4,0.1-0.5,0.4-0.8,0.5c0,0.1-0.1,0.1,0,0.1C20.3,18.5,21.2,18.5,21.2,18.5z M22.2,17.7c0.4-1,1.9-2.2,2.2-2.6l0.1-0.1h8.8
				h0.1c1,0.5,1.9,2.2,2.2,2.6c0,0,0,0.1-0.1,0.1c-0.8,0-5.5,0.1-6.6,0.1C27.9,18,23.1,17.9,22.2,17.7
				C22.2,17.9,22.2,17.9,22.2,17.7z"/>
			<ellipse class="st0" cx="20.7" cy="25.1" rx="0.4" ry="0.4"/>
			<path class="st0" d="M37.4,24.6c-0.3,0-0.4,0.1-0.4,0.4c0,0.3,0.1,0.4,0.4,0.4s0.4-0.1,0.4-0.4C37.7,24.7,37.6,24.6,37.4,24.6z"
				/>
		</g>
	</g>
</g>
</svg>
